G04*
G04 #@! TF.GenerationSoftware,Altium Limited,Altium Designer,18.0.7 (293)*
G04*
G04 Layer_Color=16711935*
%FSAX25Y25*%
%MOIN*%
G70*
G01*
G75*
%ADD30C,0.00050*%
D30*
X2421115Y-0054350D02*
G03*
X2420816Y-0053837I-0000591J0000000D01*
G01*
X2419540Y-0050020D02*
G03*
X2418950Y-0050610I0000000J-0000591D01*
G01*
X2420524Y-0050020D02*
G03*
X2421115Y-0049429I0000000J0000591D01*
G01*
X2222596Y0081913D02*
G03*
X2211307Y0078354I0000000J-0019685D01*
G01*
X2184295Y0068133D02*
G03*
X2206872Y0075250I0000000J0039370D01*
G01*
X2154619Y0068513D02*
G03*
X2160078Y0068133I0005459J0038990D01*
G01*
X2061626Y0081532D02*
G03*
X2056168Y0081913I-0005459J-0038990D01*
G01*
X1687349Y0099629D02*
G03*
X1687349Y0083881I-0038575J-0007874D01*
G01*
X2056168Y0101598D02*
G03*
X2061626Y0101978I0000000J0039370D01*
G01*
X2160078Y0115377D02*
G03*
X2154619Y0114997I0000000J-0039370D01*
G01*
X2206872Y0108260D02*
G03*
X2184295Y0115377I-0022577J-0032253D01*
G01*
X2211307Y0105156D02*
G03*
X2222596Y0101598I0011289J0016127D01*
G01*
X2440800Y-0049429D02*
G03*
X2441391Y-0050020I0000591J0000000D01*
G01*
X2442965Y-0050610D02*
G03*
X2442375Y-0050020I-0000591J0000000D01*
G01*
X2441099Y-0053837D02*
G03*
X2440800Y-0054350I0000292J-0000513D01*
G01*
X2439619Y-0058681D02*
G03*
X2440800Y-0057500I0000000J0001181D01*
G01*
X2421115D02*
G03*
X2422296Y-0058681I0001181J0000000D01*
G01*
X1760340Y0215850D02*
G03*
X1760340Y0215850I-0003937J0000000D01*
G01*
X1870007Y0108129D02*
G03*
X1870007Y0108129I-0003937J0000000D01*
G01*
X1969878D02*
G03*
X1969878Y0108129I-0003937J0000000D01*
G01*
X1870007Y0215850D02*
G03*
X1870007Y0215850I-0003937J0000000D01*
G01*
Y0249306D02*
G03*
X1870007Y0249306I-0003937J0000000D01*
G01*
X1969878Y0075375D02*
G03*
X1969878Y0075375I-0003937J0000000D01*
G01*
Y0249306D02*
G03*
X1969878Y0249306I-0003937J0000000D01*
G01*
X1760340D02*
G03*
X1760340Y0249306I-0003937J0000000D01*
G01*
X1870007Y0075446D02*
G03*
X1870007Y0075446I-0003937J0000000D01*
G01*
X1969878Y0216011D02*
G03*
X1969878Y0216011I-0003937J0000000D01*
G01*
X1760363Y0108129D02*
G03*
X1760363Y0108129I-0003937J0000000D01*
G01*
Y0075446D02*
G03*
X1760363Y0075446I-0003937J0000000D01*
G01*
X2421115Y-0049429D02*
Y0081913D01*
X2440800Y-0049429D02*
Y0101598D01*
X2421115Y-0057500D02*
Y-0054350D01*
X2418950Y-0052776D02*
X2420816Y-0053837D01*
X2418950Y-0052776D02*
Y-0050610D01*
X2419540Y-0050020D02*
X2420524D01*
X2222596Y0081913D02*
X2421115D01*
X2206872Y0075250D02*
X2211307Y0078354D01*
X2160078Y0068133D02*
X2184295D01*
X2061626Y0081532D02*
X2154619Y0068513D01*
X2019540Y0081913D02*
X2056168D01*
X2019540Y0054546D02*
Y0081913D01*
X1692869Y0054590D02*
X2019540Y0054546D01*
X1692869Y0054590D02*
Y0083881D01*
X1687349D02*
X1692869D01*
X1687349Y0099629D02*
X1692869D01*
Y0270151D01*
X2019540D01*
Y0101598D02*
Y0270151D01*
Y0101598D02*
X2056168D01*
X2061626Y0101978D02*
X2154619Y0114997D01*
X2160078Y0115377D02*
X2184295D01*
X2206872Y0108260D02*
X2211307Y0105156D01*
X2222596Y0101598D02*
X2440800D01*
X2441391Y-0050020D02*
X2442375D01*
X2442965Y-0052776D02*
Y-0050610D01*
X2441099Y-0053837D02*
X2442965Y-0052776D01*
X2440800Y-0057500D02*
Y-0054350D01*
X2422296Y-0058681D02*
X2439619D01*
X1708049Y0209449D02*
X1729703D01*
Y0222549D01*
X1708049D02*
X1729703D01*
X1708049Y0209449D02*
Y0222549D01*
X1782928D02*
X1804581D01*
X1782928Y0209449D02*
Y0222549D01*
Y0209449D02*
X1804581D01*
Y0222549D01*
X1882803Y0114733D02*
X1904457D01*
X1882803Y0101525D02*
Y0114733D01*
Y0101525D02*
X1904457D01*
Y0114733D01*
X1849498Y0101525D02*
Y0114733D01*
X1827845D02*
X1849498D01*
X1827845Y0101525D02*
Y0114733D01*
Y0101525D02*
X1849498D01*
X1927727Y0114733D02*
X1949380D01*
X1927727Y0101525D02*
Y0114733D01*
Y0101525D02*
X1949380D01*
Y0114733D01*
X1982685D02*
X2004338D01*
X1982685Y0101525D02*
Y0114733D01*
Y0101525D02*
X2004338D01*
Y0114733D01*
X1804581Y0136221D02*
Y0149321D01*
X1782928D02*
X1804581D01*
X1782928Y0136221D02*
Y0149321D01*
Y0136221D02*
X1804581D01*
X1729703D02*
Y0149321D01*
X1708049D02*
X1729703D01*
X1708049Y0136221D02*
Y0149321D01*
Y0136221D02*
X1729703D01*
X1904384D02*
Y0149321D01*
X1882731D02*
X1904384D01*
X1882731Y0136221D02*
Y0149321D01*
Y0136221D02*
X1904384D01*
X1849388D02*
Y0149321D01*
X1827734D02*
X1849388D01*
X1827734Y0136221D02*
Y0149321D01*
Y0136221D02*
X1849388D01*
X2004266D02*
Y0149321D01*
X1982613D02*
X2004266D01*
X1982613Y0136221D02*
Y0149321D01*
Y0136221D02*
X2004266D01*
X1949270D02*
Y0149321D01*
X1927616D02*
X1949270D01*
X1927616Y0136221D02*
Y0149321D01*
Y0136221D02*
X1949270D01*
X1804581Y0175591D02*
Y0188691D01*
X1782928D02*
X1804581D01*
X1782928Y0175591D02*
Y0188691D01*
Y0175591D02*
X1804581D01*
X1729703D02*
Y0188691D01*
X1708049D02*
X1729703D01*
X1708049Y0175591D02*
Y0188691D01*
Y0175591D02*
X1729703D01*
X1904384D02*
Y0188691D01*
X1882731D02*
X1904384D01*
X1882731Y0175591D02*
Y0188691D01*
Y0175591D02*
X1904384D01*
X1849388D02*
Y0188691D01*
X1827734D02*
X1849388D01*
X1827734Y0175591D02*
Y0188691D01*
Y0175591D02*
X1849388D01*
X2004266D02*
Y0188691D01*
X1982613D02*
X2004266D01*
X1982613Y0175591D02*
Y0188691D01*
Y0175591D02*
X2004266D01*
X1949270D02*
Y0188691D01*
X1927616D02*
X1949270D01*
X1927616Y0175591D02*
Y0188691D01*
Y0175591D02*
X1949270D01*
X1827734Y0209449D02*
X1849388D01*
Y0222549D01*
X1827734D02*
X1849388D01*
X1827734Y0209449D02*
Y0222549D01*
X1882731Y0209449D02*
X1904384D01*
Y0222549D01*
X1882731D02*
X1904384D01*
X1882731Y0209449D02*
Y0222549D01*
X1827734Y0242756D02*
X1849388D01*
Y0255856D01*
X1827734D02*
X1849388D01*
X1827734Y0242756D02*
Y0255856D01*
X1882731Y0242756D02*
X1904384D01*
Y0255856D01*
X1882731D02*
X1904384D01*
X1882731Y0242756D02*
Y0255856D01*
X1982685Y0082213D02*
X2004338D01*
X1982685Y0069006D02*
Y0082213D01*
Y0069006D02*
X2004338D01*
Y0082213D01*
X1949380Y0069006D02*
Y0082213D01*
X1927727D02*
X1949380D01*
X1927727Y0069006D02*
Y0082213D01*
Y0069006D02*
X1949380D01*
X1982613Y0255856D02*
X2004266D01*
X1982613Y0242756D02*
Y0255856D01*
Y0242756D02*
X2004266D01*
Y0255856D01*
X1927616D02*
X1949270D01*
X1927616Y0242756D02*
Y0255856D01*
Y0242756D02*
X1949270D01*
Y0255856D01*
X1708049Y0242756D02*
X1729703D01*
Y0255856D01*
X1708049D02*
X1729703D01*
X1708049Y0242756D02*
Y0255856D01*
X1804581Y0242756D02*
Y0255856D01*
X1782928D02*
X1804581D01*
X1782928Y0242756D02*
Y0255856D01*
Y0242756D02*
X1804581D01*
X1882803Y0082213D02*
X1904457D01*
X1882803Y0069006D02*
Y0082213D01*
Y0069006D02*
X1904457D01*
Y0082213D01*
X1849498Y0069006D02*
Y0082213D01*
X1827845D02*
X1849498D01*
X1827845Y0069006D02*
Y0082213D01*
Y0069006D02*
X1849498D01*
X1982613Y0209449D02*
X2004266D01*
Y0222549D01*
X1982613D02*
X2004266D01*
X1982613Y0209449D02*
Y0222549D01*
X1927616Y0209449D02*
X1949270D01*
Y0222549D01*
X1927616D02*
X1949270D01*
X1927616Y0209449D02*
Y0222549D01*
X1782928Y0114911D02*
X1804581D01*
X1782928Y0101811D02*
Y0114911D01*
Y0101811D02*
X1804581D01*
Y0114911D01*
X1729703Y0101811D02*
Y0114911D01*
X1708049D02*
X1729703D01*
X1708049Y0101811D02*
Y0114911D01*
Y0101811D02*
X1729703D01*
X1782928Y0081604D02*
X1804581D01*
X1782928Y0068504D02*
Y0081604D01*
Y0068504D02*
X1804581D01*
Y0081604D01*
X1708049D02*
X1729703D01*
X1708049Y0068504D02*
Y0081604D01*
Y0068504D02*
X1729703D01*
Y0081604D01*
M02*
