M48
;Layer_Color=9474304
;FILE_FORMAT=2:5
INCH
;TYPE=PLATED
T1F00S00C0.02362
T2F00S00C0.02800
%
T01
X0141800Y0155353
X0148400Y0152954
X0155200Y0151854
T02
X0791500Y0148354
X0684000Y0117553
X0574500Y0117853
X0474500Y0118154
X0443000Y0149354
X0426000Y0147353
X0330590Y0136854
X0313267Y0135453
X0297900Y0132454
X0259200Y0134254
X0172900Y0145653
X0259600Y0161054
X0297000Y0165454
X0314200Y0160953
X0329900
X0474500Y0181954
X0442500Y0220853
X0474200Y0256053
X0442000Y0289854
X0574700Y0256554
Y0181754
X0684300Y0181553
X0683500Y0256453
X0684400Y0322654
X0575100Y0322253
X0474800Y0322064
M30
