G04*
G04 #@! TF.GenerationSoftware,Altium Limited,Altium Designer,18.0.7 (293)*
G04*
G04 Layer_Color=16711935*
%FSAX25Y25*%
%MOIN*%
G70*
G01*
G75*
%ADD30C,0.00050*%
D30*
X0019984Y0003663D02*
G03*
X0019685Y0003150I0000292J-0000513D01*
G01*
X0021850Y0006890D02*
G03*
X0021260Y0007480I-0000591J0000000D01*
G01*
X0019685Y0008071D02*
G03*
X0020276Y0007480I0000591J0000000D01*
G01*
X0229493Y0135854D02*
G03*
X0218204Y0139413I-0011289J-0016127D01*
G01*
X0233928Y0132750D02*
G03*
X0256505Y0125633I0022577J0032253D01*
G01*
X0280722D02*
G03*
X0286181Y0126013I0000000J0039370D01*
G01*
X0384632Y0139413D02*
G03*
X0379174Y0139032I0000000J-0039370D01*
G01*
X0753451Y0141381D02*
G03*
X0753451Y0157129I0038575J0007874D01*
G01*
X0379174Y0159478D02*
G03*
X0384632Y0159098I0005459J0038990D01*
G01*
X0286181Y0172497D02*
G03*
X0280722Y0172877I-0005459J-0038990D01*
G01*
X0256505D02*
G03*
X0233928Y0165760I0000000J-0039370D01*
G01*
X0218204Y0159098D02*
G03*
X0229493Y0162656I0000000J0019685D01*
G01*
X-0000591Y0007480D02*
G03*
X0000000Y0008071I0000000J0000591D01*
G01*
X-0001575Y0007480D02*
G03*
X-0002165Y0006890I0000000J-0000591D01*
G01*
X0000000Y0003150D02*
G03*
X-0000299Y0003663I-0000591J0000000D01*
G01*
X0000000Y0000000D02*
G03*
X0001181Y-0001181I0001181J0000000D01*
G01*
X0018504D02*
G03*
X0019685Y0000000I0000000J0001181D01*
G01*
X0688334Y0273350D02*
G03*
X0688334Y0273350I-0003937J0000000D01*
G01*
X0578667Y0165629D02*
G03*
X0578667Y0165629I-0003937J0000000D01*
G01*
X0478796D02*
G03*
X0478796Y0165629I-0003937J0000000D01*
G01*
X0578667Y0273350D02*
G03*
X0578667Y0273350I-0003937J0000000D01*
G01*
Y0306806D02*
G03*
X0578667Y0306806I-0003937J0000000D01*
G01*
X0478796Y0132875D02*
G03*
X0478796Y0132875I-0003937J0000000D01*
G01*
Y0306806D02*
G03*
X0478796Y0306806I-0003937J0000000D01*
G01*
X0688334D02*
G03*
X0688334Y0306806I-0003937J0000000D01*
G01*
X0578667Y0132946D02*
G03*
X0578667Y0132946I-0003937J0000000D01*
G01*
X0478796Y0273511D02*
G03*
X0478796Y0273511I-0003937J0000000D01*
G01*
X0688311Y0165629D02*
G03*
X0688311Y0165629I-0003937J0000000D01*
G01*
Y0132946D02*
G03*
X0688311Y0132946I-0003937J0000000D01*
G01*
X0019685Y0008071D02*
Y0139413D01*
X0000000Y0008071D02*
Y0159098D01*
X0019685Y0000000D02*
Y0003150D01*
X0019984Y0003663D02*
X0021850Y0004724D01*
Y0006890D01*
X0020276Y0007480D02*
X0021260D01*
X0019685Y0139413D02*
X0218204D01*
X0229493Y0135854D02*
X0233928Y0132750D01*
X0256505Y0125633D02*
X0280722D01*
X0286181Y0126013D02*
X0379174Y0139032D01*
X0384632Y0139413D02*
X0421260D01*
Y0112046D02*
Y0139413D01*
Y0112046D02*
X0747931Y0112090D01*
Y0141381D01*
X0753451D01*
X0747931Y0157129D02*
X0753451D01*
X0747931D02*
Y0327651D01*
X0421260D02*
X0747931D01*
X0421260Y0159098D02*
Y0327651D01*
X0384632Y0159098D02*
X0421260D01*
X0286181Y0172497D02*
X0379174Y0159478D01*
X0256505Y0172877D02*
X0280722D01*
X0229493Y0162656D02*
X0233928Y0165760D01*
X0000000Y0159098D02*
X0218204D01*
X-0001575Y0007480D02*
X-0000591D01*
X-0002165Y0004724D02*
Y0006890D01*
Y0004724D02*
X-0000299Y0003663D01*
X0000000Y0000000D02*
Y0003150D01*
X0001181Y-0001181D02*
X0018504D01*
X0711097Y0266949D02*
X0732751D01*
X0711097D02*
Y0280049D01*
X0732751D01*
Y0266949D02*
Y0280049D01*
X0636219D02*
X0657872D01*
Y0266949D02*
Y0280049D01*
X0636219Y0266949D02*
X0657872D01*
X0636219D02*
Y0280049D01*
X0536343Y0172233D02*
X0557997D01*
Y0159026D02*
Y0172233D01*
X0536343Y0159026D02*
X0557997D01*
X0536343D02*
Y0172233D01*
X0591302Y0159026D02*
Y0172233D01*
X0612955D01*
Y0159026D02*
Y0172233D01*
X0591302Y0159026D02*
X0612955D01*
X0491420Y0172233D02*
X0513073D01*
Y0159026D02*
Y0172233D01*
X0491420Y0159026D02*
X0513073D01*
X0491420D02*
Y0172233D01*
X0436462D02*
X0458115D01*
Y0159026D02*
Y0172233D01*
X0436462Y0159026D02*
X0458115D01*
X0436462D02*
Y0172233D01*
X0636219Y0193721D02*
Y0206821D01*
X0657872D01*
Y0193721D02*
Y0206821D01*
X0636219Y0193721D02*
X0657872D01*
X0711097D02*
Y0206821D01*
X0732751D01*
Y0193721D02*
Y0206821D01*
X0711097Y0193721D02*
X0732751D01*
X0536415D02*
Y0206821D01*
X0558069D01*
Y0193721D02*
Y0206821D01*
X0536415Y0193721D02*
X0558069D01*
X0591412D02*
Y0206821D01*
X0613066D01*
Y0193721D02*
Y0206821D01*
X0591412Y0193721D02*
X0613066D01*
X0436534D02*
Y0206821D01*
X0458187D01*
Y0193721D02*
Y0206821D01*
X0436534Y0193721D02*
X0458187D01*
X0491530D02*
Y0206821D01*
X0513184D01*
Y0193721D02*
Y0206821D01*
X0491530Y0193721D02*
X0513184D01*
X0636219Y0233091D02*
Y0246191D01*
X0657872D01*
Y0233091D02*
Y0246191D01*
X0636219Y0233091D02*
X0657872D01*
X0711097D02*
Y0246191D01*
X0732751D01*
Y0233091D02*
Y0246191D01*
X0711097Y0233091D02*
X0732751D01*
X0536415D02*
Y0246191D01*
X0558069D01*
Y0233091D02*
Y0246191D01*
X0536415Y0233091D02*
X0558069D01*
X0591412D02*
Y0246191D01*
X0613066D01*
Y0233091D02*
Y0246191D01*
X0591412Y0233091D02*
X0613066D01*
X0436534D02*
Y0246191D01*
X0458187D01*
Y0233091D02*
Y0246191D01*
X0436534Y0233091D02*
X0458187D01*
X0491530D02*
Y0246191D01*
X0513184D01*
Y0233091D02*
Y0246191D01*
X0491530Y0233091D02*
X0513184D01*
X0591412Y0266949D02*
X0613066D01*
X0591412D02*
Y0280049D01*
X0613066D01*
Y0266949D02*
Y0280049D01*
X0536415Y0266949D02*
X0558069D01*
X0536415D02*
Y0280049D01*
X0558069D01*
Y0266949D02*
Y0280049D01*
X0591412Y0300256D02*
X0613066D01*
X0591412D02*
Y0313356D01*
X0613066D01*
Y0300256D02*
Y0313356D01*
X0536415Y0300256D02*
X0558069D01*
X0536415D02*
Y0313356D01*
X0558069D01*
Y0300256D02*
Y0313356D01*
X0436462Y0139713D02*
X0458115D01*
Y0126506D02*
Y0139713D01*
X0436462Y0126506D02*
X0458115D01*
X0436462D02*
Y0139713D01*
X0491420Y0126506D02*
Y0139713D01*
X0513073D01*
Y0126506D02*
Y0139713D01*
X0491420Y0126506D02*
X0513073D01*
X0436534Y0313356D02*
X0458187D01*
Y0300256D02*
Y0313356D01*
X0436534Y0300256D02*
X0458187D01*
X0436534D02*
Y0313356D01*
X0491530D02*
X0513184D01*
Y0300256D02*
Y0313356D01*
X0491530Y0300256D02*
X0513184D01*
X0491530D02*
Y0313356D01*
X0711097Y0300256D02*
X0732751D01*
X0711097D02*
Y0313356D01*
X0732751D01*
Y0300256D02*
Y0313356D01*
X0636219Y0300256D02*
Y0313356D01*
X0657872D01*
Y0300256D02*
Y0313356D01*
X0636219Y0300256D02*
X0657872D01*
X0536343Y0139713D02*
X0557997D01*
Y0126506D02*
Y0139713D01*
X0536343Y0126506D02*
X0557997D01*
X0536343D02*
Y0139713D01*
X0591302Y0126506D02*
Y0139713D01*
X0612955D01*
Y0126506D02*
Y0139713D01*
X0591302Y0126506D02*
X0612955D01*
X0436534Y0266949D02*
X0458187D01*
X0436534D02*
Y0280049D01*
X0458187D01*
Y0266949D02*
Y0280049D01*
X0491530Y0266949D02*
X0513184D01*
X0491530D02*
Y0280049D01*
X0513184D01*
Y0266949D02*
Y0280049D01*
X0636219Y0172411D02*
X0657872D01*
Y0159311D02*
Y0172411D01*
X0636219Y0159311D02*
X0657872D01*
X0636219D02*
Y0172411D01*
X0711097Y0159311D02*
Y0172411D01*
X0732751D01*
Y0159311D02*
Y0172411D01*
X0711097Y0159311D02*
X0732751D01*
X0636219Y0139104D02*
X0657872D01*
Y0126004D02*
Y0139104D01*
X0636219Y0126004D02*
X0657872D01*
X0636219D02*
Y0139104D01*
X0711097D02*
X0732751D01*
Y0126004D02*
Y0139104D01*
X0711097Y0126004D02*
X0732751D01*
X0711097D02*
Y0139104D01*
M02*
