G04*
G04 #@! TF.GenerationSoftware,Altium Limited,Altium Designer,18.0.7 (293)*
G04*
G04 Layer_Physical_Order=2*
G04 Layer_Color=16711680*
%FSAX25Y25*%
%MOIN*%
G70*
G01*
G75*
%ADD15C,0.00394*%
%ADD16C,0.01000*%
%ADD17C,0.05000*%
%ADD18C,0.03937*%
%ADD19R,0.02756X0.13780*%
%ADD20R,0.05512X0.04331*%
%ADD21R,0.01102X0.03543*%
%ADD22R,0.03543X0.01102*%
G36*
X0282751Y0171749D02*
X0283048Y0171233D01*
X0283024Y0171062D01*
X0282904Y0159472D01*
X0280244D01*
Y0153141D01*
X0280444D01*
Y0151930D01*
X0279056D01*
Y0153141D01*
X0279256D01*
Y0155806D01*
X0275500D01*
X0271744D01*
Y0153141D01*
X0271944D01*
Y0150683D01*
X0181933D01*
X0175981Y0156635D01*
X0175485Y0156966D01*
X0174900Y0157083D01*
X0151000D01*
X0150415Y0156966D01*
X0149919Y0156635D01*
X0149135Y0155851D01*
X0148400Y0155948D01*
X0147625Y0155846D01*
X0146903Y0155546D01*
X0146283Y0155071D01*
X0145807Y0154451D01*
X0145508Y0153728D01*
X0145406Y0152954D01*
X0145503Y0152219D01*
X0143966Y0150683D01*
X0013254D01*
X0012669Y0150566D01*
X0012173Y0150235D01*
X0007619Y0145681D01*
X0007287Y0145184D01*
X0007171Y0144599D01*
Y0079187D01*
X0006793Y0078809D01*
X0006461Y0078313D01*
X0006345Y0077728D01*
Y0014431D01*
X0006315Y0013943D01*
X0004437D01*
Y0006053D01*
X0003937D01*
Y0005553D01*
X0001559D01*
Y0000679D01*
X0001557Y0000675D01*
X0001059Y0000492D01*
X0001045Y0000509D01*
Y0003150D01*
X0001057D01*
X0000931Y0003780D01*
X0000574Y0004314D01*
X0000314Y0004488D01*
X0000218Y0004572D01*
X0000000Y0004695D01*
Y0006541D01*
X0000040Y0006549D01*
X0000574Y0006906D01*
X0000931Y0007440D01*
X0001057Y0008071D01*
X0001045D01*
Y0158053D01*
X0139620D01*
X0139789Y0157553D01*
X0139683Y0157471D01*
X0139207Y0156851D01*
X0138908Y0156129D01*
X0138872Y0155853D01*
X0144728D01*
X0144692Y0156129D01*
X0144393Y0156851D01*
X0143917Y0157471D01*
X0143810Y0157553D01*
X0143980Y0158053D01*
X0218204D01*
Y0158028D01*
X0220913Y0158206D01*
X0223576Y0158735D01*
X0226147Y0159608D01*
X0228582Y0160809D01*
X0230012Y0161765D01*
X0230092Y0161800D01*
X0234514Y0164895D01*
X0234536Y0164891D01*
X0234536Y0164891D01*
X0235204Y0165387D01*
X0238431Y0167321D01*
X0241832Y0168930D01*
X0245375Y0170197D01*
X0249025Y0171112D01*
X0252747Y0171664D01*
X0256439Y0171845D01*
X0256505Y0171832D01*
X0280722D01*
X0280788Y0171845D01*
X0282751Y0171749D01*
D02*
G37*
G36*
X0227219Y0142472D02*
X0227715Y0142141D01*
X0228300Y0142024D01*
X0282244D01*
X0282717Y0141524D01*
X0282572Y0127488D01*
X0282600Y0127252D01*
X0282300Y0126739D01*
X0280788Y0126665D01*
X0280722Y0126678D01*
X0256505D01*
X0256439Y0126665D01*
X0252747Y0126847D01*
X0249025Y0127399D01*
X0245375Y0128313D01*
X0241832Y0129580D01*
X0238431Y0131189D01*
X0235204Y0133124D01*
X0234536Y0133619D01*
X0234536Y0133619D01*
X0234514Y0133615D01*
X0230092Y0136710D01*
X0230012Y0136746D01*
X0228582Y0137701D01*
X0226147Y0138902D01*
X0223576Y0139775D01*
X0220913Y0140305D01*
X0218204Y0140482D01*
Y0140458D01*
X0218204Y0140458D01*
X0019685D01*
X0019285Y0140378D01*
X0018946Y0140152D01*
X0018720Y0139813D01*
X0018640Y0139413D01*
Y0008071D01*
X0018628D01*
X0018754Y0007440D01*
X0019111Y0006906D01*
X0019645Y0006549D01*
X0019685Y0006541D01*
Y0004695D01*
X0019467Y0004572D01*
X0019371Y0004488D01*
X0019111Y0004314D01*
X0018754Y0003780D01*
X0018628Y0003150D01*
X0018640D01*
Y0000000D01*
X0018619D01*
X0018585Y-0000081D01*
X0018504Y-0000115D01*
Y-0000136D01*
X0017926D01*
Y0013743D01*
X0017277D01*
Y0077105D01*
X0017161Y0077691D01*
X0016829Y0078187D01*
X0013829Y0081187D01*
Y0142474D01*
X0015379Y0144024D01*
X0169787D01*
X0169843Y0143888D01*
X0170404Y0143157D01*
X0171135Y0142596D01*
X0171986Y0142244D01*
X0172900Y0142123D01*
X0173814Y0142244D01*
X0174665Y0142596D01*
X0175396Y0143157D01*
X0175957Y0143888D01*
X0176013Y0144024D01*
X0225666D01*
X0227219Y0142472D01*
D02*
G37*
%LPC*%
G36*
X0260100Y0164518D02*
Y0161554D01*
X0263064D01*
X0263010Y0161967D01*
X0262657Y0162819D01*
X0262096Y0163550D01*
X0261365Y0164111D01*
X0260514Y0164463D01*
X0260100Y0164518D01*
D02*
G37*
G36*
X0259100D02*
X0258686Y0164463D01*
X0257835Y0164111D01*
X0257104Y0163550D01*
X0256543Y0162819D01*
X0256190Y0161967D01*
X0256136Y0161554D01*
X0259100D01*
Y0164518D01*
D02*
G37*
G36*
X0263064Y0160554D02*
X0260100D01*
Y0157589D01*
X0260514Y0157644D01*
X0261365Y0157996D01*
X0262096Y0158557D01*
X0262657Y0159288D01*
X0263010Y0160140D01*
X0263064Y0160554D01*
D02*
G37*
G36*
X0259100D02*
X0256136D01*
X0256190Y0160140D01*
X0256543Y0159288D01*
X0257104Y0158557D01*
X0257835Y0157996D01*
X0258686Y0157644D01*
X0259100Y0157589D01*
Y0160554D01*
D02*
G37*
G36*
X0279256Y0159472D02*
X0276000D01*
Y0156806D01*
X0279256D01*
Y0159472D01*
D02*
G37*
G36*
X0275000D02*
X0271744D01*
Y0156806D01*
X0275000D01*
Y0159472D01*
D02*
G37*
G36*
X0144728Y0154853D02*
X0142300D01*
Y0152425D01*
X0142575Y0152461D01*
X0143297Y0152761D01*
X0143917Y0153236D01*
X0144393Y0153857D01*
X0144692Y0154579D01*
X0144728Y0154853D01*
D02*
G37*
G36*
X0141300D02*
X0138872D01*
X0138908Y0154579D01*
X0139207Y0153857D01*
X0139683Y0153236D01*
X0140303Y0152761D01*
X0141025Y0152461D01*
X0141300Y0152425D01*
Y0154853D01*
D02*
G37*
G36*
X0003437Y0013943D02*
X0001559D01*
Y0006554D01*
X0003437D01*
Y0013943D01*
D02*
G37*
G36*
X0259700Y0137718D02*
Y0134754D01*
X0262664D01*
X0262610Y0135167D01*
X0262257Y0136019D01*
X0261696Y0136750D01*
X0260965Y0137311D01*
X0260114Y0137663D01*
X0259700Y0137718D01*
D02*
G37*
G36*
X0258700D02*
X0258286Y0137663D01*
X0257435Y0137311D01*
X0256704Y0136750D01*
X0256143Y0136019D01*
X0255790Y0135167D01*
X0255736Y0134754D01*
X0258700D01*
Y0137718D01*
D02*
G37*
G36*
X0262664Y0133754D02*
X0259700D01*
Y0130789D01*
X0260114Y0130844D01*
X0260965Y0131196D01*
X0261696Y0131757D01*
X0262257Y0132488D01*
X0262610Y0133340D01*
X0262664Y0133754D01*
D02*
G37*
G36*
X0258700D02*
X0255736D01*
X0255790Y0133340D01*
X0256143Y0132488D01*
X0256704Y0131757D01*
X0257435Y0131196D01*
X0258286Y0130844D01*
X0258700Y0130789D01*
Y0133754D01*
D02*
G37*
%LPD*%
D15*
X0788216Y0146657D02*
G03*
X0795197Y0148354I0003284J0001697D01*
G01*
D02*
G03*
X0788216Y0150050I-0003697J0000000D01*
G01*
X0830174Y0149255D02*
G03*
X0754648Y0156885I-0038148J0000000D01*
G01*
X0753489Y0155908D02*
G03*
X0754648Y0156885I-0000038J0001221D01*
G01*
X0753489Y0155908D02*
G03*
X0754648Y0156885I-0000038J0001221D01*
G01*
X0753489Y0155908D02*
G03*
X0752887Y0150050I0039360J-0007001D01*
G01*
X0754648Y0141625D02*
G03*
X0830174Y0149255I0037378J0007630D01*
G01*
X0752935Y0146657D02*
G03*
X0753371Y0142603I0039915J0002251D01*
G01*
X0754648Y0141625D02*
G03*
X0753451Y0142603I-0001197J-0000244D01*
G01*
X0754648Y0141625D02*
G03*
X0753451Y0142603I-0001197J-0000244D01*
G01*
X0688097Y0322654D02*
G03*
X0688097Y0322654I-0003697J0000000D01*
G01*
X0687197Y0256453D02*
G03*
X0687197Y0256453I-0003697J0000000D01*
G01*
X0578797Y0322253D02*
G03*
X0578797Y0322253I-0003697J0000000D01*
G01*
X0578397Y0256554D02*
G03*
X0578397Y0256554I-0003697J0000000D01*
G01*
X0746709Y0157129D02*
G03*
X0747931Y0155907I0001222J0000000D01*
G01*
X0746709Y0157129D02*
G03*
X0747931Y0155907I0001222J0000000D01*
G01*
X0687997Y0181553D02*
G03*
X0687997Y0181553I-0003697J0000000D01*
G01*
X0745000Y0150050D02*
G03*
X0743800Y0149553I0000000J-0001697D01*
G01*
X0745000Y0150050D02*
G03*
X0743797Y0149550I0000000J-0001697D01*
G01*
X0747931Y0142603D02*
G03*
X0746709Y0141381I0000000J-0001222D01*
G01*
X0747931Y0142603D02*
G03*
X0746709Y0141381I0000000J-0001222D01*
G01*
X0739595Y0141251D02*
G03*
X0740798Y0141751I0000000J0001697D01*
G01*
X0739595Y0141251D02*
G03*
X0740794Y0141748I0000000J0001697D01*
G01*
X0687697Y0117553D02*
G03*
X0687697Y0117553I-0003697J0000000D01*
G01*
X0578397Y0181754D02*
G03*
X0578397Y0181754I-0003697J0000000D01*
G01*
X0578197Y0117853D02*
G03*
X0578197Y0117853I-0003697J0000000D01*
G01*
X0478497Y0322064D02*
G03*
X0478497Y0322064I-0003697J0000000D01*
G01*
X0445697Y0289854D02*
G03*
X0438478Y0288731I-0003697J0000000D01*
G01*
X0440877Y0286331D02*
G03*
X0445697Y0289854I0001123J0003522D01*
G01*
X0430003Y0280257D02*
G03*
X0429503Y0279053I0001197J-0001203D01*
G01*
X0430000Y0280253D02*
G03*
X0429503Y0279053I0001200J-0001200D01*
G01*
X0477897Y0256053D02*
G03*
X0477897Y0256053I-0003697J0000000D01*
G01*
X0478197Y0181954D02*
G03*
X0478197Y0181954I-0003697J0000000D01*
G01*
X0441377Y0217331D02*
G03*
X0446197Y0220853I0001123J0003522D01*
G01*
D02*
G03*
X0438978Y0219731I-0003697J0000000D01*
G01*
X0446697Y0149354D02*
G03*
X0439716Y0151050I-0003697J0000000D01*
G01*
Y0147657D02*
G03*
X0446697Y0149354I0003284J0001697D01*
G01*
X0478197Y0118154D02*
G03*
X0478197Y0118154I-0003697J0000000D01*
G01*
X0421260Y0157876D02*
G03*
X0422482Y0159098I0000000J0001222D01*
G01*
X0421260Y0157876D02*
G03*
X0422482Y0159098I0000000J0001222D01*
G01*
X0379004Y0158268D02*
G03*
X0384632Y0157876I0005628J0040200D01*
G01*
X0430800Y0152953D02*
G03*
X0429600Y0153450I-0001200J-0001200D01*
G01*
X0430803Y0152950D02*
G03*
X0429600Y0153450I-0001203J-0001197D01*
G01*
X0429697Y0147353D02*
G03*
X0428522Y0150057I-0003697J0000000D01*
G01*
X0423478D02*
G03*
X0422716Y0149050I0002522J-0002703D01*
G01*
X0333597Y0160953D02*
G03*
X0333597Y0160953I-0003697J0000000D01*
G01*
X0317897D02*
G03*
X0317897Y0160953I-0003697J0000000D01*
G01*
X0300697Y0165454D02*
G03*
X0300697Y0165454I-0003697J0000000D01*
G01*
X0292247Y0157506D02*
G03*
X0291047Y0158003I-0001200J-0001200D01*
G01*
X0292250Y0157503D02*
G03*
X0291047Y0158003I-0001203J-0001197D01*
G01*
X0340828Y0157050D02*
G03*
X0339628Y0156553I0000000J-0001697D01*
G01*
X0340828Y0157050D02*
G03*
X0339625Y0156550I0000000J-0001697D01*
G01*
X0306150Y0154759D02*
G03*
X0306001Y0155454I-0001697J0000000D01*
G01*
Y0154064D02*
G03*
X0306150Y0154759I-0001548J0000695D01*
G01*
X0307562Y0153660D02*
G03*
X0306591Y0153354I0000000J-0001697D01*
G01*
X0307562Y0153660D02*
G03*
X0306591Y0153354I0000000J-0001697D01*
G01*
X0289453Y0153503D02*
G03*
X0288253Y0153006I0000000J-0001697D01*
G01*
X0289453Y0153503D02*
G03*
X0288250Y0153003I0000000J-0001697D01*
G01*
X0430800Y0148154D02*
G03*
X0432000Y0147657I0001200J0001200D01*
G01*
X0430797Y0148157D02*
G03*
X0432000Y0147657I0001203J0001197D01*
G01*
X0428516Y0144645D02*
G03*
X0429697Y0147353I-0002516J0002709D01*
G01*
X0422716Y0145657D02*
G03*
X0423484Y0144645I0003284J0001697D01*
G01*
X0422482Y0139413D02*
G03*
X0421260Y0140634I-0001222J0000000D01*
G01*
X0422482Y0139413D02*
G03*
X0421260Y0140634I-0001222J0000000D01*
G01*
X0384632Y0140635D02*
G03*
X0379004Y0140242I0000000J-0040592D01*
G01*
X0293898Y0143759D02*
G03*
X0294398Y0142556I0001697J0000000D01*
G01*
X0293898Y0143759D02*
G03*
X0294395Y0142559I0001697J0000000D01*
G01*
X0287685Y0141915D02*
G03*
X0288449Y0142357I-0000440J0001639D01*
G01*
X0287685Y0141915D02*
G03*
X0288445Y0142354I-0000440J0001639D01*
G01*
X0295202Y0141751D02*
G03*
X0296406Y0141251I0001203J0001197D01*
G01*
X0295206Y0141748D02*
G03*
X0296406Y0141251I0001200J0001200D01*
G01*
X0332589Y0133744D02*
G03*
X0334286Y0136854I-0002000J0003109D01*
G01*
D02*
G03*
X0329521Y0133315I-0003697J0000000D01*
G01*
X0316964Y0135453D02*
G03*
X0316964Y0135453I-0003697J0000000D01*
G01*
X0301597Y0132454D02*
G03*
X0297306Y0128805I-0003697J0000000D01*
G01*
X0299473Y0129108D02*
G03*
X0301597Y0132454I-0001573J0003345D01*
G01*
X0821200Y0124676D02*
Y0173834D01*
X0822775Y0126677D02*
Y0171833D01*
X0785292Y0186804D02*
X0798760D01*
X0819626Y0122920D02*
Y0175590D01*
X0818051Y0121363D02*
Y0177148D01*
X0775535Y0183655D02*
X0808517D01*
X0779332Y0185229D02*
X0804720D01*
X0770146Y0180505D02*
X0813906D01*
X0772588Y0182080D02*
X0811464D01*
X0829074Y0140162D02*
Y0158349D01*
X0795138Y0149009D02*
X0830173D01*
X0827500Y0135223D02*
Y0163287D01*
X0825925Y0131758D02*
Y0166752D01*
X0824350Y0128996D02*
Y0169514D01*
X0794448Y0150584D02*
X0830151D01*
X0795081Y0147434D02*
X0830131D01*
X0794229Y0145859D02*
X0830023D01*
X0791279Y0152044D02*
Y0187396D01*
X0792854Y0151794D02*
Y0187394D01*
X0789704Y0151585D02*
Y0187333D01*
X0794429Y0150609D02*
Y0187328D01*
X0788130Y0150050D02*
Y0187204D01*
X0783405Y0150050D02*
Y0186417D01*
X0781830Y0150050D02*
Y0186016D01*
X0786555Y0150050D02*
Y0187009D01*
X0784980Y0150050D02*
Y0186747D01*
X0778681Y0150050D02*
Y0184993D01*
X0777106Y0150050D02*
Y0184365D01*
X0780256Y0150050D02*
Y0185542D01*
X0772382Y0150050D02*
Y0181957D01*
X0770807Y0150050D02*
Y0180957D01*
X0775531Y0150050D02*
Y0183653D01*
X0773956Y0150050D02*
Y0182852D01*
X0807027Y0114180D02*
Y0184330D01*
X0808602Y0114896D02*
Y0183614D01*
X0805452Y0113548D02*
Y0184962D01*
X0803878Y0112995D02*
Y0185516D01*
X0802303Y0112517D02*
Y0185993D01*
X0800728Y0112113D02*
Y0186398D01*
X0799153Y0111779D02*
Y0186732D01*
X0797578Y0111513D02*
Y0186997D01*
X0796004Y0111315D02*
Y0187195D01*
X0814901Y0118726D02*
Y0179784D01*
X0816476Y0119972D02*
Y0178538D01*
X0813326Y0117607D02*
Y0180903D01*
X0811752Y0116603D02*
Y0181908D01*
X0810177Y0115702D02*
Y0182808D01*
X0770866Y0117513D02*
X0813185D01*
X0773444Y0115938D02*
X0810607D01*
X0776603Y0114363D02*
X0807448D01*
X0780824Y0112789D02*
X0803228D01*
X0783405Y0112094D02*
Y0146657D01*
X0784980Y0111763D02*
Y0146657D01*
X0781830Y0112495D02*
Y0146657D01*
X0788130Y0111306D02*
Y0146657D01*
X0786555Y0111501D02*
Y0146657D01*
X0772382Y0116554D02*
Y0146657D01*
X0770807Y0117553D02*
Y0146657D01*
X0780256Y0112968D02*
Y0146657D01*
X0773956Y0115658D02*
Y0146657D01*
X0794429Y0111183D02*
Y0146098D01*
X0789704Y0111178D02*
Y0145122D01*
X0792854Y0111116D02*
Y0144914D01*
X0791279Y0111114D02*
Y0144663D01*
X0777106Y0114146D02*
Y0146657D01*
X0775531Y0114857D02*
Y0146657D01*
X0789171Y0111214D02*
X0794880D01*
X0778681Y0113517D02*
Y0146657D01*
X0764609Y0175781D02*
X0819443D01*
X0763168Y0174206D02*
X0820883D01*
X0766225Y0177355D02*
X0817826D01*
X0760721Y0171056D02*
X0823331D01*
X0761879Y0172631D02*
X0822173D01*
X0758748Y0167907D02*
X0825304D01*
X0759681Y0169481D02*
X0824371D01*
X0757913Y0166332D02*
X0826138D01*
X0756511Y0163182D02*
X0827541D01*
X0755933Y0161607D02*
X0828119D01*
X0757169Y0164757D02*
X0826882D01*
X0755004Y0158458D02*
X0829047D01*
X0755432Y0160033D02*
X0828620D01*
X0753387Y0155308D02*
X0829691D01*
X0754648Y0156883D02*
X0829404D01*
X0753004Y0152159D02*
X0830063D01*
X0753163Y0153733D02*
X0829910D01*
X0769232Y0150050D02*
Y0179845D01*
X0768053Y0178930D02*
X0815998D01*
X0767657Y0150050D02*
Y0178606D01*
X0766082Y0150050D02*
Y0177223D01*
X0764508Y0150050D02*
Y0175675D01*
X0759783Y0150050D02*
Y0169644D01*
X0758208Y0150050D02*
Y0166909D01*
X0762933Y0150050D02*
Y0173931D01*
X0761358Y0150050D02*
Y0171944D01*
X0756634Y0150050D02*
Y0163492D01*
X0755059Y0150050D02*
Y0158675D01*
X0752906Y0150584D02*
X0788552D01*
X0753484Y0150050D02*
Y0155881D01*
X0752887Y0150050D02*
X0788216D01*
X0755130Y0139560D02*
X0828922D01*
X0755580Y0137985D02*
X0828471D01*
X0756105Y0136411D02*
X0827947D01*
X0756708Y0134836D02*
X0827344D01*
X0757392Y0133261D02*
X0826659D01*
X0753139Y0144285D02*
X0829849D01*
X0753354Y0142710D02*
X0829608D01*
X0754752Y0141135D02*
X0829300D01*
X0762267Y0125387D02*
X0821785D01*
X0763601Y0123812D02*
X0820450D01*
X0765094Y0122237D02*
X0818958D01*
X0766772Y0120663D02*
X0817280D01*
X0758164Y0131686D02*
X0825888D01*
X0759029Y0130111D02*
X0825023D01*
X0759994Y0128537D02*
X0824058D01*
X0761069Y0126962D02*
X0822982D01*
X0764508Y0122835D02*
Y0146657D01*
X0766082Y0121287D02*
Y0146657D01*
X0762933Y0124580D02*
Y0146657D01*
X0769232Y0118666D02*
Y0146657D01*
X0767657Y0119904D02*
Y0146657D01*
X0752935D02*
X0788216D01*
X0753484Y0142603D02*
Y0146657D01*
X0761358Y0126567D02*
Y0146657D01*
X0759783Y0128866D02*
Y0146657D01*
X0756634Y0135019D02*
Y0146657D01*
X0755059Y0139836D02*
Y0146657D01*
X0768676Y0119088D02*
X0815376D01*
X0758208Y0131601D02*
Y0146657D01*
X0752987Y0145859D02*
X0788771D01*
X0726712Y0318320D02*
Y0326429D01*
X0725138Y0318320D02*
Y0326429D01*
X0728287Y0318320D02*
Y0326429D01*
X0721988Y0318320D02*
Y0326429D01*
X0723563Y0318320D02*
Y0326429D01*
X0734586Y0317923D02*
Y0326429D01*
X0733012Y0318286D02*
Y0326429D01*
X0736161Y0316943D02*
Y0326429D01*
X0729862Y0318320D02*
Y0326429D01*
X0731437Y0318320D02*
Y0326429D01*
X0720413Y0318320D02*
Y0326429D01*
X0718838Y0318320D02*
Y0326429D01*
X0687911Y0323812D02*
X0746709D01*
X0715689Y0318320D02*
Y0326429D01*
X0717264Y0318320D02*
Y0326429D01*
X0712539Y0318320D02*
Y0326429D01*
X0714114Y0318320D02*
Y0326429D01*
X0709390Y0317976D02*
Y0326429D01*
X0710964Y0318302D02*
Y0326429D01*
X0737582Y0314363D02*
X0746709D01*
X0736973Y0315938D02*
X0746709D01*
X0737715Y0312788D02*
X0746709D01*
X0737050Y0315838D02*
X0737545Y0314641D01*
X0737715Y0313356D01*
Y0306489D02*
X0746709D01*
X0737715Y0308064D02*
X0746709D01*
X0737715Y0304914D02*
X0746709D01*
X0737715Y0311213D02*
X0746709D01*
X0737715Y0309639D02*
X0746709D01*
X0732751Y0318320D02*
X0734035Y0318151D01*
X0688073Y0322237D02*
X0746709D01*
X0734035Y0318151D02*
X0735233Y0317655D01*
X0709813Y0318151D02*
X0711097Y0318320D01*
X0732751D01*
X0735418Y0317513D02*
X0746709D01*
X0736261Y0316866D02*
X0737050Y0315838D01*
X0708615Y0317655D02*
X0709813Y0318151D01*
X0735233Y0317655D02*
X0736261Y0316866D01*
X0707815Y0317041D02*
Y0326429D01*
X0707587Y0316866D02*
X0708615Y0317655D01*
X0706799Y0315838D02*
X0707587Y0316866D01*
X0706240Y0314165D02*
Y0326429D01*
X0706303Y0314641D02*
X0706799Y0315838D01*
X0706134Y0313356D02*
X0706303Y0314641D01*
X0692067Y0311320D02*
Y0326429D01*
X0690994Y0312788D02*
X0706134D01*
X0690965Y0312826D02*
X0691261Y0312440D01*
X0691582Y0312074D01*
X0689020Y0314422D02*
X0689665Y0313991D01*
X0688583Y0314638D02*
X0689020Y0314422D01*
X0689108Y0314363D02*
X0706266D01*
X0688917Y0314473D02*
Y0326429D01*
X0688161Y0314881D02*
X0688583Y0314638D01*
X0690492Y0313299D02*
Y0326429D01*
X0690417Y0313374D02*
X0690965Y0312826D01*
X0689665Y0313991D02*
X0690030Y0313671D01*
X0690417Y0313374D01*
X0693234Y0307677D02*
X0693298Y0307194D01*
X0693209Y0308064D02*
X0706134D01*
X0693298Y0306489D02*
X0706134D01*
X0693202Y0308162D02*
X0693234Y0307677D01*
X0693298Y0306806D02*
Y0307194D01*
Y0306418D02*
Y0306806D01*
X0693096Y0304914D02*
X0706134D01*
X0693234Y0305936D02*
X0693298Y0306418D01*
X0693202Y0305450D02*
X0693234Y0305936D01*
X0692229Y0310992D02*
X0692472Y0310571D01*
X0692119Y0311213D02*
X0706134D01*
X0692472Y0310571D02*
X0692769Y0309854D01*
X0691582Y0312074D02*
X0692013Y0311429D01*
X0692229Y0310992D01*
X0692826Y0309639D02*
X0706134D01*
X0693051Y0308923D02*
X0693202Y0308162D01*
X0692769Y0309854D02*
X0692895Y0309384D01*
X0693051Y0308923D01*
X0737715Y0301765D02*
X0746709D01*
X0737715Y0303339D02*
X0746709D01*
X0737706Y0300190D02*
X0746709D01*
X0737715Y0300256D02*
Y0313356D01*
X0737545Y0298972D02*
X0737715Y0300256D01*
X0737398Y0298615D02*
X0746709D01*
X0737050Y0297774D02*
X0737545Y0298972D01*
X0736486Y0297040D02*
X0746709D01*
X0736261Y0296746D02*
X0737050Y0297774D01*
X0736161Y0283635D02*
Y0296670D01*
X0735233Y0295958D02*
X0736261Y0296746D01*
X0734035Y0295462D02*
X0735233Y0295958D01*
X0734045Y0295465D02*
X0746709D01*
X0732751Y0295293D02*
X0734035Y0295462D01*
X0720413Y0285013D02*
Y0295293D01*
X0734586Y0284616D02*
Y0295690D01*
X0733012Y0284979D02*
Y0295327D01*
X0721988Y0285013D02*
Y0295293D01*
X0725138Y0285013D02*
Y0295293D01*
X0732751Y0285013D02*
X0734035Y0284844D01*
X0731437Y0285013D02*
Y0295293D01*
X0735006Y0284442D02*
X0746709D01*
X0728287Y0285013D02*
Y0295293D01*
X0729862Y0285013D02*
Y0295293D01*
X0736792Y0282867D02*
X0746709D01*
X0736261Y0283559D02*
X0737050Y0282531D01*
X0737545Y0281334D01*
X0734035Y0284844D02*
X0735233Y0284348D01*
X0736261Y0283559D01*
X0715689Y0285013D02*
Y0295293D01*
X0711097D02*
X0732751D01*
X0711097Y0285013D02*
X0732751D01*
X0712539D02*
Y0295293D01*
X0714114Y0285013D02*
Y0295293D01*
X0723563Y0285013D02*
Y0295293D01*
X0726712Y0285013D02*
Y0295293D01*
X0717264Y0285013D02*
Y0295293D01*
X0718838Y0285013D02*
Y0295293D01*
X0693051Y0304690D02*
X0693202Y0305450D01*
X0692895Y0304229D02*
X0693051Y0304690D01*
X0692595Y0303339D02*
X0706134D01*
X0692769Y0303758D02*
X0692895Y0304229D01*
X0692472Y0303042D02*
X0692769Y0303758D01*
X0706134Y0300256D02*
Y0313356D01*
X0692229Y0302620D02*
X0692472Y0303042D01*
X0706134Y0300256D02*
X0706303Y0298972D01*
X0692013Y0302184D02*
X0692229Y0302620D01*
X0692067Y0277864D02*
Y0302292D01*
X0691733Y0301765D02*
X0706134D01*
X0691582Y0301539D02*
X0692013Y0302184D01*
X0691261Y0301173D02*
X0691582Y0301539D01*
X0690965Y0300787D02*
X0691261Y0301173D01*
X0690417Y0300238D02*
X0690965Y0300787D01*
X0690492Y0279843D02*
Y0300314D01*
X0690353Y0300190D02*
X0706142D01*
X0690030Y0299942D02*
X0690417Y0300238D01*
X0689665Y0299621D02*
X0690030Y0299942D01*
X0710964Y0284995D02*
Y0295310D01*
X0709813Y0295462D02*
X0711097Y0295293D01*
X0709813Y0284844D02*
X0711097Y0285013D01*
X0707587Y0296746D02*
X0708615Y0295958D01*
X0709813Y0295462D01*
X0709390Y0284668D02*
Y0295637D01*
X0708615Y0284348D02*
X0709813Y0284844D01*
X0707815Y0283734D02*
Y0296572D01*
X0707587Y0283559D02*
X0708615Y0284348D01*
X0706303Y0298972D02*
X0706799Y0297774D01*
X0689020Y0299190D02*
X0689665Y0299621D01*
X0706799Y0297774D02*
X0707587Y0296746D01*
X0688583Y0298975D02*
X0689020Y0299190D01*
X0688162Y0298731D02*
X0688583Y0298975D01*
X0706799Y0282531D02*
X0707587Y0283559D01*
X0706303Y0281334D02*
X0706799Y0282531D01*
X0706240Y0280857D02*
Y0299448D01*
X0688917Y0281017D02*
Y0299140D01*
X0687342Y0324892D02*
Y0326429D01*
X0686889Y0325387D02*
X0746709D01*
X0682618Y0325892D02*
Y0326429D01*
X0685768Y0326088D02*
Y0326429D01*
X0687515Y0320662D02*
X0746709D01*
X0687342Y0315205D02*
Y0320415D01*
X0685768Y0315609D02*
Y0319219D01*
X0682618Y0315528D02*
Y0319415D01*
X0681043Y0324202D02*
Y0326429D01*
X0577062Y0325387D02*
X0681911D01*
X0578452Y0323812D02*
X0680889D01*
X0578797Y0322237D02*
X0680727D01*
X0577008Y0319087D02*
X0683426D01*
X0681043Y0315051D02*
Y0321105D01*
X0578437Y0320662D02*
X0681285D01*
X0685374Y0319087D02*
X0746709D01*
X0684785Y0315707D02*
X0685267Y0315644D01*
X0684009Y0315707D02*
X0684785D01*
X0684193D02*
Y0318963D01*
X0683527Y0315644D02*
X0684009Y0315707D01*
X0686975Y0315304D02*
X0687445Y0315178D01*
X0686514Y0315460D02*
X0686975Y0315304D01*
X0687445Y0315178D02*
X0688161Y0314881D01*
X0685267Y0315644D02*
X0685753Y0315612D01*
X0686514Y0315460D01*
X0662094Y0315938D02*
X0706875D01*
X0660539Y0317513D02*
X0708430D01*
X0683041Y0315612D02*
X0683527Y0315644D01*
X0682280Y0315460D02*
X0683041Y0315612D01*
X0681819Y0315304D02*
X0682280Y0315460D01*
X0681349Y0315178D02*
X0681819Y0315304D01*
X0680633Y0314881D02*
X0681349Y0315178D01*
X0680211Y0314638D02*
X0680633Y0314881D01*
X0679774Y0314422D02*
X0680211Y0314638D01*
X0679468Y0314218D02*
Y0326429D01*
X0662171Y0315838D02*
X0662667Y0314641D01*
X0662703Y0314363D02*
X0679686D01*
X0662146Y0315871D02*
Y0326429D01*
X0661382Y0316866D02*
X0662171Y0315838D01*
X0679130Y0313991D02*
X0679774Y0314422D01*
X0677894Y0312890D02*
Y0326429D01*
X0678764Y0313670D02*
X0679130Y0313991D01*
X0676319Y0310562D02*
Y0326429D01*
X0662667Y0314641D02*
X0662836Y0313356D01*
X0658996Y0318172D02*
Y0326429D01*
X0657421Y0318320D02*
Y0326429D01*
X0636219Y0318320D02*
X0657872D01*
X0654272D02*
Y0326429D01*
X0655846Y0318320D02*
Y0326429D01*
X0660571Y0317489D02*
Y0326429D01*
X0660354Y0317655D02*
X0661382Y0316866D01*
X0657872Y0318320D02*
X0659157Y0318151D01*
X0660354Y0317655D01*
X0678377Y0313374D02*
X0678764Y0313670D01*
X0677829Y0312826D02*
X0678377Y0313374D01*
X0677533Y0312440D02*
X0677829Y0312826D01*
X0677212Y0312074D02*
X0677533Y0312440D01*
X0676781Y0311429D02*
X0677212Y0312074D01*
X0676566Y0310992D02*
X0676781Y0311429D01*
X0676322Y0310571D02*
X0676566Y0310992D01*
X0676025Y0309854D02*
X0676322Y0310571D01*
X0675899Y0309384D02*
X0676025Y0309854D01*
X0662836Y0311213D02*
X0676675D01*
X0662836Y0312788D02*
X0677800D01*
X0662836Y0309639D02*
X0675968D01*
X0675743Y0308923D02*
X0675899Y0309384D01*
X0675592Y0308162D02*
X0675743Y0308923D01*
X0675560Y0307677D02*
X0675592Y0308162D01*
X0662836Y0308064D02*
X0675585D01*
X0675496Y0307194D02*
X0675560Y0307677D01*
X0675496Y0306806D02*
Y0307194D01*
X0687881Y0298615D02*
X0706450D01*
X0687445Y0298435D02*
X0688162Y0298731D01*
X0686975Y0298309D02*
X0687445Y0298435D01*
X0680633Y0298731D02*
X0681349Y0298435D01*
X0681819Y0298309D01*
X0687342Y0281749D02*
Y0298407D01*
X0686514Y0298152D02*
X0686975Y0298309D01*
X0685753Y0298001D02*
X0686514Y0298152D01*
X0681043Y0281595D02*
Y0298561D01*
X0681819Y0298309D02*
X0682280Y0298152D01*
X0678764Y0299942D02*
X0679130Y0299621D01*
X0678377Y0300238D02*
X0678764Y0299942D01*
X0679130Y0299621D02*
X0679774Y0299190D01*
X0677829Y0300787D02*
X0678377Y0300238D01*
X0662827Y0300190D02*
X0678441D01*
X0680211Y0298975D02*
X0680633Y0298731D01*
X0662519Y0298615D02*
X0680914D01*
X0679468Y0280762D02*
Y0299395D01*
X0679774Y0299190D02*
X0680211Y0298975D01*
X0685267Y0297969D02*
X0685753Y0298001D01*
X0684785Y0297905D02*
X0685267Y0297969D01*
X0684009Y0297905D02*
X0684785D01*
X0683527Y0297969D02*
X0684009Y0297905D01*
X0684193Y0282251D02*
Y0297905D01*
X0685768Y0282153D02*
Y0298004D01*
X0684785Y0282251D02*
X0685267Y0282187D01*
X0685753Y0282155D01*
X0683527Y0282187D02*
X0684009Y0282251D01*
X0684785D01*
X0661608Y0297040D02*
X0707362D01*
X0659166Y0295465D02*
X0709804D01*
X0660127Y0284442D02*
X0708842D01*
X0682280Y0298152D02*
X0683041Y0298001D01*
X0683527Y0297969D01*
X0661913Y0282867D02*
X0707057D01*
X0683041Y0282155D02*
X0683527Y0282187D01*
X0682618Y0282071D02*
Y0298085D01*
X0682280Y0282004D02*
X0683041Y0282155D01*
X0676322Y0303042D02*
X0676566Y0302620D01*
X0676025Y0303758D02*
X0676322Y0303042D01*
X0676566Y0302620D02*
X0676781Y0302184D01*
X0675743Y0304690D02*
X0675899Y0304229D01*
X0676025Y0303758D01*
X0677533Y0301173D02*
X0677829Y0300787D01*
X0677212Y0301539D02*
X0677533Y0301173D01*
X0677894Y0279434D02*
Y0300722D01*
X0676319Y0277106D02*
Y0303050D01*
X0676781Y0302184D02*
X0677212Y0301539D01*
X0675560Y0305936D02*
X0675592Y0305450D01*
X0675496Y0306418D02*
X0675560Y0305936D01*
X0662836Y0304914D02*
X0675698D01*
X0675496Y0306418D02*
Y0306806D01*
X0662836Y0306489D02*
X0675496D01*
X0662836Y0303339D02*
X0676199D01*
X0662836Y0301765D02*
X0677061D01*
X0662836Y0300256D02*
Y0313356D01*
X0675592Y0305450D02*
X0675743Y0304690D01*
X0662667Y0298972D02*
X0662836Y0300256D01*
X0662171Y0297774D02*
X0662667Y0298972D01*
X0661382Y0296746D02*
X0662171Y0297774D01*
X0660354Y0295958D02*
X0661382Y0296746D01*
X0660571Y0284181D02*
Y0296124D01*
X0661382Y0283559D02*
X0662171Y0282531D01*
X0662667Y0281334D01*
X0662146Y0282564D02*
Y0297742D01*
X0660354Y0284348D02*
X0661382Y0283559D01*
X0659157Y0295462D02*
X0660354Y0295958D01*
X0657872Y0295293D02*
X0659157Y0295462D01*
X0636219Y0295293D02*
X0657872D01*
X0655846Y0285013D02*
Y0295293D01*
X0636219Y0285013D02*
X0657872D01*
X0659157Y0284844D01*
X0660354Y0284348D01*
X0658996Y0284865D02*
Y0295441D01*
X0657421Y0285013D02*
Y0295293D01*
X0737715Y0274993D02*
X0746709D01*
X0737715Y0276568D02*
X0746709D01*
X0737715Y0273418D02*
X0746709D01*
X0737715Y0279717D02*
X0746709D01*
X0737715Y0278143D02*
X0746709D01*
X0737715Y0270269D02*
X0746709D01*
X0737715Y0271843D02*
X0746709D01*
X0737715Y0268694D02*
X0746709D01*
X0737715Y0266949D02*
Y0280049D01*
Y0267119D02*
X0746709D01*
X0737551Y0281292D02*
X0746709D01*
X0737545Y0281334D02*
X0737715Y0280049D01*
X0737545Y0265665D02*
X0737715Y0266949D01*
X0706134Y0280049D02*
X0706303Y0281334D01*
X0706134Y0266949D02*
X0706303Y0265665D01*
X0737050Y0264467D02*
X0737545Y0265665D01*
X0737496Y0265544D02*
X0746709D01*
X0706303Y0265665D02*
X0706799Y0264467D01*
X0736261Y0263439D02*
X0737050Y0264467D01*
X0736667Y0263969D02*
X0746709D01*
X0735233Y0262650D02*
X0736261Y0263439D01*
X0734615Y0262395D02*
X0746709D01*
X0734035Y0262155D02*
X0735233Y0262650D01*
X0732751Y0261985D02*
X0734035Y0262155D01*
X0729862Y0251155D02*
Y0261985D01*
X0728287Y0251155D02*
Y0261985D01*
X0731437Y0251155D02*
Y0261985D01*
X0718838Y0251155D02*
Y0261985D01*
X0725138Y0251155D02*
Y0261985D01*
X0709813Y0262155D02*
X0711097Y0261985D01*
X0708615Y0262650D02*
X0709813Y0262155D01*
X0711097Y0261985D02*
X0732751D01*
X0706799Y0264467D02*
X0707587Y0263439D01*
X0708615Y0262650D01*
X0717264Y0251155D02*
Y0261985D01*
X0711097Y0251155D02*
X0732751D01*
X0714114D02*
Y0261985D01*
X0715689Y0251155D02*
Y0261985D01*
X0693051Y0275467D02*
X0693202Y0274706D01*
X0692698Y0276568D02*
X0706134D01*
X0693145Y0274993D02*
X0706134D01*
X0692769Y0276398D02*
X0692895Y0275928D01*
X0693051Y0275467D01*
X0706134Y0266949D02*
Y0280049D01*
X0693234Y0274220D02*
X0693298Y0273738D01*
Y0273418D02*
X0706134D01*
X0693202Y0274706D02*
X0693234Y0274220D01*
X0693298Y0273350D02*
Y0273738D01*
X0691261Y0278983D02*
X0691582Y0278618D01*
X0690617Y0279717D02*
X0706134D01*
X0691899Y0278143D02*
X0706134D01*
X0690417Y0279918D02*
X0690965Y0279370D01*
X0691261Y0278983D01*
X0692229Y0277536D02*
X0692472Y0277114D01*
X0692769Y0276398D01*
X0691582Y0278618D02*
X0692013Y0277973D01*
X0692229Y0277536D01*
X0693298Y0272962D02*
Y0273350D01*
X0693234Y0272480D02*
X0693298Y0272962D01*
X0693173Y0271843D02*
X0706134D01*
X0693202Y0271994D02*
X0693234Y0272480D01*
X0693051Y0271233D02*
X0693202Y0271994D01*
X0692895Y0270772D02*
X0693051Y0271233D01*
X0692755Y0270269D02*
X0706134D01*
X0692769Y0270302D02*
X0692895Y0270772D01*
X0692472Y0269586D02*
X0692769Y0270302D01*
X0692229Y0269164D02*
X0692472Y0269586D01*
X0692013Y0268727D02*
X0692229Y0269164D01*
X0691991Y0268694D02*
X0706134D01*
X0691582Y0268083D02*
X0692013Y0268727D01*
X0691261Y0267717D02*
X0691582Y0268083D01*
X0690965Y0267331D02*
X0691261Y0267717D01*
X0690754Y0267119D02*
X0706134D01*
X0690417Y0266782D02*
X0690965Y0267331D01*
X0690030Y0266486D02*
X0690417Y0266782D01*
X0737655Y0246647D02*
X0746709D01*
X0737236Y0248221D02*
X0746709D01*
X0737715Y0243497D02*
X0746709D01*
X0737545Y0247476D02*
X0737715Y0246191D01*
Y0245072D02*
X0746709D01*
X0737715Y0240347D02*
X0746709D01*
X0737715Y0241922D02*
X0746709D01*
X0737715Y0238773D02*
X0746709D01*
X0737715Y0233091D02*
Y0246191D01*
Y0237198D02*
X0746709D01*
X0734586Y0250757D02*
Y0262383D01*
X0734035Y0250986D02*
X0735233Y0250490D01*
X0736136Y0249796D02*
X0746709D01*
X0733012Y0251120D02*
Y0262020D01*
X0732751Y0251155D02*
X0734035Y0250986D01*
X0736261Y0249701D02*
X0737050Y0248673D01*
X0737545Y0247476D01*
X0736161Y0249777D02*
Y0263363D01*
X0735233Y0250490D02*
X0736261Y0249701D01*
X0737715Y0234048D02*
X0746709D01*
X0737715Y0235623D02*
X0746709D01*
X0737633Y0232473D02*
X0746709D01*
X0737545Y0231806D02*
X0737715Y0233091D01*
X0737170Y0230899D02*
X0746709D01*
X0737050Y0230609D02*
X0737545Y0231806D01*
X0736261Y0229581D02*
X0737050Y0230609D01*
X0735925Y0229324D02*
X0746709D01*
X0735233Y0228792D02*
X0736261Y0229581D01*
X0734586Y0211387D02*
Y0228524D01*
X0734035Y0228296D02*
X0735233Y0228792D01*
X0732751Y0228127D02*
X0734035Y0228296D01*
X0711097Y0228127D02*
X0732751D01*
X0729862Y0211785D02*
Y0228127D01*
X0711097Y0211785D02*
X0732751D01*
X0734035Y0211615D01*
X0735233Y0211120D01*
X0733012Y0211750D02*
Y0228162D01*
X0731437Y0211785D02*
Y0228127D01*
X0723563Y0251155D02*
Y0261985D01*
X0721988Y0251155D02*
Y0261985D01*
X0726712Y0251155D02*
Y0261985D01*
X0712539Y0251155D02*
Y0261985D01*
X0720413Y0251155D02*
Y0261985D01*
X0710964Y0251137D02*
Y0262003D01*
X0709813Y0250986D02*
X0711097Y0251155D01*
X0708615Y0250490D02*
X0709813Y0250986D01*
X0707815Y0249875D02*
Y0263265D01*
X0709390Y0250810D02*
Y0262330D01*
X0707587Y0249701D02*
X0708615Y0250490D01*
X0706799Y0248673D02*
X0707587Y0249701D01*
X0706303Y0247476D02*
X0706799Y0248673D01*
X0706240Y0246999D02*
Y0266141D01*
X0706134Y0246191D02*
X0706303Y0247476D01*
Y0231806D02*
X0706799Y0230609D01*
X0707587Y0229581D01*
X0706134Y0233091D02*
Y0246191D01*
Y0233091D02*
X0706303Y0231806D01*
X0720413Y0211785D02*
Y0228127D01*
X0718838Y0211785D02*
Y0228127D01*
X0721988Y0211785D02*
Y0228127D01*
X0715689Y0211785D02*
Y0228127D01*
X0717264Y0211785D02*
Y0228127D01*
X0726712Y0211785D02*
Y0228127D01*
X0728287Y0211785D02*
Y0228127D01*
X0723563Y0211785D02*
Y0228127D01*
X0725138Y0211785D02*
Y0228127D01*
X0712539Y0211785D02*
Y0228127D01*
X0709813Y0228296D02*
X0711097Y0228127D01*
X0714114Y0211785D02*
Y0228127D01*
X0707587Y0229581D02*
X0708615Y0228792D01*
X0709813Y0228296D01*
X0710964Y0211767D02*
Y0228145D01*
X0709813Y0211615D02*
X0711097Y0211785D01*
X0709390Y0211440D02*
Y0228472D01*
X0708615Y0211120D02*
X0709813Y0211615D01*
X0687445Y0281722D02*
X0688161Y0281425D01*
X0686975Y0281848D02*
X0687445Y0281722D01*
X0688391Y0281292D02*
X0706297D01*
X0685753Y0282155D02*
X0686514Y0282004D01*
X0686975Y0281848D01*
X0689665Y0280535D02*
X0690030Y0280214D01*
X0689020Y0280966D02*
X0689665Y0280535D01*
X0690030Y0280214D02*
X0690417Y0279918D01*
X0688161Y0281425D02*
X0688583Y0281182D01*
X0689020Y0280966D01*
X0681819Y0281848D02*
X0682280Y0282004D01*
X0681349Y0281722D02*
X0681819Y0281848D01*
X0680633Y0281425D02*
X0681349Y0281722D01*
X0680211Y0281181D02*
X0680633Y0281425D01*
X0662672Y0281292D02*
X0680403D01*
X0679774Y0280966D02*
X0680211Y0281181D01*
X0679130Y0280535D02*
X0679774Y0280966D01*
X0678764Y0280214D02*
X0679130Y0280535D01*
X0678377Y0279918D02*
X0678764Y0280214D01*
X0689665Y0266165D02*
X0690030Y0266486D01*
X0689020Y0265734D02*
X0689665Y0266165D01*
X0688635Y0265544D02*
X0706353D01*
X0688583Y0265519D02*
X0689020Y0265734D01*
X0688162Y0265275D02*
X0688583Y0265519D01*
X0687445Y0264978D02*
X0688162Y0265275D01*
X0686975Y0264852D02*
X0687445Y0264978D01*
X0686514Y0264696D02*
X0686975Y0264852D01*
X0681819D02*
X0682280Y0264696D01*
X0683041Y0264545D01*
X0679130Y0266165D02*
X0679774Y0265734D01*
X0678764Y0266486D02*
X0679130Y0266165D01*
X0662617Y0265544D02*
X0680159D01*
X0677829Y0279370D02*
X0678377Y0279918D01*
X0678377Y0266782D02*
X0678764Y0266486D01*
X0680633Y0265275D02*
X0681349Y0264978D01*
X0681819Y0264852D01*
X0679774Y0265734D02*
X0680211Y0265519D01*
X0680633Y0265275D01*
X0677533Y0278983D02*
X0677829Y0279370D01*
X0677212Y0278618D02*
X0677533Y0278983D01*
X0676781Y0277973D02*
X0677212Y0278618D01*
X0676566Y0277536D02*
X0676781Y0277973D01*
X0676322Y0277114D02*
X0676566Y0277536D01*
X0676025Y0276398D02*
X0676322Y0277114D01*
X0675899Y0275928D02*
X0676025Y0276398D01*
X0675743Y0275467D02*
X0675899Y0275928D01*
X0675592Y0274706D02*
X0675743Y0275467D01*
X0675560Y0274220D02*
X0675592Y0274706D01*
X0662836Y0278143D02*
X0676895D01*
X0662836Y0279717D02*
X0678177D01*
X0662836Y0276568D02*
X0676096D01*
X0662667Y0281334D02*
X0662836Y0280049D01*
Y0274993D02*
X0675649D01*
X0675496Y0273738D02*
X0675560Y0274220D01*
X0662836Y0273418D02*
X0675496D01*
X0662836Y0266949D02*
Y0280049D01*
X0675496Y0273350D02*
Y0273738D01*
X0676322Y0269586D02*
X0676566Y0269164D01*
X0676025Y0270302D02*
X0676322Y0269586D01*
X0676566Y0269164D02*
X0676781Y0268727D01*
X0675743Y0271233D02*
X0675899Y0270772D01*
X0676025Y0270302D01*
X0677533Y0267717D02*
X0677829Y0267331D01*
X0678377Y0266782D01*
X0676781Y0268727D02*
X0677212Y0268083D01*
X0677533Y0267717D01*
X0675592Y0271994D02*
X0675743Y0271233D01*
X0675560Y0272480D02*
X0675592Y0271994D01*
X0662836Y0271843D02*
X0675622D01*
X0675496Y0272962D02*
Y0273350D01*
Y0272962D02*
X0675560Y0272480D01*
X0662836Y0268694D02*
X0676803D01*
X0662836Y0267119D02*
X0678041D01*
X0662836Y0270269D02*
X0676039D01*
X0662667Y0265665D02*
X0662836Y0266949D01*
X0685753Y0264545D02*
X0686514Y0264696D01*
X0685267Y0264513D02*
X0685753Y0264545D01*
X0684785Y0264449D02*
X0685267Y0264513D01*
X0683527D02*
X0684009Y0264449D01*
X0684785D01*
X0685924Y0259245D02*
X0746709D01*
X0685768Y0259373D02*
Y0264547D01*
X0686991Y0257670D02*
X0746709D01*
X0684193Y0260085D02*
Y0264449D01*
X0683041Y0264545D02*
X0683527Y0264513D01*
X0661789Y0263969D02*
X0707181D01*
X0659736Y0262395D02*
X0709233D01*
X0682618Y0260044D02*
Y0264629D01*
X0577234Y0259245D02*
X0681076D01*
X0681043Y0259216D02*
Y0265105D01*
X0687180Y0256095D02*
X0746709D01*
X0686651Y0254521D02*
X0746709D01*
X0684667Y0252946D02*
X0746709D01*
X0662836Y0245072D02*
X0706134D01*
X0662836Y0235623D02*
X0706134D01*
X0662836Y0240347D02*
X0706134D01*
X0662836Y0234048D02*
X0706134D01*
X0662836Y0243497D02*
X0706134D01*
X0662836Y0241922D02*
X0706134D01*
X0662358Y0248221D02*
X0706612D01*
X0661258Y0249796D02*
X0707712D01*
X0662776Y0246647D02*
X0706194D01*
X0575507Y0252946D02*
X0682333D01*
X0662836Y0238773D02*
X0706134D01*
X0662291Y0230899D02*
X0706679D01*
X0661047Y0229324D02*
X0707923D01*
X0662836Y0237198D02*
X0706134D01*
X0662755Y0232473D02*
X0706215D01*
X0662171Y0264467D02*
X0662667Y0265665D01*
X0661382Y0263439D02*
X0662171Y0264467D01*
X0660354Y0262650D02*
X0661382Y0263439D01*
X0659157Y0262155D02*
X0660354Y0262650D01*
X0657872Y0261985D02*
X0659157Y0262155D01*
X0662146Y0248706D02*
Y0264434D01*
X0660571Y0250323D02*
Y0262817D01*
X0660354Y0250490D02*
X0661382Y0249701D01*
X0658996Y0251007D02*
Y0262134D01*
X0659157Y0250986D02*
X0660354Y0250490D01*
X0578368Y0256095D02*
X0679820D01*
X0578224Y0257670D02*
X0680009D01*
X0577788Y0254521D02*
X0680349D01*
X0655846Y0251155D02*
Y0261985D01*
X0636219D02*
X0657872D01*
X0636219Y0251155D02*
X0657872D01*
X0659157Y0250986D01*
X0654272Y0251155D02*
Y0261985D01*
X0657421Y0251155D02*
Y0261985D01*
X0662836Y0233091D02*
Y0246191D01*
X0662667Y0247476D02*
X0662836Y0246191D01*
X0662667Y0231806D02*
X0662836Y0233091D01*
X0661382Y0249701D02*
X0662171Y0248673D01*
X0662667Y0247476D01*
X0662171Y0230609D02*
X0662667Y0231806D01*
X0661382Y0229581D02*
X0662171Y0230609D01*
X0660354Y0228792D02*
X0661382Y0229581D01*
X0660571Y0210953D02*
Y0228959D01*
X0659157Y0228296D02*
X0660354Y0228792D01*
X0657872Y0228127D02*
X0659157Y0228296D01*
X0636219Y0228127D02*
X0657872D01*
X0655846Y0211785D02*
Y0228127D01*
X0636219Y0211785D02*
X0657872D01*
X0659157Y0211615D01*
X0660354Y0211120D01*
X0658996Y0211637D02*
Y0228275D01*
X0657421Y0211785D02*
Y0228127D01*
X0643248Y0318320D02*
Y0326429D01*
X0641673Y0318320D02*
Y0326429D01*
X0644823Y0318320D02*
Y0326429D01*
X0638524Y0318320D02*
Y0326429D01*
X0640098Y0318320D02*
Y0326429D01*
X0651122Y0318320D02*
Y0326429D01*
X0649547Y0318320D02*
Y0326429D01*
X0652697Y0318320D02*
Y0326429D01*
X0646398Y0318320D02*
Y0326429D01*
X0647972Y0318320D02*
Y0326429D01*
X0636949Y0318320D02*
Y0326429D01*
X0635374Y0318209D02*
Y0326429D01*
X0634934Y0318151D02*
X0636219Y0318320D01*
X0633799Y0317681D02*
Y0326429D01*
X0633737Y0317655D02*
X0634934Y0318151D01*
X0632709Y0316866D02*
X0633737Y0317655D01*
X0615733Y0317513D02*
X0633551D01*
X0632224Y0316235D02*
Y0326429D01*
X0615548Y0317655D02*
X0616576Y0316866D01*
X0631920Y0315838D02*
X0632709Y0316866D01*
X0631424Y0314641D02*
X0631920Y0315838D01*
X0631255Y0313356D02*
X0631424Y0314641D01*
X0618029Y0312788D02*
X0631255D01*
X0618029Y0306489D02*
X0631255D01*
X0618029Y0303339D02*
X0631255D01*
X0618029Y0304914D02*
X0631255D01*
X0618029Y0301765D02*
X0631255D01*
X0618029Y0300256D02*
Y0313356D01*
X0631255Y0300256D02*
Y0313356D01*
X0617860Y0314641D02*
X0618029Y0313356D01*
X0617288Y0315938D02*
X0631996D01*
X0617897Y0314363D02*
X0631387D01*
X0616576Y0316866D02*
X0617365Y0315838D01*
X0617860Y0314641D01*
X0618029Y0308064D02*
X0631255D01*
X0618021Y0300190D02*
X0631264D01*
X0618029Y0311213D02*
X0631255D01*
X0618029Y0309639D02*
X0631255D01*
X0607028Y0318320D02*
Y0326429D01*
X0605453Y0318320D02*
Y0326429D01*
X0608602Y0318320D02*
Y0326429D01*
X0602303Y0318320D02*
Y0326429D01*
X0603878Y0318320D02*
Y0326429D01*
X0614902Y0317923D02*
Y0326429D01*
X0613327Y0318286D02*
Y0326429D01*
X0616476Y0316942D02*
Y0326429D01*
X0610177Y0318320D02*
Y0326429D01*
X0611752Y0318320D02*
Y0326429D01*
X0599154Y0318320D02*
Y0326429D01*
X0597579Y0318320D02*
Y0326429D01*
X0600728Y0318320D02*
Y0326429D01*
X0594429Y0318320D02*
Y0326429D01*
X0596004Y0318320D02*
Y0326429D01*
X0591280Y0318302D02*
Y0326429D01*
X0592854Y0318320D02*
Y0326429D01*
X0586555Y0314166D02*
Y0326429D01*
X0588130Y0317041D02*
Y0326429D01*
X0613066Y0318320D02*
X0614351Y0318151D01*
X0591412Y0318320D02*
X0613066D01*
X0614351Y0318151D02*
X0615548Y0317655D01*
X0589705Y0317976D02*
Y0326429D01*
X0590128Y0318151D02*
X0591412Y0318320D01*
X0588930Y0317655D02*
X0590128Y0318151D01*
X0587902Y0316866D02*
X0588930Y0317655D01*
X0587114Y0315838D02*
X0587902Y0316866D01*
X0586618Y0314641D02*
X0587114Y0315838D01*
X0586448Y0313356D02*
X0586618Y0314641D01*
X0583542Y0308064D02*
X0586448D01*
X0583631Y0306806D02*
Y0307194D01*
X0583536Y0308162D02*
X0583567Y0307677D01*
X0583631Y0307194D01*
X0586448Y0300256D02*
Y0313356D01*
X0583631Y0306489D02*
X0586448D01*
X0583631Y0306418D02*
Y0306806D01*
X0583567Y0305936D02*
X0583631Y0306418D01*
X0634934Y0295462D02*
X0636219Y0295293D01*
X0633737Y0295958D02*
X0634934Y0295462D01*
X0636949Y0285013D02*
Y0295293D01*
X0631920Y0297774D02*
X0632709Y0296746D01*
X0633737Y0295958D01*
X0640098Y0285013D02*
Y0295293D01*
X0635374Y0284902D02*
Y0295404D01*
X0641673Y0285013D02*
Y0295293D01*
X0632224Y0282928D02*
Y0297378D01*
X0633799Y0284374D02*
Y0295932D01*
X0631424Y0298972D02*
X0631920Y0297774D01*
X0631255Y0300256D02*
X0631424Y0298972D01*
X0617713Y0298615D02*
X0631572D01*
X0617860Y0298972D02*
X0618029Y0300256D01*
X0617365Y0297774D02*
X0617860Y0298972D01*
X0616801Y0297040D02*
X0632483D01*
X0614360Y0295465D02*
X0634925D01*
X0616576Y0296746D02*
X0617365Y0297774D01*
X0615548Y0295958D02*
X0616576Y0296746D01*
X0652697Y0285013D02*
Y0295293D01*
X0651122Y0285013D02*
Y0295293D01*
X0654272Y0285013D02*
Y0295293D01*
X0647972Y0285013D02*
Y0295293D01*
X0649547Y0285013D02*
Y0295293D01*
X0644823Y0285013D02*
Y0295293D01*
X0643248Y0285013D02*
Y0295293D01*
X0646398Y0285013D02*
Y0295293D01*
X0638524Y0285013D02*
Y0295293D01*
X0634934Y0284844D02*
X0636219Y0285013D01*
X0633737Y0284348D02*
X0634934Y0284844D01*
X0615321Y0284442D02*
X0633964D01*
X0632709Y0283559D02*
X0633737Y0284348D01*
X0615548D02*
X0616576Y0283559D01*
X0617107Y0282867D02*
X0632178D01*
X0631920Y0282531D02*
X0632709Y0283559D01*
X0631424Y0281334D02*
X0631920Y0282531D01*
X0616576Y0283559D02*
X0617365Y0282531D01*
X0617860Y0281334D01*
X0614351Y0295462D02*
X0615548Y0295958D01*
X0613066Y0295293D02*
X0614351Y0295462D01*
X0608602Y0285013D02*
Y0295293D01*
X0603878Y0285013D02*
Y0295293D01*
X0605453Y0285013D02*
Y0295293D01*
X0616476Y0283635D02*
Y0296670D01*
X0614902Y0284615D02*
Y0295690D01*
X0613327Y0284979D02*
Y0295327D01*
X0591280Y0284995D02*
Y0295310D01*
X0607028Y0285013D02*
Y0295293D01*
X0587902Y0296746D02*
X0588930Y0295958D01*
X0587114Y0297774D02*
X0587902Y0296746D01*
X0588930Y0295958D02*
X0590128Y0295462D01*
X0586448Y0300256D02*
X0586618Y0298972D01*
X0587114Y0297774D01*
X0589705Y0284669D02*
Y0295637D01*
X0590128Y0295462D02*
X0591412Y0295293D01*
X0586555Y0280859D02*
Y0299446D01*
X0588130Y0283734D02*
Y0296572D01*
X0600728Y0285013D02*
Y0295293D01*
X0599154Y0285013D02*
Y0295293D01*
X0602303Y0285013D02*
Y0295293D01*
X0596004Y0285013D02*
Y0295293D01*
X0597579Y0285013D02*
Y0295293D01*
X0613066Y0285013D02*
X0614351Y0284844D01*
X0615548Y0284348D01*
X0610177Y0285013D02*
Y0295293D01*
X0611752Y0285013D02*
Y0295293D01*
X0594429Y0285013D02*
Y0295293D01*
X0591412D02*
X0613066D01*
X0591412Y0285013D02*
X0613066D01*
X0592854D02*
Y0295293D01*
X0590128Y0284844D02*
X0591412Y0285013D01*
X0588930Y0284348D02*
X0590128Y0284844D01*
X0587902Y0283559D02*
X0588930Y0284348D01*
X0587114Y0282531D02*
X0587902Y0283559D01*
X0586618Y0281334D02*
X0587114Y0282531D01*
X0578681Y0323171D02*
Y0326429D01*
X0576847Y0315460D02*
X0577308Y0315304D01*
X0577778Y0315178D01*
X0577106Y0325359D02*
Y0326429D01*
Y0315372D02*
Y0319148D01*
X0581831Y0312170D02*
Y0326429D01*
X0580256Y0313765D02*
Y0326429D01*
X0583406Y0308816D02*
Y0326429D01*
X0578681Y0314773D02*
Y0321336D01*
X0577778Y0315178D02*
X0578495Y0314881D01*
X0575532Y0325925D02*
Y0326429D01*
X0575601Y0315644D02*
X0576086Y0315612D01*
X0576847Y0315460D01*
X0575532Y0315653D02*
Y0318582D01*
X0575118Y0315707D02*
X0575601Y0315644D01*
X0582453Y0311213D02*
X0586448D01*
X0582346Y0311429D02*
X0582562Y0310992D01*
X0582805Y0310571D01*
X0581595Y0312440D02*
X0581916Y0312074D01*
X0582346Y0311429D01*
X0583228Y0309384D02*
X0583384Y0308923D01*
X0583160Y0309639D02*
X0586448D01*
X0583384Y0308923D02*
X0583536Y0308162D01*
X0582805Y0310571D02*
X0583102Y0309854D01*
X0583228Y0309384D01*
X0579442Y0314363D02*
X0586581D01*
X0579353Y0314422D02*
X0579998Y0313991D01*
X0580364Y0313671D01*
X0578495Y0314881D02*
X0578916Y0314638D01*
X0579353Y0314422D01*
X0581298Y0312826D02*
X0581595Y0312440D01*
X0581327Y0312788D02*
X0586448D01*
X0580364Y0313671D02*
X0580750Y0313374D01*
X0581298Y0312826D01*
X0573957Y0325769D02*
Y0326429D01*
X0574342Y0315707D02*
X0575118D01*
X0572382Y0324759D02*
Y0326429D01*
X0573957Y0315656D02*
Y0318738D01*
X0573860Y0315644D02*
X0574342Y0315707D01*
X0573374Y0315612D02*
X0573860Y0315644D01*
X0572613Y0315460D02*
X0573374Y0315612D01*
X0572382Y0315382D02*
Y0319748D01*
X0572153Y0315304D02*
X0572613Y0315460D01*
X0571682Y0315178D02*
X0572153Y0315304D01*
X0570966Y0314881D02*
X0571682Y0315178D01*
X0570544Y0314638D02*
X0570966Y0314881D01*
X0570807Y0314790D02*
Y0326429D01*
X0570108Y0314422D02*
X0570544Y0314638D01*
X0569232Y0313790D02*
Y0326429D01*
X0569463Y0313991D02*
X0570108Y0314422D01*
X0566083Y0308943D02*
Y0326429D01*
X0567658Y0312202D02*
Y0326429D01*
X0569097Y0313670D02*
X0569463Y0313991D01*
X0568711Y0313374D02*
X0569097Y0313670D01*
X0568162Y0312826D02*
X0568711Y0313374D01*
X0567866Y0312440D02*
X0568162Y0312826D01*
X0567545Y0312074D02*
X0567866Y0312440D01*
X0567114Y0311429D02*
X0567545Y0312074D01*
X0566899Y0310992D02*
X0567114Y0311429D01*
X0566655Y0310571D02*
X0566899Y0310992D01*
X0566359Y0309854D02*
X0566655Y0310571D01*
X0563033Y0311213D02*
X0567008D01*
X0563033Y0312788D02*
X0568133D01*
X0566233Y0309384D02*
X0566359Y0309854D01*
X0563033Y0309639D02*
X0566301D01*
X0566076Y0308923D02*
X0566233Y0309384D01*
X0565925Y0308162D02*
X0566076Y0308923D01*
X0565893Y0307677D02*
X0565925Y0308162D01*
X0563033Y0308064D02*
X0565918D01*
X0565830Y0307194D02*
X0565893Y0307677D01*
X0583536Y0305450D02*
X0583567Y0305936D01*
X0583384Y0304690D02*
X0583536Y0305450D01*
X0583429Y0304914D02*
X0586448D01*
X0583228Y0304229D02*
X0583384Y0304690D01*
X0583102Y0303758D02*
X0583228Y0304229D01*
X0583406Y0275360D02*
Y0304797D01*
X0582805Y0303042D02*
X0583102Y0303758D01*
X0582928Y0303339D02*
X0586448D01*
X0582562Y0302620D02*
X0582805Y0303042D01*
X0582346Y0302184D02*
X0582562Y0302620D01*
X0582066Y0301765D02*
X0586448D01*
X0581916Y0301539D02*
X0582346Y0302184D01*
X0581595Y0301173D02*
X0581916Y0301539D01*
X0581298Y0300787D02*
X0581595Y0301173D01*
X0580750Y0300238D02*
X0581298Y0300787D01*
X0581831Y0278714D02*
Y0301442D01*
X0580687Y0300190D02*
X0586457D01*
X0580364Y0299942D02*
X0580750Y0300238D01*
X0579998Y0299621D02*
X0580364Y0299942D01*
X0579353Y0299190D02*
X0579998Y0299621D01*
X0578916Y0298975D02*
X0579353Y0299190D01*
X0578214Y0298615D02*
X0586765D01*
X0578495Y0298731D02*
X0578916Y0298975D01*
X0577778Y0298435D02*
X0578495Y0298731D01*
X0580256Y0280309D02*
Y0299848D01*
X0578681Y0281317D02*
Y0298839D01*
X0577308Y0298309D02*
X0577778Y0298435D01*
X0576847Y0298152D02*
X0577308Y0298309D01*
X0577106Y0281916D02*
Y0298240D01*
X0576086Y0298001D02*
X0576847Y0298152D01*
X0575601Y0297969D02*
X0576086Y0298001D01*
X0575118Y0297905D02*
X0575601Y0297969D01*
X0574342Y0297905D02*
X0575118D01*
X0574342Y0282251D02*
X0575118D01*
X0575601Y0282187D01*
X0576086Y0282155D01*
X0575532Y0282196D02*
Y0297960D01*
X0573860Y0282187D02*
X0574342Y0282251D01*
X0566359Y0303758D02*
X0566655Y0303042D01*
X0566233Y0304229D02*
X0566359Y0303758D01*
X0566655Y0303042D02*
X0566899Y0302620D01*
X0565925Y0305450D02*
X0566076Y0304690D01*
X0566233Y0304229D01*
X0567545Y0301539D02*
X0567866Y0301173D01*
X0567114Y0302184D02*
X0567545Y0301539D01*
X0567658Y0278746D02*
Y0301410D01*
X0566083Y0275486D02*
Y0304670D01*
X0566899Y0302620D02*
X0567114Y0302184D01*
X0565830Y0306418D02*
X0565893Y0305936D01*
X0565830Y0306418D02*
Y0306806D01*
X0565893Y0305936D02*
X0565925Y0305450D01*
X0565830Y0306806D02*
Y0307194D01*
X0563033Y0306489D02*
X0565830D01*
X0563033Y0303339D02*
X0566532D01*
X0563033Y0301765D02*
X0567394D01*
X0563033Y0300256D02*
Y0313356D01*
Y0304914D02*
X0566032D01*
X0572613Y0298152D02*
X0573374Y0298001D01*
X0572153Y0298309D02*
X0572613Y0298152D01*
X0573374Y0298001D02*
X0573860Y0297969D01*
X0570966Y0298731D02*
X0571682Y0298435D01*
X0572153Y0298309D01*
X0573860Y0297969D02*
X0574342Y0297905D01*
X0573957Y0282200D02*
Y0297956D01*
X0570807Y0281333D02*
Y0298823D01*
X0572382Y0281926D02*
Y0298231D01*
X0568711Y0300238D02*
X0569097Y0299942D01*
X0563024Y0300190D02*
X0568774D01*
X0569097Y0299942D02*
X0569463Y0299621D01*
X0567866Y0301173D02*
X0568162Y0300787D01*
X0568711Y0300238D01*
X0570108Y0299190D02*
X0570544Y0298975D01*
X0570966Y0298731D01*
X0569232Y0280333D02*
Y0299823D01*
X0569463Y0299621D02*
X0570108Y0299190D01*
X0631255Y0280049D02*
X0631424Y0281334D01*
X0618029Y0274993D02*
X0631255D01*
Y0266949D02*
X0631424Y0265665D01*
X0631255Y0266949D02*
Y0280049D01*
X0618029Y0273418D02*
X0631255D01*
X0632709Y0263439D02*
X0633737Y0262650D01*
X0631920Y0264467D02*
X0632709Y0263439D01*
X0633737Y0262650D02*
X0634934Y0262155D01*
X0631424Y0265665D02*
X0631920Y0264467D01*
X0632224Y0249070D02*
Y0264071D01*
X0618029Y0279717D02*
X0631255D01*
X0617866Y0281292D02*
X0631419D01*
X0618029Y0278143D02*
X0631255D01*
X0618029Y0271843D02*
X0631255D01*
X0618029Y0270269D02*
X0631255D01*
X0617811Y0265544D02*
X0631474D01*
X0616982Y0263969D02*
X0632302D01*
X0618029Y0268694D02*
X0631255D01*
X0618029Y0267119D02*
X0631255D01*
X0643248Y0251155D02*
Y0261985D01*
X0641673Y0251155D02*
Y0261985D01*
X0644823Y0251155D02*
Y0261985D01*
X0638524Y0251155D02*
Y0261985D01*
X0640098Y0251155D02*
Y0261985D01*
X0651122Y0251155D02*
Y0261985D01*
X0649547Y0251155D02*
Y0261985D01*
X0652697Y0251155D02*
Y0261985D01*
X0646398Y0251155D02*
Y0261985D01*
X0647972Y0251155D02*
Y0261985D01*
X0636949Y0251155D02*
Y0261985D01*
X0634934Y0262155D02*
X0636219Y0261985D01*
X0634934Y0250986D02*
X0636219Y0251155D01*
X0614930Y0262395D02*
X0634354D01*
X0635374Y0251043D02*
Y0262097D01*
X0633799Y0250515D02*
Y0262625D01*
X0633737Y0250490D02*
X0634934Y0250986D01*
X0632709Y0249701D02*
X0633737Y0250490D01*
X0616451Y0249796D02*
X0632833D01*
X0618029Y0266949D02*
Y0280049D01*
X0617860Y0281334D02*
X0618029Y0280049D01*
Y0276568D02*
X0631255D01*
X0617860Y0265665D02*
X0618029Y0266949D01*
X0617365Y0264467D02*
X0617860Y0265665D01*
X0616576Y0263439D02*
X0617365Y0264467D01*
X0615548Y0262650D02*
X0616576Y0263439D01*
X0616476Y0249777D02*
Y0263363D01*
X0614351Y0262155D02*
X0615548Y0262650D01*
X0614902Y0250757D02*
Y0262383D01*
X0613066Y0261985D02*
X0614351Y0262155D01*
X0591412Y0261985D02*
X0613066D01*
X0611752Y0251155D02*
Y0261985D01*
X0588930Y0262650D02*
X0590128Y0262155D01*
X0591412Y0261985D01*
X0613327Y0251120D02*
Y0262020D01*
X0591280Y0251137D02*
Y0262003D01*
X0588130Y0249875D02*
Y0263265D01*
X0589705Y0250810D02*
Y0262330D01*
X0607028Y0251155D02*
Y0261985D01*
X0605453Y0251155D02*
Y0261985D01*
X0608602Y0251155D02*
Y0261985D01*
X0602303Y0251155D02*
Y0261985D01*
X0603878Y0251155D02*
Y0261985D01*
X0614351Y0250986D02*
X0615548Y0250490D01*
X0616576Y0249701D01*
X0610177Y0251155D02*
Y0261985D01*
X0613066Y0251155D02*
X0614351Y0250986D01*
X0599154Y0251155D02*
Y0261985D01*
X0597579Y0251155D02*
Y0261985D01*
X0600728Y0251155D02*
Y0261985D01*
X0594429Y0251155D02*
Y0261985D01*
X0596004Y0251155D02*
Y0261985D01*
X0592854Y0251155D02*
Y0261985D01*
X0591412Y0251155D02*
X0613066D01*
X0590128Y0250986D02*
X0591412Y0251155D01*
X0588930Y0250490D02*
X0590128Y0250986D01*
X0631920Y0248673D02*
X0632709Y0249701D01*
X0631424Y0247476D02*
X0631920Y0248673D01*
X0631255Y0246191D02*
X0631424Y0247476D01*
X0618029Y0245072D02*
X0631255D01*
X0618029Y0243497D02*
X0631255D01*
X0631920Y0230609D02*
X0632709Y0229581D01*
X0631424Y0231806D02*
X0631920Y0230609D01*
X0632709Y0229581D02*
X0633737Y0228792D01*
X0631255Y0233091D02*
Y0246191D01*
Y0233091D02*
X0631424Y0231806D01*
X0617970Y0246647D02*
X0631315D01*
X0617552Y0248221D02*
X0631733D01*
X0618029Y0241922D02*
X0631255D01*
X0618029Y0240347D02*
X0631255D01*
X0618029Y0238773D02*
X0631255D01*
X0617948Y0232473D02*
X0631336D01*
X0617485Y0230899D02*
X0631800D01*
X0618029Y0237198D02*
X0631255D01*
X0618029Y0235623D02*
X0631255D01*
X0644823Y0211785D02*
Y0228127D01*
X0643248Y0211785D02*
Y0228127D01*
X0646398Y0211785D02*
Y0228127D01*
X0640098Y0211785D02*
Y0228127D01*
X0641673Y0211785D02*
Y0228127D01*
X0652697Y0211785D02*
Y0228127D01*
X0651122Y0211785D02*
Y0228127D01*
X0654272Y0211785D02*
Y0228127D01*
X0647972Y0211785D02*
Y0228127D01*
X0649547Y0211785D02*
Y0228127D01*
X0636949Y0211785D02*
Y0228127D01*
X0634934Y0228296D02*
X0636219Y0228127D01*
X0638524Y0211785D02*
Y0228127D01*
X0616241Y0229324D02*
X0633044D01*
X0633737Y0228792D02*
X0634934Y0228296D01*
X0635374Y0211673D02*
Y0228238D01*
X0634934Y0211615D02*
X0636219Y0211785D01*
X0633799Y0211145D02*
Y0228766D01*
X0633737Y0211120D02*
X0634934Y0211615D01*
X0618029Y0233091D02*
Y0246191D01*
X0617860Y0247476D02*
X0618029Y0246191D01*
Y0234048D02*
X0631255D01*
X0616576Y0249701D02*
X0617365Y0248673D01*
X0617860Y0247476D01*
Y0231806D02*
X0618029Y0233091D01*
X0617365Y0230609D02*
X0617860Y0231806D01*
X0616576Y0229581D02*
X0617365Y0230609D01*
X0615548Y0228792D02*
X0616576Y0229581D01*
X0614902Y0211387D02*
Y0228525D01*
X0614351Y0228296D02*
X0615548Y0228792D01*
X0613066Y0228127D02*
X0614351Y0228296D01*
X0591412Y0228127D02*
X0613066D01*
X0588930Y0228792D02*
X0590128Y0228296D01*
X0591412Y0228127D01*
X0613327Y0211750D02*
Y0228162D01*
X0591280Y0211767D02*
Y0228145D01*
X0588130Y0210505D02*
Y0229406D01*
X0589705Y0211440D02*
Y0228471D01*
X0607028Y0211785D02*
Y0228127D01*
X0605453Y0211785D02*
Y0228127D01*
X0608602Y0211785D02*
Y0228127D01*
X0602303Y0211785D02*
Y0228127D01*
X0603878Y0211785D02*
Y0228127D01*
X0613066Y0211785D02*
X0614351Y0211615D01*
X0615548Y0211120D01*
X0610177Y0211785D02*
Y0228127D01*
X0611752Y0211785D02*
Y0228127D01*
X0599154Y0211785D02*
Y0228127D01*
X0597579Y0211785D02*
Y0228127D01*
X0600728Y0211785D02*
Y0228127D01*
X0594429Y0211785D02*
Y0228127D01*
X0596004Y0211785D02*
Y0228127D01*
X0592854Y0211785D02*
Y0228127D01*
X0591412Y0211785D02*
X0613066D01*
X0590128Y0211615D02*
X0591412Y0211785D01*
X0588930Y0211120D02*
X0590128Y0211615D01*
X0586448Y0280049D02*
X0586618Y0281334D01*
X0580950Y0279717D02*
X0586448D01*
X0581298Y0279370D02*
X0581595Y0278983D01*
X0580364Y0280214D02*
X0580750Y0279918D01*
X0581298Y0279370D01*
X0582346Y0277973D02*
X0582562Y0277536D01*
X0582233Y0278143D02*
X0586448D01*
X0582562Y0277536D02*
X0582805Y0277114D01*
X0581595Y0278983D02*
X0581916Y0278618D01*
X0582346Y0277973D01*
X0577778Y0281722D02*
X0578495Y0281425D01*
X0577308Y0281848D02*
X0577778Y0281722D01*
X0578724Y0281292D02*
X0586612D01*
X0576086Y0282155D02*
X0576847Y0282004D01*
X0577308Y0281848D01*
X0579353Y0280966D02*
X0579998Y0280535D01*
X0580364Y0280214D01*
X0578495Y0281425D02*
X0578916Y0281182D01*
X0579353Y0280966D01*
X0583567Y0274220D02*
X0583631Y0273738D01*
X0583478Y0274993D02*
X0586448D01*
X0583631Y0273418D02*
X0586448D01*
X0583536Y0274706D02*
X0583567Y0274220D01*
X0583631Y0273350D02*
Y0273738D01*
Y0272962D02*
Y0273350D01*
X0583567Y0272480D02*
X0583631Y0272962D01*
X0583506Y0271843D02*
X0586448D01*
X0583536Y0271994D02*
X0583567Y0272480D01*
X0583384Y0271233D02*
X0583536Y0271994D01*
X0583228Y0275928D02*
X0583384Y0275467D01*
X0583032Y0276568D02*
X0586448D01*
X0583384Y0275467D02*
X0583536Y0274706D01*
X0582805Y0277114D02*
X0583102Y0276398D01*
X0583228Y0275928D01*
X0583228Y0270772D02*
X0583384Y0271233D01*
X0583088Y0270269D02*
X0586448D01*
X0583102Y0270302D02*
X0583228Y0270772D01*
X0582805Y0269586D02*
X0583102Y0270302D01*
X0573374Y0282155D02*
X0573860Y0282187D01*
X0572613Y0282004D02*
X0573374Y0282155D01*
X0572153Y0281848D02*
X0572613Y0282004D01*
X0571682Y0281722D02*
X0572153Y0281848D01*
X0570966Y0281425D02*
X0571682Y0281722D01*
X0570544Y0281181D02*
X0570966Y0281425D01*
X0570108Y0280966D02*
X0570544Y0281181D01*
X0569463Y0280535D02*
X0570108Y0280966D01*
X0569097Y0280214D02*
X0569463Y0280535D01*
X0568711Y0279918D02*
X0569097Y0280214D01*
X0568162Y0279370D02*
X0568711Y0279918D01*
X0563033Y0279717D02*
X0568510D01*
X0567866Y0278983D02*
X0568162Y0279370D01*
X0567545Y0278618D02*
X0567866Y0278983D01*
X0563033Y0278143D02*
X0567228D01*
X0567114Y0277973D02*
X0567545Y0278618D01*
X0566899Y0277536D02*
X0567114Y0277973D01*
X0566655Y0277114D02*
X0566899Y0277536D01*
X0566359Y0276398D02*
X0566655Y0277114D01*
X0566233Y0275928D02*
X0566359Y0276398D01*
X0566076Y0275467D02*
X0566233Y0275928D01*
X0565925Y0274706D02*
X0566076Y0275467D01*
X0565893Y0274220D02*
X0565925Y0274706D01*
X0565893Y0272480D02*
X0565925Y0271994D01*
X0566233Y0270772D02*
X0566359Y0270302D01*
X0566655Y0269586D01*
X0565925Y0271994D02*
X0566076Y0271233D01*
X0566233Y0270772D01*
X0563033Y0274993D02*
X0565982D01*
X0563033Y0276568D02*
X0566429D01*
X0565830Y0273738D02*
X0565893Y0274220D01*
X0565830Y0273350D02*
Y0273738D01*
X0563033Y0273418D02*
X0565830D01*
X0563033Y0271843D02*
X0565955D01*
X0563033Y0270269D02*
X0566372D01*
X0565830Y0272962D02*
Y0273350D01*
Y0272962D02*
X0565893Y0272480D01*
X0582562Y0269164D02*
X0582805Y0269586D01*
X0582346Y0268727D02*
X0582562Y0269164D01*
X0582324Y0268694D02*
X0586448D01*
X0581916Y0268083D02*
X0582346Y0268727D01*
X0581595Y0267717D02*
X0581916Y0268083D01*
X0586618Y0265665D02*
X0587114Y0264467D01*
X0586448Y0266949D02*
X0586618Y0265665D01*
X0587114Y0264467D02*
X0587902Y0263439D01*
X0586448Y0266949D02*
Y0280049D01*
X0586555Y0247001D02*
Y0266139D01*
X0581298Y0267331D02*
X0581595Y0267717D01*
X0580750Y0266782D02*
X0581298Y0267331D01*
X0581087Y0267119D02*
X0586448D01*
X0580364Y0266486D02*
X0580750Y0266782D01*
X0579998Y0266165D02*
X0580364Y0266486D01*
X0579353Y0265734D02*
X0579998Y0266165D01*
X0578968Y0265544D02*
X0586667D01*
X0578916Y0265519D02*
X0579353Y0265734D01*
X0578495Y0265275D02*
X0578916Y0265519D01*
X0587902Y0249701D02*
X0588930Y0250490D01*
X0587902Y0263439D02*
X0588930Y0262650D01*
X0587114Y0248673D02*
X0587902Y0249701D01*
X0586618Y0247476D02*
X0587114Y0248673D01*
X0586448Y0246191D02*
X0586618Y0247476D01*
X0587114Y0230609D02*
X0587902Y0229581D01*
X0586618Y0231806D02*
X0587114Y0230609D01*
X0587902Y0229581D02*
X0588930Y0228792D01*
X0586448Y0233091D02*
Y0246191D01*
Y0233091D02*
X0586618Y0231806D01*
X0563033Y0245072D02*
X0586448D01*
X0562973Y0246647D02*
X0586509D01*
X0563033Y0243497D02*
X0586448D01*
X0563033Y0241922D02*
X0586448D01*
X0563033Y0240347D02*
X0586448D01*
X0563033Y0235623D02*
X0586448D01*
X0563033Y0234048D02*
X0586448D01*
X0563033Y0238773D02*
X0586448D01*
X0563033Y0237198D02*
X0586448D01*
X0570108Y0265734D02*
X0570544Y0265519D01*
X0569463Y0266165D02*
X0570108Y0265734D01*
X0570544Y0265519D02*
X0570966Y0265275D01*
X0568711Y0266782D02*
X0569097Y0266486D01*
X0569463Y0266165D01*
X0577778Y0264978D02*
X0578495Y0265275D01*
X0577308Y0264852D02*
X0577778Y0264978D01*
X0576847Y0264696D02*
X0577308Y0264852D01*
X0570966Y0265275D02*
X0571682Y0264978D01*
X0572153Y0264852D01*
X0567114Y0268727D02*
X0567545Y0268083D01*
X0563033Y0268694D02*
X0567136D01*
X0567545Y0268083D02*
X0567866Y0267717D01*
X0566655Y0269586D02*
X0566899Y0269164D01*
X0567114Y0268727D01*
X0568162Y0267331D02*
X0568711Y0266782D01*
X0563033Y0267119D02*
X0568374D01*
X0563033Y0266949D02*
Y0280049D01*
X0567866Y0267717D02*
X0568162Y0267331D01*
X0576086Y0264545D02*
X0576847Y0264696D01*
X0575601Y0264513D02*
X0576086Y0264545D01*
X0575118Y0264449D02*
X0575601Y0264513D01*
X0575532Y0260156D02*
Y0264504D01*
X0574342Y0264449D02*
X0575118D01*
X0577106Y0259360D02*
Y0264784D01*
X0573860Y0264513D02*
X0574342Y0264449D01*
X0573374Y0264545D02*
X0573860Y0264513D01*
X0573957Y0260175D02*
Y0264500D01*
X0572153Y0264852D02*
X0572613Y0264696D01*
X0573374Y0264545D01*
X0572382Y0259433D02*
Y0264774D01*
X0563033Y0233091D02*
Y0246191D01*
X0737715Y0202552D02*
X0746709D01*
X0737715Y0204127D02*
X0746709D01*
X0737715Y0200977D02*
X0746709D01*
X0737655Y0207277D02*
X0746709D01*
X0737715Y0205702D02*
X0746709D01*
X0737715Y0197828D02*
X0746709D01*
X0737715Y0199403D02*
X0746709D01*
X0737715Y0196253D02*
X0746709D01*
X0737715Y0193721D02*
Y0206821D01*
Y0194678D02*
X0746709D01*
X0736261Y0210331D02*
X0737050Y0209303D01*
X0736136Y0210426D02*
X0746709D01*
X0737236Y0208852D02*
X0746709D01*
X0736161Y0210407D02*
Y0229505D01*
X0735233Y0211120D02*
X0736261Y0210331D01*
X0737545Y0208105D02*
X0737715Y0206821D01*
X0737633Y0193103D02*
X0746709D01*
X0737050Y0209303D02*
X0737545Y0208105D01*
Y0192436D02*
X0737715Y0193721D01*
X0737170Y0191529D02*
X0746709D01*
X0737050Y0191239D02*
X0737545Y0192436D01*
X0735926Y0189954D02*
X0746709D01*
X0736261Y0190211D02*
X0737050Y0191239D01*
X0735233Y0189422D02*
X0736261Y0190211D01*
X0737050Y0174893D02*
X0737545Y0173696D01*
X0736369Y0175781D02*
X0746709D01*
X0737334Y0174206D02*
X0746709D01*
X0736161Y0175998D02*
Y0190135D01*
X0736261Y0175921D02*
X0737050Y0174893D01*
X0734035Y0188926D02*
X0735233Y0189422D01*
X0732751Y0188757D02*
X0734035Y0188926D01*
X0732900Y0177355D02*
X0746709D01*
X0733012Y0177341D02*
Y0188792D01*
X0710948Y0177355D02*
X0732900D01*
X0734035Y0177206D02*
X0735233Y0176710D01*
X0736261Y0175921D01*
X0734586Y0176978D02*
Y0189155D01*
X0732751Y0177375D02*
X0734035Y0177206D01*
X0708615Y0189422D02*
X0709813Y0188926D01*
X0707587Y0190211D02*
X0708615Y0189422D01*
X0709813Y0188926D02*
X0711097Y0188757D01*
X0707815Y0210505D02*
Y0229407D01*
X0707587Y0210331D02*
X0708615Y0211120D01*
X0720413Y0177375D02*
Y0188757D01*
X0710964Y0177358D02*
Y0188775D01*
X0721988Y0177375D02*
Y0188757D01*
X0707815Y0176096D02*
Y0190036D01*
X0709390Y0177031D02*
Y0189102D01*
X0706799Y0209303D02*
X0707587Y0210331D01*
X0706303Y0208105D02*
X0706799Y0209303D01*
X0706134Y0206821D02*
X0706303Y0208105D01*
X0706240Y0207629D02*
Y0232283D01*
X0706134Y0193721D02*
Y0206821D01*
X0706303Y0192436D02*
X0706799Y0191239D01*
X0707587Y0190211D01*
X0706134Y0193721D02*
X0706303Y0192436D01*
X0706240Y0173220D02*
Y0192912D01*
X0723563Y0177375D02*
Y0188757D01*
X0718838Y0177375D02*
Y0188757D01*
X0725138Y0177375D02*
Y0188757D01*
X0715689Y0177375D02*
Y0188757D01*
X0717264Y0177375D02*
Y0188757D01*
X0729862Y0177375D02*
Y0188757D01*
X0731437Y0177375D02*
Y0188757D01*
X0726712Y0177375D02*
Y0188757D01*
X0728287Y0177375D02*
Y0188757D01*
X0714114Y0177375D02*
Y0188757D01*
X0711097D02*
X0732751D01*
X0711097Y0177375D02*
X0732751D01*
X0712539D02*
Y0188757D01*
X0709813Y0177206D02*
X0711097Y0177375D01*
X0708615Y0176710D02*
X0709813Y0177206D01*
X0707587Y0175921D02*
X0708615Y0176710D01*
X0706799Y0174893D02*
X0707587Y0175921D01*
X0706303Y0173696D02*
X0706799Y0174893D01*
X0746709Y0157129D02*
Y0326429D01*
X0737715Y0171056D02*
X0746709D01*
X0737715Y0169481D02*
X0746709D01*
X0745610Y0150050D02*
Y0326429D01*
X0737715Y0159311D02*
Y0172411D01*
X0742460Y0148214D02*
Y0326429D01*
X0740886Y0146639D02*
Y0326429D01*
X0744035Y0149749D02*
Y0326429D01*
X0737736Y0144645D02*
Y0326429D01*
X0739311Y0145064D02*
Y0326429D01*
X0737545Y0173696D02*
X0737715Y0172411D01*
X0706134D02*
X0706303Y0173696D01*
X0737686Y0172631D02*
X0746709D01*
X0691419Y0171056D02*
X0706134D01*
X0692398Y0169481D02*
X0706134D01*
Y0159311D02*
Y0172411D01*
X0692974Y0167907D02*
X0706134D01*
X0703090Y0144645D02*
Y0326429D01*
X0704665Y0144645D02*
Y0326429D01*
X0737715Y0163182D02*
X0746709D01*
X0737715Y0164757D02*
X0746709D01*
X0737715Y0161607D02*
X0746709D01*
X0737715Y0167907D02*
X0746709D01*
X0737715Y0166332D02*
X0746709D01*
X0737602Y0158458D02*
X0746709D01*
X0737715Y0160033D02*
X0746709D01*
X0737545Y0158027D02*
X0737715Y0159311D01*
X0692916Y0163182D02*
X0706134D01*
X0692301Y0161607D02*
X0706134D01*
X0691271Y0160033D02*
X0706134D01*
X0693233Y0166332D02*
X0706134D01*
X0693211Y0164757D02*
X0706134D01*
X0706303Y0158027D02*
X0706799Y0156830D01*
X0737050D02*
X0737545Y0158027D01*
X0706134Y0159311D02*
X0706303Y0158027D01*
X0706240Y0144645D02*
Y0158503D01*
X0693642Y0144645D02*
Y0326429D01*
X0693028Y0167746D02*
X0693180Y0166985D01*
X0693211Y0166499D01*
X0692746Y0168677D02*
X0692872Y0168207D01*
X0693028Y0167746D01*
X0699941Y0144645D02*
Y0326429D01*
X0698366Y0144645D02*
Y0326429D01*
X0701516Y0144645D02*
Y0326429D01*
X0695216Y0144645D02*
Y0326429D01*
X0696791Y0144645D02*
Y0326429D01*
X0691238Y0171263D02*
X0691559Y0170896D01*
X0690942Y0171649D02*
X0691238Y0171263D01*
X0691559Y0170896D02*
X0691990Y0170252D01*
X0690492Y0172099D02*
Y0266857D01*
X0690394Y0172197D02*
X0690942Y0171649D01*
X0692206Y0169815D02*
X0692449Y0169394D01*
X0692746Y0168677D01*
X0692067Y0170097D02*
Y0268836D01*
X0691990Y0170252D02*
X0692206Y0169815D01*
X0693275Y0165629D02*
Y0166017D01*
X0693211Y0166499D02*
X0693275Y0166017D01*
Y0165241D02*
Y0165629D01*
X0693211Y0164759D02*
X0693275Y0165241D01*
X0693180Y0164273D02*
X0693211Y0164759D01*
X0693028Y0163512D02*
X0693180Y0164273D01*
X0692872Y0163051D02*
X0693028Y0163512D01*
X0692746Y0162581D02*
X0692872Y0163051D01*
X0692449Y0161865D02*
X0692746Y0162581D01*
X0692206Y0161443D02*
X0692449Y0161865D01*
X0691990Y0161006D02*
X0692206Y0161443D01*
X0691559Y0160362D02*
X0691990Y0161006D01*
X0691238Y0159996D02*
X0691559Y0160362D01*
X0690942Y0159609D02*
X0691238Y0159996D01*
X0692067Y0144645D02*
Y0161162D01*
X0690394Y0159061D02*
X0690942Y0159609D01*
X0690492Y0144645D02*
Y0159159D01*
X0690008Y0158765D02*
X0690394Y0159061D01*
X0662836Y0200977D02*
X0706134D01*
X0662836Y0202552D02*
X0706134D01*
X0662836Y0196253D02*
X0706134D01*
X0662836Y0205702D02*
X0706134D01*
X0662836Y0204127D02*
X0706134D01*
X0688917Y0173284D02*
Y0265683D01*
X0684693Y0185229D02*
X0746709D01*
X0687342Y0183654D02*
Y0264951D01*
X0685768Y0184947D02*
Y0253534D01*
X0662358Y0208852D02*
X0706612D01*
X0661258Y0210426D02*
X0707712D01*
X0662776Y0207277D02*
X0706194D01*
X0662836Y0199403D02*
X0706134D01*
X0662836Y0197828D02*
X0706134D01*
X0662291Y0191529D02*
X0706679D01*
X0661047Y0189954D02*
X0707923D01*
X0662836Y0194678D02*
X0706134D01*
X0662755Y0193103D02*
X0706215D01*
X0687959Y0182080D02*
X0746709D01*
X0687342Y0183655D02*
X0746709D01*
X0687845Y0180505D02*
X0746709D01*
X0687342Y0174022D02*
Y0179453D01*
X0687422Y0174001D02*
X0688139Y0173704D01*
X0689642Y0172814D02*
X0690008Y0172493D01*
X0688997Y0173245D02*
X0689642Y0172814D01*
X0689851Y0172631D02*
X0706163D01*
X0688139Y0173704D02*
X0688560Y0173460D01*
X0688997Y0173245D01*
X0686905Y0178930D02*
X0746709D01*
X0658021Y0177355D02*
X0710948D01*
X0661490Y0175781D02*
X0707479D01*
X0685768Y0174427D02*
Y0178161D01*
X0686719Y0174206D02*
X0706514D01*
X0686952Y0174127D02*
X0687422Y0174001D01*
X0685730Y0174434D02*
X0686491Y0174283D01*
X0686952Y0174127D01*
X0684193Y0185249D02*
Y0252822D01*
X0682618Y0184846D02*
Y0252864D01*
X0681043Y0183303D02*
Y0253691D01*
X0662836Y0193721D02*
Y0206821D01*
X0682618Y0174355D02*
Y0178261D01*
X0679468Y0173056D02*
Y0265938D01*
X0681043Y0173883D02*
Y0179804D01*
X0662667Y0192436D02*
X0662836Y0193721D01*
X0662667Y0208105D02*
X0662836Y0206821D01*
X0575959Y0185229D02*
X0683907D01*
X0662171Y0209303D02*
X0662667Y0208105D01*
X0662171Y0191239D02*
X0662667Y0192436D01*
X0577871Y0183655D02*
X0681258D01*
X0577087Y0178930D02*
X0681695D01*
X0578382Y0182080D02*
X0680641D01*
X0578180Y0180505D02*
X0680755D01*
X0684762Y0174530D02*
X0685245Y0174466D01*
X0683986Y0174530D02*
X0684762D01*
X0685245Y0174466D02*
X0685730Y0174434D01*
X0684193Y0174530D02*
Y0177858D01*
X0683504Y0174466D02*
X0683986Y0174530D01*
X0683018Y0174434D02*
X0683504Y0174466D01*
X0682257Y0174283D02*
X0683018Y0174434D01*
X0681797Y0174127D02*
X0682257Y0174283D01*
X0681326Y0174001D02*
X0681797Y0174127D01*
X0680610Y0173704D02*
X0681326Y0174001D01*
X0662456Y0174206D02*
X0682030D01*
X0680188Y0173460D02*
X0680610Y0173704D01*
X0661382Y0175921D02*
X0662171Y0174893D01*
X0662667Y0173696D01*
X0679752Y0173245D02*
X0680188Y0173460D01*
X0679107Y0172814D02*
X0679752Y0173245D01*
X0678741Y0172493D02*
X0679107Y0172814D01*
X0662807Y0172631D02*
X0678898D01*
X0690008Y0172493D02*
X0690394Y0172197D01*
X0678355D02*
X0678741Y0172493D01*
X0677806Y0171649D02*
X0678355Y0172197D01*
X0677894Y0171736D02*
Y0267266D01*
X0677806Y0159609D02*
X0678355Y0159061D01*
X0689642Y0158444D02*
X0690008Y0158765D01*
X0678741Y0158765D02*
X0679107Y0158444D01*
X0689658Y0158458D02*
X0706246D01*
X0677894Y0144645D02*
Y0159522D01*
X0678355Y0159061D02*
X0678741Y0158765D01*
X0677510Y0171263D02*
X0677806Y0171649D01*
X0677189Y0170896D02*
X0677510Y0171263D01*
X0662836Y0171056D02*
X0677329D01*
X0676758Y0170252D02*
X0677189Y0170896D01*
X0676543Y0169815D02*
X0676758Y0170252D01*
X0677189Y0160362D02*
X0677510Y0159996D01*
X0677806Y0159609D01*
X0676758Y0161006D02*
X0677189Y0160362D01*
X0662836Y0160033D02*
X0677478D01*
X0688997Y0158013D02*
X0689642Y0158444D01*
X0688560Y0157798D02*
X0688997Y0158013D01*
X0688139Y0157554D02*
X0688560Y0157798D01*
X0687422Y0157257D02*
X0688139Y0157554D01*
X0686952Y0157132D02*
X0687422Y0157257D01*
X0688917Y0144645D02*
Y0157974D01*
X0687342Y0144645D02*
Y0157236D01*
X0686491Y0156975D02*
X0686952Y0157132D01*
X0682258Y0156975D02*
X0683018Y0156824D01*
X0685730D02*
X0686491Y0156975D01*
X0680188Y0157798D02*
X0680610Y0157554D01*
X0679752Y0158013D02*
X0680188Y0157798D01*
X0680610Y0157554D02*
X0681326Y0157257D01*
X0662723Y0158458D02*
X0679091D01*
X0679107Y0158444D02*
X0679752Y0158013D01*
X0681326Y0157257D02*
X0681797Y0157132D01*
X0682258Y0156975D01*
X0679468Y0144645D02*
Y0158202D01*
X0681043Y0144645D02*
Y0157375D01*
X0676319Y0169427D02*
Y0269594D01*
X0676299Y0169394D02*
X0676543Y0169815D01*
X0676003Y0168677D02*
X0676299Y0169394D01*
X0675877Y0168207D02*
X0676003Y0168677D01*
X0675720Y0167746D02*
X0675877Y0168207D01*
X0675569Y0166985D02*
X0675720Y0167746D01*
X0674744Y0144645D02*
Y0326429D01*
X0675537Y0166499D02*
X0675569Y0166985D01*
X0671594Y0144645D02*
Y0326429D01*
X0673169Y0144645D02*
Y0326429D01*
X0668445Y0144645D02*
Y0326429D01*
X0662836Y0169481D02*
X0676350D01*
X0662836Y0167907D02*
X0675775D01*
X0662667Y0173696D02*
X0662836Y0172411D01*
Y0159311D02*
Y0172411D01*
X0666870Y0144645D02*
Y0326429D01*
X0670020Y0144645D02*
Y0326429D01*
X0663720Y0144645D02*
Y0326429D01*
X0665295Y0144645D02*
Y0326429D01*
X0675720Y0163512D02*
X0675877Y0163051D01*
X0675569Y0164273D02*
X0675720Y0163512D01*
X0675877Y0163051D02*
X0676003Y0162581D01*
X0675473Y0165241D02*
Y0165629D01*
X0675537Y0164759D02*
X0675569Y0164273D01*
X0676299Y0161865D02*
X0676543Y0161443D01*
X0676758Y0161006D01*
X0676003Y0162581D02*
X0676299Y0161865D01*
X0676319Y0144645D02*
Y0161831D01*
X0675473Y0165241D02*
X0675537Y0164759D01*
X0675473Y0166017D02*
X0675537Y0166499D01*
X0662836Y0164757D02*
X0675537D01*
X0662836Y0166332D02*
X0675515D01*
X0675473Y0165629D02*
Y0166017D01*
X0662836Y0163182D02*
X0675832D01*
X0662836Y0161607D02*
X0676448D01*
X0662667Y0158027D02*
X0662836Y0159311D01*
X0662171Y0156830D02*
X0662667Y0158027D01*
X0751909Y0150050D02*
Y0155907D01*
X0747931D02*
X0753451D01*
X0753451Y0150050D02*
Y0155907D01*
X0747185Y0150050D02*
Y0156162D01*
X0750334Y0150050D02*
Y0155907D01*
X0751909Y0142603D02*
Y0146657D01*
X0750334Y0142603D02*
Y0146657D01*
X0753451Y0142603D02*
Y0146657D01*
X0748760Y0150050D02*
Y0155907D01*
Y0142603D02*
Y0146657D01*
X0737072Y0156883D02*
X0746735D01*
X0735618Y0155308D02*
X0753451D01*
X0745000Y0150050D02*
X0753451D01*
X0736261Y0155801D02*
X0737050Y0156830D01*
X0735233Y0155013D02*
X0736261Y0155801D01*
X0736161Y0144645D02*
Y0155725D01*
X0738892Y0144645D02*
X0743797Y0149550D01*
X0745703Y0146657D02*
X0753451D01*
X0744906Y0145859D02*
X0753451D01*
X0743331Y0144285D02*
X0753451D01*
X0741756Y0142710D02*
X0753451D01*
X0747931Y0142603D02*
X0753451D01*
X0747185Y0142348D02*
Y0146657D01*
X0740798Y0141751D02*
X0745703Y0146657D01*
X0737236Y0141135D02*
X0746709D01*
X0737654Y0139560D02*
X0746709D01*
X0737188Y0141251D02*
X0737545Y0140389D01*
X0737188Y0141251D02*
X0739595D01*
X0737715Y0136411D02*
X0746709D01*
X0737715Y0134836D02*
X0746709D01*
X0737545Y0140389D02*
X0737715Y0139104D01*
Y0137985D02*
X0746709D01*
X0734586Y0144645D02*
Y0154745D01*
X0734035Y0154517D02*
X0735233Y0155013D01*
X0732751Y0154348D02*
X0734035Y0154517D01*
X0733012Y0144645D02*
Y0154382D01*
X0731437Y0144645D02*
Y0154348D01*
X0723563Y0144645D02*
Y0154348D01*
X0721988Y0144645D02*
Y0154348D01*
X0729862Y0144645D02*
Y0154348D01*
X0718838Y0144645D02*
Y0154348D01*
X0720413Y0144645D02*
Y0154348D01*
X0709813Y0154517D02*
X0711097Y0154348D01*
X0708615Y0155013D02*
X0709813Y0154517D01*
X0711097Y0154348D02*
X0732751D01*
X0706799Y0156830D02*
X0707587Y0155801D01*
X0708615Y0155013D01*
X0710964Y0144645D02*
Y0154365D01*
X0717264Y0144645D02*
Y0154348D01*
X0707815Y0144645D02*
Y0155627D01*
X0709390Y0144645D02*
Y0154692D01*
X0726712Y0144645D02*
Y0154348D01*
X0725138Y0144645D02*
Y0154348D01*
X0728287Y0144645D02*
Y0154348D01*
X0714114Y0144645D02*
Y0154348D01*
X0715689Y0144645D02*
Y0154348D01*
X0712539Y0144645D02*
Y0154348D01*
X0706303Y0140389D02*
X0706660Y0141251D01*
X0706240Y0139913D02*
Y0141251D01*
X0706134Y0139104D02*
X0706303Y0140389D01*
X0692449Y0136711D02*
X0692746Y0135994D01*
X0692206Y0137132D02*
X0692449Y0136711D01*
X0692573Y0136411D02*
X0706134D01*
X0692067Y0137414D02*
Y0141251D01*
X0691990Y0137569D02*
X0692206Y0137132D01*
X0693028Y0135063D02*
X0693180Y0134302D01*
X0693074Y0134836D02*
X0706134D01*
X0692746Y0135994D02*
X0692872Y0135524D01*
X0693028Y0135063D01*
X0746709Y0113312D02*
Y0141381D01*
X0737715Y0133261D02*
X0746709D01*
X0737715Y0131686D02*
X0746709D01*
X0745610Y0113312D02*
Y0146564D01*
X0737715Y0126004D02*
Y0139104D01*
X0744035Y0113312D02*
Y0144989D01*
X0742460Y0113311D02*
Y0143414D01*
X0740886Y0113311D02*
Y0141839D01*
X0737736Y0113311D02*
Y0141251D01*
X0739311Y0113311D02*
Y0141251D01*
X0737715Y0128537D02*
X0746709D01*
X0737715Y0130111D02*
X0746709D01*
X0737715Y0126962D02*
X0746709D01*
X0737545Y0124720D02*
X0737715Y0126004D01*
X0737633Y0125387D02*
X0746709D01*
X0737050Y0123522D02*
X0737545Y0124720D01*
X0737170Y0123812D02*
X0746709D01*
X0736261Y0122494D02*
X0737050Y0123522D01*
X0735233Y0121706D02*
X0736261Y0122494D01*
X0736161Y0113311D02*
Y0122418D01*
X0735926Y0122237D02*
X0746709D01*
X0734035Y0121210D02*
X0735233Y0121706D01*
X0734586Y0113310D02*
Y0121438D01*
X0732751Y0121041D02*
X0734035Y0121210D01*
X0733012Y0113310D02*
Y0121075D01*
X0731437Y0113310D02*
Y0121041D01*
X0729862Y0113310D02*
Y0121041D01*
X0726712Y0113309D02*
Y0121041D01*
X0728287Y0113309D02*
Y0121041D01*
X0725138Y0113309D02*
Y0121041D01*
X0723563Y0113309D02*
Y0121041D01*
X0711097D02*
X0732751D01*
X0720413Y0113308D02*
Y0121041D01*
X0721988Y0113309D02*
Y0121041D01*
X0717264Y0113308D02*
Y0121041D01*
X0718838Y0113308D02*
Y0121041D01*
X0714114Y0113307D02*
Y0121041D01*
X0715689Y0113308D02*
Y0121041D01*
X0706134Y0126004D02*
Y0139104D01*
X0704665Y0113306D02*
Y0141251D01*
X0693275Y0133261D02*
X0706134D01*
X0701516Y0113306D02*
Y0141251D01*
X0703090Y0113306D02*
Y0141251D01*
X0698366Y0113305D02*
Y0141251D01*
X0696791Y0113305D02*
Y0141251D01*
X0699941Y0113306D02*
Y0141251D01*
X0693642Y0113305D02*
Y0141251D01*
X0695216Y0113305D02*
Y0141251D01*
X0693275Y0132559D02*
Y0132946D01*
Y0133334D01*
X0693211Y0132076D02*
X0693275Y0132559D01*
X0693180Y0134302D02*
X0693211Y0133817D01*
X0693275Y0133334D01*
X0693180Y0131590D02*
X0693211Y0132076D01*
X0693186Y0131686D02*
X0706134D01*
X0693028Y0130830D02*
X0693180Y0131590D01*
X0692872Y0130369D02*
X0693028Y0130830D01*
X0708615Y0121706D02*
X0709813Y0121210D01*
X0707587Y0122494D02*
X0708615Y0121706D01*
X0709813Y0121210D02*
X0711097Y0121041D01*
X0706303Y0124720D02*
X0706799Y0123522D01*
X0707587Y0122494D01*
X0710964Y0113307D02*
Y0121058D01*
X0712539Y0113307D02*
Y0121041D01*
X0707815Y0113307D02*
Y0122320D01*
X0709390Y0113307D02*
Y0121385D01*
X0692803Y0130111D02*
X0706134D01*
X0692746Y0129898D02*
X0692872Y0130369D01*
X0692095Y0128537D02*
X0706134D01*
X0692449Y0129182D02*
X0692746Y0129898D01*
X0692206Y0128760D02*
X0692449Y0129182D01*
X0706134Y0126004D02*
X0706303Y0124720D01*
X0706240Y0113306D02*
Y0125196D01*
X0691990Y0128324D02*
X0692206Y0128760D01*
X0692067Y0113304D02*
Y0128479D01*
X0686028Y0156883D02*
X0706776D01*
X0685245Y0156792D02*
X0685730Y0156824D01*
X0684762Y0156728D02*
X0685245Y0156792D01*
X0684193Y0144645D02*
Y0156728D01*
X0683986D02*
X0684762D01*
X0690492Y0139416D02*
Y0141251D01*
X0688917Y0140602D02*
Y0141251D01*
X0687583D02*
X0706660D01*
X0685768Y0144645D02*
Y0156831D01*
X0687583Y0141251D02*
X0688139Y0141021D01*
X0683504Y0156792D02*
X0683986Y0156728D01*
X0683018Y0156824D02*
X0683504Y0156792D01*
X0660739Y0155308D02*
X0708230D01*
X0682618Y0144645D02*
Y0156903D01*
X0662193Y0156883D02*
X0682720D01*
X0613197Y0144645D02*
X0738892D01*
X0662310Y0141251D02*
X0681165D01*
X0679468Y0140373D02*
Y0141251D01*
X0680610Y0141021D02*
X0681165Y0141251D01*
X0690394Y0139514D02*
X0690942Y0138966D01*
X0690334Y0139560D02*
X0706194D01*
X0690942Y0138966D02*
X0691238Y0138580D01*
X0689642Y0140132D02*
X0690008Y0139811D01*
X0690394Y0139514D01*
X0691712Y0137985D02*
X0706134D01*
X0691559Y0138214D02*
X0691990Y0137569D01*
X0691559Y0127679D02*
X0691990Y0128324D01*
X0691238Y0138580D02*
X0691559Y0138214D01*
X0691238Y0127313D02*
X0691559Y0127679D01*
X0688139Y0141021D02*
X0688560Y0140778D01*
X0687864Y0141135D02*
X0706612D01*
X0688560Y0140778D02*
X0688997Y0140562D01*
X0662358Y0141135D02*
X0680885D01*
X0680188Y0140778D02*
X0680610Y0141021D01*
X0679752Y0140562D02*
X0680188Y0140778D01*
X0688997Y0140562D02*
X0689642Y0140132D01*
X0679107D02*
X0679752Y0140562D01*
X0678741Y0139811D02*
X0679107Y0140132D01*
X0678355Y0139514D02*
X0678741Y0139811D01*
X0677894Y0139053D02*
Y0141251D01*
X0677806Y0138966D02*
X0678355Y0139514D01*
X0677510Y0138580D02*
X0677806Y0138966D01*
X0677189Y0138214D02*
X0677510Y0138580D01*
X0676758Y0137569D02*
X0677189Y0138214D01*
X0676543Y0137132D02*
X0676758Y0137569D01*
X0676299Y0136711D02*
X0676543Y0137132D01*
X0676319Y0136744D02*
Y0141251D01*
X0676003Y0135994D02*
X0676299Y0136711D01*
X0662836Y0137985D02*
X0677036D01*
X0662776Y0139560D02*
X0678414D01*
X0662836Y0136411D02*
X0676175D01*
X0662310Y0141251D02*
X0662667Y0140389D01*
X0662836Y0139104D01*
X0675877Y0135524D02*
X0676003Y0135994D01*
X0675720Y0135063D02*
X0675877Y0135524D01*
X0675569Y0134302D02*
X0675720Y0135063D01*
X0662836Y0134836D02*
X0675675D01*
X0675877Y0130369D02*
X0676003Y0129898D01*
X0675720Y0130830D02*
X0675877Y0130369D01*
X0676003Y0129898D02*
X0676299Y0129182D01*
X0675537Y0132076D02*
X0675569Y0131590D01*
X0675720Y0130830D01*
X0676758Y0128324D02*
X0677189Y0127679D01*
X0677510Y0127313D01*
X0676299Y0129182D02*
X0676543Y0128760D01*
X0676758Y0128324D01*
X0675537Y0133817D02*
X0675569Y0134302D01*
X0675473Y0133334D02*
X0675537Y0133817D01*
X0662836Y0133261D02*
X0675473D01*
Y0132946D02*
Y0133334D01*
Y0132559D02*
Y0132946D01*
X0662836Y0130111D02*
X0675946D01*
X0662836Y0128537D02*
X0676653D01*
X0675473Y0132559D02*
X0675537Y0132076D01*
X0662836Y0131686D02*
X0675562D01*
X0690969Y0126962D02*
X0706134D01*
X0690942Y0126927D02*
X0691238Y0127313D01*
X0690394Y0126378D02*
X0690942Y0126927D01*
X0690008Y0126082D02*
X0690394Y0126378D01*
X0689642Y0125761D02*
X0690008Y0126082D01*
X0690492Y0113304D02*
Y0126477D01*
X0688997Y0125330D02*
X0689642Y0125761D01*
X0689082Y0125387D02*
X0706215D01*
X0688560Y0125115D02*
X0688997Y0125330D01*
X0688917Y0113304D02*
Y0125291D01*
X0688139Y0124872D02*
X0688560Y0125115D01*
X0687422Y0124575D02*
X0688139Y0124872D01*
X0686952Y0124449D02*
X0687422Y0124575D01*
X0686491Y0124292D02*
X0686952Y0124449D01*
X0685730Y0124141D02*
X0686491Y0124292D01*
X0687342Y0119133D02*
Y0124553D01*
X0685768Y0120800D02*
Y0124148D01*
X0683018Y0124141D02*
X0683504Y0124109D01*
X0685245D02*
X0685730Y0124141D01*
X0687363Y0119088D02*
X0746709D01*
X0686000Y0120663D02*
X0746709D01*
X0687697Y0117513D02*
X0746709D01*
X0684762Y0124046D02*
X0685245Y0124109D01*
X0684193Y0121245D02*
Y0124046D01*
X0687342Y0113304D02*
Y0115974D01*
X0687325Y0115938D02*
X0746709D01*
X0685868Y0114363D02*
X0746709D01*
X0685768Y0113304D02*
Y0114307D01*
X0684193Y0113303D02*
Y0113862D01*
X0683986Y0124046D02*
X0684762D01*
X0662291Y0123812D02*
X0706679D01*
X0661047Y0122237D02*
X0707922D01*
X0683504Y0124109D02*
X0683986Y0124046D01*
X0678741Y0126082D02*
X0679107Y0125761D01*
X0678355Y0126378D02*
X0678741Y0126082D01*
X0679107Y0125761D02*
X0679752Y0125330D01*
X0677510Y0127313D02*
X0677806Y0126927D01*
X0678355Y0126378D01*
X0677894Y0113303D02*
Y0126839D01*
X0676319Y0113302D02*
Y0129148D01*
X0679468Y0113303D02*
Y0125520D01*
X0673169Y0113302D02*
Y0141251D01*
X0674744Y0113302D02*
Y0141251D01*
X0671594Y0113302D02*
Y0141251D01*
X0670020Y0113302D02*
Y0141251D01*
X0662836Y0126962D02*
X0677779D01*
X0662836Y0126004D02*
Y0139104D01*
X0662667Y0124720D02*
X0662836Y0126004D01*
X0666870Y0113301D02*
Y0141251D01*
X0668445Y0113301D02*
Y0141251D01*
X0663720Y0113301D02*
Y0141251D01*
X0665295Y0113301D02*
Y0141251D01*
X0681797Y0124449D02*
X0682258Y0124292D01*
X0681326Y0124575D02*
X0681797Y0124449D01*
X0682258Y0124292D02*
X0683018Y0124141D01*
X0680188Y0125115D02*
X0680610Y0124872D01*
X0681326Y0124575D01*
X0682618Y0120982D02*
Y0124221D01*
Y0113303D02*
Y0114125D01*
X0681043Y0119773D02*
Y0124692D01*
Y0113303D02*
Y0115334D01*
X0679752Y0125330D02*
X0680188Y0125115D01*
X0662755Y0125387D02*
X0679667D01*
X0576903Y0120663D02*
X0682000D01*
X0662171Y0123522D02*
X0662667Y0124720D01*
X0661382Y0122494D02*
X0662171Y0123522D01*
X0577662Y0115938D02*
X0680675D01*
X0575719Y0114363D02*
X0682132D01*
X0577985Y0119088D02*
X0680637D01*
X0578181Y0117513D02*
X0680303D01*
X0662146Y0209336D02*
Y0230576D01*
X0661382Y0210331D02*
X0662171Y0209303D01*
X0661382Y0190211D02*
X0662171Y0191239D01*
X0632709Y0210331D02*
X0633737Y0211120D01*
X0660354D02*
X0661382Y0210331D01*
X0660354Y0189422D02*
X0661382Y0190211D01*
X0659157Y0188926D02*
X0660354Y0189422D01*
X0657872Y0188757D02*
X0659157Y0188926D01*
X0632709Y0190211D02*
X0633737Y0189422D01*
X0634934Y0188926D01*
X0632224Y0209700D02*
Y0230212D01*
X0616451Y0210426D02*
X0632833D01*
X0631920Y0209303D02*
X0632709Y0210331D01*
X0631424Y0208105D02*
X0631920Y0209303D01*
X0617551Y0208852D02*
X0631733D01*
X0631920Y0191239D02*
X0632709Y0190211D01*
X0616241Y0189954D02*
X0633044D01*
X0631424Y0192436D02*
X0631920Y0191239D01*
X0617485Y0191529D02*
X0631800D01*
X0647972Y0177375D02*
Y0188757D01*
X0646398Y0177375D02*
Y0188757D01*
X0649547Y0177375D02*
Y0188757D01*
X0643248Y0177375D02*
Y0188757D01*
X0644823Y0177375D02*
Y0188757D01*
X0655846Y0177375D02*
Y0188757D01*
X0654272Y0177375D02*
Y0188757D01*
X0657421Y0177375D02*
Y0188757D01*
X0651122Y0177375D02*
Y0188757D01*
X0652697Y0177375D02*
Y0188757D01*
X0641673Y0177375D02*
Y0188757D01*
X0640098Y0177375D02*
Y0188757D01*
X0636219D02*
X0657872D01*
X0634934Y0188926D02*
X0636219Y0188757D01*
X0638524Y0177375D02*
Y0188757D01*
X0636219Y0177375D02*
X0657872D01*
X0636070Y0177355D02*
X0658021D01*
X0635374Y0177264D02*
Y0188868D01*
X0636949Y0177375D02*
Y0188757D01*
X0631255Y0206821D02*
X0631424Y0208105D01*
X0617970Y0207277D02*
X0631315D01*
X0618029Y0204127D02*
X0631255D01*
X0617860Y0208105D02*
X0618029Y0206821D01*
Y0205702D02*
X0631255D01*
X0618029Y0200977D02*
X0631255D01*
X0618029Y0202552D02*
X0631255D01*
X0618029Y0199403D02*
X0631255D01*
X0618029Y0193721D02*
Y0206821D01*
X0631255Y0193721D02*
Y0206821D01*
X0616476Y0210407D02*
Y0229505D01*
X0615548Y0211120D02*
X0616576Y0210331D01*
X0617365Y0209303D01*
X0587902Y0210331D02*
X0588930Y0211120D01*
X0587114Y0209303D02*
X0587902Y0210331D01*
X0586618Y0208105D02*
X0587114Y0209303D01*
X0617365D02*
X0617860Y0208105D01*
X0586555Y0207631D02*
Y0232281D01*
X0586448Y0193721D02*
Y0206821D01*
X0631255Y0193721D02*
X0631424Y0192436D01*
X0618029Y0194678D02*
X0631255D01*
X0617948Y0193103D02*
X0631336D01*
X0618029Y0197828D02*
X0631255D01*
X0618029Y0196253D02*
X0631255D01*
X0617860Y0192436D02*
X0618029Y0193721D01*
X0617365Y0191239D02*
X0617860Y0192436D01*
X0616576Y0190211D02*
X0617365Y0191239D01*
X0615548Y0189422D02*
X0616576Y0190211D01*
X0587902D02*
X0588930Y0189422D01*
X0587114Y0191239D02*
X0587902Y0190211D01*
X0614351Y0188926D02*
X0615548Y0189422D01*
X0586448Y0193721D02*
X0586618Y0192436D01*
X0587114Y0191239D01*
X0613066Y0188757D02*
X0614351Y0188926D01*
X0591412Y0188757D02*
X0613066D01*
X0588930Y0189422D02*
X0590128Y0188926D01*
X0591412Y0188757D01*
X0658996Y0177227D02*
Y0188905D01*
X0657872Y0177375D02*
X0659157Y0177206D01*
X0660354Y0176710D01*
X0633799Y0176736D02*
Y0189396D01*
X0634934Y0177206D02*
X0636219Y0177375D01*
X0662146Y0174926D02*
Y0191206D01*
X0660571Y0176544D02*
Y0189588D01*
X0633737Y0176710D02*
X0634934Y0177206D01*
X0632224Y0175290D02*
Y0190842D01*
X0632709Y0175921D02*
X0633737Y0176710D01*
X0622776Y0144645D02*
Y0326429D01*
X0621201Y0144645D02*
Y0326429D01*
X0624350Y0144645D02*
Y0326429D01*
X0618051Y0144645D02*
Y0326429D01*
X0619626Y0144645D02*
Y0326429D01*
X0629075Y0144645D02*
Y0326429D01*
X0630650Y0144645D02*
Y0326429D01*
X0625925Y0144645D02*
Y0326429D01*
X0627500Y0144645D02*
Y0326429D01*
X0660354Y0176710D02*
X0661382Y0175921D01*
X0631920Y0174893D02*
X0632709Y0175921D01*
X0631424Y0173696D02*
X0631920Y0174893D01*
X0631255Y0172411D02*
X0631424Y0173696D01*
X0617919Y0171056D02*
X0631255D01*
Y0159311D02*
X0631424Y0158027D01*
X0631255Y0159311D02*
Y0172411D01*
X0631424Y0158027D02*
X0631920Y0156830D01*
X0617919Y0169481D02*
X0631255D01*
X0617919Y0163182D02*
X0631255D01*
X0617465Y0174206D02*
X0631635D01*
X0616416Y0175781D02*
X0632601D01*
X0617867Y0172631D02*
X0631284D01*
X0617919Y0167907D02*
X0631255D01*
X0617919Y0166332D02*
X0631255D01*
X0617919Y0160033D02*
X0631255D01*
X0617844Y0158458D02*
X0631367D01*
X0617919Y0164757D02*
X0631255D01*
X0617919Y0161607D02*
X0631255D01*
X0607028Y0177196D02*
Y0188757D01*
X0605453Y0177196D02*
Y0188757D01*
X0608602Y0177196D02*
Y0188757D01*
X0602303Y0177196D02*
Y0188757D01*
X0603878Y0177196D02*
Y0188757D01*
X0616476Y0175728D02*
Y0190135D01*
X0614902Y0176753D02*
Y0189155D01*
X0613327Y0177147D02*
Y0188792D01*
X0610177Y0177196D02*
Y0188757D01*
X0611752Y0177196D02*
Y0188757D01*
X0599154Y0177196D02*
Y0188757D01*
X0597579Y0177196D02*
Y0188757D01*
X0600728Y0177196D02*
Y0188757D01*
X0592854Y0177196D02*
Y0188757D01*
X0594429Y0177196D02*
Y0188757D01*
X0589705Y0176898D02*
Y0189101D01*
X0591280Y0177193D02*
Y0188775D01*
X0586555Y0173633D02*
Y0192911D01*
X0588130Y0176002D02*
Y0190036D01*
X0616465Y0175743D02*
X0617254Y0174715D01*
X0615437Y0176531D02*
X0616465Y0175743D01*
X0617254Y0174715D02*
X0617750Y0173517D01*
X0612955Y0177196D02*
X0614240Y0177027D01*
X0615437Y0176531D01*
X0617750Y0173517D02*
X0617919Y0172233D01*
Y0159026D02*
Y0172233D01*
X0617750Y0157741D02*
X0617919Y0159026D01*
X0617254Y0156544D02*
X0617750Y0157741D01*
X0596004Y0177196D02*
Y0188757D01*
X0591302Y0177196D02*
X0612955D01*
X0590017Y0177027D02*
X0591302Y0177196D01*
X0588820Y0176531D02*
X0590017Y0177027D01*
X0587792Y0175743D02*
X0588820Y0176531D01*
X0587003Y0174715D02*
X0587792Y0175743D01*
X0586507Y0173517D02*
X0587003Y0174715D01*
X0586507Y0157741D02*
X0587003Y0156544D01*
X0586555Y0144645D02*
Y0157625D01*
X0586448Y0206821D02*
X0586618Y0208105D01*
X0577075Y0174206D02*
X0586792D01*
X0577106Y0184560D02*
Y0253747D01*
X0581831Y0170993D02*
Y0267986D01*
X0580256Y0172588D02*
Y0266391D01*
X0578681Y0173596D02*
Y0265383D01*
X0577106Y0174195D02*
Y0178947D01*
X0576847Y0174283D02*
X0577308Y0174127D01*
X0563033Y0205702D02*
X0586448D01*
X0562973Y0207277D02*
X0586509D01*
X0563033Y0204127D02*
X0586448D01*
X0563033Y0202552D02*
X0586448D01*
X0563033Y0200977D02*
X0586448D01*
X0563033Y0196253D02*
X0586448D01*
X0563033Y0194678D02*
X0586448D01*
X0563033Y0199403D02*
X0586448D01*
X0563033Y0197828D02*
X0586448D01*
X0586338Y0172233D02*
X0586507Y0173517D01*
X0581775Y0171056D02*
X0586338D01*
X0581916Y0170896D02*
X0582346Y0170252D01*
X0581298Y0171649D02*
X0581595Y0171263D01*
X0581916Y0170896D01*
X0582805Y0169394D02*
X0583102Y0168677D01*
X0582754Y0169481D02*
X0586338D01*
X0583102Y0168677D02*
X0583228Y0168207D01*
X0582346Y0170252D02*
X0582562Y0169815D01*
X0582805Y0169394D01*
X0578916Y0173460D02*
X0579353Y0173245D01*
X0578495Y0173704D02*
X0578916Y0173460D01*
X0579353Y0173245D02*
X0579998Y0172814D01*
X0577308Y0174127D02*
X0577778Y0174001D01*
X0578495Y0173704D01*
X0580207Y0172631D02*
X0586390D01*
X0580750Y0172197D02*
X0581298Y0171649D01*
X0579998Y0172814D02*
X0580364Y0172493D01*
X0580750Y0172197D01*
X0575532Y0185356D02*
Y0252952D01*
X0574342Y0174530D02*
X0575118D01*
X0573957Y0185375D02*
Y0252932D01*
X0575601Y0174466D02*
X0576086Y0174434D01*
X0575118Y0174530D02*
X0575601Y0174466D01*
X0576086Y0174434D02*
X0576847Y0174283D01*
X0575532Y0174475D02*
Y0178151D01*
X0573957Y0174479D02*
Y0178132D01*
X0573860Y0174466D02*
X0574342Y0174530D01*
X0573374Y0174434D02*
X0573860Y0174466D01*
X0572382Y0184633D02*
Y0253674D01*
X0563033Y0193721D02*
Y0206821D01*
X0570807Y0173612D02*
Y0265367D01*
X0572382Y0174205D02*
Y0178874D01*
X0567658Y0171025D02*
Y0267954D01*
X0569232Y0172612D02*
Y0266367D01*
X0572613Y0174283D02*
X0573374Y0174434D01*
X0572153Y0174127D02*
X0572613Y0174283D01*
X0571682Y0174001D02*
X0572153Y0174127D01*
X0570966Y0173704D02*
X0571682Y0174001D01*
X0570544Y0173460D02*
X0570966Y0173704D01*
X0570108Y0173245D02*
X0570544Y0173460D01*
X0569463Y0172814D02*
X0570108Y0173245D01*
X0569097Y0172493D02*
X0569463Y0172814D01*
X0568711Y0172197D02*
X0569097Y0172493D01*
X0568162Y0171649D02*
X0568711Y0172197D01*
X0567866Y0171263D02*
X0568162Y0171649D01*
X0567545Y0170896D02*
X0567866Y0171263D01*
X0562961Y0171056D02*
X0567685D01*
X0567114Y0170252D02*
X0567545Y0170896D01*
X0566899Y0169815D02*
X0567114Y0170252D01*
X0566655Y0169394D02*
X0566899Y0169815D01*
X0566359Y0168677D02*
X0566655Y0169394D01*
X0566233Y0168207D02*
X0566359Y0168677D01*
X0583590Y0166332D02*
X0586338D01*
X0583567Y0166499D02*
X0583631Y0166017D01*
Y0165241D02*
Y0165629D01*
X0583536Y0166985D02*
X0583567Y0166499D01*
X0583631Y0165629D02*
Y0166017D01*
X0586338Y0159026D02*
Y0172233D01*
X0584980Y0144645D02*
Y0326429D01*
X0583567Y0164757D02*
X0586338D01*
X0583567Y0164759D02*
X0583631Y0165241D01*
X0583536Y0164273D02*
X0583567Y0164759D01*
X0583384Y0167746D02*
X0583536Y0166985D01*
X0583330Y0167907D02*
X0586338D01*
X0583384Y0163512D02*
X0583536Y0164273D01*
X0583406Y0167639D02*
Y0271340D01*
X0583228Y0168207D02*
X0583384Y0167746D01*
X0583406Y0144645D02*
Y0163619D01*
X0583272Y0163182D02*
X0586338D01*
X0583228Y0163051D02*
X0583384Y0163512D01*
X0583102Y0162581D02*
X0583228Y0163051D01*
X0582805Y0161865D02*
X0583102Y0162581D01*
X0582562Y0161443D02*
X0582805Y0161865D01*
X0582656Y0161607D02*
X0586338D01*
X0582346Y0161006D02*
X0582562Y0161443D01*
X0581916Y0160362D02*
X0582346Y0161006D01*
X0581627Y0160033D02*
X0586338D01*
X0581595Y0159996D02*
X0581916Y0160362D01*
X0586338Y0159026D02*
X0586507Y0157741D01*
X0581831Y0144645D02*
Y0160265D01*
X0581298Y0159609D02*
X0581595Y0159996D01*
X0580750Y0159061D02*
X0581298Y0159609D01*
X0580364Y0158765D02*
X0580750Y0159061D01*
X0580014Y0158458D02*
X0586413D01*
X0579998Y0158444D02*
X0580364Y0158765D01*
X0579353Y0158013D02*
X0579998Y0158444D01*
X0580256Y0144645D02*
Y0158670D01*
X0578916Y0157798D02*
X0579353Y0158013D01*
X0578495Y0157554D02*
X0578916Y0157798D01*
X0578681Y0144645D02*
Y0157662D01*
X0566083Y0167765D02*
Y0271214D01*
X0566076Y0167746D02*
X0566233Y0168207D01*
X0565925Y0166985D02*
X0566076Y0167746D01*
X0565893Y0166499D02*
X0565925Y0166985D01*
Y0164273D02*
X0566076Y0163512D01*
X0566359Y0162581D02*
X0566655Y0161865D01*
X0566233Y0163051D02*
X0566359Y0162581D01*
X0566655Y0161865D02*
X0566899Y0161443D01*
X0566076Y0163512D02*
X0566233Y0163051D01*
X0566083Y0144645D02*
Y0163493D01*
X0565830Y0166017D02*
X0565893Y0166499D01*
X0562961Y0166332D02*
X0565871D01*
X0565830Y0165241D02*
X0565893Y0164759D01*
X0565830Y0165629D02*
Y0166017D01*
Y0165241D02*
Y0165629D01*
X0565893Y0164759D02*
X0565925Y0164273D01*
X0562961Y0163182D02*
X0566188D01*
X0564508Y0144645D02*
Y0326429D01*
X0562961Y0164757D02*
X0565893D01*
X0570966Y0157554D02*
X0571682Y0157257D01*
X0570544Y0157798D02*
X0570966Y0157554D01*
X0577778Y0157257D02*
X0578495Y0157554D01*
X0569463Y0158444D02*
X0570108Y0158013D01*
X0570544Y0157798D01*
X0577308Y0157132D02*
X0577778Y0157257D01*
X0576847Y0156975D02*
X0577308Y0157132D01*
X0570807Y0144645D02*
Y0157646D01*
X0571682Y0157257D02*
X0572153Y0157132D01*
X0567866Y0159996D02*
X0568162Y0159609D01*
X0567545Y0160362D02*
X0567866Y0159996D01*
X0568162Y0159609D02*
X0568711Y0159061D01*
X0566899Y0161443D02*
X0567114Y0161006D01*
X0567545Y0160362D01*
X0569097Y0158765D02*
X0569463Y0158444D01*
X0569232Y0144645D02*
Y0158646D01*
X0567658Y0144645D02*
Y0160233D01*
X0568711Y0159061D02*
X0569097Y0158765D01*
X0661382Y0155801D02*
X0662171Y0156830D01*
X0660354Y0155013D02*
X0661382Y0155801D01*
X0660571Y0144645D02*
Y0155179D01*
X0659157Y0154517D02*
X0660354Y0155013D01*
X0657872Y0154348D02*
X0659157Y0154517D01*
X0662146Y0144645D02*
Y0156797D01*
X0658996Y0144645D02*
Y0154496D01*
X0652697Y0144645D02*
Y0154348D01*
X0649547Y0144645D02*
Y0154348D01*
X0651122Y0144645D02*
Y0154348D01*
X0632709Y0155801D02*
X0633737Y0155013D01*
X0616195Y0155308D02*
X0633352D01*
X0633737Y0155013D02*
X0634934Y0154517D01*
X0617395Y0156883D02*
X0631898D01*
X0631920Y0156830D02*
X0632709Y0155801D01*
X0634934Y0154517D02*
X0636219Y0154348D01*
X0635374Y0144645D02*
Y0154459D01*
X0632224Y0144645D02*
Y0156433D01*
X0633799Y0144645D02*
Y0154987D01*
X0643248Y0144645D02*
Y0154348D01*
X0641673Y0144645D02*
Y0154348D01*
X0644823Y0144645D02*
Y0154348D01*
X0638524Y0144645D02*
Y0154348D01*
X0640098Y0144645D02*
Y0154348D01*
X0655846Y0144645D02*
Y0154348D01*
X0654272Y0144645D02*
Y0154348D01*
X0657421Y0144645D02*
Y0154348D01*
X0646398Y0144645D02*
Y0154348D01*
X0647972Y0144645D02*
Y0154348D01*
X0636949Y0144645D02*
Y0154348D01*
X0636219D02*
X0657872D01*
X0617645Y0141251D02*
X0631781D01*
X0631424Y0140389D02*
X0631781Y0141251D01*
X0617693Y0141135D02*
X0631733D01*
X0631255Y0139104D02*
X0631424Y0140389D01*
X0617919Y0139560D02*
X0631315D01*
X0617919Y0130111D02*
X0631255D01*
X0617919Y0128537D02*
X0631255D01*
X0616465Y0155516D02*
X0617254Y0156544D01*
X0615437Y0154727D02*
X0616465Y0155516D01*
X0614240Y0154231D02*
X0615437Y0154727D01*
X0612955Y0154062D02*
X0614240Y0154231D01*
X0608602Y0144677D02*
Y0154062D01*
X0616476Y0144645D02*
Y0155530D01*
X0614902Y0144645D02*
Y0154505D01*
X0613327Y0144645D02*
Y0154111D01*
X0610177Y0144677D02*
Y0154062D01*
X0611752Y0144677D02*
Y0154062D01*
X0590017Y0154231D02*
X0591302Y0154062D01*
X0588820Y0154727D02*
X0590017Y0154231D01*
X0591302Y0154062D02*
X0612955D01*
X0587003Y0156544D02*
X0587792Y0155516D01*
X0588820Y0154727D01*
X0591280Y0144674D02*
Y0154065D01*
X0597579Y0144677D02*
Y0154062D01*
X0588130Y0144645D02*
Y0155256D01*
X0589705Y0144645D02*
Y0154360D01*
X0617919Y0137985D02*
X0631255D01*
X0617750Y0140998D02*
X0617919Y0139713D01*
Y0136411D02*
X0631255D01*
X0605453Y0144677D02*
Y0154062D01*
X0607028Y0144677D02*
Y0154062D01*
X0617919Y0131686D02*
X0631255D01*
X0617919Y0126962D02*
X0631255D01*
X0617919Y0134836D02*
X0631255D01*
X0617919Y0133261D02*
X0631255D01*
X0602303Y0144677D02*
Y0154062D01*
X0600728Y0144677D02*
Y0154062D01*
X0603878Y0144677D02*
Y0154062D01*
X0596004Y0144677D02*
Y0154062D01*
X0599154Y0144677D02*
Y0154062D01*
X0591302Y0144677D02*
X0612955D01*
X0591060Y0144645D02*
X0613197D01*
X0592854Y0144677D02*
Y0154062D01*
X0594429Y0144677D02*
Y0154062D01*
X0660354Y0121706D02*
X0661382Y0122494D01*
X0632709D02*
X0633737Y0121706D01*
X0659157Y0121210D02*
X0660354Y0121706D01*
X0631424Y0124720D02*
X0631920Y0123522D01*
X0632709Y0122494D01*
X0662146Y0113301D02*
Y0123489D01*
X0660571Y0113300D02*
Y0121872D01*
X0633737Y0121706D02*
X0634934Y0121210D01*
X0632224Y0113296D02*
Y0123126D01*
X0633799Y0113297D02*
Y0121680D01*
X0631255Y0126004D02*
X0631424Y0124720D01*
X0617092Y0123812D02*
X0631800D01*
X0615477Y0122237D02*
X0633044D01*
X0631255Y0126004D02*
Y0139104D01*
X0617772Y0125387D02*
X0631336D01*
X0629075Y0113296D02*
Y0141251D01*
X0630650Y0113296D02*
Y0141251D01*
X0625925Y0113296D02*
Y0141251D01*
X0627500Y0113296D02*
Y0141251D01*
X0658996Y0113300D02*
Y0121189D01*
X0657872Y0121041D02*
X0659157Y0121210D01*
X0657421Y0113300D02*
Y0121041D01*
X0654272Y0113299D02*
Y0121041D01*
X0655846Y0113300D02*
Y0121041D01*
X0651122Y0113299D02*
Y0121041D01*
X0649547Y0113299D02*
Y0121041D01*
X0652697Y0113299D02*
Y0121041D01*
X0646398Y0113298D02*
Y0121041D01*
X0647972Y0113299D02*
Y0121041D01*
X0644823Y0113298D02*
Y0121041D01*
X0643248Y0113298D02*
Y0121041D01*
X0636219D02*
X0657872D01*
X0634934Y0121210D02*
X0636219Y0121041D01*
X0641673Y0113298D02*
Y0121041D01*
X0638524Y0113297D02*
Y0121041D01*
X0640098Y0113297D02*
Y0121041D01*
X0635374Y0113297D02*
Y0121152D01*
X0636949Y0113297D02*
Y0121041D01*
X0624350Y0113295D02*
Y0141251D01*
X0617919Y0126506D02*
Y0139713D01*
X0617750Y0125221D02*
X0617919Y0126506D01*
X0617254Y0124024D02*
X0617750Y0125221D01*
X0616465Y0122996D02*
X0617254Y0124024D01*
X0621201Y0113295D02*
Y0141251D01*
X0619626Y0113295D02*
Y0141251D01*
X0622776Y0113295D02*
Y0141251D01*
X0618051Y0113294D02*
Y0141251D01*
X0616476Y0113294D02*
Y0123010D01*
X0615437Y0122207D02*
X0616465Y0122996D01*
X0614240Y0121711D02*
X0615437Y0122207D01*
X0588820D02*
X0590017Y0121711D01*
X0587003Y0124024D02*
X0587792Y0122996D01*
X0588820Y0122207D01*
X0614902Y0113294D02*
Y0121985D01*
X0589705Y0113291D02*
Y0121841D01*
X0586555Y0113290D02*
Y0125105D01*
X0588130Y0113291D02*
Y0122737D01*
X0613327Y0113294D02*
Y0121591D01*
X0612955Y0121542D02*
X0614240Y0121711D01*
X0611752Y0113294D02*
Y0121542D01*
X0608602Y0113293D02*
Y0121542D01*
X0610177Y0113294D02*
Y0121542D01*
X0605453Y0113293D02*
Y0121542D01*
X0607028Y0113293D02*
Y0121542D01*
X0602303Y0113292D02*
Y0121542D01*
X0603878Y0113293D02*
Y0121542D01*
X0600728Y0113292D02*
Y0121542D01*
X0599154Y0113292D02*
Y0121542D01*
X0591302D02*
X0612955D01*
X0590017Y0121711D02*
X0591302Y0121542D01*
X0597579Y0113292D02*
Y0121542D01*
X0594429Y0113291D02*
Y0121542D01*
X0596004Y0113292D02*
Y0121542D01*
X0591280Y0113291D02*
Y0121545D01*
X0592854Y0113291D02*
Y0121542D01*
X0586338Y0139713D02*
X0586507Y0140998D01*
X0579998Y0140132D02*
X0580364Y0139811D01*
X0580690Y0139560D02*
X0586338D01*
X0580256Y0139905D02*
Y0141251D01*
X0579353Y0140562D02*
X0579998Y0140132D01*
X0583406Y0134956D02*
Y0141251D01*
X0581831Y0138310D02*
Y0141251D01*
X0581298Y0138966D02*
X0581595Y0138580D01*
X0580364Y0139811D02*
X0580750Y0139514D01*
X0581298Y0138966D01*
X0577939Y0141251D02*
X0586612D01*
X0576385Y0156883D02*
X0586863D01*
X0578220Y0141135D02*
X0586564D01*
X0577106Y0144645D02*
Y0157063D01*
X0576086Y0156824D02*
X0576847Y0156975D01*
X0578495Y0141021D02*
X0578916Y0140778D01*
X0579353Y0140562D01*
X0577939Y0141251D02*
X0578495Y0141021D01*
X0578681Y0140913D02*
Y0141251D01*
X0583567Y0133817D02*
X0583631Y0133334D01*
X0583429Y0134836D02*
X0586338D01*
X0583631Y0133261D02*
X0586338D01*
X0583384Y0135063D02*
X0583536Y0134302D01*
X0583567Y0133817D01*
X0583631Y0132559D02*
Y0132946D01*
Y0133334D01*
X0583542Y0131686D02*
X0586338D01*
X0583567Y0132076D02*
X0583631Y0132559D01*
X0583536Y0131590D02*
X0583567Y0132076D01*
X0582346Y0137569D02*
X0582562Y0137132D01*
X0582068Y0137985D02*
X0586338D01*
X0582562Y0137132D02*
X0582805Y0136711D01*
X0581595Y0138580D02*
X0581916Y0138214D01*
X0582346Y0137569D01*
X0582929Y0136411D02*
X0586338D01*
X0583228Y0135524D02*
X0583384Y0135063D01*
X0582805Y0136711D02*
X0583102Y0135994D01*
X0583228Y0135524D01*
X0575601Y0156792D02*
X0576086Y0156824D01*
X0573374D02*
X0573860Y0156792D01*
X0574342Y0156728D02*
X0575118D01*
X0572153Y0157132D02*
X0572613Y0156975D01*
X0573374Y0156824D01*
X0575118Y0156728D02*
X0575601Y0156792D01*
X0573860D02*
X0574342Y0156728D01*
X0575532Y0144645D02*
Y0156783D01*
X0572382Y0144645D02*
Y0157054D01*
X0573957Y0144645D02*
Y0156779D01*
X0570966Y0141021D02*
X0571521Y0141251D01*
X0570807Y0140930D02*
Y0141251D01*
X0570544Y0140778D02*
X0570966Y0141021D01*
X0570108Y0140562D02*
X0570544Y0140778D01*
X0569463Y0140132D02*
X0570108Y0140562D01*
X0569232Y0139929D02*
Y0141251D01*
X0569097Y0139811D02*
X0569463Y0140132D01*
X0566083Y0135083D02*
Y0141251D01*
X0567658Y0138342D02*
Y0141251D01*
X0568711Y0139514D02*
X0569097Y0139811D01*
X0568162Y0138966D02*
X0568711Y0139514D01*
X0567866Y0138580D02*
X0568162Y0138966D01*
X0567545Y0138214D02*
X0567866Y0138580D01*
X0567114Y0137569D02*
X0567545Y0138214D01*
X0566899Y0137132D02*
X0567114Y0137569D01*
X0566655Y0136711D02*
X0566899Y0137132D01*
X0566359Y0135994D02*
X0566655Y0136711D01*
X0566233Y0135524D02*
X0566359Y0135994D01*
X0566076Y0135063D02*
X0566233Y0135524D01*
X0565925Y0134302D02*
X0566076Y0135063D01*
X0565893Y0133817D02*
X0565925Y0134302D01*
X0565830Y0133334D02*
X0565893Y0133817D01*
X0565830Y0132946D02*
Y0133334D01*
X0565893Y0132076D02*
X0565925Y0131590D01*
X0566076Y0130830D01*
X0565830Y0132559D02*
Y0132946D01*
Y0132559D02*
X0565893Y0132076D01*
X0583384Y0130830D02*
X0583536Y0131590D01*
X0583228Y0130369D02*
X0583384Y0130830D01*
X0583159Y0130111D02*
X0586338D01*
X0583102Y0129898D02*
X0583228Y0130369D01*
X0582805Y0129182D02*
X0583102Y0129898D01*
X0586338Y0126506D02*
Y0139713D01*
X0584980Y0113290D02*
Y0141251D01*
X0586338Y0126506D02*
X0586507Y0125221D01*
X0583406Y0113290D02*
Y0130937D01*
X0582562Y0128760D02*
X0582805Y0129182D01*
X0582451Y0128537D02*
X0586338D01*
X0582346Y0128324D02*
X0582562Y0128760D01*
X0581325Y0126962D02*
X0586338D01*
X0581916Y0127679D02*
X0582346Y0128324D01*
X0581595Y0127313D02*
X0581916Y0127679D01*
X0581831Y0113290D02*
Y0127582D01*
X0581298Y0126927D02*
X0581595Y0127313D01*
X0580750Y0126378D02*
X0581298Y0126927D01*
X0580364Y0126082D02*
X0580750Y0126378D01*
X0579998Y0125761D02*
X0580364Y0126082D01*
X0579353Y0125330D02*
X0579998Y0125761D01*
X0579438Y0125387D02*
X0586485D01*
X0578916Y0125115D02*
X0579353Y0125330D01*
X0578495Y0124872D02*
X0578916Y0125115D01*
X0580256Y0113289D02*
Y0125988D01*
X0586507Y0125221D02*
X0587003Y0124024D01*
X0578681Y0113289D02*
Y0124979D01*
X0577778Y0124575D02*
X0578495Y0124872D01*
X0577308Y0124449D02*
X0577778Y0124575D01*
X0576847Y0124292D02*
X0577308Y0124449D01*
X0576086Y0124141D02*
X0576847Y0124292D01*
X0575601Y0124109D02*
X0576086Y0124141D01*
X0575118Y0124046D02*
X0575601Y0124109D01*
X0577106Y0120475D02*
Y0124380D01*
Y0113289D02*
Y0115232D01*
X0568711Y0126378D02*
X0569097Y0126082D01*
X0568162Y0126927D02*
X0568711Y0126378D01*
X0569097Y0126082D02*
X0569463Y0125761D01*
X0567545Y0127679D02*
X0567866Y0127313D01*
X0568162Y0126927D01*
X0570108Y0125330D02*
X0570544Y0125115D01*
X0569463Y0125761D02*
X0570108Y0125330D01*
X0570544Y0125115D02*
X0570966Y0124872D01*
X0567658Y0113288D02*
Y0127550D01*
X0569232Y0113288D02*
Y0125963D01*
X0566655Y0129182D02*
X0566899Y0128760D01*
X0566359Y0129898D02*
X0566655Y0129182D01*
X0562961Y0128537D02*
X0567009D01*
X0566076Y0130830D02*
X0566233Y0130369D01*
X0566359Y0129898D01*
X0566899Y0128760D02*
X0567114Y0128324D01*
X0567545Y0127679D01*
X0564508Y0113287D02*
Y0141251D01*
X0566083Y0113287D02*
Y0130810D01*
X0575532Y0121404D02*
Y0124100D01*
X0573860Y0124109D02*
X0574342Y0124046D01*
X0575118D01*
X0573374Y0124141D02*
X0573860Y0124109D01*
X0573957Y0121510D02*
Y0124096D01*
X0575532Y0113289D02*
Y0114304D01*
X0573957Y0113289D02*
Y0114197D01*
X0572382Y0120884D02*
Y0124371D01*
X0572153Y0124449D02*
X0572613Y0124292D01*
X0573374Y0124141D01*
X0570966Y0124872D02*
X0571682Y0124575D01*
X0572153Y0124449D01*
X0572382Y0113288D02*
Y0114824D01*
X0570807Y0118026D02*
Y0124963D01*
Y0113288D02*
Y0117681D01*
X0559784Y0317973D02*
Y0326429D01*
X0558209Y0318302D02*
Y0326429D01*
X0558069Y0318320D02*
X0559354Y0318151D01*
X0555059Y0318320D02*
Y0326429D01*
X0556634Y0318320D02*
Y0326429D01*
X0562933Y0314112D02*
Y0326429D01*
X0560551Y0317655D02*
X0561579Y0316866D01*
X0560736Y0317513D02*
X0588745D01*
X0561358Y0317035D02*
Y0326429D01*
X0559354Y0318151D02*
X0560551Y0317655D01*
X0547185Y0318320D02*
Y0326429D01*
X0545610Y0318320D02*
Y0326429D01*
X0536415Y0318320D02*
X0558069D01*
X0542461D02*
Y0326429D01*
X0544036Y0318320D02*
Y0326429D01*
X0551910Y0318320D02*
Y0326429D01*
X0553484Y0318320D02*
Y0326429D01*
X0548760Y0318320D02*
Y0326429D01*
X0550335Y0318320D02*
Y0326429D01*
X0562864Y0314641D02*
X0563033Y0313356D01*
X0562291Y0315938D02*
X0587190D01*
X0562900Y0314363D02*
X0570019D01*
X0561579Y0316866D02*
X0562368Y0315838D01*
X0562864Y0314641D01*
Y0298972D02*
X0563033Y0300256D01*
X0562716Y0298615D02*
X0571247D01*
X0561804Y0297040D02*
X0587677D01*
X0562368Y0297774D02*
X0562864Y0298972D01*
X0561579Y0296746D02*
X0562368Y0297774D01*
X0560551Y0295958D02*
X0561579Y0296746D01*
X0559354Y0295462D02*
X0560551Y0295958D01*
X0559363Y0295465D02*
X0590119D01*
X0558069Y0295293D02*
X0559354Y0295462D01*
X0536415Y0295293D02*
X0558069D01*
X0551910Y0285013D02*
Y0295293D01*
X0553484Y0285013D02*
Y0295293D01*
X0544036Y0285013D02*
Y0295293D01*
X0550335Y0285013D02*
Y0295293D01*
X0539311Y0318320D02*
Y0326429D01*
X0537736Y0318320D02*
Y0326429D01*
X0540886Y0318320D02*
Y0326429D01*
X0536162Y0318286D02*
Y0326429D01*
X0535131Y0318151D02*
X0536415Y0318320D01*
X0534587Y0317926D02*
Y0326429D01*
X0533934Y0317655D02*
X0535131Y0318151D01*
X0532906Y0316866D02*
X0533934Y0317655D01*
X0533012Y0316948D02*
Y0326429D01*
X0532117Y0315838D02*
X0532906Y0316866D01*
X0531621Y0314641D02*
X0532117Y0315838D01*
X0517406Y0315938D02*
X0532193D01*
X0518015Y0314363D02*
X0531584D01*
X0517264Y0316123D02*
Y0326429D01*
X0517483Y0315838D02*
X0517978Y0314641D01*
X0531452Y0313356D02*
X0531621Y0314641D01*
X0531452Y0300256D02*
Y0313356D01*
X0517978Y0314641D02*
X0518148Y0313356D01*
Y0300256D02*
Y0313356D01*
X0531452Y0300256D02*
X0531621Y0298972D01*
X0518148Y0304914D02*
X0531452D01*
X0531621Y0298972D02*
X0532117Y0297774D01*
X0518148Y0308064D02*
X0531452D01*
X0518148Y0306489D02*
X0531452D01*
X0533934Y0295958D02*
X0535131Y0295462D01*
X0536415Y0295293D01*
X0532117Y0297774D02*
X0532906Y0296746D01*
X0533934Y0295958D01*
X0518148Y0303339D02*
X0531452D01*
X0518148Y0309639D02*
X0531452D01*
X0518148Y0301765D02*
X0531452D01*
X0518148Y0312788D02*
X0531452D01*
X0518148Y0311213D02*
X0531452D01*
X0518139Y0300190D02*
X0531461D01*
X0517831Y0298615D02*
X0531769D01*
X0517978Y0298972D02*
X0518148Y0300256D01*
X0517483Y0297774D02*
X0517978Y0298972D01*
X0559784Y0284666D02*
Y0295640D01*
X0558069Y0285013D02*
X0559354Y0284844D01*
X0560324Y0284442D02*
X0589157D01*
X0558209Y0284995D02*
Y0295311D01*
X0556634Y0285013D02*
Y0295293D01*
X0562933Y0280805D02*
Y0299500D01*
X0560551Y0284348D02*
X0561579Y0283559D01*
X0562368Y0282531D01*
X0561358Y0283728D02*
Y0296577D01*
X0559354Y0284844D02*
X0560551Y0284348D01*
X0542461Y0285013D02*
Y0295293D01*
X0540886Y0285013D02*
Y0295293D01*
X0536415Y0285013D02*
X0558069D01*
X0537736D02*
Y0295293D01*
X0539311Y0285013D02*
Y0295293D01*
X0548760Y0285013D02*
Y0295293D01*
X0555059Y0285013D02*
Y0295293D01*
X0545610Y0285013D02*
Y0295293D01*
X0547185Y0285013D02*
Y0295293D01*
X0562869Y0281292D02*
X0570736D01*
X0562110Y0282867D02*
X0587371D01*
X0562864Y0265665D02*
X0563033Y0266949D01*
X0562368Y0282531D02*
X0562864Y0281334D01*
X0563033Y0280049D01*
X0562933Y0246947D02*
Y0266193D01*
X0562814Y0265544D02*
X0570492D01*
X0561986Y0263969D02*
X0587496D01*
X0562368Y0264467D02*
X0562864Y0265665D01*
X0561579Y0263439D02*
X0562368Y0264467D01*
X0560551Y0262650D02*
X0561579Y0263439D01*
X0559354Y0262155D02*
X0560551Y0262650D01*
X0559933Y0262395D02*
X0589548D01*
X0558069Y0261985D02*
X0559354Y0262155D01*
X0547185Y0251155D02*
Y0261985D01*
X0561358Y0249870D02*
Y0263270D01*
X0559784Y0250807D02*
Y0262333D01*
X0558209Y0251136D02*
Y0262004D01*
X0544036Y0251155D02*
Y0261985D01*
X0536162Y0284979D02*
Y0295326D01*
X0535131Y0284844D02*
X0536415Y0285013D01*
X0533934Y0284348D02*
X0535131Y0284844D01*
X0533012Y0283641D02*
Y0296665D01*
X0534587Y0284618D02*
Y0295687D01*
X0532906Y0283559D02*
X0533934Y0284348D01*
X0532117Y0282531D02*
X0532906Y0283559D01*
X0531621Y0281334D02*
X0532117Y0282531D01*
X0531452Y0280049D02*
X0531621Y0281334D01*
X0531452Y0266949D02*
Y0280049D01*
X0518148Y0279717D02*
X0531452D01*
X0517984Y0281292D02*
X0531615D01*
X0518148Y0278143D02*
X0531452D01*
X0517483Y0282531D02*
X0517978Y0281334D01*
X0518148Y0280049D01*
Y0276568D02*
X0531452D01*
X0518148Y0274993D02*
X0531452D01*
X0518148Y0266949D02*
Y0280049D01*
Y0273418D02*
X0531452D01*
X0533934Y0262650D02*
X0535131Y0262155D01*
X0532906Y0263439D02*
X0533934Y0262650D01*
X0535131Y0262155D02*
X0536415Y0261985D01*
X0531621Y0265665D02*
X0532117Y0264467D01*
X0532906Y0263439D01*
X0536162Y0251121D02*
Y0262019D01*
X0537736Y0251155D02*
Y0261985D01*
X0533012Y0249782D02*
Y0263358D01*
X0534587Y0250760D02*
Y0262380D01*
X0518148Y0267119D02*
X0531452D01*
X0518148Y0268694D02*
X0531452D01*
Y0266949D02*
X0531621Y0265665D01*
X0518148Y0271843D02*
X0531452D01*
X0518148Y0270269D02*
X0531452D01*
X0517978Y0265665D02*
X0518148Y0266949D01*
X0517929Y0265544D02*
X0531671D01*
X0517483Y0264467D02*
X0517978Y0265665D01*
X0517264Y0248958D02*
Y0264182D01*
X0506240Y0318320D02*
Y0326429D01*
X0504666Y0318320D02*
Y0326429D01*
X0507815Y0318320D02*
Y0326429D01*
X0501516Y0318320D02*
Y0326429D01*
X0503091Y0318320D02*
Y0326429D01*
X0514114Y0318197D02*
Y0326429D01*
X0512540Y0318320D02*
Y0326429D01*
X0515689Y0317637D02*
Y0326429D01*
X0509390Y0318320D02*
Y0326429D01*
X0510965Y0318320D02*
Y0326429D01*
X0476421Y0325387D02*
X0573138D01*
X0422482Y0326429D02*
X0746709D01*
X0478221Y0320662D02*
X0571763D01*
X0478058Y0323812D02*
X0571748D01*
X0478493Y0322237D02*
X0571403D01*
X0476992Y0319087D02*
X0573191D01*
X0491530Y0318320D02*
X0513184D01*
X0498366D02*
Y0326429D01*
X0499941Y0318320D02*
Y0326429D01*
X0515851Y0317513D02*
X0533748D01*
X0515666Y0317655D02*
X0516694Y0316866D01*
X0517483Y0315838D01*
X0513184Y0318320D02*
X0514469Y0318151D01*
X0515666Y0317655D01*
X0516919Y0297040D02*
X0532680D01*
X0516694Y0296746D02*
X0517483Y0297774D01*
X0514478Y0295465D02*
X0535122D01*
X0515666Y0295958D02*
X0516694Y0296746D01*
X0514469Y0295462D02*
X0515666Y0295958D01*
X0444758Y0292316D02*
X0746709D01*
X0422482Y0293891D02*
X0746709D01*
X0445589Y0290741D02*
X0746709D01*
X0513184Y0295293D02*
X0514469Y0295462D01*
X0491530Y0295293D02*
X0513184D01*
X0445632Y0289166D02*
X0746709D01*
X0444924Y0287591D02*
X0746709D01*
X0498366Y0285013D02*
Y0295293D01*
X0440563Y0286017D02*
X0746709D01*
X0495217Y0318320D02*
Y0326429D01*
X0493642Y0318320D02*
Y0326429D01*
X0496792Y0318320D02*
Y0326429D01*
X0490492Y0318183D02*
Y0326429D01*
X0492067Y0318320D02*
Y0326429D01*
X0490246Y0318151D02*
X0491530Y0318320D01*
X0489048Y0317655D02*
X0490246Y0318151D01*
X0488021Y0316866D02*
X0489048Y0317655D01*
X0487343Y0315983D02*
Y0326429D01*
X0488918Y0317554D02*
Y0326429D01*
X0487232Y0315838D02*
X0488021Y0316866D01*
X0460854Y0317513D02*
X0488863D01*
X0462409Y0315938D02*
X0487308D01*
X0486736Y0314641D02*
X0487232Y0315838D01*
X0479570Y0314363D02*
X0486699D01*
X0486567Y0313356D02*
X0486736Y0314641D01*
X0482581Y0311213D02*
X0486567D01*
Y0300256D02*
Y0313356D01*
X0483288Y0309639D02*
X0486567D01*
X0488021Y0296746D02*
X0489048Y0295958D01*
X0487232Y0297774D02*
X0488021Y0296746D01*
X0489048Y0295958D02*
X0490246Y0295462D01*
X0486567Y0300256D02*
X0486736Y0298972D01*
X0487232Y0297774D01*
X0495217Y0285013D02*
Y0295293D01*
X0496792Y0285013D02*
Y0295293D01*
X0490246Y0295462D02*
X0491530Y0295293D01*
X0493642Y0285013D02*
Y0295293D01*
X0483558Y0304914D02*
X0486567D01*
X0483057Y0303339D02*
X0486567D01*
X0482195Y0301765D02*
X0486567D01*
X0483671Y0308064D02*
X0486567D01*
X0483759Y0306489D02*
X0486567D01*
X0461923Y0297040D02*
X0487795D01*
X0459481Y0295465D02*
X0490237D01*
X0480815Y0300190D02*
X0486575D01*
X0478342Y0298615D02*
X0486883D01*
X0514469Y0284844D02*
X0515666Y0284348D01*
X0513184Y0285013D02*
X0514469Y0284844D01*
X0515439Y0284442D02*
X0534161D01*
X0514114Y0284890D02*
Y0295415D01*
X0512540Y0285013D02*
Y0295293D01*
X0517264Y0282816D02*
Y0297490D01*
X0516694Y0283559D02*
X0517483Y0282531D01*
X0517225Y0282867D02*
X0532375D01*
X0515689Y0284330D02*
Y0295976D01*
X0515666Y0284348D02*
X0516694Y0283559D01*
X0504666Y0285013D02*
Y0295293D01*
X0503091Y0285013D02*
Y0295293D01*
X0491530Y0285013D02*
X0513184D01*
X0499941D02*
Y0295293D01*
X0501516Y0285013D02*
Y0295293D01*
X0509390Y0285013D02*
Y0295293D01*
X0510965Y0285013D02*
Y0295293D01*
X0506240Y0285013D02*
Y0295293D01*
X0507815Y0285013D02*
Y0295293D01*
X0517101Y0263969D02*
X0532499D01*
X0516694Y0263439D02*
X0517483Y0264467D01*
X0515048Y0262395D02*
X0534551D01*
X0515666Y0262650D02*
X0516694Y0263439D01*
X0514469Y0262155D02*
X0515666Y0262650D01*
X0515689Y0250472D02*
Y0262668D01*
X0513184Y0261985D02*
X0514469Y0262155D01*
X0514114Y0251032D02*
Y0262108D01*
X0510965Y0251155D02*
Y0261985D01*
X0512540Y0251155D02*
Y0261985D01*
X0501516Y0251155D02*
Y0261985D01*
X0499941Y0251155D02*
Y0261985D01*
X0503091Y0251155D02*
Y0261985D01*
X0496792Y0251155D02*
Y0261985D01*
X0498366Y0251155D02*
Y0261985D01*
X0507815Y0251155D02*
Y0261985D01*
X0509390Y0251155D02*
Y0261985D01*
X0504666Y0251155D02*
Y0261985D01*
X0506240Y0251155D02*
Y0261985D01*
X0492067Y0285013D02*
Y0295293D01*
X0490492Y0284876D02*
Y0295429D01*
X0490246Y0284844D02*
X0491530Y0285013D01*
X0488918Y0284247D02*
Y0296058D01*
X0489048Y0284348D02*
X0490246Y0284844D01*
X0488021Y0283559D02*
X0489048Y0284348D01*
X0487343Y0282676D02*
Y0297630D01*
X0487232Y0282531D02*
X0488021Y0283559D01*
X0486736Y0281334D02*
X0487232Y0282531D01*
X0486567Y0266949D02*
Y0280049D01*
X0462228Y0282867D02*
X0487490D01*
X0460442Y0284442D02*
X0489275D01*
X0486567Y0280049D02*
X0486736Y0281334D01*
X0479146Y0281292D02*
X0486730D01*
X0481240Y0279717D02*
X0486567D01*
X0483639Y0274993D02*
X0486567D01*
X0483759Y0273418D02*
X0486567D01*
X0482469Y0278143D02*
X0486567D01*
X0483227Y0276568D02*
X0486567D01*
X0490246Y0262155D02*
X0491530Y0261985D01*
X0489048Y0262650D02*
X0490246Y0262155D01*
X0492067Y0251155D02*
Y0261985D01*
X0487232Y0264467D02*
X0488021Y0263439D01*
X0489048Y0262650D01*
X0490492Y0251018D02*
Y0262122D01*
X0493642Y0251155D02*
Y0261985D01*
X0487343Y0248818D02*
Y0264322D01*
X0488918Y0250389D02*
Y0262751D01*
X0482345Y0268694D02*
X0486567D01*
X0481054Y0267119D02*
X0486567D01*
Y0266949D02*
X0486736Y0265665D01*
X0483602Y0271843D02*
X0486567D01*
X0483150Y0270269D02*
X0486567D01*
X0462104Y0263969D02*
X0487614D01*
X0460051Y0262395D02*
X0489666D01*
X0486736Y0265665D02*
X0487232Y0264467D01*
X0478811Y0265544D02*
X0486786D01*
X0561454Y0249796D02*
X0588027D01*
X0560551Y0250490D02*
X0561579Y0249701D01*
X0562368Y0248673D01*
X0558069Y0251155D02*
X0559354Y0250986D01*
X0560551Y0250490D01*
X0562864Y0247476D02*
X0563033Y0246191D01*
X0562555Y0248221D02*
X0586927D01*
X0562951Y0232473D02*
X0586530D01*
X0562368Y0248673D02*
X0562864Y0247476D01*
Y0231806D02*
X0563033Y0233091D01*
X0556634Y0251155D02*
Y0261985D01*
X0555059Y0251155D02*
Y0261985D01*
X0536415D02*
X0558069D01*
X0551910Y0251155D02*
Y0261985D01*
X0553484Y0251155D02*
Y0261985D01*
X0550335Y0251155D02*
Y0261985D01*
X0536415Y0251155D02*
X0558069D01*
X0545610D02*
Y0261985D01*
X0548760Y0251155D02*
Y0261985D01*
X0562488Y0230899D02*
X0586994D01*
X0562368Y0230609D02*
X0562864Y0231806D01*
X0561244Y0229324D02*
X0588238D01*
X0561579Y0229581D02*
X0562368Y0230609D01*
X0560551Y0228792D02*
X0561579Y0229581D01*
X0559354Y0228296D02*
X0560551Y0228792D01*
X0558069Y0228127D02*
X0559354Y0228296D01*
X0558069Y0211785D02*
X0559354Y0211615D01*
X0558209Y0211766D02*
Y0228146D01*
X0556634Y0211785D02*
Y0228127D01*
X0548760Y0211785D02*
Y0228127D01*
X0536415D02*
X0558069D01*
X0536415Y0211785D02*
X0558069D01*
X0545610D02*
Y0228127D01*
X0547185Y0211785D02*
Y0228127D01*
X0553484Y0211785D02*
Y0228127D01*
X0555059Y0211785D02*
Y0228127D01*
X0550335Y0211785D02*
Y0228127D01*
X0551910Y0211785D02*
Y0228127D01*
X0540886Y0251155D02*
Y0261985D01*
X0539311Y0251155D02*
Y0261985D01*
X0542461Y0251155D02*
Y0261985D01*
X0535131Y0250986D02*
X0536415Y0251155D01*
X0533934Y0250490D02*
X0535131Y0250986D01*
X0532906Y0249701D02*
X0533934Y0250490D01*
X0532117Y0248673D02*
X0532906Y0249701D01*
X0531621Y0247476D02*
X0532117Y0248673D01*
X0531452Y0246191D02*
X0531621Y0247476D01*
X0531452Y0233091D02*
Y0246191D01*
X0518088Y0246647D02*
X0531512D01*
X0517670Y0248221D02*
X0531930D01*
X0518148Y0243497D02*
X0531452D01*
X0517978Y0247476D02*
X0518148Y0246191D01*
Y0245072D02*
X0531452D01*
X0518148Y0241922D02*
X0531452D01*
X0518148Y0240347D02*
X0531452D01*
X0518148Y0233091D02*
Y0246191D01*
Y0238773D02*
X0531452D01*
X0542461Y0211785D02*
Y0228127D01*
X0540886Y0211785D02*
Y0228127D01*
X0544036Y0211785D02*
Y0228127D01*
X0533934Y0228792D02*
X0535131Y0228296D01*
X0536415Y0228127D01*
X0537736Y0211785D02*
Y0228127D01*
X0539311Y0211785D02*
Y0228127D01*
X0536162Y0211751D02*
Y0228161D01*
X0535131Y0211615D02*
X0536415Y0211785D01*
X0531452Y0233091D02*
X0531621Y0231806D01*
X0518148Y0234048D02*
X0531452D01*
X0518066Y0232473D02*
X0531533D01*
X0518148Y0237198D02*
X0531452D01*
X0518148Y0235623D02*
X0531452D01*
X0532117Y0230609D02*
X0532906Y0229581D01*
X0533934Y0228792D01*
X0517978Y0231806D02*
X0518148Y0233091D01*
X0531621Y0231806D02*
X0532117Y0230609D01*
X0562933Y0207577D02*
Y0232335D01*
X0562555Y0208852D02*
X0586927D01*
X0562864Y0208105D02*
X0563033Y0206821D01*
X0561579Y0210331D02*
X0562368Y0209303D01*
X0562864Y0208105D01*
X0562952Y0193103D02*
X0586530D01*
X0562864Y0192436D02*
X0563033Y0193721D01*
X0562488Y0191529D02*
X0586994D01*
X0562368Y0191239D02*
X0562864Y0192436D01*
X0561579Y0190211D02*
X0562368Y0191239D01*
X0561358Y0210500D02*
Y0229412D01*
X0560551Y0211120D02*
X0561579Y0210331D01*
X0561454Y0210426D02*
X0588027D01*
X0559784Y0211437D02*
Y0228474D01*
X0559354Y0211615D02*
X0560551Y0211120D01*
Y0189422D02*
X0561579Y0190211D01*
X0561244Y0189954D02*
X0588237D01*
X0561358Y0175857D02*
Y0190042D01*
X0559354Y0188926D02*
X0560551Y0189422D01*
X0558209Y0177169D02*
Y0188776D01*
X0558069Y0188757D02*
X0559354Y0188926D01*
X0556634Y0177196D02*
Y0188757D01*
X0553484Y0177196D02*
Y0188757D01*
X0555059Y0177196D02*
Y0188757D01*
X0560479Y0176531D02*
X0561507Y0175743D01*
X0559282Y0177027D02*
X0560479Y0176531D01*
X0561457Y0175781D02*
X0587842D01*
X0559784Y0176819D02*
Y0189104D01*
X0557997Y0177196D02*
X0559282Y0177027D01*
X0551910Y0177196D02*
Y0188757D01*
X0550335Y0177196D02*
Y0188757D01*
X0536415D02*
X0558069D01*
X0547185Y0177196D02*
Y0188757D01*
X0548760Y0177196D02*
Y0188757D01*
X0545610Y0177196D02*
Y0188757D01*
X0536343Y0177196D02*
X0557997D01*
X0542461D02*
Y0188757D01*
X0544036Y0177196D02*
Y0188757D01*
X0534587Y0211390D02*
Y0228522D01*
X0533934Y0211120D02*
X0535131Y0211615D01*
X0532906Y0210331D02*
X0533934Y0211120D01*
X0533012Y0210412D02*
Y0229499D01*
X0532117Y0209303D02*
X0532906Y0210331D01*
X0531621Y0208105D02*
X0532117Y0209303D01*
X0531452Y0206821D02*
X0531621Y0208105D01*
X0518148Y0200977D02*
X0531452D01*
Y0193721D02*
Y0206821D01*
X0518148Y0199403D02*
X0531452D01*
X0518088Y0207277D02*
X0531512D01*
X0517669Y0208852D02*
X0531930D01*
X0518148Y0204127D02*
X0531452D01*
X0517978Y0208105D02*
X0518148Y0206821D01*
Y0205702D02*
X0531452D01*
X0518148Y0202552D02*
X0531452D01*
X0518148Y0197828D02*
X0531452D01*
X0518148Y0193721D02*
Y0206821D01*
Y0196253D02*
X0531452D01*
X0539311Y0177196D02*
Y0188757D01*
X0537736Y0177196D02*
Y0188757D01*
X0540886Y0177196D02*
Y0188757D01*
X0533934Y0189422D02*
X0535131Y0188926D01*
X0536415Y0188757D01*
X0536162Y0177173D02*
Y0188791D01*
X0535059Y0177027D02*
X0536343Y0177196D01*
X0534587Y0176832D02*
Y0189152D01*
X0533862Y0176531D02*
X0535059Y0177027D01*
X0531452Y0193721D02*
X0531621Y0192436D01*
X0518066Y0193103D02*
X0531533D01*
X0517603Y0191529D02*
X0531997D01*
X0518148Y0194678D02*
X0531452D01*
X0517978Y0192436D02*
X0518148Y0193721D01*
X0532906Y0190211D02*
X0533934Y0189422D01*
X0533012Y0175880D02*
Y0190129D01*
X0531621Y0192436D02*
X0532117Y0191239D01*
X0532906Y0190211D01*
X0516569Y0249796D02*
X0533030D01*
X0515666Y0250490D02*
X0516694Y0249701D01*
X0517483Y0248673D01*
X0513184Y0251155D02*
X0514469Y0250986D01*
X0515666Y0250490D01*
X0517483Y0230609D02*
X0517978Y0231806D01*
X0517483Y0248673D02*
X0517978Y0247476D01*
X0517603Y0230899D02*
X0531997D01*
X0516694Y0229581D02*
X0517483Y0230609D01*
X0515666Y0228792D02*
X0516694Y0229581D01*
X0476066Y0259245D02*
X0572166D01*
X0432897Y0260820D02*
X0746709D01*
X0477525Y0257670D02*
X0571176D01*
X0491530Y0261985D02*
X0513184D01*
X0477897Y0256095D02*
X0571032D01*
X0476202Y0252946D02*
X0573893D01*
X0432897Y0251371D02*
X0746709D01*
X0477564Y0254521D02*
X0571612D01*
X0491530Y0251155D02*
X0513184D01*
X0516359Y0229324D02*
X0533241D01*
X0514469Y0228296D02*
X0515666Y0228792D01*
X0446148Y0221450D02*
X0746709D01*
X0513184Y0228127D02*
X0514469Y0228296D01*
X0491530Y0228127D02*
X0513184D01*
X0514114Y0211662D02*
Y0228250D01*
X0446065Y0219875D02*
X0746709D01*
X0491530Y0211785D02*
X0513184D01*
X0510965D02*
Y0228127D01*
X0512540Y0211785D02*
Y0228127D01*
X0445492Y0223025D02*
X0746709D01*
X0432897Y0224599D02*
X0746709D01*
X0445173Y0218300D02*
X0746709D01*
X0432897Y0227749D02*
X0746709D01*
X0432897Y0226174D02*
X0746709D01*
X0437622Y0213576D02*
X0746709D01*
X0436047Y0212001D02*
X0746709D01*
X0440772Y0216725D02*
X0746709D01*
X0439197Y0215151D02*
X0746709D01*
X0495217Y0251155D02*
Y0261985D01*
X0490246Y0250986D02*
X0491530Y0251155D01*
X0489048Y0250490D02*
X0490246Y0250986D01*
X0488021Y0249701D02*
X0489048Y0250490D01*
X0487232Y0248673D02*
X0488021Y0249701D01*
X0486736Y0247476D02*
X0487232Y0248673D01*
X0486567Y0246191D02*
X0486736Y0247476D01*
Y0231806D02*
X0487232Y0230609D01*
X0463151Y0240347D02*
X0486567D01*
Y0233091D02*
X0486736Y0231806D01*
X0462673Y0248221D02*
X0487045D01*
X0461573Y0249796D02*
X0488145D01*
X0463091Y0246647D02*
X0486627D01*
X0463151Y0245072D02*
X0486567D01*
X0463151Y0243497D02*
X0486567D01*
X0463151Y0237198D02*
X0486567D01*
X0463069Y0232473D02*
X0486648D01*
X0463151Y0241922D02*
X0486567D01*
X0463151Y0238773D02*
X0486567D01*
X0501516Y0211785D02*
Y0228127D01*
X0499941Y0211785D02*
Y0228127D01*
X0503091Y0211785D02*
Y0228127D01*
X0496792Y0211785D02*
Y0228127D01*
X0498366Y0211785D02*
Y0228127D01*
X0507815Y0211785D02*
Y0228127D01*
X0509390Y0211785D02*
Y0228127D01*
X0504666Y0211785D02*
Y0228127D01*
X0506240Y0211785D02*
Y0228127D01*
X0488021Y0229581D02*
X0489048Y0228792D01*
X0461362Y0229324D02*
X0488356D01*
X0489048Y0228792D02*
X0490246Y0228296D01*
X0462606Y0230899D02*
X0487112D01*
X0487232Y0230609D02*
X0488021Y0229581D01*
X0493642Y0211785D02*
Y0228127D01*
X0495217Y0211785D02*
Y0228127D01*
X0490246Y0228296D02*
X0491530Y0228127D01*
X0492067Y0211785D02*
Y0228127D01*
X0517264Y0209588D02*
Y0230324D01*
X0516569Y0210426D02*
X0533030D01*
X0516694Y0210331D02*
X0517483Y0209303D01*
X0515689Y0211102D02*
Y0228810D01*
X0515666Y0211120D02*
X0516694Y0210331D01*
X0517483Y0191239D02*
X0517978Y0192436D01*
X0517483Y0209303D02*
X0517978Y0208105D01*
X0516359Y0189954D02*
X0533241D01*
X0516694Y0190211D02*
X0517483Y0191239D01*
X0515689Y0176429D02*
Y0189440D01*
X0515666Y0189422D02*
X0516694Y0190211D01*
X0514469Y0211615D02*
X0515666Y0211120D01*
X0514469Y0188926D02*
X0515666Y0189422D01*
X0513184Y0211785D02*
X0514469Y0211615D01*
X0513184Y0188757D02*
X0514469Y0188926D01*
X0514114Y0177059D02*
Y0188880D01*
X0512540Y0177196D02*
Y0188757D01*
X0499941Y0177196D02*
Y0188757D01*
X0509390Y0177196D02*
Y0188757D01*
X0506240Y0177196D02*
Y0188757D01*
X0504666Y0177196D02*
Y0188757D01*
X0491530D02*
X0513184D01*
X0501516Y0177196D02*
Y0188757D01*
X0503091Y0177196D02*
Y0188757D01*
X0514358Y0177027D02*
X0515555Y0176531D01*
X0513073Y0177196D02*
X0514358Y0177027D01*
X0516534Y0175781D02*
X0532883D01*
X0507815Y0177196D02*
Y0188757D01*
X0510965Y0177196D02*
Y0188757D01*
X0435697Y0186804D02*
X0746709D01*
X0435697Y0188379D02*
X0746709D01*
X0476213Y0185229D02*
X0573441D01*
X0477782Y0183655D02*
X0571529D01*
X0478195Y0182080D02*
X0571018D01*
X0476627Y0178930D02*
X0572313D01*
X0435697Y0177355D02*
X0636070D01*
X0477901Y0180505D02*
X0571220D01*
X0491420Y0177196D02*
X0513073D01*
X0490492Y0211648D02*
Y0228264D01*
X0490246Y0211615D02*
X0491530Y0211785D01*
X0489048Y0211120D02*
X0490246Y0211615D01*
X0488918Y0211019D02*
Y0228893D01*
X0488021Y0210331D02*
X0489048Y0211120D01*
X0487343Y0209448D02*
Y0230464D01*
X0487232Y0209303D02*
X0488021Y0210331D01*
X0486736Y0208105D02*
X0487232Y0209303D01*
X0486567Y0206821D02*
X0486736Y0208105D01*
X0486567Y0193721D02*
Y0206821D01*
X0462673Y0208852D02*
X0487045D01*
X0461573Y0210426D02*
X0488145D01*
X0463091Y0207277D02*
X0486627D01*
X0463151Y0200977D02*
X0486567D01*
X0463151Y0199403D02*
X0486567D01*
Y0193721D02*
X0486736Y0192436D01*
X0463070Y0193103D02*
X0486648D01*
X0463151Y0197828D02*
X0486567D01*
X0463151Y0194678D02*
X0486567D01*
X0496792Y0177196D02*
Y0188757D01*
X0495217Y0177196D02*
Y0188757D01*
X0498366Y0177196D02*
Y0188757D01*
X0489048Y0189422D02*
X0490246Y0188926D01*
X0491530Y0188757D01*
X0492067Y0177196D02*
Y0188757D01*
X0493642Y0177196D02*
Y0188757D01*
X0490492Y0177074D02*
Y0188894D01*
X0490135Y0177027D02*
X0491420Y0177196D01*
X0488021Y0190211D02*
X0489048Y0189422D01*
X0487232Y0191239D02*
X0488021Y0190211D01*
X0461362Y0189954D02*
X0488356D01*
X0486736Y0192436D02*
X0487232Y0191239D01*
X0462606Y0191529D02*
X0487112D01*
X0488938Y0176531D02*
X0490135Y0177027D01*
X0487910Y0175743D02*
X0488938Y0176531D01*
X0488918Y0176516D02*
Y0189523D01*
X0461575Y0175781D02*
X0487960D01*
X0481044Y0313209D02*
Y0326429D01*
X0480492Y0313671D02*
X0480878Y0313374D01*
X0481427Y0312826D01*
X0479481Y0314422D02*
X0480126Y0313991D01*
X0480492Y0313671D01*
X0482618Y0311138D02*
Y0326429D01*
X0481456Y0312788D02*
X0486567D01*
X0482044Y0312074D02*
X0482475Y0311429D01*
X0481427Y0312826D02*
X0481723Y0312440D01*
X0482044Y0312074D01*
X0477436Y0315304D02*
X0477907Y0315178D01*
X0477894Y0324088D02*
Y0326429D01*
Y0315181D02*
Y0320041D01*
X0479469Y0314429D02*
Y0326429D01*
X0479045Y0314638D02*
X0479481Y0314422D01*
X0477907Y0315178D02*
X0478623Y0314881D01*
X0479045Y0314638D01*
X0483696Y0307677D02*
X0483759Y0307194D01*
X0483664Y0308162D02*
X0483696Y0307677D01*
X0483759Y0306806D02*
Y0307194D01*
X0483356Y0309384D02*
X0483513Y0308923D01*
X0483664Y0308162D01*
X0483759Y0306418D02*
Y0306806D01*
X0483696Y0305936D02*
X0483759Y0306418D01*
X0483664Y0305450D02*
X0483696Y0305936D01*
X0483513Y0304690D02*
X0483664Y0305450D01*
X0483356Y0304229D02*
X0483513Y0304690D01*
X0483230Y0309854D02*
X0483356Y0309384D01*
X0482934Y0310571D02*
X0483230Y0309854D01*
Y0303758D02*
X0483356Y0304229D01*
X0482475Y0311429D02*
X0482690Y0310992D01*
X0482934Y0310571D01*
Y0303042D02*
X0483230Y0303758D01*
X0482690Y0302620D02*
X0482934Y0303042D01*
X0482475Y0302184D02*
X0482690Y0302620D01*
X0482044Y0301539D02*
X0482475Y0302184D01*
X0476319Y0325434D02*
Y0326429D01*
X0474744Y0325761D02*
Y0326429D01*
Y0315707D02*
Y0318368D01*
X0476319Y0315591D02*
Y0318694D01*
X0475246Y0315707D02*
X0475729Y0315644D01*
X0476215Y0315612D01*
X0473988Y0315644D02*
X0474471Y0315707D01*
X0475246D01*
X0473170Y0325382D02*
Y0326429D01*
X0473503Y0315612D02*
X0473988Y0315644D01*
X0471595Y0323906D02*
Y0326429D01*
X0473170Y0315545D02*
Y0318746D01*
X0470020Y0314278D02*
Y0326429D01*
X0471595Y0315088D02*
Y0320222D01*
X0466870Y0310720D02*
Y0326429D01*
X0468445Y0312980D02*
Y0326429D01*
X0476215Y0315612D02*
X0476975Y0315460D01*
X0472742D02*
X0473503Y0315612D01*
X0476975Y0315460D02*
X0477436Y0315304D01*
X0472281Y0315304D02*
X0472742Y0315460D01*
X0471811Y0315178D02*
X0472281Y0315304D01*
X0471094Y0314881D02*
X0471811Y0315178D01*
X0470673Y0314638D02*
X0471094Y0314881D01*
X0470236Y0314422D02*
X0470673Y0314638D01*
X0469591Y0313991D02*
X0470236Y0314422D01*
X0469225Y0313670D02*
X0469591Y0313991D01*
X0468839Y0313374D02*
X0469225Y0313670D01*
X0468291Y0312826D02*
X0468839Y0313374D01*
X0467994Y0312440D02*
X0468291Y0312826D01*
X0467673Y0312074D02*
X0467994Y0312440D01*
X0467243Y0311429D02*
X0467673Y0312074D01*
X0467027Y0310992D02*
X0467243Y0311429D01*
X0466784Y0303042D02*
X0467027Y0302620D01*
X0467243Y0302184D01*
X0481723Y0301173D02*
X0482044Y0301539D01*
X0481427Y0300787D02*
X0481723Y0301173D01*
X0480878Y0300238D02*
X0481427Y0300787D01*
X0480492Y0299942D02*
X0480878Y0300238D01*
X0480126Y0299621D02*
X0480492Y0299942D01*
X0482618Y0277842D02*
Y0302475D01*
X0481044Y0279913D02*
Y0300404D01*
X0479481Y0299190D02*
X0480126Y0299621D01*
X0479045Y0298975D02*
X0479481Y0299190D01*
X0479469Y0281133D02*
Y0299184D01*
X0478623Y0298731D02*
X0479045Y0298975D01*
X0477907Y0298435D02*
X0478623Y0298731D01*
X0477436Y0298309D02*
X0477907Y0298435D01*
X0476975Y0298152D02*
X0477436Y0298309D01*
X0476215Y0298001D02*
X0476975Y0298152D01*
X0477894Y0281886D02*
Y0298431D01*
X0476319Y0282295D02*
Y0298022D01*
X0475729Y0297969D02*
X0476215Y0298001D01*
X0475246Y0297905D02*
X0475729Y0297969D01*
X0480492Y0280375D02*
X0480878Y0280079D01*
X0480126Y0280696D02*
X0480492Y0280375D01*
X0480878Y0280079D02*
X0481427Y0279530D01*
X0479045Y0281342D02*
X0479481Y0281127D01*
X0480126Y0280696D01*
X0482475Y0278133D02*
X0482690Y0277697D01*
X0482044Y0278778D02*
X0482475Y0278133D01*
X0482690Y0277697D02*
X0482934Y0277275D01*
X0481427Y0279530D02*
X0481723Y0279144D01*
X0482044Y0278778D01*
X0475729Y0282348D02*
X0476215Y0282316D01*
X0475246Y0282412D02*
X0475729Y0282348D01*
X0476215Y0282316D02*
X0476975Y0282165D01*
X0474471Y0297905D02*
X0475246D01*
X0474471Y0282412D02*
X0475246D01*
X0477907Y0281882D02*
X0478623Y0281586D01*
X0479045Y0281342D01*
X0476975Y0282165D02*
X0477436Y0282008D01*
X0477907Y0281882D01*
X0471811Y0298435D02*
X0472281Y0298309D01*
X0471094Y0298731D02*
X0471811Y0298435D01*
X0472281Y0298309D02*
X0472742Y0298152D01*
X0470236Y0299190D02*
X0470673Y0298975D01*
X0471094Y0298731D01*
X0473170Y0282250D02*
Y0298067D01*
X0472742Y0298152D02*
X0473503Y0298001D01*
X0473988Y0297969D01*
X0470020Y0280982D02*
Y0299335D01*
X0471595Y0281793D02*
Y0298524D01*
X0468291Y0300787D02*
X0468839Y0300238D01*
X0467994Y0301173D02*
X0468291Y0300787D01*
X0468839Y0300238D02*
X0469225Y0299942D01*
X0467243Y0302184D02*
X0467673Y0301539D01*
X0467994Y0301173D01*
X0469225Y0299942D02*
X0469591Y0299621D01*
X0470236Y0299190D01*
X0466870Y0277425D02*
Y0302892D01*
X0468445Y0279685D02*
Y0300632D01*
X0474744Y0282412D02*
Y0297905D01*
X0473988Y0297969D02*
X0474471Y0297905D01*
X0473988Y0282348D02*
X0474471Y0282412D01*
X0473503Y0282316D02*
X0473988Y0282348D01*
X0472742Y0282165D02*
X0473503Y0282316D01*
X0472281Y0282008D02*
X0472742Y0282165D01*
X0471811Y0281882D02*
X0472281Y0282008D01*
X0471094Y0281586D02*
X0471811Y0281882D01*
X0470673Y0281342D02*
X0471094Y0281586D01*
X0470236Y0281127D02*
X0470673Y0281342D01*
X0469591Y0280696D02*
X0470236Y0281127D01*
X0469225Y0280375D02*
X0469591Y0280696D01*
X0468839Y0280079D02*
X0469225Y0280375D01*
X0468291Y0279530D02*
X0468839Y0280079D01*
X0467994Y0279144D02*
X0468291Y0279530D01*
X0467673Y0278778D02*
X0467994Y0279144D01*
X0467243Y0278133D02*
X0467673Y0278778D01*
X0467027Y0277697D02*
X0467243Y0278133D01*
X0462982Y0314641D02*
X0463151Y0313356D01*
X0462486Y0315838D02*
X0462982Y0314641D01*
X0463018Y0314363D02*
X0470147D01*
X0462146Y0316281D02*
Y0326429D01*
X0461697Y0316866D02*
X0462486Y0315838D01*
X0463151Y0311213D02*
X0467136D01*
X0463151Y0312788D02*
X0468262D01*
X0466784Y0310571D02*
X0467027Y0310992D01*
X0463151Y0300256D02*
Y0313356D01*
X0466487Y0309854D02*
X0466784Y0310571D01*
X0422482Y0323812D02*
X0471542D01*
X0422482Y0325387D02*
X0473179D01*
X0422482Y0319087D02*
X0472608D01*
X0422482Y0322237D02*
X0471107D01*
X0422482Y0320662D02*
X0471379D01*
X0459472Y0318151D02*
X0460669Y0317655D01*
X0461697Y0316866D01*
X0460571Y0317695D02*
Y0326429D01*
X0458187Y0318320D02*
X0459472Y0318151D01*
X0466361Y0309384D02*
X0466487Y0309854D01*
X0466205Y0308923D02*
X0466361Y0309384D01*
X0466053Y0308162D02*
X0466205Y0308923D01*
X0466021Y0307677D02*
X0466053Y0308162D01*
X0465958Y0306806D02*
Y0307194D01*
X0466361Y0304229D02*
X0466487Y0303758D01*
X0466205Y0304690D02*
X0466361Y0304229D01*
X0466487Y0303758D02*
X0466784Y0303042D01*
X0466021Y0305936D02*
X0466053Y0305450D01*
X0466205Y0304690D01*
X0463151Y0308064D02*
X0466047D01*
X0463151Y0309639D02*
X0466429D01*
X0465958Y0307194D02*
X0466021Y0307677D01*
X0465958Y0306418D02*
Y0306806D01*
X0463151Y0306489D02*
X0465958D01*
X0463151Y0303339D02*
X0466661D01*
X0463151Y0301765D02*
X0467523D01*
X0465958Y0306418D02*
X0466021Y0305936D01*
X0463151Y0304914D02*
X0466160D01*
X0449548Y0318320D02*
Y0326429D01*
X0447973Y0318320D02*
Y0326429D01*
X0451122Y0318320D02*
Y0326429D01*
X0444823Y0318320D02*
Y0326429D01*
X0446398Y0318320D02*
Y0326429D01*
X0457422Y0318320D02*
Y0326429D01*
X0455847Y0318320D02*
Y0326429D01*
X0458996Y0318213D02*
Y0326429D01*
X0452697Y0318320D02*
Y0326429D01*
X0454272Y0318320D02*
Y0326429D01*
X0441674Y0318320D02*
Y0326429D01*
X0440099Y0318320D02*
Y0326429D01*
X0443248Y0318320D02*
Y0326429D01*
X0436949Y0318320D02*
Y0326429D01*
X0438524Y0318320D02*
Y0326429D01*
X0435374Y0318167D02*
Y0326429D01*
X0435249Y0318151D02*
X0436534Y0318320D01*
X0432225Y0315814D02*
Y0326429D01*
X0433800Y0317461D02*
Y0326429D01*
X0436534Y0318320D02*
X0458187D01*
X0434052Y0317655D02*
X0435249Y0318151D01*
X0433024Y0316866D02*
X0434052Y0317655D01*
X0422482Y0317513D02*
X0433866D01*
X0422482Y0315938D02*
X0432311D01*
X0432235Y0315838D02*
X0433024Y0316866D01*
X0431739Y0314641D02*
X0432235Y0315838D01*
X0431570Y0313356D02*
X0431739Y0314641D01*
X0431570Y0300256D02*
Y0313356D01*
X0422482Y0312788D02*
X0431570D01*
X0422482Y0314363D02*
X0431702D01*
X0422482Y0311213D02*
X0431570D01*
X0422482Y0309639D02*
X0431570D01*
X0422482Y0308064D02*
X0431570D01*
X0422482Y0303339D02*
X0431570D01*
X0422482Y0301765D02*
X0431570D01*
X0422482Y0306489D02*
X0431570D01*
X0422482Y0304914D02*
X0431570D01*
X0463142Y0300190D02*
X0468902D01*
X0462982Y0298972D02*
X0463151Y0300256D01*
X0462834Y0298615D02*
X0471375D01*
X0462486Y0297774D02*
X0462982Y0298972D01*
X0461697Y0296746D02*
X0462486Y0297774D01*
X0462146Y0282974D02*
Y0297332D01*
X0460669Y0295958D02*
X0461697Y0296746D01*
X0459472Y0295462D02*
X0460669Y0295958D01*
X0460571Y0284388D02*
Y0295917D01*
X0458996Y0284906D02*
Y0295399D01*
X0458187Y0295293D02*
X0459472Y0295462D01*
X0455847Y0285013D02*
Y0295293D01*
X0454272Y0285013D02*
Y0295293D01*
X0443248Y0293333D02*
Y0295293D01*
X0444823Y0292240D02*
Y0295293D01*
X0449548Y0285013D02*
Y0295293D01*
X0451122Y0285013D02*
Y0295293D01*
X0446398Y0285013D02*
Y0295293D01*
X0447973Y0285013D02*
Y0295293D01*
X0462486Y0282531D02*
X0462982Y0281334D01*
X0461697Y0283559D02*
X0462486Y0282531D01*
X0462987Y0281292D02*
X0470571D01*
X0459472Y0284844D02*
X0460669Y0284348D01*
X0461697Y0283559D01*
X0463151Y0278143D02*
X0467249D01*
X0463151Y0279717D02*
X0468478D01*
X0466784Y0277275D02*
X0467027Y0277697D01*
X0462982Y0281334D02*
X0463151Y0280049D01*
Y0266949D02*
Y0280049D01*
X0457422Y0285013D02*
Y0295293D01*
X0452697Y0285013D02*
Y0295293D01*
X0436534D02*
X0458187D01*
X0439559Y0285013D02*
X0458187D01*
X0459472Y0284844D01*
X0444823Y0285013D02*
Y0287467D01*
X0443248Y0285013D02*
Y0286374D01*
X0435249Y0295462D02*
X0436534Y0295293D01*
X0434052Y0295958D02*
X0435249Y0295462D01*
X0441674Y0293536D02*
Y0295293D01*
X0432235Y0297774D02*
X0433024Y0296746D01*
X0434052Y0295958D01*
X0438524Y0291112D02*
Y0295293D01*
X0436949Y0287202D02*
Y0295293D01*
X0440099Y0293024D02*
Y0295293D01*
X0433800Y0284154D02*
Y0296151D01*
X0435374Y0285628D02*
Y0295445D01*
X0431739Y0298972D02*
X0432235Y0297774D01*
X0422482Y0298615D02*
X0431887D01*
X0422482Y0297040D02*
X0432798D01*
X0431570Y0300256D02*
X0431739Y0298972D01*
X0422482Y0300190D02*
X0431579D01*
X0422482Y0295465D02*
X0435240D01*
X0422482Y0292316D02*
X0439243D01*
X0430650Y0280903D02*
Y0326429D01*
X0432225Y0282507D02*
Y0297799D01*
X0441674Y0285013D02*
Y0286171D01*
X0439559Y0285013D02*
X0440877Y0286331D01*
X0440099Y0285013D02*
Y0285553D01*
X0434125Y0284378D02*
X0438478Y0288731D01*
X0433024Y0283559D02*
X0434052Y0284348D01*
X0432235Y0282531D02*
X0433024Y0283559D01*
X0430003Y0280257D02*
X0432204Y0282458D01*
X0422482Y0289166D02*
X0438368D01*
X0422482Y0290741D02*
X0438411D01*
X0422482Y0287591D02*
X0437338D01*
X0422482Y0286017D02*
X0435763D01*
X0422482Y0284442D02*
X0434189D01*
X0422482Y0282867D02*
X0432493D01*
X0422482Y0281292D02*
X0431039D01*
X0422482Y0279717D02*
X0429638D01*
X0422482Y0278143D02*
X0429503D01*
X0483696Y0274381D02*
X0483759Y0273899D01*
X0483664Y0274867D02*
X0483696Y0274381D01*
X0483759Y0273511D02*
Y0273899D01*
X0483356Y0276089D02*
X0483513Y0275628D01*
X0483664Y0274867D01*
X0483759Y0273123D02*
Y0273511D01*
X0483696Y0272640D02*
X0483759Y0273123D01*
X0483664Y0272155D02*
X0483696Y0272640D01*
X0483513Y0271394D02*
X0483664Y0272155D01*
X0483356Y0270933D02*
X0483513Y0271394D01*
X0483230Y0276559D02*
X0483356Y0276089D01*
X0482934Y0277275D02*
X0483230Y0276559D01*
Y0270463D02*
X0483356Y0270933D01*
X0482934Y0269746D02*
X0483230Y0270463D01*
X0482690Y0269325D02*
X0482934Y0269746D01*
X0482475Y0268888D02*
X0482690Y0269325D01*
X0482044Y0268243D02*
X0482475Y0268888D01*
X0481723Y0267878D02*
X0482044Y0268243D01*
X0481427Y0267491D02*
X0481723Y0267878D01*
X0480878Y0266943D02*
X0481427Y0267491D01*
X0480492Y0266647D02*
X0480878Y0266943D01*
X0480126Y0266326D02*
X0480492Y0266647D01*
X0479481Y0265895D02*
X0480126Y0266326D01*
X0479045Y0265679D02*
X0479481Y0265895D01*
X0478623Y0265436D02*
X0479045Y0265679D01*
X0477907Y0265139D02*
X0478623Y0265436D01*
X0477436Y0265013D02*
X0477907Y0265139D01*
X0476975Y0264857D02*
X0477436Y0265013D01*
X0476215Y0264705D02*
X0476975Y0264857D01*
X0472742D02*
X0473503Y0264705D01*
X0472281Y0265013D02*
X0472742Y0264857D01*
X0475729Y0264674D02*
X0476215Y0264705D01*
X0471094Y0265436D02*
X0471811Y0265139D01*
X0472281Y0265013D01*
X0475246Y0264610D02*
X0475729Y0264674D01*
X0474471Y0264610D02*
X0475246D01*
X0473503Y0264705D02*
X0473988Y0264674D01*
X0474471Y0264610D01*
X0466487Y0276559D02*
X0466784Y0277275D01*
X0466361Y0276089D02*
X0466487Y0276559D01*
X0466205Y0275628D02*
X0466361Y0276089D01*
X0466053Y0274867D02*
X0466205Y0275628D01*
X0466021Y0274381D02*
X0466053Y0274867D01*
X0466361Y0270933D02*
X0466487Y0270463D01*
X0466205Y0271394D02*
X0466361Y0270933D01*
X0466487Y0270463D02*
X0466784Y0269746D01*
X0466021Y0272640D02*
X0466053Y0272155D01*
X0466205Y0271394D01*
X0463151Y0274993D02*
X0466079D01*
X0463151Y0276568D02*
X0466491D01*
X0465958Y0273899D02*
X0466021Y0274381D01*
X0465958Y0273511D02*
Y0273899D01*
X0463151Y0273418D02*
X0465958D01*
X0463151Y0271843D02*
X0466115D01*
X0463151Y0270269D02*
X0466568D01*
X0465958Y0273123D02*
Y0273511D01*
Y0273123D02*
X0466021Y0272640D01*
X0468291Y0267491D02*
X0468839Y0266943D01*
X0467994Y0267877D02*
X0468291Y0267491D01*
X0468839Y0266943D02*
X0469225Y0266647D01*
X0467243Y0268888D02*
X0467673Y0268243D01*
X0467994Y0267877D01*
X0470236Y0265895D02*
X0470673Y0265679D01*
X0471094Y0265436D01*
X0469225Y0266647D02*
X0469591Y0266326D01*
X0470236Y0265895D01*
X0467027Y0269325D02*
X0467243Y0268888D01*
X0463151Y0268694D02*
X0467373D01*
X0463151Y0267119D02*
X0468663D01*
X0466784Y0269746D02*
X0467027Y0269325D01*
X0462982Y0265665D02*
X0463151Y0266949D01*
X0462486Y0264467D02*
X0462982Y0265665D01*
X0462932Y0265544D02*
X0470907D01*
X0461697Y0263439D02*
X0462486Y0264467D01*
X0460669Y0262650D02*
X0461697Y0263439D01*
X0477894Y0256199D02*
Y0265136D01*
X0476319Y0259083D02*
Y0264726D01*
X0474744Y0259710D02*
Y0264610D01*
X0477894Y0183419D02*
Y0255908D01*
X0476319Y0185172D02*
Y0253024D01*
X0486567Y0233091D02*
Y0246191D01*
X0474744Y0185642D02*
Y0252397D01*
X0473170Y0259604D02*
Y0264772D01*
X0471595Y0258677D02*
Y0265229D01*
X0461697Y0249701D02*
X0462486Y0248673D01*
X0471595Y0184240D02*
Y0253431D01*
X0473170Y0185403D02*
Y0252503D01*
X0462486Y0248673D02*
X0462982Y0247476D01*
X0463151Y0246191D01*
Y0234048D02*
X0486567D01*
X0463151Y0235623D02*
X0486567D01*
X0463151Y0205702D02*
X0486567D01*
X0463151Y0233091D02*
Y0246191D01*
Y0193721D02*
Y0206821D01*
X0462982Y0208105D02*
X0463151Y0206821D01*
X0462982Y0231806D02*
X0463151Y0233091D01*
Y0204127D02*
X0486567D01*
X0462486Y0230609D02*
X0462982Y0231806D01*
X0462486Y0209303D02*
X0462982Y0208105D01*
X0463151Y0202552D02*
X0486567D01*
X0463151Y0196253D02*
X0486567D01*
X0462982Y0192436D02*
X0463151Y0193721D01*
X0462486Y0191239D02*
X0462982Y0192436D01*
X0462146Y0249116D02*
Y0264024D01*
X0459472Y0250986D02*
X0460669Y0250490D01*
X0461697Y0249701D01*
X0459472Y0262155D02*
X0460669Y0262650D01*
X0460571Y0250530D02*
Y0262610D01*
X0462146Y0209746D02*
Y0230166D01*
X0461697Y0229581D02*
X0462486Y0230609D01*
X0460669Y0228792D02*
X0461697Y0229581D01*
X0459472Y0228296D02*
X0460669Y0228792D01*
X0460571Y0211160D02*
Y0228752D01*
X0458996Y0251048D02*
Y0262092D01*
X0458187Y0261985D02*
X0459472Y0262155D01*
X0457422Y0251155D02*
Y0261985D01*
X0454272Y0251155D02*
Y0261985D01*
X0455847Y0251155D02*
Y0261985D01*
X0458187Y0251155D02*
X0459472Y0250986D01*
X0458187Y0228127D02*
X0459472Y0228296D01*
X0458996Y0211678D02*
Y0228234D01*
X0454272Y0211785D02*
Y0228127D01*
X0461697Y0210331D02*
X0462486Y0209303D01*
X0460669Y0211120D02*
X0461697Y0210331D01*
Y0190211D02*
X0462486Y0191239D01*
X0459472Y0211615D02*
X0460669Y0211120D01*
Y0189422D02*
X0461697Y0190211D01*
X0459472Y0188926D02*
X0460669Y0189422D01*
X0459400Y0177027D02*
X0460597Y0176531D01*
X0460571Y0176542D02*
Y0189382D01*
X0458996Y0177080D02*
Y0188864D01*
X0458187Y0211785D02*
X0459472Y0211615D01*
X0457422Y0211785D02*
Y0228127D01*
X0458187Y0188757D02*
X0459472Y0188926D01*
X0455847Y0211785D02*
Y0228127D01*
X0457422Y0177196D02*
Y0188757D01*
X0455847Y0177196D02*
Y0188757D01*
X0458115Y0177196D02*
X0459400Y0177027D01*
X0452697Y0177196D02*
Y0188757D01*
X0454272Y0177196D02*
Y0188757D01*
X0443248Y0251155D02*
Y0261985D01*
X0441674Y0251155D02*
Y0261985D01*
X0444823Y0251155D02*
Y0261985D01*
X0438524Y0251155D02*
Y0261985D01*
X0440099Y0251155D02*
Y0261985D01*
X0451122Y0251155D02*
Y0261985D01*
X0449548Y0251155D02*
Y0261985D01*
X0452697Y0251155D02*
Y0261985D01*
X0446398Y0251155D02*
Y0261985D01*
X0447973Y0251155D02*
Y0261985D01*
X0435249Y0262155D02*
X0436534Y0261985D01*
X0434052Y0262650D02*
X0435249Y0262155D01*
X0436534Y0261985D02*
X0458187D01*
X0433024Y0263439D02*
X0434052Y0262650D01*
X0432897Y0262395D02*
X0434669D01*
X0436949Y0251155D02*
Y0261985D01*
X0432897Y0259245D02*
X0472334D01*
X0433800Y0250296D02*
Y0262844D01*
X0435374Y0251002D02*
Y0262138D01*
X0436534Y0251155D02*
X0458187D01*
X0435249Y0250986D02*
X0436534Y0251155D01*
Y0228127D02*
X0458187D01*
X0434052Y0250490D02*
X0435249Y0250986D01*
X0434052Y0228792D02*
X0435249Y0228296D01*
X0443248Y0224474D02*
Y0228127D01*
X0441674Y0224457D02*
Y0228127D01*
X0444823Y0223729D02*
Y0228127D01*
X0435249Y0228296D02*
X0436534Y0228127D01*
X0440099Y0223664D02*
Y0228127D01*
X0432897Y0254521D02*
X0470836D01*
X0432897Y0257670D02*
X0470875D01*
X0432897Y0252946D02*
X0472198D01*
X0432897Y0256095D02*
X0470503D01*
X0433024Y0249701D02*
X0434052Y0250490D01*
X0432897Y0223025D02*
X0439508D01*
X0432897Y0221450D02*
X0438852D01*
X0433024Y0229581D02*
X0434052Y0228792D01*
X0432897Y0229324D02*
X0433359D01*
X0422482Y0271843D02*
X0429503D01*
X0422482Y0273418D02*
X0429503D01*
X0422482Y0270269D02*
X0429503D01*
X0422482Y0276568D02*
X0429503D01*
X0422482Y0274993D02*
X0429503D01*
X0422482Y0263969D02*
X0429503D01*
X0422482Y0265544D02*
X0429503D01*
X0432897Y0249535D02*
Y0263605D01*
X0422482Y0268694D02*
X0429503D01*
X0422482Y0267119D02*
X0429503D01*
X0422482Y0257670D02*
X0429503D01*
X0422482Y0259245D02*
X0429503D01*
X0422482Y0256095D02*
X0429503D01*
X0422482Y0262395D02*
X0429503D01*
X0422482Y0260820D02*
X0429503D01*
X0422482Y0251371D02*
X0429503D01*
X0422482Y0249796D02*
X0429503D01*
X0422482Y0254521D02*
X0429503D01*
X0422482Y0252946D02*
X0429503D01*
X0422482Y0229324D02*
X0429503D01*
X0422482Y0230899D02*
X0429503D01*
X0422482Y0227749D02*
X0429503D01*
X0422482Y0234048D02*
X0429503D01*
X0422482Y0232473D02*
X0429503D01*
X0422482Y0223025D02*
X0429503D01*
X0422482Y0221450D02*
X0429503D01*
X0422482Y0226174D02*
X0429503D01*
X0422482Y0224599D02*
X0429503D01*
X0422482Y0243497D02*
X0429503D01*
X0422482Y0245072D02*
X0429503D01*
X0422482Y0241922D02*
X0429503D01*
X0422482Y0248221D02*
X0429503D01*
X0422482Y0246647D02*
X0429503D01*
X0422482Y0237198D02*
X0429503D01*
X0422482Y0235623D02*
X0429503D01*
X0422482Y0240347D02*
X0429503D01*
X0422482Y0238773D02*
X0429503D01*
X0451122Y0211785D02*
Y0228127D01*
X0449548Y0211785D02*
Y0228127D01*
X0452697Y0211785D02*
Y0228127D01*
X0447973Y0211785D02*
Y0228127D01*
X0446398Y0211785D02*
Y0228127D01*
X0444823Y0211785D02*
Y0217978D01*
X0443248Y0211785D02*
Y0217233D01*
X0441674Y0211785D02*
Y0217250D01*
X0440099Y0211785D02*
Y0216053D01*
X0438524Y0219277D02*
Y0228127D01*
X0432897Y0219875D02*
X0438935D01*
X0436949Y0217702D02*
Y0228127D01*
X0432897Y0218300D02*
X0437547D01*
X0432897Y0213650D02*
X0438978Y0219731D01*
X0435724Y0211678D02*
X0441377Y0217331D01*
X0438524Y0211785D02*
Y0214478D01*
X0436949Y0211785D02*
Y0212903D01*
X0441674Y0177196D02*
Y0188757D01*
X0440099Y0177196D02*
Y0188757D01*
X0443248Y0177196D02*
Y0188757D01*
X0436949Y0177196D02*
Y0188757D01*
X0438524Y0177196D02*
Y0188757D01*
X0449548Y0177196D02*
Y0188757D01*
X0447973Y0177196D02*
Y0188757D01*
X0451122Y0177196D02*
Y0188757D01*
X0444823Y0177196D02*
Y0188757D01*
X0446398Y0177196D02*
Y0188757D01*
X0436534Y0211785D02*
X0458187D01*
X0435697Y0185229D02*
X0472787D01*
X0435697Y0183655D02*
X0471218D01*
X0435724Y0211678D02*
X0436534Y0211785D01*
Y0188757D02*
X0458187D01*
X0435697Y0180505D02*
X0471099D01*
X0435697Y0178930D02*
X0472372D01*
X0435697Y0182080D02*
X0470805D01*
X0436462Y0177196D02*
X0458115D01*
X0435374Y0216128D02*
Y0228280D01*
X0422482Y0219875D02*
X0429503D01*
X0432897Y0216725D02*
X0435972D01*
X0422482Y0218300D02*
X0429503D01*
X0422482Y0216725D02*
X0429503D01*
X0433800Y0214553D02*
Y0228986D01*
X0432897Y0213650D02*
Y0229746D01*
Y0215151D02*
X0434397D01*
X0422482D02*
X0429503D01*
X0422482Y0213576D02*
X0429503D01*
X0422482Y0207277D02*
X0429503D01*
X0422482Y0208852D02*
X0429503D01*
X0422482Y0205702D02*
X0429503D01*
X0422482Y0212001D02*
X0429503D01*
X0422482Y0210426D02*
X0429503D01*
X0422482Y0200977D02*
X0429503D01*
X0422482Y0199403D02*
X0429503D01*
X0422482Y0204127D02*
X0429503D01*
X0422482Y0202552D02*
X0429503D01*
X0422482Y0193103D02*
X0429503D01*
X0422482Y0194678D02*
X0429503D01*
X0422482Y0191529D02*
X0429503D01*
X0422482Y0197828D02*
X0429503D01*
X0422482Y0196253D02*
X0429503D01*
X0435697Y0188867D02*
X0436534Y0188757D01*
X0435697Y0177096D02*
X0436462Y0177196D01*
X0422482Y0189954D02*
X0429503D01*
X0435697Y0177096D02*
Y0188867D01*
X0422482Y0183655D02*
X0429503D01*
X0422482Y0185229D02*
X0429503D01*
X0422482Y0182080D02*
X0429503D01*
X0422482Y0188379D02*
X0429503D01*
X0422482Y0186804D02*
X0429503D01*
X0422482Y0177355D02*
X0429503D01*
X0422482Y0175781D02*
X0429503D01*
X0422482Y0180505D02*
X0429503D01*
X0422482Y0178930D02*
X0429503D01*
X0562296Y0174715D02*
X0562792Y0173517D01*
X0561507Y0175743D02*
X0562296Y0174715D01*
X0562506Y0174206D02*
X0572386D01*
X0532834Y0175743D02*
X0533862Y0176531D01*
X0532045Y0174715D02*
X0532834Y0175743D01*
X0562908Y0172631D02*
X0569254D01*
X0562792Y0173517D02*
X0562961Y0172233D01*
Y0159026D02*
Y0172233D01*
X0562933Y0172442D02*
Y0192965D01*
Y0158816D02*
Y0172442D01*
X0531549Y0173517D02*
X0532045Y0174715D01*
X0531437Y0172669D02*
Y0326429D01*
X0517583Y0174206D02*
X0531834D01*
X0517372Y0174715D02*
X0517868Y0173517D01*
X0517985Y0172631D02*
X0531432D01*
X0531380Y0172233D02*
X0531549Y0173517D01*
X0531380Y0159026D02*
Y0172233D01*
X0517868Y0173517D02*
X0518037Y0172233D01*
Y0159026D02*
Y0172233D01*
X0562961Y0167907D02*
X0566131D01*
X0562961Y0169481D02*
X0566706D01*
X0562961Y0161607D02*
X0566804D01*
X0518037Y0171056D02*
X0531380D01*
X0518037Y0166332D02*
X0531380D01*
X0562961Y0160033D02*
X0567834D01*
X0562886Y0158458D02*
X0569447D01*
X0562436Y0156883D02*
X0573076D01*
X0531380Y0159026D02*
X0531549Y0157741D01*
X0562792D02*
X0562961Y0159026D01*
X0518037Y0163182D02*
X0531380D01*
X0518037Y0164757D02*
X0531380D01*
X0518037Y0161607D02*
X0531380D01*
X0518037Y0169481D02*
X0531380D01*
X0518037Y0167907D02*
X0531380D01*
X0517963Y0158458D02*
X0531455D01*
X0517513Y0156883D02*
X0531904D01*
X0518037Y0160033D02*
X0531380D01*
X0517868Y0157741D02*
X0518037Y0159026D01*
X0517264Y0174856D02*
Y0190954D01*
X0515555Y0176531D02*
X0516583Y0175743D01*
X0517372Y0174715D01*
X0487343Y0175003D02*
Y0191094D01*
X0487121Y0174715D02*
X0487910Y0175743D01*
X0486625Y0173517D02*
X0487121Y0174715D01*
X0486456Y0172233D02*
X0486625Y0173517D01*
X0486456Y0159026D02*
Y0172233D01*
X0483513Y0167746D02*
X0483664Y0166985D01*
X0483696Y0166499D01*
X0482690Y0169815D02*
X0482934Y0169394D01*
X0482475Y0170252D02*
X0482690Y0169815D01*
X0482883Y0169481D02*
X0486456D01*
X0482618Y0169961D02*
Y0269179D01*
X0482044Y0170896D02*
X0482475Y0170252D01*
X0483356Y0168207D02*
X0483513Y0167746D01*
X0483458Y0167907D02*
X0486456D01*
X0482934Y0169394D02*
X0483230Y0168677D01*
X0483356Y0168207D01*
X0483718Y0166332D02*
X0486456D01*
X0483696Y0166499D02*
X0483759Y0166017D01*
Y0165629D02*
Y0166017D01*
Y0165241D02*
Y0165629D01*
X0483696Y0164759D02*
X0483759Y0165241D01*
X0486456Y0159026D02*
X0486625Y0157741D01*
X0487121Y0156544D01*
X0483664Y0164273D02*
X0483696Y0164759D01*
X0483696Y0164757D02*
X0486456D01*
X0483513Y0163512D02*
X0483664Y0164273D01*
X0483356Y0163051D02*
X0483513Y0163512D01*
X0483401Y0163182D02*
X0486456D01*
X0483230Y0162581D02*
X0483356Y0163051D01*
X0482934Y0161865D02*
X0483230Y0162581D01*
X0482690Y0161443D02*
X0482934Y0161865D01*
X0482785Y0161607D02*
X0486456D01*
X0482475Y0161006D02*
X0482690Y0161443D01*
X0482044Y0160362D02*
X0482475Y0161006D01*
X0562296Y0156544D02*
X0562792Y0157741D01*
X0561507Y0155516D02*
X0562296Y0156544D01*
X0561237Y0155308D02*
X0588062D01*
X0560479Y0154727D02*
X0561507Y0155516D01*
X0533862Y0154727D02*
X0535059Y0154231D01*
X0562933Y0144645D02*
Y0158816D01*
X0561358Y0144645D02*
Y0155402D01*
X0559282Y0154231D02*
X0560479Y0154727D01*
X0533012Y0144645D02*
Y0155379D01*
X0559784Y0144645D02*
Y0154439D01*
X0532834Y0155516D02*
X0533862Y0154727D01*
X0532045Y0156544D02*
X0532834Y0155516D01*
X0516313Y0155308D02*
X0533104D01*
X0531437Y0144645D02*
Y0158589D01*
X0531549Y0157741D02*
X0532045Y0156544D01*
X0528288Y0144645D02*
Y0326429D01*
X0529862Y0144645D02*
Y0326429D01*
X0525138Y0144645D02*
Y0326429D01*
X0526713Y0144645D02*
Y0326429D01*
X0557997Y0154062D02*
X0559282Y0154231D01*
X0556634Y0144677D02*
Y0154062D01*
X0555059Y0144677D02*
Y0154062D01*
X0551910Y0144677D02*
Y0154062D01*
X0553484Y0144677D02*
Y0154062D01*
X0558209Y0144649D02*
Y0154090D01*
X0550335Y0144677D02*
Y0154062D01*
X0548760Y0144677D02*
Y0154062D01*
X0545610Y0144677D02*
Y0154062D01*
X0547185Y0144677D02*
Y0154062D01*
X0544036Y0144677D02*
Y0154062D01*
X0542461Y0144677D02*
Y0154062D01*
X0536343D02*
X0557997D01*
X0535059Y0154231D02*
X0536343Y0154062D01*
X0540886Y0144677D02*
Y0154062D01*
X0537736Y0144677D02*
Y0154062D01*
X0539311Y0144677D02*
Y0154062D01*
X0534587Y0144645D02*
Y0154426D01*
X0536162Y0144653D02*
Y0154086D01*
X0520414Y0144645D02*
Y0326429D01*
X0517372Y0156544D02*
X0517868Y0157741D01*
X0516583Y0155516D02*
X0517372Y0156544D01*
X0515555Y0154727D02*
X0516583Y0155516D01*
X0514358Y0154231D02*
X0515555Y0154727D01*
X0521988Y0144645D02*
Y0326429D01*
X0518839Y0144645D02*
Y0326429D01*
X0523563Y0144645D02*
Y0326429D01*
X0517264Y0144645D02*
Y0156403D01*
X0515689Y0144645D02*
Y0154830D01*
X0488938Y0154727D02*
X0490135Y0154231D01*
X0487910Y0155516D02*
X0488938Y0154727D01*
X0513073Y0154062D02*
X0514358Y0154231D01*
X0487121Y0156544D02*
X0487910Y0155516D01*
X0488918Y0144645D02*
Y0154743D01*
X0485768Y0144645D02*
Y0326429D01*
X0487343Y0144645D02*
Y0156255D01*
X0484193Y0144645D02*
Y0326429D01*
X0482618Y0144645D02*
Y0161298D01*
X0506240Y0144677D02*
Y0154062D01*
X0504666Y0144677D02*
Y0154062D01*
X0507815Y0144677D02*
Y0154062D01*
X0501516Y0144677D02*
Y0154062D01*
X0503091Y0144677D02*
Y0154062D01*
X0514114Y0144645D02*
Y0154199D01*
X0512540Y0144677D02*
Y0154062D01*
X0509390Y0144677D02*
Y0154062D01*
X0510965Y0144677D02*
Y0154062D01*
X0499941Y0144677D02*
Y0154062D01*
X0498366Y0144677D02*
Y0154062D01*
X0491420D02*
X0513073D01*
X0490135Y0154231D02*
X0491420Y0154062D01*
X0496792Y0144677D02*
Y0154062D01*
X0493642Y0144677D02*
Y0154062D01*
X0495217Y0144677D02*
Y0154062D01*
X0490492Y0144645D02*
Y0154184D01*
X0492067Y0144677D02*
Y0154062D01*
X0476319Y0174414D02*
Y0178735D01*
X0475729Y0174466D02*
X0476215Y0174434D01*
X0476975Y0174283D01*
X0474744Y0174530D02*
Y0178265D01*
X0475246Y0174530D02*
X0475729Y0174466D01*
X0481044Y0172032D02*
Y0267108D01*
X0479469Y0173251D02*
Y0265889D01*
X0477203Y0174206D02*
X0486910D01*
X0477894Y0174004D02*
Y0180488D01*
X0476975Y0174283D02*
X0477436Y0174127D01*
X0474471Y0174530D02*
X0475246D01*
X0473988Y0174466D02*
X0474471Y0174530D01*
X0473503Y0174434D02*
X0473988Y0174466D01*
X0473170Y0174368D02*
Y0178504D01*
X0472742Y0174283D02*
X0473503Y0174434D01*
X0472281Y0174127D02*
X0472742Y0174283D01*
X0462625Y0174206D02*
X0472514D01*
X0470020Y0173101D02*
Y0266039D01*
X0471595Y0173911D02*
Y0179667D01*
X0480126Y0172814D02*
X0480492Y0172493D01*
X0479481Y0173245D02*
X0480126Y0172814D01*
X0480335Y0172631D02*
X0486509D01*
X0478623Y0173704D02*
X0479045Y0173460D01*
X0479481Y0173245D01*
X0481723Y0171263D02*
X0482044Y0170896D01*
X0481427Y0171649D02*
X0481723Y0171263D01*
X0481904Y0171056D02*
X0486456D01*
X0480492Y0172493D02*
X0480878Y0172197D01*
X0481427Y0171649D01*
X0477436Y0174127D02*
X0477907Y0174001D01*
X0471811D02*
X0472281Y0174127D01*
X0477907Y0174001D02*
X0478623Y0173704D01*
X0471094D02*
X0471811Y0174001D01*
X0470673Y0173460D02*
X0471094Y0173704D01*
X0470236Y0173245D02*
X0470673Y0173460D01*
X0469591Y0172814D02*
X0470236Y0173245D01*
X0469225Y0172493D02*
X0469591Y0172814D01*
X0463026Y0172631D02*
X0469382D01*
X0468839Y0172197D02*
X0469225Y0172493D01*
X0468445Y0171803D02*
Y0267337D01*
X0468291Y0171649D02*
X0468839Y0172197D01*
X0467994Y0171263D02*
X0468291Y0171649D01*
X0467673Y0170896D02*
X0467994Y0171263D01*
X0467243Y0170252D02*
X0467673Y0170896D01*
X0467027Y0169815D02*
X0467243Y0170252D01*
X0466784Y0169394D02*
X0467027Y0169815D01*
X0466870Y0169543D02*
Y0269597D01*
X0466487Y0168677D02*
X0466784Y0169394D01*
X0462414Y0174715D02*
X0462910Y0173517D01*
X0461625Y0175743D02*
X0462414Y0174715D01*
X0462910Y0173517D02*
X0463079Y0172233D01*
X0462146Y0175064D02*
Y0190796D01*
X0460597Y0176531D02*
X0461625Y0175743D01*
X0463079Y0171056D02*
X0467814D01*
X0463079Y0169481D02*
X0466835D01*
X0466361Y0168207D02*
X0466487Y0168677D01*
X0466205Y0167746D02*
X0466361Y0168207D01*
X0466053Y0164273D02*
X0466205Y0163512D01*
X0466053Y0166985D02*
X0466205Y0167746D01*
Y0163512D02*
X0466361Y0163051D01*
X0466021Y0166499D02*
X0466053Y0166985D01*
X0466021Y0164759D02*
X0466053Y0164273D01*
X0466784Y0161865D02*
X0467027Y0161443D01*
X0467243Y0161006D01*
X0466361Y0163051D02*
X0466487Y0162581D01*
X0466784Y0161865D01*
X0465958Y0166017D02*
X0466021Y0166499D01*
X0463079Y0167907D02*
X0466259D01*
X0463079Y0166332D02*
X0466000D01*
X0465958Y0165629D02*
Y0166017D01*
Y0165241D02*
Y0165629D01*
X0463079Y0163182D02*
X0466317D01*
X0463079Y0161607D02*
X0466932D01*
X0465958Y0165241D02*
X0466021Y0164759D01*
X0463079Y0164757D02*
X0466022D01*
X0481755Y0160033D02*
X0486456D01*
X0481723Y0159996D02*
X0482044Y0160362D01*
X0481427Y0159609D02*
X0481723Y0159996D01*
X0480878Y0159061D02*
X0481427Y0159609D01*
X0480492Y0158765D02*
X0480878Y0159061D01*
X0481044Y0144645D02*
Y0159226D01*
X0480126Y0158444D02*
X0480492Y0158765D01*
X0480142Y0158458D02*
X0486531D01*
X0479481Y0158013D02*
X0480126Y0158444D01*
X0479469Y0144645D02*
Y0158007D01*
X0479045Y0157798D02*
X0479481Y0158013D01*
X0478623Y0157554D02*
X0479045Y0157798D01*
X0477907Y0157257D02*
X0478623Y0157554D01*
X0470673Y0157798D02*
X0471094Y0157554D01*
X0471811Y0157257D01*
X0477436Y0157132D02*
X0477907Y0157257D01*
X0477894Y0144645D02*
Y0157254D01*
X0471595Y0144645D02*
Y0157347D01*
X0471811Y0157257D02*
X0472281Y0157132D01*
X0476975Y0156975D02*
X0477436Y0157132D01*
X0476215Y0156824D02*
X0476975Y0156975D01*
X0476513Y0156883D02*
X0486981D01*
X0473503Y0156824D02*
X0473988Y0156792D01*
X0475729D02*
X0476215Y0156824D01*
X0476319Y0144645D02*
Y0156844D01*
X0475246Y0156728D02*
X0475729Y0156792D01*
X0474471Y0156728D02*
X0475246D01*
X0473988Y0156792D02*
X0474471Y0156728D01*
X0474744Y0144645D02*
Y0156728D01*
X0472742Y0156975D02*
X0473503Y0156824D01*
X0461355Y0155308D02*
X0488180D01*
X0429325Y0153733D02*
X0753451D01*
X0472281Y0157132D02*
X0472742Y0156975D01*
X0462555Y0156883D02*
X0473204D01*
X0445408Y0152159D02*
X0753451D01*
X0446486Y0150584D02*
X0753451D01*
X0473170Y0144645D02*
Y0156890D01*
X0446681Y0149009D02*
X0743256D01*
X0468291Y0159609D02*
X0468839Y0159061D01*
X0467994Y0159996D02*
X0468291Y0159609D01*
X0468839Y0159061D02*
X0469225Y0158765D01*
X0467243Y0161006D02*
X0467673Y0160362D01*
X0467994Y0159996D01*
X0470020Y0144645D02*
Y0158157D01*
X0469591Y0158444D02*
X0470236Y0158013D01*
X0470673Y0157798D01*
X0468445Y0144645D02*
Y0159455D01*
X0469225Y0158765D02*
X0469591Y0158444D01*
X0463079Y0160033D02*
X0467962D01*
X0463079Y0159026D02*
Y0172233D01*
X0463004Y0158458D02*
X0469575D01*
X0462910Y0157741D02*
X0463079Y0159026D01*
X0462414Y0156544D02*
X0462910Y0157741D01*
X0465296Y0144645D02*
Y0326429D01*
X0466870Y0144645D02*
Y0161715D01*
X0463721Y0144645D02*
Y0326429D01*
X0461625Y0155516D02*
X0462414Y0156544D01*
X0460597Y0154727D02*
X0461625Y0155516D01*
X0459400Y0154231D02*
X0460597Y0154727D01*
X0458115Y0154062D02*
X0459400Y0154231D01*
X0454272Y0144677D02*
Y0154062D01*
X0455847Y0144677D02*
Y0154062D01*
X0462146Y0144645D02*
Y0156194D01*
X0460571Y0144645D02*
Y0154716D01*
X0458996Y0144645D02*
Y0154178D01*
X0457422Y0144677D02*
Y0154062D01*
X0451122Y0144677D02*
Y0154062D01*
X0436462D02*
X0458115D01*
X0446398Y0150810D02*
Y0154062D01*
X0449548Y0144677D02*
Y0154062D01*
X0452697Y0144677D02*
Y0154062D01*
X0447973Y0144677D02*
Y0154062D01*
X0446398Y0144677D02*
Y0147897D01*
X0562687Y0141251D02*
X0571521D01*
X0558239Y0144645D02*
X0591060D01*
X0562735Y0141135D02*
X0571241D01*
X0536343Y0144677D02*
X0557997D01*
X0536102Y0144645D02*
X0558239D01*
X0562961Y0126506D02*
Y0139713D01*
X0562792Y0140998D02*
X0562961Y0139713D01*
Y0139560D02*
X0568771D01*
X0562933Y0139922D02*
Y0141251D01*
Y0126296D02*
Y0139922D01*
X0517763Y0141251D02*
X0531654D01*
X0513315Y0144645D02*
X0536102D01*
X0517811Y0141135D02*
X0531606D01*
X0531437Y0140149D02*
Y0141251D01*
X0531380Y0139713D02*
X0531549Y0140998D01*
X0531380Y0126506D02*
Y0139713D01*
X0518037Y0137985D02*
X0531380D01*
X0517868Y0140998D02*
X0518037Y0139713D01*
Y0139560D02*
X0531380D01*
X0562961Y0136411D02*
X0566531D01*
X0562961Y0137985D02*
X0567392D01*
X0562961Y0134836D02*
X0566031D01*
X0562961Y0133261D02*
X0565830D01*
X0562961Y0131686D02*
X0565919D01*
X0562961Y0126962D02*
X0568135D01*
X0562961Y0130111D02*
X0566301D01*
X0562814Y0125387D02*
X0570023D01*
X0562792Y0125221D02*
X0562961Y0126506D01*
X0562296Y0124024D02*
X0562792Y0125221D01*
X0518037Y0131686D02*
X0531380D01*
X0518037Y0133261D02*
X0531380D01*
X0518037Y0130111D02*
X0531380D01*
X0518037Y0136411D02*
X0531380D01*
X0518037Y0134836D02*
X0531380D01*
Y0126506D02*
X0531549Y0125221D01*
X0517890Y0125387D02*
X0531527D01*
X0518037Y0128537D02*
X0531380D01*
X0518037Y0126962D02*
X0531380D01*
X0491420Y0144677D02*
X0513073D01*
X0491178Y0144645D02*
X0513315D01*
X0486456Y0139713D02*
X0486625Y0140998D01*
X0483513Y0134991D02*
X0483664Y0134231D01*
X0483544Y0134836D02*
X0486456D01*
X0518037Y0126506D02*
Y0139713D01*
X0486456Y0126506D02*
Y0139713D01*
X0483696Y0133745D02*
X0483759Y0133262D01*
X0483664Y0134231D02*
X0483696Y0133745D01*
X0483759Y0132875D02*
Y0133262D01*
X0482475Y0137497D02*
X0482690Y0137060D01*
X0482149Y0137985D02*
X0486456D01*
X0482690Y0137060D02*
X0482934Y0136639D01*
X0482618Y0137206D02*
Y0141251D01*
X0482044Y0138142D02*
X0482475Y0137497D01*
X0483028Y0136411D02*
X0486456D01*
X0483356Y0135452D02*
X0483513Y0134991D01*
X0482934Y0136639D02*
X0483230Y0135922D01*
X0483356Y0135452D01*
X0483759Y0132487D02*
Y0132875D01*
Y0133261D02*
X0486456D01*
X0483675Y0131686D02*
X0486456D01*
X0483696Y0132004D02*
X0483759Y0132487D01*
X0483664Y0131518D02*
X0483696Y0132004D01*
X0517868Y0125221D02*
X0518037Y0126506D01*
X0517372Y0124024D02*
X0517868Y0125221D01*
X0486456Y0126506D02*
X0486625Y0125221D01*
X0487121Y0124024D01*
X0483513Y0130758D02*
X0483664Y0131518D01*
X0483356Y0130297D02*
X0483513Y0130758D01*
X0483307Y0130111D02*
X0486456D01*
X0483230Y0129826D02*
X0483356Y0130297D01*
X0482934Y0129110D02*
X0483230Y0129826D01*
X0482690Y0128689D02*
X0482934Y0129110D01*
X0482615Y0128537D02*
X0486456D01*
X0482475Y0128252D02*
X0482690Y0128689D01*
X0482044Y0127607D02*
X0482475Y0128252D01*
X0562133Y0123812D02*
X0587166D01*
X0561507Y0122996D02*
X0562296Y0124024D01*
X0560519Y0122237D02*
X0588780D01*
X0560479Y0122207D02*
X0561507Y0122996D01*
X0533862Y0122207D02*
X0535059Y0121711D01*
X0562933Y0113287D02*
Y0126296D01*
X0561358Y0113287D02*
Y0122882D01*
X0559282Y0121711D02*
X0560479Y0122207D01*
X0533012Y0113283D02*
Y0122859D01*
X0559784Y0113287D02*
Y0121919D01*
X0532834Y0122996D02*
X0533862Y0122207D01*
X0532045Y0124024D02*
X0532834Y0122996D01*
X0515595Y0122237D02*
X0533822D01*
X0531549Y0125221D02*
X0532045Y0124024D01*
X0517210Y0123812D02*
X0532207D01*
X0529862Y0113283D02*
Y0141251D01*
X0531437Y0113283D02*
Y0126070D01*
X0526713Y0113282D02*
Y0141251D01*
X0528288Y0113282D02*
Y0141251D01*
X0558209Y0113286D02*
Y0121570D01*
X0557997Y0121542D02*
X0559282Y0121711D01*
X0556634Y0113286D02*
Y0121542D01*
X0553484Y0113286D02*
Y0121542D01*
X0555059Y0113286D02*
Y0121542D01*
X0550335Y0113285D02*
Y0121542D01*
X0548760Y0113285D02*
Y0121542D01*
X0551910Y0113286D02*
Y0121542D01*
X0545610Y0113285D02*
Y0121542D01*
X0547185Y0113285D02*
Y0121542D01*
X0544036Y0113285D02*
Y0121542D01*
X0542461Y0113284D02*
Y0121542D01*
X0536343D02*
X0557997D01*
X0535059Y0121711D02*
X0536343Y0121542D01*
X0540886Y0113284D02*
Y0121542D01*
X0537736Y0113284D02*
Y0121542D01*
X0539311Y0113284D02*
Y0121542D01*
X0534587Y0113283D02*
Y0121907D01*
X0536162Y0113284D02*
Y0121566D01*
X0525138Y0113282D02*
Y0141251D01*
X0523563Y0113282D02*
Y0141251D01*
X0516583Y0122996D02*
X0517372Y0124024D01*
X0515555Y0122207D02*
X0516583Y0122996D01*
X0514358Y0121711D02*
X0515555Y0122207D01*
X0520414Y0113281D02*
Y0141251D01*
X0518839Y0113281D02*
Y0141251D01*
X0521988Y0113282D02*
Y0141251D01*
X0517264Y0113281D02*
Y0123883D01*
X0515689Y0113281D02*
Y0122310D01*
X0488938Y0122207D02*
X0490135Y0121711D01*
X0487910Y0122996D02*
X0488938Y0122207D01*
X0513073Y0121542D02*
X0514358Y0121711D01*
X0487121Y0124024D02*
X0487910Y0122996D01*
X0488918Y0113277D02*
Y0122223D01*
X0485768Y0113277D02*
Y0141251D01*
X0487343Y0113277D02*
Y0123735D01*
X0484193Y0113276D02*
Y0141251D01*
X0482618Y0113276D02*
Y0128543D01*
X0514114Y0113280D02*
Y0121679D01*
X0512540Y0113280D02*
Y0121542D01*
X0510965Y0113280D02*
Y0121542D01*
X0507815Y0113280D02*
Y0121542D01*
X0509390Y0113280D02*
Y0121542D01*
X0504666Y0113279D02*
Y0121542D01*
X0506240Y0113279D02*
Y0121542D01*
X0501516Y0113279D02*
Y0121542D01*
X0503091Y0113279D02*
Y0121542D01*
X0499941Y0113279D02*
Y0121542D01*
X0498366Y0113278D02*
Y0121542D01*
X0491420D02*
X0513073D01*
X0490135Y0121711D02*
X0491420Y0121542D01*
X0496792Y0113278D02*
Y0121542D01*
X0493642Y0113278D02*
Y0121542D01*
X0495217Y0113278D02*
Y0121542D01*
X0490492Y0113277D02*
Y0121664D01*
X0492067Y0113277D02*
Y0121542D01*
X0478175Y0141135D02*
X0486682D01*
X0477888Y0141251D02*
X0486730D01*
X0478623Y0140949D02*
X0479045Y0140706D01*
X0471094Y0140949D02*
X0471811Y0141246D01*
X0477907D02*
X0478623Y0140949D01*
X0481044Y0139277D02*
Y0141251D01*
X0479045Y0140706D02*
X0479481Y0140491D01*
X0480126Y0140060D01*
X0479469Y0140497D02*
Y0141251D01*
X0470673Y0140706D02*
X0471094Y0140949D01*
X0446160Y0147434D02*
X0741681D01*
X0444207Y0145859D02*
X0740106D01*
X0458357Y0144645D02*
X0491178D01*
X0462805Y0141251D02*
X0471830D01*
X0462853Y0141135D02*
X0471543D01*
X0470236Y0140491D02*
X0470673Y0140706D01*
X0469591Y0140060D02*
X0470236Y0140491D01*
X0468445Y0139049D02*
Y0141251D01*
X0470020Y0140346D02*
Y0141251D01*
X0481427Y0138894D02*
X0481723Y0138508D01*
X0480725Y0139560D02*
X0486456D01*
X0481723Y0138508D02*
X0482044Y0138142D01*
X0480492Y0139739D02*
X0480878Y0139442D01*
X0481427Y0138894D01*
X0481723Y0127241D02*
X0482044Y0127607D01*
X0481427Y0126855D02*
X0481723Y0127241D01*
X0481509Y0126962D02*
X0486456D01*
X0480878Y0126306D02*
X0481427Y0126855D01*
X0480492Y0126010D02*
X0480878Y0126306D01*
X0480126Y0140060D02*
X0480492Y0139739D01*
X0469225Y0139739D02*
X0469591Y0140060D01*
X0468839Y0139442D02*
X0469225Y0139739D01*
X0463079Y0139560D02*
X0468993D01*
X0468291Y0138894D02*
X0468839Y0139442D01*
X0468839Y0126306D02*
X0469225Y0126010D01*
X0480126Y0125689D02*
X0480492Y0126010D01*
X0467994Y0127241D02*
X0468291Y0126855D01*
X0468839Y0126306D01*
X0467994Y0138508D02*
X0468291Y0138894D01*
X0467673Y0138142D02*
X0467994Y0138508D01*
X0467243Y0137497D02*
X0467673Y0138142D01*
X0466870Y0136789D02*
Y0141251D01*
X0467027Y0137060D02*
X0467243Y0137497D01*
X0466784Y0136639D02*
X0467027Y0137060D01*
X0466487Y0135922D02*
X0466784Y0136639D01*
X0466361Y0135452D02*
X0466487Y0135922D01*
X0466205Y0134991D02*
X0466361Y0135452D01*
X0466053Y0134231D02*
X0466205Y0134991D01*
X0462910Y0140998D02*
X0463079Y0139713D01*
X0436220Y0144645D02*
X0458357D01*
X0463079Y0137985D02*
X0467569D01*
X0444823Y0144677D02*
Y0146138D01*
X0436462Y0144677D02*
X0458115D01*
X0463079Y0136411D02*
X0466689D01*
X0463079Y0134836D02*
X0466174D01*
X0463079Y0126506D02*
Y0139713D01*
X0466021Y0133745D02*
X0466053Y0134231D01*
X0466361Y0130297D02*
X0466487Y0129826D01*
X0466205Y0130758D02*
X0466361Y0130297D01*
X0466487Y0129826D02*
X0466784Y0129110D01*
X0466021Y0132004D02*
X0466053Y0131518D01*
X0466205Y0130758D01*
X0467243Y0128252D02*
X0467673Y0127607D01*
X0467994Y0127241D01*
X0466784Y0129110D02*
X0467027Y0128689D01*
X0467243Y0128252D01*
X0465958Y0133262D02*
X0466021Y0133745D01*
X0463079Y0133261D02*
X0465958D01*
Y0132487D02*
X0466021Y0132004D01*
X0465958Y0132875D02*
Y0133262D01*
Y0132487D02*
Y0132875D01*
X0463079Y0128537D02*
X0467102D01*
X0463079Y0126962D02*
X0468209D01*
X0463079Y0131686D02*
X0466042D01*
X0463079Y0130111D02*
X0466411D01*
X0479674Y0125387D02*
X0486603D01*
X0479481Y0125258D02*
X0480126Y0125689D01*
X0479045Y0125043D02*
X0479481Y0125258D01*
X0478623Y0124800D02*
X0479045Y0125043D01*
X0477907Y0124503D02*
X0478623Y0124800D01*
X0481044Y0113276D02*
Y0126472D01*
X0479469Y0113276D02*
Y0125252D01*
X0477436Y0124377D02*
X0477907Y0124503D01*
X0477894Y0119619D02*
Y0124499D01*
X0476975Y0124220D02*
X0477436Y0124377D01*
X0476215Y0124069D02*
X0476975Y0124220D01*
X0475729Y0124037D02*
X0476215Y0124069D01*
X0473503D02*
X0473988Y0124037D01*
X0472281Y0124377D02*
X0472742Y0124220D01*
X0473503Y0124069D01*
X0476319Y0121372D02*
Y0124090D01*
X0475246Y0123974D02*
X0475729Y0124037D01*
X0473170Y0121603D02*
Y0124135D01*
X0473988Y0124037D02*
X0474471Y0123974D01*
X0477215Y0120663D02*
X0572097D01*
X0474471Y0123974D02*
X0475246D01*
X0478077Y0119088D02*
X0571015D01*
X0474744Y0121842D02*
Y0123974D01*
X0478141Y0117513D02*
X0570819D01*
X0477894Y0113276D02*
Y0116688D01*
X0477460Y0115938D02*
X0571338D01*
X0476319Y0113275D02*
Y0114935D01*
X0474744Y0113275D02*
Y0114465D01*
X0462251Y0123812D02*
X0487284D01*
X0460637Y0122237D02*
X0488899D01*
X0422482Y0114363D02*
X0573281D01*
X0422482Y0113268D02*
X0746709Y0113312D01*
X0473170Y0113275D02*
Y0114704D01*
X0470673Y0125043D02*
X0471094Y0124800D01*
X0470236Y0125258D02*
X0470673Y0125043D01*
X0471094Y0124800D02*
X0471811Y0124503D01*
X0469225Y0126010D02*
X0469591Y0125689D01*
X0470236Y0125258D01*
X0471595Y0120440D02*
Y0124592D01*
X0470020Y0113275D02*
Y0125403D01*
X0471811Y0124503D02*
X0472281Y0124377D01*
X0466870Y0113274D02*
Y0128960D01*
X0468445Y0113274D02*
Y0126700D01*
X0462932Y0125387D02*
X0470044D01*
X0462910Y0125221D02*
X0463079Y0126506D01*
X0462414Y0124024D02*
X0462910Y0125221D01*
X0461625Y0122996D02*
X0462414Y0124024D01*
X0460597Y0122207D02*
X0461625Y0122996D01*
X0463721Y0113274D02*
Y0141251D01*
X0465296Y0113274D02*
Y0141251D01*
X0462146Y0113274D02*
Y0123675D01*
X0459400Y0121711D02*
X0460597Y0122207D01*
X0460571Y0113273D02*
Y0122196D01*
X0458115Y0121542D02*
X0459400Y0121711D01*
X0471595Y0113275D02*
Y0115867D01*
X0458996Y0113273D02*
Y0121658D01*
X0457422Y0113273D02*
Y0121542D01*
X0454272Y0113272D02*
Y0121542D01*
X0455847Y0113273D02*
Y0121542D01*
X0451122Y0113272D02*
Y0121542D01*
X0452697Y0113272D02*
Y0121542D01*
X0422482Y0119088D02*
X0470923D01*
X0422482Y0120663D02*
X0471785D01*
X0422482Y0115938D02*
X0471540D01*
X0436462Y0121542D02*
X0458115D01*
X0422482Y0117513D02*
X0470859D01*
X0447973Y0113272D02*
Y0121542D01*
X0449548Y0113272D02*
Y0121542D01*
X0444823Y0113271D02*
Y0121542D01*
X0446398Y0113271D02*
Y0121542D01*
X0429503Y0161256D02*
Y0279053D01*
X0422482Y0174206D02*
X0429503D01*
X0422482Y0172631D02*
X0429503D01*
X0427500Y0159254D02*
Y0326429D01*
X0429075Y0160828D02*
Y0326429D01*
X0425926Y0157679D02*
Y0326429D01*
X0424351Y0157050D02*
Y0326429D01*
X0425297Y0157050D02*
X0429503Y0161256D01*
X0422482Y0159098D02*
Y0326429D01*
X0422776Y0157050D02*
Y0326429D01*
X0422482Y0166332D02*
X0429503D01*
X0422482Y0167907D02*
X0429503D01*
X0422482Y0164757D02*
X0429503D01*
X0422482Y0171056D02*
X0429503D01*
X0422482Y0169481D02*
X0429503D01*
X0422482Y0163182D02*
X0429503D01*
X0422482Y0161607D02*
X0429503D01*
X0422482Y0160033D02*
X0428279D01*
X0422301Y0158458D02*
X0426705D01*
X0421201Y0157050D02*
Y0157876D01*
X0414902Y0157050D02*
Y0157876D01*
X0419626Y0157050D02*
Y0157876D01*
X0432163Y0156544D02*
X0432952Y0155516D01*
X0418052Y0157050D02*
Y0157876D01*
X0430900Y0155308D02*
X0433222D01*
X0413327Y0157050D02*
Y0157876D01*
X0416477Y0157050D02*
Y0157876D01*
X0405453Y0157050D02*
Y0157876D01*
X0403878Y0157050D02*
Y0157876D01*
X0384632D02*
X0421260D01*
X0400729Y0157050D02*
Y0157876D01*
X0402304Y0157050D02*
Y0157876D01*
X0410178Y0157050D02*
Y0157876D01*
X0411752Y0157050D02*
Y0157876D01*
X0407028Y0157050D02*
Y0157876D01*
X0408603Y0157050D02*
Y0157876D01*
X0362934Y0157050D02*
Y0160518D01*
X0361359Y0157050D02*
Y0160738D01*
X0364508Y0157050D02*
Y0160297D01*
X0358209Y0157050D02*
Y0161179D01*
X0359784Y0157050D02*
Y0160959D01*
X0370808Y0157050D02*
Y0159415D01*
X0369233Y0157050D02*
Y0159636D01*
X0372382Y0157050D02*
Y0159195D01*
X0366083Y0157050D02*
Y0160077D01*
X0367658Y0157050D02*
Y0159856D01*
X0348760Y0157050D02*
Y0162502D01*
X0347186Y0157050D02*
Y0162723D01*
X0350335Y0157050D02*
Y0162282D01*
X0344036Y0157050D02*
Y0163163D01*
X0345611Y0157050D02*
Y0162943D01*
X0355060Y0157050D02*
Y0161620D01*
X0356634Y0157050D02*
Y0161400D01*
X0351910Y0157050D02*
Y0162061D01*
X0353485Y0157050D02*
Y0161841D01*
X0391280Y0157050D02*
Y0157876D01*
X0389705Y0157050D02*
Y0157876D01*
X0392855Y0157050D02*
Y0157876D01*
X0386556Y0157050D02*
Y0157876D01*
X0388130Y0157050D02*
Y0157876D01*
X0397579Y0157050D02*
Y0157876D01*
X0399154Y0157050D02*
Y0157876D01*
X0394430Y0157050D02*
Y0157876D01*
X0396004Y0157050D02*
Y0157876D01*
X0383406Y0157050D02*
Y0157894D01*
X0384981Y0157050D02*
Y0157876D01*
X0380256Y0157050D02*
Y0158112D01*
X0381831Y0157050D02*
Y0157973D01*
X0377107Y0157050D02*
Y0158534D01*
X0378682Y0157050D02*
Y0158313D01*
X0373957Y0157050D02*
Y0158974D01*
X0375532Y0157050D02*
Y0158754D01*
X0443248Y0153042D02*
Y0154062D01*
X0441674Y0152804D02*
Y0154062D01*
X0444823Y0152570D02*
Y0154062D01*
X0433980Y0154727D02*
X0435177Y0154231D01*
X0436462Y0154062D01*
X0438524Y0151050D02*
Y0154062D01*
X0436949Y0151050D02*
Y0154062D01*
X0440099Y0151645D02*
Y0154062D01*
X0433800Y0151050D02*
Y0154865D01*
X0435374Y0151050D02*
Y0154205D01*
X0432952Y0155516D02*
X0433980Y0154727D01*
X0429042Y0153450D02*
X0432155Y0156563D01*
X0430650Y0153086D02*
Y0155058D01*
X0429042Y0153450D02*
X0429600D01*
X0430803Y0152950D02*
X0432703Y0151050D01*
X0431595Y0152159D02*
X0440592D01*
X0432225Y0151529D02*
Y0156463D01*
X0432703Y0151050D02*
X0439716D01*
X0428522Y0150057D02*
X0428897D01*
X0422776Y0149162D02*
Y0150057D01*
X0416477Y0149050D02*
Y0150057D01*
X0418052Y0149050D02*
Y0150057D01*
X0428897D02*
X0430797Y0148157D01*
X0419626Y0149050D02*
Y0150057D01*
X0421201Y0149050D02*
Y0150057D01*
X0407028Y0149050D02*
Y0150057D01*
X0405453Y0149050D02*
Y0150057D01*
X0408603Y0149050D02*
Y0150057D01*
X0402304Y0149050D02*
Y0150057D01*
X0403878Y0149050D02*
Y0150057D01*
X0413327Y0149050D02*
Y0150057D01*
X0414902Y0149050D02*
Y0150057D01*
X0410178Y0149050D02*
Y0150057D01*
X0411752Y0149050D02*
Y0150057D01*
X0362934Y0149050D02*
Y0150057D01*
X0361359Y0149050D02*
Y0150057D01*
X0364508Y0149050D02*
Y0150057D01*
X0358209Y0149050D02*
Y0150057D01*
X0359784Y0149050D02*
Y0150057D01*
X0370808Y0149050D02*
Y0150057D01*
X0369233Y0149050D02*
Y0150057D01*
X0372382Y0149050D02*
Y0150057D01*
X0366083Y0149050D02*
Y0150057D01*
X0367658Y0149050D02*
Y0150057D01*
X0348760Y0149050D02*
Y0150057D01*
X0347186Y0149050D02*
Y0150057D01*
X0350335Y0149050D02*
Y0150057D01*
X0344036Y0149050D02*
Y0150057D01*
X0345611Y0149050D02*
Y0150057D01*
X0355060Y0149050D02*
Y0150057D01*
X0356634Y0149050D02*
Y0150057D01*
X0351910Y0149050D02*
Y0150057D01*
X0353485Y0149050D02*
Y0150057D01*
X0392855Y0149050D02*
Y0150057D01*
X0391280Y0149050D02*
Y0150057D01*
X0394430Y0149050D02*
Y0150057D01*
X0388130Y0149050D02*
Y0150057D01*
X0389705Y0149050D02*
Y0150057D01*
X0399154Y0149050D02*
Y0150057D01*
X0400729Y0149050D02*
Y0150057D01*
X0396004Y0149050D02*
Y0150057D01*
X0397579Y0149050D02*
Y0150057D01*
X0378682Y0149050D02*
Y0150057D01*
X0377107Y0149050D02*
Y0150057D01*
X0380256Y0149050D02*
Y0150057D01*
X0373957Y0149050D02*
Y0150057D01*
X0375532Y0149050D02*
Y0150057D01*
X0384981Y0149050D02*
Y0150057D01*
X0386556Y0149050D02*
Y0150057D01*
X0381831Y0149050D02*
Y0150057D01*
X0383406Y0149050D02*
Y0150057D01*
X0329863Y0164650D02*
Y0165148D01*
X0328288Y0164280D02*
Y0165368D01*
X0331438Y0164315D02*
Y0164927D01*
X0315690Y0164337D02*
Y0167132D01*
X0317264Y0163022D02*
Y0166911D01*
X0333012Y0162949D02*
Y0164707D01*
X0340886Y0157050D02*
Y0163604D01*
X0326713Y0162827D02*
Y0165589D01*
X0314115Y0164649D02*
Y0167352D01*
X0300591Y0166332D02*
X0321404D01*
X0300631Y0164757D02*
X0332653D01*
X0299766Y0167907D02*
X0310156D01*
X0312540Y0164257D02*
Y0167573D01*
X0287987Y0171010D02*
X0379004Y0158268D01*
X0310965Y0162743D02*
Y0167793D01*
X0333539Y0161607D02*
X0355150D01*
X0332850Y0163182D02*
X0343901D01*
X0317839Y0161607D02*
X0326261D01*
X0342461Y0157050D02*
Y0163384D01*
X0333480Y0160033D02*
X0366399D01*
X0332627Y0158458D02*
X0377647D01*
X0317780Y0160033D02*
X0326320D01*
X0317149Y0163182D02*
X0326951D01*
X0299917D02*
X0311250D01*
X0287890Y0161607D02*
X0310561D01*
X0316927Y0158458D02*
X0327173D01*
X0287873Y0160033D02*
X0310620D01*
X0287857Y0158458D02*
X0311473D01*
X0299942Y0167693D02*
Y0169337D01*
X0298367Y0168888D02*
Y0169557D01*
X0295217Y0168692D02*
Y0169998D01*
X0296792Y0169144D02*
Y0169778D01*
X0303091Y0157528D02*
Y0168896D01*
X0301516Y0157528D02*
Y0169116D01*
X0304666Y0157528D02*
Y0168675D01*
X0287971Y0169481D02*
X0298907D01*
X0287955Y0167907D02*
X0294234D01*
X0293642Y0167000D02*
Y0170219D01*
X0287939Y0166332D02*
X0293409D01*
X0290493Y0158003D02*
Y0170659D01*
X0292068Y0157662D02*
Y0170439D01*
X0287852Y0158003D02*
X0287987Y0171010D01*
X0288918Y0158003D02*
Y0170880D01*
X0300936Y0157528D02*
X0302064D01*
X0300095D02*
X0300936D01*
X0302064D01*
X0299942D02*
Y0163214D01*
X0298968Y0157528D02*
X0300095D01*
X0302905D02*
X0304032D01*
X0306001D01*
X0302064D02*
X0302905D01*
X0304032D01*
X0287906Y0163182D02*
X0294083D01*
X0296999Y0157528D02*
X0298968D01*
X0287922Y0164757D02*
X0293369D01*
X0287852Y0158003D02*
X0291047D01*
X0298367Y0157528D02*
Y0162019D01*
X0298968Y0157528D02*
X0300095D01*
X0337737Y0154662D02*
Y0164045D01*
X0336162Y0153660D02*
Y0164266D01*
X0339312Y0156237D02*
Y0163825D01*
X0334587Y0153660D02*
Y0164486D01*
X0333012Y0153660D02*
Y0158959D01*
X0328288Y0153660D02*
Y0157627D01*
X0326713Y0153660D02*
Y0159080D01*
X0331438Y0153660D02*
Y0157592D01*
X0323564Y0153660D02*
Y0166030D01*
X0325138Y0153660D02*
Y0165809D01*
X0320414Y0153660D02*
Y0166471D01*
X0318839Y0153660D02*
Y0166691D01*
X0321989Y0153660D02*
Y0166250D01*
X0317264Y0153660D02*
Y0158886D01*
X0312540Y0153660D02*
Y0157650D01*
X0309390Y0153660D02*
Y0168014D01*
X0310965Y0153660D02*
Y0159164D01*
X0306241Y0153354D02*
Y0168455D01*
X0307816Y0153660D02*
Y0168234D01*
X0340828Y0157050D02*
X0425297D01*
X0314115Y0153660D02*
Y0157258D01*
X0307562Y0153660D02*
X0336735D01*
X0342597Y0149050D02*
X0343603Y0150057D01*
X0336735Y0153660D02*
X0339625Y0156550D01*
X0343603Y0150057D02*
X0423478D01*
X0315690Y0153660D02*
Y0157570D01*
X0329863Y0153660D02*
Y0157257D01*
X0306058Y0155308D02*
X0338383D01*
X0306001Y0156883D02*
X0340093D01*
X0306001Y0153733D02*
X0336808D01*
X0306001Y0153354D02*
Y0154064D01*
Y0153354D02*
X0306591D01*
X0296999Y0156456D02*
Y0157528D01*
X0296792Y0156456D02*
Y0161763D01*
X0292870Y0156883D02*
X0296999D01*
X0293642Y0156456D02*
Y0163907D01*
X0295217Y0156456D02*
Y0162215D01*
X0306001Y0155454D02*
Y0157528D01*
X0293297Y0156456D02*
X0296999D01*
X0303091Y0145717D02*
Y0151991D01*
X0292250Y0157503D02*
X0293297Y0156456D01*
X0290493Y0153503D02*
Y0154461D01*
X0290344Y0154609D02*
X0291391Y0153562D01*
X0287808Y0153733D02*
X0291220D01*
X0289453Y0153503D02*
X0291453D01*
X0288918Y0153417D02*
Y0154609D01*
X0287817D02*
X0290344D01*
X0287796Y0152549D02*
X0287817Y0154609D01*
X0287796Y0152549D02*
X0288250Y0153003D01*
X0304637Y0151386D02*
Y0151991D01*
X0304032D02*
X0304637D01*
X0302213Y0150584D02*
X0304637D01*
X0302905Y0151991D02*
X0304032D01*
X0302905D02*
X0304032D01*
X0304637Y0150258D02*
Y0151386D01*
Y0150258D02*
Y0151386D01*
X0302213Y0145717D02*
Y0151991D01*
X0304637Y0149417D02*
Y0150258D01*
X0302213Y0151991D02*
X0302905D01*
X0298363D02*
X0298819D01*
X0298363Y0150584D02*
X0298819D01*
X0298363Y0151386D02*
Y0151991D01*
Y0150258D02*
Y0151386D01*
X0298367Y0145717D02*
Y0151991D01*
X0298819Y0145717D02*
Y0151991D01*
X0298363Y0150258D02*
Y0151386D01*
Y0149417D02*
Y0150258D01*
X0440099Y0144677D02*
Y0147062D01*
X0432000Y0147657D02*
X0439716D01*
X0443248Y0144677D02*
Y0145665D01*
X0438524Y0144677D02*
Y0147657D01*
X0436949Y0144677D02*
Y0147657D01*
X0435374Y0144645D02*
Y0147657D01*
X0441674Y0144677D02*
Y0145903D01*
X0432225Y0144645D02*
Y0147657D01*
X0433800Y0144645D02*
Y0147657D01*
X0429306Y0149009D02*
X0429945D01*
X0429696Y0147434D02*
X0439840D01*
X0429075Y0149405D02*
Y0149879D01*
X0430650Y0144645D02*
Y0148304D01*
X0429382Y0145859D02*
X0441792D01*
X0413327Y0144645D02*
Y0145657D01*
X0429075Y0144645D02*
Y0145302D01*
X0428516Y0144645D02*
X0436220D01*
X0421201D02*
Y0145657D01*
X0422776Y0144645D02*
Y0145545D01*
X0419626Y0140634D02*
Y0141251D01*
Y0144645D02*
Y0145657D01*
X0421201Y0140634D02*
Y0141251D01*
X0418052Y0144645D02*
Y0145657D01*
Y0140634D02*
Y0141251D01*
X0416477Y0144645D02*
Y0145657D01*
X0414902Y0144645D02*
Y0145657D01*
X0416477Y0140634D02*
Y0141251D01*
X0410178Y0144645D02*
Y0145657D01*
X0411752Y0144645D02*
Y0145657D01*
X0413327Y0140634D02*
Y0141251D01*
X0414902Y0140634D02*
Y0141251D01*
X0410178Y0140634D02*
Y0141251D01*
X0411752Y0140634D02*
Y0141251D01*
X0370808Y0144645D02*
Y0145657D01*
X0369233Y0144645D02*
Y0145657D01*
X0372382Y0144645D02*
Y0145657D01*
X0366083Y0144645D02*
Y0145657D01*
X0367658Y0144645D02*
Y0145657D01*
X0378682Y0144645D02*
Y0145657D01*
X0377107Y0144645D02*
Y0145657D01*
X0380256Y0144645D02*
Y0145657D01*
X0373957Y0144645D02*
Y0145657D01*
X0375532Y0144645D02*
Y0145657D01*
X0356634Y0144645D02*
Y0145657D01*
X0355060Y0144645D02*
Y0145657D01*
X0358209Y0144645D02*
Y0145657D01*
X0351910Y0144645D02*
Y0145657D01*
X0353485Y0144645D02*
Y0145657D01*
X0362934Y0144645D02*
Y0145657D01*
X0364508Y0144645D02*
Y0145657D01*
X0359784Y0144645D02*
Y0145657D01*
X0361359Y0144645D02*
Y0145657D01*
X0400729Y0144645D02*
Y0145657D01*
X0399154Y0144645D02*
Y0145657D01*
X0402304Y0144645D02*
Y0145657D01*
X0396004Y0144645D02*
Y0145657D01*
X0397579Y0144645D02*
Y0145657D01*
X0407028Y0144645D02*
Y0145657D01*
X0408603Y0144645D02*
Y0145657D01*
X0403878Y0144645D02*
Y0145657D01*
X0405453Y0144645D02*
Y0145657D01*
X0386556Y0144645D02*
Y0145657D01*
X0384981Y0144645D02*
Y0145657D01*
X0388130Y0144645D02*
Y0145657D01*
X0381831Y0144645D02*
Y0145657D01*
X0383406Y0144645D02*
Y0145657D01*
X0392855Y0144645D02*
Y0145657D01*
X0394430Y0144645D02*
Y0145657D01*
X0389705Y0144645D02*
Y0145657D01*
X0391280Y0144645D02*
Y0145657D01*
X0431498Y0139713D02*
X0431667Y0140998D01*
X0422482Y0133261D02*
X0431498D01*
X0422482Y0130111D02*
X0431498D01*
X0430650Y0113269D02*
Y0141251D01*
X0431498Y0126506D02*
Y0139713D01*
X0427500Y0113269D02*
Y0141251D01*
X0425926Y0113269D02*
Y0141251D01*
X0429075Y0113269D02*
Y0141251D01*
X0422776Y0113268D02*
Y0141251D01*
X0424351Y0113268D02*
Y0141251D01*
X0422473Y0139560D02*
X0431498D01*
X0422482Y0137985D02*
X0431498D01*
X0384637Y0140634D02*
X0421260D01*
X0422482Y0136411D02*
X0431498D01*
X0422482Y0134836D02*
X0431498D01*
X0422482Y0113268D02*
Y0139413D01*
Y0131686D02*
X0431498D01*
X0441674Y0113271D02*
Y0121542D01*
X0435177Y0121711D02*
X0436462Y0121542D01*
X0443248Y0113271D02*
Y0121542D01*
X0432952Y0122996D02*
X0433980Y0122207D01*
X0435177Y0121711D01*
X0438524Y0113270D02*
Y0121542D01*
X0436949Y0113270D02*
Y0121542D01*
X0440099Y0113270D02*
Y0121542D01*
X0433800Y0113270D02*
Y0122345D01*
X0435374Y0113270D02*
Y0121685D01*
X0431498Y0126506D02*
X0431667Y0125221D01*
X0422482Y0125387D02*
X0431645D01*
X0431667Y0125221D02*
X0432163Y0124024D01*
X0422482Y0128537D02*
X0431498D01*
X0422482Y0126962D02*
X0431498D01*
X0432163Y0124024D02*
X0432952Y0122996D01*
X0422482Y0122237D02*
X0433940D01*
X0432225Y0113269D02*
Y0123943D01*
X0422482Y0123812D02*
X0432325D01*
X0399154Y0140634D02*
Y0141251D01*
X0397579Y0140634D02*
Y0141251D01*
X0400729Y0140634D02*
Y0141251D01*
X0394430Y0140634D02*
Y0141251D01*
X0396004Y0140634D02*
Y0141251D01*
X0407028Y0140634D02*
Y0141251D01*
X0405453Y0140634D02*
Y0141251D01*
X0408603Y0140634D02*
Y0141251D01*
X0402304Y0140634D02*
Y0141251D01*
X0403878Y0140634D02*
Y0141251D01*
X0391280Y0140634D02*
Y0141251D01*
X0389705Y0140634D02*
Y0141251D01*
X0392855Y0140634D02*
Y0141251D01*
X0386556Y0140634D02*
Y0141251D01*
X0388130Y0140634D02*
Y0141251D01*
X0383406Y0140616D02*
Y0141251D01*
X0384981Y0140634D02*
Y0141251D01*
X0362934Y0137993D02*
Y0141251D01*
X0381831Y0140538D02*
Y0141251D01*
X0380256Y0140398D02*
Y0141251D01*
X0378682Y0140197D02*
Y0141251D01*
X0375532Y0139756D02*
Y0141251D01*
X0377107Y0139977D02*
Y0141251D01*
X0372382Y0139315D02*
Y0141251D01*
X0373957Y0139536D02*
Y0141251D01*
X0369233Y0138874D02*
Y0141251D01*
X0370808Y0139095D02*
Y0141251D01*
X0366083Y0138433D02*
Y0141251D01*
X0364508Y0138213D02*
Y0141251D01*
X0367658Y0138654D02*
Y0141251D01*
X0359784Y0137552D02*
Y0141251D01*
X0361359Y0137772D02*
Y0141251D01*
X0356634Y0137111D02*
Y0141251D01*
X0358209Y0137331D02*
Y0141251D01*
X0353485Y0136670D02*
Y0141251D01*
X0355060Y0136890D02*
Y0141251D01*
X0342597Y0149050D02*
X0422716D01*
X0341748Y0145657D02*
X0422716D01*
X0347186Y0144645D02*
Y0145657D01*
X0304637Y0147649D02*
Y0148290D01*
X0340796Y0144704D02*
X0341748Y0145657D01*
X0348760Y0144645D02*
Y0145657D01*
X0345611Y0144645D02*
Y0145657D01*
X0350335Y0144645D02*
Y0145657D01*
X0342461Y0144645D02*
Y0145657D01*
X0344036Y0144645D02*
Y0145657D01*
X0304637Y0148290D02*
Y0149417D01*
Y0148290D02*
Y0149417D01*
X0302213Y0149009D02*
X0304637D01*
X0302213Y0147434D02*
X0304437D01*
X0302213Y0145859D02*
X0304437D01*
Y0145717D02*
Y0147649D01*
X0304032Y0145717D02*
X0304437D01*
X0302905D02*
X0304032D01*
X0302905D02*
X0304032D01*
X0340734Y0144645D02*
X0423484D01*
X0333012Y0139646D02*
Y0141251D01*
X0331438Y0140452D02*
Y0141251D01*
X0328288Y0139746D02*
Y0141251D01*
X0329863Y0140478D02*
Y0141251D01*
X0334109Y0137985D02*
X0362883D01*
X0333108Y0139560D02*
X0374132D01*
X0315961Y0137985D02*
X0327070D01*
X0314115Y0139052D02*
Y0141251D01*
X0315690Y0138246D02*
Y0141251D01*
X0306001Y0140180D02*
Y0141251D01*
X0431772D01*
X0306001Y0141135D02*
X0431724D01*
X0302905Y0140180D02*
X0304032D01*
X0306001D01*
X0312540Y0139078D02*
Y0141251D01*
X0287661Y0139560D02*
X0328072D01*
X0310965Y0138347D02*
Y0141251D01*
X0287645Y0137985D02*
X0310573D01*
X0298363Y0149009D02*
X0298819D01*
X0298363Y0148290D02*
Y0149417D01*
Y0147434D02*
X0298819D01*
X0298363Y0148290D02*
Y0149417D01*
Y0147449D02*
Y0148290D01*
Y0145859D02*
X0298819D01*
X0298363Y0146321D02*
Y0147449D01*
X0302213Y0145717D02*
X0302905D01*
X0298363Y0146321D02*
Y0147449D01*
Y0145717D02*
Y0146321D01*
Y0145717D02*
X0298819D01*
X0292264Y0146172D02*
X0292826D01*
Y0144353D02*
X0293898D01*
X0292826D02*
Y0146172D01*
X0291951Y0145859D02*
X0292826D01*
X0290376Y0144285D02*
X0293898D01*
X0288449Y0142357D02*
X0292264Y0146172D01*
X0293898Y0143759D02*
Y0144353D01*
X0298968Y0140180D02*
X0300095D01*
X0298968D02*
X0300095D01*
X0300936D01*
X0296999D02*
Y0141251D01*
Y0140180D02*
X0298968D01*
X0302064D02*
X0302905D01*
X0304032D01*
X0300936D02*
X0302064D01*
X0300936D02*
X0302064D01*
X0288802Y0142710D02*
X0294261D01*
X0294398Y0142556D02*
X0295202Y0141751D01*
X0296406Y0141251D02*
X0296999D01*
X0287677Y0141135D02*
X0296999D01*
X0350335Y0136229D02*
Y0141251D01*
X0348760Y0136008D02*
Y0141251D01*
X0351910Y0136449D02*
Y0141251D01*
X0345611Y0135567D02*
Y0141251D01*
X0347186Y0135788D02*
Y0141251D01*
X0342461Y0135126D02*
Y0141251D01*
X0340886Y0134906D02*
Y0141251D01*
X0344036Y0135347D02*
Y0141251D01*
X0337737Y0134465D02*
Y0141251D01*
X0339312Y0134685D02*
Y0141251D01*
X0334587Y0134024D02*
Y0141251D01*
X0326713Y0132922D02*
Y0141251D01*
X0336162Y0134245D02*
Y0141251D01*
X0323564Y0132481D02*
Y0141251D01*
X0325138Y0132701D02*
Y0141251D01*
X0320414Y0132040D02*
Y0141251D01*
X0321989Y0132260D02*
Y0141251D01*
X0317264Y0131599D02*
Y0141251D01*
X0318839Y0131819D02*
Y0141251D01*
X0334260Y0136411D02*
X0351635D01*
X0333687Y0134836D02*
X0340386D01*
X0332589Y0133744D02*
X0379004Y0140242D01*
X0328288Y0133142D02*
Y0133961D01*
X0316912Y0134836D02*
X0327492D01*
X0316838Y0136411D02*
X0326919D01*
X0316243Y0133261D02*
X0329137D01*
X0299473Y0129108D02*
X0329521Y0133315D01*
X0301516Y0131686D02*
X0317889D01*
X0315690Y0131378D02*
Y0132661D01*
X0314115Y0131158D02*
Y0131855D01*
X0301516Y0133221D02*
Y0140180D01*
X0299942Y0135536D02*
Y0140180D01*
X0298367Y0136121D02*
Y0140180D01*
X0307816Y0130276D02*
Y0141251D01*
X0306241Y0130055D02*
Y0141251D01*
X0309390Y0130497D02*
Y0141251D01*
X0303091Y0129615D02*
Y0140180D01*
X0304666Y0129835D02*
Y0140180D01*
X0296792Y0135980D02*
Y0141251D01*
X0287628Y0136411D02*
X0309696D01*
X0293642Y0128292D02*
Y0144353D01*
X0295217Y0134997D02*
Y0141737D01*
X0292068Y0128071D02*
Y0145976D01*
X0290493Y0127851D02*
Y0144401D01*
X0288918Y0127630D02*
Y0142826D01*
X0287535Y0127437D02*
X0287685Y0141915D01*
X0312540Y0130937D02*
Y0131829D01*
X0300727Y0134836D02*
X0309622D01*
X0301508Y0133261D02*
X0310290D01*
X0310965Y0130717D02*
Y0132561D01*
X0300760Y0130111D02*
X0306640D01*
X0301516Y0129394D02*
Y0131686D01*
X0287612Y0134836D02*
X0295073D01*
X0287596Y0133261D02*
X0294292D01*
X0287579Y0131686D02*
X0294284D01*
X0287535Y0127437D02*
X0297306Y0128805D01*
X0287546Y0128537D02*
X0295392D01*
X0287563Y0130111D02*
X0295040D01*
X0295217Y0128512D02*
Y0129910D01*
D16*
X0684400Y0322654D02*
X0687900D01*
X0684400Y0319153D02*
Y0322654D01*
X0680900D02*
X0684400D01*
X0683500Y0256453D02*
Y0259953D01*
Y0256453D02*
X0687000D01*
X0680000D02*
X0683500D01*
Y0252954D02*
Y0256453D01*
X0575100Y0322253D02*
X0578600D01*
X0575100D02*
Y0325753D01*
X0571600Y0322253D02*
X0575100D01*
Y0318754D02*
Y0322253D01*
X0574700Y0256554D02*
X0578200D01*
X0574700D02*
Y0260053D01*
Y0253053D02*
Y0256554D01*
X0571200D02*
X0574700D01*
X0684300Y0181553D02*
X0687800D01*
X0684300D02*
Y0185054D01*
Y0178053D02*
Y0181553D01*
X0680800D02*
X0684300D01*
X0684000Y0117553D02*
Y0121054D01*
Y0117553D02*
X0687500D01*
X0684000Y0114053D02*
Y0117553D01*
X0680500D02*
X0684000D01*
X0574700Y0181754D02*
X0578200D01*
X0574700D02*
Y0185254D01*
Y0178253D02*
Y0181754D01*
X0571200D02*
X0574700D01*
X0574500Y0117853D02*
X0578000D01*
X0574500D02*
Y0121353D01*
Y0114354D02*
Y0117853D01*
X0571000D02*
X0574500D01*
X0474800Y0322064D02*
X0478300D01*
X0474800D02*
Y0325564D01*
Y0318564D02*
Y0322064D01*
X0471300D02*
X0474800D01*
X0474200Y0256053D02*
X0477700D01*
X0474200D02*
Y0259554D01*
Y0252554D02*
Y0256053D01*
X0470700D02*
X0474200D01*
X0474500Y0181954D02*
Y0185453D01*
Y0181954D02*
X0478000D01*
X0471000D02*
X0474500D01*
Y0178454D02*
Y0181954D01*
Y0118154D02*
Y0121653D01*
Y0118154D02*
X0478000D01*
X0471000D02*
X0474500D01*
Y0114654D02*
Y0118154D01*
X0329900Y0160953D02*
Y0164453D01*
X0314200Y0160953D02*
Y0164453D01*
X0329900Y0160953D02*
X0333400D01*
X0326400D02*
X0329900D01*
Y0157454D02*
Y0160953D01*
X0314200D02*
X0317700D01*
X0310700D02*
X0314200D01*
Y0157454D02*
Y0160953D01*
X0297000Y0165454D02*
Y0168954D01*
Y0161953D02*
Y0165454D01*
X0300500D01*
X0293500D02*
X0297000D01*
X0426000Y0147353D02*
X0429500D01*
X0330590Y0136854D02*
X0334090D01*
X0330590D02*
Y0140354D01*
X0327090Y0136854D02*
X0330590D01*
X0313267Y0135453D02*
X0316767D01*
X0313267D02*
Y0138953D01*
X0297900Y0132454D02*
Y0135953D01*
X0313267Y0131954D02*
Y0135453D01*
X0309767D02*
X0313267D01*
X0294400Y0132454D02*
X0297900D01*
X0301400D01*
X0014746Y0145554D02*
X0226300D01*
X0015748Y0006053D02*
Y0077105D01*
Y0005700D02*
Y0006053D01*
X0153640Y0152053D02*
X0175600D01*
X0011811Y0006053D02*
Y0077543D01*
Y0005500D02*
Y0006053D01*
X0007874D02*
Y0077728D01*
Y0005800D02*
Y0006053D01*
X0003937D02*
Y0077291D01*
Y0005100D02*
Y0006053D01*
X0270153Y0156306D02*
X0275500D01*
X0264800Y0150953D02*
X0270153Y0156306D01*
X0182046Y0150953D02*
X0264800D01*
X0175646Y0157353D02*
X0182046Y0150953D01*
X0143800Y0157353D02*
X0175646D01*
X0181300Y0149153D02*
X0274253D01*
X0174900Y0155553D02*
X0181300Y0149153D01*
X0151000Y0155553D02*
X0174900D01*
X0141800Y0155353D02*
X0143800Y0157353D01*
X0137400Y0150953D02*
X0141800Y0155353D01*
X0144600Y0149153D02*
X0148400Y0152954D01*
X0148940Y0147353D02*
X0153640Y0152053D01*
X0014000Y0147353D02*
X0148940D01*
X0148400Y0152954D02*
X0151000Y0155553D01*
X0175600Y0152053D02*
X0180300Y0147353D01*
X0227046D01*
X0013254Y0149153D02*
X0144600D01*
X0012509Y0150953D02*
X0137400D01*
X0339593Y0145901D02*
X0341046Y0147353D01*
X0307405Y0145901D02*
X0339593D01*
X0341046Y0147353D02*
X0426000D01*
X0307405Y0149838D02*
X0337984D01*
X0340828Y0155353D02*
X0426000D01*
X0337437Y0151963D02*
X0340828Y0155353D01*
X0307562Y0151963D02*
X0337437D01*
X0341700Y0153553D02*
X0426746D01*
X0337984Y0149838D02*
X0341700Y0153553D01*
X0287246Y0143553D02*
X0291561Y0147869D01*
X0228300Y0143553D02*
X0287246D01*
X0226300Y0145554D02*
X0228300Y0143553D01*
X0286500Y0145353D02*
X0290984Y0149838D01*
X0229046Y0145353D02*
X0286500D01*
X0227046Y0147353D02*
X0229046Y0145353D01*
X0006900Y0080253D02*
Y0145345D01*
X0003937Y0077291D02*
X0006900Y0080253D01*
X0429600Y0151753D02*
X0432000Y0149354D01*
X0342900Y0151753D02*
X0429600D01*
X0339016Y0147869D02*
X0342900Y0151753D01*
X0426746Y0153553D02*
X0434000Y0160808D01*
X0426000Y0155353D02*
X0431200Y0160554D01*
X0307405Y0147869D02*
X0339016D01*
X0434000Y0160808D02*
Y0212353D01*
X0431200Y0160554D02*
Y0279053D01*
X0739595Y0142948D02*
X0745000Y0148354D01*
X0304453Y0142948D02*
X0739595D01*
X0432000Y0149354D02*
X0443000D01*
X0307405Y0151806D02*
X0307562Y0151963D01*
X0434000Y0212353D02*
X0442500Y0220853D01*
X0274253Y0149153D02*
X0275500Y0150401D01*
X0300516Y0142948D02*
Y0154759D01*
X0298547Y0142948D02*
X0300516D01*
X0296406D02*
X0298547D01*
X0295595Y0143759D02*
X0296406Y0142948D01*
X0295595Y0143759D02*
Y0145901D01*
X0302484Y0154759D02*
X0304453D01*
X0300516D02*
X0302484D01*
X0298547D02*
X0300516D01*
X0292595D02*
X0298547D01*
X0291047Y0156306D02*
X0292595Y0154759D01*
X0284000Y0156306D02*
X0291047D01*
X0289453Y0151806D02*
X0295595D01*
X0288047Y0150401D02*
X0289453Y0151806D01*
X0284000Y0150401D02*
X0288047D01*
X0291561Y0147869D02*
X0295595D01*
X0290984Y0149838D02*
X0295595D01*
X0745000Y0148354D02*
X0791500D01*
X0431200Y0279053D02*
X0442000Y0289854D01*
X0275500Y0150401D02*
X0284000D01*
X0275500Y0156306D02*
X0284000D01*
X0010500Y0143853D02*
X0014000Y0147353D01*
X0006900Y0145345D02*
X0012509Y0150953D01*
X0012300Y0143108D02*
X0014746Y0145554D01*
X0008700Y0144599D02*
X0013254Y0149153D01*
X0012300Y0080554D02*
Y0143108D01*
Y0080554D02*
X0015748Y0077105D01*
X0008700Y0078553D02*
Y0144599D01*
X0007874Y0077728D02*
X0008700Y0078553D01*
X0010500Y0078853D02*
Y0143853D01*
Y0078853D02*
X0011811Y0077543D01*
D17*
X0297900Y0132454D02*
D03*
X0297000Y0165454D02*
D03*
X0330590Y0136854D02*
D03*
X0313267Y0135453D02*
D03*
X0329900Y0160953D02*
D03*
X0314200D02*
D03*
X0474800Y0322064D02*
D03*
X0575100Y0322253D02*
D03*
X0684400Y0322654D02*
D03*
X0683500Y0256453D02*
D03*
X0574700Y0256554D02*
D03*
X0474200Y0256053D02*
D03*
X0474500Y0181954D02*
D03*
X0574700Y0181754D02*
D03*
X0684300Y0181553D02*
D03*
X0684000Y0117553D02*
D03*
X0574500Y0117853D02*
D03*
X0474500Y0118154D02*
D03*
X0172900Y0145653D02*
D03*
X0259200Y0134254D02*
D03*
X0259600Y0161054D02*
D03*
X0426000Y0147353D02*
D03*
X0791500Y0148354D02*
D03*
X0442000Y0289854D02*
D03*
X0442500Y0220853D02*
D03*
X0443000Y0149354D02*
D03*
D18*
X0155200Y0151854D02*
D03*
X0148400Y0152954D02*
D03*
X0141800Y0155353D02*
D03*
D19*
X0015748Y0006053D02*
D03*
X0011811D02*
D03*
X0007874D02*
D03*
X0003937D02*
D03*
D20*
X0275500Y0156306D02*
D03*
Y0150401D02*
D03*
X0284000Y0156306D02*
D03*
Y0150401D02*
D03*
D21*
X0298547Y0142948D02*
D03*
X0300516D02*
D03*
X0302484D02*
D03*
X0304453D02*
D03*
Y0154759D02*
D03*
X0302484D02*
D03*
X0300516D02*
D03*
X0298547D02*
D03*
D22*
X0307405Y0145901D02*
D03*
Y0147869D02*
D03*
Y0149838D02*
D03*
Y0151806D02*
D03*
X0295595D02*
D03*
Y0149838D02*
D03*
Y0147869D02*
D03*
Y0145901D02*
D03*
M02*
