G04*
G04 #@! TF.GenerationSoftware,Altium Limited,Altium Designer,18.0.7 (293)*
G04*
G04 Layer_Color=16711935*
%FSAX25Y25*%
%MOIN*%
G70*
G01*
G75*
%ADD13C,0.05800*%
%ADD14C,0.04737*%
%ADD23R,0.03556X0.14580*%
%ADD24R,0.06312X0.05131*%
%ADD25R,0.01502X0.03943*%
%ADD26R,0.03943X0.01502*%
D13*
X0297900Y0132454D02*
D03*
X0297000Y0165454D02*
D03*
X0330590Y0136854D02*
D03*
X0313267Y0135453D02*
D03*
X0329900Y0160953D02*
D03*
X0314200D02*
D03*
X0474800Y0322064D02*
D03*
X0575100Y0322253D02*
D03*
X0684400Y0322654D02*
D03*
X0683500Y0256453D02*
D03*
X0574700Y0256554D02*
D03*
X0474200Y0256053D02*
D03*
X0474500Y0181954D02*
D03*
X0574700Y0181754D02*
D03*
X0684300Y0181553D02*
D03*
X0684000Y0117553D02*
D03*
X0574500Y0117853D02*
D03*
X0474500Y0118154D02*
D03*
X0172900Y0145653D02*
D03*
X0259200Y0134254D02*
D03*
X0259600Y0161054D02*
D03*
X0426000Y0147353D02*
D03*
X0791500Y0148354D02*
D03*
X0442000Y0289854D02*
D03*
X0442500Y0220853D02*
D03*
X0443000Y0149354D02*
D03*
D14*
X0155200Y0151854D02*
D03*
X0148400Y0152954D02*
D03*
X0141800Y0155353D02*
D03*
D23*
X0015748Y0006053D02*
D03*
X0011811D02*
D03*
X0007874D02*
D03*
X0003937D02*
D03*
D24*
X0275500Y0156306D02*
D03*
Y0150401D02*
D03*
X0284000Y0156306D02*
D03*
Y0150401D02*
D03*
D25*
X0298547Y0142948D02*
D03*
X0300516D02*
D03*
X0302484D02*
D03*
X0304453D02*
D03*
Y0154759D02*
D03*
X0302484D02*
D03*
X0300516D02*
D03*
X0298547D02*
D03*
D26*
X0307405Y0145901D02*
D03*
Y0147869D02*
D03*
Y0149838D02*
D03*
Y0151806D02*
D03*
X0295595D02*
D03*
Y0149838D02*
D03*
Y0147869D02*
D03*
Y0145901D02*
D03*
M02*
