M48
;Layer_Color=9474304
;FILE_FORMAT=2:5
INCH
;TYPE=PLATED
T1F00S00C0.02362
T2F00S00C0.02800
%
T01
X0443000Y0149354
X0474500Y0118154
X0428600Y0145600
X0316800Y0148500
Y0154250
Y0142675
Y0136850
X0266400Y0138000
Y0144067
Y0150133
Y0156200
X0169200Y0142900
X0154900Y0151300
X0148000Y0152500
X0141700Y0154600
X0316800Y0160150
X0474500Y0181954
X0442500Y0220853
X0474200Y0256053
X0442000Y0289854
X0474800Y0322064
T02
X0791500Y0148354
X0297200Y0133200
X0250300Y0133700
X0251200Y0165900
X0297300Y0165300
M30
