G04*
G04 #@! TF.GenerationSoftware,Altium Limited,Altium Designer,18.0.7 (293)*
G04*
G04 Layer_Physical_Order=1*
G04 Layer_Color=255*
%FSAX25Y25*%
%MOIN*%
G70*
G01*
G75*
%ADD11R,0.04724X0.07874*%
%ADD15C,0.00394*%
%ADD16C,0.01000*%
%ADD17C,0.03937*%
%ADD18C,0.05000*%
G36*
X1977848Y0242756D02*
X1978010Y0241523D01*
X1978486Y0240374D01*
X1979243Y0239387D01*
X1980230Y0238630D01*
X1981380Y0238154D01*
X1982613Y0237991D01*
X2004266D01*
Y0227314D01*
X1982613D01*
X1981380Y0227152D01*
X1980230Y0226676D01*
X1979243Y0225919D01*
X1978486Y0224932D01*
X1978010Y0223782D01*
X1977848Y0222549D01*
Y0209449D01*
X1972393D01*
X1972186Y0209949D01*
X1972369Y0210132D01*
X1972653Y0210502D01*
X1972961Y0210854D01*
X1973392Y0211498D01*
X1973599Y0211918D01*
X1973833Y0212322D01*
X1974129Y0213039D01*
X1974250Y0213490D01*
X1974401Y0213933D01*
X1974552Y0214693D01*
X1974582Y0215160D01*
X1974643Y0215623D01*
Y0216399D01*
X1974582Y0216862D01*
X1974552Y0217328D01*
X1974401Y0218089D01*
X1974250Y0218531D01*
X1974129Y0218983D01*
X1973833Y0219699D01*
X1973599Y0220104D01*
X1973392Y0220523D01*
X1972961Y0221168D01*
X1972653Y0221519D01*
X1972369Y0221890D01*
X1971820Y0222438D01*
X1971450Y0222723D01*
X1971098Y0223031D01*
X1970453Y0223462D01*
X1970034Y0223669D01*
X1969630Y0223902D01*
X1968913Y0224199D01*
X1968462Y0224320D01*
X1968019Y0224470D01*
X1967259Y0224622D01*
X1966792Y0224652D01*
X1966329Y0224713D01*
X1965553D01*
X1965090Y0224652D01*
X1964624Y0224622D01*
X1963863Y0224470D01*
X1963421Y0224320D01*
X1962969Y0224199D01*
X1962253Y0223902D01*
X1961848Y0223669D01*
X1961429Y0223462D01*
X1960784Y0223031D01*
X1960433Y0222723D01*
X1960062Y0222438D01*
X1959514Y0221890D01*
X1959229Y0221519D01*
X1958921Y0221168D01*
X1958490Y0220523D01*
X1958283Y0220104D01*
X1958050Y0219699D01*
X1957753Y0218983D01*
X1957632Y0218531D01*
X1957482Y0218089D01*
X1957331Y0217328D01*
X1957300Y0216862D01*
X1957239Y0216399D01*
Y0215623D01*
X1957300Y0215160D01*
X1957331Y0214693D01*
X1957482Y0213933D01*
X1957632Y0213490D01*
X1957753Y0213039D01*
X1958050Y0212322D01*
X1958284Y0211918D01*
X1958490Y0211498D01*
X1958921Y0210854D01*
X1959229Y0210502D01*
X1959514Y0210132D01*
X1959696Y0209949D01*
X1959489Y0209449D01*
X1954035D01*
Y0222549D01*
X1953872Y0223782D01*
X1953396Y0224932D01*
X1952639Y0225919D01*
X1951652Y0226676D01*
X1950503Y0227152D01*
X1949270Y0227314D01*
X1927616D01*
X1926383Y0227152D01*
X1925233Y0226676D01*
X1924247Y0225919D01*
X1923489Y0224932D01*
X1923013Y0223782D01*
X1922851Y0222549D01*
Y0209449D01*
X1909150D01*
Y0222549D01*
X1908987Y0223782D01*
X1908511Y0224932D01*
X1907754Y0225919D01*
X1906767Y0226676D01*
X1905618Y0227152D01*
X1904384Y0227314D01*
X1882731D01*
X1881498Y0227152D01*
X1880348Y0226676D01*
X1879362Y0225919D01*
X1878604Y0224932D01*
X1878128Y0223782D01*
X1877966Y0222549D01*
Y0209449D01*
X1872629D01*
X1872438Y0209911D01*
X1872497Y0209971D01*
X1872782Y0210342D01*
X1873090Y0210693D01*
X1873521Y0211338D01*
X1873727Y0211757D01*
X1873961Y0212162D01*
X1874258Y0212878D01*
X1874379Y0213330D01*
X1874529Y0213772D01*
X1874680Y0214533D01*
X1874711Y0214999D01*
X1874772Y0215462D01*
Y0216238D01*
X1874711Y0216701D01*
X1874680Y0217167D01*
X1874529Y0217928D01*
X1874379Y0218371D01*
X1874258Y0218822D01*
X1873961Y0219538D01*
X1873727Y0219943D01*
X1873521Y0220362D01*
X1873090Y0221007D01*
X1872782Y0221358D01*
X1872497Y0221729D01*
X1871949Y0222278D01*
X1871578Y0222562D01*
X1871227Y0222870D01*
X1870582Y0223301D01*
X1870163Y0223508D01*
X1869758Y0223741D01*
X1869042Y0224038D01*
X1868590Y0224159D01*
X1868148Y0224309D01*
X1867387Y0224461D01*
X1866921Y0224491D01*
X1866458Y0224552D01*
X1865682D01*
X1865219Y0224491D01*
X1864752Y0224461D01*
X1863992Y0224309D01*
X1863549Y0224159D01*
X1863098Y0224038D01*
X1862381Y0223741D01*
X1861977Y0223508D01*
X1861558Y0223301D01*
X1860913Y0222870D01*
X1860561Y0222562D01*
X1860191Y0222278D01*
X1859642Y0221729D01*
X1859358Y0221358D01*
X1859050Y0221007D01*
X1858619Y0220362D01*
X1858412Y0219943D01*
X1858178Y0219538D01*
X1857882Y0218822D01*
X1857761Y0218371D01*
X1857610Y0217928D01*
X1857459Y0217167D01*
X1857429Y0216701D01*
X1857368Y0216238D01*
Y0215462D01*
X1857429Y0214999D01*
X1857459Y0214533D01*
X1857610Y0213772D01*
X1857761Y0213329D01*
X1857882Y0212878D01*
X1858178Y0212162D01*
X1858412Y0211757D01*
X1858619Y0211338D01*
X1859050Y0210693D01*
X1859358Y0210342D01*
X1859642Y0209971D01*
X1859702Y0209911D01*
X1859510Y0209449D01*
X1854153D01*
Y0222549D01*
X1853991Y0223782D01*
X1853514Y0224932D01*
X1852757Y0225919D01*
X1851770Y0226676D01*
X1850621Y0227152D01*
X1849388Y0227314D01*
X1827734D01*
X1826501Y0227152D01*
X1825352Y0226676D01*
X1824365Y0225919D01*
X1823607Y0224932D01*
X1823131Y0223782D01*
X1822969Y0222549D01*
Y0209449D01*
X1809347D01*
Y0222549D01*
X1809184Y0223782D01*
X1808708Y0224932D01*
X1807951Y0225919D01*
X1806964Y0226676D01*
X1805815Y0227152D01*
X1804581Y0227314D01*
X1782928D01*
X1781694Y0227152D01*
X1780545Y0226676D01*
X1779558Y0225919D01*
X1778801Y0224932D01*
X1778325Y0223782D01*
X1778163Y0222549D01*
Y0209449D01*
X1762962D01*
X1762771Y0209911D01*
X1762831Y0209971D01*
X1763115Y0210342D01*
X1763423Y0210693D01*
X1763854Y0211338D01*
X1764061Y0211757D01*
X1764294Y0212162D01*
X1764591Y0212878D01*
X1764712Y0213330D01*
X1764862Y0213772D01*
X1765014Y0214533D01*
X1765044Y0214999D01*
X1765105Y0215462D01*
Y0216238D01*
X1765044Y0216701D01*
X1765014Y0217167D01*
X1764862Y0217928D01*
X1764712Y0218371D01*
X1764591Y0218822D01*
X1764294Y0219538D01*
X1764061Y0219943D01*
X1763854Y0220362D01*
X1763423Y0221007D01*
X1763115Y0221358D01*
X1762831Y0221729D01*
X1762282Y0222278D01*
X1761911Y0222562D01*
X1761560Y0222870D01*
X1760915Y0223301D01*
X1760496Y0223508D01*
X1760091Y0223741D01*
X1759375Y0224038D01*
X1758924Y0224159D01*
X1758481Y0224309D01*
X1757720Y0224461D01*
X1757254Y0224491D01*
X1756791Y0224552D01*
X1756015D01*
X1755552Y0224491D01*
X1755086Y0224461D01*
X1754325Y0224309D01*
X1753882Y0224159D01*
X1753431Y0224038D01*
X1752715Y0223741D01*
X1752310Y0223508D01*
X1751891Y0223301D01*
X1751246Y0222870D01*
X1750895Y0222562D01*
X1750524Y0222278D01*
X1749975Y0221729D01*
X1749691Y0221358D01*
X1749383Y0221007D01*
X1748952Y0220362D01*
X1748745Y0219943D01*
X1748512Y0219538D01*
X1748215Y0218822D01*
X1748094Y0218371D01*
X1747944Y0217928D01*
X1747792Y0217167D01*
X1747762Y0216701D01*
X1747701Y0216238D01*
Y0215462D01*
X1747762Y0214999D01*
X1747792Y0214533D01*
X1747944Y0213772D01*
X1748094Y0213329D01*
X1748215Y0212878D01*
X1748512Y0212162D01*
X1748745Y0211757D01*
X1748952Y0211338D01*
X1749383Y0210693D01*
X1749691Y0210342D01*
X1749975Y0209971D01*
X1750035Y0209911D01*
X1749844Y0209449D01*
X1734468D01*
Y0222549D01*
X1734306Y0223782D01*
X1733829Y0224932D01*
X1733072Y0225919D01*
X1732085Y0226676D01*
X1730936Y0227152D01*
X1729703Y0227314D01*
X1708049D01*
Y0237991D01*
X1729703D01*
X1730936Y0238154D01*
X1732085Y0238630D01*
X1733072Y0239387D01*
X1733829Y0240374D01*
X1734306Y0241523D01*
X1734468Y0242756D01*
Y0255856D01*
X1749939D01*
X1750146Y0255356D01*
X1749975Y0255185D01*
X1749691Y0254815D01*
X1749383Y0254463D01*
X1748952Y0253819D01*
X1748745Y0253399D01*
X1748512Y0252995D01*
X1748215Y0252278D01*
X1748094Y0251827D01*
X1747944Y0251384D01*
X1747792Y0250624D01*
X1747762Y0250157D01*
X1747701Y0249694D01*
Y0248919D01*
X1747762Y0248455D01*
X1747792Y0247989D01*
X1747944Y0247228D01*
X1748094Y0246786D01*
X1748215Y0246334D01*
X1748512Y0245618D01*
X1748745Y0245213D01*
X1748952Y0244794D01*
X1749383Y0244149D01*
X1749691Y0243798D01*
X1749975Y0243427D01*
X1750524Y0242879D01*
X1750895Y0242594D01*
X1751246Y0242286D01*
X1751891Y0241855D01*
X1752310Y0241649D01*
X1752715Y0241415D01*
X1753431Y0241118D01*
X1753882Y0240997D01*
X1754325Y0240847D01*
X1755086Y0240696D01*
X1755552Y0240665D01*
X1756015Y0240604D01*
X1756791D01*
X1757254Y0240665D01*
X1757720Y0240696D01*
X1758481Y0240847D01*
X1758924Y0240997D01*
X1759375Y0241118D01*
X1760091Y0241415D01*
X1760496Y0241649D01*
X1760915Y0241855D01*
X1761560Y0242286D01*
X1761911Y0242594D01*
X1762282Y0242879D01*
X1762831Y0243427D01*
X1763115Y0243798D01*
X1763423Y0244149D01*
X1763854Y0244794D01*
X1764061Y0245213D01*
X1764294Y0245618D01*
X1764591Y0246334D01*
X1764712Y0246786D01*
X1764862Y0247228D01*
X1765014Y0247989D01*
X1765044Y0248455D01*
X1765105Y0248919D01*
Y0249694D01*
X1765044Y0250157D01*
X1765014Y0250624D01*
X1764862Y0251384D01*
X1764712Y0251827D01*
X1764591Y0252278D01*
X1764294Y0252995D01*
X1764061Y0253399D01*
X1763854Y0253819D01*
X1763423Y0254463D01*
X1763115Y0254815D01*
X1762831Y0255185D01*
X1762660Y0255356D01*
X1762867Y0255856D01*
X1778163D01*
Y0242756D01*
X1778325Y0241523D01*
X1778801Y0240374D01*
X1779558Y0239387D01*
X1780545Y0238630D01*
X1781694Y0238154D01*
X1782928Y0237991D01*
X1804581D01*
X1805815Y0238154D01*
X1806964Y0238630D01*
X1807951Y0239387D01*
X1808708Y0240374D01*
X1809184Y0241523D01*
X1809347Y0242756D01*
Y0255856D01*
X1822969D01*
Y0242756D01*
X1823131Y0241523D01*
X1823607Y0240374D01*
X1824365Y0239387D01*
X1825352Y0238630D01*
X1826501Y0238154D01*
X1827734Y0237991D01*
X1849388D01*
X1850621Y0238154D01*
X1851770Y0238630D01*
X1852757Y0239387D01*
X1853514Y0240374D01*
X1853991Y0241523D01*
X1854153Y0242756D01*
Y0255856D01*
X1859606D01*
X1859813Y0255356D01*
X1859642Y0255185D01*
X1859358Y0254815D01*
X1859050Y0254463D01*
X1858619Y0253819D01*
X1858412Y0253399D01*
X1858178Y0252995D01*
X1857882Y0252278D01*
X1857761Y0251827D01*
X1857610Y0251384D01*
X1857459Y0250624D01*
X1857429Y0250157D01*
X1857368Y0249694D01*
Y0248919D01*
X1857429Y0248455D01*
X1857459Y0247989D01*
X1857610Y0247228D01*
X1857761Y0246786D01*
X1857882Y0246334D01*
X1858178Y0245618D01*
X1858412Y0245213D01*
X1858619Y0244794D01*
X1859050Y0244149D01*
X1859358Y0243798D01*
X1859642Y0243427D01*
X1860191Y0242879D01*
X1860561Y0242594D01*
X1860913Y0242286D01*
X1861558Y0241855D01*
X1861977Y0241649D01*
X1862381Y0241415D01*
X1863098Y0241118D01*
X1863549Y0240997D01*
X1863992Y0240847D01*
X1864752Y0240696D01*
X1865219Y0240665D01*
X1865682Y0240604D01*
X1866458D01*
X1866921Y0240665D01*
X1867387Y0240696D01*
X1868148Y0240847D01*
X1868590Y0240997D01*
X1869042Y0241118D01*
X1869758Y0241415D01*
X1870163Y0241649D01*
X1870582Y0241855D01*
X1871227Y0242286D01*
X1871578Y0242594D01*
X1871949Y0242879D01*
X1872497Y0243427D01*
X1872782Y0243798D01*
X1873090Y0244149D01*
X1873521Y0244794D01*
X1873727Y0245213D01*
X1873961Y0245618D01*
X1874258Y0246334D01*
X1874379Y0246786D01*
X1874529Y0247228D01*
X1874680Y0247989D01*
X1874711Y0248455D01*
X1874772Y0248919D01*
Y0249694D01*
X1874711Y0250157D01*
X1874680Y0250624D01*
X1874529Y0251384D01*
X1874379Y0251827D01*
X1874258Y0252278D01*
X1873961Y0252995D01*
X1873727Y0253399D01*
X1873521Y0253819D01*
X1873090Y0254463D01*
X1872782Y0254815D01*
X1872497Y0255185D01*
X1872327Y0255356D01*
X1872534Y0255856D01*
X1877966D01*
Y0242756D01*
X1878128Y0241523D01*
X1878604Y0240374D01*
X1879362Y0239387D01*
X1880348Y0238630D01*
X1881498Y0238154D01*
X1882731Y0237991D01*
X1904384D01*
X1905618Y0238154D01*
X1906767Y0238630D01*
X1907754Y0239387D01*
X1908511Y0240374D01*
X1908987Y0241523D01*
X1909150Y0242756D01*
Y0255856D01*
X1922851D01*
Y0242756D01*
X1923013Y0241523D01*
X1923489Y0240374D01*
X1924247Y0239387D01*
X1925233Y0238630D01*
X1926383Y0238154D01*
X1927616Y0237991D01*
X1949270D01*
X1950503Y0238154D01*
X1951652Y0238630D01*
X1952639Y0239387D01*
X1953396Y0240374D01*
X1953872Y0241523D01*
X1954035Y0242756D01*
Y0255856D01*
X1959477D01*
X1959685Y0255356D01*
X1959514Y0255185D01*
X1959229Y0254815D01*
X1958921Y0254463D01*
X1958490Y0253819D01*
X1958283Y0253399D01*
X1958050Y0252995D01*
X1957753Y0252278D01*
X1957632Y0251827D01*
X1957482Y0251384D01*
X1957331Y0250624D01*
X1957300Y0250157D01*
X1957239Y0249694D01*
Y0248919D01*
X1957300Y0248455D01*
X1957331Y0247989D01*
X1957482Y0247228D01*
X1957632Y0246786D01*
X1957753Y0246334D01*
X1958050Y0245618D01*
X1958284Y0245213D01*
X1958490Y0244794D01*
X1958921Y0244149D01*
X1959229Y0243798D01*
X1959514Y0243427D01*
X1960062Y0242879D01*
X1960433Y0242594D01*
X1960784Y0242286D01*
X1961429Y0241855D01*
X1961848Y0241649D01*
X1962253Y0241415D01*
X1962969Y0241118D01*
X1963421Y0240997D01*
X1963863Y0240847D01*
X1964624Y0240696D01*
X1965090Y0240665D01*
X1965553Y0240604D01*
X1966329D01*
X1966792Y0240665D01*
X1967259Y0240696D01*
X1968019Y0240847D01*
X1968462Y0240997D01*
X1968913Y0241118D01*
X1969630Y0241415D01*
X1970034Y0241649D01*
X1970453Y0241855D01*
X1971098Y0242286D01*
X1971450Y0242594D01*
X1971820Y0242879D01*
X1972369Y0243427D01*
X1972653Y0243798D01*
X1972961Y0244149D01*
X1973392Y0244794D01*
X1973599Y0245213D01*
X1973833Y0245618D01*
X1974129Y0246334D01*
X1974250Y0246786D01*
X1974401Y0247228D01*
X1974552Y0247989D01*
X1974582Y0248455D01*
X1974643Y0248919D01*
Y0249694D01*
X1974582Y0250157D01*
X1974552Y0250624D01*
X1974401Y0251384D01*
X1974250Y0251827D01*
X1974129Y0252278D01*
X1973833Y0252995D01*
X1973599Y0253399D01*
X1973392Y0253819D01*
X1972961Y0254463D01*
X1972653Y0254815D01*
X1972369Y0255185D01*
X1972198Y0255356D01*
X1972405Y0255856D01*
X1977848D01*
Y0242756D01*
D02*
G37*
G36*
Y0175591D02*
X1978010Y0174358D01*
X1978486Y0173208D01*
X1979243Y0172222D01*
X1980230Y0171464D01*
X1981380Y0170988D01*
X1982613Y0170826D01*
X2004266D01*
Y0154086D01*
X1982613D01*
X1981380Y0153924D01*
X1980230Y0153448D01*
X1979243Y0152690D01*
X1978486Y0151703D01*
X1978010Y0150554D01*
X1977848Y0149321D01*
Y0136221D01*
X1954035D01*
Y0149321D01*
X1953872Y0150554D01*
X1953396Y0151703D01*
X1952639Y0152690D01*
X1951652Y0153448D01*
X1950503Y0153924D01*
X1949270Y0154086D01*
X1927616D01*
X1926383Y0153924D01*
X1925233Y0153448D01*
X1924247Y0152690D01*
X1923489Y0151703D01*
X1923013Y0150554D01*
X1922851Y0149321D01*
Y0136221D01*
X1909150D01*
Y0149321D01*
X1908987Y0150554D01*
X1908511Y0151703D01*
X1907754Y0152690D01*
X1906767Y0153448D01*
X1905618Y0153924D01*
X1904384Y0154086D01*
X1882731D01*
X1881498Y0153924D01*
X1880348Y0153448D01*
X1879362Y0152690D01*
X1878604Y0151703D01*
X1878128Y0150554D01*
X1877966Y0149321D01*
Y0136221D01*
X1854153D01*
Y0149321D01*
X1853991Y0150554D01*
X1853514Y0151703D01*
X1852757Y0152690D01*
X1851770Y0153448D01*
X1850621Y0153924D01*
X1849388Y0154086D01*
X1827734D01*
X1826501Y0153924D01*
X1825352Y0153448D01*
X1824365Y0152690D01*
X1823607Y0151703D01*
X1823131Y0150554D01*
X1822969Y0149321D01*
Y0136221D01*
X1809347D01*
Y0149321D01*
X1809184Y0150554D01*
X1808708Y0151703D01*
X1807951Y0152690D01*
X1806964Y0153448D01*
X1805815Y0153924D01*
X1804581Y0154086D01*
X1782928D01*
X1781694Y0153924D01*
X1780545Y0153448D01*
X1779558Y0152690D01*
X1778801Y0151703D01*
X1778325Y0150554D01*
X1778163Y0149321D01*
Y0136221D01*
X1734468D01*
Y0149321D01*
X1734306Y0150554D01*
X1733829Y0151703D01*
X1733072Y0152690D01*
X1732085Y0153448D01*
X1730936Y0153924D01*
X1729703Y0154086D01*
X1708049D01*
Y0170826D01*
X1729703D01*
X1730936Y0170988D01*
X1732085Y0171464D01*
X1733072Y0172222D01*
X1733829Y0173208D01*
X1734306Y0174358D01*
X1734468Y0175591D01*
Y0188691D01*
X1778163D01*
Y0175591D01*
X1778325Y0174358D01*
X1778801Y0173208D01*
X1779558Y0172222D01*
X1780545Y0171464D01*
X1781694Y0170988D01*
X1782928Y0170826D01*
X1804581D01*
X1805815Y0170988D01*
X1806964Y0171464D01*
X1807951Y0172222D01*
X1808708Y0173208D01*
X1809184Y0174358D01*
X1809347Y0175591D01*
Y0188691D01*
X1822969D01*
Y0175591D01*
X1823131Y0174358D01*
X1823607Y0173208D01*
X1824365Y0172222D01*
X1825352Y0171464D01*
X1826501Y0170988D01*
X1827734Y0170826D01*
X1849388D01*
X1850621Y0170988D01*
X1851770Y0171464D01*
X1852757Y0172222D01*
X1853514Y0173208D01*
X1853991Y0174358D01*
X1854153Y0175591D01*
Y0188691D01*
X1877966D01*
Y0175591D01*
X1878128Y0174358D01*
X1878604Y0173208D01*
X1879362Y0172222D01*
X1880348Y0171464D01*
X1881498Y0170988D01*
X1882731Y0170826D01*
X1904384D01*
X1905618Y0170988D01*
X1906767Y0171464D01*
X1907754Y0172222D01*
X1908511Y0173208D01*
X1908987Y0174358D01*
X1909150Y0175591D01*
Y0188691D01*
X1922851D01*
Y0175591D01*
X1923013Y0174358D01*
X1923489Y0173208D01*
X1924247Y0172222D01*
X1925233Y0171464D01*
X1926383Y0170988D01*
X1927616Y0170826D01*
X1949270D01*
X1950503Y0170988D01*
X1951652Y0171464D01*
X1952639Y0172222D01*
X1953396Y0173208D01*
X1953872Y0174358D01*
X1954035Y0175591D01*
Y0188691D01*
X1977848D01*
Y0175591D01*
D02*
G37*
G36*
X2188053Y0114164D02*
X2191775Y0113612D01*
X2195425Y0112697D01*
X2198968Y0111430D01*
X2202369Y0109821D01*
X2205596Y0107887D01*
X2206264Y0107391D01*
X2206273Y0107404D01*
X2210708Y0104300D01*
X2210788Y0104265D01*
X2212218Y0103309D01*
X2214653Y0102108D01*
X2217224Y0101235D01*
X2219887Y0100706D01*
X2222596Y0100528D01*
Y0100553D01*
X2439755D01*
Y-0049429D01*
X2439743D01*
X2439869Y-0050059D01*
X2440226Y-0050594D01*
X2440760Y-0050951D01*
X2440800Y-0050959D01*
Y-0052805D01*
X2440582Y-0052929D01*
X2440486Y-0053012D01*
X2440226Y-0053186D01*
X2439869Y-0053720D01*
X2439743Y-0054350D01*
X2439755D01*
Y-0057500D01*
X2439755Y-0057500D01*
X2439734D01*
X2439700Y-0057581D01*
X2439619Y-0057615D01*
Y-0057636D01*
X2422296D01*
Y-0057615D01*
X2422215Y-0057581D01*
X2422181Y-0057500D01*
X2422160D01*
Y-0054350D01*
X2422172D01*
X2422046Y-0053720D01*
X2421689Y-0053186D01*
X2421429Y-0053012D01*
X2421333Y-0052929D01*
X2421115Y-0052805D01*
Y-0050959D01*
X2421155Y-0050951D01*
X2421689Y-0050594D01*
X2422046Y-0050059D01*
X2422172Y-0049429D01*
X2422160D01*
Y0081913D01*
X2422080Y0082313D01*
X2421854Y0082652D01*
X2421515Y0082878D01*
X2421115Y0082958D01*
X2302255D01*
Y0091537D01*
X2301369D01*
X2301259Y0092037D01*
X2301693Y0092603D01*
X2301992Y0093325D01*
X2302094Y0094100D01*
X2301992Y0094875D01*
X2301693Y0095597D01*
X2301217Y0096217D01*
X2300597Y0096693D01*
X2299875Y0096992D01*
X2299100Y0097094D01*
X2298325Y0096992D01*
X2297603Y0096693D01*
X2296983Y0096217D01*
X2296507Y0095597D01*
X2296208Y0094875D01*
X2296106Y0094100D01*
X2296208Y0093325D01*
X2296507Y0092603D01*
X2296941Y0092037D01*
X2296831Y0091537D01*
X2295931D01*
Y0091537D01*
X2295562D01*
X2295366Y0091677D01*
X2295193Y0092203D01*
X2295492Y0092925D01*
X2295594Y0093700D01*
X2295492Y0094475D01*
X2295193Y0095197D01*
X2294717Y0095817D01*
X2294097Y0096293D01*
X2293375Y0096592D01*
X2292600Y0096694D01*
X2291825Y0096592D01*
X2291103Y0096293D01*
X2290483Y0095817D01*
X2290007Y0095197D01*
X2289708Y0094475D01*
X2289606Y0093700D01*
X2289708Y0092925D01*
X2290007Y0092203D01*
X2290134Y0092037D01*
X2289888Y0091537D01*
X2289238D01*
Y0091537D01*
X2288869D01*
X2288444Y0091591D01*
X2288240Y0092034D01*
X2288293Y0092103D01*
X2288592Y0092825D01*
X2288694Y0093600D01*
X2288592Y0094375D01*
X2288293Y0095097D01*
X2287817Y0095717D01*
X2287197Y0096193D01*
X2286475Y0096492D01*
X2285700Y0096594D01*
X2284925Y0096492D01*
X2284203Y0096193D01*
X2283583Y0095717D01*
X2283107Y0095097D01*
X2282808Y0094375D01*
X2282706Y0093600D01*
X2282808Y0092825D01*
X2283107Y0092103D01*
X2283154Y0092041D01*
X2282943Y0091599D01*
X2282851Y0091593D01*
X2282376Y0091737D01*
X2282376Y0091737D01*
X2282376Y0091737D01*
X2279514D01*
Y0086800D01*
X2279014D01*
Y0086300D01*
X2275652D01*
Y0082958D01*
X2222596D01*
X2222596Y0082958D01*
Y0082982D01*
X2219887Y0082805D01*
X2217224Y0082275D01*
X2214653Y0081402D01*
X2212218Y0080202D01*
X2210788Y0079246D01*
X2210708Y0079210D01*
X2206273Y0076106D01*
X2206264Y0076119D01*
X2205596Y0075624D01*
X2202369Y0073689D01*
X2198968Y0072080D01*
X2195425Y0070813D01*
X2191775Y0069899D01*
X2188053Y0069346D01*
X2184361Y0069165D01*
X2184295Y0069178D01*
X2160078D01*
X2160012Y0069165D01*
X2156320Y0069346D01*
X2154768Y0069577D01*
Y0069577D01*
X2154768Y0069577D01*
X2154285Y0069697D01*
X2154216Y0069804D01*
X2154219Y0070149D01*
X2154264Y0070492D01*
Y0070816D01*
Y0113019D01*
X2154219Y0113361D01*
X2154216Y0113707D01*
X2154285Y0113813D01*
X2154768Y0113934D01*
X2154768Y0113934D01*
X2154768Y0113934D01*
X2156320Y0114164D01*
X2160012Y0114345D01*
X2160078Y0114332D01*
X2184295D01*
X2184361Y0114345D01*
X2188053Y0114164D01*
D02*
G37*
G36*
X1750169Y0114886D02*
X1750376Y0114386D01*
X1749998Y0114008D01*
X1749714Y0113637D01*
X1749406Y0113286D01*
X1748975Y0112641D01*
X1748768Y0112222D01*
X1748534Y0111818D01*
X1748238Y0111101D01*
X1748117Y0110650D01*
X1747967Y0110207D01*
X1747815Y0109447D01*
X1747785Y0108980D01*
X1747724Y0108517D01*
Y0107741D01*
X1747785Y0107278D01*
X1747815Y0106812D01*
X1747967Y0106051D01*
X1748117Y0105608D01*
X1748238Y0105157D01*
X1748534Y0104441D01*
X1748768Y0104036D01*
X1748975Y0103617D01*
X1749406Y0102972D01*
X1749714Y0102621D01*
X1749998Y0102250D01*
X1750547Y0101701D01*
X1750917Y0101417D01*
X1751269Y0101109D01*
X1751913Y0100678D01*
X1752333Y0100471D01*
X1752737Y0100238D01*
X1753454Y0099941D01*
X1753905Y0099820D01*
X1754348Y0099670D01*
X1755108Y0099519D01*
X1755575Y0099488D01*
X1756038Y0099427D01*
X1756814D01*
X1757277Y0099488D01*
X1757743Y0099519D01*
X1758504Y0099670D01*
X1758946Y0099820D01*
X1759398Y0099941D01*
X1760114Y0100238D01*
X1760519Y0100471D01*
X1760938Y0100678D01*
X1761583Y0101109D01*
X1761934Y0101417D01*
X1762305Y0101701D01*
X1762853Y0102250D01*
X1763138Y0102621D01*
X1763446Y0102972D01*
X1763877Y0103617D01*
X1764083Y0104036D01*
X1764317Y0104441D01*
X1764614Y0105157D01*
X1764735Y0105609D01*
X1764885Y0106051D01*
X1765036Y0106812D01*
X1765067Y0107278D01*
X1765128Y0107741D01*
Y0108517D01*
X1765067Y0108980D01*
X1765036Y0109447D01*
X1764885Y0110207D01*
X1764735Y0110650D01*
X1764614Y0111101D01*
X1764317Y0111818D01*
X1764083Y0112222D01*
X1763877Y0112641D01*
X1763446Y0113286D01*
X1763138Y0113637D01*
X1762853Y0114008D01*
X1762483Y0114378D01*
X1762690Y0114878D01*
X1778163Y0114869D01*
Y0101811D01*
X1778325Y0100578D01*
X1778801Y0099429D01*
X1779558Y0098442D01*
X1780545Y0097685D01*
X1781694Y0097209D01*
X1782928Y0097046D01*
X1804581D01*
X1805815Y0097209D01*
X1806964Y0097685D01*
X1807951Y0098442D01*
X1808708Y0099429D01*
X1809184Y0100578D01*
X1809347Y0101811D01*
Y0114497D01*
X1809700Y0114850D01*
X1822984Y0114842D01*
X1823079Y0114733D01*
Y0101525D01*
X1823242Y0100292D01*
X1823718Y0099143D01*
X1824475Y0098156D01*
X1825462Y0097399D01*
X1826611Y0096923D01*
X1827845Y0096760D01*
X1849498D01*
X1850731Y0096923D01*
X1851881Y0097399D01*
X1852868Y0098156D01*
X1853625Y0099143D01*
X1854101Y0100292D01*
X1854263Y0101525D01*
Y0114323D01*
X1854726Y0114823D01*
X1859747Y0114820D01*
X1859954Y0114320D01*
X1859642Y0114008D01*
X1859358Y0113637D01*
X1859050Y0113286D01*
X1858619Y0112641D01*
X1858412Y0112222D01*
X1858178Y0111818D01*
X1857882Y0111101D01*
X1857761Y0110650D01*
X1857610Y0110207D01*
X1857459Y0109447D01*
X1857429Y0108980D01*
X1857368Y0108517D01*
Y0107741D01*
X1857429Y0107278D01*
X1857459Y0106812D01*
X1857610Y0106051D01*
X1857761Y0105608D01*
X1857882Y0105157D01*
X1858178Y0104441D01*
X1858412Y0104036D01*
X1858619Y0103617D01*
X1859050Y0102972D01*
X1859358Y0102621D01*
X1859642Y0102250D01*
X1860191Y0101701D01*
X1860561Y0101417D01*
X1860913Y0101109D01*
X1861558Y0100678D01*
X1861977Y0100471D01*
X1862381Y0100238D01*
X1863098Y0099941D01*
X1863549Y0099820D01*
X1863992Y0099670D01*
X1864752Y0099519D01*
X1865219Y0099488D01*
X1865682Y0099427D01*
X1866458D01*
X1866921Y0099488D01*
X1867387Y0099519D01*
X1868148Y0099670D01*
X1868590Y0099820D01*
X1869042Y0099941D01*
X1869758Y0100238D01*
X1870163Y0100471D01*
X1870582Y0100678D01*
X1871227Y0101109D01*
X1871578Y0101417D01*
X1871949Y0101701D01*
X1872497Y0102250D01*
X1872782Y0102621D01*
X1873090Y0102972D01*
X1873521Y0103617D01*
X1873727Y0104036D01*
X1873961Y0104441D01*
X1874258Y0105157D01*
X1874379Y0105609D01*
X1874529Y0106051D01*
X1874680Y0106812D01*
X1874711Y0107278D01*
X1874772Y0107741D01*
Y0108517D01*
X1874711Y0108980D01*
X1874680Y0109447D01*
X1874529Y0110207D01*
X1874379Y0110650D01*
X1874258Y0111101D01*
X1873961Y0111818D01*
X1873727Y0112222D01*
X1873521Y0112641D01*
X1873090Y0113286D01*
X1872782Y0113637D01*
X1872497Y0114008D01*
X1872193Y0114312D01*
X1872400Y0114812D01*
X1877971Y0114809D01*
X1878038Y0114733D01*
Y0101525D01*
X1878200Y0100292D01*
X1878676Y0099143D01*
X1879433Y0098156D01*
X1880420Y0097399D01*
X1881570Y0096923D01*
X1882803Y0096760D01*
X1904457D01*
X1905690Y0096923D01*
X1906839Y0097399D01*
X1907826Y0098156D01*
X1908583Y0099143D01*
X1909059Y0100292D01*
X1909222Y0101525D01*
Y0114290D01*
X1909698Y0114790D01*
X1922918Y0114782D01*
X1922961Y0114733D01*
Y0101525D01*
X1923124Y0100292D01*
X1923600Y0099143D01*
X1924357Y0098156D01*
X1925344Y0097399D01*
X1926493Y0096923D01*
X1927727Y0096760D01*
X1949380D01*
X1950613Y0096923D01*
X1951763Y0097399D01*
X1952749Y0098156D01*
X1953507Y0099143D01*
X1953983Y0100292D01*
X1954145Y0101525D01*
Y0114263D01*
X1954633Y0114763D01*
X1959558Y0114760D01*
X1959765Y0114260D01*
X1959514Y0114008D01*
X1959229Y0113637D01*
X1958921Y0113286D01*
X1958490Y0112641D01*
X1958283Y0112222D01*
X1958050Y0111818D01*
X1957753Y0111101D01*
X1957632Y0110650D01*
X1957482Y0110207D01*
X1957331Y0109447D01*
X1957300Y0108980D01*
X1957239Y0108517D01*
Y0107741D01*
X1957300Y0107278D01*
X1957331Y0106812D01*
X1957482Y0106051D01*
X1957632Y0105608D01*
X1957753Y0105157D01*
X1958050Y0104441D01*
X1958284Y0104036D01*
X1958490Y0103617D01*
X1958921Y0102972D01*
X1959229Y0102621D01*
X1959514Y0102250D01*
X1960062Y0101701D01*
X1960433Y0101417D01*
X1960784Y0101109D01*
X1961429Y0100678D01*
X1961848Y0100471D01*
X1962253Y0100238D01*
X1962969Y0099941D01*
X1963421Y0099820D01*
X1963863Y0099670D01*
X1964624Y0099519D01*
X1965090Y0099488D01*
X1965553Y0099427D01*
X1966329D01*
X1966792Y0099488D01*
X1967259Y0099519D01*
X1968019Y0099670D01*
X1968462Y0099820D01*
X1968913Y0099941D01*
X1969630Y0100238D01*
X1970034Y0100471D01*
X1970453Y0100678D01*
X1971098Y0101109D01*
X1971450Y0101417D01*
X1971820Y0101701D01*
X1972369Y0102250D01*
X1972653Y0102621D01*
X1972961Y0102972D01*
X1973392Y0103617D01*
X1973599Y0104036D01*
X1973833Y0104441D01*
X1974129Y0105157D01*
X1974250Y0105609D01*
X1974401Y0106051D01*
X1974552Y0106812D01*
X1974582Y0107278D01*
X1974643Y0107741D01*
Y0108517D01*
X1974582Y0108980D01*
X1974552Y0109447D01*
X1974401Y0110207D01*
X1974250Y0110650D01*
X1974129Y0111101D01*
X1973833Y0111818D01*
X1973599Y0112222D01*
X1973392Y0112641D01*
X1972961Y0113286D01*
X1972653Y0113637D01*
X1972369Y0114008D01*
X1972125Y0114252D01*
X1972332Y0114752D01*
X1977906Y0114749D01*
X1977920Y0114733D01*
Y0101525D01*
X1978082Y0100292D01*
X1978558Y0099143D01*
X1979315Y0098156D01*
X1980302Y0097399D01*
X1981451Y0096923D01*
X1982685Y0096760D01*
X2004338D01*
X2004338Y0090741D01*
Y0089167D01*
Y0086978D01*
X2002142D01*
X2001972Y0087478D01*
X2002396Y0087804D01*
X2002957Y0088535D01*
X2003310Y0089386D01*
X2003364Y0089800D01*
X1996436D01*
X1996490Y0089386D01*
X1996843Y0088535D01*
X1997404Y0087804D01*
X1997828Y0087478D01*
X1997658Y0086978D01*
X1982685D01*
X1981451Y0086816D01*
X1980302Y0086340D01*
X1979315Y0085583D01*
X1978558Y0084596D01*
X1978082Y0083446D01*
X1977920Y0082213D01*
Y0069006D01*
X1977936Y0068880D01*
X1977607Y0068504D01*
X1972065D01*
X1971915Y0068776D01*
X1971878Y0069004D01*
X1972369Y0069495D01*
X1972653Y0069866D01*
X1972961Y0070217D01*
X1973392Y0070862D01*
X1973599Y0071281D01*
X1973833Y0071686D01*
X1974129Y0072403D01*
X1974250Y0072854D01*
X1974401Y0073296D01*
X1974552Y0074057D01*
X1974582Y0074523D01*
X1974643Y0074987D01*
Y0075762D01*
X1974582Y0076226D01*
X1974552Y0076692D01*
X1974401Y0077452D01*
X1974250Y0077895D01*
X1974129Y0078346D01*
X1973833Y0079063D01*
X1973599Y0079468D01*
X1973392Y0079887D01*
X1972961Y0080532D01*
X1972653Y0080883D01*
X1972369Y0081254D01*
X1971820Y0081802D01*
X1971450Y0082086D01*
X1971098Y0082395D01*
X1970453Y0082825D01*
X1970034Y0083032D01*
X1969630Y0083266D01*
X1968913Y0083563D01*
X1968462Y0083684D01*
X1968019Y0083834D01*
X1967259Y0083985D01*
X1966792Y0084016D01*
X1966329Y0084077D01*
X1965553D01*
X1965090Y0084016D01*
X1964624Y0083985D01*
X1963863Y0083834D01*
X1963421Y0083684D01*
X1962969Y0083563D01*
X1962253Y0083266D01*
X1961848Y0083032D01*
X1961429Y0082825D01*
X1960784Y0082395D01*
X1960433Y0082086D01*
X1960062Y0081802D01*
X1959514Y0081254D01*
X1959229Y0080883D01*
X1958921Y0080532D01*
X1958490Y0079887D01*
X1958283Y0079468D01*
X1958050Y0079063D01*
X1957753Y0078346D01*
X1957632Y0077895D01*
X1957482Y0077452D01*
X1957331Y0076692D01*
X1957300Y0076226D01*
X1957239Y0075762D01*
Y0074987D01*
X1957300Y0074523D01*
X1957331Y0074057D01*
X1957482Y0073296D01*
X1957632Y0072854D01*
X1957753Y0072403D01*
X1958050Y0071686D01*
X1958284Y0071281D01*
X1958490Y0070862D01*
X1958921Y0070217D01*
X1959229Y0069866D01*
X1959514Y0069495D01*
X1960005Y0069004D01*
X1959967Y0068776D01*
X1959818Y0068504D01*
X1954458D01*
X1954129Y0068880D01*
X1954145Y0069006D01*
Y0082213D01*
X1953983Y0083446D01*
X1953507Y0084596D01*
X1952749Y0085583D01*
X1951763Y0086340D01*
X1950613Y0086816D01*
X1949380Y0086978D01*
X1927727D01*
X1926493Y0086816D01*
X1925344Y0086340D01*
X1924357Y0085583D01*
X1923600Y0084596D01*
X1923124Y0083446D01*
X1922961Y0082213D01*
Y0069006D01*
X1922978Y0068880D01*
X1922648Y0068504D01*
X1909535D01*
X1909205Y0068880D01*
X1909222Y0069006D01*
Y0082213D01*
X1909059Y0083446D01*
X1908583Y0084596D01*
X1907826Y0085583D01*
X1906839Y0086340D01*
X1905690Y0086816D01*
X1904457Y0086978D01*
X1882803D01*
X1881570Y0086816D01*
X1880420Y0086340D01*
X1879433Y0085583D01*
X1878676Y0084596D01*
X1878200Y0083446D01*
X1878038Y0082213D01*
Y0069006D01*
X1878054Y0068880D01*
X1877725Y0068504D01*
X1872100D01*
X1871930Y0069004D01*
X1871949Y0069019D01*
X1872497Y0069567D01*
X1872782Y0069938D01*
X1873090Y0070289D01*
X1873521Y0070934D01*
X1873727Y0071353D01*
X1873961Y0071758D01*
X1874258Y0072474D01*
X1874379Y0072926D01*
X1874529Y0073368D01*
X1874680Y0074129D01*
X1874711Y0074595D01*
X1874772Y0075059D01*
Y0075834D01*
X1874711Y0076297D01*
X1874680Y0076764D01*
X1874529Y0077524D01*
X1874379Y0077967D01*
X1874258Y0078418D01*
X1873961Y0079135D01*
X1873727Y0079540D01*
X1873521Y0079959D01*
X1873090Y0080603D01*
X1872782Y0080955D01*
X1872497Y0081326D01*
X1871949Y0081874D01*
X1871578Y0082158D01*
X1871227Y0082467D01*
X1870582Y0082897D01*
X1870163Y0083104D01*
X1869758Y0083338D01*
X1869042Y0083635D01*
X1868590Y0083755D01*
X1868148Y0083906D01*
X1867387Y0084057D01*
X1866921Y0084088D01*
X1866458Y0084149D01*
X1865682D01*
X1865219Y0084088D01*
X1864752Y0084057D01*
X1863992Y0083906D01*
X1863549Y0083755D01*
X1863098Y0083635D01*
X1862381Y0083338D01*
X1861977Y0083104D01*
X1861558Y0082897D01*
X1860913Y0082467D01*
X1860561Y0082158D01*
X1860191Y0081874D01*
X1859642Y0081326D01*
X1859358Y0080955D01*
X1859050Y0080603D01*
X1858619Y0079959D01*
X1858412Y0079540D01*
X1858178Y0079135D01*
X1857882Y0078418D01*
X1857761Y0077967D01*
X1857610Y0077524D01*
X1857459Y0076764D01*
X1857429Y0076297D01*
X1857368Y0075834D01*
Y0075059D01*
X1857429Y0074595D01*
X1857459Y0074129D01*
X1857610Y0073368D01*
X1857761Y0072926D01*
X1857882Y0072474D01*
X1858178Y0071758D01*
X1858412Y0071353D01*
X1858619Y0070934D01*
X1859050Y0070289D01*
X1859358Y0069938D01*
X1859642Y0069567D01*
X1860191Y0069019D01*
X1860209Y0069004D01*
X1860040Y0068504D01*
X1854576D01*
X1854247Y0068880D01*
X1854263Y0069006D01*
Y0082213D01*
X1854101Y0083446D01*
X1853625Y0084596D01*
X1852868Y0085583D01*
X1851881Y0086340D01*
X1850731Y0086816D01*
X1849498Y0086978D01*
X1827845D01*
X1826611Y0086816D01*
X1825462Y0086340D01*
X1824475Y0085583D01*
X1823718Y0084596D01*
X1823242Y0083446D01*
X1823079Y0082213D01*
Y0069006D01*
X1823096Y0068880D01*
X1822766Y0068504D01*
X1809347D01*
Y0081604D01*
X1809184Y0082838D01*
X1808708Y0083987D01*
X1807951Y0084974D01*
X1806964Y0085731D01*
X1805815Y0086207D01*
X1804581Y0086369D01*
X1782928D01*
X1781694Y0086207D01*
X1780545Y0085731D01*
X1779558Y0084974D01*
X1778801Y0083987D01*
X1778325Y0082838D01*
X1778163Y0081604D01*
Y0068504D01*
X1762456D01*
X1762286Y0069004D01*
X1762305Y0069019D01*
X1762853Y0069567D01*
X1763138Y0069938D01*
X1763446Y0070289D01*
X1763877Y0070934D01*
X1764083Y0071353D01*
X1764317Y0071758D01*
X1764614Y0072474D01*
X1764735Y0072926D01*
X1764885Y0073368D01*
X1765036Y0074129D01*
X1765067Y0074595D01*
X1765128Y0075059D01*
Y0075834D01*
X1765067Y0076297D01*
X1765036Y0076764D01*
X1764885Y0077524D01*
X1764735Y0077967D01*
X1764614Y0078418D01*
X1764317Y0079135D01*
X1764083Y0079540D01*
X1763877Y0079959D01*
X1763446Y0080603D01*
X1763138Y0080955D01*
X1762853Y0081326D01*
X1762305Y0081874D01*
X1761934Y0082158D01*
X1761583Y0082467D01*
X1760938Y0082897D01*
X1760519Y0083104D01*
X1760114Y0083338D01*
X1759398Y0083635D01*
X1758946Y0083755D01*
X1758504Y0083906D01*
X1757743Y0084057D01*
X1757277Y0084088D01*
X1756814Y0084149D01*
X1756038D01*
X1755575Y0084088D01*
X1755108Y0084057D01*
X1754348Y0083906D01*
X1753905Y0083755D01*
X1753454Y0083635D01*
X1752737Y0083338D01*
X1752333Y0083104D01*
X1751913Y0082897D01*
X1751269Y0082467D01*
X1750917Y0082158D01*
X1750547Y0081874D01*
X1749998Y0081326D01*
X1749714Y0080955D01*
X1749406Y0080603D01*
X1748975Y0079959D01*
X1748768Y0079540D01*
X1748534Y0079135D01*
X1748238Y0078418D01*
X1748117Y0077967D01*
X1747967Y0077524D01*
X1747815Y0076764D01*
X1747785Y0076297D01*
X1747724Y0075834D01*
Y0075059D01*
X1747785Y0074595D01*
X1747815Y0074129D01*
X1747967Y0073368D01*
X1748117Y0072926D01*
X1748238Y0072474D01*
X1748534Y0071758D01*
X1748768Y0071353D01*
X1748975Y0070934D01*
X1749406Y0070289D01*
X1749714Y0069938D01*
X1749998Y0069567D01*
X1750547Y0069019D01*
X1750565Y0069004D01*
X1750396Y0068504D01*
X1734468D01*
Y0081604D01*
X1734306Y0082838D01*
X1733829Y0083987D01*
X1733072Y0084974D01*
X1732085Y0085731D01*
X1730936Y0086207D01*
X1729703Y0086369D01*
X1708095D01*
X1708091Y0086380D01*
X1708052Y0086672D01*
Y0096743D01*
X1708091Y0097035D01*
X1708095Y0097046D01*
X1729703D01*
X1730936Y0097209D01*
X1732085Y0097685D01*
X1733072Y0098442D01*
X1733829Y0099429D01*
X1734306Y0100578D01*
X1734468Y0101811D01*
Y0114542D01*
X1734822Y0114895D01*
X1750169Y0114886D01*
D02*
G37*
G36*
X1694700Y0097944D02*
Y0084742D01*
X1694400Y0084442D01*
X1693727D01*
X1693608Y0084620D01*
X1693269Y0084847D01*
X1692869Y0084926D01*
X1687349D01*
X1686949Y0084847D01*
X1686763Y0084723D01*
X1686285Y0084924D01*
X1686263Y0084944D01*
Y0097737D01*
X1686256Y0097744D01*
X1686444Y0098207D01*
X1694345Y0098296D01*
X1694700Y0097944D01*
D02*
G37*
G36*
X1652995Y0116827D02*
X1655848Y0116196D01*
X1658613Y0115249D01*
X1661254Y0113998D01*
X1663738Y0112460D01*
X1666035Y0110653D01*
X1668115Y0108600D01*
X1669952Y0106328D01*
X1671523Y0103864D01*
X1672808Y0101240D01*
X1673300Y0099864D01*
X1673792Y0098488D01*
X1674461Y0095643D01*
X1674807Y0092742D01*
X1674826Y0089820D01*
X1674518Y0086914D01*
X1673887Y0084060D01*
X1672940Y0081296D01*
X1671690Y0078655D01*
X1670151Y0076170D01*
X1668344Y0073874D01*
X1666292Y0071794D01*
X1664019Y0069957D01*
X1661555Y0068385D01*
X1658931Y0067100D01*
X1656179Y0066117D01*
X1653335Y0065448D01*
X1650433Y0065101D01*
X1647511Y0065082D01*
X1644605Y0065390D01*
X1641752Y0066022D01*
X1638987Y0066969D01*
X1636346Y0068219D01*
X1633862Y0069757D01*
X1631565Y0071564D01*
X1629485Y0073617D01*
X1627648Y0075889D01*
X1626077Y0078353D01*
X1624792Y0080978D01*
X1624300Y0082354D01*
X1624300Y0082354D01*
X1623808Y0083729D01*
X1623139Y0086574D01*
X1622793Y0089476D01*
X1622774Y0092398D01*
X1623082Y0095304D01*
X1623713Y0098157D01*
X1624660Y0100921D01*
X1625910Y0103562D01*
X1627449Y0106047D01*
X1629255Y0108344D01*
X1631308Y0110424D01*
X1633581Y0112261D01*
X1636045Y0113832D01*
X1638669Y0115117D01*
X1641421Y0116100D01*
X1644265Y0116769D01*
X1647167Y0117116D01*
X1650089Y0117135D01*
X1652995Y0116827D01*
D02*
G37*
%LPC*%
G36*
X1999600Y0236564D02*
Y0233600D01*
X2002564D01*
X2002510Y0234014D01*
X2002157Y0234865D01*
X2001596Y0235596D01*
X2000865Y0236157D01*
X2000014Y0236510D01*
X1999600Y0236564D01*
D02*
G37*
G36*
X1998600D02*
X1998186Y0236510D01*
X1997335Y0236157D01*
X1996604Y0235596D01*
X1996043Y0234865D01*
X1995690Y0234014D01*
X1995636Y0233600D01*
X1998600D01*
Y0236564D01*
D02*
G37*
G36*
X2002564Y0232600D02*
X1999600D01*
Y0229636D01*
X2000014Y0229690D01*
X2000865Y0230043D01*
X2001596Y0230604D01*
X2002157Y0231335D01*
X2002510Y0232186D01*
X2002564Y0232600D01*
D02*
G37*
G36*
X1998600D02*
X1995636D01*
X1995690Y0232186D01*
X1996043Y0231335D01*
X1996604Y0230604D01*
X1997335Y0230043D01*
X1998186Y0229690D01*
X1998600Y0229636D01*
Y0232600D01*
D02*
G37*
G36*
X1997700Y0165464D02*
Y0162500D01*
X2000664D01*
X2000610Y0162914D01*
X2000257Y0163765D01*
X1999696Y0164496D01*
X1998965Y0165057D01*
X1998114Y0165410D01*
X1997700Y0165464D01*
D02*
G37*
G36*
X1996700D02*
X1996286Y0165410D01*
X1995435Y0165057D01*
X1994704Y0164496D01*
X1994143Y0163765D01*
X1993790Y0162914D01*
X1993736Y0162500D01*
X1996700D01*
Y0165464D01*
D02*
G37*
G36*
X2000664Y0161500D02*
X1997700D01*
Y0158536D01*
X1998114Y0158590D01*
X1998965Y0158943D01*
X1999696Y0159504D01*
X2000257Y0160235D01*
X2000610Y0161086D01*
X2000664Y0161500D01*
D02*
G37*
G36*
X1996700D02*
X1993736D01*
X1993790Y0161086D01*
X1994143Y0160235D01*
X1994704Y0159504D01*
X1995435Y0158943D01*
X1996286Y0158590D01*
X1996700Y0158536D01*
Y0161500D01*
D02*
G37*
G36*
X2181200Y0108864D02*
Y0105900D01*
X2184164D01*
X2184110Y0106314D01*
X2183757Y0107165D01*
X2183196Y0107896D01*
X2182465Y0108457D01*
X2181614Y0108810D01*
X2181200Y0108864D01*
D02*
G37*
G36*
X2180200D02*
X2179786Y0108810D01*
X2178935Y0108457D01*
X2178204Y0107896D01*
X2177643Y0107165D01*
X2177290Y0106314D01*
X2177236Y0105900D01*
X2180200D01*
Y0108864D01*
D02*
G37*
G36*
X2184164Y0104900D02*
X2181200D01*
Y0101936D01*
X2181614Y0101990D01*
X2182465Y0102343D01*
X2183196Y0102904D01*
X2183757Y0103635D01*
X2184110Y0104486D01*
X2184164Y0104900D01*
D02*
G37*
G36*
X2180200D02*
X2177236D01*
X2177290Y0104486D01*
X2177643Y0103635D01*
X2178204Y0102904D01*
X2178935Y0102343D01*
X2179786Y0101990D01*
X2180200Y0101936D01*
Y0104900D01*
D02*
G37*
G36*
X2278514Y0091737D02*
X2275652D01*
Y0087300D01*
X2278514D01*
Y0091737D01*
D02*
G37*
G36*
X2270300Y0089628D02*
Y0087200D01*
X2272728D01*
X2272692Y0087475D01*
X2272393Y0088197D01*
X2271917Y0088817D01*
X2271297Y0089293D01*
X2270575Y0089592D01*
X2270300Y0089628D01*
D02*
G37*
G36*
X2269300D02*
X2269025Y0089592D01*
X2268303Y0089293D01*
X2267683Y0088817D01*
X2267207Y0088197D01*
X2266908Y0087475D01*
X2266872Y0087200D01*
X2269300D01*
Y0089628D01*
D02*
G37*
G36*
X2272728Y0086200D02*
X2270300D01*
Y0083772D01*
X2270575Y0083808D01*
X2271297Y0084107D01*
X2271917Y0084583D01*
X2272393Y0085203D01*
X2272692Y0085925D01*
X2272728Y0086200D01*
D02*
G37*
G36*
X2269300D02*
X2266872D01*
X2266908Y0085925D01*
X2267207Y0085203D01*
X2267683Y0084583D01*
X2268303Y0084107D01*
X2269025Y0083808D01*
X2269300Y0083772D01*
Y0086200D01*
D02*
G37*
G36*
X2182100Y0080218D02*
Y0077254D01*
X2185064D01*
X2185010Y0077667D01*
X2184657Y0078519D01*
X2184096Y0079250D01*
X2183365Y0079811D01*
X2182514Y0080164D01*
X2182100Y0080218D01*
D02*
G37*
G36*
X2181100D02*
X2180686Y0080164D01*
X2179835Y0079811D01*
X2179104Y0079250D01*
X2178543Y0078519D01*
X2178190Y0077667D01*
X2178136Y0077254D01*
X2181100D01*
Y0080218D01*
D02*
G37*
G36*
X2185064Y0076253D02*
X2182100D01*
Y0073289D01*
X2182514Y0073344D01*
X2183365Y0073696D01*
X2184096Y0074257D01*
X2184657Y0074989D01*
X2185010Y0075840D01*
X2185064Y0076253D01*
D02*
G37*
G36*
X2181100D02*
X2178136D01*
X2178190Y0075840D01*
X2178543Y0074989D01*
X2179104Y0074257D01*
X2179835Y0073696D01*
X2180686Y0073344D01*
X2181100Y0073289D01*
Y0076253D01*
D02*
G37*
G36*
X2000400Y0093764D02*
Y0090800D01*
X2003364D01*
X2003310Y0091214D01*
X2002957Y0092065D01*
X2002396Y0092796D01*
X2001665Y0093357D01*
X2000814Y0093710D01*
X2000400Y0093764D01*
D02*
G37*
G36*
X1999400D02*
X1998986Y0093710D01*
X1998135Y0093357D01*
X1997404Y0092796D01*
X1996843Y0092065D01*
X1996490Y0091214D01*
X1996436Y0090800D01*
X1999400D01*
Y0093764D01*
D02*
G37*
G36*
X1649274Y0095219D02*
Y0092255D01*
X1652238D01*
X1652184Y0092669D01*
X1651831Y0093520D01*
X1651270Y0094251D01*
X1650539Y0094812D01*
X1649688Y0095165D01*
X1649274Y0095219D01*
D02*
G37*
G36*
X1648274D02*
X1647861Y0095165D01*
X1647009Y0094812D01*
X1646278Y0094251D01*
X1645717Y0093520D01*
X1645364Y0092669D01*
X1645310Y0092255D01*
X1648274D01*
Y0095219D01*
D02*
G37*
G36*
X1652238Y0091255D02*
X1649274D01*
Y0088291D01*
X1649688Y0088345D01*
X1650539Y0088698D01*
X1651270Y0089259D01*
X1651831Y0089990D01*
X1652184Y0090841D01*
X1652238Y0091255D01*
D02*
G37*
G36*
X1648274D02*
X1645310D01*
X1645364Y0090841D01*
X1645717Y0089990D01*
X1646278Y0089259D01*
X1647009Y0088698D01*
X1647861Y0088345D01*
X1648274Y0088291D01*
Y0091255D01*
D02*
G37*
%LPD*%
D11*
X2279014Y0086800D02*
D03*
X2285707D02*
D03*
X2292400D02*
D03*
X2299093D02*
D03*
D15*
X2147497Y0107954D02*
G03*
X2147497Y0107954I-0003697J0000000D01*
G01*
X2130297Y0103454D02*
G03*
X2130297Y0103454I-0003697J0000000D01*
G01*
X2146597Y0074954D02*
G03*
X2141327Y0071608I-0003697J0000000D01*
G01*
X2143494Y0071305D02*
G03*
X2146597Y0074954I-0000594J0003649D01*
G01*
X2131230Y0077953D02*
G03*
X2131230Y0077953I-0003697J0000000D01*
G01*
X2111279Y0075815D02*
G03*
X2113907Y0079353I-0001069J0003539D01*
G01*
X2114597Y0103454D02*
G03*
X2114597Y0103454I-0003697J0000000D01*
G01*
X2056168Y0100376D02*
G03*
X2061796Y0100768I0000000J0040592D01*
G01*
X2018318Y0101598D02*
G03*
X2019540Y0100376I0001222J0000000D01*
G01*
X2018318Y0101598D02*
G03*
X2019540Y0100376I0001222J0000000D01*
G01*
X2113907Y0079353D02*
G03*
X2108211Y0076244I-0003697J0000000D01*
G01*
X2061796Y0082742D02*
G03*
X2056168Y0083135I-0005628J-0040200D01*
G01*
X2019540Y0083135D02*
G03*
X2018318Y0081913I0000000J-0001222D01*
G01*
X2019540Y0083135D02*
G03*
X2018318Y0081913I0000000J-0001222D01*
G01*
X1686152Y0099385D02*
G03*
X1687289Y0098409I0001197J0000244D01*
G01*
X1686152Y0099385D02*
G03*
X1687289Y0098409I0001197J0000244D01*
G01*
X1687835Y0091889D02*
G03*
X1687289Y0098409I-0039264J0000000D01*
G01*
X1687243Y0085098D02*
G03*
X1687835Y0091889I-0038672J0006790D01*
G01*
X1687243Y0085098D02*
G03*
X1686152Y0084126I0000106J-0001217D01*
G01*
X1687243Y0085098D02*
G03*
X1686152Y0084126I0000106J-0001217D01*
G01*
Y0099385D02*
G03*
X1686152Y0084126I-0037378J-0007630D01*
G01*
X1969697Y0264564D02*
G03*
X1969697Y0264564I-0003697J0000000D01*
G01*
X2013097Y0198400D02*
G03*
X2013097Y0198400I-0003697J0000000D01*
G01*
X1970297Y0198554D02*
G03*
X1970297Y0198554I-0003697J0000000D01*
G01*
X1969997Y0124453D02*
G03*
X1969997Y0124453I-0003697J0000000D01*
G01*
X2018318Y0101598D02*
G03*
X2019540Y0100376I0001222J0000000D01*
G01*
X2018318Y0101598D02*
G03*
X2019540Y0100376I0001222J0000000D01*
G01*
Y0083135D02*
G03*
X2018318Y0081913I0000000J-0001222D01*
G01*
X2019540Y0083135D02*
G03*
X2018318Y0081913I0000000J-0001222D01*
G01*
X1969997Y0060654D02*
G03*
X1969997Y0060654I-0003697J0000000D01*
G01*
X1869397Y0264754D02*
G03*
X1869397Y0264754I-0003697J0000000D01*
G01*
X1869797Y0199054D02*
G03*
X1869797Y0199054I-0003697J0000000D01*
G01*
X1760997Y0198953D02*
G03*
X1760997Y0198953I-0003697J0000000D01*
G01*
X1760097Y0265154D02*
G03*
X1760097Y0265154I-0003697J0000000D01*
G01*
X1869797Y0124253D02*
G03*
X1869797Y0124253I-0003697J0000000D01*
G01*
X1760197Y0124054D02*
G03*
X1760197Y0124054I-0003697J0000000D01*
G01*
X1869997Y0060353D02*
G03*
X1869997Y0060353I-0003697J0000000D01*
G01*
X1760497Y0060053D02*
G03*
X1760497Y0060053I-0003697J0000000D01*
G01*
X1692869Y0098407D02*
G03*
X1694090Y0099629I0000000J0001222D01*
G01*
X1692869Y0098407D02*
G03*
X1694090Y0099629I0000000J0001222D01*
G01*
Y0083881D02*
G03*
X1692869Y0085103I-0001222J0000000D01*
G01*
X1694090Y0083881D02*
G03*
X1692869Y0085103I-0001222J0000000D01*
G01*
X2149300Y0112693D02*
Y0113019D01*
X2145543Y0111214D02*
X2149300D01*
X2149297Y0113018D02*
X2149297Y0112713D01*
X2147659Y0112789D02*
X2149297D01*
X2147182Y0109447D02*
Y0112722D01*
X2147090Y0109639D02*
X2149300D01*
X2145607Y0111179D02*
Y0112501D01*
X2144032Y0111643D02*
Y0112281D01*
X2142458Y0111398D02*
Y0112060D01*
X2140883Y0110224D02*
Y0111840D01*
X2136410Y0111214D02*
X2142057D01*
X2125162Y0109639D02*
X2140510D01*
X2147495Y0108064D02*
X2149300D01*
X2147195Y0106490D02*
X2149300D01*
X2145905Y0104915D02*
X2149300D01*
X2130782Y0079718D02*
X2149300D01*
X2130295Y0103340D02*
X2149300D01*
X2129889Y0101765D02*
X2149300D01*
X2128709Y0106490D02*
X2140405D01*
X2129996Y0104915D02*
X2141695D01*
X2111359Y0082867D02*
X2149300D01*
X2129120Y0081293D02*
X2149300D01*
X2128337Y0100190D02*
X2149300D01*
X2128284Y0106744D02*
Y0110076D01*
X2126710Y0107149D02*
Y0109856D01*
X2125135Y0106848D02*
Y0109635D01*
X2123560Y0105557D02*
Y0109415D01*
X2129859Y0105198D02*
Y0110297D01*
X2113913Y0108064D02*
X2140105D01*
X2113009Y0106490D02*
X2124491D01*
X2112536Y0106769D02*
Y0107871D01*
X2110962Y0107150D02*
Y0107651D01*
X2114296Y0104915D02*
X2123204D01*
X2114111Y0105285D02*
Y0108092D01*
X2128284Y0081573D02*
Y0100163D01*
X2114595Y0103340D02*
X2122905D01*
X2129859Y0080827D02*
Y0101709D01*
X2126710Y0081558D02*
Y0099758D01*
X2125135Y0080767D02*
Y0100059D01*
X2114189Y0101765D02*
X2123311D01*
X2112637Y0100190D02*
X2124863D01*
X2110962Y0082973D02*
Y0099757D01*
X2113358Y0081293D02*
X2125947D01*
X2113889Y0079718D02*
X2124285D01*
X2112536Y0082227D02*
Y0100139D01*
X2144769Y0078143D02*
X2149300D01*
X2146226Y0076568D02*
X2149300D01*
X2145607Y0077471D02*
Y0104728D01*
X2144032Y0078473D02*
Y0104264D01*
X2148757Y0070568D02*
Y0112942D01*
X2149300Y0070816D02*
Y0112693D01*
X2147182Y0070788D02*
Y0106461D01*
X2142458Y0078624D02*
Y0104509D01*
X2131225Y0078143D02*
X2141031D01*
X2140883Y0078052D02*
Y0105683D01*
X2130961Y0076568D02*
X2139574D01*
X2139308Y0075828D02*
Y0111620D01*
X2146597Y0074993D02*
X2149300D01*
X2146263Y0073419D02*
X2149300D01*
X2144899Y0071844D02*
X2149300D01*
Y0070492D02*
Y0070816D01*
X2149297Y0070796D02*
X2149297Y0070492D01*
X2145607Y0071009D02*
Y0072436D01*
X2139308Y0071891D02*
Y0074079D01*
X2128394Y0073419D02*
X2139537D01*
X2111279Y0075815D02*
X2141327Y0071608D01*
X2143494Y0071305D02*
X2149297Y0070492D01*
X2139643Y0071844D02*
X2140901D01*
X2133009Y0072773D02*
Y0110738D01*
X2131434Y0072993D02*
Y0110517D01*
X2137733Y0072111D02*
Y0111399D01*
X2136158Y0072332D02*
Y0111179D01*
X2134584Y0072552D02*
Y0110958D01*
X2118836Y0074757D02*
Y0108753D01*
X2117261Y0074977D02*
Y0108533D01*
X2115686Y0075198D02*
Y0108312D01*
X2114111Y0075418D02*
Y0101622D01*
X2121985Y0074316D02*
Y0109194D01*
X2123560Y0074095D02*
Y0101350D01*
X2120410Y0074536D02*
Y0108974D01*
X2129748Y0074993D02*
X2139203D01*
X2125135Y0073875D02*
Y0075140D01*
X2129859Y0073213D02*
Y0075080D01*
X2128284Y0073434D02*
Y0074334D01*
X2126710Y0073655D02*
Y0074350D01*
X2112641Y0076568D02*
X2124106D01*
X2113704Y0078143D02*
X2123841D01*
X2117145Y0074993D02*
X2125319D01*
X2112536Y0075639D02*
Y0076480D01*
X2109387Y0106826D02*
Y0107431D01*
X2107812Y0105486D02*
Y0107210D01*
X2102664Y0106490D02*
X2108791D01*
X2068919Y0101765D02*
X2107611D01*
X2091416Y0104915D02*
X2107504D01*
X2080167Y0103340D02*
X2107205D01*
X2061796Y0100768D02*
X2149297Y0113018D01*
X2058993Y0083036D02*
Y0100474D01*
X2009302Y0098615D02*
X2149300D01*
X2009302Y0097041D02*
X2149300D01*
X2019540Y0100376D02*
X2056168D01*
X2009302Y0100190D02*
X2109163D01*
X2057418Y0083115D02*
Y0100395D01*
X2009302Y0095466D02*
X2149300D01*
X2019540Y0083135D02*
X2056163D01*
X2009302Y0090741D02*
X2149300D01*
X2009302Y0089167D02*
X2149300D01*
X2009302Y0093891D02*
X2149300D01*
X2009302Y0092316D02*
X2149300D01*
X2009302Y0086017D02*
X2149300D01*
X2009302Y0084442D02*
X2149300D01*
X2009302Y0087592D02*
X2149300D01*
X2029072Y0083135D02*
Y0100376D01*
X2030647Y0083135D02*
Y0100376D01*
X2025922Y0083135D02*
Y0100376D01*
X2027497Y0083135D02*
Y0100376D01*
X2033796Y0083135D02*
Y0100376D01*
X2035371Y0083135D02*
Y0100376D01*
X2032222Y0083135D02*
Y0100376D01*
X2019623Y0083135D02*
Y0100376D01*
X2009302Y0101598D02*
X2018318D01*
X2022773Y0083135D02*
Y0100376D01*
X2024348Y0083135D02*
Y0100376D01*
X2021198Y0083135D02*
Y0100376D01*
X2049544Y0083135D02*
Y0100376D01*
X2051119Y0083135D02*
Y0100376D01*
X2046395Y0083135D02*
Y0100376D01*
X2047970Y0083135D02*
Y0100376D01*
X2054269Y0083135D02*
Y0100376D01*
X2055844Y0083135D02*
Y0100376D01*
X2052694Y0083135D02*
Y0100376D01*
X2038521Y0083135D02*
Y0100376D01*
X2040096Y0083135D02*
Y0100376D01*
X2036946Y0083135D02*
Y0100376D01*
X2043245Y0083135D02*
Y0100376D01*
X2044820Y0083135D02*
Y0100376D01*
X2041670Y0083135D02*
Y0100376D01*
X2101513Y0077182D02*
Y0106328D01*
X2099938Y0077403D02*
Y0106108D01*
X2098363Y0077623D02*
Y0105887D01*
X2096788Y0077843D02*
Y0105667D01*
X2106237Y0076521D02*
Y0106990D01*
X2104662Y0076741D02*
Y0106769D01*
X2103088Y0076961D02*
Y0106549D01*
X2090489Y0078725D02*
Y0104785D01*
X2088914Y0078946D02*
Y0104564D01*
X2087340Y0079166D02*
Y0104344D01*
X2085765Y0079387D02*
Y0104123D01*
X2095214Y0078064D02*
Y0105446D01*
X2093639Y0078284D02*
Y0105226D01*
X2092064Y0078505D02*
Y0105005D01*
X2107812Y0082167D02*
Y0101421D01*
X2109387Y0082958D02*
Y0100081D01*
X2105897Y0076568D02*
X2107780D01*
X2060816Y0082867D02*
X2109062D01*
X2072151Y0081293D02*
X2107063D01*
X2082615Y0079828D02*
Y0103683D01*
X2083400Y0079718D02*
X2106532D01*
X2061796Y0082742D02*
X2108211Y0076244D01*
X2094648Y0078143D02*
X2106717D01*
X2084190Y0079607D02*
Y0103903D01*
X2076316Y0080710D02*
Y0102801D01*
X2074741Y0080930D02*
Y0102580D01*
X2073166Y0081151D02*
Y0102360D01*
X2071592Y0081371D02*
Y0102139D01*
X2081040Y0080048D02*
Y0103462D01*
X2079466Y0080269D02*
Y0103242D01*
X2077891Y0080489D02*
Y0103021D01*
X2070017Y0081591D02*
Y0101919D01*
X2068442Y0081812D02*
Y0101698D01*
X2016474Y0081431D02*
Y0101598D01*
X2018048Y0081448D02*
Y0101598D01*
X2013324Y0081397D02*
Y0101598D01*
X2014899Y0081414D02*
Y0101598D01*
X2011749Y0081380D02*
Y0101598D01*
X2063718Y0082473D02*
Y0101037D01*
X2062143Y0082694D02*
Y0100816D01*
X2060568Y0082895D02*
Y0100615D01*
X2066867Y0082032D02*
Y0101478D01*
X2065292Y0082253D02*
Y0101257D01*
X2018318Y0081451D02*
Y0081913D01*
X2009302Y0082867D02*
X2018778D01*
X2010174Y0081363D02*
Y0101598D01*
X2009302Y0081354D02*
X2018318Y0081451D01*
X2009302Y0081354D02*
X2009302Y0101598D01*
X1676535Y0104915D02*
X1684581D01*
X1677294Y0103340D02*
X1685121D01*
X1677892Y0101765D02*
Y0116402D01*
X1675981Y0106047D02*
X1677266Y0103423D01*
X1679466Y0095587D02*
Y0114411D01*
X1677892Y0101765D02*
X1685586D01*
X1677482Y0102910D02*
X1677974Y0101534D01*
X1677974Y0101534D02*
X1678466Y0100158D01*
X1669291Y0114363D02*
X1679501D01*
X1670938Y0112789D02*
X1680600D01*
X1665006Y0117513D02*
X1676913D01*
X1667345Y0115938D02*
X1678278D01*
X1674732Y0108064D02*
X1683260D01*
X1675728Y0106490D02*
X1683962D01*
X1672385Y0111214D02*
X1681586D01*
X1673658Y0109639D02*
X1682471D01*
X1679669Y0093891D02*
X1687783D01*
X1679774Y0092316D02*
X1687832D01*
X1679784Y0090741D02*
X1687818D01*
X1679771Y0092774D02*
X1679790Y0089852D01*
X1679749Y0089167D02*
X1687740D01*
X1678861Y0098615D02*
X1686667D01*
X1679231Y0097041D02*
X1687495D01*
X1678454Y0100190D02*
X1685978D01*
X1678624Y0099624D02*
X1679293Y0096780D01*
X1679481Y0095466D02*
X1687671D01*
X1679582Y0087592D02*
X1687599D01*
X1679389Y0096232D02*
X1679736Y0093330D01*
X1662144Y0119069D02*
Y0127484D01*
X1663718Y0118286D02*
Y0126854D01*
X1658994Y0120365D02*
Y0128509D01*
X1660569Y0119789D02*
Y0128034D01*
X1668443Y0115075D02*
Y0124442D01*
X1670018Y0113697D02*
Y0123441D01*
X1665293Y0117335D02*
Y0126141D01*
X1666868Y0116314D02*
Y0125339D01*
X1651120Y0122017D02*
Y0129831D01*
X1652695Y0121850D02*
Y0129701D01*
X1649545Y0122095D02*
Y0129896D01*
X1647970Y0122085D02*
Y0129895D01*
X1655844Y0121280D02*
Y0129242D01*
X1657419Y0120899D02*
Y0128911D01*
X1654270Y0121629D02*
Y0129505D01*
X1673167Y0110246D02*
Y0121085D01*
X1669522Y0114186D02*
X1671602Y0112134D01*
X1671592Y0112143D02*
Y0122327D01*
X1666808Y0116361D02*
X1669104Y0114554D01*
X1676317Y0105361D02*
Y0118150D01*
X1674137Y0108996D02*
X1675708Y0106533D01*
X1674742Y0108048D02*
Y0119701D01*
X1671975Y0111721D02*
X1673812Y0109448D01*
X1657457Y0120892D02*
X1660221Y0119945D01*
X1658125Y0120663D02*
X1673667D01*
X1650612Y0122071D02*
X1653518Y0121763D01*
X1654068Y0121674D02*
X1656921Y0121042D01*
X1662104Y0119088D02*
X1675386D01*
X1663867Y0118219D02*
X1666352Y0116680D01*
X1660737Y0119735D02*
X1663378Y0118485D01*
X1687340Y0085679D02*
Y0098099D01*
X1684191Y0077579D02*
Y0105931D01*
X1685766Y0082432D02*
Y0101078D01*
X1681041Y0071405D02*
Y0112105D01*
X1682616Y0074148D02*
Y0109362D01*
X1679380Y0086017D02*
X1687393D01*
X1679055Y0084442D02*
X1686263D01*
X1679454Y0086390D02*
X1679762Y0089296D01*
X1678733Y0082988D02*
X1679365Y0085841D01*
X1679466Y0069100D02*
Y0086503D01*
X1678690Y0082867D02*
X1685873D01*
X1677636Y0079687D02*
X1678583Y0082452D01*
X1678186Y0081293D02*
X1685460D01*
X1677646Y0079718D02*
X1684974D01*
X1676939Y0078143D02*
X1684411D01*
X1676194Y0076568D02*
X1683769D01*
X1677892Y0067108D02*
Y0080433D01*
X1675261Y0074993D02*
X1683043D01*
X1676176Y0076531D02*
X1677426Y0079172D01*
X1676317Y0065360D02*
Y0076828D01*
X1674258Y0073419D02*
X1682227D01*
X1673063Y0071844D02*
X1681314D01*
X1674372Y0073557D02*
X1675910Y0076042D01*
X1671761Y0070269D02*
X1680296D01*
X1670207Y0068694D02*
X1679163D01*
X1668406Y0067119D02*
X1677901D01*
X1666333Y0065545D02*
X1676492D01*
X1674742Y0063810D02*
Y0074155D01*
X1672246Y0070804D02*
X1674052Y0073101D01*
X1669825Y0068307D02*
X1671877Y0070387D01*
X1667140Y0066096D02*
X1669412Y0067933D01*
X1673167Y0062425D02*
Y0071976D01*
X1671592Y0061184D02*
Y0070098D01*
X1670018Y0060069D02*
Y0068502D01*
X1668443Y0059068D02*
Y0067150D01*
X1666868Y0058171D02*
Y0065922D01*
X1663802Y0063970D02*
X1674913D01*
X1664224Y0064200D02*
X1666688Y0065771D01*
X1661114Y0062642D02*
X1663738Y0063928D01*
X1665293Y0057369D02*
Y0064882D01*
X1663718Y0056656D02*
Y0063918D01*
X1662144Y0056026D02*
Y0063147D01*
X1660515Y0062395D02*
X1673131D01*
X1655340Y0060820D02*
X1671097D01*
X1657850Y0061443D02*
X1660601Y0062426D01*
X1654471Y0060616D02*
X1657316Y0061285D01*
X1660569Y0055476D02*
Y0062414D01*
X1658994Y0055001D02*
Y0061852D01*
X1657419Y0054599D02*
Y0061324D01*
X1655844Y0054268D02*
Y0060939D01*
X1654270Y0054005D02*
Y0060596D01*
X1651021Y0060173D02*
X1653923Y0060519D01*
X1652695Y0053809D02*
Y0060373D01*
X1647544Y0060119D02*
X1650466Y0060138D01*
X1651120Y0053679D02*
Y0060185D01*
X1649545Y0053615D02*
Y0060132D01*
X1647970Y0053615D02*
Y0060121D01*
X1646396Y0122023D02*
Y0129829D01*
X1638655Y0128537D02*
X1658894D01*
X1644821Y0121835D02*
Y0129698D01*
X1643246Y0121613D02*
Y0129501D01*
X1641671Y0121258D02*
Y0129236D01*
X1640096Y0120861D02*
Y0128903D01*
X1638522Y0120335D02*
Y0128500D01*
X1636947Y0119765D02*
Y0128024D01*
X1634085Y0126962D02*
X1663463D01*
X1630769Y0125387D02*
X1666779D01*
X1635372Y0119029D02*
Y0127472D01*
X1633797Y0118247D02*
Y0126840D01*
X1632222Y0117281D02*
Y0126126D01*
X1630648Y0116235D02*
Y0125322D01*
X1629073Y0114999D02*
Y0124422D01*
X1628095Y0123812D02*
X1669453D01*
X1647134Y0122079D02*
X1650056Y0122099D01*
X1643677Y0121698D02*
X1646579Y0122045D01*
X1640284Y0120932D02*
X1643129Y0121601D01*
X1636999Y0119791D02*
X1639750Y0120774D01*
X1633861Y0118289D02*
X1636486Y0119575D01*
X1630912Y0116446D02*
X1633376Y0118017D01*
X1628188Y0114284D02*
X1630460Y0116121D01*
X1625837Y0122237D02*
X1671711D01*
X1623882Y0120663D02*
X1639437D01*
X1622162Y0119088D02*
X1635492D01*
X1620635Y0117513D02*
X1632586D01*
X1619271Y0115938D02*
X1630234D01*
X1618047Y0114363D02*
X1628286D01*
X1625723Y0111830D02*
X1627775Y0113910D01*
X1627498Y0113629D02*
Y0123419D01*
X1625923Y0112034D02*
Y0122302D01*
X1624348Y0110134D02*
Y0121058D01*
X1623548Y0109116D02*
X1625354Y0111413D01*
X1622774Y0107926D02*
Y0119670D01*
X1621690Y0106176D02*
X1623228Y0108660D01*
X1621199Y0105211D02*
Y0118116D01*
X1620174Y0103045D02*
X1621424Y0105687D01*
X1616948Y0112789D02*
X1626668D01*
X1615962Y0111214D02*
X1625198D01*
X1615078Y0109639D02*
X1623959D01*
X1614288Y0108064D02*
X1622860D01*
X1619624Y0101537D02*
Y0116363D01*
X1613586Y0106490D02*
X1621884D01*
X1618049Y0094918D02*
Y0114366D01*
X1612967Y0104915D02*
X1621058D01*
X1612428Y0103340D02*
X1620313D01*
X1611963Y0101765D02*
X1619702D01*
X1611570Y0100190D02*
X1619163D01*
X1619017Y0099765D02*
X1619964Y0102530D01*
X1618235Y0096376D02*
X1618867Y0099229D01*
X1617838Y0092921D02*
X1618146Y0095827D01*
X1617810Y0092365D02*
X1617829Y0089443D01*
X1611248Y0098615D02*
X1618731D01*
X1610994Y0097041D02*
X1618382D01*
X1610807Y0095466D02*
X1618107D01*
X1610686Y0093891D02*
X1617940D01*
X1610639Y0090741D02*
X1617821D01*
X1610714Y0089167D02*
X1617867D01*
X1610630Y0092316D02*
X1617810D01*
X1631249Y0065537D02*
X1633733Y0063999D01*
X1634222Y0063733D02*
X1636863Y0062482D01*
X1629073Y0059088D02*
Y0067209D01*
X1630648Y0058188D02*
Y0065970D01*
X1635372Y0056039D02*
Y0063188D01*
X1636947Y0055487D02*
Y0062455D01*
X1632222Y0057385D02*
Y0064934D01*
X1633797Y0056670D02*
Y0063970D01*
X1628496Y0067663D02*
X1630792Y0065856D01*
X1621056Y0065545D02*
X1631239D01*
X1625998Y0070084D02*
X1628078Y0068031D01*
X1619647Y0067119D02*
X1629187D01*
X1622635Y0063970D02*
X1633797D01*
X1627498Y0060091D02*
Y0068604D01*
X1644082Y0060454D02*
X1646988Y0060146D01*
X1640473Y0054521D02*
X1657075D01*
X1640096Y0054607D02*
Y0061342D01*
X1640679Y0061175D02*
X1643532Y0060544D01*
X1644821Y0053812D02*
Y0060376D01*
X1646396Y0053681D02*
Y0060209D01*
X1641671Y0054274D02*
Y0060956D01*
X1643246Y0054010D02*
Y0060607D01*
X1626451Y0060820D02*
X1642283D01*
X1628814Y0059246D02*
X1668734D01*
X1624417Y0062395D02*
X1637132D01*
X1637379Y0062273D02*
X1640143Y0061326D01*
X1631641Y0057671D02*
X1665907D01*
X1635220Y0056096D02*
X1662328D01*
X1638522Y0055010D02*
Y0061881D01*
X1619134Y0082059D02*
X1619626Y0080683D01*
X1619626Y0080683D02*
X1620117Y0079307D01*
X1617864Y0088887D02*
X1618210Y0085986D01*
X1618307Y0085438D02*
X1618977Y0082593D01*
X1618049Y0069144D02*
Y0087337D01*
X1619624Y0067147D02*
Y0080688D01*
X1616474Y0071457D02*
Y0112053D01*
X1614900Y0074211D02*
Y0109299D01*
X1611333Y0084442D02*
X1618542D01*
X1611676Y0082867D02*
X1618912D01*
X1610854Y0087592D02*
X1618019D01*
X1611060Y0086017D02*
X1618207D01*
X1613325Y0077662D02*
Y0105849D01*
X1612089Y0081293D02*
X1619408D01*
X1611750Y0082563D02*
Y0100947D01*
X1623788Y0072769D02*
X1625625Y0070496D01*
X1618385Y0068694D02*
X1627406D01*
X1620334Y0078794D02*
X1621619Y0076170D01*
X1621892Y0075685D02*
X1623463Y0073221D01*
X1624348Y0062452D02*
Y0072075D01*
X1625923Y0061208D02*
Y0070180D01*
X1621199Y0065394D02*
Y0077028D01*
X1622774Y0063840D02*
Y0074301D01*
X1613779Y0076568D02*
X1621424D01*
X1614506Y0074993D02*
X1622332D01*
X1612575Y0079718D02*
X1619971D01*
X1613137Y0078143D02*
X1620653D01*
X1616235Y0071844D02*
X1624536D01*
X1617252Y0070269D02*
X1625854D01*
X1615322Y0073419D02*
X1623336D01*
X2008842Y0257670D02*
X2018318D01*
X2009199Y0256095D02*
X2018318D01*
X2008600Y0258255D02*
Y0268929D01*
X2009230Y0242756D02*
Y0255856D01*
X2009061Y0257141D02*
X2009230Y0255856D01*
X2007869Y0259245D02*
X2018318D01*
X2004267Y0260820D02*
X2018318D01*
X2008565Y0258338D02*
X2009061Y0257141D01*
X2007776Y0259366D02*
X2008565Y0258338D01*
X2009230Y0252946D02*
X2018318D01*
X2009230Y0251371D02*
X2018318D01*
X2009230Y0254521D02*
X2018318D01*
X2009230Y0248221D02*
X2018318D01*
X2009230Y0249796D02*
X2018318D01*
X2009230Y0245072D02*
X2018318D01*
X2009230Y0246647D02*
X2018318D01*
X2009120Y0241922D02*
X2018318D01*
X2009230Y0243497D02*
X2018318D01*
X2002300Y0260820D02*
Y0268929D01*
X2003875Y0260820D02*
Y0268929D01*
X2000726Y0260820D02*
Y0268929D01*
X2007025Y0259943D02*
Y0268929D01*
X2005450Y0260664D02*
Y0268929D01*
X1996001Y0260820D02*
Y0268929D01*
X1988127Y0260820D02*
Y0268929D01*
X1999151Y0260820D02*
Y0268929D01*
X1997576Y0260820D02*
Y0268929D01*
X1994426Y0260820D02*
Y0268929D01*
X2004266Y0260820D02*
X2005551Y0260651D01*
X1992852Y0260820D02*
Y0268929D01*
X2006748Y0260155D02*
X2007776Y0259366D01*
X2005551Y0260651D02*
X2006748Y0260155D01*
X1986552Y0260820D02*
Y0268929D01*
X1984978Y0260820D02*
Y0268929D01*
X1991277Y0260820D02*
Y0268929D01*
X1989702Y0260820D02*
Y0268929D01*
X2009230Y0232473D02*
X2018318D01*
X2009230Y0230899D02*
X2018318D01*
X2009230Y0234048D02*
X2018318D01*
X2009230Y0227749D02*
X2018318D01*
X2009230Y0229324D02*
X2018318D01*
X2009127Y0238773D02*
X2018318D01*
X2008617Y0240347D02*
X2018318D01*
X2009230Y0235623D02*
X2018318D01*
X2009230Y0237198D02*
X2018318D01*
X2009230Y0215151D02*
X2018318D01*
X2009230Y0213576D02*
X2018318D01*
X2009230Y0221450D02*
X2018318D01*
X2009230Y0210426D02*
X2018318D01*
X2009230Y0212001D02*
X2018318D01*
X2008744Y0224599D02*
X2018318D01*
X2009080Y0226174D02*
X2018318D01*
X2009151Y0208852D02*
X2018318D01*
X2009168Y0223025D02*
X2018318D01*
X2009230Y0227314D02*
Y0237991D01*
X2009061Y0226030D02*
X2009230Y0227314D01*
X2009061Y0241472D02*
X2009230Y0242756D01*
X2011749Y0201255D02*
Y0268929D01*
X2010174Y0202015D02*
Y0268929D01*
X2008606Y0240374D02*
X2009061Y0239276D01*
X2008606Y0240374D02*
X2009061Y0241472D01*
Y0239276D02*
X2009230Y0237991D01*
X2008606Y0224932D02*
X2009061Y0226030D01*
X2009230Y0218300D02*
X2018318D01*
X2009230Y0219875D02*
X2018318D01*
X2009230Y0216725D02*
X2018318D01*
X2009230Y0209449D02*
Y0222549D01*
X2009061Y0223834D02*
X2009230Y0222549D01*
X2008606Y0224932D02*
X2009061Y0223834D01*
Y0208165D02*
X2009230Y0209449D01*
X2008565Y0206967D02*
X2009061Y0208165D01*
X1977104Y0260820D02*
Y0268929D01*
X1983403Y0260820D02*
Y0268929D01*
X1975529Y0260820D02*
Y0268929D01*
X1981828Y0260717D02*
Y0268929D01*
X1978678Y0260711D02*
Y0268929D01*
X1969565Y0265544D02*
X2018318D01*
X1968672Y0267119D02*
X2018318D01*
X1969649Y0263969D02*
X2018318D01*
X1973954Y0260820D02*
Y0268929D01*
X1982613Y0260820D02*
X2004266D01*
X1982612Y0260820D02*
X2004267D01*
X1977848D02*
X1982612D01*
X1981328Y0260651D02*
X1982613Y0260820D01*
X1977848D02*
X1979132Y0260651D01*
X1968993Y0262395D02*
X2018318D01*
X1972405Y0260820D02*
X1977848D01*
X1972404Y0260820D02*
X1977848D01*
X1972083Y0260777D02*
X1972405Y0260820D01*
X1967655Y0267870D02*
Y0268929D01*
X1969230Y0266363D02*
Y0268929D01*
X1966080Y0268260D02*
Y0268929D01*
X1972379Y0260817D02*
Y0268929D01*
X1970804Y0260522D02*
Y0268929D01*
X1964505Y0267945D02*
Y0268929D01*
X1868541Y0267119D02*
X1963328D01*
X1971443Y0260693D02*
X1971757Y0260777D01*
X1972083D01*
X1971120Y0260651D02*
X1971443Y0260693D01*
X1970820Y0260526D02*
X1971120Y0260651D01*
X1959478Y0260820D02*
X1972404D01*
X1868546Y0262395D02*
X1963007D01*
X1980253Y0260206D02*
Y0268929D01*
X1970506Y0260442D02*
X1970820Y0260526D01*
X1970224Y0260279D02*
X1970506Y0260442D01*
X1980230Y0260196D02*
X1981328Y0260651D01*
X1979132D02*
X1980230Y0260196D01*
X1969923Y0260155D02*
X1970224Y0260279D01*
X1969665Y0259957D02*
X1969923Y0260155D01*
X1969383Y0259794D02*
X1969665Y0259957D01*
X1969230Y0259640D02*
Y0262765D01*
X1969153Y0259564D02*
X1969383Y0259794D01*
X1968895Y0259366D02*
X1969153Y0259564D01*
X1968697Y0259108D02*
X1968895Y0259366D01*
X1968467Y0258878D02*
X1968697Y0259108D01*
X1968304Y0258596D02*
X1968467Y0258878D01*
X1963080Y0259245D02*
X1968802D01*
X1968106Y0258338D02*
X1968304Y0258596D01*
X1967982Y0258037D02*
X1968106Y0258338D01*
X1967297Y0258112D02*
X1967950Y0257982D01*
X1966080Y0258207D02*
Y0260868D01*
X1963578Y0258596D02*
X1963776Y0258338D01*
X1963415Y0258878D02*
X1963578Y0258596D01*
X1967655Y0258040D02*
Y0261258D01*
X1964505Y0258096D02*
Y0261183D01*
X1962729Y0259564D02*
X1962987Y0259366D01*
X1962930Y0259410D02*
Y0262504D01*
X1963185Y0259108D02*
X1963415Y0258878D01*
X1962987Y0259366D02*
X1963185Y0259108D01*
X1966329Y0258207D02*
X1966812Y0258143D01*
X1965553Y0258207D02*
X1966329D01*
X1966812Y0258143D02*
X1967297Y0258112D01*
X1965071Y0258143D02*
X1965553Y0258207D01*
X1964585Y0258112D02*
X1965071Y0258143D01*
X1963776Y0258338D02*
X1963901Y0258037D01*
X1963949Y0207332D02*
X1964585Y0207206D01*
X1963933Y0257982D02*
X1964585Y0258112D01*
X2008693Y0207277D02*
X2018318D01*
X2007467Y0205702D02*
X2018318D01*
X2007776Y0205939D02*
X2008565Y0206967D01*
X2008600Y0202009D02*
Y0207050D01*
X2006748Y0205151D02*
X2007776Y0205939D01*
X2005551Y0204655D02*
X2006748Y0205151D01*
X2007025Y0201233D02*
Y0205363D01*
X2004266Y0204486D02*
X2005551Y0204655D01*
X2012958Y0199403D02*
X2018318D01*
X2013052Y0197828D02*
X2018318D01*
X2012050Y0200977D02*
X2018318D01*
X2012410Y0196253D02*
X2018318D01*
X1982613Y0193655D02*
X2004266D01*
X1997576D02*
Y0204486D01*
X1999151Y0193655D02*
Y0204486D01*
X1996001Y0193655D02*
Y0204486D01*
X2003875Y0193655D02*
Y0204486D01*
X2000726Y0193655D02*
Y0204486D01*
X1982613D02*
X2004266D01*
X1980230Y0205109D02*
X1981328Y0204655D01*
X1982613Y0204486D01*
X1981828Y0193551D02*
Y0204589D01*
X1991277Y0193655D02*
Y0204486D01*
X1992852Y0193655D02*
Y0204486D01*
X1989702Y0193655D02*
Y0204486D01*
X2002300Y0193655D02*
Y0204486D01*
X1994426Y0193655D02*
Y0204486D01*
X1984978Y0193655D02*
Y0204486D01*
X1983403Y0193655D02*
Y0204486D01*
X1988127Y0193655D02*
Y0204486D01*
X1986552Y0193655D02*
Y0204486D01*
X2009230Y0185229D02*
X2018318D01*
X2009230Y0183655D02*
X2018318D01*
X2009230Y0186804D02*
X2018318D01*
X2009230Y0180505D02*
X2018318D01*
X2009230Y0182080D02*
X2018318D01*
X2008292Y0191529D02*
X2018318D01*
X2006473Y0193103D02*
X2018318D01*
X2009230Y0188379D02*
X2018318D01*
X2009064Y0189954D02*
X2018318D01*
X2009230Y0177355D02*
X2018318D01*
X2009230Y0175781D02*
X2018318D01*
X2009230Y0178930D02*
X2018318D01*
X2009230Y0166332D02*
X2018318D01*
X2009230Y0167907D02*
X2018318D01*
X2008845Y0172631D02*
X2018318D01*
X2009019Y0174206D02*
X2018318D01*
X2009230Y0169481D02*
X2018318D01*
X2009200Y0171056D02*
X2018318D01*
X2007025Y0192777D02*
Y0195567D01*
X2006748Y0192990D02*
X2007776Y0192201D01*
X2005551Y0193485D02*
X2006748Y0192990D01*
X2008600Y0191090D02*
Y0194791D01*
X2007776Y0192201D02*
X2008565Y0191173D01*
X2004266Y0193655D02*
X2005551Y0193485D01*
X2005450Y0193499D02*
Y0204641D01*
X1981328Y0193485D02*
X1982613Y0193655D01*
X1980253Y0193040D02*
Y0205100D01*
X2009230Y0175591D02*
Y0188691D01*
X2009061Y0189976D02*
X2009230Y0188691D01*
Y0164757D02*
X2018318D01*
X2009061Y0174306D02*
X2009230Y0175591D01*
X2008606Y0173208D02*
X2009061Y0174306D01*
X2008565Y0191173D02*
X2009061Y0189976D01*
Y0172110D02*
X2009230Y0170826D01*
X2008606Y0173208D02*
X2009061Y0172110D01*
X1969372Y0205511D02*
X1969654Y0205349D01*
X1969912Y0205151D01*
X1969142Y0205741D02*
X1969372Y0205511D01*
X1979132Y0204655D02*
X1980230Y0205109D01*
X1969912Y0205151D02*
X1970212Y0205026D01*
X1968686Y0206197D02*
X1968884Y0205939D01*
X1968456Y0206428D02*
X1968686Y0206197D01*
X1962701Y0205702D02*
X1969181D01*
X1968884Y0205939D02*
X1969142Y0205741D01*
X1971746Y0204528D02*
X1972071D01*
X1972393Y0204486D01*
X1971431Y0204612D02*
X1971746Y0204528D01*
X1977848Y0204486D02*
X1979132Y0204655D01*
X1972393Y0204486D02*
X1977848D01*
X1970494Y0204863D02*
X1970808Y0204779D01*
X1970212Y0205026D02*
X1970494Y0204863D01*
X1971109Y0204655D02*
X1971431Y0204612D01*
X1970808Y0204779D02*
X1971109Y0204655D01*
X1967297Y0207206D02*
X1967933Y0207332D01*
X1967655Y0207277D02*
X1967965D01*
X1966812Y0207174D02*
X1967297Y0207206D01*
X1967970Y0207268D02*
X1968095Y0206967D01*
X1966329Y0207110D02*
X1966812Y0207174D01*
X1964585Y0207206D02*
X1965071Y0207174D01*
X1963917Y0207277D02*
X1964227D01*
X1965071Y0207174D02*
X1965553Y0207110D01*
X1963788Y0206967D02*
X1963912Y0207268D01*
X1965553Y0207110D02*
X1966329D01*
X1963590Y0206709D02*
X1963788Y0206967D01*
X1968293Y0206709D02*
X1968456Y0206428D01*
X1968095Y0206967D02*
X1968293Y0206709D01*
X1963427Y0206428D02*
X1963590Y0206709D01*
X1963197Y0206197D02*
X1963427Y0206428D01*
X1962999Y0205939D02*
X1963197Y0206197D01*
X1962741Y0205741D02*
X1962999Y0205939D01*
X1973954Y0193655D02*
Y0204486D01*
X1975529Y0193655D02*
Y0204486D01*
X1972379Y0193655D02*
Y0204487D01*
X1978678Y0193545D02*
Y0204595D01*
X1977104Y0193655D02*
Y0204486D01*
X1867294Y0202552D02*
X2018318D01*
X1969391Y0200977D02*
X2006750D01*
X1970804Y0193655D02*
Y0204780D01*
X1970225Y0197828D02*
X2005748D01*
X1980055Y0193103D02*
X1980406D01*
X1977848Y0193655D02*
X1979132Y0193485D01*
X1980230Y0193031D02*
X1981328Y0193485D01*
X1979132D02*
X1980230Y0193031D01*
X1970198Y0199403D02*
X2005842D01*
X1969494Y0196253D02*
X2006391D01*
X1954035Y0193655D02*
X1977848D01*
X1967655Y0202097D02*
Y0207277D01*
X1966080Y0202214D02*
Y0207110D01*
X1964505Y0201600D02*
Y0207221D01*
X1969230Y0201152D02*
Y0205654D01*
X1869257Y0200977D02*
X1963809D01*
X1869780Y0199403D02*
X1963002D01*
X1962930Y0199002D02*
Y0205887D01*
X1969230Y0193655D02*
Y0195955D01*
X1967655Y0193655D02*
Y0195010D01*
X1966080Y0193655D02*
Y0194894D01*
X1868513Y0196253D02*
X1963706D01*
X1869588Y0197828D02*
X1962975D01*
X1964505Y0193655D02*
Y0195508D01*
X1962930Y0193655D02*
Y0198106D01*
X1958206Y0260820D02*
Y0268929D01*
X1962930Y0266624D02*
Y0268929D01*
X1956631Y0260820D02*
Y0268929D01*
X1955056Y0260820D02*
Y0268929D01*
X1948757Y0260820D02*
Y0268929D01*
X1939308Y0260820D02*
Y0268929D01*
X1937734Y0260820D02*
Y0268929D01*
X1947182Y0260820D02*
Y0268929D01*
X1945608Y0260820D02*
Y0268929D01*
X1944033Y0260820D02*
Y0268929D01*
X1954035Y0260820D02*
X1959477D01*
X1942458D02*
Y0268929D01*
X1954034Y0260820D02*
X1959478D01*
X1949270D02*
X1954034D01*
X1927616Y0260820D02*
X1949270D01*
X1934584D02*
Y0268929D01*
X1940883Y0260820D02*
Y0268929D01*
X1936159Y0260820D02*
Y0268929D01*
X1928285Y0260820D02*
Y0268929D01*
X1929860Y0260820D02*
Y0268929D01*
X1921986Y0260820D02*
Y0268929D01*
X1933009Y0260820D02*
Y0268929D01*
X1931434Y0260820D02*
Y0268929D01*
X1917261Y0260820D02*
Y0268929D01*
X1903088Y0260820D02*
Y0268929D01*
X1920411Y0260820D02*
Y0268929D01*
X1918836Y0260820D02*
Y0268929D01*
X1912537Y0260820D02*
Y0268929D01*
X1914112Y0260820D02*
Y0268929D01*
X1910962Y0260820D02*
Y0268929D01*
X1922852Y0260820D02*
X1927615D01*
X1915686Y0260820D02*
Y0268929D01*
X1909150Y0260820D02*
X1922851D01*
X1909387D02*
Y0268929D01*
X1909149Y0260820D02*
X1922852D01*
X1904385D02*
X1909149D01*
X1959800Y0260777D02*
X1960125D01*
X1960439Y0260693D01*
X1959781Y0260780D02*
Y0268929D01*
X1961356Y0260448D02*
Y0268929D01*
X1960439Y0260693D02*
X1960762Y0260651D01*
X1959477Y0260820D02*
X1959800Y0260777D01*
X1953482Y0260747D02*
Y0268929D01*
X1952750Y0260651D02*
X1954035Y0260820D01*
X1951907Y0260301D02*
Y0268929D01*
X1961659Y0260279D02*
X1961959Y0260155D01*
X1962217Y0259957D01*
X1961377Y0260442D02*
X1961659Y0260279D01*
X1962499Y0259794D02*
X1962729Y0259564D01*
X1962217Y0259957D02*
X1962499Y0259794D01*
X1961063Y0260526D02*
X1961377Y0260442D01*
X1960762Y0260651D02*
X1961063Y0260526D01*
X1951652Y0260196D02*
X1952750Y0260651D01*
X1950554D02*
X1951652Y0260196D01*
X1950332Y0260680D02*
Y0268929D01*
X1949270Y0260820D02*
X1950554Y0260651D01*
X1926710Y0260701D02*
Y0268929D01*
X1926331Y0260651D02*
X1927616Y0260820D01*
X1925135Y0260237D02*
Y0268929D01*
X1923560Y0260726D02*
Y0268929D01*
X1904663Y0260783D02*
Y0268929D01*
X1907812Y0260629D02*
Y0268929D01*
X1906238Y0260415D02*
Y0268929D01*
X1927615Y0260820D02*
X1949270D01*
X1922851Y0260820D02*
X1924136Y0260651D01*
X1925233Y0260196D02*
X1926331Y0260651D01*
X1924136D02*
X1925233Y0260196D01*
X1907865Y0260651D02*
X1909150Y0260820D01*
X1904384D02*
X1905669Y0260651D01*
X1906767Y0260196D02*
X1907865Y0260651D01*
X1905669D02*
X1906767Y0260196D01*
X1896789Y0260820D02*
Y0268929D01*
X1898364Y0260820D02*
Y0268929D01*
X1895214Y0260820D02*
Y0268929D01*
X1901513Y0260820D02*
Y0268929D01*
X1899938Y0260820D02*
Y0268929D01*
X1885765Y0260820D02*
Y0268929D01*
X1884190Y0260820D02*
Y0268929D01*
X1893639Y0260820D02*
Y0268929D01*
X1892064Y0260820D02*
Y0268929D01*
X1888915Y0260820D02*
Y0268929D01*
X1890490Y0260820D02*
Y0268929D01*
X1887340Y0260820D02*
Y0268929D01*
X1882730Y0260820D02*
X1904385D01*
X1882731Y0260820D02*
X1904384D01*
X1869311Y0265544D02*
X1962435D01*
X1869313Y0263969D02*
X1962351D01*
X1881446Y0260651D02*
X1882731Y0260820D01*
X1877967Y0260820D02*
X1882730D01*
X1874742Y0260820D02*
Y0268929D01*
X1876316Y0260820D02*
Y0268929D01*
X1873167Y0260820D02*
Y0268929D01*
X1882616Y0260805D02*
Y0268929D01*
X1877891Y0260820D02*
Y0268929D01*
X1866868Y0268261D02*
Y0268929D01*
X1865293Y0268428D02*
Y0268929D01*
X1871592Y0260699D02*
Y0268929D01*
X1868442Y0267233D02*
Y0268929D01*
X1872534Y0260820D02*
X1877966D01*
X1872533Y0260820D02*
X1877967D01*
X1872211Y0260777D02*
X1872534Y0260820D01*
X1871886Y0260777D02*
X1872211D01*
X1871572Y0260693D02*
X1871886Y0260777D01*
X1871249Y0260651D02*
X1871572Y0260693D01*
X1879466Y0260562D02*
Y0268929D01*
X1881041Y0260483D02*
Y0268929D01*
X1877966Y0260820D02*
X1879251Y0260651D01*
X1880348Y0260196D02*
X1881446Y0260651D01*
X1879251D02*
X1880348Y0260196D01*
X1870948Y0260526D02*
X1871249Y0260651D01*
X1870634Y0260442D02*
X1870948Y0260526D01*
X1870017Y0260128D02*
Y0268929D01*
X1868442Y0258612D02*
Y0262274D01*
X1870352Y0260279D02*
X1870634Y0260442D01*
X1870052Y0260155D02*
X1870352Y0260279D01*
X1869794Y0259957D02*
X1870052Y0260155D01*
X1869512Y0259794D02*
X1869794Y0259957D01*
X1869282Y0259564D02*
X1869512Y0259794D01*
X1869024Y0259366D02*
X1869282Y0259564D01*
X1868826Y0259108D02*
X1869024Y0259366D01*
X1868596Y0258878D02*
X1868826Y0259108D01*
X1868433Y0258596D02*
X1868596Y0258878D01*
X1868235Y0258338D02*
X1868433Y0258596D01*
X1866458Y0258207D02*
X1866940Y0258143D01*
X1866868Y0258153D02*
Y0261246D01*
X1868110Y0258037D02*
X1868235Y0258338D01*
X1866940Y0258143D02*
X1867426Y0258112D01*
X1865682Y0258207D02*
X1866458D01*
X1865293Y0258156D02*
Y0261079D01*
X1865199Y0258143D02*
X1865682Y0258207D01*
X1863905Y0258338D02*
X1864029Y0258037D01*
X1867426Y0207045D02*
X1868187Y0207196D01*
X1867426Y0258112D02*
X1868078Y0257982D01*
X1866940Y0207013D02*
X1867426Y0207045D01*
X1865199Y0207013D02*
X1865682Y0206949D01*
X1864714Y0258112D02*
X1865199Y0258143D01*
X1864061Y0257982D02*
X1864714Y0258112D01*
X1864714Y0207045D02*
X1865199Y0207013D01*
X1863953Y0207196D02*
X1864714Y0207045D01*
X1962511Y0205511D02*
X1962741Y0205741D01*
X1962229Y0205348D02*
X1962511Y0205511D01*
X1961971Y0205151D02*
X1962229Y0205348D01*
X1961670Y0205026D02*
X1961971Y0205151D01*
X1961389Y0204863D02*
X1961670Y0205026D01*
X1961074Y0204779D02*
X1961389Y0204863D01*
X1960774Y0204655D02*
X1961074Y0204779D01*
X1961356Y0193655D02*
Y0204854D01*
X1960451Y0204612D02*
X1960774Y0204655D01*
X1960137Y0204528D02*
X1960451Y0204612D01*
X1959812Y0204528D02*
X1960137D01*
X1959489Y0204486D02*
X1959812Y0204528D01*
X1959781Y0193655D02*
Y0204524D01*
X1958206Y0193655D02*
Y0204486D01*
X1954035D02*
X1959489D01*
X1952750Y0204655D02*
X1954035Y0204486D01*
X1956631Y0193655D02*
Y0204486D01*
X1955056Y0193655D02*
Y0204486D01*
X1950554Y0204655D02*
X1951652Y0205109D01*
X1952750Y0204655D01*
X1949270Y0204486D02*
X1950554Y0204655D01*
X1947182Y0193655D02*
Y0204486D01*
X1926331Y0204655D02*
X1927616Y0204486D01*
X1925233Y0205109D02*
X1926331Y0204655D01*
X1924136D02*
X1925233Y0205109D01*
X1922851Y0204486D02*
X1924136Y0204655D01*
X1907865D02*
X1909150Y0204486D01*
X1942458Y0193655D02*
Y0204486D01*
X1944033Y0193655D02*
Y0204486D01*
X1940883Y0193655D02*
Y0204486D01*
X1948757Y0193655D02*
Y0204486D01*
X1945608Y0193655D02*
Y0204486D01*
X1927616D02*
X1949270D01*
X1909150D02*
X1922851D01*
X1939308Y0193655D02*
Y0204486D01*
X1912537Y0193655D02*
Y0204486D01*
X1953482Y0193582D02*
Y0204558D01*
X1937734Y0193655D02*
Y0204486D01*
X1936159Y0193655D02*
Y0204486D01*
X1951907Y0193136D02*
Y0205004D01*
X1950332Y0193515D02*
Y0204625D01*
X1934584Y0193655D02*
Y0204486D01*
X1929860Y0193655D02*
Y0204486D01*
X1928285Y0193655D02*
Y0204486D01*
X1926710Y0193535D02*
Y0204605D01*
X1952750Y0193485D02*
X1954035Y0193655D01*
X1951477Y0193103D02*
X1951828D01*
X1949270Y0193655D02*
X1950554Y0193485D01*
X1951652Y0193031D02*
X1952750Y0193485D01*
X1950554D02*
X1951652Y0193031D01*
X1933009Y0193655D02*
Y0204486D01*
X1931434Y0193655D02*
Y0204486D01*
X1927616Y0193655D02*
X1949270D01*
X1926331Y0193485D02*
X1927616Y0193655D01*
X1920411D02*
Y0204486D01*
X1921986Y0193655D02*
Y0204486D01*
X1918836Y0193655D02*
Y0204486D01*
X1925135Y0193071D02*
Y0205069D01*
X1923560Y0193561D02*
Y0204579D01*
X1917261Y0193655D02*
Y0204486D01*
X1910962Y0193655D02*
Y0204486D01*
X1909387Y0193655D02*
Y0204486D01*
X1907812Y0193464D02*
Y0204676D01*
X1925058Y0193103D02*
X1925409D01*
X1922851Y0193655D02*
X1924136Y0193485D01*
X1925233Y0193031D02*
X1926331Y0193485D01*
X1924136D02*
X1925233Y0193031D01*
X1915686Y0193655D02*
Y0204486D01*
X1914112Y0193655D02*
Y0204486D01*
X1909150Y0193655D02*
X1922851D01*
X1907865Y0193485D02*
X1909150Y0193655D01*
X1905669Y0204655D02*
X1906767Y0205109D01*
X1907865Y0204655D01*
X1880348Y0205109D02*
X1881446Y0204655D01*
X1904384Y0204486D02*
X1905669Y0204655D01*
X1881446D02*
X1882731Y0204486D01*
X1870730Y0204863D02*
X1871044Y0204779D01*
X1870448Y0205026D02*
X1870730Y0204863D01*
X1879251Y0204655D02*
X1880348Y0205109D01*
X1871044Y0204779D02*
X1871344Y0204655D01*
X1877966Y0204486D02*
X1879251Y0204655D01*
X1882731Y0204486D02*
X1904384D01*
X1872629D02*
X1877966D01*
X1890490Y0193655D02*
Y0204486D01*
X1888915Y0193655D02*
Y0204486D01*
X1871667Y0204612D02*
X1871981Y0204528D01*
X1871344Y0204655D02*
X1871667Y0204612D01*
X1872306Y0204528D02*
X1872629Y0204486D01*
X1871981Y0204528D02*
X1872306Y0204528D01*
X1868528Y0206709D02*
X1868691Y0206427D01*
X1868921Y0206197D01*
X1868330Y0206967D02*
X1868528Y0206709D01*
X1868921Y0206197D02*
X1869119Y0205939D01*
X1868442Y0201914D02*
Y0206821D01*
X1866458Y0206949D02*
X1866940Y0207013D01*
X1865682Y0206949D02*
X1866458D01*
X1866868Y0202670D02*
Y0207003D01*
X1865293Y0202661D02*
Y0207000D01*
X1869607Y0205511D02*
X1869889Y0205349D01*
X1869377Y0205741D02*
X1869607Y0205511D01*
X1870147Y0205151D02*
X1870448Y0205026D01*
X1869889Y0205349D02*
X1870147Y0205151D01*
X1869119Y0205939D02*
X1869377Y0205741D01*
X1901513Y0193655D02*
Y0204486D01*
X1903088Y0193655D02*
Y0204486D01*
X1899938Y0193655D02*
Y0204486D01*
X1906238Y0193250D02*
Y0204890D01*
X1904663Y0193618D02*
Y0204522D01*
X1887340Y0193655D02*
Y0204486D01*
X1885765Y0193655D02*
Y0204486D01*
X1898364Y0193655D02*
Y0204486D01*
X1896789Y0193655D02*
Y0204486D01*
X1904384Y0193655D02*
X1905669Y0193485D01*
X1906591Y0193103D02*
X1906943D01*
X1895214Y0193655D02*
Y0204486D01*
X1906767Y0193031D02*
X1907865Y0193485D01*
X1905669D02*
X1906767Y0193031D01*
X1882731Y0193655D02*
X1904384D01*
X1884190D02*
Y0204486D01*
X1893639Y0193655D02*
Y0204486D01*
X1892064Y0193655D02*
Y0204486D01*
X1882616Y0193639D02*
Y0204501D01*
X1877891Y0193655D02*
Y0204486D01*
X1876316Y0193655D02*
Y0204486D01*
X1881041Y0193317D02*
Y0204823D01*
X1879466Y0193396D02*
Y0204744D01*
X1871592Y0193655D02*
Y0204622D01*
X1870017Y0193655D02*
Y0205250D01*
X1874742Y0193655D02*
Y0204486D01*
X1873167Y0193655D02*
Y0204486D01*
X1881446Y0193485D02*
X1882731Y0193655D01*
X1880173Y0193103D02*
X1880524D01*
X1880348Y0193031D02*
X1881446Y0193485D01*
X1879251D02*
X1880348Y0193031D01*
X1866868Y0193655D02*
Y0195437D01*
X1865293Y0193655D02*
Y0195446D01*
X1877966Y0193655D02*
X1879251Y0193485D01*
X1868442Y0193655D02*
Y0196194D01*
X2009230Y0161607D02*
X2018318D01*
X2009230Y0160033D02*
X2018318D01*
X2009230Y0163182D02*
X2018318D01*
X2009230Y0156883D02*
X2018318D01*
X2009230Y0158458D02*
X2018318D01*
X2009184Y0153733D02*
X2018318D01*
X2009230Y0155308D02*
X2018318D01*
X2009064Y0150584D02*
X2018318D01*
X2008795Y0152159D02*
X2018318D01*
X2009230Y0147434D02*
X2018318D01*
X2009230Y0145859D02*
X2018318D01*
X2009230Y0149009D02*
X2018318D01*
X2009230Y0142710D02*
X2018318D01*
X2009230Y0144285D02*
X2018318D01*
X2009230Y0139560D02*
X2018318D01*
X2009230Y0141135D02*
X2018318D01*
X2006179Y0131686D02*
X2018318D01*
X2009019Y0134836D02*
X2018318D01*
X2009061Y0152801D02*
X2009230Y0154086D01*
Y0137985D02*
X2018318D01*
X2009230Y0154086D02*
Y0170826D01*
Y0136411D02*
X2018318D01*
X2009230Y0136221D02*
Y0149321D01*
X2008606Y0151703D02*
X2009061Y0150605D01*
X2008606Y0151703D02*
X2009061Y0152801D01*
Y0134936D02*
X2009230Y0136221D01*
X2009061Y0150605D02*
X2009230Y0149321D01*
X2008565Y0133739D02*
X2009061Y0134936D01*
X2008198Y0133261D02*
X2018318D01*
X2007776Y0132711D02*
X2008565Y0133739D01*
X2006748Y0131922D02*
X2007776Y0132711D01*
X2005551Y0131426D02*
X2006748Y0131922D01*
X2004266Y0131257D02*
X2005551Y0131426D01*
X1982613Y0131257D02*
X2004266D01*
X1991277Y0119696D02*
Y0131257D01*
X1981328Y0131426D02*
X1982613Y0131257D01*
X2014899Y0055769D02*
Y0268929D01*
X2018318Y0101598D02*
Y0268929D01*
X2013324Y0055769D02*
Y0268929D01*
X2018048Y0055768D02*
Y0268929D01*
X2016474Y0055768D02*
Y0268929D01*
X2008600Y0117263D02*
Y0133822D01*
X2007025Y0118875D02*
Y0132134D01*
X2011749Y0055769D02*
Y0195545D01*
X2010174Y0055769D02*
Y0194785D01*
X2006684Y0119088D02*
X2018318D01*
X2008408Y0117513D02*
X2018318D01*
X2006820Y0119031D02*
X2007848Y0118243D01*
X2008637Y0117215D02*
X2009133Y0116017D01*
X2007848Y0118243D02*
X2008637Y0117215D01*
X2005450Y0119550D02*
Y0131413D01*
X1982685Y0119696D02*
X2004338D01*
X2005623Y0119527D02*
X2006820Y0119031D01*
X2004338Y0119696D02*
X2005623Y0119527D01*
X1999151Y0119696D02*
Y0131257D01*
X2000726Y0119696D02*
Y0131257D01*
X1997576Y0119696D02*
Y0131257D01*
X2003875Y0119696D02*
Y0131257D01*
X2002300Y0119696D02*
Y0131257D01*
X1996001Y0119696D02*
Y0131257D01*
X1994426Y0119696D02*
Y0131257D01*
X1981828Y0119584D02*
Y0131360D01*
X1980253Y0119103D02*
Y0131872D01*
X1988127Y0119696D02*
Y0131257D01*
X1986552Y0119696D02*
Y0131257D01*
X1992852Y0119696D02*
Y0131257D01*
X1989702Y0119696D02*
Y0131257D01*
X1984978Y0119696D02*
Y0131257D01*
X1983403Y0119696D02*
Y0131257D01*
X1981400Y0119527D02*
X1982685Y0119696D01*
X1980314Y0119077D02*
X1981400Y0119527D01*
X1980230Y0131881D02*
X1981328Y0131426D01*
X1979760Y0131686D02*
X1980701D01*
X1979132Y0131426D02*
X1980230Y0131881D01*
X1977848Y0131257D02*
X1979132Y0131426D01*
X1978678Y0119613D02*
Y0131367D01*
X1973954Y0119715D02*
Y0131257D01*
X1972379Y0119716D02*
Y0131257D01*
X1977104Y0119713D02*
Y0131257D01*
X1975529Y0119714D02*
Y0131257D01*
X1969877Y0125387D02*
X2018318D01*
X1969941Y0123812D02*
X2018318D01*
X1972335Y0119716D02*
X1977909Y0119712D01*
X1978711Y0119606D02*
X1979193Y0119543D01*
X1978234Y0119702D02*
X1978711Y0119606D01*
X1969016Y0126962D02*
X2018318D01*
X1954035Y0131257D02*
X1977848D01*
X1866979Y0120663D02*
X2018318D01*
X1969259Y0122237D02*
X2018318D01*
X1966080Y0128144D02*
Y0131257D01*
X1967655Y0127893D02*
Y0131257D01*
X1964505Y0127685D02*
Y0131257D01*
X1969230Y0126708D02*
Y0131257D01*
X1868616Y0126962D02*
X1963584D01*
X1962930Y0125974D02*
Y0131257D01*
X1869619Y0125387D02*
X1962723D01*
X1972012Y0119673D02*
X1972335Y0119716D01*
X1971686Y0119673D02*
X1972012Y0119673D01*
X1971372Y0119589D02*
X1971686Y0119673D01*
X1971050Y0119547D02*
X1971372Y0119589D01*
X1869770Y0123812D02*
X1962659D01*
X1869199Y0122237D02*
X1963341D01*
X1970804Y0119446D02*
Y0131257D01*
X1970749Y0119423D02*
X1971050Y0119547D01*
X1970434Y0119338D02*
X1970749Y0119423D01*
X1979941Y0119232D02*
X1980314Y0119077D01*
X1979504Y0119448D02*
X1979941Y0119232D01*
X1970153Y0119176D02*
X1970434Y0119338D01*
X1961968Y0119088D02*
X1969939D01*
X1969853Y0119052D02*
X1970153Y0119176D01*
X1969230Y0118609D02*
Y0122199D01*
X1969594Y0118854D02*
X1969853Y0119052D01*
X1969312Y0118691D02*
X1969594Y0118854D01*
X1969082Y0118461D02*
X1969312Y0118691D01*
X1968825Y0118264D02*
X1969082Y0118461D01*
X1968626Y0118005D02*
X1968825Y0118264D01*
X1968395Y0117775D02*
X1968626Y0118005D01*
X1963651Y0117513D02*
X1968244D01*
X1968233Y0117494D02*
X1968395Y0117775D01*
X1968035Y0117236D02*
X1968233Y0117494D01*
X1966080Y0117030D02*
Y0120763D01*
X1963267Y0118010D02*
X1963497Y0117780D01*
X1963070Y0118268D02*
X1963267Y0118010D01*
X1967655Y0116863D02*
Y0121014D01*
X1964505Y0116919D02*
Y0121222D01*
X1962581Y0118697D02*
X1962811Y0118466D01*
X1962300Y0118859D02*
X1962581Y0118697D01*
X1962811Y0118466D02*
X1963070Y0118268D01*
X1962930Y0118375D02*
Y0122933D01*
X1966329Y0117030D02*
X1966812Y0116966D01*
X1965553Y0117030D02*
X1966329D01*
X1967910Y0116935D02*
X1968035Y0117236D01*
X1965071Y0116966D02*
X1965553Y0117030D01*
X1963660Y0117498D02*
X1963858Y0117239D01*
X1963497Y0117780D02*
X1963660Y0117498D01*
X1964585Y0116935D02*
X1965071Y0116966D01*
X1963858Y0117239D02*
X1963982Y0116939D01*
X2009302Y0103340D02*
X2018318D01*
X2009302Y0104915D02*
X2018318D01*
X2019540Y0083135D02*
Y0100376D01*
X2009302Y0101765D02*
X2018318D01*
X2009302Y0112789D02*
X2018318D01*
X2008897Y0098615D02*
X2019540D01*
X2009112Y0100190D02*
X2019540D01*
X2009302Y0093891D02*
X2019540D01*
X2009302Y0092316D02*
X2019540D01*
X2009302Y0095466D02*
X2019540D01*
X2009302Y0087592D02*
X2019540D01*
X2009302Y0090741D02*
X2019540D01*
X2009302Y0089167D02*
X2019540D01*
X2009265Y0097041D02*
X2019540D01*
X2008742Y0084442D02*
X2019540D01*
X2009176Y0086017D02*
X2019540D01*
X2009302Y0111214D02*
X2018318D01*
X2009302Y0109639D02*
X2018318D01*
X2009302Y0114363D02*
X2018318D01*
X2009302Y0106490D02*
X2018318D01*
X2009302Y0101525D02*
Y0114733D01*
X2009143Y0115938D02*
X2018318D01*
X2009133Y0116017D02*
X2009302Y0114733D01*
Y0108064D02*
X2018318D01*
X2009133Y0100241D02*
X2009302Y0101525D01*
X2009133Y0098045D02*
X2009302Y0096760D01*
X2009302Y0090741D02*
X2009302Y0096760D01*
X2009302Y0089167D02*
Y0090741D01*
X2009133Y0085694D02*
X2009302Y0086978D01*
Y0089167D01*
X2008678Y0099143D02*
X2009133Y0098045D01*
X2008678Y0099143D02*
X2009133Y0100241D01*
X2008678Y0084596D02*
X2009133Y0083498D01*
X2008678Y0084596D02*
X2009133Y0085694D01*
X2009302Y0079718D02*
X2018318D01*
Y0055768D02*
Y0081913D01*
X2009302Y0069006D02*
Y0082213D01*
X2009216Y0082867D02*
X2018778D01*
X2009133Y0083498D02*
X2009302Y0082213D01*
Y0078143D02*
X2018318D01*
X2009302Y0081293D02*
X2018318D01*
X2009302Y0074993D02*
X2018318D01*
X2009302Y0073419D02*
X2018318D01*
X2009302Y0076568D02*
X2018318D01*
X2009302Y0070269D02*
X2018318D01*
X2009302Y0071844D02*
X2018318D01*
X2009261Y0068694D02*
X2018318D01*
X2009133Y0067721D02*
X2009302Y0069006D01*
X2007886Y0065545D02*
X2018318D01*
X2008884Y0067119D02*
X2018318D01*
X2008637Y0066524D02*
X2009133Y0067721D01*
X2007848Y0065496D02*
X2008637Y0066524D01*
X2006820Y0064707D02*
X2007848Y0065496D01*
X2008600Y0055769D02*
Y0066475D01*
X2007025Y0055770D02*
Y0064864D01*
X2005623Y0064211D02*
X2006820Y0064707D01*
X2004338Y0064042D02*
X2005623Y0064211D01*
X2005450Y0055770D02*
Y0064188D01*
X2003875Y0055770D02*
Y0064042D01*
X1999151Y0055771D02*
Y0064042D01*
X1997576Y0055771D02*
Y0064042D01*
X2002300Y0055770D02*
Y0064042D01*
X2000726Y0055770D02*
Y0064042D01*
X1992852Y0055772D02*
Y0064042D01*
X1991277Y0055772D02*
Y0064042D01*
X1996001Y0055771D02*
Y0064042D01*
X1994426Y0055771D02*
Y0064042D01*
X1969033Y0064628D02*
X1969503Y0064253D01*
X1980568Y0064556D02*
X1981400Y0064211D01*
X1968555Y0064995D02*
X1969033Y0064628D01*
X1981400Y0064211D02*
X1982685Y0064042D01*
X1979639Y0064019D02*
X1980088Y0064206D01*
X1967766Y0066022D02*
X1968133Y0065545D01*
X1967297Y0116935D02*
X1967846Y0116825D01*
X1968133Y0065545D02*
X1968490Y0065061D01*
X1963750Y0065545D02*
X1968133D01*
X1982685Y0064042D02*
X2004338D01*
X1979538Y0063970D02*
X2018318D01*
X1979202Y0063804D02*
X1979639Y0064019D01*
X1978409Y0063646D02*
X1978891Y0063710D01*
X1977931Y0063551D02*
X1978409Y0063646D01*
X1967934Y0063970D02*
X1970152D01*
X1969583Y0064206D02*
X1970139Y0063975D01*
X1970780Y0063710D02*
X1971377Y0063631D01*
X1970139Y0063975D02*
X1970691Y0063735D01*
X1966812Y0116966D02*
X1967297Y0116935D01*
X1966812Y0066537D02*
X1967297Y0066569D01*
X1966329Y0066474D02*
X1966812Y0066537D01*
X1965553Y0066474D02*
X1966329D01*
X1966080Y0064344D02*
Y0066474D01*
X1964585Y0066569D02*
X1965071Y0066537D01*
X1964047Y0116827D02*
X1964585Y0116935D01*
X1965071Y0066537D02*
X1965553Y0066474D01*
X1964505Y0063885D02*
Y0066585D01*
X1967571Y0066375D02*
X1967721Y0066103D01*
X1964162D02*
X1964312Y0066375D01*
X1967655Y0064093D02*
Y0066223D01*
X1963750Y0065545D02*
X1964116Y0066022D01*
X1963392Y0065061D02*
X1963750Y0065545D01*
X1962850Y0064628D02*
X1963327Y0064995D01*
X1961731Y0063970D02*
X1964666D01*
X1962379Y0064253D02*
X1962850Y0064628D01*
X1984978Y0055773D02*
Y0064042D01*
X1986552Y0055772D02*
Y0064042D01*
X1983403Y0055773D02*
Y0064042D01*
X1989702Y0055772D02*
Y0064042D01*
X1988127Y0055772D02*
Y0064042D01*
X1978678Y0055774D02*
Y0063682D01*
X1971377Y0063631D02*
X1971972Y0063542D01*
X1981828Y0055773D02*
Y0064155D01*
X1980253Y0055773D02*
Y0064322D01*
X1973954Y0055774D02*
Y0063541D01*
X1972065D02*
X1977607D01*
X1972379Y0055774D02*
Y0063541D01*
X1977104Y0055774D02*
Y0063541D01*
X1975529Y0055774D02*
Y0063541D01*
X1969993Y0060820D02*
X2018318D01*
X1969561Y0062395D02*
X2018318D01*
X1968484Y0057671D02*
X2018318D01*
X1969718Y0059246D02*
X2018318D01*
X1969230Y0062908D02*
Y0064471D01*
X1970804Y0055774D02*
Y0063707D01*
X1869382Y0062395D02*
X1963039D01*
X1962930Y0062174D02*
Y0064690D01*
X1966080Y0055775D02*
Y0056963D01*
X1964505Y0055775D02*
Y0057422D01*
X1969230Y0055775D02*
Y0058399D01*
X1967655Y0055775D02*
Y0057214D01*
X1869827Y0059246D02*
X1962882D01*
X1869967Y0060820D02*
X1962607D01*
X1868843Y0057671D02*
X1964116D01*
X1962930Y0055776D02*
Y0059133D01*
X1951652Y0131881D02*
X1952750Y0131426D01*
X1951182Y0131686D02*
X1952122D01*
X1950554Y0131426D02*
X1951652Y0131881D01*
X1958206Y0119724D02*
Y0131257D01*
X1952750Y0131426D02*
X1954035Y0131257D01*
X1949270D02*
X1950554Y0131426D01*
X1940883Y0119696D02*
Y0131257D01*
X1939308Y0119696D02*
Y0131257D01*
X1937734Y0119696D02*
Y0131257D01*
X1956631Y0119725D02*
Y0131257D01*
X1954636Y0119726D02*
X1959561Y0119723D01*
X1955056Y0119726D02*
Y0131257D01*
X1948757Y0119696D02*
Y0131257D01*
X1947182Y0119696D02*
Y0131257D01*
X1927616D02*
X1949270D01*
X1942458Y0119696D02*
Y0131257D01*
X1945608Y0119696D02*
Y0131257D01*
X1944033Y0119696D02*
Y0131257D01*
X1925233Y0131881D02*
X1926331Y0131426D01*
X1927616Y0131257D01*
X1924763Y0131686D02*
X1925704D01*
X1929860Y0119696D02*
Y0131257D01*
X1928285Y0119696D02*
Y0131257D01*
X1924136Y0131426D02*
X1925233Y0131881D01*
X1922851Y0131257D02*
X1924136Y0131426D01*
X1909150Y0131257D02*
X1922851D01*
X1921986Y0119746D02*
Y0131257D01*
X1915686Y0119750D02*
Y0131257D01*
X1917261Y0119749D02*
Y0131257D01*
X1914112Y0119751D02*
Y0131257D01*
X1920411Y0119747D02*
Y0131257D01*
X1918836Y0119748D02*
Y0131257D01*
X1912537Y0119752D02*
Y0131257D01*
X1910962Y0119753D02*
Y0131257D01*
X1909701Y0119754D02*
X1922921Y0119746D01*
X1909387Y0119722D02*
Y0131257D01*
X1959561Y0119723D02*
X1959883Y0119681D01*
X1960207Y0119681D01*
X1959781Y0119694D02*
Y0131257D01*
X1961356Y0119373D02*
Y0131257D01*
X1960207Y0119681D02*
X1960522Y0119596D01*
X1953962Y0119638D02*
X1954572Y0119726D01*
X1953482Y0119575D02*
Y0131330D01*
X1953351Y0119558D02*
X1953962Y0119638D01*
X1951907Y0118997D02*
Y0131776D01*
X1961145Y0119429D02*
X1961459Y0119345D01*
X1961741Y0119182D01*
X1960846Y0119553D02*
X1961145Y0119429D01*
X1962042Y0119057D02*
X1962300Y0118859D01*
X1961741Y0119182D02*
X1962042Y0119057D01*
X1960522Y0119596D02*
X1960846Y0119553D01*
X1952723Y0119299D02*
X1953289Y0119541D01*
X1952154Y0119063D02*
X1952723Y0119299D01*
X1951726Y0119088D02*
X1952214D01*
X1933009Y0119696D02*
Y0131257D01*
X1934584Y0119696D02*
Y0131257D01*
X1931434Y0119696D02*
Y0131257D01*
X1950332Y0119571D02*
Y0131397D01*
X1936159Y0119696D02*
Y0131257D01*
X1923245Y0119735D02*
X1923723Y0119640D01*
X1923560Y0119672D02*
Y0131351D01*
X1926710Y0119563D02*
Y0131376D01*
X1925135Y0119190D02*
Y0131840D01*
X1949380Y0119696D02*
X1950665Y0119527D01*
X1927727Y0119696D02*
X1949380D01*
X1950665Y0119527D02*
X1951862Y0119031D01*
X1926442Y0119527D02*
X1927727Y0119696D01*
X1924515Y0119482D02*
X1924953Y0119266D01*
X1923723Y0119640D02*
X1924206Y0119576D01*
X1925381Y0119088D02*
X1926442Y0119527D01*
X1924953Y0119266D02*
X1925381Y0119088D01*
X1906767Y0131881D02*
X1907865Y0131426D01*
X1906297Y0131686D02*
X1907237D01*
X1905669Y0131426D02*
X1906767Y0131881D01*
X1907865Y0131426D02*
X1909150Y0131257D01*
X1904384D02*
X1905669Y0131426D01*
X1882731Y0131257D02*
X1904384D01*
X1881446Y0131426D02*
X1882731Y0131257D01*
X1899938Y0119696D02*
Y0131257D01*
X1898364Y0119696D02*
Y0131257D01*
X1890490Y0119696D02*
Y0131257D01*
X1892064Y0119696D02*
Y0131257D01*
X1888915Y0119696D02*
Y0131257D01*
X1896789Y0119696D02*
Y0131257D01*
X1895214Y0119696D02*
Y0131257D01*
X1882803Y0119696D02*
X1904457D01*
X1884190D02*
Y0131257D01*
X1887340Y0119696D02*
Y0131257D01*
X1885765Y0119696D02*
Y0131257D01*
X1880348Y0131881D02*
X1881446Y0131426D01*
X1879878Y0131686D02*
X1880819D01*
X1879251Y0131426D02*
X1880348Y0131881D01*
X1877966Y0131257D02*
X1879251Y0131426D01*
X1877891Y0119773D02*
Y0131257D01*
X1873167Y0119775D02*
Y0131257D01*
X1868442Y0127114D02*
Y0131257D01*
X1876316Y0119774D02*
Y0131257D01*
X1874742Y0119775D02*
Y0131257D01*
X1866868Y0127870D02*
Y0131257D01*
X1872404Y0119776D02*
X1877974Y0119773D01*
X1872080Y0119734D02*
X1872404Y0119776D01*
X1871754Y0119734D02*
X1872080Y0119734D01*
X1865293Y0127861D02*
Y0131257D01*
X1863718Y0127081D02*
Y0131257D01*
X1904663Y0119669D02*
Y0131294D01*
X1908999Y0119661D02*
X1909579Y0119752D01*
X1903088Y0119696D02*
Y0131257D01*
X1907812Y0119337D02*
Y0131448D01*
X1906238Y0119322D02*
Y0131662D01*
X1901513Y0119696D02*
Y0131257D01*
X1893639Y0119696D02*
Y0131257D01*
X1882616Y0119672D02*
Y0131272D01*
X1881041Y0119330D02*
Y0131594D01*
X1908416Y0119585D02*
X1908999Y0119661D01*
X1907762Y0119315D02*
X1908299Y0119552D01*
X1907219Y0119090D02*
X1907762Y0119315D01*
X1906802Y0119088D02*
X1907216D01*
X1905741Y0119527D02*
X1906938Y0119031D01*
X1904457Y0119696D02*
X1905741Y0119527D01*
X1881518D02*
X1882803Y0119696D01*
X1880471Y0119094D02*
X1881518Y0119527D01*
X1880005Y0119293D02*
X1880455Y0119106D01*
X1878297Y0119762D02*
X1878775Y0119667D01*
X1871441Y0119650D02*
X1871754Y0119734D01*
X1871592Y0119690D02*
Y0131257D01*
X1879466Y0119529D02*
Y0131516D01*
X1870017Y0119152D02*
Y0131257D01*
X1868442Y0117799D02*
Y0121394D01*
X1863718Y0117784D02*
Y0121426D01*
X1866868Y0116976D02*
Y0120637D01*
X1865293Y0116979D02*
Y0120646D01*
X1878775Y0119667D02*
X1879259Y0119603D01*
X1871119Y0119608D02*
X1871441Y0119650D01*
X1879568Y0119509D02*
X1880005Y0119293D01*
X1870817Y0119483D02*
X1871119Y0119608D01*
X1870502Y0119399D02*
X1870817Y0119483D01*
X1870221Y0119237D02*
X1870502Y0119399D01*
X1869921Y0119113D02*
X1870221Y0119237D01*
X1869662Y0118914D02*
X1869921Y0119113D01*
X1950665Y0064211D02*
X1951497Y0064556D01*
X1951977Y0064206D02*
X1952426Y0064019D01*
X1949380Y0064042D02*
X1950665Y0064211D01*
X1961743Y0063975D02*
X1962299Y0064206D01*
X1952426Y0064019D02*
X1952863Y0063804D01*
X1927727Y0064042D02*
X1949380D01*
X1925610Y0064556D02*
X1926442Y0064211D01*
X1927727Y0064042D01*
X1924680Y0064019D02*
X1925130Y0064206D01*
X1961192Y0063735D02*
X1961743Y0063975D01*
X1960505Y0063631D02*
X1961102Y0063710D01*
X1953656Y0063646D02*
X1954134Y0063551D01*
X1959910Y0063542D02*
X1960505Y0063631D01*
X1954458Y0063541D02*
X1959818D01*
X1924580Y0063970D02*
X1952527D01*
X1924244Y0063804D02*
X1924680Y0064019D01*
X1953174Y0063710D02*
X1953656Y0063646D01*
X1923450Y0063646D02*
X1923933Y0063710D01*
X1905741Y0064211D02*
X1906573Y0064556D01*
X1907053Y0064206D02*
X1907503Y0064019D01*
X1904457Y0064042D02*
X1905741Y0064211D01*
X1906238Y0055783D02*
Y0064417D01*
X1904663Y0055783D02*
Y0064069D01*
X1893639Y0055785D02*
Y0064042D01*
X1892064Y0055785D02*
Y0064042D01*
X1898364Y0055784D02*
Y0064042D01*
X1895214Y0055785D02*
Y0064042D01*
X1908250Y0063710D02*
X1908733Y0063646D01*
X1922973Y0063551D02*
X1923450Y0063646D01*
X1907503Y0064019D02*
X1907939Y0063804D01*
X1909535Y0063541D02*
X1922648D01*
X1908733Y0063646D02*
X1909210Y0063551D01*
X1899938Y0055784D02*
Y0064042D01*
X1896789Y0055784D02*
Y0064042D01*
X1903088Y0055784D02*
Y0064042D01*
X1901513Y0055784D02*
Y0064042D01*
X1947182Y0055778D02*
Y0064042D01*
X1948757Y0055778D02*
Y0064042D01*
X1945608Y0055778D02*
Y0064042D01*
X1951907Y0055777D02*
Y0064259D01*
X1950332Y0055777D02*
Y0064167D01*
X1936159Y0055779D02*
Y0064042D01*
X1934584Y0055779D02*
Y0064042D01*
X1944033Y0055778D02*
Y0064042D01*
X1937734Y0055779D02*
Y0064042D01*
X1956631Y0055776D02*
Y0063541D01*
X1958206Y0055776D02*
Y0063541D01*
X1955056Y0055777D02*
Y0063541D01*
X1961356Y0055776D02*
Y0063806D01*
X1959781Y0055776D02*
Y0063541D01*
X1940883Y0055779D02*
Y0064042D01*
X1939308Y0055779D02*
Y0064042D01*
X1953482Y0055777D02*
Y0063669D01*
X1942458Y0055778D02*
Y0064042D01*
X1928285Y0055780D02*
Y0064042D01*
X1929860Y0055780D02*
Y0064042D01*
X1926710Y0055781D02*
Y0064176D01*
X1933009Y0055780D02*
Y0064042D01*
X1931434Y0055780D02*
Y0064042D01*
X1909387Y0055783D02*
Y0063560D01*
X1907812Y0055783D02*
Y0063867D01*
X1925135Y0055781D02*
Y0064210D01*
X1923560Y0055781D02*
Y0063661D01*
X1918836Y0055782D02*
Y0063541D01*
X1917261Y0055782D02*
Y0063541D01*
X1921986Y0055781D02*
Y0063541D01*
X1920411Y0055781D02*
Y0063541D01*
X1912537Y0055782D02*
Y0063541D01*
X1910962Y0055783D02*
Y0063541D01*
X1915686Y0055782D02*
Y0063541D01*
X1914112Y0055782D02*
Y0063541D01*
X1869380Y0118751D02*
X1869662Y0118914D01*
X1869150Y0118522D02*
X1869380Y0118751D01*
X1868893Y0118324D02*
X1869150Y0118522D01*
X1868694Y0118066D02*
X1868893Y0118324D01*
X1868463Y0117835D02*
X1868694Y0118066D01*
X1868301Y0117554D02*
X1868463Y0117835D01*
X1863883Y0117513D02*
X1868270D01*
X1868103Y0117297D02*
X1868301Y0117554D01*
X1867978Y0116996D02*
X1868103Y0117297D01*
X1880686Y0064556D02*
X1881518Y0064211D01*
X1882803Y0064042D02*
X1904457D01*
X1869232Y0064502D02*
X1869618Y0064206D01*
X1881518Y0064211D02*
X1882803Y0064042D01*
X1879757Y0064019D02*
X1880206Y0064206D01*
X1867973Y0065747D02*
X1868294Y0065381D01*
X1863990Y0065545D02*
X1868150D01*
X1868827Y0064772D02*
X1869232Y0064502D01*
X1868294Y0065381D02*
X1868590Y0064995D01*
X1865682Y0117030D02*
X1866458D01*
X1866940Y0116966D01*
X1865199D02*
X1865682Y0117030D01*
X1867426Y0116935D02*
X1867890Y0116842D01*
X1866940Y0116966D02*
X1867426Y0116935D01*
X1864047Y0117299D02*
X1864171Y0116999D01*
X1863848Y0117558D02*
X1864047Y0117299D01*
X1864714Y0116935D02*
X1865199Y0116966D01*
X1864260Y0116844D02*
X1864714Y0116935D01*
X1866940Y0066609D02*
X1867426Y0066641D01*
X1865682Y0066546D02*
X1866458D01*
X1867615Y0066472D02*
X1867801Y0066022D01*
X1866458Y0066546D02*
X1866940Y0066609D01*
X1865199D02*
X1865682Y0066546D01*
X1864714Y0066641D02*
X1865199Y0066609D01*
X1864338Y0066022D02*
X1864525Y0066472D01*
X1863846Y0065381D02*
X1864167Y0065747D01*
X1885765Y0055786D02*
Y0064042D01*
X1887340Y0055786D02*
Y0064042D01*
X1884190Y0055786D02*
Y0064042D01*
X1890490Y0055785D02*
Y0064042D01*
X1888915Y0055786D02*
Y0064042D01*
X1879656Y0063970D02*
X1907603D01*
X1879320Y0063804D02*
X1879757Y0064019D01*
X1882616Y0055787D02*
Y0064067D01*
X1881041Y0055787D02*
Y0064409D01*
X1878527Y0063646D02*
X1879009Y0063710D01*
X1878049Y0063551D02*
X1878527Y0063646D01*
X1876316Y0055787D02*
Y0063541D01*
X1879466Y0055787D02*
Y0063876D01*
X1877891Y0055787D02*
Y0063562D01*
X1872100Y0063541D02*
X1877725D01*
X1871617Y0063604D02*
X1872100Y0063541D01*
X1874742Y0055787D02*
Y0063541D01*
X1873167Y0055788D02*
Y0063541D01*
X1869905Y0064052D02*
X1870366Y0063896D01*
X1870815Y0063710D01*
X1867068Y0063970D02*
X1870148D01*
X1870017Y0055788D02*
Y0064014D01*
X1868442Y0063366D02*
Y0065187D01*
X1866868Y0064007D02*
Y0066600D01*
X1865293Y0063911D02*
Y0066597D01*
X1863718Y0062999D02*
Y0065214D01*
X1871132Y0063636D02*
X1871617Y0063604D01*
X1866868Y0055789D02*
Y0056700D01*
X1871592Y0055788D02*
Y0063606D01*
X1868442Y0055788D02*
Y0057341D01*
X1865293Y0055789D02*
Y0056797D01*
X1863718Y0055789D02*
Y0057708D01*
Y0267874D02*
Y0268929D01*
X1862143Y0265761D02*
Y0268929D01*
X1860568Y0260693D02*
Y0268929D01*
X1855844Y0260820D02*
Y0268929D01*
X1854269Y0260820D02*
Y0268929D01*
X1858994Y0260820D02*
Y0268929D01*
X1857419Y0260820D02*
Y0268929D01*
X1859607Y0260820D02*
X1872533D01*
X1859928Y0260777D02*
X1860254D01*
X1859606Y0260820D02*
X1859928Y0260777D01*
X1860568Y0260693D02*
X1860891Y0260651D01*
X1860254Y0260777D02*
X1860568Y0260693D01*
X1854152Y0260820D02*
X1859607D01*
X1854153Y0260820D02*
X1859606D01*
X1849389Y0260820D02*
X1854152D01*
X1849388Y0260820D02*
X1850673Y0260651D01*
X1844820Y0260820D02*
Y0268929D01*
X1846395Y0260820D02*
Y0268929D01*
X1843246Y0260820D02*
Y0268929D01*
X1849545Y0260799D02*
Y0268929D01*
X1847970Y0260820D02*
Y0268929D01*
X1838521Y0260820D02*
Y0268929D01*
X1830647Y0260820D02*
Y0268929D01*
X1841671Y0260820D02*
Y0268929D01*
X1840096Y0260820D02*
Y0268929D01*
X1832222Y0260820D02*
Y0268929D01*
X1833797Y0260820D02*
Y0268929D01*
X1829072Y0260820D02*
Y0268929D01*
X1836946Y0260820D02*
Y0268929D01*
X1835372Y0260820D02*
Y0268929D01*
X1827733Y0260820D02*
X1849389D01*
X1827734Y0260820D02*
X1849388D01*
X1822970Y0260820D02*
X1827733D01*
X1827498Y0260789D02*
Y0268929D01*
X1863209Y0259245D02*
X1868931D01*
X1863544Y0258878D02*
X1863707Y0258596D01*
X1863314Y0259108D02*
X1863544Y0258878D01*
X1863707Y0258596D02*
X1863905Y0258338D01*
X1863718Y0258581D02*
Y0261633D01*
X1862628Y0259794D02*
X1862858Y0259564D01*
X1862346Y0259957D02*
X1862628Y0259794D01*
X1863116Y0259366D02*
X1863314Y0259108D01*
X1862858Y0259564D02*
X1863116Y0259366D01*
X1863611Y0206709D02*
X1863809Y0206967D01*
X1863449Y0206427D02*
X1863611Y0206709D01*
X1863218Y0206197D02*
X1863449Y0206427D01*
X1863718Y0201881D02*
Y0206848D01*
X1863020Y0205939D02*
X1863218Y0206197D01*
X1862723Y0205702D02*
X1869417D01*
X1862762Y0205741D02*
X1863020Y0205939D01*
X1862532Y0205511D02*
X1862762Y0205741D01*
X1862251Y0205348D02*
X1862532Y0205511D01*
X1852868Y0260651D02*
X1854153Y0260820D01*
X1860891Y0260651D02*
X1861191Y0260526D01*
X1852694Y0260579D02*
Y0268929D01*
X1862143Y0260112D02*
Y0263746D01*
X1851120Y0260466D02*
Y0268929D01*
X1826450Y0260651D02*
X1827734Y0260820D01*
X1822969D02*
X1824254Y0260651D01*
X1825923Y0260433D02*
Y0268929D01*
X1824348Y0260612D02*
Y0268929D01*
X1861505Y0260442D02*
X1861787Y0260279D01*
X1861191Y0260526D02*
X1861505Y0260442D01*
X1862088Y0260155D02*
X1862346Y0259957D01*
X1861787Y0260279D02*
X1862088Y0260155D01*
X1825352Y0260196D02*
X1826450Y0260651D01*
X1824254D02*
X1825352Y0260196D01*
X1851770D02*
X1852868Y0260651D01*
X1850673D02*
X1851770Y0260196D01*
X1816474Y0260820D02*
Y0268929D01*
X1819624Y0260820D02*
Y0268929D01*
X1814899Y0260820D02*
Y0268929D01*
X1822773Y0260820D02*
Y0268929D01*
X1821198Y0260820D02*
Y0268929D01*
X1694090D02*
X2018318D01*
X1802301Y0260820D02*
Y0268929D01*
X1810175Y0260820D02*
Y0268929D01*
X1803876Y0260820D02*
Y0268929D01*
X1760076Y0265544D02*
X1862089D01*
X1809347Y0260820D02*
X1822969D01*
X1782928D02*
X1804581D01*
X1813324D02*
Y0268929D01*
X1811750Y0260820D02*
Y0268929D01*
X1757464Y0268694D02*
X2018318D01*
X1759531Y0267119D02*
X1862859D01*
X1758861Y0262395D02*
X1862854D01*
X1759902Y0263969D02*
X1862087D01*
X1796002Y0260820D02*
Y0268929D01*
X1797576Y0260820D02*
Y0268929D01*
X1794427Y0260820D02*
Y0268929D01*
X1800726Y0260820D02*
Y0268929D01*
X1799151Y0260820D02*
Y0268929D01*
X1789702Y0260820D02*
Y0268929D01*
X1788128Y0260820D02*
Y0268929D01*
X1792852Y0260820D02*
Y0268929D01*
X1791277Y0260820D02*
Y0268929D01*
X1777104Y0260820D02*
Y0268929D01*
X1783403Y0260820D02*
Y0268929D01*
X1775529Y0260820D02*
Y0268929D01*
X1786553Y0260820D02*
Y0268929D01*
X1784978Y0260820D02*
Y0268929D01*
X1762867Y0260820D02*
X1778163D01*
X1762931D02*
Y0268929D01*
X1766080Y0260820D02*
Y0268929D01*
X1764506Y0260820D02*
Y0268929D01*
X1808600Y0260722D02*
Y0268929D01*
X1818049Y0260820D02*
Y0268929D01*
X1805450Y0260705D02*
Y0268929D01*
X1808062Y0260651D02*
X1809347Y0260820D01*
X1807025Y0260221D02*
Y0268929D01*
X1804581Y0260820D02*
X1805866Y0260651D01*
X1781828Y0260675D02*
Y0268929D01*
X1780254Y0260317D02*
Y0268929D01*
X1778163Y0260820D02*
X1779447Y0260651D01*
X1804582Y0260820D02*
X1809346D01*
X1822970D01*
X1782927D02*
X1804582D01*
X1806964Y0260196D02*
X1808062Y0260651D01*
X1805866D02*
X1806964Y0260196D01*
X1781643Y0260651D02*
X1782928Y0260820D01*
X1778163Y0260820D02*
X1782927D01*
X1780545Y0260196D02*
X1781643Y0260651D01*
X1779447D02*
X1780545Y0260196D01*
X1770805Y0260820D02*
Y0268929D01*
X1772380Y0260820D02*
Y0268929D01*
X1769230Y0260820D02*
Y0268929D01*
X1778679Y0260752D02*
Y0268929D01*
X1773954Y0260820D02*
Y0268929D01*
X1762866Y0260820D02*
X1778163D01*
X1767655Y0260820D02*
Y0268929D01*
X1762544Y0260777D02*
X1762867Y0260820D01*
X1761356Y0260557D02*
Y0268929D01*
X1762219Y0260777D02*
X1762544D01*
X1761905Y0260693D02*
X1762219Y0260777D01*
X1761582Y0260651D02*
X1761905Y0260693D01*
X1761282Y0260526D02*
X1761582Y0260651D01*
X1749940Y0260820D02*
X1762866D01*
X1760967Y0260442D02*
X1761282Y0260526D01*
X1760686Y0260279D02*
X1760967Y0260442D01*
X1760385Y0260155D02*
X1760686Y0260279D01*
X1861992Y0205151D02*
X1862251Y0205348D01*
X1861692Y0205026D02*
X1861992Y0205151D01*
X1861410Y0204863D02*
X1861692Y0205026D01*
X1862143Y0193655D02*
Y0205266D01*
X1861096Y0204779D02*
X1861410Y0204863D01*
X1860795Y0204655D02*
X1861096Y0204779D01*
X1860473Y0204612D02*
X1860795Y0204655D01*
X1860568Y0193655D02*
Y0204625D01*
X1860158Y0204528D02*
X1860473Y0204612D01*
X1859833Y0204528D02*
X1860158Y0204528D01*
X1859510Y0204486D02*
X1859833Y0204528D01*
X1863718Y0193655D02*
Y0196226D01*
X1854153Y0193655D02*
X1877966D01*
X1854153Y0204486D02*
X1859510D01*
X1858994Y0193655D02*
Y0204486D01*
X1857419Y0193655D02*
Y0204486D01*
X1851770Y0205109D02*
X1852868Y0204655D01*
X1854153Y0204486D01*
X1850673Y0204655D02*
X1851770Y0205109D01*
X1849388Y0204486D02*
X1850673Y0204655D01*
X1827734Y0204486D02*
X1849388D01*
X1825352Y0205109D02*
X1826450Y0204655D01*
X1824254D02*
X1825352Y0205109D01*
X1826450Y0204655D02*
X1827734Y0204486D01*
X1822969D02*
X1824254Y0204655D01*
X1846395Y0193655D02*
Y0204486D01*
X1847970Y0193655D02*
Y0204486D01*
X1844820Y0193655D02*
Y0204486D01*
X1855844Y0193655D02*
Y0204486D01*
X1854269Y0193655D02*
Y0204486D01*
X1829072Y0193655D02*
Y0204486D01*
X1809347D02*
X1822969D01*
X1843246Y0193655D02*
Y0204486D01*
X1841671Y0193655D02*
Y0204486D01*
X1849545Y0193634D02*
Y0204506D01*
X1840096Y0193655D02*
Y0204486D01*
X1838521Y0193655D02*
Y0204486D01*
X1852694Y0193413D02*
Y0204727D01*
X1851120Y0193300D02*
Y0204840D01*
X1836946Y0193655D02*
Y0204486D01*
X1832222Y0193655D02*
Y0204486D01*
X1830647Y0193655D02*
Y0204486D01*
X1827498Y0193623D02*
Y0204517D01*
X1852868Y0193485D02*
X1854153Y0193655D01*
X1851595Y0193103D02*
X1851946D01*
X1849388Y0193655D02*
X1850673Y0193485D01*
X1851770Y0193031D02*
X1852868Y0193485D01*
X1850673D02*
X1851770Y0193031D01*
X1835372Y0193655D02*
Y0204486D01*
X1833797Y0193655D02*
Y0204486D01*
X1827734Y0193655D02*
X1849388D01*
X1826450Y0193485D02*
X1827734Y0193655D01*
X1821198D02*
Y0204486D01*
X1822773Y0193655D02*
Y0204486D01*
X1819624Y0193655D02*
Y0204486D01*
X1825923Y0193267D02*
Y0204873D01*
X1824348Y0193446D02*
Y0204694D01*
X1818049Y0193655D02*
Y0204486D01*
X1811750Y0193655D02*
Y0204486D01*
X1810175Y0193655D02*
Y0204486D01*
X1808600Y0193556D02*
Y0204584D01*
X1825176Y0193103D02*
X1825527D01*
X1822969Y0193655D02*
X1824254Y0193485D01*
X1825352Y0193031D02*
X1826450Y0193485D01*
X1824254D02*
X1825352Y0193031D01*
X1809347Y0193655D02*
X1822969D01*
X1813324D02*
Y0204486D01*
X1816474Y0193655D02*
Y0204486D01*
X1814899Y0193655D02*
Y0204486D01*
X1806964Y0205109D02*
X1808062Y0204655D01*
X1809347Y0204486D01*
X1805866Y0204655D02*
X1806964Y0205109D01*
X1804581Y0204486D02*
X1805866Y0204655D01*
X1791277Y0193655D02*
Y0204486D01*
X1786553Y0193655D02*
Y0204486D01*
X1784978Y0193655D02*
Y0204486D01*
X1789702Y0193655D02*
Y0204486D01*
X1788128Y0193655D02*
Y0204486D01*
X1760394Y0200977D02*
X1862943D01*
X1760970Y0199403D02*
X1862420D01*
X1782928Y0204486D02*
X1804581D01*
X1760821Y0197828D02*
X1862612D01*
X1782928Y0193655D02*
X1804581D01*
X1694090Y0204127D02*
X2018318D01*
X1758146Y0202552D02*
X1864906D01*
X1694090Y0194678D02*
X2018318D01*
X1759825Y0196253D02*
X1863687D01*
X1779447Y0204655D02*
X1780545Y0205109D01*
X1781643Y0204655D01*
X1761377Y0204779D02*
X1761678Y0204655D01*
X1781643D02*
X1782928Y0204486D01*
X1778163D02*
X1779447Y0204655D01*
X1760480Y0205151D02*
X1760781Y0205026D01*
X1760222Y0205349D02*
X1760480Y0205151D01*
X1761063Y0204863D02*
X1761377Y0204779D01*
X1760781Y0205026D02*
X1761063Y0204863D01*
X1762640Y0204528D02*
X1762962Y0204486D01*
X1762314Y0204528D02*
X1762640Y0204528D01*
X1783403Y0193655D02*
Y0204486D01*
X1762962D02*
X1778163D01*
X1762000Y0204612D02*
X1762314Y0204528D01*
X1761678Y0204655D02*
X1762000Y0204612D01*
X1802301Y0193655D02*
Y0204486D01*
X1803876Y0193655D02*
Y0204486D01*
X1800726Y0193655D02*
Y0204486D01*
X1807025Y0193056D02*
Y0205084D01*
X1805450Y0193540D02*
Y0204600D01*
X1799151Y0193655D02*
Y0204486D01*
X1794427Y0193655D02*
Y0204486D01*
X1792852Y0193655D02*
Y0204486D01*
X1781828Y0193510D02*
Y0204630D01*
X1808062Y0193485D02*
X1809347Y0193655D01*
X1806788Y0193103D02*
X1807140D01*
X1804581Y0193655D02*
X1805866Y0193485D01*
X1806964Y0193031D02*
X1808062Y0193485D01*
X1805866D02*
X1806964Y0193031D01*
X1797576Y0193655D02*
Y0204486D01*
X1796002Y0193655D02*
Y0204486D01*
X1781643Y0193485D02*
X1782928Y0193655D01*
X1780545Y0193031D02*
X1781643Y0193485D01*
X1775529Y0193655D02*
Y0204486D01*
X1777104Y0193655D02*
Y0204486D01*
X1773954Y0193655D02*
Y0204486D01*
X1780254Y0193151D02*
Y0204989D01*
X1778679Y0193587D02*
Y0204554D01*
X1762931Y0193655D02*
Y0204490D01*
X1761356Y0193655D02*
Y0204785D01*
X1772380Y0193655D02*
Y0204486D01*
X1766080Y0193655D02*
Y0204486D01*
X1778163Y0193655D02*
X1779447Y0193485D01*
X1770805Y0193655D02*
Y0204486D01*
X1780370Y0193103D02*
X1780721D01*
X1779447Y0193485D02*
X1780545Y0193031D01*
X1734468Y0193655D02*
X1778163D01*
X1764506D02*
Y0204486D01*
X1769230Y0193655D02*
Y0204486D01*
X1767655Y0193655D02*
Y0204486D01*
X1755057Y0268598D02*
Y0268929D01*
X1758206Y0268379D02*
Y0268929D01*
X1753482Y0267423D02*
Y0268929D01*
X1759781Y0266648D02*
Y0268929D01*
X1751907Y0260402D02*
Y0268929D01*
X1750332Y0260777D02*
Y0268929D01*
X1750901Y0260693D02*
X1751224Y0260651D01*
X1750587Y0260777D02*
X1750901Y0260693D01*
X1751524Y0260526D02*
X1751839Y0260442D01*
X1751224Y0260651D02*
X1751524Y0260526D01*
X1734467Y0260820D02*
X1749940D01*
X1734468Y0260820D02*
X1749939D01*
X1750262Y0260777D02*
X1750587D01*
X1749939Y0260820D02*
X1750262Y0260777D01*
X1744033Y0260820D02*
Y0268929D01*
X1745608Y0260820D02*
Y0268929D01*
X1742458Y0260820D02*
Y0268929D01*
X1748758Y0260820D02*
Y0268929D01*
X1747183Y0260820D02*
Y0268929D01*
X1737734Y0260820D02*
Y0268929D01*
X1736159Y0260820D02*
Y0268929D01*
X1740884Y0260820D02*
Y0268929D01*
X1739309Y0260820D02*
Y0268929D01*
X1734584Y0260820D02*
Y0268929D01*
X1733183Y0260651D02*
X1734468Y0260820D01*
X1729860Y0260799D02*
Y0268929D01*
X1733010Y0260579D02*
Y0268929D01*
X1731435Y0260466D02*
Y0268929D01*
X1728285Y0260820D02*
Y0268929D01*
X1726710Y0260820D02*
Y0268929D01*
X1729704Y0260820D02*
X1734467D01*
X1729703Y0260820D02*
X1730987Y0260651D01*
X1760127Y0259957D02*
X1760385Y0260155D01*
X1759845Y0259794D02*
X1760127Y0259957D01*
X1759781Y0259730D02*
Y0263659D01*
X1759615Y0259564D02*
X1759845Y0259794D01*
X1759357Y0259366D02*
X1759615Y0259564D01*
X1759159Y0259108D02*
X1759357Y0259366D01*
X1753542Y0259245D02*
X1759264D01*
X1758206Y0258023D02*
Y0261928D01*
X1756632Y0258207D02*
Y0261464D01*
X1758929Y0258878D02*
X1759159Y0259108D01*
X1758766Y0258596D02*
X1758929Y0258878D01*
X1758568Y0258338D02*
X1758766Y0258596D01*
X1758444Y0258037D02*
X1758568Y0258338D01*
X1757759Y0258112D02*
X1758411Y0257982D01*
X1756791Y0258207D02*
X1757273Y0258143D01*
X1756015Y0258207D02*
X1756791D01*
X1757273Y0258143D02*
X1757759Y0258112D01*
X1755533Y0258143D02*
X1756015Y0258207D01*
X1752679Y0259957D02*
X1752961Y0259794D01*
X1753191Y0259564D01*
X1752421Y0260155D02*
X1752679Y0259957D01*
X1755057Y0258112D02*
Y0261709D01*
X1753482Y0259323D02*
Y0262884D01*
X1751839Y0260442D02*
X1752120Y0260279D01*
X1730987Y0260651D02*
X1732085Y0260196D01*
X1752120Y0260279D02*
X1752421Y0260155D01*
X1732085Y0260196D02*
X1733183Y0260651D01*
X1755047Y0258112D02*
X1755533Y0258143D01*
X1754040Y0258596D02*
X1754238Y0258338D01*
X1754394Y0257982D02*
X1755047Y0258112D01*
X1754238Y0258338D02*
X1754362Y0258037D01*
X1753449Y0259366D02*
X1753647Y0259108D01*
X1753191Y0259564D02*
X1753449Y0259366D01*
X1753877Y0258878D02*
X1754040Y0258596D01*
X1753647Y0259108D02*
X1753877Y0258878D01*
X1720411Y0260820D02*
Y0268929D01*
X1721986Y0260820D02*
Y0268929D01*
X1718836Y0260820D02*
Y0268929D01*
X1725136Y0260820D02*
Y0268929D01*
X1723561Y0260820D02*
Y0268929D01*
X1710962Y0260820D02*
Y0268929D01*
X1709388Y0260820D02*
Y0268929D01*
X1717262Y0260820D02*
Y0268929D01*
X1712537Y0260820D02*
Y0268929D01*
X1715687Y0260820D02*
Y0268929D01*
X1694090Y0268694D02*
X1755336D01*
X1714112Y0260820D02*
Y0268929D01*
X1708048Y0260820D02*
X1729704D01*
X1708049Y0260820D02*
X1729703D01*
X1694090Y0267119D02*
X1753269D01*
X1694090Y0265544D02*
X1752724D01*
X1694090Y0262395D02*
X1753939D01*
X1694090Y0263969D02*
X1752898D01*
X1707813Y0260789D02*
Y0268929D01*
X1706764Y0260651D02*
X1708049Y0260820D01*
X1706238Y0260433D02*
Y0268929D01*
X1705567Y0260155D02*
X1706764Y0260651D01*
X1704663Y0259461D02*
Y0268929D01*
X1694090Y0260820D02*
X1708048D01*
X1704539Y0259366D02*
X1705567Y0260155D01*
X1703750Y0258338D02*
X1704539Y0259366D01*
X1703088Y0255879D02*
Y0268929D01*
X1694090Y0259245D02*
X1704446D01*
X1703255Y0257141D02*
X1703750Y0258338D01*
X1694090Y0257670D02*
X1703474D01*
X1703085Y0255856D02*
X1703255Y0257141D01*
X1694090Y0256095D02*
X1703117D01*
X1694090Y0252946D02*
X1703085D01*
X1694090Y0254521D02*
X1703085D01*
X1694090Y0249796D02*
X1703085D01*
X1694090Y0251371D02*
X1703085D01*
Y0242756D02*
X1703255Y0241472D01*
X1703709Y0240374D01*
X1703088Y0242734D02*
Y0255879D01*
X1703255Y0239276D02*
X1703709Y0240374D01*
X1703088Y0238014D02*
Y0242734D01*
X1694090Y0240347D02*
X1703698D01*
X1694090Y0241922D02*
X1703195D01*
X1703085Y0237991D02*
X1703255Y0239276D01*
X1694090Y0238773D02*
X1703188D01*
X1703085Y0227314D02*
X1703255Y0226030D01*
X1703709Y0224932D01*
X1703088Y0227292D02*
Y0238014D01*
X1703255Y0223834D02*
X1703709Y0224932D01*
X1703088Y0222572D02*
Y0227292D01*
X1694090Y0224599D02*
X1703572D01*
X1694090Y0226174D02*
X1703235D01*
X1703085Y0222549D02*
X1703255Y0223834D01*
X1694090Y0223025D02*
X1703148D01*
X1694090Y0246647D02*
X1703085D01*
X1694090Y0245072D02*
X1703085D01*
X1694090Y0248221D02*
X1703085D01*
Y0227314D02*
Y0237991D01*
Y0242756D02*
Y0255856D01*
X1694090Y0237198D02*
X1703085D01*
X1694090Y0243497D02*
X1703085D01*
X1694090Y0234048D02*
X1703085D01*
X1694090Y0235623D02*
X1703085D01*
X1694090Y0229324D02*
X1703085D01*
X1694090Y0232473D02*
X1703085D01*
X1703088Y0209427D02*
Y0222572D01*
X1703085Y0209449D02*
Y0222549D01*
X1694090Y0227749D02*
X1703085D01*
X1694090Y0230899D02*
X1703085D01*
X1694090Y0219875D02*
X1703085D01*
X1694090Y0221450D02*
X1703085D01*
X1757759Y0207045D02*
X1758520Y0207196D01*
X1757273Y0207013D02*
X1757759Y0207045D01*
X1756015Y0206949D02*
X1756791D01*
X1758664Y0206967D02*
X1758862Y0206709D01*
X1756791Y0206949D02*
X1757273Y0207013D01*
X1755047Y0207045D02*
X1755532Y0207013D01*
X1754286Y0207196D02*
X1755047Y0207045D01*
X1755532Y0207013D02*
X1756015Y0206949D01*
X1753944Y0206709D02*
X1754142Y0206967D01*
X1759254Y0206197D02*
X1759452Y0205939D01*
X1759711Y0205741D01*
X1759024Y0206427D02*
X1759254Y0206197D01*
X1759941Y0205511D02*
X1760222Y0205349D01*
X1759711Y0205741D02*
X1759941Y0205511D01*
X1758862Y0206709D02*
X1759024Y0206427D01*
X1753782D02*
X1753944Y0206709D01*
X1753056Y0205702D02*
X1759750D01*
X1753552Y0206197D02*
X1753782Y0206427D01*
X1753354Y0205939D02*
X1753552Y0206197D01*
X1753095Y0205741D02*
X1753354Y0205939D01*
X1752865Y0205511D02*
X1753095Y0205741D01*
X1752584Y0205349D02*
X1752865Y0205511D01*
X1752326Y0205151D02*
X1752584Y0205349D01*
X1752025Y0205026D02*
X1752326Y0205151D01*
X1751743Y0204863D02*
X1752025Y0205026D01*
X1732085Y0205109D02*
X1733183Y0204655D01*
X1730987D02*
X1732085Y0205109D01*
X1751429Y0204779D02*
X1751743Y0204863D01*
X1751128Y0204655D02*
X1751429Y0204779D01*
X1750806Y0204612D02*
X1751128Y0204655D01*
X1750492Y0204528D02*
X1750806Y0204612D01*
X1750166Y0204528D02*
X1750492Y0204528D01*
X1733183Y0204655D02*
X1734468Y0204486D01*
X1729703D02*
X1730987Y0204655D01*
X1749844Y0204486D02*
X1750166Y0204528D01*
X1734468Y0204486D02*
X1749844D01*
X1758206Y0202538D02*
Y0207134D01*
X1756632Y0202590D02*
Y0206949D01*
X1755057Y0201892D02*
Y0207044D01*
X1759781Y0201694D02*
Y0205670D01*
X1753482Y0193655D02*
Y0206107D01*
X1748758Y0193655D02*
Y0204486D01*
X1745608Y0193655D02*
Y0204486D01*
X1751907Y0193655D02*
Y0204958D01*
X1750332Y0193655D02*
Y0204528D01*
X1759781Y0193655D02*
Y0196213D01*
X1758206Y0193655D02*
Y0195370D01*
X1756632Y0193655D02*
Y0195318D01*
X1755057Y0193655D02*
Y0196015D01*
X1747183Y0193655D02*
Y0204486D01*
X1744033Y0193655D02*
Y0204486D01*
X1737734Y0193655D02*
Y0204486D01*
X1739309Y0193655D02*
Y0204486D01*
X1736159Y0193655D02*
Y0204486D01*
X1734584Y0193655D02*
Y0204486D01*
X1733010Y0193414D02*
Y0204727D01*
X1726710Y0193655D02*
Y0204486D01*
X1725136Y0193655D02*
Y0204486D01*
X1731435Y0193300D02*
Y0204840D01*
X1729860Y0193634D02*
Y0204506D01*
X1742458Y0193655D02*
Y0204486D01*
X1740884Y0193655D02*
Y0204486D01*
X1733183Y0193485D02*
X1734468Y0193655D01*
X1732085Y0193031D02*
X1733183Y0193485D01*
X1729703Y0193655D02*
X1730987Y0193485D01*
X1728285Y0193655D02*
Y0204486D01*
X1731910Y0193103D02*
X1732261D01*
X1730987Y0193485D02*
X1732085Y0193031D01*
X1718836Y0193655D02*
Y0204486D01*
X1720411Y0193655D02*
Y0204486D01*
X1717262Y0193655D02*
Y0204486D01*
X1723561Y0193655D02*
Y0204486D01*
X1721986Y0193655D02*
Y0204486D01*
X1708049D02*
X1729703D01*
X1706764Y0204655D02*
X1708049Y0204486D01*
X1710962Y0193655D02*
Y0204486D01*
X1709388Y0193655D02*
Y0204486D01*
X1694090Y0202552D02*
X1756454D01*
X1708049Y0193655D02*
X1729703D01*
X1712537D02*
Y0204486D01*
X1715687Y0193655D02*
Y0204486D01*
X1714112Y0193655D02*
Y0204486D01*
X1694090Y0200977D02*
X1754206D01*
X1694090Y0199403D02*
X1753630D01*
X1694090Y0196253D02*
X1754775D01*
X1694090Y0197828D02*
X1753779D01*
X1694090Y0216725D02*
X1703085D01*
X1694090Y0215151D02*
X1703085D01*
X1694090Y0218300D02*
X1703085D01*
X1703255Y0208165D02*
X1703750Y0206967D01*
X1703085Y0209449D02*
X1703255Y0208165D01*
X1694090Y0212001D02*
X1703085D01*
X1694090Y0213576D02*
X1703085D01*
X1694090Y0208852D02*
X1703164D01*
X1694090Y0210426D02*
X1703085D01*
X1707813Y0193623D02*
Y0204517D01*
X1705567Y0205151D02*
X1706764Y0204655D01*
Y0193485D02*
X1708049Y0193655D01*
X1706238Y0193267D02*
Y0204873D01*
X1703750Y0206967D02*
X1704539Y0205939D01*
X1694090Y0207277D02*
X1703622D01*
X1704539Y0205939D02*
X1705567Y0205151D01*
X1694090Y0205702D02*
X1704849D01*
X1705567Y0192990D02*
X1706764Y0193485D01*
X1704539Y0192201D02*
X1705567Y0192990D01*
X1704663Y0192296D02*
Y0205844D01*
X1703750Y0191173D02*
X1704539Y0192201D01*
X1703255Y0189976D02*
X1703750Y0191173D01*
X1694090Y0193103D02*
X1705842D01*
X1694090Y0191529D02*
X1704024D01*
X1703085Y0188691D02*
X1703255Y0189976D01*
X1703088Y0188713D02*
Y0209427D01*
X1703085Y0175591D02*
X1703255Y0174306D01*
X1703709Y0173208D01*
X1703088Y0175568D02*
Y0188713D01*
X1703255Y0172110D02*
X1703709Y0173208D01*
X1703085Y0170826D02*
X1703255Y0172110D01*
X1694090Y0174206D02*
X1703296D01*
X1694090Y0189954D02*
X1703252D01*
X1694090Y0172631D02*
X1703470D01*
X1694090Y0171056D02*
X1703116D01*
X1694090Y0186804D02*
X1703085D01*
X1694090Y0185229D02*
X1703085D01*
X1694090Y0188379D02*
X1703085D01*
Y0175591D02*
Y0188691D01*
X1694090Y0183655D02*
X1703085D01*
X1694090Y0180505D02*
X1703085D01*
X1694090Y0182080D02*
X1703085D01*
X1694090Y0177355D02*
X1703085D01*
X1694090Y0178930D02*
X1703085D01*
X1703088Y0170848D02*
Y0175568D01*
X1694090Y0175781D02*
X1703085D01*
X1694090Y0167907D02*
X1703085D01*
X1694090Y0169481D02*
X1703085D01*
X1694090Y0164757D02*
X1703085D01*
X1694090Y0166332D02*
X1703085D01*
X1694090Y0161607D02*
X1703085D01*
X1694090Y0163182D02*
X1703085D01*
X1855844Y0119786D02*
Y0131257D01*
X1854153D02*
X1877966D01*
X1852868Y0131426D02*
X1854153Y0131257D01*
X1858994Y0119784D02*
Y0131257D01*
X1857419Y0119785D02*
Y0131257D01*
X1851770Y0131881D02*
X1852868Y0131426D01*
X1851300Y0131686D02*
X1852241D01*
X1850673Y0131426D02*
X1851770Y0131881D01*
X1849388Y0131257D02*
X1850673Y0131426D01*
X1854729Y0119787D02*
X1859750Y0119784D01*
X1860071Y0119741D02*
X1860396Y0119741D01*
X1859750Y0119784D02*
X1860071Y0119741D01*
X1854269Y0119738D02*
Y0131257D01*
X1827734D02*
X1849388D01*
X1844820Y0119696D02*
Y0131257D01*
X1843246Y0119696D02*
Y0131257D01*
X1825352Y0131881D02*
X1826450Y0131426D01*
X1824881Y0131686D02*
X1825822D01*
X1824254Y0131426D02*
X1825352Y0131881D01*
X1826450Y0131426D02*
X1827734Y0131257D01*
X1822969D02*
X1824254Y0131426D01*
X1809347Y0131257D02*
X1822969D01*
X1813324Y0119812D02*
Y0131257D01*
X1822773Y0119806D02*
Y0131257D01*
X1821198Y0119807D02*
Y0131257D01*
X1816474Y0119810D02*
Y0131257D01*
X1818049Y0119809D02*
Y0131257D01*
X1814899Y0119811D02*
Y0131257D01*
X1823310Y0119795D02*
X1823788Y0119700D01*
X1819624Y0119808D02*
Y0131257D01*
X1811750Y0119813D02*
Y0131257D01*
X1810175Y0119814D02*
Y0131257D01*
X1809703Y0119814D02*
X1822987Y0119806D01*
X1809056Y0119729D02*
X1809702Y0119814D01*
X1860568Y0119695D02*
Y0131257D01*
X1853991Y0119690D02*
X1854535Y0119783D01*
X1851120Y0119388D02*
Y0131612D01*
X1862143Y0119154D02*
Y0131257D01*
X1852694Y0119308D02*
Y0131498D01*
X1846395Y0119696D02*
Y0131257D01*
X1841671Y0119696D02*
Y0131257D01*
X1849545Y0119690D02*
Y0131278D01*
X1847970Y0119696D02*
Y0131257D01*
X1860396Y0119741D02*
X1860711Y0119656D01*
X1861034Y0119614D01*
X1853444Y0119618D02*
X1853991Y0119690D01*
X1861334Y0119489D02*
X1861648Y0119405D01*
X1861034Y0119614D02*
X1861334Y0119489D01*
X1849498Y0119696D02*
X1850783Y0119527D01*
X1827845Y0119696D02*
X1849498D01*
X1852757Y0119334D02*
X1853258Y0119564D01*
X1850783Y0119527D02*
X1851980Y0119031D01*
X1830647Y0119696D02*
Y0131257D01*
X1832222Y0119696D02*
Y0131257D01*
X1829072Y0119696D02*
Y0131257D01*
X1835372Y0119696D02*
Y0131257D01*
X1833797Y0119696D02*
Y0131257D01*
X1827498Y0119651D02*
Y0131288D01*
X1808600Y0119669D02*
Y0131355D01*
X1825923Y0119263D02*
Y0131644D01*
X1824348Y0119604D02*
Y0131465D01*
X1840096Y0119696D02*
Y0131257D01*
X1838521Y0119696D02*
Y0131257D01*
X1836946Y0119696D02*
Y0131257D01*
X1826560Y0119527D02*
X1827845Y0119696D01*
X1823788Y0119700D02*
X1824271Y0119636D01*
X1808418Y0119645D02*
X1809056Y0119729D01*
X1825522Y0119097D02*
X1826560Y0119527D01*
X1824581Y0119542D02*
X1825018Y0119326D01*
X1806964Y0131881D02*
X1808062Y0131426D01*
X1806494Y0131686D02*
X1807434D01*
X1805866Y0131426D02*
X1806964Y0131881D01*
X1808062Y0131426D02*
X1809347Y0131257D01*
X1804581D02*
X1805866Y0131426D01*
X1782928Y0131257D02*
X1804581D01*
X1799151Y0119875D02*
Y0131257D01*
X1803876Y0119875D02*
Y0131257D01*
X1802301Y0119875D02*
Y0131257D01*
X1759948Y0125387D02*
X1862581D01*
X1759720Y0122237D02*
X1863001D01*
X1760189Y0123812D02*
X1862430D01*
X1782928Y0119875D02*
X1804581D01*
X1800726D02*
Y0131257D01*
X1694090Y0128537D02*
X2018318D01*
X1694090Y0130111D02*
X2018318D01*
X1757973Y0120663D02*
X1865221D01*
X1758782Y0126962D02*
X1863584D01*
X1789702Y0119875D02*
Y0131257D01*
X1791277Y0119875D02*
Y0131257D01*
X1781643Y0131426D02*
X1782928Y0131257D01*
X1797576Y0119875D02*
Y0131257D01*
X1792852Y0119875D02*
Y0131257D01*
X1780545Y0131881D02*
X1781643Y0131426D01*
X1780075Y0131686D02*
X1781016D01*
X1779447Y0131426D02*
X1780545Y0131881D01*
X1778163Y0131257D02*
X1779447Y0131426D01*
X1784978Y0119875D02*
Y0131257D01*
X1788128Y0119875D02*
Y0131257D01*
X1783403Y0119875D02*
Y0131257D01*
X1796002Y0119875D02*
Y0131257D01*
X1794427Y0119875D02*
Y0131257D01*
X1734468D02*
X1778163D01*
X1759781Y0125757D02*
Y0131257D01*
X1805450Y0119761D02*
Y0131372D01*
X1786553Y0119875D02*
Y0131257D01*
X1781828Y0119730D02*
Y0131402D01*
X1807025Y0119226D02*
Y0131856D01*
X1781643Y0119706D02*
X1782928Y0119875D01*
X1777104Y0119833D02*
Y0131257D01*
X1775529Y0119834D02*
Y0131257D01*
X1780254Y0119330D02*
Y0131760D01*
X1778679Y0119765D02*
Y0131325D01*
X1804581Y0119875D02*
X1805866Y0119706D01*
X1807830Y0119402D02*
X1808417Y0119645D01*
X1780039Y0119419D02*
X1780494Y0119230D01*
X1805866Y0119706D02*
X1807063Y0119210D01*
X1780494Y0119230D02*
X1781643Y0119706D01*
X1778166Y0119833D02*
X1778803Y0119748D01*
X1762693Y0119842D02*
X1778166Y0119833D01*
X1779450Y0119663D02*
X1780039Y0119419D01*
X1778803Y0119748D02*
X1779447Y0119664D01*
X1769230Y0119838D02*
Y0131257D01*
X1770805Y0119837D02*
Y0131257D01*
X1767655Y0119839D02*
Y0131257D01*
X1773954Y0119835D02*
Y0131257D01*
X1772380Y0119836D02*
Y0131257D01*
X1764506Y0119841D02*
Y0131257D01*
X1762931Y0119842D02*
Y0131257D01*
X1766080Y0119840D02*
Y0131257D01*
X1761356Y0119652D02*
Y0131257D01*
X1762370Y0119800D02*
X1762693Y0119842D01*
X1762044Y0119800D02*
X1762370Y0119800D01*
X1761730Y0119716D02*
X1762044Y0119800D01*
X1761409Y0119674D02*
X1761730Y0119716D01*
X1761107Y0119549D02*
X1761409Y0119674D01*
X1760792Y0119465D02*
X1761107Y0119549D01*
X1760511Y0119303D02*
X1760792Y0119465D01*
X1759781Y0118881D02*
Y0122351D01*
X1862770Y0118757D02*
X1863000Y0118526D01*
X1863259Y0118328D01*
X1862489Y0118919D02*
X1862770Y0118757D01*
X1863456Y0118070D02*
X1863686Y0117840D01*
X1863259Y0118328D02*
X1863456Y0118070D01*
X1861930Y0119242D02*
X1862231Y0119117D01*
X1861648Y0119405D02*
X1861930Y0119242D01*
X1862269Y0119088D02*
X1869889D01*
X1862231Y0119117D02*
X1862489Y0118919D01*
X1863686Y0117840D02*
X1863848Y0117558D01*
X1863550Y0064995D02*
X1863846Y0065381D01*
X1862908Y0064502D02*
X1863313Y0064772D01*
X1861992Y0063970D02*
X1865532D01*
X1862522Y0064206D02*
X1862908Y0064502D01*
X1861774Y0063896D02*
X1862235Y0064052D01*
X1861324Y0063710D02*
X1861774Y0063896D01*
X1860522Y0063604D02*
X1861008Y0063636D01*
X1860040Y0063541D02*
X1860522Y0063604D01*
X1852247Y0119123D02*
X1852757Y0119334D01*
X1851844Y0119088D02*
X1852201D01*
X1850783Y0064211D02*
X1851615Y0064556D01*
X1852095Y0064206D02*
X1852544Y0064019D01*
X1849498Y0064042D02*
X1850783Y0064211D01*
X1825728Y0064556D02*
X1826560Y0064211D01*
X1825018Y0119326D02*
X1825468Y0119139D01*
X1826560Y0064211D02*
X1827845Y0064042D01*
X1824799Y0064019D02*
X1825248Y0064206D01*
X1852544Y0064019D02*
X1852981Y0063804D01*
X1853292Y0063710D02*
X1853774Y0063646D01*
X1827845Y0064042D02*
X1849498D01*
X1854576Y0063541D02*
X1860040D01*
X1853774Y0063646D02*
X1854252Y0063551D01*
X1824698Y0063970D02*
X1852645D01*
X1824362Y0063804D02*
X1824799Y0064019D01*
X1823568Y0063646D02*
X1824051Y0063710D01*
X1823091Y0063551D02*
X1823568Y0063646D01*
X1847970Y0055791D02*
Y0064042D01*
X1846395Y0055791D02*
Y0064042D01*
X1851120Y0055791D02*
Y0064351D01*
X1849545Y0055791D02*
Y0064048D01*
X1840096Y0055792D02*
Y0064042D01*
X1838521Y0055792D02*
Y0064042D01*
X1844820Y0055791D02*
Y0064042D01*
X1841671Y0055792D02*
Y0064042D01*
X1858994Y0055790D02*
Y0063541D01*
X1857419Y0055790D02*
Y0063541D01*
X1862143Y0055789D02*
Y0064021D01*
X1860568Y0055789D02*
Y0063607D01*
X1852694Y0055791D02*
Y0063945D01*
X1843246Y0055792D02*
Y0064042D01*
X1855844Y0055790D02*
Y0063541D01*
X1854269Y0055790D02*
Y0063552D01*
X1832222Y0055793D02*
Y0064042D01*
X1833797Y0055793D02*
Y0064042D01*
X1830647Y0055793D02*
Y0064042D01*
X1836946Y0055793D02*
Y0064042D01*
X1835372Y0055793D02*
Y0064042D01*
X1825923Y0055794D02*
Y0064475D01*
X1824348Y0055794D02*
Y0063801D01*
X1829072Y0055794D02*
Y0064042D01*
X1827498Y0055794D02*
Y0064088D01*
X1819624Y0055795D02*
Y0063541D01*
X1818049Y0055795D02*
Y0063541D01*
X1822773Y0055795D02*
Y0063542D01*
X1821198Y0055795D02*
Y0063541D01*
X1813324Y0055796D02*
Y0063541D01*
X1811750Y0055796D02*
Y0063541D01*
X1816474Y0055795D02*
Y0063541D01*
X1814899Y0055796D02*
Y0063541D01*
X1807221Y0119150D02*
X1807830Y0119402D01*
X1806964Y0064165D02*
X1808062Y0063710D01*
X1806494Y0063970D02*
X1807434D01*
X1808062Y0063710D02*
X1809347Y0063541D01*
X1805866Y0063710D02*
X1806964Y0064165D01*
X1780545D02*
X1781643Y0063710D01*
X1780075Y0063970D02*
X1781015D01*
X1779447Y0063710D02*
X1780545Y0064165D01*
X1778163Y0063541D02*
X1779447Y0063710D01*
X1781643D02*
X1782928Y0063541D01*
X1804581D01*
X1762456D02*
X1778163D01*
X1809347D02*
X1822766D01*
X1804581D02*
X1805866Y0063710D01*
X1759661Y0062395D02*
X1863218D01*
X1760416Y0060820D02*
X1862633D01*
X1759626Y0057671D02*
X1863757D01*
X1760407Y0059246D02*
X1862773D01*
X1760211Y0119179D02*
X1760511Y0119303D01*
X1759952Y0118980D02*
X1760211Y0119179D01*
X1759670Y0118817D02*
X1759952Y0118980D01*
X1759588Y0064502D02*
X1759974Y0064206D01*
X1759440Y0118588D02*
X1759670Y0118817D01*
X1752777Y0119088D02*
X1760093D01*
X1759183Y0118390D02*
X1759440Y0118588D01*
X1759183Y0064772D02*
X1759588Y0064502D01*
X1758984Y0118132D02*
X1759183Y0118390D01*
X1760722Y0063896D02*
X1761171Y0063710D01*
X1760261Y0064052D02*
X1760722Y0063896D01*
X1761973Y0063604D02*
X1762456Y0063541D01*
X1761488Y0063636D02*
X1761973Y0063604D01*
X1752348Y0063970D02*
X1760504D01*
X1759781Y0062240D02*
Y0064354D01*
X1807025Y0055797D02*
Y0064139D01*
X1805450Y0055797D02*
Y0063655D01*
X1803876Y0055797D02*
Y0063541D01*
X1810175Y0055796D02*
Y0063541D01*
X1808600Y0055796D02*
Y0063639D01*
X1799151Y0055798D02*
Y0063541D01*
X1789702Y0055799D02*
Y0063541D01*
X1802301Y0055797D02*
Y0063541D01*
X1800726Y0055797D02*
Y0063541D01*
X1792852Y0055799D02*
Y0063541D01*
X1794427Y0055798D02*
Y0063541D01*
X1791277Y0055799D02*
Y0063541D01*
X1797576Y0055798D02*
Y0063541D01*
X1796002Y0055798D02*
Y0063541D01*
X1694090Y0056096D02*
X2018318D01*
X1786553Y0055799D02*
Y0063541D01*
X1694090Y0055812D02*
X2018318Y0055768D01*
X1788128Y0055799D02*
Y0063541D01*
X1780254Y0055800D02*
Y0064044D01*
X1781828Y0055800D02*
Y0063685D01*
X1778679Y0055800D02*
Y0063609D01*
X1784978Y0055800D02*
Y0063541D01*
X1783403Y0055800D02*
Y0063541D01*
X1773954Y0055801D02*
Y0063541D01*
X1761356Y0055803D02*
Y0063681D01*
X1777104Y0055801D02*
Y0063541D01*
X1775529Y0055801D02*
Y0063541D01*
X1769230Y0055802D02*
Y0063541D01*
X1767655Y0055802D02*
Y0063541D01*
X1772380Y0055801D02*
Y0063541D01*
X1770805Y0055801D02*
Y0063541D01*
X1762931Y0055803D02*
Y0063541D01*
X1759781Y0055803D02*
Y0057867D01*
X1766080Y0055802D02*
Y0063541D01*
X1764506Y0055802D02*
Y0063541D01*
X1756632Y0127748D02*
Y0131257D01*
X1758206Y0127333D02*
Y0131257D01*
X1755057Y0127457D02*
Y0131257D01*
X1753482Y0126189D02*
Y0131257D01*
X1750332Y0119828D02*
Y0131257D01*
X1744033Y0119853D02*
Y0131257D01*
X1742458Y0119854D02*
Y0131257D01*
X1748758Y0119851D02*
Y0131257D01*
X1745608Y0119852D02*
Y0131257D01*
X1751133Y0119722D02*
X1751456Y0119680D01*
X1750818Y0119807D02*
X1751133Y0119722D01*
X1734825Y0119859D02*
X1750172Y0119850D01*
X1747183Y0119852D02*
Y0131257D01*
X1750493Y0119807D02*
X1750818Y0119807D01*
X1750172Y0119850D02*
X1750493Y0119807D01*
X1733183Y0131426D02*
X1734468Y0131257D01*
X1736159Y0119858D02*
Y0131257D01*
X1732085Y0131881D02*
X1733183Y0131426D01*
X1739309Y0119856D02*
Y0131257D01*
X1737734Y0119857D02*
Y0131257D01*
X1731615Y0131686D02*
X1732556D01*
X1730987Y0131426D02*
X1732085Y0131881D01*
X1729703Y0131257D02*
X1730987Y0131426D01*
X1729860Y0119854D02*
Y0131278D01*
X1740884Y0119855D02*
Y0131257D01*
X1734192Y0119776D02*
X1734823Y0119859D01*
X1734584Y0119828D02*
Y0131257D01*
X1733540Y0119691D02*
X1734192Y0119776D01*
X1729703Y0119875D02*
X1730987Y0119706D01*
X1725136Y0119875D02*
Y0131257D01*
X1723561Y0119875D02*
Y0131257D01*
X1728285Y0119875D02*
Y0131257D01*
X1726710Y0119875D02*
Y0131257D01*
X1758753Y0117901D02*
X1758984Y0118132D01*
X1758591Y0117620D02*
X1758753Y0117901D01*
X1758393Y0117363D02*
X1758591Y0117620D01*
X1758206Y0116955D02*
Y0120774D01*
X1756632Y0117030D02*
Y0120359D01*
X1754356Y0117513D02*
X1758509D01*
X1754108Y0117906D02*
X1754271Y0117624D01*
X1755057Y0116932D02*
Y0120650D01*
X1754271Y0117624D02*
X1754469Y0117365D01*
X1758268Y0117062D02*
X1758393Y0117363D01*
X1756814Y0117030D02*
X1757296Y0116966D01*
X1756038Y0117030D02*
X1756814D01*
X1757782Y0116935D02*
X1758152Y0116861D01*
X1757296Y0116966D02*
X1757782Y0116935D01*
X1755555Y0116966D02*
X1756038Y0117030D01*
X1754469Y0117365D02*
X1754593Y0117065D01*
X1755070Y0116935D02*
X1755555Y0116966D01*
X1754710Y0116863D02*
X1755070Y0116935D01*
X1751907Y0119515D02*
Y0131257D01*
X1751756Y0119555D02*
X1752070Y0119471D01*
X1751456Y0119680D02*
X1751756Y0119555D01*
X1753482Y0118546D02*
Y0121918D01*
X1752070Y0119471D02*
X1752352Y0119308D01*
X1733010Y0119471D02*
Y0131498D01*
X1731435Y0119521D02*
Y0131612D01*
X1732954Y0119449D02*
X1733538Y0119690D01*
X1730987Y0119706D02*
X1732185Y0119210D01*
X1753422Y0118592D02*
X1753681Y0118394D01*
X1753192Y0118823D02*
X1753422Y0118592D01*
X1753878Y0118136D02*
X1754108Y0117906D01*
X1753681Y0118394D02*
X1753878Y0118136D01*
X1752352Y0119308D02*
X1752653Y0119183D01*
X1732342Y0119195D02*
X1732954Y0119449D01*
X1752911Y0118985D02*
X1753192Y0118823D01*
X1752653Y0119183D02*
X1752911Y0118985D01*
X1703255Y0152801D02*
X1703709Y0151703D01*
X1703255Y0150605D02*
X1703709Y0151703D01*
X1703085Y0154086D02*
X1703255Y0152801D01*
X1703085Y0136221D02*
X1703255Y0134936D01*
X1703088Y0136198D02*
Y0149343D01*
X1694090Y0152159D02*
X1703521D01*
X1694090Y0153733D02*
X1703132D01*
X1703085Y0149321D02*
X1703255Y0150605D01*
X1694090Y0150584D02*
X1703252D01*
X1704539Y0132711D02*
X1705567Y0131922D01*
X1706764Y0131426D01*
X1703750Y0133739D02*
X1704539Y0132711D01*
X1708049Y0131257D02*
X1729703D01*
X1706764Y0131426D02*
X1708049Y0131257D01*
X1703255Y0134936D02*
X1703750Y0133739D01*
X1694090Y0134836D02*
X1703296D01*
X1694090Y0131686D02*
X1706137D01*
X1694090Y0133261D02*
X1704117D01*
X1703088Y0154063D02*
Y0170848D01*
X1703085Y0154086D02*
Y0170826D01*
X1694090Y0160033D02*
X1703085D01*
X1703088Y0149343D02*
Y0154063D01*
X1703085Y0136221D02*
Y0149321D01*
X1694090Y0156883D02*
X1703085D01*
X1694090Y0158458D02*
X1703085D01*
X1694090Y0149009D02*
X1703085D01*
X1694090Y0155308D02*
X1703085D01*
X1694090Y0139560D02*
X1703085D01*
X1694090Y0141135D02*
X1703085D01*
X1694090Y0136411D02*
X1703085D01*
X1694090Y0137985D02*
X1703085D01*
X1694090Y0145859D02*
X1703085D01*
X1694090Y0147434D02*
X1703085D01*
X1694090Y0142710D02*
X1703085D01*
X1694090Y0144285D02*
X1703085D01*
X1717262Y0119875D02*
Y0131257D01*
X1718836Y0119875D02*
Y0131257D01*
X1715687Y0119875D02*
Y0131257D01*
X1721986Y0119875D02*
Y0131257D01*
X1720411Y0119875D02*
Y0131257D01*
X1714112Y0119875D02*
Y0131257D01*
X1710962Y0119875D02*
Y0131257D01*
X1709388Y0119875D02*
Y0131257D01*
X1707813Y0119844D02*
Y0131288D01*
X1694090Y0125387D02*
X1753052D01*
X1708049Y0119875D02*
X1729703D01*
X1712537D02*
Y0131257D01*
X1706764Y0119706D02*
X1708049Y0119875D01*
X1705567Y0119210D02*
X1706764Y0119706D01*
X1694090Y0126962D02*
X1754218D01*
X1694090Y0123812D02*
X1752811D01*
X1694090Y0120663D02*
X1755027D01*
X1694090Y0122237D02*
X1753280D01*
X1704663Y0118516D02*
Y0132616D01*
X1706238Y0119488D02*
Y0131644D01*
X1703088Y0114934D02*
Y0136198D01*
X1701514Y0055811D02*
Y0268929D01*
X1699939Y0055811D02*
Y0268929D01*
X1695214Y0055812D02*
Y0268929D01*
X1694090Y0099629D02*
Y0268929D01*
X1698364Y0055811D02*
Y0268929D01*
X1696789Y0055812D02*
Y0268929D01*
X1704539Y0118421D02*
X1705567Y0119210D01*
X1703750Y0117393D02*
X1704539Y0118421D01*
X1703255Y0116196D02*
X1703750Y0117393D01*
X1703088Y0101789D02*
Y0114934D01*
X1694090Y0119088D02*
X1705408D01*
X1694090Y0117513D02*
X1703842D01*
X1703085Y0114911D02*
X1703255Y0116196D01*
X1694090Y0115938D02*
X1703221D01*
X1757296Y0066609D02*
X1757782Y0066641D01*
X1756814Y0066546D02*
X1757296Y0066609D01*
X1756038Y0066546D02*
X1756814D01*
X1757971Y0066472D02*
X1758157Y0066022D01*
X1756632Y0063747D02*
Y0066546D01*
X1755555Y0066609D02*
X1756038Y0066546D01*
X1755070Y0066641D02*
X1755555Y0066609D01*
X1755057Y0063314D02*
Y0066644D01*
X1754694Y0066022D02*
X1754881Y0066472D01*
X1758329Y0065747D02*
X1758650Y0065381D01*
X1758946Y0064995D01*
X1758206Y0063472D02*
Y0065958D01*
X1754346Y0065545D02*
X1758506D01*
X1754202Y0065381D02*
X1754523Y0065747D01*
X1753906Y0064995D02*
X1754202Y0065381D01*
X1753264Y0064502D02*
X1753669Y0064772D01*
X1752877Y0064206D02*
X1753264Y0064502D01*
X1752130Y0063896D02*
X1752591Y0064052D01*
X1753482Y0061684D02*
Y0064648D01*
X1732085Y0064165D02*
X1733183Y0063710D01*
X1704539Y0064995D02*
X1705567Y0064206D01*
X1703750Y0066022D02*
X1704539Y0064995D01*
X1730987Y0063710D02*
X1732085Y0064165D01*
X1705567Y0064206D02*
X1706764Y0063710D01*
X1751680D02*
X1752130Y0063896D01*
X1750878Y0063604D02*
X1751364Y0063636D01*
X1750396Y0063541D02*
X1750878Y0063604D01*
X1734468Y0063541D02*
X1750396D01*
X1733183Y0063710D02*
X1734468Y0063541D01*
X1731615Y0063970D02*
X1732555D01*
X1729703Y0063541D02*
X1730987Y0063710D01*
X1708049Y0063541D02*
X1729703D01*
X1706764Y0063710D02*
X1708049Y0063541D01*
X1747183Y0055805D02*
Y0063541D01*
X1748758Y0055805D02*
Y0063541D01*
X1745608Y0055805D02*
Y0063541D01*
X1751907Y0055804D02*
Y0063804D01*
X1750332Y0055804D02*
Y0063541D01*
X1733010Y0055807D02*
Y0063782D01*
X1731435Y0055807D02*
Y0063895D01*
X1744033Y0055805D02*
Y0063541D01*
X1737734Y0055806D02*
Y0063541D01*
X1753482Y0055804D02*
Y0058423D01*
X1755057Y0055804D02*
Y0056793D01*
X1742458Y0055805D02*
Y0063541D01*
X1758206Y0055803D02*
Y0056635D01*
X1756632Y0055804D02*
Y0056361D01*
X1736159Y0055806D02*
Y0063541D01*
X1734584Y0055806D02*
Y0063541D01*
X1740884Y0055806D02*
Y0063541D01*
X1739309Y0055806D02*
Y0063541D01*
X1723561Y0055808D02*
Y0063541D01*
X1726710Y0055808D02*
Y0063541D01*
X1721986Y0055808D02*
Y0063541D01*
X1729860Y0055807D02*
Y0063561D01*
X1728285Y0055807D02*
Y0063541D01*
X1706238Y0055810D02*
Y0063928D01*
X1704663Y0055810D02*
Y0064899D01*
X1720411Y0055808D02*
Y0063541D01*
X1707813Y0055810D02*
Y0063572D01*
X1717262Y0055809D02*
Y0063541D01*
X1715687Y0055809D02*
Y0063541D01*
X1725136Y0055808D02*
Y0063541D01*
X1718836Y0055809D02*
Y0063541D01*
X1710962Y0055810D02*
Y0063541D01*
X1709388Y0055810D02*
Y0063541D01*
X1714112Y0055809D02*
Y0063541D01*
X1712537Y0055809D02*
Y0063541D01*
X1703255Y0100527D02*
X1703732Y0099373D01*
X1703509Y0098945D02*
X1703672Y0099227D01*
X1703420Y0098620D02*
X1703505Y0098934D01*
X1703300Y0098331D02*
X1703420Y0098620D01*
X1703169Y0097683D02*
X1703254Y0097997D01*
X1703085Y0101811D02*
X1703255Y0100527D01*
X1694090Y0101765D02*
X1703091D01*
X1693551Y0098615D02*
X1703418D01*
X1694090Y0100190D02*
X1703394D01*
X1703131Y0097066D02*
X1703131Y0097391D01*
X1703088Y0096743D02*
X1703131Y0097066D01*
X1703088Y0086672D02*
Y0096743D01*
X1703131Y0086350D02*
X1703131Y0086024D01*
X1703088Y0086672D02*
X1703131Y0086350D01*
X1692869Y0097041D02*
X1703127D01*
X1692869Y0092316D02*
X1703088D01*
X1692869Y0086017D02*
X1703132D01*
X1692869Y0090741D02*
X1703088D01*
X1694090Y0112789D02*
X1703085D01*
X1694090Y0111214D02*
X1703085D01*
X1694090Y0114363D02*
X1703085D01*
Y0101811D02*
Y0114911D01*
X1694090Y0109639D02*
X1703085D01*
X1694090Y0106490D02*
X1703085D01*
X1694090Y0108064D02*
X1703085D01*
X1694090Y0103340D02*
X1703085D01*
X1694090Y0104915D02*
X1703085D01*
X1703088Y0086672D02*
Y0096743D01*
Y0101789D01*
X1692869Y0093891D02*
X1703088D01*
X1692869Y0095466D02*
X1703088D01*
X1692869Y0087592D02*
X1703088D01*
X1692869Y0089167D02*
X1703088D01*
X1703300Y0085085D02*
X1703420Y0084795D01*
X1703505Y0084481D01*
X1703169Y0085733D02*
X1703254Y0085418D01*
X1703255Y0082889D02*
X1703732Y0084042D01*
X1703509Y0084470D02*
X1703672Y0084188D01*
X1693954Y0084442D02*
X1703525D01*
X1694090Y0082867D02*
X1703252D01*
X1703085Y0068504D02*
X1703255Y0067220D01*
X1703085Y0081604D02*
X1703255Y0082889D01*
Y0067220D02*
X1703750Y0066022D01*
X1694090Y0065545D02*
X1704117D01*
X1694090Y0067119D02*
X1703296D01*
X1694090Y0063970D02*
X1706137D01*
X1703088Y0055811D02*
Y0068482D01*
X1694090Y0062395D02*
X1753939D01*
X1694090Y0060820D02*
X1753184D01*
X1694090Y0057671D02*
X1753974D01*
X1694090Y0059246D02*
X1753193D01*
X1703088Y0081627D02*
Y0086672D01*
X1694090Y0081293D02*
X1703085D01*
Y0068504D02*
Y0081604D01*
X1703088Y0068482D02*
Y0081627D01*
X1694090Y0055812D02*
Y0083881D01*
X1693640Y0084829D02*
Y0098681D01*
X1692869Y0085103D02*
Y0098407D01*
X1694090Y0071844D02*
X1703085D01*
X1694090Y0073419D02*
X1703085D01*
X1694090Y0068694D02*
X1703085D01*
X1694090Y0070269D02*
X1703085D01*
X1694090Y0078143D02*
X1703085D01*
X1694090Y0079718D02*
X1703085D01*
X1694090Y0074993D02*
X1703085D01*
X1694090Y0076568D02*
X1703085D01*
D16*
X2143800Y0107954D02*
Y0111453D01*
X2140300Y0107954D02*
X2143800D01*
X2147300D01*
X2143800Y0104454D02*
Y0107954D01*
X2126600Y0103454D02*
Y0106954D01*
Y0099954D02*
Y0103454D01*
X2130100D01*
X2123100D02*
X2126600D01*
X2142900Y0074954D02*
Y0078453D01*
X2139400Y0074954D02*
X2142900D01*
X2146400D01*
X2127533Y0077953D02*
Y0081454D01*
Y0077953D02*
X2131033D01*
X2127533Y0074454D02*
Y0077953D01*
X2124033D02*
X2127533D01*
X2110900Y0103454D02*
Y0106954D01*
Y0103454D02*
X2114400D01*
X2107400D02*
X2110900D01*
Y0099954D02*
Y0103454D01*
X2110210Y0079353D02*
Y0082854D01*
X2106710Y0079353D02*
X2110210D01*
X2113710D01*
X1966000Y0264564D02*
Y0268064D01*
Y0261064D02*
Y0264564D01*
X1969500D01*
X1962500D02*
X1966000D01*
X2009400Y0198400D02*
Y0201900D01*
Y0194900D02*
Y0198400D01*
X2012900D01*
X2005900D02*
X2009400D01*
X1966600Y0198554D02*
X1970100D01*
X1966600D02*
Y0202053D01*
X1963100Y0198554D02*
X1966600D01*
Y0195054D02*
Y0198554D01*
X1865700Y0264754D02*
X1869200D01*
X1865700D02*
Y0268253D01*
Y0261253D02*
Y0264754D01*
X1866100Y0199054D02*
Y0202554D01*
Y0199054D02*
X1869600D01*
X1866100Y0195554D02*
Y0199054D01*
X1966300Y0124453D02*
Y0127954D01*
Y0124453D02*
X1969800D01*
X1962800D02*
X1966300D01*
Y0120954D02*
Y0124453D01*
Y0060654D02*
X1969800D01*
X1966300D02*
Y0064153D01*
Y0057153D02*
Y0060654D01*
X1962800D02*
X1966300D01*
X1866100Y0124253D02*
Y0127753D01*
Y0124253D02*
X1869600D01*
X1866100Y0120754D02*
Y0124253D01*
X1866300Y0060353D02*
Y0063854D01*
Y0060353D02*
X1869800D01*
X1866300Y0056853D02*
Y0060353D01*
X1862200Y0264754D02*
X1865700D01*
X1862600Y0199054D02*
X1866100D01*
X1757300Y0198953D02*
X1760800D01*
X1756400Y0261653D02*
Y0265154D01*
X1752900D02*
X1756400D01*
X1759900D01*
X1757300Y0195454D02*
Y0198953D01*
Y0202453D01*
X1753800Y0198953D02*
X1757300D01*
X1862600Y0124253D02*
X1866100D01*
X1756500Y0124054D02*
X1760000D01*
X1862800Y0060353D02*
X1866300D01*
X1756800Y0060053D02*
X1760300D01*
X1756500Y0124054D02*
Y0127553D01*
Y0120554D02*
Y0124054D01*
X1753000D02*
X1756500D01*
X1756800Y0056554D02*
Y0060053D01*
Y0063554D01*
X1753300Y0060053D02*
X1756800D01*
X2285600Y0086907D02*
X2285700Y0087007D01*
X2292400Y0086800D02*
Y0094400D01*
X2299000Y0086893D02*
X2299100Y0086993D01*
Y0094100D01*
X2299000Y0086893D02*
X2299093Y0086800D01*
X2285700Y0087007D02*
Y0093600D01*
X2285600Y0086907D02*
X2285707Y0086800D01*
X2278914Y0086700D02*
X2279014Y0086800D01*
X2269800Y0086700D02*
X2278914D01*
D17*
X2299100Y0094100D02*
D03*
X2292600Y0093700D02*
D03*
X2285700Y0093600D02*
D03*
X2269800Y0086700D02*
D03*
D18*
X2009400Y0198400D02*
D03*
X2142900Y0074954D02*
D03*
X2143800Y0107954D02*
D03*
X2110210Y0079353D02*
D03*
X2127533Y0077953D02*
D03*
X2110900Y0103454D02*
D03*
X2126600D02*
D03*
X1966000Y0264564D02*
D03*
X1865700Y0264754D02*
D03*
X1756400Y0265154D02*
D03*
X1757300Y0198953D02*
D03*
X1866100Y0199054D02*
D03*
X1966600Y0198554D02*
D03*
X1966300Y0124453D02*
D03*
X1866100Y0124253D02*
D03*
X1756500Y0124054D02*
D03*
X1756800Y0060053D02*
D03*
X1866300Y0060353D02*
D03*
X1966300Y0060654D02*
D03*
X2181600Y0076753D02*
D03*
X2180700Y0105400D02*
D03*
X1999100Y0233100D02*
D03*
X1648774Y0091755D02*
D03*
X1999900Y0090300D02*
D03*
X1997200Y0162000D02*
D03*
M02*
