G04*
G04 #@! TF.GenerationSoftware,Altium Limited,Altium Designer,18.0.7 (293)*
G04*
G04 Layer_Color=8388736*
%FSAX25Y25*%
%MOIN*%
G70*
G01*
G75*
%ADD12R,0.05524X0.08674*%
%ADD13C,0.04737*%
%ADD14C,0.05800*%
D12*
X2279014Y0086800D02*
D03*
X2285707D02*
D03*
X2292400D02*
D03*
X2299093D02*
D03*
D13*
X2299100Y0094100D02*
D03*
X2292600Y0093700D02*
D03*
X2285700Y0093600D02*
D03*
X2269800Y0086700D02*
D03*
D14*
X2009400Y0198400D02*
D03*
X2142900Y0074954D02*
D03*
X2143800Y0107954D02*
D03*
X2110210Y0079353D02*
D03*
X2127533Y0077953D02*
D03*
X2110900Y0103454D02*
D03*
X2126600D02*
D03*
X1966000Y0264564D02*
D03*
X1865700Y0264754D02*
D03*
X1756400Y0265154D02*
D03*
X1757300Y0198953D02*
D03*
X1866100Y0199054D02*
D03*
X1966600Y0198554D02*
D03*
X1966300Y0124453D02*
D03*
X1866100Y0124253D02*
D03*
X1756500Y0124054D02*
D03*
X1756800Y0060053D02*
D03*
X1866300Y0060353D02*
D03*
X1966300Y0060654D02*
D03*
X2181600Y0076753D02*
D03*
X2180700Y0105400D02*
D03*
X1999100Y0233100D02*
D03*
X1648774Y0091755D02*
D03*
X1999900Y0090300D02*
D03*
X1997200Y0162000D02*
D03*
M02*
