M48
;Layer_Color=9474304
;FILE_FORMAT=2:5
INCH
;TYPE=PLATED
T1F00S00C0.02362
T2F00S00C0.02800
%
T01
X2299100Y0094100
X2292600Y0093700
X2285700Y0093600
X2269800Y0086700
T02
X2181600Y0076753
X2180700Y0105400
X2143800Y0107954
X2126600Y0103454
X2110900
X2110210Y0079353
X2127533Y0077953
X2142900Y0074954
X1999900Y0090300
X1966300Y0060654
Y0124453
X1866100Y0124253
X1866300Y0060353
X1756800Y0060053
X1756500Y0124054
X1648774Y0091755
X1757300Y0198953
X1756400Y0265154
X1865700Y0264754
X1866100Y0199054
X1966600Y0198554
X1966000Y0264564
X1999100Y0233100
X2009400Y0198400
X1997200Y0162000
M30
