G04*
G04 #@! TF.GenerationSoftware,Altium Limited,Altium Designer,18.0.7 (293)*
G04*
G04 Layer_Physical_Order=2*
G04 Layer_Color=16711680*
%FSAX25Y25*%
%MOIN*%
G70*
G01*
G75*
%ADD15C,0.00394*%
%ADD16C,0.01000*%
%ADD17C,0.03937*%
%ADD18C,0.05000*%
%ADD19R,0.02756X0.13780*%
%ADD20R,0.05512X0.04331*%
%ADD21R,0.01102X0.03543*%
%ADD22R,0.03543X0.01102*%
G36*
X2188053Y0114164D02*
X2191775Y0113612D01*
X2195425Y0112697D01*
X2198968Y0111430D01*
X2202369Y0109821D01*
X2205596Y0107887D01*
X2206264Y0107391D01*
X2206273Y0107404D01*
X2210708Y0104300D01*
X2210788Y0104265D01*
X2212218Y0103309D01*
X2214653Y0102108D01*
X2217224Y0101235D01*
X2218921Y0100898D01*
X2218871Y0100398D01*
X2157913D01*
X2157776Y0113562D01*
X2157752Y0113733D01*
X2158049Y0114249D01*
X2160012Y0114345D01*
X2160078Y0114332D01*
X2184295D01*
X2184361Y0114345D01*
X2188053Y0114164D01*
D02*
G37*
G36*
X2175146Y0095039D02*
X2175015Y0095013D01*
X2174519Y0094681D01*
X2170119Y0090282D01*
X2169056D01*
Y0091718D01*
X2161944D01*
Y0090482D01*
X2160456D01*
Y0091818D01*
X2157959D01*
X2157823Y0092777D01*
X2157314Y0093968D01*
X2156515Y0094988D01*
X2156504Y0095141D01*
X2156902Y0095539D01*
X2175097D01*
X2175146Y0095039D01*
D02*
G37*
G36*
X2283583Y0091483D02*
X2284203Y0091007D01*
X2284925Y0090708D01*
X2285700Y0090606D01*
X2286435Y0090703D01*
X2290319Y0086819D01*
X2290815Y0086487D01*
X2291400Y0086371D01*
X2423866D01*
X2427460Y0082778D01*
Y-0043069D01*
X2427430Y-0043557D01*
X2425552D01*
Y-0051446D01*
X2425052D01*
Y-0051947D01*
X2422674D01*
Y-0056821D01*
X2422672Y-0056825D01*
X2422174Y-0057008D01*
X2422160Y-0056991D01*
Y-0054350D01*
X2422172D01*
X2422046Y-0053720D01*
X2421689Y-0053186D01*
X2421429Y-0053012D01*
X2421333Y-0052929D01*
X2421115Y-0052805D01*
Y-0050959D01*
X2421155Y-0050951D01*
X2421689Y-0050594D01*
X2422046Y-0050059D01*
X2422172Y-0049429D01*
X2422160D01*
Y0081913D01*
X2422080Y0082313D01*
X2421854Y0082652D01*
X2421515Y0082878D01*
X2421115Y0082958D01*
X2222596D01*
X2222596Y0082958D01*
Y0082982D01*
X2219887Y0082805D01*
X2217224Y0082275D01*
X2214653Y0081402D01*
X2212218Y0080202D01*
X2210788Y0079246D01*
X2210708Y0079210D01*
X2206273Y0076106D01*
X2206264Y0076119D01*
X2205596Y0075624D01*
X2202369Y0073689D01*
X2198968Y0072080D01*
X2195425Y0070813D01*
X2191775Y0069899D01*
X2188053Y0069346D01*
X2184361Y0069165D01*
X2184295Y0069178D01*
X2160078D01*
X2160012Y0069165D01*
X2158500Y0069239D01*
X2158200Y0069753D01*
X2158228Y0069988D01*
X2158130Y0079426D01*
X2158482Y0079782D01*
X2160656D01*
Y0086113D01*
X2160456D01*
Y0087423D01*
X2161944D01*
Y0086013D01*
X2161744D01*
Y0083347D01*
X2169256D01*
Y0086013D01*
X2169056D01*
Y0087223D01*
X2170753D01*
X2171338Y0087340D01*
X2171834Y0087671D01*
X2176233Y0092071D01*
X2283132D01*
X2283583Y0091483D01*
D02*
G37*
G36*
X2435334Y0085603D02*
Y-0043757D01*
X2434455D01*
Y0085074D01*
X2434339Y0085659D01*
X2434007Y0086155D01*
X2429181Y0090981D01*
X2428685Y0091313D01*
X2428100Y0091429D01*
X2301317D01*
X2301147Y0091929D01*
X2301217Y0091983D01*
X2301668Y0092571D01*
X2428366D01*
X2435334Y0085603D01*
D02*
G37*
G36*
X2431397Y0084440D02*
Y-0043757D01*
X2430518D01*
Y0083411D01*
X2430402Y0083996D01*
X2430070Y0084492D01*
X2426654Y0087909D01*
X2426846Y0088371D01*
X2427467D01*
X2431397Y0084440D01*
D02*
G37*
G36*
X2439755Y-0049429D02*
X2439743D01*
X2439869Y-0050059D01*
X2440226Y-0050594D01*
X2440760Y-0050951D01*
X2440800Y-0050959D01*
Y-0052805D01*
X2440582Y-0052929D01*
X2440486Y-0053012D01*
X2440226Y-0053186D01*
X2439869Y-0053720D01*
X2439743Y-0054350D01*
X2439755D01*
Y-0057500D01*
X2439755Y-0057500D01*
X2439734D01*
X2439700Y-0057581D01*
X2439619Y-0057615D01*
Y-0057636D01*
X2439041D01*
Y-0043757D01*
X2438392D01*
Y0086237D01*
X2438276Y0086822D01*
X2437944Y0087318D01*
X2430081Y0095181D01*
X2429585Y0095513D01*
X2429000Y0095629D01*
X2301668D01*
X2301217Y0096217D01*
X2300597Y0096693D01*
X2299875Y0096992D01*
X2299100Y0097094D01*
X2298366Y0096997D01*
X2295413Y0099950D01*
X2295259Y0100053D01*
X2295411Y0100553D01*
X2439755D01*
Y-0049429D01*
D02*
G37*
%LPC*%
G36*
X2181200Y0108864D02*
Y0105900D01*
X2184164D01*
X2184110Y0106314D01*
X2183757Y0107165D01*
X2183196Y0107896D01*
X2182465Y0108457D01*
X2181614Y0108810D01*
X2181200Y0108864D01*
D02*
G37*
G36*
X2180200D02*
X2179786Y0108810D01*
X2178935Y0108457D01*
X2178204Y0107896D01*
X2177643Y0107165D01*
X2177290Y0106314D01*
X2177236Y0105900D01*
X2180200D01*
Y0108864D01*
D02*
G37*
G36*
X2184164Y0104900D02*
X2181200D01*
Y0101936D01*
X2181614Y0101990D01*
X2182465Y0102343D01*
X2183196Y0102904D01*
X2183757Y0103635D01*
X2184110Y0104486D01*
X2184164Y0104900D01*
D02*
G37*
G36*
X2180200D02*
X2177236D01*
X2177290Y0104486D01*
X2177643Y0103635D01*
X2178204Y0102904D01*
X2178935Y0102343D01*
X2179786Y0101990D01*
X2180200Y0101936D01*
Y0104900D01*
D02*
G37*
G36*
X2270300Y0089628D02*
Y0087200D01*
X2272728D01*
X2272692Y0087475D01*
X2272393Y0088197D01*
X2271917Y0088817D01*
X2271297Y0089293D01*
X2270575Y0089592D01*
X2270300Y0089628D01*
D02*
G37*
G36*
X2269300D02*
X2269025Y0089592D01*
X2268303Y0089293D01*
X2267683Y0088817D01*
X2267207Y0088197D01*
X2266908Y0087475D01*
X2266872Y0087200D01*
X2269300D01*
Y0089628D01*
D02*
G37*
G36*
X2272728Y0086200D02*
X2270300D01*
Y0083772D01*
X2270575Y0083808D01*
X2271297Y0084107D01*
X2271917Y0084583D01*
X2272393Y0085203D01*
X2272692Y0085925D01*
X2272728Y0086200D01*
D02*
G37*
G36*
X2269300D02*
X2266872D01*
X2266908Y0085925D01*
X2267207Y0085203D01*
X2267683Y0084583D01*
X2268303Y0084107D01*
X2269025Y0083808D01*
X2269300Y0083772D01*
Y0086200D01*
D02*
G37*
G36*
X2169256Y0082347D02*
X2166000D01*
Y0079682D01*
X2169256D01*
Y0082347D01*
D02*
G37*
G36*
X2165000D02*
X2161744D01*
Y0079682D01*
X2165000D01*
Y0082347D01*
D02*
G37*
G36*
X2182100Y0080218D02*
Y0077254D01*
X2185064D01*
X2185010Y0077667D01*
X2184657Y0078519D01*
X2184096Y0079250D01*
X2183365Y0079811D01*
X2182514Y0080164D01*
X2182100Y0080218D01*
D02*
G37*
G36*
X2181100D02*
X2180686Y0080164D01*
X2179835Y0079811D01*
X2179104Y0079250D01*
X2178543Y0078519D01*
X2178190Y0077667D01*
X2178136Y0077254D01*
X2181100D01*
Y0080218D01*
D02*
G37*
G36*
X2185064Y0076253D02*
X2182100D01*
Y0073289D01*
X2182514Y0073344D01*
X2183365Y0073696D01*
X2184096Y0074257D01*
X2184657Y0074989D01*
X2185010Y0075840D01*
X2185064Y0076253D01*
D02*
G37*
G36*
X2181100D02*
X2178136D01*
X2178190Y0075840D01*
X2178543Y0074989D01*
X2179104Y0074257D01*
X2179835Y0073696D01*
X2180686Y0073344D01*
X2181100Y0073289D01*
Y0076253D01*
D02*
G37*
G36*
X2424552Y-0043557D02*
X2422674D01*
Y-0050946D01*
X2424552D01*
Y-0043557D01*
D02*
G37*
%LPD*%
D15*
X2017097Y0216800D02*
G03*
X2016597Y0218003I-0001697J0000000D01*
G01*
X2017097Y0216800D02*
G03*
X2016600Y0218000I-0001697J0000000D01*
G01*
X2002797Y0233100D02*
G03*
X2000223Y0229578I-0003697J0000000D01*
G01*
X2002622Y0231977D02*
G03*
X2002797Y0233100I-0003522J0001123D01*
G01*
X1969697Y0264564D02*
G03*
X1969697Y0264564I-0003697J0000000D01*
G01*
X2013097Y0198400D02*
G03*
X2010523Y0194878I-0003697J0000000D01*
G01*
X2012922Y0197277D02*
G03*
X2013097Y0198400I-0003522J0001123D01*
G01*
X2005903Y0163197D02*
G03*
X2004700Y0163697I-0001203J-0001197D01*
G01*
X2005900Y0163200D02*
G03*
X2004700Y0163697I-0001200J-0001200D01*
G01*
X1970297Y0198554D02*
G03*
X1970297Y0198554I-0003697J0000000D01*
G01*
X2000484Y0163697D02*
G03*
X2000484Y0160303I-0003284J-0001697D01*
G01*
X2147497Y0107954D02*
G03*
X2147497Y0107954I-0003697J0000000D01*
G01*
X2114597Y0103454D02*
G03*
X2114597Y0103454I-0003697J0000000D01*
G01*
X2130297D02*
G03*
X2130297Y0103454I-0003697J0000000D01*
G01*
X2146902Y0096194D02*
G03*
X2146402Y0097398I-0001697J0000000D01*
G01*
X2146902Y0096194D02*
G03*
X2146405Y0097394I-0001697J0000000D01*
G01*
X2145344Y0098456D02*
G03*
X2144141Y0098956I-0001203J-0001197D01*
G01*
X2145341Y0098459D02*
G03*
X2144141Y0098956I-0001200J-0001200D01*
G01*
X2056168Y0100376D02*
G03*
X2061796Y0100768I0000000J0040592D01*
G01*
X2018318Y0101598D02*
G03*
X2019540Y0100376I0001222J0000000D01*
G01*
X2018318Y0101598D02*
G03*
X2019540Y0100376I0001222J0000000D01*
G01*
X2009003Y0098609D02*
G03*
X2009503Y0097406I0001697J0000000D01*
G01*
X2009003Y0098609D02*
G03*
X2009500Y0097409I0001697J0000000D01*
G01*
X2003148Y0092066D02*
G03*
X1997008Y0087997I-0003248J-0001766D01*
G01*
X2148153Y0081847D02*
G03*
X2149332Y0081350I0001200J0001200D01*
G01*
X2148150Y0081850D02*
G03*
X2149330Y0081350I0001203J0001197D01*
G01*
X2133394Y0086704D02*
G03*
X2134089Y0086853I0000000J0001697D01*
G01*
X2134799Y0086143D02*
G03*
X2134799Y0084753I0001548J-0000695D01*
G01*
X2131230Y0077953D02*
G03*
X2131230Y0077953I-0003697J0000000D01*
G01*
X2146597Y0074954D02*
G03*
X2141327Y0071608I-0003697J0000000D01*
G01*
X2143494Y0071305D02*
G03*
X2146597Y0074954I-0000594J0003649D01*
G01*
X2113907Y0079353D02*
G03*
X2108211Y0076244I-0003697J0000000D01*
G01*
X2111279Y0075815D02*
G03*
X2113907Y0079353I-0001069J0003539D01*
G01*
X2061796Y0082742D02*
G03*
X2056168Y0083135I-0005628J-0040200D01*
G01*
X2002792Y0087997D02*
G03*
X2003219Y0088673I-0002892J0002303D01*
G01*
X2012753Y0084603D02*
G03*
X2013956Y0085103I0000000J0001697D01*
G01*
X2012753Y0084603D02*
G03*
X2013953Y0085100I0000000J0001697D01*
G01*
X2019540Y0083135D02*
G03*
X2018318Y0081913I0000000J-0001222D01*
G01*
X2019540Y0083135D02*
G03*
X2018318Y0081913I0000000J-0001222D01*
G01*
X1969997Y0124453D02*
G03*
X1969997Y0124453I-0003697J0000000D01*
G01*
Y0060654D02*
G03*
X1969997Y0060654I-0003697J0000000D01*
G01*
X1869397Y0264754D02*
G03*
X1869397Y0264754I-0003697J0000000D01*
G01*
X1869797Y0199054D02*
G03*
X1869797Y0199054I-0003697J0000000D01*
G01*
X1760097Y0265154D02*
G03*
X1760097Y0265154I-0003697J0000000D01*
G01*
X1760997Y0198953D02*
G03*
X1760997Y0198953I-0003697J0000000D01*
G01*
X1869797Y0124253D02*
G03*
X1869797Y0124253I-0003697J0000000D01*
G01*
X1869997Y0060353D02*
G03*
X1869997Y0060353I-0003697J0000000D01*
G01*
X1760197Y0124054D02*
G03*
X1760197Y0124054I-0003697J0000000D01*
G01*
X1692869Y0098407D02*
G03*
X1694090Y0099629I0000000J0001222D01*
G01*
X1692869Y0098407D02*
G03*
X1694090Y0099629I0000000J0001222D01*
G01*
X1760497Y0060053D02*
G03*
X1760497Y0060053I-0003697J0000000D01*
G01*
X1694090Y0083881D02*
G03*
X1693854Y0084603I-0001222J0000000D01*
G01*
X1694090Y0083881D02*
G03*
X1693854Y0084603I-0001222J0000000D01*
G01*
X1686152Y0099385D02*
G03*
X1687311Y0098408I0001197J0000244D01*
G01*
X1687929Y0091407D02*
G03*
X1687311Y0098408I-0039978J0000000D01*
G01*
X1686152Y0099385D02*
G03*
X1687311Y0098408I0001197J0000244D01*
G01*
X1687783Y0087997D02*
G03*
X1687929Y0091407I-0039832J0003410D01*
G01*
X1652471Y0091755D02*
G03*
X1649897Y0088233I-0003697J0000000D01*
G01*
X1652296Y0090632D02*
G03*
X1652471Y0091755I-0003522J0001123D01*
G01*
X1686363Y0084603D02*
G03*
X1686152Y0084126I0000986J-0000722D01*
G01*
X1686363Y0084603D02*
G03*
X1686152Y0084126I0000986J-0000722D01*
G01*
X1653026Y0085103D02*
G03*
X1654229Y0084603I0001203J0001197D01*
G01*
X1653029Y0085100D02*
G03*
X1654229Y0084603I0001200J0001200D01*
G01*
X1686152Y0099385D02*
G03*
X1686152Y0084126I-0037378J-0007630D01*
G01*
X1692869Y0098407D02*
G03*
X1694016Y0099210I0000000J0001222D01*
G01*
X1692869Y0098407D02*
G03*
X1694016Y0099210I0000000J0001222D01*
G01*
X1694086Y0083987D02*
G03*
X1693854Y0084603I-0001217J-0000106D01*
G01*
X1694086Y0083987D02*
G03*
X1693854Y0084603I-0001217J-0000106D01*
G01*
X1686201Y0099210D02*
G03*
X1687349Y0098407I0001148J0000419D01*
G01*
X1686201Y0099210D02*
G03*
X1687349Y0098407I0001148J0000419D01*
G01*
X1686363Y0084603D02*
G03*
X1686152Y0084126I0000986J-0000722D01*
G01*
X1686363Y0084603D02*
G03*
X1686152Y0084126I0000986J-0000722D01*
G01*
X2008600Y0258255D02*
Y0268929D01*
X2007869Y0259245D02*
X2018318D01*
X2008842Y0257670D02*
X2018318D01*
X2007025Y0259943D02*
Y0268929D01*
X2007776Y0259366D02*
X2008565Y0258338D01*
X2009199Y0256095D02*
X2018318D01*
X2009061Y0257141D02*
X2009230Y0255856D01*
Y0254521D02*
X2018318D01*
X2008565Y0258338D02*
X2009061Y0257141D01*
X2009230Y0242756D02*
Y0255856D01*
X1982613Y0260820D02*
X2004266D01*
X1982612Y0260820D02*
X2004267D01*
X2018318D01*
X2002300Y0260820D02*
Y0268929D01*
X2003875Y0260820D02*
Y0268929D01*
X2005551Y0260651D02*
X2006748Y0260155D01*
X2007776Y0259366D01*
X2005450Y0260664D02*
Y0268929D01*
X2004266Y0260820D02*
X2005551Y0260651D01*
X2009230Y0248221D02*
X2018318D01*
X2009230Y0249796D02*
X2018318D01*
X2009230Y0246647D02*
X2018318D01*
X2009230Y0252946D02*
X2018318D01*
X2009230Y0251371D02*
X2018318D01*
X2009230Y0243497D02*
X2018318D01*
X2009230Y0245072D02*
X2018318D01*
X2009120Y0241922D02*
X2018318D01*
X2009061Y0241472D02*
X2009230Y0242756D01*
X2008595Y0240347D02*
X2018318D01*
X2008565Y0240274D02*
X2009061Y0241472D01*
X2007776Y0239246D02*
X2008565Y0240274D01*
X2007159Y0238773D02*
X2018318D01*
X2006748Y0238458D02*
X2007776Y0239246D01*
X2005551Y0237962D02*
X2006748Y0238458D01*
X2004266Y0237793D02*
X2005551Y0237962D01*
X2001802Y0235623D02*
X2018318D01*
X2002300Y0234950D02*
Y0237793D01*
X1982613D02*
X2004266D01*
X1991277Y0260820D02*
Y0268929D01*
X1989702Y0260820D02*
Y0268929D01*
X1992852Y0260820D02*
Y0268929D01*
X1986552Y0260820D02*
Y0268929D01*
X1988127Y0260820D02*
Y0268929D01*
X1999151Y0260820D02*
Y0268929D01*
X1997576Y0260820D02*
Y0268929D01*
X2000726Y0260820D02*
Y0268929D01*
X1994426Y0260820D02*
Y0268929D01*
X1996001Y0260820D02*
Y0268929D01*
X1984978Y0260820D02*
Y0268929D01*
X1983403Y0260820D02*
Y0268929D01*
X1981328Y0260651D02*
X1982613Y0260820D01*
X1980253Y0260206D02*
Y0268929D01*
X1981828Y0260717D02*
Y0268929D01*
X1980131Y0260155D02*
X1981328Y0260651D01*
X1979103Y0259366D02*
X1980131Y0260155D01*
X1978678Y0258813D02*
Y0268929D01*
X1978314Y0258338D02*
X1979103Y0259366D01*
Y0239246D02*
X1980131Y0238458D01*
X1978314Y0240274D02*
X1979103Y0239246D01*
X1980131Y0238458D02*
X1981328Y0237962D01*
X1977818Y0257141D02*
X1978314Y0258338D01*
X1977818Y0241472D02*
X1978314Y0240274D01*
X1999151Y0236796D02*
Y0237793D01*
X1997576Y0236468D02*
Y0237793D01*
X2000726Y0236420D02*
Y0237793D01*
X1981328Y0237962D02*
X1982613Y0237793D01*
X1996001Y0235116D02*
Y0237793D01*
X1977649Y0255856D02*
X1977818Y0257141D01*
X1974779Y0250177D02*
X1974842Y0249694D01*
X1974829Y0249796D02*
X1977649D01*
X1974842Y0249306D02*
Y0249694D01*
Y0248919D02*
Y0249306D01*
X1977649Y0242756D02*
Y0255856D01*
Y0242756D02*
X1977818Y0241472D01*
X1974779Y0248436D02*
X1974842Y0248919D01*
X1974764Y0248221D02*
X1977649D01*
X2011575Y0223025D02*
X2018318D01*
X2010000Y0224599D02*
X2018318D01*
X2013150Y0221450D02*
X2018318D01*
X2010174Y0224425D02*
Y0268929D01*
X2011749Y0222850D02*
Y0268929D01*
X2016474Y0218126D02*
Y0268929D01*
X2014899Y0219701D02*
Y0268929D01*
X2009230Y0220570D02*
X2013703Y0216097D01*
X2013324Y0221276D02*
Y0268929D01*
X2009230Y0209449D02*
Y0220570D01*
X2005276Y0229324D02*
X2018318D01*
X2003701Y0230899D02*
X2018318D01*
X2006851Y0227749D02*
X2018318D01*
X2002673Y0234048D02*
X2018318D01*
X2002743Y0232473D02*
X2018318D01*
X2002622Y0231977D02*
X2016597Y0218003D01*
X2008425Y0226174D02*
X2018318D01*
X2008600Y0226000D02*
Y0240358D01*
X2009230Y0219875D02*
X2009925D01*
X2016299Y0218300D02*
X2018318D01*
X2014725Y0219875D02*
X2018318D01*
X2017097Y0216725D02*
X2018318D01*
X2017097Y0213576D02*
X2018318D01*
X2017097Y0215151D02*
X2018318D01*
X2017097Y0212001D02*
X2018318D01*
X2013703Y0196497D02*
Y0216097D01*
X2017097Y0210426D02*
X2018318D01*
X2009230Y0213576D02*
X2013703D01*
X2009230Y0215151D02*
X2013703D01*
X2009230Y0212001D02*
X2013703D01*
X2009230Y0218300D02*
X2011500D01*
X2009230Y0216725D02*
X2013075D01*
X2013324Y0196876D02*
Y0216476D01*
X2009230Y0210426D02*
X2013703D01*
X2010174Y0202015D02*
Y0219626D01*
X2011749Y0201255D02*
Y0218051D01*
X2007025Y0227575D02*
Y0238670D01*
X2005450Y0229150D02*
Y0237948D01*
X2003875Y0230725D02*
Y0237793D01*
X1997576Y0227513D02*
Y0229732D01*
X1996001Y0227513D02*
Y0231084D01*
X2000223Y0229578D02*
X2002287Y0227513D01*
X1992852D02*
Y0237793D01*
X1994426Y0227513D02*
Y0237793D01*
X1989702Y0227513D02*
Y0237793D01*
X1988127Y0227513D02*
Y0237793D01*
X1991277Y0227513D02*
Y0237793D01*
X1984978Y0227513D02*
Y0237793D01*
X1986552Y0227513D02*
Y0237793D01*
X1981828Y0227410D02*
Y0237896D01*
X1983403Y0227513D02*
Y0237793D01*
X1978678Y0225506D02*
Y0239800D01*
X1980253Y0226899D02*
Y0238407D01*
X2000726Y0227513D02*
Y0229075D01*
X1999151Y0227513D02*
Y0229403D01*
X1982613Y0227513D02*
X2002287D01*
X1981328Y0227344D02*
X1982613Y0227513D01*
X1980131Y0226848D02*
X1981328Y0227344D01*
X1979103Y0226059D02*
X1980131Y0226848D01*
X1978314Y0225031D02*
X1979103Y0226059D01*
X1977818Y0223834D02*
X1978314Y0225031D01*
X1977649Y0222549D02*
X1977818Y0223834D01*
X1974799Y0216725D02*
X1977649D01*
X1974779Y0216881D02*
X1974842Y0216399D01*
X1974780Y0215151D02*
X1977649D01*
X1974842Y0216011D02*
Y0216399D01*
Y0215623D02*
Y0216011D01*
X1977649Y0209449D02*
Y0222549D01*
Y0209449D02*
X1977818Y0208165D01*
X1974779Y0215141D02*
X1974842Y0215623D01*
X1974747Y0214655D02*
X1974779Y0215141D01*
X1973162Y0254521D02*
X1977649D01*
X1973126Y0254574D02*
X1973557Y0253929D01*
X1973773Y0253492D01*
X1972509Y0255326D02*
X1972805Y0254940D01*
X1973126Y0254574D01*
X1974068Y0252946D02*
X1977649D01*
X1974016Y0253071D02*
X1974313Y0252354D01*
X1974439Y0251884D01*
X1973954Y0253178D02*
Y0268929D01*
X1973773Y0253492D02*
X1974016Y0253071D01*
X1969565Y0265544D02*
X2018318D01*
X1968672Y0267119D02*
X2018318D01*
X1969649Y0263969D02*
X2018318D01*
X1968993Y0262395D02*
X2018318D01*
X1949270Y0260820D02*
X1982612D01*
X1952872Y0259245D02*
X1979010D01*
X1969008Y0257670D02*
X1978037D01*
X1971672Y0256095D02*
X1977681D01*
X1971961Y0255874D02*
X1972509Y0255326D01*
X1974747Y0250662D02*
X1974779Y0250177D01*
X1974606Y0251371D02*
X1977649D01*
X1974747Y0247950D02*
X1974779Y0248436D01*
X1974439Y0251884D02*
X1974595Y0251423D01*
X1974747Y0250662D01*
X1974595Y0247189D02*
X1974747Y0247950D01*
X1974439Y0246729D02*
X1974595Y0247189D01*
X1974417Y0246647D02*
X1977649D01*
X1974313Y0246258D02*
X1974439Y0246729D01*
X1974016Y0245542D02*
X1974313Y0246258D01*
X1973773Y0245120D02*
X1974016Y0245542D01*
X1973557Y0244684D02*
X1973773Y0245120D01*
X1973749Y0245072D02*
X1977649D01*
X1973126Y0244039D02*
X1973557Y0244684D01*
X1972806Y0243673D02*
X1973126Y0244039D01*
X1972671Y0243497D02*
X1977649D01*
X1970911Y0241922D02*
X1977759D01*
X1972509Y0243287D02*
X1972806Y0243673D01*
X1971961Y0242738D02*
X1972509Y0243287D01*
X1969230Y0266363D02*
Y0268929D01*
X1967655Y0267870D02*
Y0268929D01*
X1966080Y0268260D02*
Y0268929D01*
X1972379Y0255456D02*
Y0268929D01*
X1970804Y0256762D02*
Y0268929D01*
X1969230Y0257578D02*
Y0262765D01*
X1967655Y0258040D02*
Y0261258D01*
X1966080Y0258207D02*
Y0260868D01*
X1962930Y0266624D02*
Y0268929D01*
X1964505Y0267945D02*
Y0268929D01*
X1965071Y0258143D02*
X1965553Y0258207D01*
X1966329D01*
X1962930Y0257688D02*
Y0262504D01*
X1964505Y0258096D02*
Y0261183D01*
X1969706Y0257381D02*
X1970127Y0257138D01*
X1968989Y0257678D02*
X1969706Y0257381D01*
X1970127Y0257138D02*
X1970564Y0256922D01*
X1968058Y0257960D02*
X1968519Y0257804D01*
X1968989Y0257678D01*
X1971575Y0242442D02*
X1971961Y0242738D01*
X1971575Y0256171D02*
X1971961Y0255874D01*
X1971209Y0242121D02*
X1971575Y0242442D01*
X1970564Y0256922D02*
X1971209Y0256491D01*
X1971575Y0256171D01*
X1966812Y0258143D02*
X1967297Y0258112D01*
X1966329Y0258207D02*
X1966812Y0258143D01*
X1967297Y0258112D02*
X1968058Y0257960D01*
X1964585Y0258112D02*
X1965071Y0258143D01*
X1963824Y0257960D02*
X1964585Y0258112D01*
X1963363Y0257804D02*
X1963824Y0257960D01*
X1962893Y0257678D02*
X1963363Y0257804D01*
X1962177Y0257381D02*
X1962893Y0257678D01*
X1953845Y0257670D02*
X1962875D01*
X1972805Y0221644D02*
X1973126Y0221278D01*
X1972509Y0222030D02*
X1972805Y0221644D01*
X1972976Y0221450D02*
X1977649D01*
X1972379Y0222160D02*
Y0243157D01*
X1971961Y0222579D02*
X1972509Y0222030D01*
X1973954Y0219883D02*
Y0245434D01*
X1973773Y0220197D02*
X1974016Y0219775D01*
X1973959Y0219875D02*
X1977649D01*
X1973126Y0221278D02*
X1973557Y0220633D01*
X1973773Y0220197D01*
X1953599Y0240347D02*
X1978284D01*
X1952162Y0238773D02*
X1979720D01*
X1952629Y0226174D02*
X1979253D01*
X1970564Y0241690D02*
X1971209Y0242121D01*
X1968251Y0224599D02*
X1978135D01*
X1971404Y0223025D02*
X1977712D01*
X1971575Y0222875D02*
X1971961Y0222579D01*
X1970564Y0223627D02*
X1971209Y0223196D01*
X1971575Y0222875D01*
X1974537Y0218300D02*
X1977649D01*
X1974439Y0218589D02*
X1974595Y0218128D01*
X1974747Y0217367D01*
X1974016Y0219775D02*
X1974313Y0219059D01*
X1974439Y0218589D01*
X1974747Y0217367D02*
X1974779Y0216881D01*
X1974595Y0213894D02*
X1974747Y0214655D01*
X1974487Y0213576D02*
X1977649D01*
X1974439Y0213433D02*
X1974595Y0213894D01*
X1974313Y0212963D02*
X1974439Y0213433D01*
X1974016Y0212246D02*
X1974313Y0212963D01*
X1973773Y0211825D02*
X1974016Y0212246D01*
X1973874Y0212001D02*
X1977649D01*
X1973557Y0211388D02*
X1973773Y0211825D01*
X1973126Y0210743D02*
X1973557Y0211388D01*
X1972806Y0210378D02*
X1973126Y0210743D01*
X1972848Y0210426D02*
X1977649D01*
X1972509Y0209991D02*
X1972806Y0210378D01*
X1971961Y0209443D02*
X1972509Y0209991D01*
X1970127Y0241475D02*
X1970564Y0241690D01*
X1969706Y0241231D02*
X1970127Y0241475D01*
X1968989Y0240935D02*
X1969706Y0241231D01*
X1968519Y0240809D02*
X1968989Y0240935D01*
X1968058Y0240652D02*
X1968519Y0240809D01*
X1970804Y0223466D02*
Y0241851D01*
X1969230Y0224283D02*
Y0241034D01*
X1967297Y0240501D02*
X1968058Y0240652D01*
X1967655Y0224745D02*
Y0240572D01*
X1966812Y0240469D02*
X1967297Y0240501D01*
X1963824Y0240652D02*
X1964585Y0240501D01*
X1963364Y0240809D02*
X1963824Y0240652D01*
X1964585Y0240501D02*
X1965071Y0240469D01*
X1962177Y0241231D02*
X1962893Y0240935D01*
X1963364Y0240809D01*
X1965071Y0240469D02*
X1965553Y0240406D01*
X1966329D02*
X1966812Y0240469D01*
X1962930Y0224392D02*
Y0240925D01*
X1964505Y0224800D02*
Y0240517D01*
X1967297Y0224816D02*
X1968058Y0224665D01*
X1966812Y0224848D02*
X1967297Y0224816D01*
X1968058Y0224665D02*
X1968519Y0224508D01*
X1966080Y0224912D02*
Y0240406D01*
X1966329Y0224912D02*
X1966812Y0224848D01*
X1969706Y0224086D02*
X1970127Y0223842D01*
X1970564Y0223627D01*
X1968519Y0224508D02*
X1968989Y0224382D01*
X1969706Y0224086D01*
X1965553Y0224912D02*
X1966329D01*
X1965553Y0240406D02*
X1966329D01*
X1965071Y0224848D02*
X1965553Y0224912D01*
X1964585Y0224816D02*
X1965071Y0224848D01*
X1963824Y0224665D02*
X1964585Y0224816D01*
X1963363Y0224508D02*
X1963824Y0224665D01*
X1953747Y0224599D02*
X1963632D01*
X1962893Y0224382D02*
X1963363Y0224508D01*
X1962177Y0224086D02*
X1962893Y0224382D01*
X2017097Y0204127D02*
X2018318D01*
X2017097Y0205702D02*
X2018318D01*
X2017097Y0202552D02*
X2018318D01*
X2017097Y0208852D02*
X2018318D01*
X2017097Y0207277D02*
X2018318D01*
X2017097Y0199403D02*
X2018318D01*
X2017097Y0200977D02*
X2018318D01*
X2017097Y0197828D02*
X2018318D01*
X2013052D02*
X2013703D01*
X2017097Y0196253D02*
X2018318D01*
X2012050Y0200977D02*
X2013703D01*
X2007467Y0205702D02*
X2013703D01*
X2012958Y0199403D02*
X2013703D01*
X2009151Y0208852D02*
X2013703D01*
X2008693Y0207277D02*
X2013703D01*
X2012922Y0197277D02*
X2013703Y0196497D01*
X2017097Y0189954D02*
X2018318D01*
X2017097Y0191529D02*
X2018318D01*
X2017097Y0188379D02*
X2018318D01*
X2017097Y0194678D02*
X2018318D01*
X2017097Y0193103D02*
X2018318D01*
X2017097Y0177355D02*
X2018318D01*
X2017097Y0183655D02*
X2018318D01*
X2017097Y0175781D02*
X2018318D01*
X2017097Y0186804D02*
X2018318D01*
X2017097Y0185229D02*
X2018318D01*
X2009230Y0183655D02*
X2011803D01*
X2009230Y0185229D02*
X2011803D01*
X2017097Y0182080D02*
X2018318D01*
X2010523Y0194878D02*
X2011803Y0193597D01*
X2006473Y0193103D02*
X2011803D01*
X2017097Y0174206D02*
X2018318D01*
X2017097Y0172631D02*
X2018318D01*
X2017097Y0180505D02*
X2018318D01*
X2017097Y0178930D02*
X2018318D01*
X2009061Y0208165D02*
X2009230Y0209449D01*
X2008565Y0206967D02*
X2009061Y0208165D01*
X2008600Y0202009D02*
Y0207050D01*
X2007776Y0205939D02*
X2008565Y0206967D01*
X2006748Y0205151D02*
X2007776Y0205939D01*
X2008600Y0191090D02*
Y0194791D01*
X2007025Y0201233D02*
Y0205363D01*
Y0192777D02*
Y0195567D01*
X2005551Y0204655D02*
X2006748Y0205151D01*
X2004266Y0204486D02*
X2005551Y0204655D01*
X2000726Y0193655D02*
Y0204486D01*
X2003875Y0193655D02*
Y0204486D01*
X2004266Y0193655D02*
X2005551Y0193485D01*
X2006748Y0192990D01*
X2005450Y0193499D02*
Y0204641D01*
X2002300Y0193655D02*
Y0204486D01*
X2009230Y0182080D02*
X2011803D01*
X2009230Y0186804D02*
X2011803D01*
X2009230Y0180505D02*
X2011803D01*
X2009064Y0189954D02*
X2011803D01*
X2009230Y0188379D02*
X2011803D01*
X2009230Y0177355D02*
X2011803D01*
X2009230Y0178930D02*
X2011803D01*
X2009230Y0175781D02*
X2011803D01*
X2009230Y0175591D02*
Y0188691D01*
X2009061Y0174306D02*
X2009230Y0175591D01*
X2008565Y0191173D02*
X2009061Y0189976D01*
X2008292Y0191529D02*
X2011803D01*
X2009061Y0189976D02*
X2009230Y0188691D01*
X2006748Y0192990D02*
X2007776Y0192201D01*
X2008565Y0191173D01*
X2009019Y0174206D02*
X2011803D01*
X2008198Y0172631D02*
X2011803D01*
X2008565Y0173109D02*
X2009061Y0174306D01*
X2007776Y0172081D02*
X2008565Y0173109D01*
X2017097Y0166332D02*
X2018318D01*
X2017097Y0167907D02*
X2018318D01*
X2017097Y0164757D02*
X2018318D01*
X2017097Y0171056D02*
X2018318D01*
X2017097Y0169481D02*
X2018318D01*
X2017097Y0158458D02*
X2018318D01*
X2017097Y0160033D02*
X2018318D01*
X2017097Y0156883D02*
X2018318D01*
X2017097Y0163182D02*
X2018318D01*
X2017097Y0161607D02*
X2018318D01*
X2009067Y0160033D02*
X2011803D01*
X2007492Y0161607D02*
X2011803D01*
X2010642Y0158458D02*
X2011803D01*
X2006179Y0171056D02*
X2011803D01*
X2005918Y0163182D02*
X2011803D01*
X2017097Y0153733D02*
X2018318D01*
X2017097Y0152159D02*
X2018318D01*
X2005903Y0163197D02*
X2011803Y0157297D01*
X2017097Y0155308D02*
X2018318D01*
X2017097Y0131686D02*
X2018318D01*
X2017097Y0133261D02*
X2018318D01*
X2017097Y0130111D02*
X2018318D01*
X2017097Y0136411D02*
X2018318D01*
X2017097Y0134836D02*
X2018318D01*
X2017097Y0123812D02*
X2018318D01*
X2017097Y0125387D02*
X2018318D01*
X2017097Y0122237D02*
X2018318D01*
X2017097Y0128537D02*
X2018318D01*
X2017097Y0126962D02*
X2018318D01*
X2017097Y0145859D02*
X2018318D01*
X2017097Y0147434D02*
X2018318D01*
X2017097Y0144285D02*
X2018318D01*
X2017097Y0150584D02*
X2018318D01*
X2017097Y0149009D02*
X2018318D01*
X2017097Y0139560D02*
X2018318D01*
X2017097Y0137985D02*
X2018318D01*
X2017097Y0142710D02*
X2018318D01*
X2017097Y0141135D02*
X2018318D01*
X2006748Y0171292D02*
X2007776Y0172081D01*
X2005551Y0170796D02*
X2006748Y0171292D01*
X2005450Y0163522D02*
Y0170783D01*
X2011749Y0157351D02*
Y0193651D01*
X2010174Y0158925D02*
Y0194785D01*
X2011803Y0157297D02*
Y0193597D01*
X2008600Y0160500D02*
Y0173192D01*
X2007025Y0162075D02*
Y0171504D01*
X2004266Y0170627D02*
X2005551Y0170796D01*
X2003875Y0163697D02*
Y0170627D01*
X2000484Y0160303D02*
X2003997D01*
X2000726Y0163697D02*
Y0170627D01*
X2002300Y0163697D02*
Y0170627D01*
X2003875Y0154285D02*
Y0160303D01*
X2003997D02*
X2009003Y0155297D01*
X2000726Y0154285D02*
Y0160303D01*
X2002300Y0154285D02*
Y0160303D01*
X2008600Y0151719D02*
Y0155701D01*
X2008292Y0152159D02*
X2009003D01*
X2008565Y0151803D02*
X2009003Y0150745D01*
X2007025Y0153407D02*
Y0157275D01*
X2007776Y0152831D02*
X2008565Y0151803D01*
X2009003Y0150745D02*
Y0155297D01*
X2008565Y0133739D02*
X2009003Y0134797D01*
X2007776Y0132711D02*
X2008565Y0133739D01*
X2008198Y0133261D02*
X2009003D01*
X2006473Y0153733D02*
X2009003D01*
X2005551Y0154115D02*
X2006748Y0153620D01*
X2007776Y0152831D01*
X2005450Y0154129D02*
Y0158850D01*
X2004266Y0154285D02*
X2005551Y0154115D01*
X2006748Y0131922D02*
X2007776Y0132711D01*
X2006179Y0131686D02*
X2009003D01*
X2005551Y0131426D02*
X2006748Y0131922D01*
X2004266Y0131257D02*
X2005551Y0131426D01*
X1999151Y0193655D02*
Y0204486D01*
X1991277Y0193655D02*
Y0204486D01*
X1982613D02*
X2004266D01*
X1981328Y0204655D02*
X1982613Y0204486D01*
X1989702Y0193655D02*
Y0204486D01*
X1988127Y0193655D02*
Y0204486D01*
X1986552Y0193655D02*
Y0204486D01*
X1997576Y0193655D02*
Y0204486D01*
X1981828Y0193551D02*
Y0204589D01*
X1984978Y0193655D02*
Y0204486D01*
X1978314Y0206967D02*
X1979103Y0205939D01*
X1977818Y0208165D02*
X1978314Y0206967D01*
X1952470Y0205702D02*
X1979412D01*
X1971238Y0208852D02*
X1977728D01*
X1967655Y0207277D02*
X1978186D01*
X1980131Y0205151D02*
X1981328Y0204655D01*
X1980253Y0193040D02*
Y0205100D01*
X1978678Y0191647D02*
Y0206493D01*
X1979103Y0205939D02*
X1980131Y0205151D01*
X1996001Y0193655D02*
Y0204486D01*
X1994426Y0193655D02*
Y0204486D01*
X1982613Y0193655D02*
X2004266D01*
X1983403D02*
Y0204486D01*
X1992852Y0193655D02*
Y0204486D01*
X1981328Y0193485D02*
X1982613Y0193655D01*
X1980131Y0192990D02*
X1981328Y0193485D01*
X1979103Y0192201D02*
X1980131Y0192990D01*
X1978314Y0191173D02*
X1979103Y0192201D01*
X1977818Y0189976D02*
X1978314Y0191173D01*
X1970198Y0199403D02*
X2005842D01*
X1969391Y0200977D02*
X2006750D01*
X1969494Y0196253D02*
X2006391D01*
X1970225Y0197828D02*
X2005748D01*
X1951477Y0193103D02*
X1980406D01*
X1953295Y0191529D02*
X1978587D01*
X1977649Y0188691D02*
X1977818Y0189976D01*
X1954067Y0189954D02*
X1977815D01*
X1954233Y0183655D02*
X1977649D01*
X1971575Y0209147D02*
X1971961Y0209443D01*
X1971209Y0208826D02*
X1971575Y0209147D01*
X1970564Y0208395D02*
X1971209Y0208826D01*
X1970127Y0208179D02*
X1970564Y0208395D01*
X1969706Y0207936D02*
X1970127Y0208179D01*
X1969230Y0201152D02*
Y0207739D01*
X1968989Y0207639D02*
X1969706Y0207936D01*
X1968519Y0207513D02*
X1968989Y0207639D01*
X1968058Y0207357D02*
X1968519Y0207513D01*
X1967655Y0202097D02*
Y0207277D01*
X1963824Y0207357D02*
X1964585Y0207206D01*
X1963364Y0207513D02*
X1963824Y0207357D01*
X1953696Y0207277D02*
X1964227D01*
X1962177Y0207936D02*
X1962893Y0207639D01*
X1963364Y0207513D01*
X1967297Y0207206D02*
X1968058Y0207357D01*
X1964585Y0207206D02*
X1965071Y0207174D01*
X1962930Y0199002D02*
Y0207629D01*
X1964505Y0201600D02*
Y0207221D01*
X1966812Y0207174D02*
X1967297Y0207206D01*
X1966329Y0207110D02*
X1966812Y0207174D01*
X1965553Y0207110D02*
X1966329D01*
X1965071Y0207174D02*
X1965553Y0207110D01*
X1966080Y0202214D02*
Y0207110D01*
X1954233Y0185229D02*
X1977649D01*
X1954233Y0186804D02*
X1977649D01*
X1954233Y0182080D02*
X1977649D01*
X1954233Y0188379D02*
X1977649D01*
X1954233Y0177355D02*
X1977649D01*
X1954233Y0175781D02*
X1977649D01*
X1954233Y0180505D02*
X1977649D01*
X1954233Y0178930D02*
X1977649D01*
X1999151Y0165140D02*
Y0170627D01*
X1997576Y0165678D02*
Y0170627D01*
X1994426Y0164444D02*
Y0170627D01*
X1996001Y0165497D02*
Y0170627D01*
X1991277Y0154285D02*
Y0170627D01*
X1989702Y0154285D02*
Y0170627D01*
X1992852Y0154285D02*
Y0170627D01*
X1986552Y0154285D02*
Y0170627D01*
X1988127Y0154285D02*
Y0170627D01*
X1981328Y0170796D02*
X1982613Y0170627D01*
X1980131Y0171292D02*
X1981328Y0170796D01*
X1982613Y0170627D02*
X2004266D01*
X1979103Y0172081D02*
X1980131Y0171292D01*
X1951182Y0171056D02*
X1980701D01*
X1983403Y0154285D02*
Y0170627D01*
X1984978Y0154285D02*
Y0170627D01*
X1980253Y0153670D02*
Y0171242D01*
X1981828Y0154181D02*
Y0170731D01*
X2000484Y0163697D02*
X2004700D01*
X1999663Y0164757D02*
X2011803D01*
X1998258Y0158458D02*
X2005843D01*
X2000330Y0160033D02*
X2004268D01*
X1994426Y0154285D02*
Y0159556D01*
X1999151Y0154285D02*
Y0158860D01*
X1982613Y0154285D02*
X2004266D01*
X1982613Y0131257D02*
X2004266D01*
X1996001Y0154285D02*
Y0158503D01*
X1997576Y0154285D02*
Y0158322D01*
X1981328Y0154115D02*
X1982613Y0154285D01*
X1980131Y0153620D02*
X1981328Y0154115D01*
X1980131Y0131922D02*
X1981328Y0131426D01*
X1951476Y0153733D02*
X1980406D01*
X1951182Y0131686D02*
X1980701D01*
X1969877Y0125387D02*
X2009003D01*
X1969941Y0123812D02*
X2009003D01*
X1981328Y0131426D02*
X1982613Y0131257D01*
X1969016Y0126962D02*
X2009003D01*
X1978314Y0173109D02*
X1979103Y0172081D01*
X1977818Y0174306D02*
X1978314Y0173109D01*
X1979103Y0152831D02*
X1980131Y0153620D01*
X1977649Y0175591D02*
Y0188691D01*
Y0175591D02*
X1977818Y0174306D01*
X1978678Y0152277D02*
Y0172634D01*
X1978314Y0151803D02*
X1979103Y0152831D01*
X1977818Y0150605D02*
X1978314Y0151803D01*
X1977649Y0149321D02*
X1977818Y0150605D01*
X1977649Y0136221D02*
Y0149321D01*
X1954023Y0174206D02*
X1977860D01*
X1953201Y0172631D02*
X1978681D01*
X1953295Y0152159D02*
X1978587D01*
X1966080Y0128144D02*
Y0194894D01*
X1954067Y0150584D02*
X1977815D01*
X1969230Y0126708D02*
Y0195955D01*
X1967655Y0127893D02*
Y0195010D01*
X1962930Y0125974D02*
Y0198106D01*
X1964505Y0127685D02*
Y0195508D01*
X1977818Y0134936D02*
X1978314Y0133739D01*
X1977649Y0136221D02*
X1977818Y0134936D01*
X1978314Y0133739D02*
X1979103Y0132711D01*
X1954233Y0144285D02*
X1977649D01*
X1954233Y0142710D02*
X1977649D01*
X1979103Y0132711D02*
X1980131Y0131922D01*
X1954233Y0141135D02*
X1977649D01*
X1954233Y0145859D02*
X1977649D01*
X1954233Y0139560D02*
X1977649D01*
X1954233Y0149009D02*
X1977649D01*
X1954233Y0147434D02*
X1977649D01*
X1954023Y0134836D02*
X1977860D01*
X1953202Y0133261D02*
X1978681D01*
X1954233Y0137985D02*
X1977649D01*
X1954233Y0136411D02*
X1977649D01*
X1961755Y0257138D02*
X1962177Y0257381D01*
X1961356Y0256941D02*
Y0268929D01*
X1961319Y0256922D02*
X1961755Y0257138D01*
X1960674Y0256491D02*
X1961319Y0256922D01*
X1960308Y0256171D02*
X1960674Y0256491D01*
X1959922Y0255874D02*
X1960308Y0256171D01*
X1959781Y0255733D02*
Y0268929D01*
X1959373Y0255326D02*
X1959922Y0255874D01*
X1959077Y0254940D02*
X1959373Y0255326D01*
X1958756Y0254574D02*
X1959077Y0254940D01*
X1958325Y0253929D02*
X1958756Y0254574D01*
X1954202Y0256095D02*
X1960210D01*
X1954233Y0254521D02*
X1958721D01*
X1958206Y0253687D02*
Y0268929D01*
X1958110Y0253492D02*
X1958325Y0253929D01*
X1957866Y0253071D02*
X1958110Y0253492D01*
X1957570Y0252354D02*
X1957866Y0253071D01*
X1954233Y0252946D02*
X1957815D01*
X1957444Y0251884D02*
X1957570Y0252354D01*
X1957444Y0246729D02*
X1957570Y0246258D01*
X1957287Y0251423D02*
X1957444Y0251884D01*
X1957570Y0246258D02*
X1957866Y0245542D01*
X1957136Y0247950D02*
X1957287Y0247190D01*
X1957444Y0246729D01*
X1958756Y0244039D02*
X1959077Y0243673D01*
X1958325Y0244684D02*
X1958756Y0244039D01*
X1959077Y0243673D02*
X1959373Y0243287D01*
X1957866Y0245542D02*
X1958110Y0245120D01*
X1958325Y0244684D01*
X1957136Y0250662D02*
X1957287Y0251423D01*
X1954233Y0251371D02*
X1957277D01*
X1957104Y0250177D02*
X1957136Y0250662D01*
X1957040Y0249694D02*
X1957104Y0250177D01*
X1954233Y0248221D02*
X1957118D01*
X1954233Y0245072D02*
X1958134D01*
X1954233Y0243497D02*
X1959212D01*
X1957104Y0248436D02*
X1957136Y0247950D01*
X1954233Y0246647D02*
X1957466D01*
X1944033Y0260820D02*
Y0268929D01*
X1942458Y0260820D02*
Y0268929D01*
X1945608Y0260820D02*
Y0268929D01*
X1939308Y0260820D02*
Y0268929D01*
X1940883Y0260820D02*
Y0268929D01*
X1951907Y0260036D02*
Y0268929D01*
X1950332Y0260680D02*
Y0268929D01*
X1953482Y0258451D02*
Y0268929D01*
X1947182Y0260820D02*
Y0268929D01*
X1948757Y0260820D02*
Y0268929D01*
X1936159Y0260820D02*
Y0268929D01*
X1934584Y0260820D02*
Y0268929D01*
X1937734Y0260820D02*
Y0268929D01*
X1931434Y0260820D02*
Y0268929D01*
X1933009Y0260820D02*
Y0268929D01*
X1926710Y0260701D02*
Y0268929D01*
X1928285Y0260820D02*
Y0268929D01*
X1923560Y0258655D02*
Y0268929D01*
X1925135Y0260155D02*
Y0268929D01*
X1953568Y0258338D02*
X1954064Y0257141D01*
X1952780Y0259366D02*
X1953568Y0258338D01*
X1954064Y0257141D02*
X1954233Y0255856D01*
X1950554Y0260651D02*
X1951752Y0260155D01*
X1952780Y0259366D01*
X1957040Y0249306D02*
Y0249694D01*
X1954233Y0249796D02*
X1957054D01*
X1957040Y0248919D02*
X1957104Y0248436D01*
X1954233Y0242756D02*
Y0255856D01*
X1957040Y0248919D02*
Y0249306D01*
X1949270Y0260820D02*
X1950554Y0260651D01*
X1927616Y0260820D02*
X1949270D01*
X1927615Y0260820D02*
X1949270D01*
X1929860Y0260820D02*
Y0268929D01*
X1926331Y0260651D02*
X1927616Y0260820D01*
X1925134Y0260155D02*
X1926331Y0260651D01*
X1924106Y0259366D02*
X1925134Y0260155D01*
X1923317Y0258338D02*
X1924106Y0259366D01*
X1922821Y0257141D02*
X1923317Y0258338D01*
X1960674Y0242121D02*
X1961319Y0241690D01*
X1960308Y0242442D02*
X1960674Y0242121D01*
X1961319Y0241690D02*
X1961755Y0241475D01*
X1959373Y0243287D02*
X1959922Y0242738D01*
X1960308Y0242442D01*
X1961755Y0241475D02*
X1962177Y0241231D01*
X1961755Y0223842D02*
X1962177Y0224086D01*
X1961319Y0223627D02*
X1961755Y0223842D01*
X1959781Y0222438D02*
Y0242879D01*
X1961356Y0223645D02*
Y0241672D01*
X1954124Y0241922D02*
X1960971D01*
X1954064Y0241472D02*
X1954233Y0242756D01*
X1953568Y0240274D02*
X1954064Y0241472D01*
X1952780Y0239246D02*
X1953568Y0240274D01*
X1951752Y0238458D02*
X1952780Y0239246D01*
X1958206Y0220392D02*
Y0244925D01*
X1953568Y0225031D02*
X1954064Y0223834D01*
X1953482Y0225144D02*
Y0240161D01*
X1952780Y0226059D02*
X1953568Y0225031D01*
X1960674Y0223196D02*
X1961319Y0223627D01*
X1960308Y0222875D02*
X1960674Y0223196D01*
X1959922Y0222579D02*
X1960308Y0222875D01*
X1959373Y0222030D02*
X1959922Y0222579D01*
X1959077Y0221644D02*
X1959373Y0222030D01*
X1958756Y0221278D02*
X1959077Y0221644D01*
X1958325Y0220633D02*
X1958756Y0221278D01*
X1958110Y0220197D02*
X1958325Y0220633D01*
X1957866Y0219775D02*
X1958110Y0220197D01*
X1957570Y0219059D02*
X1957866Y0219775D01*
X1954233Y0221450D02*
X1958907D01*
X1954171Y0223025D02*
X1960478D01*
X1954233Y0219875D02*
X1957924D01*
X1954064Y0223834D02*
X1954233Y0222549D01*
X1957444Y0218588D02*
X1957570Y0219059D01*
X1957287Y0218128D02*
X1957444Y0218588D01*
X1954233Y0218300D02*
X1957346D01*
X1954233Y0209449D02*
Y0222549D01*
X1957136Y0217367D02*
X1957287Y0218128D01*
X1950554Y0237962D02*
X1951752Y0238458D01*
X1949270Y0237793D02*
X1950554Y0237962D01*
X1927616Y0237793D02*
X1949270D01*
X1944033Y0227513D02*
Y0237793D01*
X1948757Y0227513D02*
Y0237793D01*
X1951907Y0226729D02*
Y0238577D01*
X1950332Y0227373D02*
Y0237932D01*
X1942458Y0227513D02*
Y0237793D01*
X1939308Y0227513D02*
Y0237793D01*
X1940883Y0227513D02*
Y0237793D01*
X1924106Y0239246D02*
X1925134Y0238458D01*
X1923317Y0240274D02*
X1924106Y0239246D01*
X1925134Y0238458D02*
X1926331Y0237962D01*
X1922652Y0242756D02*
X1922821Y0241472D01*
X1923317Y0240274D01*
X1926331Y0237962D02*
X1927616Y0237793D01*
X1926710Y0227394D02*
Y0237912D01*
X1923560Y0225348D02*
Y0239958D01*
X1925135Y0226848D02*
Y0238457D01*
X1937734Y0227513D02*
Y0237793D01*
X1936159Y0227513D02*
Y0237793D01*
X1945608Y0227513D02*
Y0237793D01*
X1933009Y0227513D02*
Y0237793D01*
X1934584Y0227513D02*
Y0237793D01*
X1950554Y0227344D02*
X1951752Y0226848D01*
X1952780Y0226059D01*
X1947182Y0227513D02*
Y0237793D01*
X1949270Y0227513D02*
X1950554Y0227344D01*
X1931434Y0227513D02*
Y0237793D01*
X1929860Y0227513D02*
Y0237793D01*
X1927616Y0227513D02*
X1949270D01*
X1928285D02*
Y0237793D01*
X1926331Y0227344D02*
X1927616Y0227513D01*
X1925134Y0226848D02*
X1926331Y0227344D01*
X1924106Y0226059D02*
X1925134Y0226848D01*
X1923317Y0225031D02*
X1924106Y0226059D01*
X1922821Y0223834D02*
X1923317Y0225031D01*
X1901513Y0260820D02*
Y0268929D01*
X1899938Y0260820D02*
Y0268929D01*
X1903088Y0260820D02*
Y0268929D01*
X1895214Y0260820D02*
Y0268929D01*
X1896789Y0260820D02*
Y0268929D01*
X1907812Y0259429D02*
Y0268929D01*
X1906238Y0260415D02*
Y0268929D01*
X1904384Y0260820D02*
X1905669Y0260651D01*
X1898364Y0260820D02*
Y0268929D01*
X1904663Y0260783D02*
Y0268929D01*
X1892064Y0260820D02*
Y0268929D01*
X1890490Y0260820D02*
Y0268929D01*
X1893639Y0260820D02*
Y0268929D01*
X1887340Y0260820D02*
Y0268929D01*
X1888915Y0260820D02*
Y0268929D01*
X1884190Y0260820D02*
Y0268929D01*
X1885765Y0260820D02*
Y0268929D01*
X1882616Y0260805D02*
Y0268929D01*
X1881446Y0260651D02*
X1882731Y0260820D01*
X1922652Y0255856D02*
X1922821Y0257141D01*
X1909317Y0256095D02*
X1922684D01*
X1909348Y0252946D02*
X1922652D01*
X1909179Y0257141D02*
X1909348Y0255856D01*
Y0254521D02*
X1922652D01*
X1909348Y0246647D02*
X1922652D01*
X1909348Y0248221D02*
X1922652D01*
X1909348Y0245072D02*
X1922652D01*
X1909348Y0251371D02*
X1922652D01*
X1909348Y0249796D02*
X1922652D01*
X1905669Y0260651D02*
X1906866Y0260155D01*
X1904385Y0260820D02*
X1927615D01*
X1906866Y0260155D02*
X1907894Y0259366D01*
X1882731Y0260820D02*
X1904384D01*
X1882730Y0260820D02*
X1904385D01*
X1907987Y0259245D02*
X1924013D01*
X1908960Y0257670D02*
X1923041D01*
X1907894Y0259366D02*
X1908683Y0258338D01*
X1909179Y0257141D01*
X1881041Y0260483D02*
Y0268929D01*
X1880249Y0260155D02*
X1881446Y0260651D01*
X1879221Y0259366D02*
X1880249Y0260155D01*
X1879466Y0259554D02*
Y0268929D01*
X1878432Y0258338D02*
X1879221Y0259366D01*
X1877936Y0257141D02*
X1878432Y0258338D01*
X1877891Y0256798D02*
Y0268929D01*
X1877767Y0255856D02*
X1877936Y0257141D01*
X1874742Y0251334D02*
Y0268929D01*
X1874724Y0251423D02*
X1874875Y0250662D01*
X1873686Y0253929D02*
X1873901Y0253492D01*
X1873290Y0254521D02*
X1877767D01*
X1873901Y0253492D02*
X1874145Y0253071D01*
X1873167Y0254674D02*
Y0268929D01*
X1873255Y0254574D02*
X1873686Y0253929D01*
X1874196Y0252946D02*
X1877767D01*
X1874567Y0251884D02*
X1874724Y0251423D01*
X1874145Y0253071D02*
X1874441Y0252354D01*
X1874567Y0251884D01*
X1874957Y0249796D02*
X1877767D01*
X1874734Y0251371D02*
X1877767D01*
X1874970Y0249306D02*
Y0249694D01*
X1874875Y0250662D02*
X1874907Y0250177D01*
X1874970Y0249694D01*
Y0248919D02*
Y0249306D01*
X1874893Y0248221D02*
X1877767D01*
X1874907Y0248436D02*
X1874970Y0248919D01*
X1874875Y0247950D02*
X1874907Y0248436D01*
X1874724Y0247189D02*
X1874875Y0247950D01*
X1874567Y0246729D02*
X1874724Y0247189D01*
X1874545Y0246647D02*
X1877767D01*
X1874441Y0246258D02*
X1874567Y0246729D01*
X1874145Y0245542D02*
X1874441Y0246258D01*
X1873901Y0245120D02*
X1874145Y0245542D01*
X1873877Y0245072D02*
X1877767D01*
X1873686Y0244684D02*
X1873901Y0245120D01*
X1873255Y0244039D02*
X1873686Y0244684D01*
X1922652Y0242756D02*
Y0255856D01*
X1909348Y0243497D02*
X1922652D01*
X1909238Y0241922D02*
X1922762D01*
X1909348Y0242756D02*
Y0255856D01*
X1909179Y0241472D02*
X1909348Y0242756D01*
X1908714Y0240347D02*
X1923287D01*
X1908683Y0240274D02*
X1909179Y0241472D01*
X1907277Y0238773D02*
X1924724D01*
X1907894Y0239246D02*
X1908683Y0240274D01*
X1907812Y0226122D02*
Y0239183D01*
X1906866Y0238458D02*
X1907894Y0239246D01*
X1905669Y0237962D02*
X1906866Y0238458D01*
X1904384Y0237793D02*
X1905669Y0237962D01*
X1895214Y0227513D02*
Y0237793D01*
X1899938Y0227513D02*
Y0237793D01*
X1906238Y0227108D02*
Y0238197D01*
X1904663Y0227476D02*
Y0237829D01*
X1901513Y0227513D02*
Y0237793D01*
X1903088Y0227513D02*
Y0237793D01*
X1922652Y0222549D02*
X1922821Y0223834D01*
X1908862Y0224599D02*
X1923139D01*
X1909286Y0223025D02*
X1922715D01*
X1908683Y0225031D02*
X1909179Y0223834D01*
X1909348Y0222549D01*
Y0219875D02*
X1922652D01*
X1909348Y0221450D02*
X1922652D01*
X1909348Y0218300D02*
X1922652D01*
X1909348Y0209449D02*
Y0222549D01*
X1922652Y0209449D02*
Y0222549D01*
X1904384Y0227513D02*
X1905669Y0227344D01*
X1882731Y0237793D02*
X1904384D01*
X1882731Y0227513D02*
X1904384D01*
X1896789D02*
Y0237793D01*
X1898364Y0227513D02*
Y0237793D01*
X1907744Y0226174D02*
X1924256D01*
X1907894Y0226059D02*
X1908683Y0225031D01*
X1905669Y0227344D02*
X1906866Y0226848D01*
X1907894Y0226059D01*
X1890490Y0227513D02*
Y0237793D01*
X1888915Y0227513D02*
Y0237793D01*
X1893639Y0227513D02*
Y0237793D01*
X1880249Y0238458D02*
X1881446Y0237962D01*
X1882731Y0237793D01*
X1887340Y0227513D02*
Y0237793D01*
X1884190Y0227513D02*
Y0237793D01*
X1892064Y0227513D02*
Y0237793D01*
X1881041Y0227176D02*
Y0238130D01*
X1882616Y0227498D02*
Y0237808D01*
X1878432Y0240274D02*
X1879221Y0239246D01*
X1877936Y0241472D02*
X1878432Y0240274D01*
X1879221Y0239246D02*
X1880249Y0238458D01*
X1877767Y0242756D02*
Y0255856D01*
Y0242756D02*
X1877936Y0241472D01*
X1877891Y0223490D02*
Y0241815D01*
X1879466Y0226247D02*
Y0239058D01*
X1874742Y0217878D02*
Y0247279D01*
X1873167Y0221218D02*
Y0243938D01*
X1885765Y0227513D02*
Y0237793D01*
X1881446Y0227344D02*
X1882731Y0227513D01*
X1880249Y0226848D02*
X1881446Y0227344D01*
X1879221Y0226059D02*
X1880249Y0226848D01*
X1878432Y0225031D02*
X1879221Y0226059D01*
X1877936Y0223834D02*
X1878432Y0225031D01*
X1877767Y0222549D02*
X1877936Y0223834D01*
X1877767Y0209449D02*
Y0222549D01*
X1874724Y0217967D02*
X1874875Y0217206D01*
X1873901Y0220036D02*
X1874145Y0219614D01*
X1872964Y0221450D02*
X1877767D01*
X1873994Y0219875D02*
X1877767D01*
X1873255Y0221117D02*
X1873686Y0220473D01*
X1873901Y0220036D01*
X1874567Y0218428D02*
X1874724Y0217967D01*
X1874611Y0218300D02*
X1877767D01*
X1874145Y0219614D02*
X1874441Y0218898D01*
X1874567Y0218428D01*
X1957287Y0213894D02*
X1957444Y0213433D01*
X1957136Y0214655D02*
X1957287Y0213894D01*
X1957444Y0213433D02*
X1957570Y0212963D01*
X1957104Y0216881D02*
X1957136Y0217367D01*
X1957104Y0215140D02*
X1957136Y0214655D01*
X1958325Y0211388D02*
X1958756Y0210743D01*
X1958110Y0211825D02*
X1958325Y0211388D01*
X1958756Y0210743D02*
X1959077Y0210377D01*
X1957570Y0212963D02*
X1957866Y0212246D01*
X1958110Y0211825D01*
X1957040Y0216399D02*
X1957104Y0216881D01*
X1954233Y0216725D02*
X1957084D01*
X1954233Y0215151D02*
X1957103D01*
X1957040Y0216011D02*
Y0216399D01*
Y0215623D02*
Y0216011D01*
X1954233Y0212001D02*
X1958008D01*
X1954233Y0210426D02*
X1959034D01*
X1957040Y0215623D02*
X1957104Y0215140D01*
X1954233Y0213576D02*
X1957395D01*
X1960308Y0209146D02*
X1960674Y0208826D01*
X1959922Y0209443D02*
X1960308Y0209146D01*
X1954155Y0208852D02*
X1960644D01*
X1959077Y0210377D02*
X1959373Y0209991D01*
X1959922Y0209443D01*
X1961319Y0208395D02*
X1961755Y0208179D01*
X1960674Y0208826D02*
X1961319Y0208395D01*
X1961755Y0208179D02*
X1962177Y0207936D01*
X1954064Y0208165D02*
X1954233Y0209449D01*
X1954064Y0189976D02*
X1954233Y0188691D01*
X1953568Y0206967D02*
X1954064Y0208165D01*
X1952780Y0205939D02*
X1953568Y0206967D01*
X1951752Y0205151D02*
X1952780Y0205939D01*
X1951907Y0192870D02*
Y0205270D01*
X1950554Y0193485D02*
X1951752Y0192990D01*
X1952780Y0192201D02*
X1953568Y0191173D01*
X1954064Y0189976D01*
X1953482Y0191286D02*
Y0206854D01*
X1951752Y0192990D02*
X1952780Y0192201D01*
X1950554Y0204655D02*
X1951752Y0205151D01*
X1949270Y0204486D02*
X1950554Y0204655D01*
X1944033Y0193655D02*
Y0204486D01*
X1925134Y0205151D02*
X1926331Y0204655D01*
X1927616Y0204486D01*
X1950332Y0193515D02*
Y0204625D01*
X1942458Y0193655D02*
Y0204486D01*
X1939308Y0193655D02*
Y0204486D01*
X1925135Y0192990D02*
Y0205150D01*
X1926710Y0193535D02*
Y0204605D01*
X1909348Y0210426D02*
X1922652D01*
X1909348Y0212001D02*
X1922652D01*
Y0209449D02*
X1922821Y0208165D01*
X1909348Y0215151D02*
X1922652D01*
X1909348Y0213576D02*
X1922652D01*
X1923317Y0206967D02*
X1924106Y0205939D01*
X1925134Y0205151D01*
X1922821Y0208165D02*
X1923317Y0206967D01*
X1923560Y0191489D02*
Y0206651D01*
X1936159Y0193655D02*
Y0204486D01*
X1934584Y0193655D02*
Y0204486D01*
X1937734Y0193655D02*
Y0204486D01*
X1931434Y0193655D02*
Y0204486D01*
X1933009Y0193655D02*
Y0204486D01*
X1948757Y0193655D02*
Y0204486D01*
X1947182Y0193655D02*
Y0204486D01*
X1949270Y0193655D02*
X1950554Y0193485D01*
X1940883Y0193655D02*
Y0204486D01*
X1945608Y0193655D02*
Y0204486D01*
X1929860Y0193655D02*
Y0204486D01*
X1927616D02*
X1949270D01*
X1927616Y0193655D02*
X1949270D01*
X1928285D02*
Y0204486D01*
X1926331Y0193485D02*
X1927616Y0193655D01*
X1925134Y0192990D02*
X1926331Y0193485D01*
X1924106Y0192201D02*
X1925134Y0192990D01*
X1923317Y0191173D02*
X1924106Y0192201D01*
X1922821Y0189976D02*
X1923317Y0191173D01*
X1954233Y0175591D02*
Y0188691D01*
X1954064Y0174306D02*
X1954233Y0175591D01*
X1953568Y0173109D02*
X1954064Y0174306D01*
X1952780Y0172081D02*
X1953568Y0173109D01*
X1951752Y0171292D02*
X1952780Y0172081D01*
X1953482Y0151916D02*
Y0172996D01*
X1951907Y0153500D02*
Y0171411D01*
X1950554Y0170796D02*
X1951752Y0171292D01*
X1949270Y0170627D02*
X1950554Y0170796D01*
X1950332Y0154145D02*
Y0170767D01*
X1936159Y0154285D02*
Y0170627D01*
X1934584Y0154285D02*
Y0170627D01*
X1927616D02*
X1949270D01*
X1931434Y0154285D02*
Y0170627D01*
X1933009Y0154285D02*
Y0170627D01*
X1945608Y0154285D02*
Y0170627D01*
X1948757Y0154285D02*
Y0170627D01*
X1937734Y0154285D02*
Y0170627D01*
X1939308Y0154285D02*
Y0170627D01*
X1953568Y0151803D02*
X1954064Y0150605D01*
X1952780Y0152831D02*
X1953568Y0151803D01*
X1954064Y0150605D02*
X1954233Y0149321D01*
X1950554Y0154115D02*
X1951752Y0153620D01*
X1952780Y0152831D01*
X1954233Y0136221D02*
Y0149321D01*
X1954064Y0134936D02*
X1954233Y0136221D01*
X1953568Y0133739D02*
X1954064Y0134936D01*
X1952780Y0132711D02*
X1953568Y0133739D01*
X1951752Y0131922D02*
X1952780Y0132711D01*
X1947182Y0154285D02*
Y0170627D01*
X1944033Y0154285D02*
Y0170627D01*
X1927616Y0154285D02*
X1949270D01*
X1940883D02*
Y0170627D01*
X1942458Y0154285D02*
Y0170627D01*
X1949270Y0154285D02*
X1950554Y0154115D01*
Y0131426D02*
X1951752Y0131922D01*
X1949270Y0131257D02*
X1950554Y0131426D01*
X1927616Y0131257D02*
X1949270D01*
X1928285Y0154285D02*
Y0170627D01*
X1926331Y0170796D02*
X1927616Y0170627D01*
X1929860Y0154285D02*
Y0170627D01*
X1924106Y0172081D02*
X1925134Y0171292D01*
X1926331Y0170796D01*
X1926710Y0154165D02*
Y0170747D01*
X1926331Y0154115D02*
X1927616Y0154285D01*
X1925134Y0153620D02*
X1926331Y0154115D01*
X1925135Y0153620D02*
Y0171292D01*
X1924106Y0152831D02*
X1925134Y0153620D01*
X1922652Y0188691D02*
X1922821Y0189976D01*
X1909348Y0177355D02*
X1922652D01*
Y0175591D02*
X1922821Y0174306D01*
X1909348Y0175591D02*
Y0188691D01*
X1922652Y0175591D02*
Y0188691D01*
X1923317Y0173109D02*
X1924106Y0172081D01*
X1923317Y0151803D02*
X1924106Y0152831D01*
X1922821Y0174306D02*
X1923317Y0173109D01*
X1923560Y0152119D02*
Y0172792D01*
X1922821Y0150605D02*
X1923317Y0151803D01*
X1922652Y0149321D02*
X1922821Y0150605D01*
Y0134936D02*
X1923317Y0133739D01*
X1922652Y0136221D02*
Y0149321D01*
Y0136221D02*
X1922821Y0134936D01*
X1925134Y0131922D02*
X1926331Y0131426D01*
X1927616Y0131257D01*
X1923317Y0133739D02*
X1924106Y0132711D01*
X1925134Y0131922D01*
X1909348Y0144285D02*
X1922652D01*
X1909348Y0145859D02*
X1922652D01*
X1909348Y0142710D02*
X1922652D01*
X1909348Y0149009D02*
X1922652D01*
X1909348Y0147434D02*
X1922652D01*
X1909348Y0137985D02*
X1922652D01*
X1909348Y0136411D02*
X1922652D01*
X1909348Y0141135D02*
X1922652D01*
X1909348Y0139560D02*
X1922652D01*
X1909348Y0216725D02*
X1922652D01*
X1909270Y0208852D02*
X1922731D01*
X1908811Y0207277D02*
X1923189D01*
X1909179Y0208165D02*
X1909348Y0209449D01*
X1908683Y0206967D02*
X1909179Y0208165D01*
X1907894Y0205939D02*
X1908683Y0206967D01*
X1906866Y0205151D02*
X1907894Y0205939D01*
X1907585Y0205702D02*
X1924416D01*
X1907812Y0192264D02*
Y0205876D01*
X1906238Y0193250D02*
Y0204890D01*
X1905669Y0204655D02*
X1906866Y0205151D01*
X1904384Y0204486D02*
X1905669Y0204655D01*
X1896789Y0193655D02*
Y0204486D01*
X1890490Y0193655D02*
Y0204486D01*
X1895214Y0193655D02*
Y0204486D01*
X1904663Y0193618D02*
Y0204522D01*
X1893639Y0193655D02*
Y0204486D01*
X1888915Y0193655D02*
Y0204486D01*
X1892064Y0193655D02*
Y0204486D01*
X1908683Y0191173D02*
X1909179Y0189976D01*
X1908410Y0191529D02*
X1923590D01*
X1909182Y0189954D02*
X1922819D01*
X1906866Y0192990D02*
X1907894Y0192201D01*
X1908683Y0191173D01*
X1909348Y0185229D02*
X1922652D01*
X1909348Y0186804D02*
X1922652D01*
X1909348Y0183655D02*
X1922652D01*
X1909179Y0189976D02*
X1909348Y0188691D01*
Y0188379D02*
X1922652D01*
X1903088Y0193655D02*
Y0204486D01*
X1882731D02*
X1904384D01*
X1882731Y0193655D02*
X1904384D01*
X1899938D02*
Y0204486D01*
X1901513Y0193655D02*
Y0204486D01*
X1905669Y0193485D02*
X1906866Y0192990D01*
X1906591Y0193103D02*
X1925409D01*
X1898364Y0193655D02*
Y0204486D01*
X1904384Y0193655D02*
X1905669Y0193485D01*
X1874907Y0216720D02*
X1874970Y0216238D01*
X1874907Y0216725D02*
X1877767D01*
X1874970Y0215462D02*
Y0215850D01*
X1874875Y0217206D02*
X1874907Y0216720D01*
X1874970Y0215850D02*
Y0216238D01*
X1874929Y0215151D02*
X1877767D01*
X1874907Y0214980D02*
X1874970Y0215462D01*
X1877767Y0209449D02*
X1877936Y0208165D01*
X1874875Y0214494D02*
X1874907Y0214980D01*
X1874724Y0213733D02*
X1874875Y0214494D01*
X1874670Y0213576D02*
X1877767D01*
X1874567Y0213272D02*
X1874724Y0213733D01*
X1874096Y0212001D02*
X1877767D01*
X1874441Y0212802D02*
X1874567Y0213272D01*
X1874145Y0212086D02*
X1874441Y0212802D01*
X1873901Y0211664D02*
X1874145Y0212086D01*
X1873118Y0210426D02*
X1877767D01*
X1873686Y0211227D02*
X1873901Y0211664D01*
X1873255Y0210583D02*
X1873686Y0211227D01*
X1885765Y0193655D02*
Y0204486D01*
X1884190Y0193655D02*
Y0204486D01*
X1887340Y0193655D02*
Y0204486D01*
X1880249Y0205151D02*
X1881446Y0204655D01*
X1882731Y0204486D01*
X1882616Y0193639D02*
Y0204501D01*
X1881446Y0193485D02*
X1882731Y0193655D01*
X1881041Y0193317D02*
Y0204823D01*
X1880249Y0192990D02*
X1881446Y0193485D01*
X1879466Y0192389D02*
Y0205751D01*
X1879221Y0205939D02*
X1880249Y0205151D01*
X1879221Y0192201D02*
X1880249Y0192990D01*
X1877936Y0208165D02*
X1878432Y0206967D01*
X1879221Y0205939D01*
X1878432Y0191173D02*
X1879221Y0192201D01*
X1877936Y0189976D02*
X1878432Y0191173D01*
X1877891Y0189632D02*
Y0208508D01*
X1877767Y0188691D02*
X1877936Y0189976D01*
X1909348Y0180505D02*
X1922652D01*
X1909348Y0182080D02*
X1922652D01*
X1909348Y0178930D02*
X1922652D01*
X1909348Y0175781D02*
X1922652D01*
X1909179Y0174306D02*
X1909348Y0175591D01*
X1909138Y0174206D02*
X1922863D01*
X1908683Y0173109D02*
X1909179Y0174306D01*
X1908316Y0172631D02*
X1923684D01*
X1907894Y0172081D02*
X1908683Y0173109D01*
X1907812Y0152894D02*
Y0172018D01*
X1906866Y0171292D02*
X1907894Y0172081D01*
X1905669Y0170796D02*
X1906866Y0171292D01*
X1906297Y0171056D02*
X1925704D01*
X1904384Y0170627D02*
X1905669Y0170796D01*
X1882731Y0170627D02*
X1904384D01*
X1906238Y0153880D02*
Y0171032D01*
X1904384Y0154285D02*
X1905669Y0154115D01*
X1904663Y0154248D02*
Y0170664D01*
X1882731Y0154285D02*
X1904384D01*
X1909179Y0150605D02*
X1909348Y0149321D01*
X1908410Y0152159D02*
X1923590D01*
X1909182Y0150584D02*
X1922819D01*
X1907894Y0152831D02*
X1908683Y0151803D01*
X1909179Y0150605D01*
X1909348Y0136221D02*
Y0149321D01*
X1909138Y0134836D02*
X1922863D01*
X1908316Y0133261D02*
X1923684D01*
X1909179Y0134936D02*
X1909348Y0136221D01*
X1908683Y0133739D02*
X1909179Y0134936D01*
X1906866Y0153620D02*
X1907894Y0152831D01*
X1906591Y0153733D02*
X1925409D01*
X1907894Y0132711D02*
X1908683Y0133739D01*
X1905669Y0154115D02*
X1906866Y0153620D01*
Y0131922D02*
X1907894Y0132711D01*
X1905669Y0131426D02*
X1906866Y0131922D01*
X1906297Y0131686D02*
X1925704D01*
X1904384Y0131257D02*
X1905669Y0131426D01*
X1882731Y0131257D02*
X1904384D01*
X1901513Y0154285D02*
Y0170627D01*
X1895214Y0154285D02*
Y0170627D01*
X1903088Y0154285D02*
Y0170627D01*
X1881446Y0170796D02*
X1882731Y0170627D01*
X1893639Y0154285D02*
Y0170627D01*
X1890490Y0154285D02*
Y0170627D01*
X1885765Y0154285D02*
Y0170627D01*
X1892064Y0154285D02*
Y0170627D01*
X1882616Y0154269D02*
Y0170642D01*
X1884190Y0154285D02*
Y0170627D01*
X1878432Y0173109D02*
X1879221Y0172081D01*
X1877936Y0174306D02*
X1878432Y0173109D01*
X1879221Y0172081D02*
X1880249Y0171292D01*
X1877767Y0175591D02*
Y0188691D01*
Y0175591D02*
X1877936Y0174306D01*
X1880249Y0171292D02*
X1881446Y0170796D01*
X1881041Y0153947D02*
Y0170964D01*
X1877891Y0150262D02*
Y0174650D01*
X1879466Y0153019D02*
Y0171893D01*
X1898364Y0154285D02*
Y0170627D01*
X1896789Y0154285D02*
Y0170627D01*
X1899938Y0154285D02*
Y0170627D01*
X1887340Y0154285D02*
Y0170627D01*
X1888915Y0154285D02*
Y0170627D01*
X1881446Y0154115D02*
X1882731Y0154285D01*
X1881446Y0131426D02*
X1882731Y0131257D01*
X1880249Y0153620D02*
X1881446Y0154115D01*
X1880249Y0131922D02*
X1881446Y0131426D01*
X1879221Y0152831D02*
X1880249Y0153620D01*
X1878432Y0151803D02*
X1879221Y0152831D01*
X1877936Y0150605D02*
X1878432Y0151803D01*
X1877767Y0149321D02*
X1877936Y0150605D01*
X1877767Y0136221D02*
Y0149321D01*
X1878432Y0133739D02*
X1879221Y0132711D01*
X1880249Y0131922D01*
X1877767Y0136221D02*
X1877936Y0134936D01*
X1878432Y0133739D01*
X2147659Y0112789D02*
X2152820D01*
X2145543Y0111214D02*
X2152837D01*
X2147090Y0109639D02*
X2152853D01*
X2145607Y0111179D02*
Y0112502D01*
X2144032Y0111643D02*
Y0112281D01*
X2147495Y0108064D02*
X2152869D01*
X2147182Y0109447D02*
Y0112722D01*
X2147195Y0106490D02*
X2152886D01*
X2142458Y0111398D02*
Y0112060D01*
X2140883Y0110224D02*
Y0111840D01*
X2136410Y0111214D02*
X2142057D01*
X2125161Y0109639D02*
X2140510D01*
X2113913Y0108064D02*
X2140105D01*
X2139308Y0100028D02*
Y0111620D01*
X2145905Y0104915D02*
X2152902D01*
X2142458Y0100028D02*
Y0104509D01*
X2141832Y0100028D02*
X2143801D01*
X2140883D02*
Y0105683D01*
X2139864Y0100028D02*
X2140705D01*
X2144032Y0098956D02*
Y0104264D01*
X2143801Y0098956D02*
Y0100028D01*
Y0098956D02*
X2144141D01*
X2140705Y0100028D02*
X2141832D01*
X2140705D02*
X2141832D01*
X2130295Y0103340D02*
X2152918D01*
X2129889Y0101765D02*
X2152935D01*
X2128337Y0100190D02*
X2152951D01*
X2128709Y0106490D02*
X2140405D01*
X2129996Y0104915D02*
X2141695D01*
X2138736Y0100028D02*
X2139864D01*
X2138736D02*
X2139864D01*
X2136768D02*
X2137895D01*
X2138736D01*
X2129859Y0105198D02*
Y0110297D01*
X2128284Y0106744D02*
Y0110076D01*
X2126710Y0107149D02*
Y0109856D01*
X2125135Y0106848D02*
Y0109635D01*
X2137733Y0100028D02*
Y0111399D01*
X2136158Y0100028D02*
Y0111179D01*
X2134584Y0098956D02*
Y0110958D01*
X2133009Y0098956D02*
Y0110738D01*
X2131434Y0098956D02*
Y0110517D01*
X2123560Y0105557D02*
Y0109415D01*
X2112536Y0106769D02*
Y0107871D01*
X2110962Y0107150D02*
Y0107651D01*
X2109387Y0106826D02*
Y0107431D01*
X2107812Y0105486D02*
Y0107210D01*
X2114111Y0105285D02*
Y0108092D01*
X2114189Y0101765D02*
X2123311D01*
X2114296Y0104915D02*
X2123204D01*
X2114595Y0103340D02*
X2122905D01*
X2134799Y0100028D02*
X2136768D01*
X2134799Y0098956D02*
Y0100028D01*
X2136768D02*
X2137895D01*
X2129859Y0098956D02*
Y0101709D01*
X2113009Y0106490D02*
X2124491D01*
X2102664D02*
X2108791D01*
X2091416Y0104915D02*
X2107504D01*
X2080167Y0103340D02*
X2107205D01*
X2112637Y0100190D02*
X2124863D01*
X2068919Y0101765D02*
X2107611D01*
X2152813Y0113510D02*
X2152966Y0098765D01*
X2151906Y0097706D02*
Y0113383D01*
X2145607Y0098193D02*
Y0104728D01*
X2145344Y0098456D02*
X2146402Y0097398D01*
X2150332Y0096131D02*
Y0113163D01*
X2148757Y0094556D02*
Y0112942D01*
X2148235Y0094035D02*
X2152966Y0098765D01*
X2147182Y0095854D02*
Y0106461D01*
X2128284Y0098956D02*
Y0100163D01*
X2125135Y0098956D02*
Y0100059D01*
X2126710Y0098956D02*
Y0099758D01*
X2121985Y0098956D02*
Y0109194D01*
X2120410Y0098956D02*
Y0108974D01*
X2145160Y0098615D02*
X2152816D01*
X2123560Y0098956D02*
Y0101350D01*
X2146902Y0095854D02*
X2147974D01*
X2146676Y0097041D02*
X2151241D01*
X2147974Y0095466D02*
X2149666D01*
X2146902Y0095854D02*
Y0096194D01*
X2141981Y0094490D02*
X2142437D01*
X2147974Y0094035D02*
Y0095854D01*
X2142437Y0093886D02*
Y0094490D01*
X2141981Y0093891D02*
X2142437D01*
Y0092758D02*
Y0093886D01*
Y0092758D02*
Y0093886D01*
X2137895Y0094490D02*
X2138587D01*
X2136768D02*
X2137895D01*
X2136363Y0093891D02*
X2138587D01*
X2136363Y0094490D02*
X2136768D01*
X2137895D01*
X2138587Y0088217D02*
Y0094490D01*
X2141981Y0088217D02*
Y0094490D01*
X2136363Y0092558D02*
Y0094490D01*
X2137733Y0088217D02*
Y0094490D01*
X2103088Y0098956D02*
Y0106549D01*
X2101513Y0098956D02*
Y0106328D01*
X2099938Y0098956D02*
Y0106108D01*
X2098363Y0098956D02*
Y0105887D01*
X2096788Y0098956D02*
Y0105667D01*
X2118836Y0098956D02*
Y0108753D01*
X2117261Y0098956D02*
Y0108533D01*
X2115686Y0098956D02*
Y0108312D01*
X2106237Y0098956D02*
Y0106990D01*
X2104662Y0098956D02*
Y0106769D01*
X2088914Y0098956D02*
Y0104564D01*
X2087340Y0098956D02*
Y0104344D01*
X2085765Y0098956D02*
Y0104123D01*
X2084190Y0098956D02*
Y0103903D01*
X2082615Y0098956D02*
Y0103683D01*
X2095214Y0098956D02*
Y0105446D01*
X2093639Y0098956D02*
Y0105226D01*
X2092064Y0098956D02*
Y0105005D01*
X2090489Y0098956D02*
Y0104785D01*
X2081040Y0098956D02*
Y0103462D01*
X2079466Y0098956D02*
Y0103242D01*
X2107812Y0098956D02*
Y0101421D01*
X2077891Y0098956D02*
Y0103021D01*
X2076316Y0098956D02*
Y0102801D01*
X2114111Y0098956D02*
Y0101622D01*
X2112536Y0098956D02*
Y0100139D01*
X2109387Y0098956D02*
Y0100081D01*
X2110962Y0098956D02*
Y0099757D01*
X2068442Y0098956D02*
Y0101698D01*
X2066867Y0098956D02*
Y0101478D01*
X2065292Y0098956D02*
Y0101257D01*
X2063718Y0098956D02*
Y0101037D01*
X2062143Y0098956D02*
Y0100816D01*
X2074741Y0098956D02*
Y0102580D01*
X2073166Y0098956D02*
Y0102360D01*
X2071592Y0098956D02*
Y0102139D01*
X2070017Y0098956D02*
Y0101919D01*
X2017097Y0119088D02*
X2018318D01*
X2017097Y0120663D02*
X2018318D01*
X2006684Y0119088D02*
X2009003D01*
X2007025Y0118875D02*
Y0132134D01*
X2006820Y0119031D02*
X2007848Y0118243D01*
X2018318Y0101598D02*
Y0268929D01*
X2017097Y0099703D02*
Y0216800D01*
X2009003Y0116331D02*
Y0134797D01*
X2008600Y0117263D02*
Y0133822D01*
X2007848Y0118243D02*
X2008637Y0117215D01*
X2003875Y0119696D02*
Y0131257D01*
X1969259Y0122237D02*
X2009003D01*
X1982685Y0119696D02*
X2004338D01*
X2000726D02*
Y0131257D01*
X2002300Y0119696D02*
Y0131257D01*
X2004338Y0119696D02*
X2005623Y0119527D01*
X2006820Y0119031D01*
X2005450Y0119550D02*
Y0131413D01*
X1999151Y0119696D02*
Y0131257D01*
X2017097Y0112789D02*
X2018318D01*
X2017097Y0114363D02*
X2018318D01*
X2017097Y0111214D02*
X2018318D01*
X2017097Y0117513D02*
X2018318D01*
X2017097Y0115938D02*
X2018318D01*
X2061796Y0100768D02*
X2152813Y0113510D01*
X2019540Y0100376D02*
X2056168D01*
X2017097Y0108064D02*
X2018318D01*
X2017097Y0109639D02*
X2018318D01*
X2017097Y0106490D02*
X2018318D01*
X2008408Y0117513D02*
X2009003D01*
X2008637Y0117215D02*
X2009003Y0116331D01*
X2017097Y0101765D02*
X2018318D01*
X2017097Y0100190D02*
X2109163D01*
X2017097Y0104915D02*
X2018318D01*
X2017097Y0103340D02*
X2018318D01*
X1988127Y0119696D02*
Y0131257D01*
X1986552Y0119696D02*
Y0131257D01*
X1989702Y0119696D02*
Y0131257D01*
X1983403Y0119696D02*
Y0131257D01*
X1984978Y0119696D02*
Y0131257D01*
X1996001Y0119696D02*
Y0131257D01*
X1994426Y0119696D02*
Y0131257D01*
X1997576Y0119696D02*
Y0131257D01*
X1991277Y0119696D02*
Y0131257D01*
X1992852Y0119696D02*
Y0131257D01*
X1981828Y0119584D02*
Y0131360D01*
X1981400Y0119527D02*
X1982685Y0119696D01*
X1980203Y0119031D02*
X1981400Y0119527D01*
X1980253Y0119052D02*
Y0131872D01*
X1951726Y0119088D02*
X1980339D01*
X1979175Y0118243D02*
X1980203Y0119031D01*
X1978386Y0117215D02*
X1979175Y0118243D01*
X1978678Y0117595D02*
Y0133264D01*
X1953450Y0117513D02*
X1978615D01*
X1977890Y0116017D02*
X1978386Y0117215D01*
X1977721Y0114733D02*
X1977890Y0116017D01*
X1974716Y0109639D02*
X1977721D01*
X1974779Y0109000D02*
X1974842Y0108517D01*
Y0108129D02*
Y0108517D01*
X1977721Y0101525D02*
Y0114733D01*
X1974842Y0108064D02*
X1977721D01*
Y0101525D02*
X1977890Y0100241D01*
X1974842Y0107741D02*
Y0108129D01*
X1974779Y0107259D02*
X1974842Y0107741D01*
X1972294Y0114363D02*
X1977721D01*
X1970172Y0115938D02*
X1977880D01*
X1973533Y0112789D02*
X1977721D01*
X1974298Y0111214D02*
X1977721D01*
X1974690Y0106490D02*
X1977721D01*
X1972165Y0101765D02*
X1977721D01*
X1969941Y0100190D02*
X1977911D01*
X1974244Y0104915D02*
X1977721D01*
X1973446Y0103340D02*
X1977721D01*
X2051119Y0098956D02*
Y0100376D01*
X2049544Y0098956D02*
Y0100376D01*
X2052694Y0098956D02*
Y0100376D01*
X2046395Y0098956D02*
Y0100376D01*
X2047970Y0098956D02*
Y0100376D01*
X2060568Y0098956D02*
Y0100615D01*
X2058993Y0098956D02*
Y0100474D01*
X2057418Y0098956D02*
Y0100395D01*
X2054269Y0098956D02*
Y0100376D01*
X2055844Y0098956D02*
Y0100376D01*
X2036946Y0098956D02*
Y0100376D01*
X2035371Y0098956D02*
Y0100376D01*
X2038521Y0098956D02*
Y0100376D01*
X2018048Y0098956D02*
Y0268929D01*
X2033796Y0098956D02*
Y0100376D01*
X2043245Y0098956D02*
Y0100376D01*
X2044820Y0098956D02*
Y0100376D01*
X2040096Y0098956D02*
Y0100376D01*
X2041670Y0098956D02*
Y0100376D01*
X2024348Y0098956D02*
Y0100376D01*
X2022773Y0098956D02*
Y0100376D01*
X2017844Y0098956D02*
X2134799D01*
X2019623D02*
Y0100376D01*
X2021198Y0098956D02*
Y0100376D01*
X2030647Y0098956D02*
Y0100376D01*
X2029072Y0098956D02*
Y0100376D01*
X2032222Y0098956D02*
Y0100376D01*
X2025922Y0098956D02*
Y0100376D01*
X2027497Y0098956D02*
Y0100376D01*
X2017097Y0099703D02*
X2017844Y0098956D01*
X2006371Y0097041D02*
X2009868D01*
X2009003Y0098609D02*
Y0099927D01*
X2009503Y0097406D02*
X2014843Y0092066D01*
X2000778Y0093891D02*
X2013018D01*
X2010174Y0092066D02*
Y0096735D01*
X2011749Y0092066D02*
Y0095160D01*
X2008637Y0099044D02*
X2009003Y0099927D01*
X2007848Y0098016D02*
X2008637Y0099044D01*
X2008308Y0098615D02*
X2009003D01*
X2006820Y0097227D02*
X2007848Y0098016D01*
X2005623Y0096731D02*
X2006820Y0097227D01*
X2008600Y0092066D02*
Y0098995D01*
X2007025Y0092066D02*
Y0097384D01*
X2004338Y0096562D02*
X2005623Y0096731D01*
X1980253Y0087997D02*
Y0097206D01*
X1981400Y0096731D02*
X1982685Y0096562D01*
X1979175Y0098016D02*
X1980203Y0097227D01*
X1978386Y0099044D02*
X1979175Y0098016D01*
X1951413Y0097041D02*
X1980652D01*
X1977890Y0100241D02*
X1978386Y0099044D01*
X1953350Y0098615D02*
X1978715D01*
X1978678Y0087997D02*
Y0098663D01*
X1980203Y0097227D02*
X1981400Y0096731D01*
X1975529Y0087997D02*
Y0268929D01*
X1977104Y0087997D02*
Y0268929D01*
X2002300Y0093111D02*
Y0096562D01*
X2000726Y0093903D02*
Y0096562D01*
X2003875Y0092066D02*
Y0096562D01*
X1997576Y0093175D02*
Y0096562D01*
X1999151Y0093920D02*
Y0096562D01*
X2005450Y0092066D02*
Y0096708D01*
X1994426Y0087997D02*
Y0096562D01*
X1996001Y0087997D02*
Y0096562D01*
X1992852Y0087997D02*
Y0096562D01*
X1991277Y0087997D02*
Y0096562D01*
X1982685D02*
X2004338D01*
X1988127Y0087997D02*
Y0096562D01*
X1989702Y0087997D02*
Y0096562D01*
X1984978Y0087997D02*
Y0096562D01*
X1986552Y0087997D02*
Y0096562D01*
X1981828Y0087997D02*
Y0096675D01*
X1983403Y0087997D02*
Y0096562D01*
X2153045Y0091118D02*
X2153056Y0090098D01*
X2153042Y0091442D02*
X2153045Y0091118D01*
X2152341Y0090741D02*
X2153049D01*
X2142437Y0091917D02*
Y0092758D01*
Y0090790D02*
Y0091917D01*
X2151697Y0090098D02*
X2153056D01*
X2151697D02*
X2153004Y0091404D01*
X2153091Y0086704D02*
X2153112Y0084694D01*
X2150332Y0084731D02*
Y0086704D01*
X2151906Y0084710D02*
Y0086704D01*
X2142437Y0089949D02*
Y0090790D01*
X2141981Y0090741D02*
X2142437D01*
X2141981Y0089167D02*
X2142437D01*
X2141981Y0092316D02*
X2142437D01*
Y0090790D02*
Y0091917D01*
Y0088217D02*
Y0088821D01*
X2141981Y0088217D02*
X2142437D01*
Y0088821D02*
Y0089949D01*
Y0088821D02*
Y0089949D01*
X2148783Y0086017D02*
X2153098D01*
X2148093Y0086704D02*
X2153091D01*
X2150065Y0084735D02*
X2153112Y0084694D01*
X2148757Y0086043D02*
Y0086704D01*
X2148155Y0086645D02*
X2150065Y0084735D01*
X2149332Y0081350D02*
X2153147Y0081300D01*
X2153147Y0079785D02*
Y0081273D01*
X2146249Y0083751D02*
X2148150Y0081850D01*
X2143801Y0082867D02*
X2147133D01*
X2143801Y0083751D02*
X2146249D01*
X2141832Y0082679D02*
X2143801D01*
Y0083751D01*
X2140705Y0082679D02*
X2141832D01*
X2129120Y0081293D02*
X2153147D01*
X2130782Y0079718D02*
X2153163D01*
X2139864Y0082679D02*
X2140705D01*
X2141832D01*
X2136163Y0090790D02*
Y0091917D01*
Y0092316D02*
X2138587D01*
X2136163Y0090741D02*
X2138587D01*
X2136163Y0090790D02*
Y0091917D01*
Y0089949D02*
Y0090790D01*
X2136768Y0088217D02*
X2137895D01*
X2136768D02*
X2137895D01*
X2138587D01*
X2136163Y0088821D02*
Y0089949D01*
Y0088821D02*
Y0089949D01*
Y0089167D02*
X2138587D01*
X2136163Y0091917D02*
Y0092558D01*
Y0088217D02*
X2136768D01*
X2136163D02*
Y0088821D01*
X2134089Y0086853D02*
X2134799D01*
Y0086143D02*
Y0086853D01*
X2109387Y0082958D02*
Y0086704D01*
X2110962Y0082973D02*
Y0086704D01*
X2138736Y0082679D02*
X2139864D01*
X2137895D02*
X2138736D01*
X2139864D01*
X2136768D02*
X2137895D01*
X2134799D02*
X2136768D01*
X2134799D02*
Y0084753D01*
X2136768Y0082679D02*
X2137895D01*
X2128284Y0081573D02*
Y0086704D01*
X2129859Y0080827D02*
Y0086704D01*
X2126710Y0081558D02*
Y0086704D01*
X2111359Y0082867D02*
X2134799D01*
X2113358Y0081293D02*
X2125947D01*
X2107812Y0082167D02*
Y0086704D01*
X2112536Y0082227D02*
Y0086704D01*
X2125135Y0080767D02*
Y0086704D01*
X2113889Y0079718D02*
X2124285D01*
X2084190Y0079607D02*
Y0086704D01*
X2085765Y0079387D02*
Y0086704D01*
X2145607Y0077471D02*
Y0083751D01*
X2144032Y0078473D02*
Y0083751D01*
X2140883Y0078052D02*
Y0082679D01*
X2142458Y0078624D02*
Y0082679D01*
X2151906Y0070127D02*
Y0081316D01*
X2150332Y0070347D02*
Y0081337D01*
X2153163Y0079785D02*
X2153265Y0069937D01*
X2147182Y0070788D02*
Y0082818D01*
X2148757Y0070568D02*
Y0081458D01*
X2133009Y0072773D02*
Y0086704D01*
X2131434Y0072993D02*
Y0086704D01*
X2139308Y0075828D02*
Y0082679D01*
X2137733Y0072111D02*
Y0082679D01*
X2134584Y0072552D02*
Y0086853D01*
X2136158Y0072332D02*
Y0082679D01*
X2146597Y0074993D02*
X2153212D01*
X2146226Y0076568D02*
X2153196D01*
X2146263Y0073419D02*
X2153229D01*
X2144769Y0078143D02*
X2153180D01*
X2144899Y0071844D02*
X2153245D01*
X2143494Y0071305D02*
X2153265Y0069937D01*
X2150891Y0070269D02*
X2153261D01*
X2145607Y0071009D02*
Y0072436D01*
X2131225Y0078143D02*
X2141031D01*
X2130961Y0076568D02*
X2139574D01*
X2129748Y0074993D02*
X2139203D01*
X2128394Y0073419D02*
X2139537D01*
X2111279Y0075815D02*
X2141327Y0071608D01*
X2139643Y0071844D02*
X2140901D01*
X2129859Y0073213D02*
Y0075080D01*
X2139308Y0071891D02*
Y0074079D01*
X2114111Y0075418D02*
Y0086704D01*
X2106237Y0076521D02*
Y0086704D01*
X2115686Y0075198D02*
Y0086704D01*
X2103088Y0076961D02*
Y0086704D01*
X2104662Y0076741D02*
Y0086704D01*
X2121985Y0074316D02*
Y0086704D01*
X2120410Y0074536D02*
Y0086704D01*
X2123560Y0074095D02*
Y0086704D01*
X2117261Y0074977D02*
Y0086704D01*
X2118836Y0074757D02*
Y0086704D01*
X2092064Y0078505D02*
Y0086704D01*
X2090489Y0078725D02*
Y0086704D01*
X2093639Y0078284D02*
Y0086704D01*
X2087340Y0079166D02*
Y0086704D01*
X2088914Y0078946D02*
Y0086704D01*
X2098363Y0077623D02*
Y0086704D01*
X2099938Y0077403D02*
Y0086704D01*
X2095214Y0078064D02*
Y0086704D01*
X2096788Y0077843D02*
Y0086704D01*
X2117145Y0074993D02*
X2125319D01*
X2113704Y0078143D02*
X2123841D01*
X2112641Y0076568D02*
X2124106D01*
X2128284Y0073434D02*
Y0074334D01*
X2125135Y0073875D02*
Y0075140D01*
X2126710Y0073655D02*
Y0074350D01*
X2101513Y0077182D02*
Y0086704D01*
X2094648Y0078143D02*
X2106717D01*
X2105897Y0076568D02*
X2107780D01*
X2112536Y0075639D02*
Y0076480D01*
X2070017Y0081591D02*
Y0086704D01*
X2068442Y0081812D02*
Y0086704D01*
X2071592Y0081371D02*
Y0086704D01*
X2065292Y0082253D02*
Y0086704D01*
X2066867Y0082032D02*
Y0086704D01*
X2077891Y0080489D02*
Y0086704D01*
X2076316Y0080710D02*
Y0086704D01*
X2079466Y0080269D02*
Y0086704D01*
X2073166Y0081151D02*
Y0086704D01*
X2074741Y0080930D02*
Y0086704D01*
X2057418Y0083115D02*
Y0086704D01*
X2044820Y0083135D02*
Y0086704D01*
X2015557D02*
X2133394D01*
X2040096Y0083135D02*
Y0086704D01*
X2041670Y0083135D02*
Y0086704D01*
X2062143Y0082694D02*
Y0086704D01*
X2063718Y0082473D02*
Y0086704D01*
X2058993Y0083036D02*
Y0086704D01*
X2060568Y0082895D02*
Y0086704D01*
X2054269Y0083135D02*
Y0086704D01*
X2052694Y0083135D02*
Y0086704D01*
X2055844Y0083135D02*
Y0086704D01*
X2046395Y0083135D02*
Y0086704D01*
X2051119Y0083135D02*
Y0086704D01*
X2060816Y0082867D02*
X2109062D01*
X2072151Y0081293D02*
X2107063D01*
X2047970Y0083135D02*
Y0086704D01*
X2049544Y0083135D02*
Y0086704D01*
X2043245Y0083135D02*
Y0086704D01*
X2014870Y0086017D02*
X2134749D01*
X2008742Y0084442D02*
X2134799D01*
X2036946Y0083135D02*
Y0086704D01*
X2038521Y0083135D02*
Y0086704D01*
X2035371Y0083135D02*
Y0086704D01*
X2019540Y0083135D02*
X2056163D01*
X2032222D02*
Y0086704D01*
X2033796Y0083135D02*
Y0086704D01*
X2013324Y0092066D02*
Y0093585D01*
X2012050Y0087997D02*
X2012726Y0088673D01*
X2013956Y0085103D02*
X2015557Y0086704D01*
X2010174Y0087997D02*
Y0088673D01*
X2011749Y0087997D02*
Y0088673D01*
X2029072Y0083135D02*
Y0086704D01*
X2027497Y0083135D02*
Y0086704D01*
X2030647Y0083135D02*
Y0086704D01*
X2019623Y0083135D02*
Y0086704D01*
X2025922Y0083135D02*
Y0086704D01*
X2003148Y0092066D02*
X2014843D01*
X2002999Y0092316D02*
X2014593D01*
X2003219Y0088673D02*
X2012726D01*
X2005450Y0087997D02*
Y0088673D01*
X2007025Y0087997D02*
Y0088673D01*
X2008600Y0087997D02*
Y0088673D01*
X2002792Y0087997D02*
X2012050D01*
X2003875D02*
Y0088673D01*
X2022773Y0083135D02*
Y0086704D01*
X2021198Y0083135D02*
Y0086704D01*
X2024348Y0083135D02*
Y0086704D01*
X2009216Y0082867D02*
X2018778D01*
X2009302Y0081293D02*
X2018318D01*
X2008675Y0084603D02*
X2009133Y0083498D01*
X1953717Y0084603D02*
X1978348D01*
X2008675D02*
X2012753D01*
X1977890Y0083498D02*
X1978348Y0084603D01*
X1953783Y0084442D02*
X1978282D01*
X1977721Y0082213D02*
X1977890Y0083498D01*
X2009133D02*
X2009302Y0082213D01*
X1970748Y0082867D02*
X1977807D01*
X1972587Y0081293D02*
X1977721D01*
X2082615Y0079828D02*
Y0086704D01*
X2061796Y0082742D02*
X2108211Y0076244D01*
X2083400Y0079718D02*
X2106532D01*
X2081040Y0080048D02*
Y0086704D01*
X2011749Y0055769D02*
Y0084603D01*
X2018048Y0055768D02*
Y0086704D01*
X2016474Y0055768D02*
Y0086704D01*
X2018318Y0055768D02*
Y0081913D01*
X2014899Y0055769D02*
Y0086046D01*
X2013324Y0055769D02*
Y0084702D01*
X2009302Y0074993D02*
X2018318D01*
X2009302Y0076568D02*
X2018318D01*
X2009302Y0073419D02*
X2018318D01*
X2009302Y0079718D02*
X2018318D01*
X2009302Y0078143D02*
X2018318D01*
X2009302Y0071844D02*
X2018318D01*
X2009302Y0070269D02*
X2018318D01*
X2010174Y0055769D02*
Y0084603D01*
X2009302Y0069006D02*
Y0082213D01*
X2009261Y0068694D02*
X2018318D01*
X2008884Y0067119D02*
X2018318D01*
X2007886Y0065545D02*
X2018318D01*
X2009133Y0067721D02*
X2009302Y0069006D01*
X2008637Y0066524D02*
X2009133Y0067721D01*
X2008600Y0055769D02*
Y0066475D01*
X2007848Y0065496D02*
X2008637Y0066524D01*
X2006820Y0064707D02*
X2007848Y0065496D01*
X2007025Y0055770D02*
Y0064864D01*
X2005623Y0064211D02*
X2006820Y0064707D01*
X1969561Y0062395D02*
X2018318D01*
X1967934Y0063970D02*
X2018318D01*
X1969993Y0060820D02*
X2018318D01*
X2004338Y0064042D02*
X2005623Y0064211D01*
X1982685Y0064042D02*
X2004338D01*
X1969718Y0059246D02*
X2018318D01*
X1968484Y0057671D02*
X2018318D01*
X2005450Y0055770D02*
Y0064188D01*
X2003875Y0055770D02*
Y0064042D01*
X1977721Y0069006D02*
Y0082213D01*
X1974842Y0074993D02*
X1977721D01*
Y0069006D02*
X1977890Y0067721D01*
X1974779Y0076245D02*
X1974842Y0075762D01*
Y0074987D02*
Y0075375D01*
X1978386Y0066524D02*
X1979175Y0065496D01*
X1977890Y0067721D02*
X1978386Y0066524D01*
X1978678Y0055774D02*
Y0066143D01*
X1975529Y0055774D02*
Y0084603D01*
X1977104Y0055774D02*
Y0084603D01*
X1974757Y0076568D02*
X1977721D01*
X1974627Y0073419D02*
X1977721D01*
X1974113Y0071844D02*
X1977721D01*
X1973695Y0079718D02*
X1977721D01*
X1974388Y0078143D02*
X1977721D01*
X1969271Y0067119D02*
X1978139D01*
X1952927Y0065545D02*
X1979138D01*
X1973235Y0070269D02*
X1977721D01*
X1971815Y0068694D02*
X1977762D01*
X1994426Y0055771D02*
Y0064042D01*
X1992852Y0055772D02*
Y0064042D01*
X1996001Y0055771D02*
Y0064042D01*
X1989702Y0055772D02*
Y0064042D01*
X1991277Y0055772D02*
Y0064042D01*
X2000726Y0055770D02*
Y0064042D01*
X2002300Y0055770D02*
Y0064042D01*
X1997576Y0055771D02*
Y0064042D01*
X1999151Y0055771D02*
Y0064042D01*
X1981400Y0064211D02*
X1982685Y0064042D01*
X1980203Y0064707D02*
X1981400Y0064211D01*
X1981828Y0055773D02*
Y0064155D01*
X1979175Y0065496D02*
X1980203Y0064707D01*
X1980253Y0055773D02*
Y0064686D01*
X1986552Y0055772D02*
Y0064042D01*
X1988127Y0055772D02*
Y0064042D01*
X1983403Y0055773D02*
Y0064042D01*
X1984978Y0055773D02*
Y0064042D01*
X1967655Y0116863D02*
Y0121014D01*
X1966812Y0116966D02*
X1967297Y0116935D01*
X1968058Y0116783D01*
X1966080Y0117030D02*
Y0120763D01*
X1966329Y0117030D02*
X1966812Y0116966D01*
X1973954Y0112001D02*
Y0212139D01*
X1972379Y0114279D02*
Y0209861D01*
X1970804Y0115585D02*
Y0208556D01*
X1969230Y0116401D02*
Y0122199D01*
X1968058Y0116783D02*
X1968519Y0116627D01*
X1965553Y0117030D02*
X1966329D01*
X1965071Y0116966D02*
X1965553Y0117030D01*
X1964585Y0116935D02*
X1965071Y0116966D01*
X1964505Y0116919D02*
Y0121222D01*
X1963824Y0116783D02*
X1964585Y0116935D01*
X1962930Y0116511D02*
Y0122933D01*
X1963363Y0116627D02*
X1963824Y0116783D01*
X1973557Y0112752D02*
X1973773Y0112315D01*
X1973126Y0113397D02*
X1973557Y0112752D01*
X1973773Y0112315D02*
X1974016Y0111893D01*
X1972509Y0114149D02*
X1972805Y0113762D01*
X1973126Y0113397D01*
X1974595Y0110246D02*
X1974747Y0109485D01*
X1974439Y0110707D02*
X1974595Y0110246D01*
X1974747Y0109485D02*
X1974779Y0109000D01*
X1974016Y0111893D02*
X1974313Y0111177D01*
X1974439Y0110707D01*
X1969706Y0116204D02*
X1970127Y0115961D01*
X1968989Y0116501D02*
X1969706Y0116204D01*
X1970127Y0115961D02*
X1970564Y0115745D01*
X1968519Y0116627D02*
X1968989Y0116501D01*
X1962893D02*
X1963363Y0116627D01*
X1971575Y0114993D02*
X1971961Y0114697D01*
X1972509Y0114149D01*
X1970564Y0115745D02*
X1971209Y0115314D01*
X1971575Y0114993D01*
X1962177Y0116204D02*
X1962893Y0116501D01*
X1961755Y0115961D02*
X1962177Y0116204D01*
X1961319Y0115745D02*
X1961755Y0115961D01*
X1961356Y0115763D02*
Y0208377D01*
X1954185Y0115938D02*
X1961710D01*
X1960674Y0115314D02*
X1961319Y0115745D01*
X1959781Y0114556D02*
Y0209584D01*
X1960308Y0114993D02*
X1960674Y0115314D01*
X1958206Y0112510D02*
Y0211630D01*
X1954175Y0116017D02*
X1954344Y0114733D01*
X1951907Y0118997D02*
Y0132041D01*
X1949380Y0119696D02*
X1950665Y0119527D01*
X1951862Y0119031D01*
X1950332Y0119571D02*
Y0131397D01*
X1948757Y0119696D02*
Y0131257D01*
X1952890Y0118243D02*
X1953679Y0117215D01*
X1954175Y0116017D01*
X1953482Y0117472D02*
Y0133626D01*
X1951862Y0119031D02*
X1952890Y0118243D01*
X1959922Y0114697D02*
X1960308Y0114993D01*
X1959373Y0114149D02*
X1959922Y0114697D01*
X1959077Y0113762D02*
X1959373Y0114149D01*
X1958756Y0113397D02*
X1959077Y0113762D01*
X1958325Y0112752D02*
X1958756Y0113397D01*
X1958110Y0112315D02*
X1958325Y0112752D01*
X1957866Y0111893D02*
X1958110Y0112315D01*
X1957570Y0111177D02*
X1957866Y0111893D01*
X1957444Y0110707D02*
X1957570Y0111177D01*
X1957287Y0110246D02*
X1957444Y0110707D01*
X1954344Y0112789D02*
X1958350D01*
X1954344Y0114363D02*
X1959588D01*
X1954344Y0111214D02*
X1957585D01*
X1957136Y0109485D02*
X1957287Y0110246D01*
X1954344Y0109639D02*
X1957166D01*
X1957104Y0109000D02*
X1957136Y0109485D01*
X1957040Y0108517D02*
X1957104Y0109000D01*
X1957040Y0108129D02*
Y0108517D01*
X1954344Y0108064D02*
X1957040D01*
X1974747Y0106773D02*
X1974779Y0107259D01*
X1974595Y0106012D02*
X1974747Y0106773D01*
X1974439Y0105551D02*
X1974595Y0106012D01*
X1974313Y0105081D02*
X1974439Y0105551D01*
X1974016Y0104365D02*
X1974313Y0105081D01*
X1973954Y0087997D02*
Y0104257D01*
X1973773Y0103943D02*
X1974016Y0104365D01*
X1973557Y0103507D02*
X1973773Y0103943D01*
X1973126Y0102862D02*
X1973557Y0103507D01*
X1972806Y0102496D02*
X1973126Y0102862D01*
X1972509Y0102110D02*
X1972806Y0102496D01*
X1971961Y0101561D02*
X1972509Y0102110D01*
X1971575Y0101265D02*
X1971961Y0101561D01*
X1971209Y0100944D02*
X1971575Y0101265D01*
X1970564Y0100513D02*
X1971209Y0100944D01*
X1972379Y0087997D02*
Y0101979D01*
X1970804Y0087997D02*
Y0100674D01*
X1970127Y0100298D02*
X1970564Y0100513D01*
X1969706Y0100054D02*
X1970127Y0100298D01*
X1968989Y0099757D02*
X1969706Y0100054D01*
X1968519Y0099632D02*
X1968989Y0099757D01*
X1968058Y0099475D02*
X1968519Y0099632D01*
X1967297Y0099324D02*
X1968058Y0099475D01*
X1966812Y0099292D02*
X1967297Y0099324D01*
X1969230Y0087997D02*
Y0099857D01*
X1967655Y0087997D02*
Y0099395D01*
X1966329Y0099228D02*
X1966812Y0099292D01*
X1966080Y0087997D02*
Y0099228D01*
X1965553D02*
X1966329D01*
X1963364Y0099632D02*
X1963824Y0099475D01*
X1962893Y0099757D02*
X1963364Y0099632D01*
X1963824Y0099475D02*
X1964585Y0099324D01*
X1961755Y0100298D02*
X1962177Y0100054D01*
X1962893Y0099757D01*
X1964585Y0099324D02*
X1965071Y0099292D01*
X1965553Y0099228D01*
X1962930Y0087997D02*
Y0099748D01*
X1964505Y0087997D02*
Y0099340D01*
X1957570Y0105081D02*
X1957866Y0104365D01*
X1957444Y0105551D02*
X1957570Y0105081D01*
X1957866Y0104365D02*
X1958110Y0103943D01*
X1957136Y0106773D02*
X1957287Y0106012D01*
X1957444Y0105551D01*
X1958756Y0102862D02*
X1959077Y0102496D01*
X1958325Y0103507D02*
X1958756Y0102862D01*
X1959077Y0102496D02*
X1959373Y0102110D01*
X1958110Y0103943D02*
X1958325Y0103507D01*
X1958206Y0087997D02*
Y0103748D01*
X1957104Y0107259D02*
X1957136Y0106773D01*
X1954344Y0106490D02*
X1957192D01*
X1954344Y0104915D02*
X1957639D01*
X1957040Y0107741D02*
Y0108129D01*
Y0107741D02*
X1957104Y0107259D01*
X1956631Y0087997D02*
Y0268929D01*
X1954344Y0103340D02*
X1958437D01*
X1955056Y0087997D02*
Y0268929D01*
X1954344Y0101525D02*
Y0114733D01*
X1960308Y0101265D02*
X1960674Y0100944D01*
X1959922Y0101561D02*
X1960308Y0101265D01*
X1960674Y0100944D02*
X1961319Y0100513D01*
X1959373Y0102110D02*
X1959922Y0101561D01*
X1954344Y0101765D02*
X1959718D01*
X1961319Y0100513D02*
X1961755Y0100298D01*
X1961356Y0087997D02*
Y0100495D01*
X1959781Y0087997D02*
Y0101702D01*
X1954175Y0100241D02*
X1954344Y0101525D01*
X1954154Y0100190D02*
X1961941D01*
X1953679Y0099044D02*
X1954175Y0100241D01*
X1952890Y0098016D02*
X1953679Y0099044D01*
X1951862Y0097227D02*
X1952890Y0098016D01*
X1950665Y0096731D02*
X1951862Y0097227D01*
X1953482Y0087997D02*
Y0098787D01*
X1951907Y0087997D02*
Y0097261D01*
X1949380Y0096562D02*
X1950665Y0096731D01*
X1950332Y0087997D02*
Y0096687D01*
X1937734Y0119696D02*
Y0131257D01*
X1936159Y0119696D02*
Y0131257D01*
X1939308Y0119696D02*
Y0131257D01*
X1933009Y0119696D02*
Y0131257D01*
X1934584Y0119696D02*
Y0131257D01*
X1945608Y0119696D02*
Y0131257D01*
X1944033Y0119696D02*
Y0131257D01*
X1947182Y0119696D02*
Y0131257D01*
X1940883Y0119696D02*
Y0131257D01*
X1942458Y0119696D02*
Y0131257D01*
X1929860Y0119696D02*
Y0131257D01*
X1928285Y0119696D02*
Y0131257D01*
X1931434Y0119696D02*
Y0131257D01*
X1906238Y0119322D02*
Y0131662D01*
X1926710Y0119563D02*
Y0131376D01*
X1923560Y0117387D02*
Y0133422D01*
X1925135Y0118947D02*
Y0131922D01*
X1909387Y0114984D02*
Y0268929D01*
X1907812Y0118361D02*
Y0132648D01*
X1927727Y0119696D02*
X1949380D01*
X1926442Y0119527D02*
X1927727Y0119696D01*
X1925245Y0119031D02*
X1926442Y0119527D01*
X1924217Y0118243D02*
X1925245Y0119031D01*
X1923428Y0117215D02*
X1924217Y0118243D01*
X1922932Y0116017D02*
X1923428Y0117215D01*
X1922763Y0114733D02*
X1922932Y0116017D01*
X1909420Y0112789D02*
X1922763D01*
X1909420Y0111214D02*
X1922763D01*
X1909420Y0109639D02*
X1922763D01*
X1907966Y0118243D02*
X1908755Y0117215D01*
X1906802Y0119088D02*
X1925381D01*
X1908526Y0117513D02*
X1923657D01*
X1905741Y0119527D02*
X1906938Y0119031D01*
X1907966Y0118243D01*
X1909262Y0115938D02*
X1922922D01*
X1909420Y0114363D02*
X1922763D01*
X1908755Y0117215D02*
X1909251Y0116017D01*
X1909420Y0114733D01*
X1893639Y0119696D02*
Y0131257D01*
X1892064Y0119696D02*
Y0131257D01*
X1895214Y0119696D02*
Y0131257D01*
X1888915Y0119696D02*
Y0131257D01*
X1890490Y0119696D02*
Y0131257D01*
X1904663Y0119669D02*
Y0131294D01*
X1903088Y0119696D02*
Y0131257D01*
X1901513Y0119696D02*
Y0131257D01*
X1898364Y0119696D02*
Y0131257D01*
X1899938Y0119696D02*
Y0131257D01*
X1885765Y0119696D02*
Y0131257D01*
X1884190Y0119696D02*
Y0131257D01*
X1887340Y0119696D02*
Y0131257D01*
X1881041Y0119330D02*
Y0131594D01*
X1882616Y0119672D02*
Y0131272D01*
X1877891Y0115127D02*
Y0135280D01*
X1879466Y0118375D02*
Y0132523D01*
X1874742Y0110157D02*
Y0213823D01*
X1873167Y0113497D02*
Y0210482D01*
X1896789Y0119696D02*
Y0131257D01*
X1882803Y0119696D02*
X1904457D01*
X1905741Y0119527D01*
X1881518D02*
X1882803Y0119696D01*
X1880321Y0119031D02*
X1881518Y0119527D01*
X1879293Y0118243D02*
X1880321Y0119031D01*
X1878504Y0117215D02*
X1879293Y0118243D01*
X1878008Y0116017D02*
X1878504Y0117215D01*
X1877839Y0114733D02*
X1878008Y0116017D01*
X1873901Y0112315D02*
X1874145Y0111893D01*
X1873661Y0112789D02*
X1877839D01*
X1874426Y0111214D02*
X1877839D01*
X1873255Y0113397D02*
X1873686Y0112752D01*
X1873901Y0112315D01*
X1874567Y0110707D02*
X1874724Y0110246D01*
X1874845Y0109639D02*
X1877839D01*
X1874145Y0111893D02*
X1874441Y0111177D01*
X1874567Y0110707D01*
X1922763Y0101525D02*
Y0114733D01*
X1921986Y0087997D02*
Y0268929D01*
X1922763Y0101525D02*
X1922932Y0100241D01*
X1918836Y0087997D02*
Y0268929D01*
X1920411Y0087997D02*
Y0268929D01*
X1915686Y0087997D02*
Y0268929D01*
X1914112Y0087997D02*
Y0268929D01*
X1917261Y0087997D02*
Y0268929D01*
X1910962Y0087997D02*
Y0268929D01*
X1912537Y0087997D02*
Y0268929D01*
X1909420Y0103340D02*
X1922763D01*
X1909420Y0104915D02*
X1922763D01*
X1909420Y0101765D02*
X1922763D01*
X1909420Y0108064D02*
X1922763D01*
X1909420Y0106490D02*
X1922763D01*
X1909420Y0101525D02*
Y0114733D01*
X1909251Y0100241D02*
X1909420Y0101525D01*
X1909387Y0101275D02*
Y0114984D01*
Y0087997D02*
Y0101275D01*
X1925245Y0097227D02*
X1926442Y0096731D01*
X1924217Y0098016D02*
X1925245Y0097227D01*
X1926442Y0096731D02*
X1927727Y0096562D01*
X1922932Y0100241D02*
X1923428Y0099044D01*
X1924217Y0098016D01*
X1928285Y0087997D02*
Y0096562D01*
X1926710Y0087997D02*
Y0096696D01*
X1929860Y0087997D02*
Y0096562D01*
X1923560Y0087997D02*
Y0098871D01*
X1925135Y0087997D02*
Y0097311D01*
X1909230Y0100190D02*
X1922953D01*
X1908755Y0099044D02*
X1909251Y0100241D01*
X1908427Y0098615D02*
X1923756D01*
X1907966Y0098016D02*
X1908755Y0099044D01*
X1906938Y0097227D02*
X1907966Y0098016D01*
X1907812Y0087997D02*
Y0097897D01*
X1906489Y0097041D02*
X1925694D01*
X1905741Y0096731D02*
X1906938Y0097227D01*
X1906238Y0087997D02*
Y0096937D01*
X1874970Y0108129D02*
Y0108517D01*
X1874907Y0109000D02*
X1874970Y0108517D01*
Y0108064D02*
X1877839D01*
X1874875Y0109485D02*
X1874907Y0109000D01*
X1874970Y0107741D02*
Y0108129D01*
X1877839Y0101525D02*
Y0114733D01*
X1876316Y0087997D02*
Y0268929D01*
X1874819Y0106490D02*
X1877839D01*
X1874907Y0107259D02*
X1874970Y0107741D01*
X1874875Y0106773D02*
X1874907Y0107259D01*
X1874724Y0106012D02*
X1874875Y0106773D01*
X1874724Y0110246D02*
X1874875Y0109485D01*
X1874372Y0104915D02*
X1877839D01*
X1874567Y0105551D02*
X1874724Y0106012D01*
X1874441Y0105081D02*
X1874567Y0105551D01*
X1874742Y0087997D02*
Y0106102D01*
X1874145Y0104365D02*
X1874441Y0105081D01*
X1873901Y0103943D02*
X1874145Y0104365D01*
X1873686Y0103507D02*
X1873901Y0103943D01*
X1904457Y0096562D02*
X1905741Y0096731D01*
X1881518D02*
X1882803Y0096562D01*
X1904457D01*
X1880321Y0097227D02*
X1881518Y0096731D01*
X1881041Y0087997D02*
Y0096929D01*
X1904663Y0087997D02*
Y0096589D01*
X1903088Y0087997D02*
Y0096562D01*
X1882616Y0087997D02*
Y0096587D01*
X1901513Y0087997D02*
Y0096562D01*
X1878008Y0100241D02*
X1878504Y0099044D01*
X1877839Y0101525D02*
X1878008Y0100241D01*
X1878504Y0099044D02*
X1879293Y0098016D01*
X1873255Y0102862D02*
X1873686Y0103507D01*
X1873574Y0103340D02*
X1877839D01*
X1879293Y0098016D02*
X1880321Y0097227D01*
X1879466Y0087997D02*
Y0097883D01*
X1873167Y0087997D02*
Y0102761D01*
X1877891Y0087997D02*
Y0101131D01*
X1969230Y0083647D02*
Y0084603D01*
X1968058Y0084029D02*
X1968519Y0083872D01*
X1968989Y0083746D01*
X1967655Y0084109D02*
Y0084603D01*
X1967297Y0084180D02*
X1968058Y0084029D01*
X1972379Y0081524D02*
Y0084603D01*
X1970804Y0082830D02*
Y0084603D01*
X1973954Y0079246D02*
Y0084603D01*
X1968989Y0083746D02*
X1969706Y0083449D01*
X1970127Y0083206D01*
X1966329Y0084275D02*
X1966812Y0084212D01*
X1965553Y0084275D02*
X1966329D01*
X1966812Y0084212D02*
X1967297Y0084180D01*
X1966080Y0084275D02*
Y0084603D01*
X1965071Y0084212D02*
X1965553Y0084275D01*
X1964585Y0084180D02*
X1965071Y0084212D01*
X1963824Y0084029D02*
X1964585Y0084180D01*
X1964505Y0084164D02*
Y0084603D01*
X1963363Y0083872D02*
X1963824Y0084029D01*
X1974439Y0077952D02*
X1974595Y0077491D01*
X1974313Y0078422D02*
X1974439Y0077952D01*
X1974595Y0077491D02*
X1974747Y0076731D01*
X1973773Y0079561D02*
X1974016Y0079139D01*
X1974313Y0078422D01*
X1974842Y0075375D02*
Y0075762D01*
X1974747Y0076731D02*
X1974779Y0076245D01*
Y0074504D02*
X1974842Y0074987D01*
X1974747Y0074018D02*
X1974779Y0074504D01*
X1974595Y0073258D02*
X1974747Y0074018D01*
X1971575Y0082239D02*
X1971961Y0081942D01*
X1971209Y0082560D02*
X1971575Y0082239D01*
X1971961Y0081942D02*
X1972509Y0081394D01*
X1970127Y0083206D02*
X1970564Y0082991D01*
X1971209Y0082560D01*
X1973126Y0080642D02*
X1973557Y0079997D01*
X1973773Y0079561D01*
X1972509Y0081394D02*
X1972805Y0081008D01*
X1973126Y0080642D01*
X1962930Y0083756D02*
Y0084603D01*
X1962893Y0083746D02*
X1963363Y0083872D01*
X1962177Y0083449D02*
X1962893Y0083746D01*
X1961356Y0083009D02*
Y0084603D01*
X1961755Y0083206D02*
X1962177Y0083449D01*
X1961319Y0082991D02*
X1961755Y0083206D01*
X1960674Y0082560D02*
X1961319Y0082991D01*
X1960308Y0082239D02*
X1960674Y0082560D01*
X1959781Y0081801D02*
Y0084603D01*
X1959922Y0081942D02*
X1960308Y0082239D01*
X1959373Y0081394D02*
X1959922Y0081942D01*
X1954258Y0082867D02*
X1961134D01*
X1954344Y0081293D02*
X1959295D01*
X1953717Y0084603D02*
X1954175Y0083498D01*
X1954344Y0082213D01*
X1959077Y0081008D02*
X1959373Y0081394D01*
X1958756Y0080642D02*
X1959077Y0081008D01*
X1958206Y0079756D02*
Y0084603D01*
X1958325Y0079997D02*
X1958756Y0080642D01*
X1958110Y0079561D02*
X1958325Y0079997D01*
X1957866Y0079139D02*
X1958110Y0079561D01*
X1957570Y0078422D02*
X1957866Y0079139D01*
X1957444Y0077952D02*
X1957570Y0078422D01*
X1957287Y0077491D02*
X1957444Y0077952D01*
X1957136Y0074018D02*
X1957287Y0073258D01*
X1957136Y0076731D02*
X1957287Y0077491D01*
Y0073258D02*
X1957444Y0072797D01*
X1957104Y0076245D02*
X1957136Y0076731D01*
X1957104Y0074504D02*
X1957136Y0074018D01*
X1954344Y0078143D02*
X1957495D01*
X1954344Y0079718D02*
X1958187D01*
X1954344Y0076568D02*
X1957125D01*
X1957040Y0075762D02*
X1957104Y0076245D01*
X1957040Y0075375D02*
Y0075762D01*
Y0074987D02*
X1957104Y0074504D01*
X1954344Y0073419D02*
X1957255D01*
X1957040Y0074987D02*
Y0075375D01*
X1954344Y0074993D02*
X1957040D01*
X1974439Y0072797D02*
X1974595Y0073258D01*
X1974313Y0072326D02*
X1974439Y0072797D01*
X1974016Y0071610D02*
X1974313Y0072326D01*
X1973773Y0071188D02*
X1974016Y0071610D01*
X1973557Y0070752D02*
X1973773Y0071188D01*
X1973954Y0055774D02*
Y0071503D01*
X1973126Y0070107D02*
X1973557Y0070752D01*
X1972806Y0069741D02*
X1973126Y0070107D01*
X1972509Y0069355D02*
X1972806Y0069741D01*
X1972379Y0055774D02*
Y0069225D01*
X1971961Y0068806D02*
X1972509Y0069355D01*
X1971575Y0068510D02*
X1971961Y0068806D01*
X1971209Y0068189D02*
X1971575Y0068510D01*
X1970564Y0067758D02*
X1971209Y0068189D01*
X1970127Y0067543D02*
X1970564Y0067758D01*
X1970804Y0055774D02*
Y0067919D01*
X1969706Y0067300D02*
X1970127Y0067543D01*
X1968989Y0067003D02*
X1969706Y0067300D01*
X1969230Y0062908D02*
Y0067102D01*
X1968519Y0066877D02*
X1968989Y0067003D01*
X1968058Y0066720D02*
X1968519Y0066877D01*
X1967297Y0066569D02*
X1968058Y0066720D01*
X1966812Y0066537D02*
X1967297Y0066569D01*
X1966329Y0066474D02*
X1966812Y0066537D01*
X1969230Y0055775D02*
Y0058399D01*
X1967655Y0064093D02*
Y0066640D01*
Y0055775D02*
Y0057214D01*
X1966080Y0064344D02*
Y0066474D01*
Y0055775D02*
Y0056963D01*
X1965553Y0066474D02*
X1966329D01*
X1965071Y0066537D02*
X1965553Y0066474D01*
X1963824Y0066720D02*
X1964585Y0066569D01*
X1965071Y0066537D01*
X1958756Y0070107D02*
X1959077Y0069741D01*
X1958325Y0070752D02*
X1958756Y0070107D01*
X1959077Y0069741D02*
X1959373Y0069355D01*
X1957866Y0071610D02*
X1958110Y0071188D01*
X1958325Y0070752D01*
X1959922Y0068806D02*
X1960308Y0068510D01*
X1959373Y0069355D02*
X1959922Y0068806D01*
X1960308Y0068510D02*
X1960674Y0068189D01*
X1958206Y0055776D02*
Y0070994D01*
X1959781Y0055776D02*
Y0068947D01*
X1957570Y0072326D02*
X1957866Y0071610D01*
X1954344Y0071844D02*
X1957770D01*
X1954344Y0070269D02*
X1958648D01*
X1954344Y0069006D02*
Y0082213D01*
X1957444Y0072797D02*
X1957570Y0072326D01*
X1956631Y0055776D02*
Y0084603D01*
X1954303Y0068694D02*
X1960068D01*
X1955056Y0055777D02*
Y0084603D01*
X1954175Y0067721D02*
X1954344Y0069006D01*
X1963364Y0066877D02*
X1963824Y0066720D01*
X1962893Y0067003D02*
X1963364Y0066877D01*
X1964505Y0063885D02*
Y0066585D01*
X1961755Y0067543D02*
X1962177Y0067300D01*
X1962893Y0067003D01*
X1962930Y0062174D02*
Y0066993D01*
X1964505Y0055775D02*
Y0057422D01*
X1961356Y0055776D02*
Y0067740D01*
X1962930Y0055776D02*
Y0059133D01*
X1961319Y0067758D02*
X1961755Y0067543D01*
X1960674Y0068189D02*
X1961319Y0067758D01*
X1953925Y0067119D02*
X1962612D01*
X1953679Y0066524D02*
X1954175Y0067721D01*
X1952890Y0065496D02*
X1953679Y0066524D01*
X1953482Y0055777D02*
Y0066267D01*
X1951862Y0064707D02*
X1952890Y0065496D01*
X1951907Y0055777D02*
Y0064741D01*
X1950665Y0064211D02*
X1951862Y0064707D01*
X1939308Y0087997D02*
Y0096562D01*
X1937734Y0087997D02*
Y0096562D01*
X1940883Y0087997D02*
Y0096562D01*
X1934584Y0087997D02*
Y0096562D01*
X1936159Y0087997D02*
Y0096562D01*
X1947182Y0087997D02*
Y0096562D01*
X1945608Y0087997D02*
Y0096562D01*
X1948757Y0087997D02*
Y0096562D01*
X1942458Y0087997D02*
Y0096562D01*
X1944033Y0087997D02*
Y0096562D01*
X1933009Y0087997D02*
Y0096562D01*
X1931434Y0087997D02*
Y0096562D01*
X1927727D02*
X1949380D01*
X1898364Y0087997D02*
Y0096562D01*
X1899938Y0087997D02*
Y0096562D01*
X1895214Y0087997D02*
Y0096562D01*
X1896789Y0087997D02*
Y0096562D01*
X1890490Y0087997D02*
Y0096562D01*
X1892064Y0087997D02*
Y0096562D01*
X1922932Y0083498D02*
X1923390Y0084603D01*
X1922763Y0082213D02*
X1922932Y0083498D01*
X1909420Y0081293D02*
X1922763D01*
X1909420Y0079718D02*
X1922763D01*
X1909420Y0076568D02*
X1922763D01*
X1909420Y0071844D02*
X1922763D01*
X1909420Y0073419D02*
X1922763D01*
X1909420Y0070269D02*
X1922763D01*
X1909420Y0069006D02*
Y0082213D01*
X1922763Y0069006D02*
Y0082213D01*
X1908860Y0084442D02*
X1923323D01*
X1908793Y0084603D02*
X1923390D01*
X1909334Y0082867D02*
X1922849D01*
X1893639Y0087997D02*
Y0096562D01*
X1908793Y0084603D02*
X1909251Y0083498D01*
X1909420Y0078143D02*
X1922763D01*
X1909420Y0074993D02*
X1922763D01*
X1909387Y0082464D02*
Y0084603D01*
X1909251Y0083498D02*
X1909420Y0082213D01*
X1887340Y0087997D02*
Y0096562D01*
X1885765Y0087997D02*
Y0096562D01*
X1888915Y0087997D02*
Y0096562D01*
X1884190Y0087997D02*
Y0096562D01*
X1878008Y0083498D02*
X1878466Y0084603D01*
X1877891Y0082608D02*
Y0084603D01*
X1877839Y0082213D02*
X1878008Y0083498D01*
X1877839Y0069006D02*
Y0082213D01*
X1874742Y0077474D02*
Y0084603D01*
X1874724Y0077563D02*
X1874875Y0076802D01*
X1873859Y0079718D02*
X1877839D01*
X1873686Y0080069D02*
X1873901Y0079632D01*
X1874145Y0079211D01*
X1873167Y0080814D02*
Y0084603D01*
X1873255Y0080714D02*
X1873686Y0080069D01*
X1874536Y0078143D02*
X1877839D01*
X1874567Y0078024D02*
X1874724Y0077563D01*
X1874145Y0079211D02*
X1874441Y0078494D01*
X1874567Y0078024D01*
X1874907Y0076317D02*
X1874970Y0075834D01*
X1874891Y0076568D02*
X1877839D01*
X1874970Y0075059D02*
Y0075446D01*
X1874875Y0076802D02*
X1874907Y0076317D01*
X1874970Y0075446D02*
Y0075834D01*
X1874962Y0074993D02*
X1877839D01*
X1874742Y0073419D02*
X1877839D01*
X1874907Y0074576D02*
X1874970Y0075059D01*
X1874875Y0074090D02*
X1874907Y0074576D01*
X1874724Y0073330D02*
X1874875Y0074090D01*
X1874567Y0072869D02*
X1874724Y0073330D01*
X1874212Y0071844D02*
X1877839D01*
X1874441Y0072398D02*
X1874567Y0072869D01*
X1874145Y0071682D02*
X1874441Y0072398D01*
X1873901Y0071260D02*
X1874145Y0071682D01*
X1873315Y0070269D02*
X1877839D01*
X1873686Y0070824D02*
X1873901Y0071260D01*
X1873255Y0070179D02*
X1873686Y0070824D01*
X1924217Y0065496D02*
X1925245Y0064707D01*
X1923428Y0066524D02*
X1924217Y0065496D01*
X1925245Y0064707D02*
X1926442Y0064211D01*
X1922763Y0069006D02*
X1922932Y0067721D01*
X1923428Y0066524D01*
X1923560Y0055781D02*
Y0066351D01*
X1921986Y0055781D02*
Y0084603D01*
X1925135Y0055781D02*
Y0064791D01*
X1918836Y0055782D02*
Y0084603D01*
X1920411Y0055781D02*
Y0084603D01*
X1909379Y0068694D02*
X1922804D01*
X1909002Y0067119D02*
X1923181D01*
X1908004Y0065545D02*
X1924179D01*
X1910962Y0055783D02*
Y0084603D01*
X1909251Y0067721D02*
X1909420Y0069006D01*
X1915686Y0055782D02*
Y0084603D01*
X1917261Y0055782D02*
Y0084603D01*
X1912537Y0055782D02*
Y0084603D01*
X1914112Y0055782D02*
Y0084603D01*
X1949380Y0064042D02*
X1950665Y0064211D01*
X1942458Y0055778D02*
Y0064042D01*
X1940883Y0055779D02*
Y0064042D01*
X1937734Y0055779D02*
Y0064042D01*
X1939308Y0055779D02*
Y0064042D01*
X1950332Y0055777D02*
Y0064167D01*
X1948757Y0055778D02*
Y0064042D01*
X1947182Y0055778D02*
Y0064042D01*
X1944033Y0055778D02*
Y0064042D01*
X1945608Y0055778D02*
Y0064042D01*
X1929860Y0055780D02*
Y0064042D01*
X1928285Y0055780D02*
Y0064042D01*
X1927727D02*
X1949380D01*
X1926442Y0064211D02*
X1927727Y0064042D01*
X1926710Y0055781D02*
Y0064176D01*
X1934584Y0055779D02*
Y0064042D01*
X1936159Y0055779D02*
Y0064042D01*
X1931434Y0055780D02*
Y0064042D01*
X1933009Y0055780D02*
Y0064042D01*
X1909387Y0068755D02*
Y0082464D01*
X1908755Y0066524D02*
X1909251Y0067721D01*
X1907966Y0065496D02*
X1908755Y0066524D01*
X1906938Y0064707D02*
X1907966Y0065496D01*
X1905741Y0064211D02*
X1906938Y0064707D01*
X1909387Y0055783D02*
Y0068755D01*
X1907812Y0055783D02*
Y0065378D01*
X1906238Y0055783D02*
Y0064417D01*
X1880321Y0064707D02*
X1881518Y0064211D01*
X1881041Y0055787D02*
Y0064409D01*
X1878504Y0066524D02*
X1879293Y0065496D01*
X1878008Y0067721D02*
X1878504Y0066524D01*
X1879293Y0065496D02*
X1880321Y0064707D01*
X1873167Y0055788D02*
Y0070078D01*
X1877839Y0069006D02*
X1878008Y0067721D01*
X1877891Y0055787D02*
Y0068611D01*
X1879466Y0055787D02*
Y0065363D01*
X1876316Y0055787D02*
Y0084603D01*
X1874742Y0055787D02*
Y0073419D01*
X1904457Y0064042D02*
X1905741Y0064211D01*
X1898364Y0055784D02*
Y0064042D01*
X1896789Y0055784D02*
Y0064042D01*
X1893639Y0055785D02*
Y0064042D01*
X1895214Y0055785D02*
Y0064042D01*
X1904663Y0055783D02*
Y0064069D01*
X1903088Y0055784D02*
Y0064042D01*
X1899938Y0055784D02*
Y0064042D01*
X1901513Y0055784D02*
Y0064042D01*
X1885765Y0055786D02*
Y0064042D01*
X1884190Y0055786D02*
Y0064042D01*
X1882803D02*
X1904457D01*
X1881518Y0064211D02*
X1882803Y0064042D01*
X1882616Y0055787D02*
Y0064067D01*
X1890490Y0055785D02*
Y0064042D01*
X1892064Y0055785D02*
Y0064042D01*
X1887340Y0055786D02*
Y0064042D01*
X1888915Y0055786D02*
Y0064042D01*
X1869311Y0265544D02*
X1962435D01*
X1868541Y0267119D02*
X1963328D01*
X1869313Y0263969D02*
X1962351D01*
X1866868Y0268261D02*
Y0268929D01*
X1868442Y0267233D02*
Y0268929D01*
X1871592Y0256268D02*
Y0268929D01*
X1870017Y0257275D02*
Y0268929D01*
X1868546Y0262395D02*
X1963007D01*
X1868442Y0257874D02*
Y0262274D01*
X1866868Y0258153D02*
Y0261246D01*
X1865293Y0268428D02*
Y0268929D01*
X1852991Y0259245D02*
X1879128D01*
X1865293Y0258156D02*
Y0261079D01*
X1865199Y0258143D02*
X1865682Y0258207D01*
X1870692Y0256922D02*
X1871337Y0256491D01*
X1869136Y0257670D02*
X1878156D01*
X1871337Y0256491D02*
X1871703Y0256171D01*
X1869834Y0257381D02*
X1870256Y0257138D01*
X1870692Y0256922D01*
X1872638Y0255326D02*
X1872934Y0254940D01*
X1871801Y0256095D02*
X1877799D01*
X1872934Y0254940D02*
X1873255Y0254574D01*
X1871703Y0256171D02*
X1872089Y0255874D01*
X1872638Y0255326D01*
X1866940Y0258143D02*
X1867426Y0258112D01*
X1866458Y0258207D02*
X1866940Y0258143D01*
X1867426Y0258112D02*
X1868187Y0257960D01*
X1865682Y0258207D02*
X1866458D01*
X1864714Y0258112D02*
X1865199Y0258143D01*
X1868648Y0257804D02*
X1869118Y0257678D01*
X1869834Y0257381D01*
X1863953Y0257960D02*
X1864714Y0258112D01*
X1868187Y0257960D02*
X1868648Y0257804D01*
X1863718Y0257881D02*
Y0261633D01*
Y0267874D02*
Y0268929D01*
X1863492Y0257804D02*
X1863953Y0257960D01*
X1862143Y0265761D02*
Y0268929D01*
X1863022Y0257678D02*
X1863492Y0257804D01*
X1862305Y0257381D02*
X1863022Y0257678D01*
X1862143Y0257288D02*
Y0263746D01*
X1861884Y0257138D02*
X1862305Y0257381D01*
X1861447Y0256922D02*
X1861884Y0257138D01*
X1860802Y0256491D02*
X1861447Y0256922D01*
X1860568Y0256286D02*
Y0268929D01*
X1854269Y0256481D02*
Y0268929D01*
X1853963Y0257670D02*
X1863004D01*
X1852898Y0259366D02*
X1853687Y0258338D01*
X1854182Y0257141D01*
X1858994Y0254698D02*
Y0268929D01*
X1860436Y0256171D02*
X1860802Y0256491D01*
X1857419Y0251432D02*
Y0268929D01*
X1854182Y0257141D02*
X1854351Y0255856D01*
X1860050Y0255874D02*
X1860436Y0256171D01*
X1859502Y0255326D02*
X1860050Y0255874D01*
X1859205Y0254940D02*
X1859502Y0255326D01*
X1858884Y0254574D02*
X1859205Y0254940D01*
X1858454Y0253929D02*
X1858884Y0254574D01*
X1858238Y0253492D02*
X1858454Y0253929D01*
X1857995Y0253071D02*
X1858238Y0253492D01*
X1857698Y0252354D02*
X1857995Y0253071D01*
X1857572Y0251884D02*
X1857698Y0252354D01*
X1857416Y0251423D02*
X1857572Y0251884D01*
X1854351Y0254521D02*
X1858849D01*
X1854320Y0256095D02*
X1860339D01*
X1854351Y0252946D02*
X1857943D01*
X1857264Y0250662D02*
X1857416Y0251423D01*
X1854351Y0251371D02*
X1857405D01*
X1857233Y0250177D02*
X1857264Y0250662D01*
X1857169Y0249694D02*
X1857233Y0250177D01*
X1854351Y0249796D02*
X1857183D01*
X1857169Y0249306D02*
Y0249694D01*
X1872934Y0243673D02*
X1873255Y0244039D01*
X1872638Y0243287D02*
X1872934Y0243673D01*
X1872799Y0243497D02*
X1877767D01*
X1872089Y0242738D02*
X1872638Y0243287D01*
X1871703Y0242442D02*
X1872089Y0242738D01*
X1871592Y0222812D02*
Y0242344D01*
X1871337Y0242121D02*
X1871703Y0242442D01*
X1871040Y0241922D02*
X1877877D01*
X1870692Y0241690D02*
X1871337Y0242121D01*
X1870256Y0241475D02*
X1870692Y0241690D01*
X1869834Y0241231D02*
X1870256Y0241475D01*
X1869118Y0240935D02*
X1869834Y0241231D01*
X1868647Y0240809D02*
X1869118Y0240935D01*
X1863492Y0240809D02*
X1863953Y0240652D01*
X1868187D02*
X1868647Y0240809D01*
X1870017Y0223819D02*
Y0241337D01*
X1868442Y0224417D02*
Y0240739D01*
X1863953Y0240652D02*
X1864714Y0240501D01*
X1867426D02*
X1868187Y0240652D01*
X1866940Y0240469D02*
X1867426Y0240501D01*
X1866458Y0240406D02*
X1866940Y0240469D01*
X1866868Y0224697D02*
Y0240459D01*
X1865682Y0240406D02*
X1866458D01*
X1865682Y0224751D02*
X1866458D01*
X1867707Y0224599D02*
X1878254D01*
X1867426Y0224655D02*
X1868187Y0224504D01*
X1868648Y0224348D01*
X1866458Y0224751D02*
X1866940Y0224687D01*
X1867426Y0224655D01*
X1865199Y0240469D02*
X1865682Y0240406D01*
X1853717Y0240347D02*
X1878402D01*
X1865199Y0224687D02*
X1865682Y0224751D01*
X1864714Y0240501D02*
X1865199Y0240469D01*
X1865293Y0224699D02*
Y0240457D01*
X1864714Y0224655D02*
X1865199Y0224687D01*
X1863953Y0224504D02*
X1864714Y0224655D01*
X1853865Y0224599D02*
X1864432D01*
X1863492Y0224348D02*
X1863953Y0224504D01*
X1857995Y0245542D02*
X1858238Y0245120D01*
X1857698Y0246258D02*
X1857995Y0245542D01*
X1858238Y0245120D02*
X1858454Y0244684D01*
X1857416Y0247190D02*
X1857572Y0246729D01*
X1857698Y0246258D01*
X1858994Y0221242D02*
Y0243915D01*
X1858884Y0244039D02*
X1859205Y0243673D01*
X1859502Y0243287D01*
X1857419Y0217976D02*
Y0247181D01*
X1858454Y0244684D02*
X1858884Y0244039D01*
X1857233Y0248436D02*
X1857264Y0247950D01*
X1854351Y0248221D02*
X1857247D01*
X1857264Y0247950D02*
X1857416Y0247190D01*
X1857169Y0248919D02*
Y0249306D01*
Y0248919D02*
X1857233Y0248436D01*
X1854351Y0245072D02*
X1858262D01*
X1854351Y0243497D02*
X1859340D01*
X1854351Y0242756D02*
Y0255856D01*
Y0246647D02*
X1857594D01*
X1861884Y0241475D02*
X1862305Y0241231D01*
X1861447Y0241690D02*
X1861884Y0241475D01*
X1862305Y0241231D02*
X1863022Y0240935D01*
X1860436Y0242442D02*
X1860802Y0242121D01*
X1861447Y0241690D01*
X1863022Y0240935D02*
X1863492Y0240809D01*
X1863718Y0224424D02*
Y0240732D01*
X1860568Y0222830D02*
Y0242326D01*
X1862143Y0223831D02*
Y0241325D01*
X1860050Y0242738D02*
X1860436Y0242442D01*
X1859502Y0243287D02*
X1860050Y0242738D01*
X1854242Y0241922D02*
X1861100D01*
X1854182Y0241472D02*
X1854351Y0242756D01*
X1853687Y0240274D02*
X1854182Y0241472D01*
X1854269Y0223174D02*
Y0242131D01*
X1853687Y0225031D02*
X1854182Y0223834D01*
X1852898Y0239246D02*
X1853687Y0240274D01*
X1852898Y0226059D02*
X1853687Y0225031D01*
X1843246Y0260820D02*
Y0268929D01*
X1841671Y0260820D02*
Y0268929D01*
X1844820Y0260820D02*
Y0268929D01*
X1838521Y0260820D02*
Y0268929D01*
X1840096Y0260820D02*
Y0268929D01*
X1851120Y0260466D02*
Y0268929D01*
X1849545Y0260799D02*
Y0268929D01*
X1852694Y0259522D02*
Y0268929D01*
X1846395Y0260820D02*
Y0268929D01*
X1847970Y0260820D02*
Y0268929D01*
X1836946Y0260820D02*
Y0268929D01*
X1835372Y0260820D02*
Y0268929D01*
X1694090D02*
X2018318D01*
X1832222Y0260820D02*
Y0268929D01*
X1833797Y0260820D02*
Y0268929D01*
X1827498Y0260789D02*
Y0268929D01*
X1830647Y0260820D02*
Y0268929D01*
X1824348Y0259461D02*
Y0268929D01*
X1825923Y0260433D02*
Y0268929D01*
X1849389Y0260820D02*
X1882730D01*
X1849388Y0260820D02*
X1850673Y0260651D01*
X1827733Y0260820D02*
X1849389D01*
X1829072Y0260820D02*
Y0268929D01*
X1827734Y0260820D02*
X1849388D01*
X1850673Y0260651D02*
X1851870Y0260155D01*
X1826450Y0260651D02*
X1827734Y0260820D01*
X1851870Y0260155D02*
X1852898Y0259366D01*
X1825252Y0260155D02*
X1826450Y0260651D01*
X1824224Y0259366D02*
X1825252Y0260155D01*
X1759531Y0267119D02*
X1862859D01*
X1757464Y0268694D02*
X2018318D01*
X1758861Y0262395D02*
X1862854D01*
X1760076Y0265544D02*
X1862089D01*
X1759902Y0263969D02*
X1862087D01*
X1804582Y0260820D02*
X1827733D01*
X1823436Y0258338D02*
X1824224Y0259366D01*
X1808184Y0259245D02*
X1824131D01*
X1822940Y0257141D02*
X1823436Y0258338D01*
X1807025Y0260171D02*
Y0268929D01*
X1805450Y0260705D02*
Y0268929D01*
X1804581Y0260820D02*
X1805866Y0260651D01*
X1802301Y0260820D02*
Y0268929D01*
X1803876Y0260820D02*
Y0268929D01*
X1822773Y0255877D02*
Y0268929D01*
X1808600Y0258703D02*
Y0268929D01*
X1808091Y0259366D02*
X1808880Y0258338D01*
X1805866Y0260651D02*
X1807063Y0260155D01*
X1808091Y0259366D01*
X1799151Y0260820D02*
Y0268929D01*
X1797576Y0260820D02*
Y0268929D01*
X1800726Y0260820D02*
Y0268929D01*
X1794427Y0260820D02*
Y0268929D01*
X1796002Y0260820D02*
Y0268929D01*
X1782928Y0260820D02*
X1804581D01*
X1782927Y0260820D02*
X1804582D01*
X1791277Y0260820D02*
Y0268929D01*
X1792852Y0260820D02*
Y0268929D01*
X1822771Y0255856D02*
X1822940Y0257141D01*
X1809545Y0254521D02*
X1822771D01*
X1809545Y0252946D02*
X1822771D01*
X1809545Y0251371D02*
X1822771D01*
X1809545Y0245072D02*
X1822771D01*
X1822773Y0242736D02*
Y0255877D01*
X1822771Y0242756D02*
Y0255856D01*
Y0242756D02*
X1822940Y0241472D01*
X1809545Y0242756D02*
Y0255856D01*
Y0243497D02*
X1822771D01*
X1809514Y0256095D02*
X1822802D01*
X1809157Y0257670D02*
X1823159D01*
X1809545Y0249796D02*
X1822771D01*
X1808880Y0258338D02*
X1809376Y0257141D01*
X1809545Y0255856D01*
Y0248221D02*
X1822771D01*
X1809435Y0241922D02*
X1822880D01*
X1809545Y0246647D02*
X1822771D01*
X1809376Y0241472D02*
X1809545Y0242756D01*
X1852280Y0238773D02*
X1879839D01*
X1851870Y0238458D02*
X1852898Y0239246D01*
X1850673Y0237962D02*
X1851870Y0238458D01*
X1849388Y0237793D02*
X1850673Y0237962D01*
X1844820Y0227513D02*
Y0237793D01*
X1852694Y0226215D02*
Y0239090D01*
X1851120Y0227158D02*
Y0238147D01*
X1849545Y0227492D02*
Y0237813D01*
X1846395Y0227513D02*
Y0237793D01*
X1847970Y0227513D02*
Y0237793D01*
X1835372Y0227513D02*
Y0237793D01*
X1833797Y0227513D02*
Y0237793D01*
X1827734D02*
X1849388D01*
X1825252Y0238458D02*
X1826450Y0237962D01*
X1827734Y0237793D01*
X1832222Y0227513D02*
Y0237793D01*
X1843246Y0227513D02*
Y0237793D01*
X1827498Y0227482D02*
Y0237824D01*
X1829072Y0227513D02*
Y0237793D01*
X1841671Y0227513D02*
Y0237793D01*
X1840096Y0227513D02*
Y0237793D01*
X1827734Y0227513D02*
X1849388D01*
X1830647D02*
Y0237793D01*
X1838521Y0227513D02*
Y0237793D01*
X1851870Y0226848D02*
X1852898Y0226059D01*
X1850673Y0227344D02*
X1851870Y0226848D01*
X1852748Y0226174D02*
X1879371D01*
X1836946Y0227513D02*
Y0237793D01*
X1849388Y0227513D02*
X1850673Y0227344D01*
X1694090Y0235623D02*
X1996398D01*
X1694090Y0237198D02*
X2018318D01*
X1694090Y0230899D02*
X1996130D01*
X1694090Y0234048D02*
X1995527D01*
X1694090Y0232473D02*
X1995457D01*
X1694090Y0229324D02*
X2000476D01*
X1694090Y0227749D02*
X2002051D01*
X1826450Y0227344D02*
X1827734Y0227513D01*
X1825252Y0226848D02*
X1826450Y0227344D01*
X1822940Y0241472D02*
X1823436Y0240274D01*
X1808910Y0240347D02*
X1823405D01*
X1823436Y0240274D02*
X1824224Y0239246D01*
X1808880Y0240274D02*
X1809376Y0241472D01*
X1808091Y0239246D02*
X1808880Y0240274D01*
X1824348Y0226154D02*
Y0239152D01*
X1824224Y0239246D02*
X1825252Y0238458D01*
X1825923Y0227126D02*
Y0238180D01*
X1822773Y0222570D02*
Y0242736D01*
X1808600Y0225396D02*
Y0239909D01*
X1807474Y0238773D02*
X1824842D01*
X1807063Y0238458D02*
X1808091Y0239246D01*
X1805866Y0237962D02*
X1807063Y0238458D01*
X1804581Y0237793D02*
X1805866Y0237962D01*
X1796002Y0227513D02*
Y0237793D01*
X1807025Y0226864D02*
Y0238442D01*
X1805450Y0227398D02*
Y0237907D01*
X1797576Y0227513D02*
Y0237793D01*
X1799151Y0227513D02*
Y0237793D01*
X1824224Y0226059D02*
X1825252Y0226848D01*
X1807941Y0226174D02*
X1824375D01*
X1823436Y0225031D02*
X1824224Y0226059D01*
X1805866Y0227344D02*
X1807063Y0226848D01*
X1808091Y0226059D01*
X1822940Y0223834D02*
X1823436Y0225031D01*
X1809059Y0224599D02*
X1823257D01*
X1808091Y0226059D02*
X1808880Y0225031D01*
X1809376Y0223834D01*
X1794427Y0227513D02*
Y0237793D01*
X1782928D02*
X1804581D01*
X1782928Y0227513D02*
X1804581D01*
X1791277D02*
Y0237793D01*
X1792852Y0227513D02*
Y0237793D01*
X1803876Y0227513D02*
Y0237793D01*
X1804581Y0227513D02*
X1805866Y0227344D01*
X1800726Y0227513D02*
Y0237793D01*
X1802301Y0227513D02*
Y0237793D01*
X1871337Y0223035D02*
X1871703Y0222714D01*
X1870692Y0223466D02*
X1871337Y0223035D01*
X1871349Y0223025D02*
X1877830D01*
X1869834Y0223925D02*
X1870256Y0223681D01*
X1870692Y0223466D01*
X1872934Y0221483D02*
X1873255Y0221117D01*
X1872638Y0221870D02*
X1872934Y0221483D01*
X1872934Y0210217D02*
X1873255Y0210583D01*
X1871703Y0222714D02*
X1872089Y0222418D01*
X1872638Y0221870D01*
X1868648Y0224348D02*
X1869118Y0224222D01*
X1863022D02*
X1863492Y0224348D01*
X1869118Y0224222D02*
X1869834Y0223925D01*
X1862305D02*
X1863022Y0224222D01*
X1861884Y0223681D02*
X1862305Y0223925D01*
X1861447Y0223466D02*
X1861884Y0223681D01*
X1860802Y0223035D02*
X1861447Y0223466D01*
X1860436Y0222714D02*
X1860802Y0223035D01*
X1854289Y0223025D02*
X1860790D01*
X1872638Y0209830D02*
X1872934Y0210217D01*
X1872089Y0209282D02*
X1872638Y0209830D01*
X1871550Y0208852D02*
X1877846D01*
X1871703Y0208986D02*
X1872089Y0209282D01*
X1871337Y0208665D02*
X1871703Y0208986D01*
X1870692Y0208234D02*
X1871337Y0208665D01*
X1870256Y0208019D02*
X1870692Y0208234D01*
X1869834Y0207775D02*
X1870256Y0208019D01*
X1869118Y0207478D02*
X1869834Y0207775D01*
X1868647Y0207352D02*
X1869118Y0207478D01*
X1860802Y0208665D02*
X1861447Y0208234D01*
X1860436Y0208986D02*
X1860802Y0208665D01*
X1861447Y0208234D02*
X1861884Y0208019D01*
X1860050Y0209282D02*
X1860436Y0208986D01*
X1854273Y0208852D02*
X1860589D01*
X1863022Y0207478D02*
X1863492Y0207352D01*
X1853815Y0207277D02*
X1863715D01*
X1861884Y0208019D02*
X1862305Y0207775D01*
X1863022Y0207478D01*
X1860050Y0222418D02*
X1860436Y0222714D01*
X1859502Y0221870D02*
X1860050Y0222418D01*
X1859205Y0221483D02*
X1859502Y0221870D01*
X1858884Y0221117D02*
X1859205Y0221483D01*
X1858454Y0220473D02*
X1858884Y0221117D01*
X1858238Y0220036D02*
X1858454Y0220473D01*
X1857995Y0219614D02*
X1858238Y0220036D01*
X1857698Y0218898D02*
X1857995Y0219614D01*
X1857572Y0218428D02*
X1857698Y0218898D01*
X1857416Y0217967D02*
X1857572Y0218428D01*
X1854351Y0219875D02*
X1858145D01*
X1854351Y0221450D02*
X1859176D01*
X1854351Y0218300D02*
X1857529D01*
X1854182Y0223834D02*
X1854351Y0222549D01*
X1857264Y0217206D02*
X1857416Y0217967D01*
X1857233Y0216720D02*
X1857264Y0217206D01*
X1854351Y0216725D02*
X1857233D01*
X1854351Y0209449D02*
Y0222549D01*
X1857169Y0216238D02*
X1857233Y0216720D01*
X1857698Y0212802D02*
X1857995Y0212086D01*
X1857572Y0213272D02*
X1857698Y0212802D01*
X1857995Y0212086D02*
X1858238Y0211664D01*
X1857264Y0214494D02*
X1857416Y0213733D01*
X1857572Y0213272D01*
X1859205Y0210217D02*
X1859502Y0209830D01*
X1858884Y0210583D02*
X1859205Y0210217D01*
X1859502Y0209830D02*
X1860050Y0209282D01*
X1858238Y0211664D02*
X1858454Y0211227D01*
X1858884Y0210583D01*
X1857169Y0215462D02*
X1857233Y0214980D01*
X1854351Y0215151D02*
X1857210D01*
X1857233Y0214980D02*
X1857264Y0214494D01*
X1857169Y0215850D02*
Y0216238D01*
Y0215462D02*
Y0215850D01*
X1854351Y0212001D02*
X1858044D01*
X1854351Y0210426D02*
X1859022D01*
X1854351Y0213576D02*
X1857469D01*
X1854182Y0208165D02*
X1854351Y0209449D01*
X1868424Y0207277D02*
X1878304D01*
X1868187Y0207196D02*
X1868647Y0207352D01*
X1867426Y0207045D02*
X1868187Y0207196D01*
X1866940Y0207013D02*
X1867426Y0207045D01*
X1866458Y0206949D02*
X1866940Y0207013D01*
X1869257Y0200977D02*
X1963809D01*
X1867294Y0202552D02*
X2013703D01*
X1869780Y0199403D02*
X1963002D01*
X1868442Y0201914D02*
Y0207283D01*
X1866868Y0202670D02*
Y0207003D01*
X1865682Y0206949D02*
X1866458D01*
X1865199Y0207013D02*
X1865682Y0206949D01*
X1852588Y0205702D02*
X1879531D01*
X1864714Y0207045D02*
X1865199Y0207013D01*
X1865293Y0202661D02*
Y0207000D01*
X1869588Y0197828D02*
X1962975D01*
X1868513Y0196253D02*
X1963706D01*
X1854351Y0186804D02*
X1877767D01*
X1854351Y0188379D02*
X1877767D01*
X1854351Y0177355D02*
X1877767D01*
X1854351Y0182080D02*
X1877767D01*
X1854351Y0175781D02*
X1877767D01*
X1854351Y0185229D02*
X1877767D01*
X1854351Y0183655D02*
X1877767D01*
X1853413Y0191529D02*
X1878705D01*
X1851595Y0193103D02*
X1880524D01*
X1854185Y0189954D02*
X1877934D01*
X1854351Y0180505D02*
X1877767D01*
X1854351Y0178930D02*
X1877767D01*
X1851300Y0171056D02*
X1880819D01*
X1851595Y0153733D02*
X1880524D01*
X1854141Y0174206D02*
X1877978D01*
X1853320Y0172631D02*
X1878799D01*
X1863492Y0207352D02*
X1863953Y0207196D01*
X1853687Y0206967D02*
X1854182Y0208165D01*
X1863953Y0207196D02*
X1864714Y0207045D01*
X1852898Y0205939D02*
X1853687Y0206967D01*
X1851870Y0205151D02*
X1852898Y0205939D01*
X1863718Y0201881D02*
Y0207276D01*
X1854269Y0189316D02*
Y0208824D01*
X1851870Y0192990D02*
X1852898Y0192201D01*
X1852694Y0192357D02*
Y0205783D01*
X1851120Y0193300D02*
Y0204840D01*
X1850673Y0204655D02*
X1851870Y0205151D01*
X1849388Y0204486D02*
X1850673Y0204655D01*
X1846395Y0193655D02*
Y0204486D01*
X1843246Y0193655D02*
Y0204486D01*
X1844820Y0193655D02*
Y0204486D01*
X1849388Y0193655D02*
X1850673Y0193485D01*
X1851870Y0192990D01*
X1849545Y0193634D02*
Y0204506D01*
X1847970Y0193655D02*
Y0204486D01*
X1854351Y0175591D02*
Y0188691D01*
X1854182Y0189976D02*
X1854351Y0188691D01*
X1854182Y0174306D02*
X1854351Y0175591D01*
X1852898Y0192201D02*
X1853687Y0191173D01*
X1854182Y0189976D01*
X1853687Y0173109D02*
X1854182Y0174306D01*
X1852898Y0172081D02*
X1853687Y0173109D01*
X1851870Y0171292D02*
X1852898Y0172081D01*
X1852694Y0152987D02*
Y0171925D01*
X1850673Y0170796D02*
X1851870Y0171292D01*
X1849388Y0170627D02*
X1850673Y0170796D01*
X1847970Y0154285D02*
Y0170627D01*
X1844820Y0154285D02*
Y0170627D01*
X1846395Y0154285D02*
Y0170627D01*
X1851120Y0153930D02*
Y0170982D01*
X1850673Y0154115D02*
X1851870Y0153620D01*
X1849545Y0154264D02*
Y0170648D01*
X1849388Y0154285D02*
X1850673Y0154115D01*
X1841671Y0193655D02*
Y0204486D01*
X1835372Y0193655D02*
Y0204486D01*
X1827734D02*
X1849388D01*
X1825252Y0205151D02*
X1826450Y0204655D01*
X1827734Y0204486D01*
X1833797Y0193655D02*
Y0204486D01*
X1832222Y0193655D02*
Y0204486D01*
X1836946Y0193655D02*
Y0204486D01*
X1825923Y0193267D02*
Y0204873D01*
X1827498Y0193623D02*
Y0204517D01*
X1822940Y0208165D02*
X1823436Y0206967D01*
X1822771Y0222549D02*
X1822940Y0223834D01*
X1809008Y0207277D02*
X1823307D01*
X1822771Y0209449D02*
X1822940Y0208165D01*
X1809466Y0208852D02*
X1822849D01*
X1824224Y0205939D02*
X1825252Y0205151D01*
X1807782Y0205702D02*
X1824534D01*
X1823436Y0206967D02*
X1824224Y0205939D01*
X1824348Y0192296D02*
Y0205844D01*
X1840096Y0193655D02*
Y0204486D01*
X1838521Y0193655D02*
Y0204486D01*
X1827734Y0193655D02*
X1849388D01*
X1829072D02*
Y0204486D01*
X1830647Y0193655D02*
Y0204486D01*
X1826450Y0193485D02*
X1827734Y0193655D01*
X1825252Y0192990D02*
X1826450Y0193485D01*
X1824224Y0192201D02*
X1825252Y0192990D01*
X1823436Y0191173D02*
X1824224Y0192201D01*
X1822940Y0189976D02*
X1823436Y0191173D01*
X1758146Y0202552D02*
X1864906D01*
X1694090Y0204127D02*
X2013703D01*
X1760394Y0200977D02*
X1862943D01*
X1760970Y0199403D02*
X1862420D01*
X1760821Y0197828D02*
X1862612D01*
X1759825Y0196253D02*
X1863687D01*
X1694090Y0194678D02*
X2010722D01*
X1806788Y0193103D02*
X1825527D01*
X1808607Y0191529D02*
X1823709D01*
X1809545Y0216725D02*
X1822771D01*
X1809545Y0218300D02*
X1822771D01*
X1809545Y0215151D02*
X1822771D01*
X1809545Y0221450D02*
X1822771D01*
X1809545Y0219875D02*
X1822771D01*
X1822773Y0209429D02*
Y0222570D01*
X1809545Y0213576D02*
X1822771D01*
X1809545Y0210426D02*
X1822771D01*
X1809545Y0209449D02*
Y0222549D01*
X1822771Y0209449D02*
Y0222549D01*
X1809483Y0223025D02*
X1822833D01*
X1809376Y0223834D02*
X1809545Y0222549D01*
Y0212001D02*
X1822771D01*
X1809376Y0208165D02*
X1809545Y0209449D01*
X1808880Y0206967D02*
X1809376Y0208165D01*
X1808091Y0205939D02*
X1808880Y0206967D01*
X1808600Y0191538D02*
Y0206602D01*
X1807063Y0205151D02*
X1808091Y0205939D01*
X1805866Y0204655D02*
X1807063Y0205151D01*
X1805450Y0193540D02*
Y0204600D01*
X1804581Y0204486D02*
X1805866Y0204655D01*
X1804581Y0193655D02*
X1805866Y0193485D01*
X1802301Y0193655D02*
Y0204486D01*
X1803876Y0193655D02*
Y0204486D01*
X1807063Y0192990D02*
X1808091Y0192201D01*
X1808880Y0191173D01*
X1807025Y0193005D02*
Y0205135D01*
X1805866Y0193485D02*
X1807063Y0192990D01*
X1794427Y0193655D02*
Y0204486D01*
X1782928D02*
X1804581D01*
X1782928Y0193655D02*
X1804581D01*
X1791277D02*
Y0204486D01*
X1792852Y0193655D02*
Y0204486D01*
X1799151Y0193655D02*
Y0204486D01*
X1800726Y0193655D02*
Y0204486D01*
X1796002Y0193655D02*
Y0204486D01*
X1797576Y0193655D02*
Y0204486D01*
X1840096Y0154285D02*
Y0170627D01*
X1838521Y0154285D02*
Y0170627D01*
X1843246Y0154285D02*
Y0170627D01*
X1825252Y0171292D02*
X1826450Y0170796D01*
X1827734Y0170627D01*
X1836946Y0154285D02*
Y0170627D01*
X1835372Y0154285D02*
Y0170627D01*
X1841671Y0154285D02*
Y0170627D01*
X1825923Y0153897D02*
Y0171014D01*
X1827498Y0154253D02*
Y0170658D01*
X1822940Y0174306D02*
X1823436Y0173109D01*
X1822771Y0175591D02*
X1822940Y0174306D01*
X1809334Y0174206D02*
X1822981D01*
X1822771Y0188691D02*
X1822940Y0189976D01*
X1809379Y0189954D02*
X1822937D01*
X1824224Y0172081D02*
X1825252Y0171292D01*
X1806494Y0171056D02*
X1825822D01*
X1823436Y0173109D02*
X1824224Y0172081D01*
X1808513Y0172631D02*
X1823802D01*
X1833797Y0154285D02*
Y0170627D01*
X1827734D02*
X1849388D01*
X1694090Y0167907D02*
X2011803D01*
X1829072Y0154285D02*
Y0170627D01*
X1830647Y0154285D02*
Y0170627D01*
X1832222Y0154285D02*
Y0170627D01*
X1827734Y0154285D02*
X1849388D01*
X1826450Y0154115D02*
X1827734Y0154285D01*
X1825252Y0153620D02*
X1826450Y0154115D01*
X1806788Y0153733D02*
X1825527D01*
X1694090Y0166332D02*
X2011803D01*
X1694090Y0169481D02*
X2011803D01*
X1694090Y0164757D02*
X1994737D01*
X1694090Y0163182D02*
X1993697D01*
X1694090Y0161607D02*
X1993524D01*
X1694090Y0156883D02*
X2007417D01*
X1694090Y0155308D02*
X2008992D01*
X1694090Y0160033D02*
X1994070D01*
X1694090Y0158458D02*
X1996142D01*
X1822773Y0188712D02*
Y0209429D01*
X1809545Y0188379D02*
X1822771D01*
X1809545Y0186804D02*
X1822771D01*
X1809545Y0185229D02*
X1822771D01*
X1809545Y0183655D02*
X1822771D01*
X1822773Y0175570D02*
Y0188712D01*
X1809545Y0182080D02*
X1822771D01*
X1809545Y0177355D02*
X1822771D01*
X1809545Y0175591D02*
Y0188691D01*
X1822771Y0175591D02*
Y0188691D01*
X1809545Y0178930D02*
X1822771D01*
X1809545Y0180505D02*
X1822771D01*
X1809545Y0175781D02*
X1822771D01*
X1808880Y0191173D02*
X1809376Y0189976D01*
X1809545Y0188691D01*
X1809376Y0174306D02*
X1809545Y0175591D01*
X1808880Y0173109D02*
X1809376Y0174306D01*
X1808091Y0172081D02*
X1808880Y0173109D01*
X1807063Y0171292D02*
X1808091Y0172081D01*
X1805866Y0170796D02*
X1807063Y0171292D01*
X1804581Y0170627D02*
X1805866Y0170796D01*
X1803876Y0154285D02*
Y0170627D01*
X1800726Y0154285D02*
Y0170627D01*
X1802301Y0154285D02*
Y0170627D01*
X1807025Y0153635D02*
Y0171276D01*
X1805866Y0154115D02*
X1807063Y0153620D01*
X1805450Y0154170D02*
Y0170742D01*
X1804581Y0154285D02*
X1805866Y0154115D01*
X1792852Y0154285D02*
Y0170627D01*
X1782928D02*
X1804581D01*
X1782928Y0154285D02*
X1804581D01*
X1789702D02*
Y0170627D01*
X1791277Y0154285D02*
Y0170627D01*
X1797576Y0154285D02*
Y0170627D01*
X1799151Y0154285D02*
Y0170627D01*
X1794427Y0154285D02*
Y0170627D01*
X1796002Y0154285D02*
Y0170627D01*
X1788128Y0260820D02*
Y0268929D01*
X1786553Y0260820D02*
Y0268929D01*
X1789702Y0260820D02*
Y0268929D01*
X1783403Y0260820D02*
Y0268929D01*
X1784978Y0260820D02*
Y0268929D01*
X1781828Y0260675D02*
Y0268929D01*
X1781643Y0260651D02*
X1782928Y0260820D01*
X1780446Y0260155D02*
X1781643Y0260651D01*
X1780254Y0260007D02*
Y0268929D01*
X1779418Y0259366D02*
X1780446Y0260155D01*
X1778679Y0258403D02*
Y0268929D01*
X1778629Y0258338D02*
X1779418Y0259366D01*
X1778133Y0257141D02*
X1778629Y0258338D01*
X1759469Y0257670D02*
X1778353D01*
X1762134Y0256095D02*
X1777996D01*
X1764506Y0253004D02*
Y0268929D01*
X1777964Y0255856D02*
X1778133Y0257141D01*
X1762931Y0255366D02*
Y0268929D01*
X1762036Y0256171D02*
X1762423Y0255874D01*
X1765067Y0251371D02*
X1777964D01*
X1765057Y0251423D02*
X1765208Y0250662D01*
X1765240Y0250177D01*
X1764775Y0252354D02*
X1764901Y0251884D01*
X1765057Y0251423D01*
X1765290Y0249796D02*
X1777964D01*
X1765240Y0250177D02*
X1765304Y0249694D01*
Y0249306D02*
Y0249694D01*
Y0248919D02*
Y0249306D01*
X1765240Y0248436D02*
X1765304Y0248919D01*
X1763588Y0254574D02*
X1764019Y0253929D01*
X1763267Y0254940D02*
X1763588Y0254574D01*
X1763624Y0254521D02*
X1777964D01*
X1762423Y0255874D02*
X1762971Y0255326D01*
X1763267Y0254940D01*
X1764478Y0253071D02*
X1764775Y0252354D01*
X1764529Y0252946D02*
X1777964D01*
X1764019Y0253929D02*
X1764234Y0253492D01*
X1764478Y0253071D01*
X1759781Y0266648D02*
Y0268929D01*
X1758206Y0268379D02*
Y0268929D01*
X1756015Y0258207D02*
X1756791D01*
X1761356Y0256702D02*
Y0268929D01*
X1759781Y0257541D02*
Y0263659D01*
X1758206Y0258023D02*
Y0261928D01*
X1756632Y0258207D02*
Y0261464D01*
X1756791Y0258207D02*
X1757273Y0258143D01*
X1755533D02*
X1756015Y0258207D01*
X1753482Y0267423D02*
Y0268929D01*
X1755057Y0268598D02*
Y0268929D01*
X1753482Y0257712D02*
Y0262884D01*
X1755057Y0258112D02*
Y0261709D01*
X1750332Y0255823D02*
Y0268929D01*
X1751907Y0256985D02*
Y0268929D01*
X1758520Y0257960D02*
X1758981Y0257804D01*
X1757759Y0258112D02*
X1758520Y0257960D01*
X1758981Y0257804D02*
X1759451Y0257678D01*
X1755047Y0258112D02*
X1755533Y0258143D01*
X1757273D02*
X1757759Y0258112D01*
X1761025Y0256922D02*
X1761670Y0256491D01*
X1760589Y0257138D02*
X1761025Y0256922D01*
X1761670Y0256491D02*
X1762036Y0256171D01*
X1759451Y0257678D02*
X1760167Y0257381D01*
X1760589Y0257138D01*
X1754286Y0257960D02*
X1755047Y0258112D01*
X1753825Y0257804D02*
X1754286Y0257960D01*
X1753355Y0257678D02*
X1753825Y0257804D01*
X1752638Y0257381D02*
X1753355Y0257678D01*
X1752217Y0257138D02*
X1752638Y0257381D01*
X1751780Y0256922D02*
X1752217Y0257138D01*
X1751135Y0256491D02*
X1751780Y0256922D01*
X1750769Y0256171D02*
X1751135Y0256491D01*
X1750383Y0255874D02*
X1750769Y0256171D01*
X1765226Y0248221D02*
X1777964D01*
X1765208Y0247950D02*
X1765240Y0248436D01*
X1764879Y0246647D02*
X1777964D01*
X1765057Y0247189D02*
X1765208Y0247950D01*
X1764901Y0246729D02*
X1765057Y0247189D01*
X1777964Y0242756D02*
Y0255856D01*
X1764775Y0246258D02*
X1764901Y0246729D01*
X1777964Y0242756D02*
X1778133Y0241472D01*
X1764478Y0245542D02*
X1764775Y0246258D01*
X1764506Y0219547D02*
Y0245609D01*
X1764234Y0245120D02*
X1764478Y0245542D01*
X1764019Y0244684D02*
X1764234Y0245120D01*
X1764211Y0245072D02*
X1777964D01*
X1763588Y0244039D02*
X1764019Y0244684D01*
X1763267Y0243673D02*
X1763588Y0244039D01*
X1762971Y0243287D02*
X1763267Y0243673D01*
X1763132Y0243497D02*
X1777964D01*
X1762423Y0242738D02*
X1762971Y0243287D01*
X1762931Y0221910D02*
Y0243247D01*
X1786553Y0227513D02*
Y0237793D01*
X1784978Y0227513D02*
Y0237793D01*
X1788128Y0227513D02*
Y0237793D01*
X1780446Y0238458D02*
X1781643Y0237962D01*
X1782928Y0237793D01*
X1789702Y0227513D02*
Y0237793D01*
X1783403Y0227513D02*
Y0237793D01*
X1781643Y0227344D02*
X1782928Y0227513D01*
X1781828Y0227368D02*
Y0237937D01*
X1780446Y0226848D02*
X1781643Y0227344D01*
X1779418Y0239246D02*
X1780446Y0238458D01*
X1778629Y0240274D02*
X1779418Y0239246D01*
X1780254Y0226700D02*
Y0238605D01*
X1761373Y0241922D02*
X1778074D01*
X1778133Y0241472D02*
X1778629Y0240274D01*
X1779418Y0226059D02*
X1780446Y0226848D01*
X1778629Y0225031D02*
X1779418Y0226059D01*
X1778679Y0225096D02*
Y0240210D01*
X1778133Y0223834D02*
X1778629Y0225031D01*
X1762036Y0242442D02*
X1762423Y0242738D01*
X1761670Y0242121D02*
X1762036Y0242442D01*
X1761025Y0241690D02*
X1761670Y0242121D01*
X1760589Y0241475D02*
X1761025Y0241690D01*
X1760167Y0241231D02*
X1760589Y0241475D01*
X1761356Y0223245D02*
Y0241911D01*
X1759451Y0240935D02*
X1760167Y0241231D01*
X1759781Y0224085D02*
Y0241072D01*
X1758981Y0240809D02*
X1759451Y0240935D01*
X1758520Y0240652D02*
X1758981Y0240809D01*
X1751780Y0241690D02*
X1752217Y0241475D01*
X1751135Y0242121D02*
X1751780Y0241690D01*
X1752217Y0241475D02*
X1752638Y0241231D01*
X1750383Y0242738D02*
X1750770Y0242442D01*
X1751135Y0242121D01*
X1753355Y0240935D02*
X1753825Y0240809D01*
X1753482Y0224256D02*
Y0240901D01*
X1751907Y0223529D02*
Y0241628D01*
X1752638Y0241231D02*
X1753355Y0240935D01*
X1757759Y0240501D02*
X1758520Y0240652D01*
X1757273Y0240469D02*
X1757759Y0240501D01*
X1756791Y0240406D02*
X1757273Y0240469D01*
X1756632Y0224751D02*
Y0240406D01*
X1756015Y0224751D02*
X1756791D01*
X1758206Y0224566D02*
Y0240590D01*
X1757759Y0224655D02*
X1758520Y0224504D01*
X1756791Y0224751D02*
X1757273Y0224687D01*
X1757759Y0224655D01*
X1755532Y0240469D02*
X1756015Y0240406D01*
X1755047Y0240501D02*
X1755532Y0240469D01*
X1756015Y0240406D02*
X1756791D01*
X1753825Y0240809D02*
X1754286Y0240652D01*
X1755047Y0240501D01*
X1755533Y0224687D02*
X1756015Y0224751D01*
X1755047Y0224655D02*
X1755533Y0224687D01*
X1755057Y0224656D02*
Y0240500D01*
X1754286Y0224504D02*
X1755047Y0224655D01*
X1734584Y0256479D02*
Y0268929D01*
X1733306Y0259245D02*
X1779325D01*
X1734278Y0257670D02*
X1753337D01*
X1733213Y0259366D02*
X1734001Y0258338D01*
X1734497Y0257141D01*
X1749835Y0255326D02*
X1750383Y0255874D01*
X1734635Y0256095D02*
X1750672D01*
X1749539Y0254940D02*
X1749835Y0255326D01*
X1748758Y0253870D02*
Y0268929D01*
X1734497Y0257141D02*
X1734666Y0255856D01*
X1694090Y0267119D02*
X1753269D01*
X1694090Y0268694D02*
X1755336D01*
X1694090Y0262395D02*
X1753939D01*
X1694090Y0265544D02*
X1752724D01*
X1694090Y0263969D02*
X1752898D01*
X1729704Y0260820D02*
X1782927D01*
X1732185Y0260155D02*
X1733213Y0259366D01*
X1733010Y0259522D02*
Y0268929D01*
X1730987Y0260651D02*
X1732185Y0260155D01*
X1749218Y0254574D02*
X1749539Y0254940D01*
X1748787Y0253929D02*
X1749218Y0254574D01*
X1748572Y0253492D02*
X1748787Y0253929D01*
X1748328Y0253071D02*
X1748572Y0253492D01*
X1748031Y0252354D02*
X1748328Y0253071D01*
X1747905Y0251884D02*
X1748031Y0252354D01*
X1747749Y0251423D02*
X1747905Y0251884D01*
X1747598Y0250662D02*
X1747749Y0251423D01*
X1747566Y0250177D02*
X1747598Y0250662D01*
X1747566Y0248436D02*
X1747598Y0247950D01*
X1734666Y0252946D02*
X1748276D01*
X1734666Y0254521D02*
X1749182D01*
X1734666Y0251371D02*
X1747738D01*
X1747502Y0249694D02*
X1747566Y0250177D01*
X1734666Y0249796D02*
X1747516D01*
X1747502Y0248919D02*
X1747566Y0248436D01*
X1734666Y0248221D02*
X1747580D01*
X1747502Y0249306D02*
Y0249694D01*
Y0248919D02*
Y0249306D01*
X1721986Y0260820D02*
Y0268929D01*
X1720411Y0260820D02*
Y0268929D01*
X1723561Y0260820D02*
Y0268929D01*
X1717262Y0260820D02*
Y0268929D01*
X1718836Y0260820D02*
Y0268929D01*
X1729860Y0260799D02*
Y0268929D01*
X1728285Y0260820D02*
Y0268929D01*
X1731435Y0260466D02*
Y0268929D01*
X1725136Y0260820D02*
Y0268929D01*
X1726710Y0260820D02*
Y0268929D01*
X1714112Y0260820D02*
Y0268929D01*
X1712537Y0260820D02*
Y0268929D01*
X1715687Y0260820D02*
Y0268929D01*
X1709388Y0260820D02*
Y0268929D01*
X1710962Y0260820D02*
Y0268929D01*
X1706238Y0260433D02*
Y0268929D01*
X1707813Y0260789D02*
Y0268929D01*
X1703088Y0255879D02*
Y0268929D01*
X1704663Y0259461D02*
Y0268929D01*
X1729703Y0260820D02*
X1730987Y0260651D01*
X1708049Y0260820D02*
X1729703D01*
X1708048Y0260820D02*
X1729704D01*
X1706764Y0260651D02*
X1708049Y0260820D01*
X1705567Y0260155D02*
X1706764Y0260651D01*
X1704539Y0259366D02*
X1705567Y0260155D01*
X1703750Y0258338D02*
X1704539Y0259366D01*
X1703255Y0257141D02*
X1703750Y0258338D01*
X1703085Y0255856D02*
X1703255Y0257141D01*
X1694090Y0259245D02*
X1704446D01*
X1694090Y0260820D02*
X1708048D01*
X1694090Y0257670D02*
X1703474D01*
X1694090Y0256095D02*
X1703117D01*
X1694090Y0254521D02*
X1703085D01*
X1694090Y0249796D02*
X1703085D01*
X1694090Y0248221D02*
X1703085D01*
X1694090Y0252946D02*
X1703085D01*
X1694090Y0251371D02*
X1703085D01*
X1748572Y0245120D02*
X1748787Y0244684D01*
X1748328Y0245542D02*
X1748572Y0245120D01*
X1748787Y0244684D02*
X1749218Y0244039D01*
X1747905Y0246729D02*
X1748031Y0246258D01*
X1748328Y0245542D01*
X1749835Y0243287D02*
X1750383Y0242738D01*
X1749539Y0243673D02*
X1749835Y0243287D01*
X1750332Y0222367D02*
Y0242789D01*
X1748758Y0220413D02*
Y0244743D01*
X1749218Y0244039D02*
X1749539Y0243673D01*
X1734666Y0245072D02*
X1748595D01*
X1734666Y0246647D02*
X1747927D01*
X1734666Y0243497D02*
X1749674D01*
X1747598Y0247950D02*
X1747749Y0247190D01*
X1747905Y0246729D01*
X1734666Y0242756D02*
Y0255856D01*
X1734557Y0241922D02*
X1751433D01*
X1734497Y0241472D02*
X1734666Y0242756D01*
X1734584Y0223172D02*
Y0242133D01*
X1734032Y0240347D02*
X1778599D01*
X1734001Y0240274D02*
X1734497Y0241472D01*
X1732595Y0238773D02*
X1780035D01*
X1733213Y0239246D02*
X1734001Y0240274D01*
X1732185Y0238458D02*
X1733213Y0239246D01*
X1734001Y0225031D02*
X1734497Y0223834D01*
X1733062Y0226174D02*
X1779568D01*
X1734180Y0224599D02*
X1754766D01*
X1733010Y0226215D02*
Y0239091D01*
X1733213Y0226059D02*
X1734001Y0225031D01*
X1730987Y0237962D02*
X1732185Y0238458D01*
X1729703Y0237793D02*
X1730987Y0237962D01*
X1729860Y0227492D02*
Y0237813D01*
X1708049Y0237793D02*
X1729703D01*
X1708049Y0227513D02*
X1729703D01*
X1730987Y0227344D02*
X1732185Y0226848D01*
X1733213Y0226059D01*
X1731435Y0227158D02*
Y0238147D01*
X1729703Y0227513D02*
X1730987Y0227344D01*
X1704539Y0239246D02*
X1705567Y0238458D01*
X1703750Y0240274D02*
X1704539Y0239246D01*
X1705567Y0238458D02*
X1706764Y0237962D01*
X1703088Y0242734D02*
Y0255879D01*
X1703255Y0241472D02*
X1703750Y0240274D01*
X1707813Y0227482D02*
Y0237824D01*
X1706764Y0237962D02*
X1708049Y0237793D01*
X1718836Y0227513D02*
Y0237793D01*
X1704663Y0226154D02*
Y0239151D01*
X1706238Y0227126D02*
Y0238180D01*
X1703085Y0242756D02*
Y0255856D01*
X1694090Y0243497D02*
X1703085D01*
X1694090Y0241922D02*
X1703195D01*
X1694090Y0246647D02*
X1703085D01*
X1694090Y0245072D02*
X1703085D01*
X1694090Y0240347D02*
X1703720D01*
X1694090Y0238773D02*
X1705157D01*
X1703085Y0242756D02*
X1703255Y0241472D01*
X1703088Y0222572D02*
Y0242734D01*
X1720411Y0227513D02*
Y0237793D01*
X1717262Y0227513D02*
Y0237793D01*
X1721986Y0227513D02*
Y0237793D01*
X1714112Y0227513D02*
Y0237793D01*
X1715687Y0227513D02*
Y0237793D01*
X1726710Y0227513D02*
Y0237793D01*
X1728285Y0227513D02*
Y0237793D01*
X1723561Y0227513D02*
Y0237793D01*
X1725136Y0227513D02*
Y0237793D01*
X1710962Y0227513D02*
Y0237793D01*
X1709388Y0227513D02*
Y0237793D01*
X1712537Y0227513D02*
Y0237793D01*
X1706764Y0227344D02*
X1708049Y0227513D01*
X1705567Y0226848D02*
X1706764Y0227344D01*
X1704539Y0226059D02*
X1705567Y0226848D01*
X1694090Y0226174D02*
X1704689D01*
X1703750Y0225031D02*
X1704539Y0226059D01*
X1703255Y0223834D02*
X1703750Y0225031D01*
X1777964Y0222549D02*
X1778133Y0223834D01*
X1764234Y0220036D02*
X1764478Y0219614D01*
X1764327Y0219875D02*
X1777964D01*
X1763588Y0221117D02*
X1764019Y0220473D01*
X1764234Y0220036D01*
X1764944Y0218300D02*
X1777964D01*
X1764901Y0218428D02*
X1765057Y0217967D01*
X1765208Y0217206D01*
X1764478Y0219614D02*
X1764775Y0218898D01*
X1764901Y0218428D01*
X1761683Y0223025D02*
X1778027D01*
X1758040Y0224599D02*
X1778450D01*
X1762036Y0222714D02*
X1762423Y0222418D01*
X1761025Y0223466D02*
X1761670Y0223035D01*
X1762036Y0222714D01*
X1763267Y0221483D02*
X1763588Y0221117D01*
X1763297Y0221450D02*
X1777964D01*
X1762423Y0222418D02*
X1762971Y0221870D01*
X1763267Y0221483D01*
X1765240Y0216720D02*
X1765304Y0216238D01*
X1765240Y0216725D02*
X1777964D01*
X1765304Y0215462D02*
Y0215850D01*
X1765208Y0217206D02*
X1765240Y0216720D01*
X1765304Y0215850D02*
Y0216238D01*
X1765263Y0215151D02*
X1777964D01*
X1765240Y0214980D02*
X1765304Y0215462D01*
X1765004Y0213576D02*
X1777964D01*
X1765208Y0214494D02*
X1765240Y0214980D01*
X1765057Y0213733D02*
X1765208Y0214494D01*
X1764901Y0213272D02*
X1765057Y0213733D01*
X1764775Y0212802D02*
X1764901Y0213272D01*
X1764429Y0212001D02*
X1777964D01*
X1764478Y0212086D02*
X1764775Y0212802D01*
X1764234Y0211664D02*
X1764478Y0212086D01*
X1764019Y0211227D02*
X1764234Y0211664D01*
X1763451Y0210426D02*
X1777964D01*
X1763588Y0210583D02*
X1764019Y0211227D01*
X1763267Y0210217D02*
X1763588Y0210583D01*
X1758981Y0224348D02*
X1759451Y0224222D01*
X1758520Y0224504D02*
X1758981Y0224348D01*
X1759451Y0224222D02*
X1760167Y0223925D01*
X1753825Y0224348D02*
X1754286Y0224504D01*
X1753355Y0224222D02*
X1753825Y0224348D01*
X1760167Y0223925D02*
X1760589Y0223681D01*
X1752638Y0223925D02*
X1753355Y0224222D01*
X1760589Y0223681D02*
X1761025Y0223466D01*
X1752217Y0223681D02*
X1752638Y0223925D01*
X1751780Y0223466D02*
X1752217Y0223681D01*
X1751135Y0223035D02*
X1751780Y0223466D01*
X1750769Y0222714D02*
X1751135Y0223035D01*
X1750383Y0222418D02*
X1750769Y0222714D01*
X1749835Y0221870D02*
X1750383Y0222418D01*
X1749539Y0221483D02*
X1749835Y0221870D01*
X1749218Y0221117D02*
X1749539Y0221483D01*
X1734666Y0221450D02*
X1749509D01*
X1748787Y0220473D02*
X1749218Y0221117D01*
X1748572Y0220036D02*
X1748787Y0220473D01*
X1748328Y0219614D02*
X1748572Y0220036D01*
X1748031Y0218898D02*
X1748328Y0219614D01*
X1747905Y0218428D02*
X1748031Y0218898D01*
X1747749Y0217967D02*
X1747905Y0218428D01*
X1747749Y0213733D02*
X1747905Y0213272D01*
X1748572Y0211664D02*
X1748787Y0211227D01*
X1748328Y0212086D02*
X1748572Y0211664D01*
X1748787Y0211227D02*
X1749218Y0210583D01*
X1747905Y0213272D02*
X1748031Y0212802D01*
X1748328Y0212086D01*
X1747598Y0217206D02*
X1747749Y0217967D01*
X1734666Y0219875D02*
X1748479D01*
X1747566Y0216720D02*
X1747598Y0217206D01*
X1747502Y0216238D02*
X1747566Y0216720D01*
X1747502Y0215850D02*
Y0216238D01*
X1747566Y0214980D02*
X1747598Y0214494D01*
X1747749Y0213733D01*
X1747502Y0215462D02*
Y0215850D01*
Y0215462D02*
X1747566Y0214980D01*
X1786553Y0193655D02*
Y0204486D01*
X1784978Y0193655D02*
Y0204486D01*
X1788128Y0193655D02*
Y0204486D01*
X1780446Y0205151D02*
X1781643Y0204655D01*
X1782928Y0204486D01*
X1789702Y0193655D02*
Y0204486D01*
X1783403Y0193655D02*
Y0204486D01*
X1781643Y0193485D02*
X1782928Y0193655D01*
X1781828Y0193510D02*
Y0204630D01*
X1780446Y0192990D02*
X1781643Y0193485D01*
X1778133Y0208165D02*
X1778629Y0206967D01*
X1777964Y0209449D02*
X1778133Y0208165D01*
X1758757Y0207277D02*
X1778501D01*
X1777964Y0209449D02*
Y0222549D01*
X1761883Y0208852D02*
X1778043D01*
X1779418Y0205939D02*
X1780446Y0205151D01*
X1780254Y0192842D02*
Y0205298D01*
X1778629Y0206967D02*
X1779418Y0205939D01*
X1778679Y0191237D02*
Y0206903D01*
X1784978Y0154285D02*
Y0170627D01*
X1783403Y0154285D02*
Y0170627D01*
X1788128Y0154285D02*
Y0170627D01*
X1780446Y0171292D02*
X1781643Y0170796D01*
X1782928Y0170627D01*
X1786553Y0154285D02*
Y0170627D01*
X1781828Y0154140D02*
Y0170772D01*
X1781643Y0154115D02*
X1782928Y0154285D01*
X1780254Y0153472D02*
Y0171440D01*
X1780446Y0153620D02*
X1781643Y0154115D01*
X1779418Y0192201D02*
X1780446Y0192990D01*
X1778629Y0191173D02*
X1779418Y0192201D01*
X1778133Y0189976D02*
X1778629Y0191173D01*
X1777964Y0188691D02*
X1778133Y0189976D01*
X1777964Y0175591D02*
Y0188691D01*
X1778629Y0173109D02*
X1779418Y0172081D01*
X1780446Y0171292D01*
X1777964Y0175591D02*
X1778133Y0174306D01*
X1778629Y0173109D01*
X1762971Y0209830D02*
X1763267Y0210217D01*
X1762423Y0209282D02*
X1762971Y0209830D01*
X1762036Y0208986D02*
X1762423Y0209282D01*
X1761670Y0208665D02*
X1762036Y0208986D01*
X1761025Y0208234D02*
X1761670Y0208665D01*
X1760589Y0208019D02*
X1761025Y0208234D01*
X1760167Y0207775D02*
X1760589Y0208019D01*
X1759451Y0207478D02*
X1760167Y0207775D01*
X1759781Y0201694D02*
Y0207615D01*
X1758981Y0207352D02*
X1759451Y0207478D01*
X1750383Y0209282D02*
X1750770Y0208986D01*
X1749835Y0209830D02*
X1750383Y0209282D01*
X1750770Y0208986D02*
X1751135Y0208665D01*
X1749218Y0210583D02*
X1749539Y0210217D01*
X1749835Y0209830D01*
X1752217Y0208019D02*
X1752638Y0207775D01*
X1753355Y0207478D01*
X1751135Y0208665D02*
X1751780Y0208234D01*
X1752217Y0208019D01*
X1758520Y0207196D02*
X1758981Y0207352D01*
X1757759Y0207045D02*
X1758520Y0207196D01*
X1757273Y0207013D02*
X1757759Y0207045D01*
X1756791Y0206949D02*
X1757273Y0207013D01*
X1756632Y0202590D02*
Y0206949D01*
X1758206Y0202538D02*
Y0207134D01*
X1755047Y0207045D02*
X1755532Y0207013D01*
X1754286Y0207196D02*
X1755047Y0207045D01*
X1755532Y0207013D02*
X1756015Y0206949D01*
X1753355Y0207478D02*
X1753825Y0207352D01*
X1754286Y0207196D01*
X1755057Y0201892D02*
Y0207044D01*
X1756015Y0206949D02*
X1756791D01*
X1734666Y0218300D02*
X1747862D01*
X1734604Y0223025D02*
X1751123D01*
X1734666Y0216725D02*
X1747566D01*
X1734497Y0223834D02*
X1734666Y0222549D01*
Y0215151D02*
X1747543D01*
X1734666Y0210426D02*
X1749355D01*
X1734666Y0212001D02*
X1748377D01*
X1734588Y0208852D02*
X1750923D01*
X1734666Y0209449D02*
Y0222549D01*
Y0213576D02*
X1747802D01*
X1734497Y0208165D02*
X1734666Y0209449D01*
X1734130Y0207277D02*
X1754049D01*
X1732903Y0205702D02*
X1779728D01*
X1734001Y0206967D02*
X1734497Y0208165D01*
X1733213Y0205939D02*
X1734001Y0206967D01*
X1732185Y0205151D02*
X1733213Y0205939D01*
X1733010Y0192357D02*
Y0205784D01*
X1730987Y0204655D02*
X1732185Y0205151D01*
X1731435Y0193300D02*
Y0204840D01*
X1729860Y0193634D02*
Y0204506D01*
X1729703Y0204486D02*
X1730987Y0204655D01*
X1728285Y0193655D02*
Y0204486D01*
X1725136Y0193655D02*
Y0204486D01*
X1726710Y0193655D02*
Y0204486D01*
X1732185Y0192990D02*
X1733213Y0192201D01*
X1731910Y0193103D02*
X1780721D01*
X1733728Y0191529D02*
X1778902D01*
X1729703Y0193655D02*
X1730987Y0193485D01*
X1732185Y0192990D01*
X1694090Y0200977D02*
X1754206D01*
X1694090Y0202552D02*
X1756454D01*
X1694090Y0197828D02*
X1753779D01*
X1708049Y0204486D02*
X1729703D01*
X1694090Y0199403D02*
X1753630D01*
X1694090Y0196253D02*
X1754775D01*
X1708049Y0193655D02*
X1729703D01*
X1721986D02*
Y0204486D01*
X1723561Y0193655D02*
Y0204486D01*
X1703085Y0222549D02*
X1703255Y0223834D01*
X1694090Y0223025D02*
X1703148D01*
X1694090Y0221450D02*
X1703085D01*
Y0209449D02*
Y0222549D01*
X1694090Y0219875D02*
X1703085D01*
X1703750Y0206967D02*
X1704539Y0205939D01*
X1703255Y0208165D02*
X1703750Y0206967D01*
X1704539Y0205939D02*
X1705567Y0205151D01*
X1703088Y0209427D02*
Y0222572D01*
X1703085Y0209449D02*
X1703255Y0208165D01*
X1694090Y0218300D02*
X1703085D01*
X1694090Y0224599D02*
X1703572D01*
X1694090Y0216725D02*
X1703085D01*
X1694090Y0215151D02*
X1703085D01*
X1694090Y0213576D02*
X1703085D01*
X1694090Y0208852D02*
X1703164D01*
X1694090Y0207277D02*
X1703622D01*
X1694090Y0212001D02*
X1703085D01*
X1694090Y0210426D02*
X1703085D01*
X1718836Y0193655D02*
Y0204486D01*
X1717262Y0193655D02*
Y0204486D01*
X1720411Y0193655D02*
Y0204486D01*
X1714112Y0193655D02*
Y0204486D01*
X1715687Y0193655D02*
Y0204486D01*
X1710962Y0193655D02*
Y0204486D01*
X1712537Y0193655D02*
Y0204486D01*
X1707813Y0193623D02*
Y0204517D01*
X1709388Y0193655D02*
Y0204486D01*
X1706764Y0204655D02*
X1708049Y0204486D01*
X1705567Y0205151D02*
X1706764Y0204655D01*
Y0193485D02*
X1708049Y0193655D01*
X1694090Y0205702D02*
X1704849D01*
X1706238Y0193267D02*
Y0204873D01*
X1705567Y0192990D02*
X1706764Y0193485D01*
X1694090Y0193103D02*
X1705842D01*
X1704663Y0192296D02*
Y0205844D01*
X1704539Y0192201D02*
X1705567Y0192990D01*
X1734666Y0183655D02*
X1777964D01*
X1734666Y0185229D02*
X1777964D01*
X1734666Y0182080D02*
X1777964D01*
X1734666Y0188379D02*
X1777964D01*
X1734666Y0186804D02*
X1777964D01*
X1734666Y0178930D02*
X1777964D01*
X1734666Y0180505D02*
X1777964D01*
X1734666Y0177355D02*
X1777964D01*
X1734666Y0175591D02*
Y0188691D01*
Y0175781D02*
X1777964D01*
X1734584Y0189314D02*
Y0208826D01*
X1734497Y0189976D02*
X1734666Y0188691D01*
X1734500Y0189954D02*
X1778130D01*
X1733213Y0192201D02*
X1734001Y0191173D01*
X1734497Y0189976D01*
Y0174306D02*
X1734666Y0175591D01*
X1734456Y0174206D02*
X1778175D01*
X1734001Y0173109D02*
X1734497Y0174306D01*
X1733213Y0172081D02*
X1734001Y0173109D01*
X1733635Y0172631D02*
X1778996D01*
X1732185Y0171292D02*
X1733213Y0172081D01*
X1731615Y0171056D02*
X1781016D01*
X1730987Y0170796D02*
X1732185Y0171292D01*
X1729703Y0170627D02*
X1730987Y0170796D01*
X1731435Y0153930D02*
Y0170982D01*
X1730987Y0154115D02*
X1732185Y0153620D01*
X1731910Y0153733D02*
X1780721D01*
X1729860Y0154264D02*
Y0170648D01*
X1729703Y0154285D02*
X1730987Y0154115D01*
X1721986Y0154285D02*
Y0170627D01*
X1708049D02*
X1729703D01*
X1708049Y0154285D02*
X1729703D01*
X1718836D02*
Y0170627D01*
X1720411Y0154285D02*
Y0170627D01*
X1726710Y0154285D02*
Y0170627D01*
X1728285Y0154285D02*
Y0170627D01*
X1723561Y0154285D02*
Y0170627D01*
X1725136Y0154285D02*
Y0170627D01*
X1703750Y0191173D02*
X1704539Y0192201D01*
X1694090Y0191529D02*
X1704024D01*
X1703255Y0189976D02*
X1703750Y0191173D01*
X1703088Y0188713D02*
Y0209427D01*
X1694090Y0189954D02*
X1703252D01*
X1703085Y0175591D02*
X1703255Y0174306D01*
X1703085Y0188691D02*
X1703255Y0189976D01*
Y0174306D02*
X1703750Y0173109D01*
X1703088Y0175568D02*
Y0188713D01*
X1703085Y0175591D02*
Y0188691D01*
X1694090Y0183655D02*
X1703085D01*
X1694090Y0185229D02*
X1703085D01*
X1694090Y0182080D02*
X1703085D01*
X1694090Y0188379D02*
X1703085D01*
X1694090Y0186804D02*
X1703085D01*
X1694090Y0177355D02*
X1703085D01*
X1694090Y0175781D02*
X1703085D01*
X1694090Y0180505D02*
X1703085D01*
X1694090Y0178930D02*
X1703085D01*
X1715687Y0154285D02*
Y0170627D01*
X1714112Y0154285D02*
Y0170627D01*
X1717262Y0154285D02*
Y0170627D01*
X1706764Y0170796D02*
X1708049Y0170627D01*
X1712537Y0154285D02*
Y0170627D01*
X1709388Y0154285D02*
Y0170627D01*
X1710962Y0154285D02*
Y0170627D01*
X1707813Y0154253D02*
Y0170658D01*
X1706764Y0154115D02*
X1708049Y0154285D01*
X1704539Y0172081D02*
X1705567Y0171292D01*
X1703750Y0173109D02*
X1704539Y0172081D01*
X1694090Y0171056D02*
X1706137D01*
X1694090Y0174206D02*
X1703296D01*
X1694090Y0172631D02*
X1704117D01*
X1705567Y0171292D02*
X1706764Y0170796D01*
X1705567Y0153620D02*
X1706764Y0154115D01*
X1706238Y0153897D02*
Y0171014D01*
X1694090Y0153733D02*
X1705842D01*
X1854351Y0147434D02*
X1877767D01*
X1854351Y0149009D02*
X1877767D01*
X1868616Y0126962D02*
X1963584D01*
X1868442Y0127114D02*
Y0196194D01*
X1854351Y0145859D02*
X1877767D01*
X1871592Y0115091D02*
Y0208888D01*
X1870017Y0116098D02*
Y0207881D01*
X1869619Y0125387D02*
X1962723D01*
X1854185Y0150584D02*
X1877934D01*
X1853413Y0152159D02*
X1878705D01*
X1854351Y0144285D02*
X1877767D01*
X1854351Y0142710D02*
X1877767D01*
X1854351Y0141135D02*
X1877767D01*
X1854351Y0136411D02*
X1877767D01*
X1854141Y0134836D02*
X1877978D01*
X1854351Y0139560D02*
X1877767D01*
X1854351Y0137985D02*
X1877767D01*
X1870301Y0115938D02*
X1877998D01*
X1869770Y0123812D02*
X1962659D01*
X1870692Y0115745D02*
X1871337Y0115314D01*
X1869834Y0116204D02*
X1870256Y0115961D01*
X1870692Y0115745D01*
X1872423Y0114363D02*
X1877839D01*
X1872089Y0114697D02*
X1872638Y0114149D01*
X1872934Y0113762D01*
X1871337Y0115314D02*
X1871703Y0114993D01*
X1872089Y0114697D01*
X1869199Y0122237D02*
X1963341D01*
X1866979Y0120663D02*
X2009003D01*
X1853568Y0117513D02*
X1878733D01*
X1866940Y0116966D02*
X1867426Y0116935D01*
X1868187Y0116783D01*
X1868648Y0116627D02*
X1869118Y0116501D01*
X1869834Y0116204D01*
X1868442Y0116696D02*
Y0121394D01*
X1868187Y0116783D02*
X1868648Y0116627D01*
X1866868Y0127870D02*
Y0195437D01*
X1863718Y0127081D02*
Y0196226D01*
X1865293Y0127861D02*
Y0195446D01*
Y0116979D02*
Y0120646D01*
X1866868Y0116976D02*
Y0120637D01*
X1862143Y0116110D02*
Y0207869D01*
X1863718Y0116703D02*
Y0121426D01*
X1854351Y0136221D02*
Y0149321D01*
X1854182Y0150605D02*
X1854351Y0149321D01*
X1854182Y0134936D02*
X1854351Y0136221D01*
X1854269Y0149946D02*
Y0174966D01*
X1853687Y0151803D02*
X1854182Y0150605D01*
X1858994Y0113521D02*
Y0210458D01*
X1860568Y0115109D02*
Y0208870D01*
X1854269Y0116074D02*
Y0135596D01*
X1853687Y0133739D02*
X1854182Y0134936D01*
X1865682Y0117030D02*
X1866458D01*
X1865199Y0116966D02*
X1865682Y0117030D01*
X1866458D02*
X1866940Y0116966D01*
X1864714Y0116935D02*
X1865199Y0116966D01*
X1863953Y0116783D02*
X1864714Y0116935D01*
X1863492Y0116627D02*
X1863953Y0116783D01*
X1863022Y0116501D02*
X1863492Y0116627D01*
X1862305Y0116204D02*
X1863022Y0116501D01*
X1861884Y0115961D02*
X1862305Y0116204D01*
X1861447Y0115745D02*
X1861884Y0115961D01*
X1860802Y0115314D02*
X1861447Y0115745D01*
X1854303Y0115938D02*
X1861839D01*
X1860436Y0114993D02*
X1860802Y0115314D01*
X1853797Y0117215D02*
X1854293Y0116017D01*
X1854462Y0114733D01*
X1860050Y0114697D02*
X1860436Y0114993D01*
X1859502Y0114149D02*
X1860050Y0114697D01*
X1854462Y0114363D02*
X1859717D01*
X1859205Y0113762D02*
X1859502Y0114149D01*
X1872934Y0102496D02*
X1873255Y0102862D01*
X1872934Y0113762D02*
X1873255Y0113397D01*
X1872293Y0101765D02*
X1877839D01*
X1872638Y0102110D02*
X1872934Y0102496D01*
X1872089Y0101561D02*
X1872638Y0102110D01*
X1871703Y0101265D02*
X1872089Y0101561D01*
X1871337Y0100944D02*
X1871703Y0101265D01*
X1871592Y0087997D02*
Y0101167D01*
X1870692Y0100513D02*
X1871337Y0100944D01*
X1870256Y0100298D02*
X1870692Y0100513D01*
X1860050Y0101561D02*
X1860436Y0101265D01*
X1859502Y0102110D02*
X1860050Y0101561D01*
X1860436Y0101265D02*
X1860802Y0100944D01*
X1859205Y0102496D02*
X1859502Y0102110D01*
X1854462Y0101765D02*
X1859846D01*
X1861447Y0100513D02*
X1861884Y0100298D01*
X1869834Y0100054D02*
X1870256Y0100298D01*
X1860568Y0087997D02*
Y0101149D01*
X1860802Y0100944D02*
X1861447Y0100513D01*
X1870070Y0100190D02*
X1878029D01*
X1869118Y0099757D02*
X1869834Y0100054D01*
X1868647Y0099632D02*
X1869118Y0099757D01*
X1868187Y0099475D02*
X1868647Y0099632D01*
X1867426Y0099324D02*
X1868187Y0099475D01*
X1870017Y0087997D02*
Y0100160D01*
X1868442Y0087997D02*
Y0099562D01*
X1866940Y0099292D02*
X1867426Y0099324D01*
X1865199Y0099292D02*
X1865682Y0099228D01*
X1866458D02*
X1866940Y0099292D01*
X1863022Y0099757D02*
X1863492Y0099632D01*
X1862305Y0100054D02*
X1863022Y0099757D01*
X1863492Y0099632D02*
X1863953Y0099475D01*
X1861884Y0100298D02*
X1862305Y0100054D01*
X1854272Y0100190D02*
X1862070D01*
X1863953Y0099475D02*
X1864714Y0099324D01*
X1865199Y0099292D01*
X1862143Y0087997D02*
Y0100148D01*
X1863718Y0087997D02*
Y0099555D01*
X1858884Y0113397D02*
X1859205Y0113762D01*
X1858454Y0112752D02*
X1858884Y0113397D01*
X1858238Y0112315D02*
X1858454Y0112752D01*
X1857995Y0111893D02*
X1858238Y0112315D01*
X1857698Y0111177D02*
X1857995Y0111893D01*
X1857572Y0110707D02*
X1857698Y0111177D01*
X1857419Y0110255D02*
Y0213724D01*
X1857416Y0110246D02*
X1857572Y0110707D01*
X1857264Y0109485D02*
X1857416Y0110246D01*
X1857233Y0109000D02*
X1857264Y0109485D01*
X1854462Y0111214D02*
X1857713D01*
X1854462Y0112789D02*
X1858478D01*
X1854462Y0109639D02*
X1857295D01*
X1857169Y0108517D02*
X1857233Y0109000D01*
X1857169Y0108129D02*
Y0108517D01*
Y0107741D02*
Y0108129D01*
X1854462Y0108064D02*
X1857169D01*
X1855844Y0087997D02*
Y0268929D01*
X1854462Y0101525D02*
Y0114733D01*
X1857995Y0104365D02*
X1858238Y0103943D01*
X1857698Y0105081D02*
X1857995Y0104365D01*
X1858238Y0103943D02*
X1858454Y0103507D01*
X1857416Y0106012D02*
X1857572Y0105551D01*
X1857698Y0105081D01*
X1858884Y0102862D02*
X1859205Y0102496D01*
X1858994Y0087997D02*
Y0102737D01*
X1857419Y0087997D02*
Y0106003D01*
X1858454Y0103507D02*
X1858884Y0102862D01*
X1857264Y0106773D02*
X1857416Y0106012D01*
X1854462Y0106490D02*
X1857321D01*
X1854462Y0104915D02*
X1857767D01*
X1857169Y0107741D02*
X1857233Y0107259D01*
X1857264Y0106773D01*
X1854462Y0103340D02*
X1858565D01*
X1854293Y0100241D02*
X1854462Y0101525D01*
X1853797Y0099044D02*
X1854293Y0100241D01*
X1854269Y0087997D02*
Y0100184D01*
X1851870Y0153620D02*
X1852898Y0152831D01*
X1824224D02*
X1825252Y0153620D01*
X1852898Y0152831D02*
X1853687Y0151803D01*
X1824348Y0152926D02*
Y0171986D01*
X1823436Y0151803D02*
X1824224Y0152831D01*
X1822940Y0134936D02*
X1823436Y0133739D01*
X1822940Y0150605D02*
X1823436Y0151803D01*
X1852898Y0132711D02*
X1853687Y0133739D01*
X1822773Y0149341D02*
Y0175570D01*
Y0136200D02*
Y0149341D01*
X1822771Y0149321D02*
X1822940Y0150605D01*
X1808607Y0152159D02*
X1823709D01*
X1809379Y0150584D02*
X1822937D01*
X1809545Y0145859D02*
X1822771D01*
X1809545Y0137985D02*
X1822771D01*
Y0136221D02*
X1822940Y0134936D01*
X1809334Y0134836D02*
X1822981D01*
X1822771Y0136221D02*
Y0149321D01*
X1809545Y0136411D02*
X1822771D01*
X1853320Y0133261D02*
X1878799D01*
X1851870Y0131922D02*
X1852898Y0132711D01*
X1851300Y0131686D02*
X1880819D01*
X1823436Y0133739D02*
X1824224Y0132711D01*
X1825252Y0131922D01*
X1850673Y0131426D02*
X1851870Y0131922D01*
X1849388Y0131257D02*
X1850673Y0131426D01*
X1827734Y0131257D02*
X1849388D01*
X1825252Y0131922D02*
X1826450Y0131426D01*
X1827734Y0131257D01*
X1694090Y0128537D02*
X2009003D01*
X1694090Y0130111D02*
X2009003D01*
X1758782Y0126962D02*
X1863584D01*
X1808513Y0133261D02*
X1823802D01*
X1806494Y0131686D02*
X1825822D01*
X1759720Y0122237D02*
X1863001D01*
X1757973Y0120663D02*
X1865221D01*
X1759948Y0125387D02*
X1862581D01*
X1760189Y0123812D02*
X1862430D01*
X1809545Y0144285D02*
X1822771D01*
X1809545Y0147434D02*
X1822771D01*
X1809545Y0142710D02*
X1822771D01*
X1809376Y0150605D02*
X1809545Y0149321D01*
Y0149009D02*
X1822771D01*
X1809545Y0141135D02*
X1822771D01*
X1809545Y0136221D02*
Y0149321D01*
Y0139560D02*
X1822771D01*
X1809376Y0134936D02*
X1809545Y0136221D01*
X1808880Y0133739D02*
X1809376Y0134936D01*
X1808600Y0152168D02*
Y0172744D01*
X1808091Y0152831D02*
X1808880Y0151803D01*
X1809376Y0150605D01*
X1779418Y0152831D02*
X1780446Y0153620D01*
X1807063D02*
X1808091Y0152831D01*
Y0132711D02*
X1808880Y0133739D01*
X1807063Y0131922D02*
X1808091Y0132711D01*
X1779418D02*
X1780446Y0131922D01*
X1805866Y0131426D02*
X1807063Y0131922D01*
X1804581Y0131257D02*
X1805866Y0131426D01*
X1803876Y0119875D02*
Y0131257D01*
X1800726Y0119875D02*
Y0131257D01*
X1797576Y0119875D02*
Y0131257D01*
X1799151Y0119875D02*
Y0131257D01*
X1794427Y0119875D02*
Y0131257D01*
X1796002Y0119875D02*
Y0131257D01*
X1791277Y0119875D02*
Y0131257D01*
X1792852Y0119875D02*
Y0131257D01*
X1782928D02*
X1804581D01*
X1781643Y0131426D02*
X1782928Y0131257D01*
Y0119875D02*
X1804581D01*
X1780446Y0131922D02*
X1781643Y0131426D01*
X1731615Y0131686D02*
X1781016D01*
X1786553Y0119875D02*
Y0131257D01*
X1789702Y0119875D02*
Y0131257D01*
X1783403Y0119875D02*
Y0131257D01*
X1784978Y0119875D02*
Y0131257D01*
X1843246Y0119696D02*
Y0131257D01*
X1841671Y0119696D02*
Y0131257D01*
X1844820Y0119696D02*
Y0131257D01*
X1838521Y0119696D02*
Y0131257D01*
X1840096Y0119696D02*
Y0131257D01*
X1852694Y0118483D02*
Y0132555D01*
X1851120Y0119388D02*
Y0131612D01*
X1849545Y0119690D02*
Y0131278D01*
X1846395Y0119696D02*
Y0131257D01*
X1847970Y0119696D02*
Y0131257D01*
X1835372Y0119696D02*
Y0131257D01*
X1833797Y0119696D02*
Y0131257D01*
X1836946Y0119696D02*
Y0131257D01*
X1830647Y0119696D02*
Y0131257D01*
X1832222Y0119696D02*
Y0131257D01*
X1827498Y0119651D02*
Y0131288D01*
X1829072Y0119696D02*
Y0131257D01*
X1824348Y0118253D02*
Y0132616D01*
X1825923Y0119263D02*
Y0131644D01*
X1850783Y0119527D02*
X1851980Y0119031D01*
X1849498Y0119696D02*
X1850783Y0119527D01*
X1851844Y0119088D02*
X1880457D01*
X1826560Y0119527D02*
X1827845Y0119696D01*
X1849498D01*
X1851980Y0119031D02*
X1853008Y0118243D01*
X1825363Y0119031D02*
X1826560Y0119527D01*
X1853008Y0118243D02*
X1853797Y0117215D01*
X1824335Y0118243D02*
X1825363Y0119031D01*
X1823546Y0117215D02*
X1824335Y0118243D01*
X1808788Y0117513D02*
X1823775D01*
X1807223Y0119088D02*
X1825499D01*
X1823050Y0116017D02*
X1823546Y0117215D01*
X1822881Y0114733D02*
X1823050Y0116017D01*
X1809410Y0115938D02*
X1823040D01*
X1823050Y0100241D02*
X1823546Y0099044D01*
X1809237Y0100190D02*
X1823071D01*
X1809545Y0104915D02*
X1822881D01*
Y0101525D02*
X1823050Y0100241D01*
X1813324Y0087997D02*
Y0268929D01*
X1811750Y0087997D02*
Y0268929D01*
X1814899Y0087997D02*
Y0268929D01*
X1810175Y0087997D02*
Y0268929D01*
X1808600Y0117758D02*
Y0133374D01*
X1821198Y0087997D02*
Y0268929D01*
X1819624Y0087997D02*
Y0268929D01*
X1822773Y0087997D02*
Y0136200D01*
X1816474Y0087997D02*
Y0268929D01*
X1818049Y0087997D02*
Y0268929D01*
X1805450Y0119761D02*
Y0131372D01*
X1802301Y0119875D02*
Y0131257D01*
X1804581Y0119875D02*
X1805866Y0119706D01*
X1781828Y0119730D02*
Y0131402D01*
X1788128Y0119875D02*
Y0131257D01*
X1807025Y0119226D02*
Y0131906D01*
X1805866Y0119706D02*
X1807063Y0119210D01*
X1781643Y0119706D02*
X1782928Y0119875D01*
X1780446Y0119210D02*
X1781643Y0119706D01*
X1809545Y0109639D02*
X1822881D01*
X1809545Y0111214D02*
X1822881D01*
X1809545Y0108064D02*
X1822881D01*
X1809545Y0114363D02*
X1822881D01*
X1809545Y0112789D02*
X1822881D01*
X1809545Y0106490D02*
X1822881D01*
X1809545Y0103340D02*
X1822881D01*
X1809545Y0101811D02*
Y0114911D01*
X1822881Y0101525D02*
Y0114733D01*
X1808880Y0117393D02*
X1809376Y0116196D01*
X1808091Y0118421D02*
X1808880Y0117393D01*
X1809376Y0116196D02*
X1809545Y0114911D01*
X1779418Y0118421D02*
X1780446Y0119210D01*
X1807063D02*
X1808091Y0118421D01*
X1809376Y0100527D02*
X1809545Y0101811D01*
X1809539Y0101765D02*
X1822881D01*
X1808880Y0099330D02*
X1809376Y0100527D01*
X1808091Y0098302D02*
X1808880Y0099330D01*
X1866868Y0087997D02*
Y0099282D01*
X1865682Y0099228D02*
X1866458D01*
X1866868Y0084293D02*
Y0084603D01*
X1865293Y0084296D02*
Y0084603D01*
X1865682Y0084347D02*
X1866458D01*
X1870017Y0083416D02*
Y0084603D01*
X1868442Y0084014D02*
Y0084603D01*
X1871592Y0082408D02*
Y0084603D01*
X1866458Y0084347D02*
X1866940Y0084284D01*
X1867426Y0084252D01*
X1853468Y0098615D02*
X1878833D01*
X1851531Y0097041D02*
X1880770D01*
X1853835Y0084603D02*
X1878466D01*
X1865293Y0087997D02*
Y0099280D01*
X1853901Y0084442D02*
X1878400D01*
X1865199Y0084284D02*
X1865682Y0084347D01*
X1864714Y0084252D02*
X1865199Y0084284D01*
X1862143Y0083428D02*
Y0084603D01*
X1863718Y0084021D02*
Y0084603D01*
X1870984Y0082867D02*
X1877925D01*
X1870692Y0083062D02*
X1871337Y0082632D01*
X1871703Y0082311D01*
X1869834Y0083521D02*
X1870256Y0083278D01*
X1870692Y0083062D01*
X1872771Y0081293D02*
X1877839D01*
X1872638Y0081466D02*
X1872934Y0081080D01*
X1873255Y0080714D01*
X1871703Y0082311D02*
X1872089Y0082014D01*
X1872638Y0081466D01*
X1868187Y0084100D02*
X1868648Y0083944D01*
X1867426Y0084252D02*
X1868187Y0084100D01*
X1868648Y0083944D02*
X1869118Y0083818D01*
X1863953Y0084100D02*
X1864714Y0084252D01*
X1863492Y0083944D02*
X1863953Y0084100D01*
X1863022Y0083818D02*
X1863492Y0083944D01*
X1869118Y0083818D02*
X1869834Y0083521D01*
X1862305D02*
X1863022Y0083818D01*
X1861884Y0083278D02*
X1862305Y0083521D01*
X1861447Y0083062D02*
X1861884Y0083278D01*
X1860802Y0082632D02*
X1861447Y0083062D01*
X1860436Y0082311D02*
X1860802Y0082632D01*
X1860568Y0082426D02*
Y0084603D01*
X1860050Y0082014D02*
X1860436Y0082311D01*
X1859502Y0081466D02*
X1860050Y0082014D01*
X1859205Y0081080D02*
X1859502Y0081466D01*
X1858884Y0080714D02*
X1859205Y0081080D01*
X1857419Y0077572D02*
Y0084603D01*
X1858994Y0080838D02*
Y0084603D01*
X1853008Y0098016D02*
X1853797Y0099044D01*
X1851980Y0097227D02*
X1853008Y0098016D01*
X1854269Y0083555D02*
Y0084603D01*
X1852694Y0087997D02*
Y0097775D01*
X1851120Y0087997D02*
Y0096870D01*
X1854376Y0082867D02*
X1861155D01*
X1854462Y0081293D02*
X1859369D01*
X1853835Y0084603D02*
X1854293Y0083498D01*
X1854462Y0082213D01*
X1858454Y0080069D02*
X1858884Y0080714D01*
X1858238Y0079632D02*
X1858454Y0080069D01*
X1857995Y0079211D02*
X1858238Y0079632D01*
X1857698Y0078494D02*
X1857995Y0079211D01*
X1857572Y0078024D02*
X1857698Y0078494D01*
X1857416Y0077563D02*
X1857572Y0078024D01*
X1857264Y0076802D02*
X1857416Y0077563D01*
X1857264Y0074090D02*
X1857416Y0073330D01*
X1857233Y0076317D02*
X1857264Y0076802D01*
X1857233Y0074576D02*
X1857264Y0074090D01*
X1854462Y0078143D02*
X1857604D01*
X1854462Y0079718D02*
X1858281D01*
X1854462Y0076568D02*
X1857249D01*
X1857169Y0075834D02*
X1857233Y0076317D01*
X1857169Y0075446D02*
Y0075834D01*
Y0075059D02*
X1857233Y0074576D01*
X1854462Y0073419D02*
X1857398D01*
X1857169Y0075059D02*
Y0075446D01*
X1854462Y0074993D02*
X1857178D01*
X1872934Y0069813D02*
X1873255Y0070179D01*
X1872638Y0069427D02*
X1872934Y0069813D01*
X1871849Y0068694D02*
X1877880D01*
X1872089Y0068878D02*
X1872638Y0069427D01*
X1871703Y0068582D02*
X1872089Y0068878D01*
X1871592Y0055788D02*
Y0068485D01*
X1871337Y0068261D02*
X1871703Y0068582D01*
X1870692Y0067830D02*
X1871337Y0068261D01*
X1870256Y0067615D02*
X1870692Y0067830D01*
X1870017Y0055788D02*
Y0067477D01*
X1869834Y0067371D02*
X1870256Y0067615D01*
X1869118Y0067075D02*
X1869834Y0067371D01*
X1869226Y0067119D02*
X1878258D01*
X1868647Y0066949D02*
X1869118Y0067075D01*
X1868187Y0066792D02*
X1868647Y0066949D01*
X1868442Y0063366D02*
Y0066879D01*
X1867426Y0066641D02*
X1868187Y0066792D01*
X1864714Y0066641D02*
X1865199Y0066609D01*
X1866940D02*
X1867426Y0066641D01*
X1869382Y0062395D02*
X1963039D01*
X1867068Y0063970D02*
X1964666D01*
X1869967Y0060820D02*
X1962607D01*
X1866458Y0066546D02*
X1866940Y0066609D01*
X1866868Y0064007D02*
Y0066600D01*
X1869827Y0059246D02*
X1962882D01*
X1868843Y0057671D02*
X1964116D01*
X1868442Y0055788D02*
Y0057341D01*
X1866868Y0055789D02*
Y0056700D01*
X1865682Y0066546D02*
X1866458D01*
X1853045Y0065545D02*
X1879256D01*
X1865199Y0066609D02*
X1865682Y0066546D01*
X1865293Y0063911D02*
Y0066597D01*
Y0055789D02*
Y0056797D01*
X1858454Y0070824D02*
X1858884Y0070179D01*
X1858238Y0071260D02*
X1858454Y0070824D01*
X1858884Y0070179D02*
X1859205Y0069813D01*
X1857698Y0072398D02*
X1857995Y0071682D01*
X1858238Y0071260D01*
X1860050Y0068878D02*
X1860436Y0068582D01*
X1859502Y0069427D02*
X1860050Y0068878D01*
X1860436Y0068582D02*
X1860802Y0068261D01*
X1858994Y0055790D02*
Y0070055D01*
X1859205Y0069813D02*
X1859502Y0069427D01*
X1857572Y0072869D02*
X1857698Y0072398D01*
X1854462Y0071844D02*
X1857928D01*
X1854462Y0070269D02*
X1858824D01*
X1854462Y0069006D02*
Y0082213D01*
X1857416Y0073330D02*
X1857572Y0072869D01*
X1857419Y0055790D02*
Y0073321D01*
X1854421Y0068694D02*
X1860290D01*
X1855844Y0055790D02*
Y0084603D01*
X1854293Y0067721D02*
X1854462Y0069006D01*
X1863022Y0067075D02*
X1863492Y0066949D01*
X1862305Y0067371D02*
X1863022Y0067075D01*
X1863492Y0066949D02*
X1863953Y0066792D01*
X1861447Y0067830D02*
X1861884Y0067615D01*
X1862305Y0067371D01*
X1863718Y0062999D02*
Y0066872D01*
X1863953Y0066792D02*
X1864714Y0066641D01*
X1862143Y0055789D02*
Y0067465D01*
X1863718Y0055789D02*
Y0057708D01*
X1860802Y0068261D02*
X1861447Y0067830D01*
X1853797Y0066524D02*
X1854293Y0067721D01*
X1854044Y0067119D02*
X1862914D01*
X1853008Y0065496D02*
X1853797Y0066524D01*
X1851980Y0064707D02*
X1853008Y0065496D01*
X1860568Y0055789D02*
Y0068466D01*
X1854269Y0055790D02*
Y0067664D01*
X1852694Y0055791D02*
Y0065255D01*
X1851120Y0055791D02*
Y0064351D01*
X1850783Y0096731D02*
X1851980Y0097227D01*
X1849498Y0096562D02*
X1850783Y0096731D01*
X1849545Y0087997D02*
Y0096568D01*
X1847970Y0087997D02*
Y0096562D01*
X1827845D02*
X1849498D01*
X1843246Y0087997D02*
Y0096562D01*
X1841671Y0087997D02*
Y0096562D01*
X1844820Y0087997D02*
Y0096562D01*
X1838521Y0087997D02*
Y0096562D01*
X1840096Y0087997D02*
Y0096562D01*
X1825363Y0097227D02*
X1826560Y0096731D01*
X1824335Y0098016D02*
X1825363Y0097227D01*
X1805924Y0097041D02*
X1825812D01*
X1823546Y0099044D02*
X1824335Y0098016D01*
X1808332Y0098615D02*
X1823874D01*
X1826560Y0096731D02*
X1827845Y0096562D01*
X1827498Y0087997D02*
Y0096608D01*
X1824348Y0087997D02*
Y0098005D01*
X1825923Y0087997D02*
Y0096995D01*
X1836946Y0087997D02*
Y0096562D01*
X1835372Y0087997D02*
Y0096562D01*
X1846395Y0087997D02*
Y0096562D01*
X1832222Y0087997D02*
Y0096562D01*
X1833797Y0087997D02*
Y0096562D01*
X1830647Y0087997D02*
Y0096562D01*
X1829072Y0087997D02*
Y0096562D01*
X1823050Y0083498D02*
X1823508Y0084603D01*
X1822881Y0082213D02*
X1823050Y0083498D01*
X1809545Y0078143D02*
X1822881D01*
X1687349Y0093891D02*
X1999022D01*
X1687349Y0095466D02*
X2011443D01*
X1687349Y0092316D02*
X1996801D01*
X1687349Y0090741D02*
X1996230D01*
X1687349Y0089167D02*
X1996381D01*
X1687349Y0087997D02*
X1997008D01*
X1808483Y0084603D02*
X1823508D01*
X1808607Y0084442D02*
X1823441D01*
X1809379Y0082867D02*
X1822967D01*
X1808600Y0087997D02*
Y0098965D01*
X1807063Y0097513D02*
X1808091Y0098302D01*
X1805866Y0097017D02*
X1807063Y0097513D01*
X1807025Y0087997D02*
Y0097497D01*
X1804581Y0096848D02*
X1805866Y0097017D01*
X1805450Y0087997D02*
Y0096962D01*
X1803876Y0087997D02*
Y0096848D01*
X1802301Y0087997D02*
Y0096848D01*
X1799151Y0087997D02*
Y0096848D01*
X1800726Y0087997D02*
Y0096848D01*
X1781643Y0097017D02*
X1782928Y0096848D01*
X1780446Y0097513D02*
X1781643Y0097017D01*
X1782928Y0096848D02*
X1804581D01*
X1779418Y0098302D02*
X1780446Y0097513D01*
X1731045Y0097041D02*
X1781586D01*
X1788128Y0087997D02*
Y0096848D01*
X1789702Y0087997D02*
Y0096848D01*
X1781828Y0087997D02*
Y0096992D01*
X1786553Y0087997D02*
Y0096848D01*
X1809545Y0076568D02*
X1822881D01*
X1809545Y0079718D02*
X1822881D01*
X1809545Y0074993D02*
X1822881D01*
X1809376Y0082889D02*
X1809545Y0081604D01*
Y0081293D02*
X1822881D01*
Y0069006D02*
Y0082213D01*
X1809545Y0070269D02*
X1822881D01*
X1809545Y0073419D02*
X1822881D01*
X1809545Y0071844D02*
X1822881D01*
X1792852Y0087997D02*
Y0096848D01*
X1791277Y0087997D02*
Y0096848D01*
X1794427Y0087997D02*
Y0096848D01*
X1783403Y0087997D02*
Y0096848D01*
X1784978Y0087997D02*
Y0096848D01*
X1808483Y0084603D02*
X1808880Y0084086D01*
X1809376Y0082889D01*
X1796002Y0087997D02*
Y0096848D01*
X1797576Y0087997D02*
Y0096848D01*
X1850783Y0064211D02*
X1851980Y0064707D01*
X1849498Y0064042D02*
X1850783Y0064211D01*
X1826560D02*
X1827845Y0064042D01*
X1824348Y0055794D02*
Y0065486D01*
X1825363Y0064707D02*
X1826560Y0064211D01*
X1849545Y0055791D02*
Y0064048D01*
X1844820Y0055791D02*
Y0064042D01*
X1843246Y0055792D02*
Y0064042D01*
X1825923Y0055794D02*
Y0064475D01*
X1827498Y0055794D02*
Y0064088D01*
X1823050Y0067721D02*
X1823546Y0066524D01*
X1809335Y0067119D02*
X1823299D01*
X1808513Y0065545D02*
X1824297D01*
X1822881Y0069006D02*
X1823050Y0067721D01*
X1809545Y0068694D02*
X1822922D01*
X1823546Y0066524D02*
X1824335Y0065496D01*
X1825363Y0064707D01*
X1821198Y0055795D02*
Y0084603D01*
X1822773Y0055795D02*
Y0084603D01*
X1835372Y0055793D02*
Y0064042D01*
X1833797Y0055793D02*
Y0064042D01*
X1836946Y0055793D02*
Y0064042D01*
X1830647Y0055793D02*
Y0064042D01*
X1832222Y0055793D02*
Y0064042D01*
X1846395Y0055791D02*
Y0064042D01*
X1841671Y0055792D02*
Y0064042D01*
X1847970Y0055791D02*
Y0064042D01*
X1838521Y0055792D02*
Y0064042D01*
X1840096Y0055792D02*
Y0064042D01*
X1806494Y0063970D02*
X1865532D01*
X1759661Y0062395D02*
X1863218D01*
X1760407Y0059246D02*
X1862773D01*
X1827845Y0064042D02*
X1849498D01*
X1760416Y0060820D02*
X1862633D01*
X1694090Y0056096D02*
X2018318D01*
X1694090Y0055812D02*
X2018318Y0055768D01*
X1829072Y0055794D02*
Y0064042D01*
X1759626Y0057671D02*
X1863757D01*
X1811750Y0055796D02*
Y0084603D01*
X1810175Y0055796D02*
Y0084603D01*
X1809376Y0067220D02*
X1809545Y0068504D01*
Y0081604D01*
X1808880Y0066022D02*
X1809376Y0067220D01*
X1818049Y0055795D02*
Y0084603D01*
X1816474Y0055795D02*
Y0084603D01*
X1819624Y0055795D02*
Y0084603D01*
X1813324Y0055796D02*
Y0084603D01*
X1814899Y0055796D02*
Y0084603D01*
X1808091Y0064995D02*
X1808880Y0066022D01*
X1807063Y0064206D02*
X1808091Y0064995D01*
X1805866Y0063710D02*
X1807063Y0064206D01*
X1779418Y0064995D02*
X1780446Y0064206D01*
X1731615Y0063970D02*
X1781015D01*
X1808600Y0055796D02*
Y0065657D01*
X1807025Y0055797D02*
Y0064190D01*
X1780446Y0064206D02*
X1781643Y0063710D01*
X1804581Y0063541D02*
X1805866Y0063710D01*
X1797576Y0055798D02*
Y0063541D01*
X1796002Y0055798D02*
Y0063541D01*
X1799151Y0055798D02*
Y0063541D01*
X1792852Y0055799D02*
Y0063541D01*
X1794427Y0055798D02*
Y0063541D01*
X1805450Y0055797D02*
Y0063655D01*
X1803876Y0055797D02*
Y0063541D01*
X1800726Y0055797D02*
Y0063541D01*
X1802301Y0055797D02*
Y0063541D01*
X1784978Y0055800D02*
Y0063541D01*
X1783403Y0055800D02*
Y0063541D01*
X1782928D02*
X1804581D01*
X1781643Y0063710D02*
X1782928Y0063541D01*
X1781828Y0055800D02*
Y0063685D01*
X1789702Y0055799D02*
Y0063541D01*
X1791277Y0055799D02*
Y0063541D01*
X1786553Y0055799D02*
Y0063541D01*
X1788128Y0055799D02*
Y0063541D01*
X1778679Y0151867D02*
Y0173044D01*
X1778629Y0151803D02*
X1779418Y0152831D01*
X1778133Y0150605D02*
X1778629Y0151803D01*
X1777964Y0149321D02*
X1778133Y0150605D01*
Y0134936D02*
X1778629Y0133739D01*
X1780254Y0119062D02*
Y0132070D01*
X1778629Y0133739D02*
X1779418Y0132711D01*
X1778629Y0117393D02*
X1779418Y0118421D01*
X1778679Y0117458D02*
Y0133674D01*
X1778133Y0116196D02*
X1778629Y0117393D01*
X1777964Y0136221D02*
X1778133Y0134936D01*
X1777964Y0136221D02*
Y0149321D01*
X1759781Y0125757D02*
Y0196213D01*
X1764506Y0111881D02*
Y0212153D01*
X1762931Y0114212D02*
Y0209790D01*
X1761356Y0115540D02*
Y0208455D01*
X1759781Y0116373D02*
Y0122351D01*
X1777964Y0114911D02*
X1778133Y0116196D01*
X1763611Y0113397D02*
X1764042Y0112752D01*
X1764017Y0112789D02*
X1777964D01*
X1762994Y0114149D02*
X1763290Y0113762D01*
X1763611Y0113397D01*
X1764782Y0111214D02*
X1777964D01*
X1764501Y0111893D02*
X1764797Y0111177D01*
X1764923Y0110707D01*
X1764042Y0112752D02*
X1764257Y0112315D01*
X1764501Y0111893D01*
X1760657Y0115938D02*
X1778099D01*
X1760612Y0115961D02*
X1761048Y0115745D01*
X1761693Y0115314D01*
X1759474Y0116501D02*
X1760190Y0116204D01*
X1760612Y0115961D01*
X1762445Y0114697D02*
X1762994Y0114149D01*
X1762779Y0114363D02*
X1777964D01*
X1761693Y0115314D02*
X1762059Y0114993D01*
X1762445Y0114697D01*
X1758206Y0127333D02*
Y0195370D01*
X1756632Y0127748D02*
Y0195318D01*
Y0117030D02*
Y0120359D01*
X1758206Y0116850D02*
Y0120774D01*
X1756814Y0117030D02*
X1757296Y0116966D01*
X1757782Y0116935D01*
X1755555Y0116966D02*
X1756038Y0117030D01*
X1756814D01*
X1755057Y0127457D02*
Y0196015D01*
X1755070Y0116935D02*
X1755555Y0116966D01*
X1753482Y0126189D02*
Y0207444D01*
X1755057Y0116932D02*
Y0120650D01*
X1751907Y0115796D02*
Y0208171D01*
X1753482Y0116529D02*
Y0121918D01*
X1748758Y0112646D02*
Y0211287D01*
X1750332Y0114623D02*
Y0209333D01*
X1758543Y0116783D02*
X1759003Y0116627D01*
X1757782Y0116935D02*
X1758543Y0116783D01*
X1759003Y0116627D02*
X1759474Y0116501D01*
X1754309Y0116783D02*
X1755070Y0116935D01*
X1753848Y0116627D02*
X1754309Y0116783D01*
X1753378Y0116501D02*
X1753848Y0116627D01*
X1752661Y0116204D02*
X1753378Y0116501D01*
X1752240Y0115961D02*
X1752661Y0116204D01*
X1751803Y0115745D02*
X1752240Y0115961D01*
X1751158Y0115314D02*
X1751803Y0115745D01*
X1750792Y0114993D02*
X1751158Y0115314D01*
X1750406Y0114697D02*
X1750792Y0114993D01*
X1749858Y0114149D02*
X1750406Y0114697D01*
X1749562Y0113762D02*
X1749858Y0114149D01*
X1749241Y0113397D02*
X1749562Y0113762D01*
X1748810Y0112752D02*
X1749241Y0113397D01*
X1748594Y0112315D02*
X1748810Y0112752D01*
X1748351Y0111893D02*
X1748594Y0112315D01*
X1748054Y0111177D02*
X1748351Y0111893D01*
X1777104Y0087997D02*
Y0268929D01*
X1775529Y0087997D02*
Y0268929D01*
X1777964Y0101811D02*
Y0114911D01*
X1773954Y0087997D02*
Y0268929D01*
X1765327Y0107741D02*
Y0108129D01*
X1770805Y0087997D02*
Y0268929D01*
X1769230Y0087997D02*
Y0268929D01*
X1772380Y0087997D02*
Y0268929D01*
X1766080Y0087997D02*
Y0268929D01*
X1767655Y0087997D02*
Y0268929D01*
X1765231Y0109485D02*
X1765263Y0109000D01*
X1765201Y0109639D02*
X1777964D01*
X1765263Y0109000D02*
X1765327Y0108517D01*
X1764923Y0110707D02*
X1765080Y0110246D01*
X1765231Y0109485D01*
X1765327Y0108129D02*
Y0108517D01*
Y0108064D02*
X1777964D01*
X1765263Y0107259D02*
X1765327Y0107741D01*
X1765231Y0106773D02*
X1765263Y0107259D01*
X1765175Y0106490D02*
X1777964D01*
X1765080Y0106012D02*
X1765231Y0106773D01*
X1764728Y0104915D02*
X1777964D01*
X1764923Y0105551D02*
X1765080Y0106012D01*
X1764797Y0105081D02*
X1764923Y0105551D01*
X1777964Y0101811D02*
X1778133Y0100527D01*
X1764501Y0104365D02*
X1764797Y0105081D01*
X1778133Y0100527D02*
X1778629Y0099330D01*
X1764506Y0087997D02*
Y0104377D01*
X1764257Y0103943D02*
X1764501Y0104365D01*
X1764042Y0103507D02*
X1764257Y0103943D01*
X1763611Y0102862D02*
X1764042Y0103507D01*
X1763931Y0103340D02*
X1777964D01*
X1763290Y0102496D02*
X1763611Y0102862D01*
X1762994Y0102110D02*
X1763290Y0102496D01*
X1762649Y0101765D02*
X1777970D01*
X1760426Y0100190D02*
X1778273D01*
X1762445Y0101561D02*
X1762994Y0102110D01*
X1762931Y0087997D02*
Y0102047D01*
X1749562Y0102496D02*
X1749858Y0102110D01*
X1749241Y0102862D02*
X1749562Y0102496D01*
X1749858Y0102110D02*
X1750406Y0101561D01*
X1748594Y0103943D02*
X1748810Y0103507D01*
X1749241Y0102862D01*
X1762059Y0101265D02*
X1762445Y0101561D01*
X1750406D02*
X1750792Y0101265D01*
X1761693Y0100944D02*
X1762059Y0101265D01*
X1748758Y0087997D02*
Y0103612D01*
X1750332Y0087997D02*
Y0101635D01*
X1747928Y0110707D02*
X1748054Y0111177D01*
X1747772Y0110246D02*
X1747928Y0110707D01*
X1747620Y0109485D02*
X1747772Y0110246D01*
X1747589Y0109000D02*
X1747620Y0109485D01*
Y0106773D02*
X1747772Y0106012D01*
X1748054Y0105081D02*
X1748351Y0104365D01*
X1748594Y0103943D01*
X1747772Y0106012D02*
X1747928Y0105551D01*
X1748054Y0105081D01*
X1761048Y0100513D02*
X1761693Y0100944D01*
X1760612Y0100298D02*
X1761048Y0100513D01*
X1760190Y0100054D02*
X1760612Y0100298D01*
X1759474Y0099757D02*
X1760190Y0100054D01*
X1759003Y0099632D02*
X1759474Y0099757D01*
X1761356Y0087997D02*
Y0100718D01*
X1759781Y0087997D02*
Y0099885D01*
X1758542Y0099475D02*
X1759003Y0099632D01*
X1757782Y0099324D02*
X1758542Y0099475D01*
X1752240Y0100298D02*
X1752661Y0100054D01*
X1751803Y0100513D02*
X1752240Y0100298D01*
X1752661Y0100054D02*
X1753378Y0099757D01*
X1750792Y0101265D02*
X1751158Y0100944D01*
X1751803Y0100513D01*
X1753378Y0099757D02*
X1753848Y0099632D01*
X1754309Y0099475D01*
X1751907Y0087997D02*
Y0100462D01*
X1753482Y0087997D02*
Y0099730D01*
X1734666Y0144285D02*
X1777964D01*
X1734666Y0145859D02*
X1777964D01*
X1734666Y0142710D02*
X1777964D01*
X1734666Y0149009D02*
X1777964D01*
X1734666Y0147434D02*
X1777964D01*
X1734666Y0139560D02*
X1777964D01*
X1734666Y0141135D02*
X1777964D01*
X1734666Y0137985D02*
X1777964D01*
X1734666Y0136221D02*
Y0149321D01*
Y0136411D02*
X1777964D01*
X1733728Y0152159D02*
X1778902D01*
X1733213Y0152831D02*
X1734001Y0151803D01*
X1734497Y0150605D01*
X1733010Y0152986D02*
Y0171925D01*
X1732185Y0153620D02*
X1733213Y0152831D01*
X1734497Y0150605D02*
X1734666Y0149321D01*
X1734500Y0150584D02*
X1778130D01*
X1734584Y0149944D02*
Y0174968D01*
X1734497Y0134936D02*
X1734666Y0136221D01*
X1734456Y0134836D02*
X1778175D01*
X1734001Y0133739D02*
X1734497Y0134936D01*
X1733635Y0133261D02*
X1778996D01*
X1733213Y0132711D02*
X1734001Y0133739D01*
X1732185Y0131922D02*
X1733213Y0132711D01*
X1730987Y0131426D02*
X1732185Y0131922D01*
X1729703Y0131257D02*
X1730987Y0131426D01*
X1729860Y0119854D02*
Y0131278D01*
X1726710Y0119875D02*
Y0131257D01*
X1728285Y0119875D02*
Y0131257D01*
X1694090Y0125387D02*
X1753052D01*
X1694090Y0126962D02*
X1754218D01*
X1694090Y0122237D02*
X1753280D01*
X1708049Y0131257D02*
X1729703D01*
X1694090Y0123812D02*
X1752811D01*
X1694090Y0120663D02*
X1755027D01*
X1708049Y0119875D02*
X1729703D01*
X1723561D02*
Y0131257D01*
X1725136Y0119875D02*
Y0131257D01*
X1704663Y0152926D02*
Y0171986D01*
X1704539Y0152831D02*
X1705567Y0153620D01*
X1703750Y0151803D02*
X1704539Y0152831D01*
X1694090Y0152159D02*
X1704024D01*
X1703255Y0150605D02*
X1703750Y0151803D01*
X1703088Y0149343D02*
Y0175568D01*
X1703085Y0149321D02*
X1703255Y0150605D01*
X1703088Y0136198D02*
Y0149343D01*
X1703085Y0136221D02*
Y0149321D01*
X1694090Y0141135D02*
X1703085D01*
X1694090Y0149009D02*
X1703085D01*
X1694090Y0150584D02*
X1703252D01*
X1694090Y0147434D02*
X1703085D01*
X1694090Y0145859D02*
X1703085D01*
X1694090Y0144285D02*
X1703085D01*
X1694090Y0137985D02*
X1703085D01*
X1694090Y0136411D02*
X1703085D01*
X1694090Y0142710D02*
X1703085D01*
X1694090Y0139560D02*
X1703085D01*
X1714112Y0119875D02*
Y0131257D01*
X1712537Y0119875D02*
Y0131257D01*
X1715687Y0119875D02*
Y0131257D01*
X1709388Y0119875D02*
Y0131257D01*
X1710962Y0119875D02*
Y0131257D01*
X1720411Y0119875D02*
Y0131257D01*
X1721986Y0119875D02*
Y0131257D01*
X1717262Y0119875D02*
Y0131257D01*
X1718836Y0119875D02*
Y0131257D01*
X1703750Y0133739D02*
X1704539Y0132711D01*
X1703255Y0134936D02*
X1703750Y0133739D01*
X1694090Y0133261D02*
X1704117D01*
X1703085Y0136221D02*
X1703255Y0134936D01*
X1694090Y0134836D02*
X1703296D01*
X1705567Y0131922D02*
X1706764Y0131426D01*
X1708049Y0131257D01*
X1704539Y0132711D02*
X1705567Y0131922D01*
X1694090Y0131686D02*
X1706137D01*
X1739309Y0087997D02*
Y0268929D01*
X1737734Y0087997D02*
Y0268929D01*
X1734531Y0115938D02*
X1752195D01*
X1736159Y0087997D02*
Y0268929D01*
X1734584Y0115534D02*
Y0135598D01*
X1745608Y0087997D02*
Y0268929D01*
X1744033Y0087997D02*
Y0268929D01*
X1747183Y0087997D02*
Y0268929D01*
X1740884Y0087997D02*
Y0268929D01*
X1742458Y0087997D02*
Y0268929D01*
X1733010Y0118577D02*
Y0132555D01*
X1732185Y0119210D02*
X1733213Y0118421D01*
X1732344Y0119088D02*
X1780287D01*
X1731435Y0119521D02*
Y0131612D01*
X1730987Y0119706D02*
X1732185Y0119210D01*
X1733909Y0117513D02*
X1778721D01*
X1734497Y0116196D02*
X1734666Y0114911D01*
X1733213Y0118421D02*
X1734001Y0117393D01*
X1734497Y0116196D01*
X1734666Y0111214D02*
X1748070D01*
X1734666Y0112789D02*
X1748834D01*
X1734666Y0109639D02*
X1747651D01*
X1747525Y0108517D02*
X1747589Y0109000D01*
X1747525Y0108129D02*
Y0108517D01*
Y0107741D02*
X1747589Y0107259D01*
X1734666Y0108064D02*
X1747525D01*
X1747589Y0107259D02*
X1747620Y0106773D01*
X1734666Y0101811D02*
Y0114911D01*
X1747525Y0107741D02*
Y0108129D01*
X1734666Y0103340D02*
X1748921D01*
X1734666Y0114363D02*
X1750073D01*
X1734660Y0101765D02*
X1750202D01*
X1734666Y0106490D02*
X1747677D01*
X1734666Y0104915D02*
X1748123D01*
X1734497Y0100527D02*
X1734666Y0101811D01*
X1734358Y0100190D02*
X1752426D01*
X1734584Y0087997D02*
Y0101188D01*
X1734001Y0099330D02*
X1734497Y0100527D01*
X1707813Y0119844D02*
Y0131288D01*
X1706764Y0119706D02*
X1708049Y0119875D01*
X1729703D02*
X1730987Y0119706D01*
X1706238Y0119488D02*
Y0131644D01*
X1705567Y0119210D02*
X1706764Y0119706D01*
X1704663Y0118516D02*
Y0132616D01*
X1704539Y0118421D02*
X1705567Y0119210D01*
X1703750Y0117393D02*
X1704539Y0118421D01*
X1703088Y0114934D02*
Y0136198D01*
X1703255Y0116196D02*
X1703750Y0117393D01*
X1694090Y0117513D02*
X1703842D01*
X1694090Y0119088D02*
X1705408D01*
X1703085Y0114911D02*
X1703255Y0116196D01*
X1694090Y0099629D02*
Y0268929D01*
X1699939Y0087997D02*
Y0268929D01*
X1698364Y0087997D02*
Y0268929D01*
X1701514Y0087997D02*
Y0268929D01*
X1695214Y0087997D02*
Y0268929D01*
X1696789Y0087997D02*
Y0268929D01*
X1703085Y0101811D02*
Y0114911D01*
X1694090Y0111214D02*
X1703085D01*
X1694090Y0109639D02*
X1703085D01*
X1694090Y0114363D02*
X1703085D01*
X1694090Y0112789D02*
X1703085D01*
Y0101811D02*
X1703255Y0100527D01*
X1703750Y0099330D01*
X1703088Y0101789D02*
Y0114934D01*
Y0087997D02*
Y0101789D01*
X1694090Y0108064D02*
X1703085D01*
X1694090Y0115938D02*
X1703221D01*
X1694090Y0106490D02*
X1703085D01*
X1694090Y0104915D02*
X1703085D01*
X1694090Y0103340D02*
X1703085D01*
X1694090Y0101765D02*
X1703091D01*
X1694090Y0100190D02*
X1703394D01*
X1780254Y0087997D02*
Y0097660D01*
X1778629Y0099330D02*
X1779418Y0098302D01*
X1778629Y0084086D02*
X1779026Y0084603D01*
X1778679Y0087997D02*
Y0099265D01*
Y0084151D02*
Y0084603D01*
X1778133Y0082889D02*
X1778629Y0084086D01*
X1777964Y0081604D02*
X1778133Y0082889D01*
X1763127Y0081293D02*
X1777964D01*
X1764506Y0079199D02*
Y0084603D01*
X1763290Y0081080D02*
X1763611Y0080714D01*
X1761340Y0082867D02*
X1778130D01*
X1761048Y0083062D02*
X1761693Y0082632D01*
X1762059Y0082311D01*
X1761356Y0082857D02*
Y0084603D01*
X1760612Y0083278D02*
X1761048Y0083062D01*
X1762445Y0082014D02*
X1762994Y0081466D01*
X1763290Y0081080D01*
X1762931Y0081529D02*
Y0084603D01*
X1762059Y0082311D02*
X1762445Y0082014D01*
X1765263Y0076317D02*
X1765327Y0075834D01*
X1765247Y0076568D02*
X1777964D01*
X1765327Y0075446D02*
Y0075834D01*
X1765080Y0077563D02*
X1765231Y0076802D01*
X1765263Y0076317D01*
X1765327Y0075059D02*
Y0075446D01*
X1765318Y0074993D02*
X1777964D01*
X1765098Y0073419D02*
X1777964D01*
X1765263Y0074576D02*
X1765327Y0075059D01*
X1765231Y0074090D02*
X1765263Y0074576D01*
X1764257Y0079632D02*
X1764501Y0079211D01*
X1764215Y0079718D02*
X1777964D01*
X1764501Y0079211D02*
X1764797Y0078494D01*
X1763611Y0080714D02*
X1764042Y0080069D01*
X1764257Y0079632D01*
X1764891Y0078143D02*
X1777964D01*
X1765080Y0073330D02*
X1765231Y0074090D01*
X1764797Y0078494D02*
X1764923Y0078024D01*
X1765080Y0077563D01*
X1758206Y0087997D02*
Y0099408D01*
X1757296Y0099292D02*
X1757782Y0099324D01*
X1756814Y0099228D02*
X1757296Y0099292D01*
X1756632Y0087997D02*
Y0099228D01*
X1756038D02*
X1756814D01*
X1759781Y0083691D02*
Y0084603D01*
X1758206Y0084167D02*
Y0084603D01*
X1756814Y0084347D02*
X1757296Y0084284D01*
X1755555D02*
X1756038Y0084347D01*
X1756814D01*
X1755555Y0099292D02*
X1756038Y0099228D01*
X1755070Y0099324D02*
X1755555Y0099292D01*
X1755070Y0084252D02*
X1755555Y0084284D01*
X1754309Y0099475D02*
X1755070Y0099324D01*
X1755057Y0087997D02*
Y0099326D01*
X1753482Y0083846D02*
Y0084603D01*
X1755057Y0084249D02*
Y0084603D01*
X1750332Y0081941D02*
Y0084603D01*
X1751907Y0083114D02*
Y0084603D01*
X1757782Y0084252D02*
X1758543Y0084100D01*
X1757296Y0084284D02*
X1757782Y0084252D01*
X1758543Y0084100D02*
X1759003Y0083944D01*
X1754309Y0084100D02*
X1755070Y0084252D01*
X1753848Y0083944D02*
X1754309Y0084100D01*
X1759474Y0083818D02*
X1760190Y0083521D01*
X1759003Y0083944D02*
X1759474Y0083818D01*
X1760190Y0083521D02*
X1760612Y0083278D01*
X1753378Y0083818D02*
X1753848Y0083944D01*
X1752661Y0083521D02*
X1753378Y0083818D01*
X1752240Y0083278D02*
X1752661Y0083521D01*
X1751803Y0083062D02*
X1752240Y0083278D01*
X1751158Y0082632D02*
X1751803Y0083062D01*
X1750792Y0082311D02*
X1751158Y0082632D01*
X1750406Y0082014D02*
X1750792Y0082311D01*
X1749858Y0081466D02*
X1750406Y0082014D01*
X1749562Y0081080D02*
X1749858Y0081466D01*
X1749241Y0080714D02*
X1749562Y0081080D01*
X1748810Y0080069D02*
X1749241Y0080714D01*
X1769230Y0055802D02*
Y0084603D01*
X1767655Y0055802D02*
Y0084603D01*
X1777964Y0068504D02*
Y0081604D01*
X1766080Y0055802D02*
Y0084603D01*
X1764923Y0072869D02*
X1765080Y0073330D01*
X1775529Y0055801D02*
Y0084603D01*
X1773954Y0055801D02*
Y0084603D01*
X1777104Y0055801D02*
Y0084603D01*
X1770805Y0055801D02*
Y0084603D01*
X1772380Y0055801D02*
Y0084603D01*
X1764797Y0072398D02*
X1764923Y0072869D01*
X1764501Y0071682D02*
X1764797Y0072398D01*
X1764568Y0071844D02*
X1777964D01*
X1764257Y0071260D02*
X1764501Y0071682D01*
X1764042Y0070824D02*
X1764257Y0071260D01*
X1764506Y0055802D02*
Y0071694D01*
X1763671Y0070269D02*
X1777964D01*
X1763611Y0070179D02*
X1764042Y0070824D01*
X1763290Y0069813D02*
X1763611Y0070179D01*
X1762994Y0069427D02*
X1763290Y0069813D01*
X1762205Y0068694D02*
X1777964D01*
Y0068504D02*
X1778133Y0067220D01*
X1762445Y0068878D02*
X1762994Y0069427D01*
X1762059Y0068582D02*
X1762445Y0068878D01*
X1778679Y0055800D02*
Y0065958D01*
X1778629Y0066022D02*
X1779418Y0064995D01*
X1780254Y0055800D02*
Y0064353D01*
X1762931Y0055803D02*
Y0069364D01*
X1778133Y0067220D02*
X1778629Y0066022D01*
X1761693Y0068261D02*
X1762059Y0068582D01*
X1761048Y0067830D02*
X1761693Y0068261D01*
X1759582Y0067119D02*
X1778175D01*
X1760612Y0067615D02*
X1761048Y0067830D01*
X1760190Y0067371D02*
X1760612Y0067615D01*
X1761356Y0055803D02*
Y0068036D01*
X1759474Y0067075D02*
X1760190Y0067371D01*
X1753378Y0067075D02*
X1753848Y0066949D01*
X1752661Y0067371D02*
X1753378Y0067075D01*
X1759003Y0066949D02*
X1759474Y0067075D01*
X1751803Y0067830D02*
X1752240Y0067615D01*
X1752661Y0067371D01*
X1759781Y0062240D02*
Y0067202D01*
X1758542Y0066792D02*
X1759003Y0066949D01*
X1753848D02*
X1754309Y0066792D01*
X1751907Y0055804D02*
Y0067779D01*
X1753482Y0061684D02*
Y0067047D01*
X1749858Y0069427D02*
X1750406Y0068878D01*
X1749562Y0069813D02*
X1749858Y0069427D01*
X1750406Y0068878D02*
X1750792Y0068582D01*
X1748810Y0070824D02*
X1749241Y0070179D01*
X1749562Y0069813D01*
X1750792Y0068582D02*
X1751158Y0068261D01*
X1751803Y0067830D01*
X1748758Y0055805D02*
Y0070929D01*
X1750332Y0055804D02*
Y0068952D01*
X1758206Y0063472D02*
Y0066725D01*
X1757782Y0066641D02*
X1758542Y0066792D01*
X1757296Y0066609D02*
X1757782Y0066641D01*
X1756814Y0066546D02*
X1757296Y0066609D01*
X1756632Y0063747D02*
Y0066546D01*
X1759781Y0055803D02*
Y0057867D01*
X1758206Y0055803D02*
Y0056635D01*
X1756632Y0055804D02*
Y0056361D01*
X1755555Y0066609D02*
X1756038Y0066546D01*
X1755070Y0066641D02*
X1755555Y0066609D01*
X1756038Y0066546D02*
X1756814D01*
X1754309Y0066792D02*
X1755070Y0066641D01*
X1755057Y0063314D02*
Y0066644D01*
X1753482Y0055804D02*
Y0058423D01*
X1755057Y0055804D02*
Y0056793D01*
X1733454Y0098615D02*
X1779177D01*
X1733213Y0098302D02*
X1734001Y0099330D01*
X1732185Y0097513D02*
X1733213Y0098302D01*
X1733010Y0087997D02*
Y0098146D01*
X1731435Y0087997D02*
Y0097202D01*
X1748758Y0079963D02*
Y0084603D01*
X1733605D02*
X1779026D01*
X1733728Y0084442D02*
X1778902D01*
X1733605Y0084603D02*
X1734001Y0084086D01*
X1734584Y0082227D02*
Y0084603D01*
X1730987Y0097017D02*
X1732185Y0097513D01*
X1729703Y0096848D02*
X1730987Y0097017D01*
X1729860Y0087997D02*
Y0096868D01*
X1728285Y0087997D02*
Y0096848D01*
X1708049D02*
X1729703D01*
X1725136Y0087997D02*
Y0096848D01*
X1726710Y0087997D02*
Y0096848D01*
X1721986Y0087997D02*
Y0096848D01*
X1723561Y0087997D02*
Y0096848D01*
X1748594Y0079632D02*
X1748810Y0080069D01*
X1748351Y0079211D02*
X1748594Y0079632D01*
X1748054Y0078494D02*
X1748351Y0079211D01*
X1747928Y0078024D02*
X1748054Y0078494D01*
X1747772Y0077563D02*
X1747928Y0078024D01*
X1747620Y0076802D02*
X1747772Y0077563D01*
X1747589Y0076317D02*
X1747620Y0076802D01*
X1747525Y0075834D02*
X1747589Y0076317D01*
X1747525Y0075059D02*
Y0075446D01*
Y0075059D02*
X1747589Y0074576D01*
X1734666Y0081293D02*
X1749725D01*
X1734500Y0082867D02*
X1751511D01*
X1734666Y0079718D02*
X1748636D01*
X1734001Y0084086D02*
X1734497Y0082889D01*
X1734666Y0081604D01*
Y0078143D02*
X1747960D01*
X1734666Y0076568D02*
X1747605D01*
X1747525Y0075446D02*
Y0075834D01*
X1734666Y0074993D02*
X1747534D01*
X1717262Y0087997D02*
Y0096848D01*
X1706764Y0097017D02*
X1708049Y0096848D01*
X1720411Y0087997D02*
Y0096848D01*
X1704539Y0098302D02*
X1705567Y0097513D01*
X1706764Y0097017D01*
X1715687Y0087997D02*
Y0096848D01*
X1707813Y0087997D02*
Y0096879D01*
X1718836Y0087997D02*
Y0096848D01*
X1704663Y0087997D02*
Y0098207D01*
X1706238Y0087997D02*
Y0097235D01*
X1703750Y0099330D02*
X1704539Y0098302D01*
X1693551Y0098615D02*
X1704298D01*
X1687349Y0097041D02*
X1706707D01*
X1693640Y0087997D02*
Y0098681D01*
X1687349Y0098407D02*
X1692869D01*
X1690490Y0087997D02*
Y0098407D01*
X1692065Y0087997D02*
Y0098407D01*
X1687349Y0087997D02*
Y0098407D01*
X1688915Y0087997D02*
Y0098407D01*
X1712537Y0087997D02*
Y0096848D01*
X1710962Y0087997D02*
Y0096848D01*
X1714112Y0087997D02*
Y0096848D01*
X1709388Y0087997D02*
Y0096848D01*
X1703750Y0084086D02*
X1704147Y0084603D01*
X1703255Y0082889D02*
X1703750Y0084086D01*
X1703085Y0081604D02*
X1703255Y0082889D01*
X1703088Y0081627D02*
Y0084603D01*
X1694090Y0078143D02*
X1703085D01*
X1693954Y0084442D02*
X1704024D01*
X1693854Y0084603D02*
X1704147D01*
X1694090Y0082867D02*
X1703252D01*
X1694090Y0076568D02*
X1703085D01*
X1694090Y0074993D02*
X1703085D01*
X1694090Y0081293D02*
X1703085D01*
X1694090Y0079718D02*
X1703085D01*
X1747928Y0072869D02*
X1748054Y0072398D01*
X1747772Y0073330D02*
X1747928Y0072869D01*
X1748054Y0072398D02*
X1748351Y0071682D01*
X1747589Y0074576D02*
X1747620Y0074090D01*
X1747772Y0073330D01*
X1748351Y0071682D02*
X1748594Y0071260D01*
X1747183Y0055805D02*
Y0084603D01*
X1748594Y0071260D02*
X1748810Y0070824D01*
X1744033Y0055805D02*
Y0084603D01*
X1745608Y0055805D02*
Y0084603D01*
X1734666Y0071844D02*
X1748284D01*
X1734666Y0073419D02*
X1747754D01*
X1734666Y0070269D02*
X1749180D01*
X1736159Y0055806D02*
Y0084603D01*
X1734666Y0068504D02*
Y0081604D01*
X1740884Y0055806D02*
Y0084603D01*
X1742458Y0055805D02*
Y0084603D01*
X1737734Y0055806D02*
Y0084603D01*
X1739309Y0055806D02*
Y0084603D01*
X1734666Y0068694D02*
X1750646D01*
X1734456Y0067119D02*
X1753270D01*
X1733635Y0065545D02*
X1778996D01*
X1734497Y0067220D02*
X1734666Y0068504D01*
X1734001Y0066022D02*
X1734497Y0067220D01*
X1734584Y0055806D02*
Y0067881D01*
X1733213Y0064995D02*
X1734001Y0066022D01*
X1732185Y0064206D02*
X1733213Y0064995D01*
X1733010Y0055807D02*
Y0064839D01*
X1731435Y0055807D02*
Y0063895D01*
X1730987Y0063710D02*
X1732185Y0064206D01*
X1694090Y0062395D02*
X1753939D01*
X1694090Y0060820D02*
X1753184D01*
X1729703Y0063541D02*
X1730987Y0063710D01*
X1708049Y0063541D02*
X1729703D01*
X1694090Y0059246D02*
X1753193D01*
X1694090Y0057671D02*
X1753974D01*
X1729860Y0055807D02*
Y0063561D01*
X1728285Y0055807D02*
Y0063541D01*
X1703255Y0067220D02*
X1703750Y0066022D01*
X1703085Y0068504D02*
X1703255Y0067220D01*
X1703750Y0066022D02*
X1704539Y0064995D01*
X1703088Y0068482D02*
Y0081627D01*
X1703085Y0068504D02*
Y0081604D01*
X1703088Y0055811D02*
Y0068482D01*
X1701514Y0055811D02*
Y0084603D01*
X1704539Y0064995D02*
X1705567Y0064206D01*
X1698364Y0055811D02*
Y0084603D01*
X1699939Y0055811D02*
Y0084603D01*
X1694090Y0068694D02*
X1703085D01*
X1694090Y0070269D02*
X1703085D01*
X1694090Y0067119D02*
X1703296D01*
X1694090Y0073419D02*
X1703085D01*
X1694090Y0071844D02*
X1703085D01*
X1696789Y0055812D02*
Y0084603D01*
X1694090Y0065545D02*
X1704117D01*
X1695214Y0055812D02*
Y0084603D01*
X1694090Y0055812D02*
Y0083881D01*
X1718836Y0055809D02*
Y0063541D01*
X1717262Y0055809D02*
Y0063541D01*
X1720411Y0055808D02*
Y0063541D01*
X1714112Y0055809D02*
Y0063541D01*
X1715687Y0055809D02*
Y0063541D01*
X1725136Y0055808D02*
Y0063541D01*
X1726710Y0055808D02*
Y0063541D01*
X1721986Y0055808D02*
Y0063541D01*
X1723561Y0055808D02*
Y0063541D01*
X1706238Y0055810D02*
Y0063928D01*
X1705567Y0064206D02*
X1706764Y0063710D01*
X1708049Y0063541D01*
X1704663Y0055810D02*
Y0064899D01*
X1694090Y0063970D02*
X1706137D01*
X1710962Y0055810D02*
Y0063541D01*
X1712537Y0055809D02*
Y0063541D01*
X1707813Y0055810D02*
Y0063572D01*
X1709388Y0055810D02*
Y0063541D01*
X1681041Y0087997D02*
Y0112105D01*
X1682616Y0087997D02*
Y0109362D01*
X1679466Y0087997D02*
Y0114411D01*
X1685766Y0087997D02*
Y0101078D01*
X1684191Y0087997D02*
Y0105931D01*
X1674742Y0087997D02*
Y0119701D01*
X1673167Y0087997D02*
Y0121085D01*
X1677892Y0087997D02*
Y0116402D01*
X1676317Y0087997D02*
Y0118150D01*
X1687340Y0087997D02*
Y0098242D01*
X1652428Y0092316D02*
X1687919D01*
X1651792Y0093891D02*
X1687852D01*
X1652329Y0090741D02*
X1687923D01*
X1653762Y0089167D02*
X1687866D01*
X1654270Y0088659D02*
Y0129505D01*
X1657419Y0087997D02*
Y0128911D01*
X1652695Y0090234D02*
Y0129701D01*
X1660569Y0087997D02*
Y0128034D01*
X1658994Y0087997D02*
Y0128509D01*
X1649545Y0095371D02*
Y0129896D01*
X1647970Y0095363D02*
Y0129895D01*
X1651120Y0094612D02*
Y0129831D01*
X1646396Y0094585D02*
Y0129829D01*
X1666868Y0087997D02*
Y0125339D01*
X1668443Y0087997D02*
Y0124442D01*
X1665293Y0087997D02*
Y0126141D01*
X1671592Y0087997D02*
Y0122327D01*
X1670018Y0087997D02*
Y0123441D01*
X1663718Y0087997D02*
Y0126854D01*
X1662144Y0087997D02*
Y0127484D01*
X1685766Y0082432D02*
Y0084603D01*
X1684191Y0077579D02*
Y0084603D01*
X1682616Y0074148D02*
Y0084603D01*
X1654932Y0087997D02*
X1687783D01*
X1654229Y0084603D02*
X1686363D01*
X1681041Y0071405D02*
Y0084603D01*
X1679466Y0069100D02*
Y0084603D01*
X1676317Y0065360D02*
Y0084603D01*
X1677892Y0067108D02*
Y0084603D01*
X1674742Y0063810D02*
Y0084603D01*
X1673167Y0062425D02*
Y0084603D01*
X1671592Y0061184D02*
Y0084603D01*
X1670018Y0060069D02*
Y0084603D01*
X1668443Y0059068D02*
Y0084603D01*
X1666868Y0058171D02*
Y0084603D01*
X1665293Y0057369D02*
Y0084603D01*
X1655844Y0087997D02*
Y0129242D01*
X1652296Y0090632D02*
X1654932Y0087997D01*
X1652695Y0053809D02*
Y0085435D01*
X1651120Y0053679D02*
Y0087010D01*
X1649897Y0088233D02*
X1653026Y0085103D01*
X1646396Y0053681D02*
Y0088925D01*
X1649545Y0053615D02*
Y0088140D01*
X1647970Y0053615D02*
Y0088147D01*
X1663718Y0056656D02*
Y0084603D01*
X1662144Y0056026D02*
Y0084603D01*
X1660569Y0055476D02*
Y0084603D01*
X1658994Y0055001D02*
Y0084603D01*
X1657419Y0054599D02*
Y0084603D01*
X1655844Y0054268D02*
Y0084603D01*
X1654270Y0054005D02*
Y0084603D01*
X1615962Y0111214D02*
X1681586D01*
X1615078Y0109639D02*
X1682471D01*
X1616948Y0112789D02*
X1680600D01*
X1613586Y0106490D02*
X1683962D01*
X1614288Y0108064D02*
X1683260D01*
X1612428Y0103340D02*
X1685121D01*
X1612967Y0104915D02*
X1684581D01*
X1611570Y0100190D02*
X1685978D01*
X1611963Y0101765D02*
X1685586D01*
X1611676Y0082867D02*
X1685873D01*
X1612089Y0081293D02*
X1685460D01*
X1612575Y0079718D02*
X1684974D01*
X1613137Y0078143D02*
X1684411D01*
X1613779Y0076568D02*
X1683769D01*
X1610994Y0097041D02*
X1687530D01*
X1611248Y0098615D02*
X1686667D01*
X1610807Y0095466D02*
X1687722D01*
X1611333Y0084442D02*
X1686263D01*
X1634085Y0126962D02*
X1663463D01*
X1630769Y0125387D02*
X1666779D01*
X1638655Y0128537D02*
X1658894D01*
X1625837Y0122237D02*
X1671711D01*
X1628095Y0123812D02*
X1669453D01*
X1622162Y0119088D02*
X1675386D01*
X1623882Y0120663D02*
X1673667D01*
X1619271Y0115938D02*
X1678278D01*
X1620635Y0117513D02*
X1676913D01*
X1618047Y0114363D02*
X1679501D01*
X1611060Y0086017D02*
X1652113D01*
X1610854Y0087592D02*
X1650538D01*
X1613325Y0077662D02*
Y0105849D01*
X1611750Y0082563D02*
Y0100947D01*
X1610686Y0093891D02*
X1645757D01*
X1610630Y0092316D02*
X1645120D01*
X1610714Y0089167D02*
X1646135D01*
X1610639Y0090741D02*
X1645219D01*
X1617252Y0070269D02*
X1680296D01*
X1618385Y0068694D02*
X1679163D01*
X1641671Y0054274D02*
Y0129236D01*
X1644821Y0053812D02*
Y0129698D01*
X1643246Y0054010D02*
Y0129501D01*
X1614506Y0074993D02*
X1683043D01*
X1615322Y0073419D02*
X1682227D01*
X1616235Y0071844D02*
X1681314D01*
X1626451Y0060820D02*
X1671097D01*
X1628814Y0059246D02*
X1668734D01*
X1631641Y0057671D02*
X1665907D01*
X1635220Y0056096D02*
X1662328D01*
X1640473Y0054521D02*
X1657075D01*
X1619647Y0067119D02*
X1677901D01*
X1621056Y0065545D02*
X1676492D01*
X1622635Y0063970D02*
X1674913D01*
X1624417Y0062395D02*
X1673131D01*
X1636947Y0055487D02*
Y0128024D01*
X1635372Y0056039D02*
Y0127472D01*
X1633797Y0056670D02*
Y0126840D01*
X1640096Y0054607D02*
Y0128903D01*
X1638522Y0055010D02*
Y0128500D01*
X1629073Y0059088D02*
Y0124422D01*
X1627498Y0060091D02*
Y0123419D01*
X1632222Y0057385D02*
Y0126126D01*
X1630648Y0058188D02*
Y0125322D01*
X1622774Y0063840D02*
Y0119670D01*
X1621199Y0065394D02*
Y0118116D01*
X1625923Y0061208D02*
Y0122302D01*
X1624348Y0062452D02*
Y0121058D01*
X1616474Y0071457D02*
Y0112053D01*
X1614900Y0074211D02*
Y0109299D01*
X1619624Y0067147D02*
Y0116363D01*
X1618049Y0069144D02*
Y0114366D01*
X1701514Y0087997D02*
Y0099210D01*
X1703088Y0087997D02*
Y0099210D01*
X1694016D02*
X1703619D01*
X1696789Y0087997D02*
Y0099210D01*
X1699939Y0087997D02*
Y0099210D01*
X1703709Y0087997D02*
Y0099120D01*
X1693551Y0098615D02*
X1703709D01*
X1698364Y0087997D02*
Y0099210D01*
X1695214Y0087997D02*
Y0099210D01*
X1687340Y0087997D02*
Y0098407D01*
X1690490Y0087997D02*
Y0098407D01*
X1692065Y0087997D02*
Y0098407D01*
X1687349D02*
X1692869D01*
X1703709Y0083987D02*
Y0084603D01*
X1703088Y0083987D02*
Y0084603D01*
X1693854D02*
X1703709D01*
X1699939Y0083987D02*
Y0084603D01*
X1694086Y0083987D02*
X1703709D01*
X1701514D02*
Y0084603D01*
X1693954Y0084442D02*
X1703709D01*
X1696789Y0083987D02*
Y0084603D01*
X1698364Y0083987D02*
Y0084603D01*
X1688915Y0087997D02*
Y0098407D01*
X1693640Y0087997D02*
Y0098681D01*
X1695214Y0083987D02*
Y0084603D01*
X1679300Y0097041D02*
X1703709D01*
X1679300Y0095466D02*
X1703709D01*
X1679300Y0093891D02*
X1703709D01*
X1679300Y0090741D02*
X1703709D01*
X1679300Y0089167D02*
X1703709D01*
X1679300Y0092316D02*
X1703709D01*
X1685766Y0087997D02*
Y0099210D01*
X1679300D02*
X1686201D01*
X1681041Y0087997D02*
Y0099210D01*
X1682616Y0087997D02*
Y0099210D01*
X1684191Y0087997D02*
Y0099210D01*
X1679300Y0098615D02*
X1686667D01*
X1679300Y0087997D02*
X1703709D01*
X1679300Y0084603D02*
X1686363D01*
X1679363Y0083987D02*
X1686123D01*
X1685766D02*
Y0084603D01*
X1679300Y0084442D02*
X1686263D01*
X1682616Y0083987D02*
Y0084603D01*
X1684191Y0083987D02*
Y0084603D01*
X1679300Y0087997D02*
Y0099210D01*
X1679466Y0087997D02*
Y0099210D01*
Y0083987D02*
Y0084603D01*
X1681041Y0083987D02*
Y0084603D01*
X1679300Y0083924D02*
Y0084603D01*
D16*
X1966000Y0264564D02*
Y0268064D01*
Y0261064D02*
Y0264564D01*
X1969500D01*
X1962500D02*
X1966000D01*
X2009400Y0198400D02*
X2012900D01*
X2009400Y0194900D02*
Y0198400D01*
Y0201900D01*
X2005900Y0198400D02*
X2009400D01*
X1966600Y0198554D02*
X1970100D01*
X1966600D02*
Y0202053D01*
Y0195054D02*
Y0198554D01*
X1963100D02*
X1966600D01*
X1966300Y0124453D02*
X1969800D01*
X1966300D02*
Y0127954D01*
X1962800Y0124453D02*
X1966300D01*
X2143800Y0107954D02*
Y0111453D01*
Y0104454D02*
Y0107954D01*
X2147300D01*
X2140300D02*
X2143800D01*
X2126600Y0103454D02*
Y0106954D01*
X2110900Y0103454D02*
Y0106954D01*
X2126600Y0103454D02*
X2130100D01*
X2123100D02*
X2126600D01*
Y0099954D02*
Y0103454D01*
X2110900D02*
X2114400D01*
X2107400D02*
X2110900D01*
Y0099954D02*
Y0103454D01*
X2142900Y0074954D02*
Y0078453D01*
X2127533Y0077953D02*
X2131033D01*
X2142900Y0074954D02*
X2146400D01*
X2139400D02*
X2142900D01*
X2127533Y0077953D02*
Y0081454D01*
X2124033Y0077953D02*
X2127533D01*
Y0074454D02*
Y0077953D01*
X2110210Y0079353D02*
X2113710D01*
X2110210D02*
Y0082854D01*
X2106710Y0079353D02*
X2110210D01*
X1966300Y0120954D02*
Y0124453D01*
Y0060654D02*
Y0064153D01*
Y0060654D02*
X1969800D01*
X1966300Y0057153D02*
Y0060654D01*
X1962800D02*
X1966300D01*
X1865700Y0264754D02*
Y0268253D01*
Y0264754D02*
X1869200D01*
X1862200D02*
X1865700D01*
Y0261253D02*
Y0264754D01*
X1866100Y0199054D02*
X1869600D01*
X1866100D02*
Y0202554D01*
X1862600Y0199054D02*
X1866100D01*
Y0195554D02*
Y0199054D01*
X1756400Y0265154D02*
X1759900D01*
X1756400Y0261653D02*
Y0265154D01*
X1752900D02*
X1756400D01*
X1757300Y0198953D02*
X1760800D01*
X1757300D02*
Y0202453D01*
Y0195454D02*
Y0198953D01*
X1753800D02*
X1757300D01*
X1866100Y0124253D02*
X1869600D01*
X1866100D02*
Y0127753D01*
X1862600Y0124253D02*
X1866100D01*
Y0120754D02*
Y0124253D01*
X1866300Y0060353D02*
Y0063854D01*
Y0060353D02*
X1869800D01*
X1862800D02*
X1866300D01*
Y0056853D02*
Y0060353D01*
X1756500Y0124054D02*
X1760000D01*
X1756500D02*
Y0127553D01*
Y0120554D02*
Y0124054D01*
X1753000D02*
X1756500D01*
X1756800Y0060053D02*
X1760300D01*
X1756800Y0056554D02*
Y0060053D01*
Y0063554D01*
X1753300Y0060053D02*
X1756800D01*
X2140284Y0085448D02*
Y0097259D01*
X2145205Y0094306D02*
Y0096194D01*
X2144141Y0097259D02*
X2145205Y0096194D01*
X2142253Y0097259D02*
X2144141D01*
X2140284D02*
X2142253D01*
X2140284Y0085448D02*
X2142253D01*
X2138316D02*
X2140284D01*
X2136347D02*
X2138316D01*
X2425052Y-0051446D02*
Y0081148D01*
X2421000Y0085200D02*
X2425052Y0081148D01*
X2287300Y0085200D02*
X2421000D01*
X2285800Y0086700D02*
X2287300Y0085200D01*
X2269800Y0086700D02*
X2285800D01*
X2157147Y0088953D02*
X2165500D01*
X2156595Y0088401D02*
X2157147Y0088953D01*
X2424500Y0087900D02*
X2428989Y0083411D01*
X2291400Y0087900D02*
X2424500D01*
X2285700Y0093600D02*
X2291400Y0087900D01*
X2428989Y-0051446D02*
Y0083411D01*
X2432926Y-0051446D02*
Y0085074D01*
X2428100Y0089900D02*
X2432926Y0085074D01*
X2294400Y0089900D02*
X2428100D01*
X2292600Y0091700D02*
X2294400Y0089900D01*
X2292600Y0091700D02*
Y0093700D01*
X2436863Y-0051446D02*
Y0086237D01*
X2429000Y0094100D02*
X2436863Y0086237D01*
X2299100Y0094100D02*
X2429000D01*
X2175600Y0093600D02*
X2285700D01*
X2170753Y0088753D02*
X2175600Y0093600D01*
X2165500Y0088753D02*
X2170753D01*
X2294332Y0098869D02*
X2299100Y0094100D01*
X2155469Y0098869D02*
X2294332D01*
X2148938Y0092338D02*
X2155469Y0098869D01*
X2289832Y0097069D02*
X2292600Y0094300D01*
X2149569Y0090369D02*
X2156269Y0097069D01*
X2289832D01*
X2292600Y0093700D02*
Y0094300D01*
X2165498Y0083047D02*
X2165500Y0083047D01*
X2156900Y0082947D02*
X2165498Y0083047D01*
X2183400Y0086700D02*
X2269800D01*
X2179547Y0082847D02*
X2183400Y0086700D01*
X2165500Y0082847D02*
X2179547D01*
X2145205Y0090369D02*
X2149569D01*
X2154152Y0088401D02*
X2156595D01*
X2145205D02*
X2154152D01*
X2155100Y0087453D01*
X2145205Y0092338D02*
X2148938D01*
X2149353Y0083047D02*
X2156900Y0082947D01*
X2146952Y0085448D02*
X2149353Y0083047D01*
X2142253Y0085448D02*
X2146952D01*
X1654229Y0086300D02*
X2012753D01*
X1648774Y0091755D02*
X1654229Y0086300D01*
X1999969Y0090369D02*
X2133394D01*
X1999900Y0090300D02*
X1999969Y0090369D01*
X2012753Y0086300D02*
X2014854Y0088401D01*
X2133394D01*
X2016971Y0092338D02*
X2133394D01*
X2010700Y0098609D02*
X2016971Y0092338D01*
X2013500Y0098354D02*
X2017548Y0094306D01*
X2017141Y0097259D02*
X2136347D01*
X2015400Y0099000D02*
X2017141Y0097259D01*
X2010700Y0098609D02*
Y0156000D01*
X2013500Y0098354D02*
Y0194300D01*
X2004700Y0162000D02*
X2010700Y0156000D01*
X1997200Y0162000D02*
X2004700D01*
X2009400Y0198400D02*
X2013500Y0194300D01*
X2015400Y0099000D02*
Y0216800D01*
X1999100Y0233100D02*
X2015400Y0216800D01*
X2017548Y0094306D02*
X2133394D01*
D17*
X2299100Y0094100D02*
D03*
X2292600Y0093700D02*
D03*
X2285700Y0093600D02*
D03*
X2269800Y0086700D02*
D03*
D18*
X2009400Y0198400D02*
D03*
X2142900Y0074954D02*
D03*
X2143800Y0107954D02*
D03*
X2110210Y0079353D02*
D03*
X2127533Y0077953D02*
D03*
X2110900Y0103454D02*
D03*
X2126600D02*
D03*
X1966000Y0264564D02*
D03*
X1865700Y0264754D02*
D03*
X1756400Y0265154D02*
D03*
X1757300Y0198953D02*
D03*
X1866100Y0199054D02*
D03*
X1966600Y0198554D02*
D03*
X1966300Y0124453D02*
D03*
X1866100Y0124253D02*
D03*
X1756500Y0124054D02*
D03*
X1756800Y0060053D02*
D03*
X1866300Y0060353D02*
D03*
X1966300Y0060654D02*
D03*
X2181600Y0076753D02*
D03*
X2180700Y0105400D02*
D03*
X1999100Y0233100D02*
D03*
X1648774Y0091755D02*
D03*
X1999900Y0090300D02*
D03*
X1997200Y0162000D02*
D03*
D19*
X2436863Y-0051446D02*
D03*
X2432926D02*
D03*
X2428989D02*
D03*
X2425052D02*
D03*
D20*
X2156900Y0082947D02*
D03*
Y0088853D02*
D03*
X2165500Y0082847D02*
D03*
Y0088753D02*
D03*
D21*
X2142253Y0097259D02*
D03*
X2140284D02*
D03*
X2138316D02*
D03*
X2136347D02*
D03*
Y0085448D02*
D03*
X2138316D02*
D03*
X2140284D02*
D03*
X2142253D02*
D03*
D22*
X2133394Y0094306D02*
D03*
Y0092338D02*
D03*
Y0090369D02*
D03*
Y0088401D02*
D03*
X2145205D02*
D03*
Y0090369D02*
D03*
Y0092338D02*
D03*
Y0094306D02*
D03*
M02*
