G04*
G04 #@! TF.GenerationSoftware,Altium Limited,Altium Designer,18.0.7 (293)*
G04*
G04 Layer_Color=32896*
%FSAX25Y25*%
%MOIN*%
G70*
G01*
G75*
%ADD10C,0.00276*%
%ADD27C,0.00984*%
%ADD28C,0.00787*%
%ADD29C,0.00300*%
D10*
X2426300Y-0042300D02*
Y-0039742D01*
X2425021D01*
X2424594Y-0040168D01*
Y-0041021D01*
X2425021Y-0041447D01*
X2426300D01*
X2423742Y-0042300D02*
X2422889D01*
X2423315D01*
Y-0039742D01*
X2423742Y-0040168D01*
D27*
X2145792Y0097346D02*
G03*
X2145792Y0097346I-0000492J0000000D01*
G01*
D28*
X2153400Y0079900D02*
X2160400D01*
X2153400D02*
Y0091900D01*
X2160400D01*
Y0079900D02*
Y0091900D01*
X2162000Y0079800D02*
X2169000D01*
X2162000D02*
Y0091800D01*
X2169000D01*
Y0079800D02*
Y0091800D01*
X2145205Y0095754D02*
Y0097254D01*
X2143700Y0085448D02*
X2145205D01*
X2133394Y0097259D02*
X2134900D01*
X2133394Y0085448D02*
Y0086954D01*
X2143600Y0097254D02*
X2145205D01*
X2133394Y0085448D02*
X2134800D01*
X2145205D02*
Y0086954D01*
X2133394Y0095754D02*
Y0097259D01*
X2136347Y0094306D02*
X2142253D01*
X2136347Y0088401D02*
X2142253D01*
X2136347D02*
Y0094306D01*
X2142253Y0088401D02*
Y0094306D01*
D29*
X2156733Y0076234D02*
X2156400Y0075901D01*
X2155733D01*
X2155400Y0076234D01*
Y0077567D01*
X2155733Y0077900D01*
X2156400D01*
X2156733Y0077567D01*
X2157399Y0077900D02*
X2158066D01*
X2157733D01*
Y0075901D01*
X2157399Y0076234D01*
X2165333Y0076134D02*
X2165000Y0075801D01*
X2164333D01*
X2164000Y0076134D01*
Y0077467D01*
X2164333Y0077800D01*
X2165000D01*
X2165333Y0077467D01*
X2167332Y0077800D02*
X2165999D01*
X2167332Y0076467D01*
Y0076134D01*
X2166999Y0075801D01*
X2166333D01*
X2165999Y0076134D01*
X2138800Y0079354D02*
Y0081020D01*
X2139133Y0081353D01*
X2139800D01*
X2140133Y0081020D01*
Y0079354D01*
X2140799Y0081353D02*
X2141466D01*
X2141133D01*
Y0079354D01*
X2140799Y0079687D01*
M02*
