  0
SECTION
  2
HEADER
  9
$ACADVER
  1
AC1015
  9
$ACADMAINTVER
 70
     6
  9
$DWGCODEPAGE
  3
ANSI_1252
  9
$INSBASE
 10
0.0
 20
0.0
 30
0.0
  9
$EXTMIN
 10
-50.0402816922
 20
-35.2951709627
 30
0.0
  9
$EXTMAX
 10
129.5286306027
 20
35.2951709627
 30
0.0
  9
$LIMMIN
 10
0.0
 20
0.0
  9
$LIMMAX
 10
420.0
 20
297.0
  9
$ORTHOMODE
 70
     0
  9
$REGENMODE
 70
     1
  9
$FILLMODE
 70
     1
  9
$QTEXTMODE
 70
     0
  9
$MIRRTEXT
 70
     1
  9
$LTSCALE
 40
1.0
  9
$ATTMODE
 70
     1
  9
$TEXTSIZE
 40
3.5
  9
$TRACEWID
 40
1.0
  9
$TEXTSTYLE
  7
Standard
  9
$CLAYER
  8
0
  9
$CELTYPE
  6
ByLayer
  9
$CECOLOR
 62
   256
  9
$CELTSCALE
 40
1.0
  9
$DISPSILH
 70
     0
  9
$DIMSCALE
 40
1.0
  9
$DIMASZ
 40
6.0
  9
$DIMEXO
 40
1.0
  9
$DIMDLI
 40
3.75
  9
$DIMRND
 40
0.0
  9
$DIMDLE
 40
0.0
  9
$DIMEXE
 40
1.0
  9
$DIMTP
 40
0.0
  9
$DIMTM
 40
0.0
  9
$DIMTXT
 40
3.5
  9
$DIMCEN
 40
2.5
  9
$DIMTSZ
 40
0.0
  9
$DIMTOL
 70
     0
  9
$DIMLIM
 70
     0
  9
$DIMTIH
 70
     1
  9
$DIMTOH
 70
     1
  9
$DIMSE1
 70
     0
  9
$DIMSE2
 70
     0
  9
$DIMTAD
 70
     1
  9
$DIMZIN
 70
     0
  9
$DIMBLK
  1

  9
$DIMASO
 70
     1
  9
$DIMSHO
 70
     1
  9
$DIMPOST
  1

  9
$DIMAPOST
  1

  9
$DIMALT
 70
     0
  9
$DIMALTD
 70
     3
  9
$DIMALTF
 40
0.0393700787
  9
$DIMLFAC
 40
1.0
  9
$DIMTOFL
 70
     1
  9
$DIMTVP
 40
0.0
  9
$DIMTIX
 70
     0
  9
$DIMSOXD
 70
     0
  9
$DIMSAH
 70
     0
  9
$DIMBLK1
  1

  9
$DIMBLK2
  1

  9
$DIMSTYLE
  2
ISO-25
  9
$DIMCLRD
 70
     0
  9
$DIMCLRE
 70
     0
  9
$DIMCLRT
 70
     0
  9
$DIMTFAC
 40
1.0
  9
$DIMGAP
 40
1.524
  9
$DIMJUST
 70
     0
  9
$DIMSD1
 70
     0
  9
$DIMSD2
 70
     0
  9
$DIMTOLJ
 70
     0
  9
$DIMTZIN
 70
     0
  9
$DIMALTZ
 70
     0
  9
$DIMALTTZ
 70
     0
  9
$DIMUPT
 70
     0
  9
$DIMDEC
 70
     2
  9
$DIMTDEC
 70
     2
  9
$DIMALTU
 70
     2
  9
$DIMALTTD
 70
     3
  9
$DIMTXSTY
  7
Standard
  9
$DIMAUNIT
 70
     0
  9
$DIMADEC
 70
     2
  9
$DIMALTRND
 40
0.0
  9
$DIMAZIN
 70
     0
  9
$DIMDSEP
 70
    44
  9
$DIMATFIT
 70
     3
  9
$DIMFRAC
 70
     0
  9
$DIMLDRBLK
  1

  9
$DIMLUNIT
 70
     2
  9
$DIMLWD
 70
    -2
  9
$DIMLWE
 70
    -2
  9
$DIMTMOVE
 70
     0
  9
$LUNITS
 70
     2
  9
$LUPREC
 70
     2
  9
$SKETCHINC
 40
1.0
  9
$FILLETRAD
 40
10.0
  9
$AUNITS
 70
     0
  9
$AUPREC
 70
     2
  9
$MENU
  1
.
  9
$ELEVATION
 40
0.0
  9
$PELEVATION
 40
0.0
  9
$THICKNESS
 40
0.0
  9
$LIMCHECK
 70
     0
  9
$CHAMFERA
 40
0.0
  9
$CHAMFERB
 40
0.0
  9
$CHAMFERC
 40
0.0
  9
$CHAMFERD
 40
0.0
  9
$SKPOLY
 70
     0
  9
$TDCREATE
 40
2458414.708872535
  9
$TDUCREATE
 40
2458414.625539201
  9
$TDUPDATE
 40
2458414.709027512
  9
$TDUUPDATE
 40
2458414.625694178
  9
$TDINDWG
 40
0.0000000116
  9
$TDUSRTIMER
 40
0.0000000116
  9
$USRTIMER
 70
     1
  9
$ANGBASE
 50
0.0
  9
$ANGDIR
 70
     0
  9
$PDMODE
 70
     0
  9
$PDSIZE
 40
-1.0
  9
$PLINEWID
 40
0.0
  9
$SPLFRAME
 70
     0
  9
$SPLINETYPE
 70
     6
  9
$SPLINESEGS
 70
     8
  9
$HANDSEED
  5
2C9
  9
$SURFTAB1
 70
     6
  9
$SURFTAB2
 70
     6
  9
$SURFTYPE
 70
     6
  9
$SURFU
 70
     6
  9
$SURFV
 70
     6
  9
$UCSBASE
  2

  9
$UCSNAME
  2

  9
$UCSORG
 10
0.0
 20
0.0
 30
0.0
  9
$UCSXDIR
 10
1.0
 20
0.0
 30
0.0
  9
$UCSYDIR
 10
0.0
 20
1.0
 30
0.0
  9
$UCSORTHOREF
  2

  9
$UCSORTHOVIEW
 70
     0
  9
$UCSORGTOP
 10
0.0
 20
0.0
 30
0.0
  9
$UCSORGBOTTOM
 10
0.0
 20
0.0
 30
0.0
  9
$UCSORGLEFT
 10
0.0
 20
0.0
 30
0.0
  9
$UCSORGRIGHT
 10
0.0
 20
0.0
 30
0.0
  9
$UCSORGFRONT
 10
0.0
 20
0.0
 30
0.0
  9
$UCSORGBACK
 10
0.0
 20
0.0
 30
0.0
  9
$PUCSBASE
  2

  9
$PUCSNAME
  2

  9
$PUCSORG
 10
0.0
 20
0.0
 30
0.0
  9
$PUCSXDIR
 10
1.0
 20
0.0
 30
0.0
  9
$PUCSYDIR
 10
0.0
 20
1.0
 30
0.0
  9
$PUCSORTHOREF
  2

  9
$PUCSORTHOVIEW
 70
     0
  9
$PUCSORGTOP
 10
0.0
 20
0.0
 30
0.0
  9
$PUCSORGBOTTOM
 10
0.0
 20
0.0
 30
0.0
  9
$PUCSORGLEFT
 10
0.0
 20
0.0
 30
0.0
  9
$PUCSORGRIGHT
 10
0.0
 20
0.0
 30
0.0
  9
$PUCSORGFRONT
 10
0.0
 20
0.0
 30
0.0
  9
$PUCSORGBACK
 10
0.0
 20
0.0
 30
0.0
  9
$USERI1
 70
     0
  9
$USERI2
 70
     0
  9
$USERI3
 70
     0
  9
$USERI4
 70
     0
  9
$USERI5
 70
     0
  9
$USERR1
 40
0.0
  9
$USERR2
 40
0.0
  9
$USERR3
 40
0.0
  9
$USERR4
 40
0.0
  9
$USERR5
 40
0.0
  9
$WORLDVIEW
 70
     1
  9
$SHADEDGE
 70
     3
  9
$SHADEDIF
 70
    70
  9
$TILEMODE
 70
     1
  9
$MAXACTVP
 70
    64
  9
$PINSBASE
 10
0.0
 20
0.0
 30
0.0
  9
$PLIMCHECK
 70
     0
  9
$PEXTMIN
 10
1.0000000000E+20
 20
1.0000000000E+20
 30
1.0000000000E+20
  9
$PEXTMAX
 10
-1.0000000000E+20
 20
-1.0000000000E+20
 30
-1.0000000000E+20
  9
$PLIMMIN
 10
0.0
 20
0.0
  9
$PLIMMAX
 10
420.0
 20
297.0
  9
$UNITMODE
 70
     0
  9
$VISRETAIN
 70
     1
  9
$PLINEGEN
 70
     0
  9
$PSLTSCALE
 70
     1
  9
$TREEDEPTH
 70
  3020
  9
$CMLSTYLE
  2
Standard
  9
$CMLJUST
 70
     0
  9
$CMLSCALE
 40
20.0
  9
$PROXYGRAPHICS
 70
     1
  9
$MEASUREMENT
 70
     1
  9
$CELWEIGHT
370
    -1
  9
$ENDCAPS
280
     0
  9
$JOINSTYLE
280
     0
  9
$LWDISPLAY
290
     1
  9
$INSUNITS
 70
     4
  9
$HYPERLINKBASE
  1

  9
$STYLESHEET
  1

  9
$XEDIT
290
     1
  9
$CEPSNTYPE
380
     0
  9
$PSTYLEMODE
290
     1
  9
$FINGERPRINTGUID
  2
{0DD7E973-25BA-4419-B67F-6D3E1178339D}
  9
$VERSIONGUID
  2
{FAEB1C32-E019-11D5-929B-00C0DF256EC4}
  9
$EXTNAMES
290
     1
  9
$PSVPSCALE
 40
0.0
  9
$OLESTARTUP
290
     0
  0
ENDSEC
  0
SECTION
  2
CLASSES
  0
CLASS
  1
ACDBDICTIONARYWDFLT
  2
AcDbDictionaryWithDefault
  3
ObjectDBX Classes
 90
        0
280
     0
281
     0
  0
CLASS
  1
VISUALSTYLE
  2
AcDbVisualStyle
  3
ObjectDBX Classes
 90
     4095
280
     0
281
     0
  0
CLASS
  1
MATERIAL
  2
AcDbMaterial
  3
ObjectDBX Classes
 90
     1153
280
     0
281
     0
  0
CLASS
  1
SCALE
  2
AcDbScale
  3
ObjectDBX Classes
 90
     1153
280
     0
281
     0
  0
CLASS
  1
TABLESTYLE
  2
AcDbTableStyle
  3
ObjectDBX Classes
 90
     4095
280
     0
281
     0
  0
CLASS
  1
MLEADERSTYLE
  2
AcDbMLeaderStyle
  3
ACDB_MLEADERSTYLE_CLASS
 90
     4095
280
     0
281
     0
  0
CLASS
  1
SUN
  2
AcDbSun
  3
SCENEOE
 90
     1153
280
     0
281
     0
  0
CLASS
  1
ACDBPLACEHOLDER
  2
AcDbPlaceHolder
  3
ObjectDBX Classes
 90
        0
280
     0
281
     0
  0
CLASS
  1
LAYOUT
  2
AcDbLayout
  3
ObjectDBX Classes
 90
        0
280
     0
281
     0
  0
ENDSEC
  0
SECTION
  2
TABLES
  0
TABLE
  2
VPORT
  5
8
330
0
100
AcDbSymbolTable
 70
     1
  0
VPORT
  5
29
330
8
100
AcDbSymbolTableRecord
100
AcDbViewportTableRecord
  2
*Active
 70
     0
 10
0.0
 20
0.0
 11
1.0
 21
1.0
 12
39.7441744553
 22
0.0
 13
0.0
 23
0.0
 14
10.0
 24
10.0
 15
10.0
 25
10.0
 16
0.0
 26
0.0
 36
1.0
 17
0.0
 27
0.0
 37
0.0
 40
72.002148764
 41
2.5438170066
 42
50.0
 43
0.0
 44
0.0
 50
0.0
 51
0.0
 71
     0
 72
   100
 73
     1
 74
     3
 75
     0
 76
     0
 77
     0
 78
     0
281
     0
 65
     1
110
0.0
120
0.0
130
0.0
111
1.0
121
0.0
131
0.0
112
0.0
122
1.0
132
0.0
 79
     0
146
0.0
  0
ENDTAB
  0
TABLE
  2
LTYPE
  5
5
330
0
100
AcDbSymbolTable
 70
     6
  0
LTYPE
  5
14
330
5
100
AcDbSymbolTableRecord
100
AcDbLinetypeTableRecord
  2
ByBlock
 70
     0
  3

 72
    65
 73
     0
 40
0.0
  0
LTYPE
  5
15
330
5
100
AcDbSymbolTableRecord
100
AcDbLinetypeTableRecord
  2
ByLayer
 70
     0
  3

 72
    65
 73
     0
 40
0.0
  0
LTYPE
  5
16
330
5
100
AcDbSymbolTableRecord
100
AcDbLinetypeTableRecord
  2
Continuous
 70
     0
  3
Solid line
 72
    65
 73
     0
 40
0.0
  0
LTYPE
  5
6E
330
5
100
AcDbSymbolTableRecord
100
AcDbLinetypeTableRecord
  2
HIDDEN
 70
     0
  3
Hidden __ __ __ __ __ __ __ __ __ __ __ __ __ __
 72
    65
 73
     2
 40
1.905
 49
1.27
 74
     0
 49
-0.635
 74
     0
  0
LTYPE
  5
6F
330
5
100
AcDbSymbolTableRecord
100
AcDbLinetypeTableRecord
  2
PHANTOM
 70
     0
  3
Phantom ______  __  __  ______  __  __  ______
 72
    65
 73
     6
 40
12.7
 49
6.35
 74
     0
 49
-1.27
 74
     0
 49
1.27
 74
     0
 49
-1.27
 74
     0
 49
1.27
 74
     0
 49
-1.27
 74
     0
  0
LTYPE
  5
70
330
5
100
AcDbSymbolTableRecord
100
AcDbLinetypeTableRecord
  2
CENTER
 70
     0
  3
Center ____ _ ____ _ ____ _ ____ _ ____ _ ____
 72
    65
 73
     4
 40
10.16
 49
6.35
 74
     0
 49
-1.27
 74
     0
 49
1.27
 74
     0
 49
-1.27
 74
     0
  0
LTYPE
  5
71
330
5
100
AcDbSymbolTableRecord
100
AcDbLinetypeTableRecord
  2
CENTERX2
 70
     0
  3
Center (2x) ________  __  ________  __  _____
 72
    65
 73
     4
 40
20.32
 49
12.7
 74
     0
 49
-2.54
 74
     0
 49
2.54
 74
     0
 49
-2.54
 74
     0
  0
LTYPE
  5
72
330
5
100
AcDbSymbolTableRecord
100
AcDbLinetypeTableRecord
  2
DOT2
 70
     0
  3
Dot (.5x) ........................................
 72
    65
 73
     2
 40
0.635
 49
0.0
 74
     0
 49
-0.635
 74
     0
  0
ENDTAB
  0
TABLE
  2
LAYER
  5
2
330
0
100
AcDbSymbolTable
 70
     1
  0
LAYER
  5
10
330
2
100
AcDbSymbolTableRecord
100
AcDbLayerTableRecord
  2
0
 70
     0
 62
     7
  6
Continuous
370
    -3
390
F
  0
ENDTAB
  0
TABLE
  2
STYLE
  5
3
330
0
100
AcDbSymbolTable
 70
     1
  0
STYLE
  5
11
330
3
100
AcDbSymbolTableRecord
100
AcDbTextStyleTableRecord
  2
Standard
 70
     0
 40
0.0
 41
1.0
 50
0.0
 71
     0
 42
3.5
  3
txt
  4

  0
ENDTAB
  0
TABLE
  2
VIEW
  5
6
330
0
100
AcDbSymbolTable
 70
     0
  0
ENDTAB
  0
TABLE
  2
UCS
  5
7
330
0
100
AcDbSymbolTable
 70
     0
  0
ENDTAB
  0
TABLE
  2
APPID
  5
9
330
0
100
AcDbSymbolTable
 70
     1
  0
APPID
  5
12
330
9
100
AcDbSymbolTableRecord
100
AcDbRegAppTableRecord
  2
ACAD
 70
     0
  0
ENDTAB
  0
TABLE
  2
DIMSTYLE
  5
A
330
0
100
AcDbSymbolTable
 70
     1
100
AcDbDimStyleTable
  0
DIMSTYLE
105
27
330
A
100
AcDbSymbolTableRecord
100
AcDbDimStyleTableRecord
  2
ISO-25
 70
     0
 41
2.5
 42
0.625
 43
3.75
 44
1.25
 73
     0
 74
     0
 77
     1
 78
     8
140
2.5
141
2.5
143
0.0393700787
147
0.625
171
     3
172
     1
178
     0
271
     2
272
     2
274
     3
278
    44
283
     0
284
     8
340
11
  0
ENDTAB
  0
TABLE
  2
BLOCK_RECORD
  5
1
330
0
100
AcDbSymbolTable
 70
     1
  0
BLOCK_RECORD
  5
1F
330
1
100
AcDbSymbolTableRecord
100
AcDbBlockTableRecord
  2
*Model_Space
340
22
  0
BLOCK_RECORD
  5
1B
330
1
100
AcDbSymbolTableRecord
100
AcDbBlockTableRecord
  2
*Paper_Space
340
1E
  0
BLOCK_RECORD
  5
23
330
1
100
AcDbSymbolTableRecord
100
AcDbBlockTableRecord
  2
*Paper_Space0
340
26
  0
ENDTAB
  0
ENDSEC
  0
SECTION
  2
BLOCKS
  0
BLOCK
  5
20
330
1F
100
AcDbEntity
  8
0
100
AcDbBlockBegin
  2
*Model_Space
 70
     0
 10
0.0
 20
0.0
 30
0.0
  3
*Model_Space
  1

  0
ENDBLK
  5
21
330
1F
100
AcDbEntity
  8
0
100
AcDbBlockEnd
  0
BLOCK
  5
1C
330
1B
100
AcDbEntity
 67
     1
  8
0
100
AcDbBlockBegin
  2
*Paper_Space
 70
     0
 10
0.0
 20
0.0
 30
0.0
  3
*Paper_Space
  1

  0
ENDBLK
  5
1D
330
1B
100
AcDbEntity
 67
     1
  8
0
100
AcDbBlockEnd
  0
BLOCK
  5
24
330
23
100
AcDbEntity
  8
0
100
AcDbBlockBegin
  2
*Paper_Space0
 70
     0
 10
0.0
 20
0.0
 30
0.0
  3
*Paper_Space0
  1

  0
ENDBLK
  5
25
330
23
100
AcDbEntity
  8
0
100
AcDbBlockEnd
  0
ENDSEC
  0
SECTION
  2
ENTITIES
  0
SPLINE
  5
75
330
1F
100
AcDbEntity
  8
0
  6
Continuous
 62
   144
370
    18
100
AcDbSpline
210
0.0
220
0.0
230
1.0
 70
     8
 71
     3
 72
    11
 73
     7
 74
     0
 42
0.000000001
 43
0.00000001
 40
0.0
 40
0.0
 40
0.0
 40
0.0
 40
0.2499999999977871
 40
0.5000000000035354
 40
0.7499999999938866
 40
0.9999999999999999
 40
0.9999999999999999
 40
0.9999999999999999
 40
0.9999999999999999
 10
39.33866651040683
 20
-0.093995824553092
 30
0.0
 10
39.90882699493653
 20
-0.0861144208844834
 30
0.0
 10
41.0491479640141
 20
-0.0703516135470155
 30
0.0
 10
42.75965883503623
 20
-0.0489444197407381
 30
0.0
 10
44.47017931057623
 20
-0.0282804145264818
 30
0.0
 10
45.61055099178505
 20
-0.0167422220732147
 30
0.0
 10
46.18073683240744
 20
-0.0109731258463993
 30
0.0
  0
SPLINE
  5
77
330
1F
100
AcDbEntity
  8
0
  6
Continuous
 62
   144
370
    18
100
AcDbSpline
210
0.0
220
0.0
230
1.0
 70
     8
 71
     3
 72
    21
 73
    17
 74
     0
 42
0.000000001
 43
0.00000001
 40
0.0
 40
0.0
 40
0.0
 40
0.0
 40
0.0625031862227402
 40
0.1250010447503577
 40
0.1874955048604358
 40
0.2499945635431984
 40
0.3124984828580301
 40
0.3750026973056082
 40
0.4999990499933537
 40
0.6249953054170236
 40
0.6875001397786686
 40
0.7500050497694892
 40
0.8125042469210785
 40
0.8749980144023038
 40
0.937495883926403
 40
1.0
 40
1.0
 40
1.0
 40
1.0
 10
29.63289238806862
 20
2.245188847222559
 30
0.0
 10
29.82187815212171
 20
2.234939961056215
 30
0.0
 10
30.19983357131258
 20
2.214443062326045
 30
0.0
 10
30.76655667429701
 20
2.180215108634611
 30
0.0
 10
31.33279121803633
 20
2.138639449239766
 30
0.0
 10
31.89826657027686
 20
2.087557267502295
 30
0.0
 10
32.46297031069368
 20
2.028336509571994
 30
0.0
 10
33.21481966377863
 20
1.939815813256388
 30
0.0
 10
34.15241370847832
 20
1.811062451940677
 30
0.0
 10
35.08576384984261
 20
1.654444317599431
 30
0.0
 10
35.82974397756841
 20
1.514386502300799
 30
0.0
 10
36.38630205912641
 20
1.401920440167441
 30
0.0
 10
36.94104472074233
 20
1.28093165975923
 30
0.0
 10
37.49347363439363
 20
1.14987681512607
 30
0.0
 10
38.0439955666271
 20
1.011043196324833
 30
0.0
 10
38.41039240075885
 20
0.9160381968267319
 30
0.0
 10
38.59359997254313
 20
0.8685333233016606
 30
0.0
  0
SPLINE
  5
78
330
1F
100
AcDbEntity
  8
0
  6
Continuous
 62
   144
370
    18
100
AcDbSpline
210
0.0
220
0.0
230
1.0
 70
     8
 71
     3
 72
    15
 73
    11
 74
     0
 42
0.000000001
 43
0.00000001
 40
0.0
 40
0.0
 40
0.0
 40
0.0
 40
0.0625000329254713
 40
0.1250000647485091
 40
0.2500001226424794
 40
0.5000001591322798
 40
0.750000172408971
 40
0.875000224169931
 40
0.9375002556175308
 40
1.0
 40
1.0
 40
1.0
 40
1.0
 10
8.427866014137315
 20
3.026287605290325
 30
0.0
 10
8.869730040303399
 20
3.012654529917962
 30
0.0
 10
9.753458084841563
 20
2.985388379413708
 30
0.0
 10
11.52087003275636
 20
2.929441510986903
 30
0.0
 10
14.61373642538712
 20
2.82828405991322
 30
0.0
 10
19.0317785542041
 20
2.673631854561319
 30
0.0
 10
23.44932327642281
 20
2.505301441504117
 30
0.0
 10
26.54124461667582
 20
2.378481229201296
 30
0.0
 10
28.30793684136367
 20
2.30320130719831
 30
0.0
 10
29.19123712918896
 20
2.26452648313302
 30
0.0
 10
29.63288625884095
 20
2.245189115509228
 30
0.0
  0
SPLINE
  5
7A
330
1F
100
AcDbEntity
  8
0
  6
Continuous
 62
   144
370
    18
100
AcDbSpline
210
0.0
220
0.0
230
1.0
 70
     8
 71
     3
 72
    16
 73
    12
 74
     0
 42
0.000000001
 43
0.00000001
 40
0.0
 40
0.0
 40
0.0
 40
0.0
 40
0.0625000136074001
 40
0.1250000272149144
 40
0.2500000500153972
 40
0.500000030017508
 40
0.7499999639945768
 40
0.8749999736048002
 40
0.9374999862533581
 40
0.9687499926162785
 40
1.0
 40
1.0
 40
1.0
 40
1.0
 10
-30.10429415063237
 20
4.471086206069498
 30
0.0
 10
-29.30947088735839
 20
4.437276127703505
 30
0.0
 10
-27.71982436080893
 20
4.36965597097146
 30
0.0
 10
-24.54046251641928
 20
4.236041374574132
 30
0.0
 10
-18.9764275233504
 20
4.005871738765208
 30
0.0
 10
-11.02724991969983
 20
3.690585509290214
 30
0.0
 10
-3.077099447225777
 20
3.400650079734381
 30
0.0
 10
2.488545438565831
 20
3.213342598645072
 30
0.0
 10
5.271507354683694
 20
3.123944962851784
 30
0.0
 10
6.86181482526655
 20
3.074236126388886
 30
0.0
 10
7.656984108123085
 20
3.049885259949839
 30
0.0
 10
8.054568756045024
 20
3.037709826531456
 30
0.0
  0
SPLINE
  5
7C
330
1F
100
AcDbEntity
  8
0
  6
Continuous
 62
   144
370
    18
100
AcDbSpline
210
0.0
220
0.0
230
1.0
 70
     8
 71
     3
 72
    11
 73
     7
 74
     0
 42
0.000000001
 43
0.00000001
 40
0.0
 40
0.0
 40
0.0
 40
0.0
 40
0.2500000127870273
 40
0.5000000259498999
 40
0.7500000391483941
 40
0.9999999999999999
 40
0.9999999999999999
 40
0.9999999999999999
 40
0.9999999999999999
 10
-39.69952284259584
 20
5.013593532999831
 30
0.0
 10
-38.90049479015481
 20
5.035575017709802
 30
0.0
 10
-37.30243868407152
 20
5.079537987162791
 30
0.0
 10
-34.90532408082689
 20
5.144367784353582
 30
0.0
 10
-32.50819108737812
 20
5.208507164178855
 30
0.0
 10
-30.91008517403071
 20
5.250614241503936
 30
0.0
 10
-30.11103230101288
 20
5.271667777962302
 30
0.0
  0
SPLINE
  5
7E
330
1F
100
AcDbEntity
  8
0
  6
Continuous
 62
   144
370
    18
100
AcDbSpline
210
0.0
220
0.0
230
1.0
 70
     8
 71
     3
 72
    15
 73
    11
 74
     0
 42
0.000000001
 43
0.00000001
 40
0.0
 40
0.0
 40
0.0
 40
0.0
 40
0.0625002056782775
 40
0.1250001320093461
 40
0.1874999483787708
 40
0.250000028008052
 40
0.3125001651623605
 40
0.3750001576286359
 40
0.5000000882104565
 40
0.9999999999999999
 40
0.9999999999999999
 40
0.9999999999999999
 40
0.9999999999999999
 10
-50.04028169216673
 20
5.317821407815097
 30
0.0
 10
-49.82471958988064
 20
5.310296002538535
 30
0.0
 10
-49.39359634877199
 20
5.295245225620515
 30
0.0
 10
-48.74694645195601
 20
5.271690336075378
 30
0.0
 10
-48.10038040049244
 20
5.245936066659879
 30
0.0
 10
-47.45388378667003
 20
5.218500412897305
 30
0.0
 10
-46.80740311365923
 20
5.190683537318201
 30
0.0
 10
-45.94541927238082
 20
5.153834563463106
 30
0.0
 10
-43.57498689333909
 20
5.05198653171371
 30
0.0
 10
-41.4200775008404
 20
4.958722011237679
 30
0.0
 10
-39.69614985619371
 20
4.884110389202419
 30
0.0
  0
SPLINE
  5
7F
330
1F
100
AcDbEntity
  8
0
  6
Continuous
 62
   144
370
    18
100
AcDbSpline
210
0.0
220
0.0
230
1.0
 70
     8
 71
     3
 72
    15
 73
    11
 74
     0
 42
0.000000001
 43
0.00000001
 40
0.0
 40
0.0
 40
0.0
 40
0.0
 40
0.1251206070255541
 40
0.2501773283771767
 40
0.3751323446508565
 40
0.5000001146118767
 40
0.6248678737119453
 40
0.7498228710899646
 40
0.8748795749005803
 40
1.0
 40
1.0
 40
1.0
 40
1.0
 10
-48.56762946508603
 20
8.191083900697464
 30
0.0
 10
-48.63699150395495
 20
8.075479471875488
 30
0.0
 10
-48.77568016593916
 20
7.844329641013941
 30
0.0
 10
-48.98075188408804
 20
7.496000730435381
 30
0.0
 10
-49.17986106150681
 20
7.144524115393221
 30
0.0
 10
-49.3700220048066
 20
6.788313995888847
 30
0.0
 10
-49.54816165766283
 20
6.425942519252325
 30
0.0
 10
-49.71723260821368
 20
6.059070262143291
 30
0.0
 10
-49.88026610435151
 20
5.68919551434301
 30
0.0
 10
-49.98693396415853
 20
5.44163412565591
 30
0.0
 10
-50.04028147846427
 20
5.317821903788616
 30
0.0
  0
SPLINE
  5
80
330
1F
100
AcDbEntity
  8
0
  6
Continuous
 62
   144
370
    18
100
AcDbSpline
210
0.0
220
0.0
230
1.0
 70
     8
 71
     3
 72
    19
 73
    15
 74
     0
 42
0.000000001
 43
0.00000001
 40
0.0
 40
0.0
 40
0.0
 40
0.0
 40
0.0636286579699528
 40
0.1271153221026776
 40
0.1903303781775774
 40
0.2531693664232342
 40
0.3774815444124599
 40
0.500252462848463
 40
0.6229334972353054
 40
0.7470908988882118
 40
0.8098560940580971
 40
0.8730038725712348
 40
0.9364292615881686
 40
1.0
 40
1.0
 40
1.0
 40
1.0
 10
-45.10160687373951
 20
7.120910930234115
 30
0.0
 10
-45.1801064183644
 20
7.12298248100827
 30
0.0
 10
-45.3369303278773
 20
7.127120959679839
 30
0.0
 10
-45.57169018901533
 20
7.135198595397248
 30
0.0
 10
-45.80533089960326
 20
7.147013904517901
 30
0.0
 10
-46.11347317868814
 20
7.170162474598074
 30
0.0
 10
-46.49340345111287
 20
7.217656813197892
 30
0.0
 10
-46.93937043921874
 20
7.32019213794475
 30
0.0
 10
-47.36629643078355
 20
7.484580180406528
 30
0.0
 10
-47.70654070927302
 20
7.65944253149883
 30
0.0
 10
-47.9735103013298
 20
7.814323352464531
 30
0.0
 10
-48.17259389414399
 20
7.93670652607097
 30
0.0
 10
-48.37042334996178
 20
8.062932230454626
 30
0.0
 10
-48.50184367603858
 20
8.148333914272223
 30
0.0
 10
-48.56762904556264
 20
8.191083628077033
 30
0.0
  0
SPLINE
  5
81
330
1F
100
AcDbEntity
  8
0
  6
Continuous
 62
   144
370
    18
100
AcDbSpline
210
0.0
220
0.0
230
1.0
 70
     8
 71
     3
 72
    17
 73
    13
 74
     0
 42
0.000000001
 43
0.00000001
 40
0.0
 40
0.0
 40
0.0
 40
0.0
 40
0.03125000879653
 40
0.0625000178846228
 40
0.1250000313626076
 40
0.2500000341298686
 40
0.4999999182152239
 40
0.6249999413368096
 40
0.7499999726536744
 40
0.8750000078588316
 40
0.9375000258398918
 40
1.0
 40
1.0
 40
1.0
 40
1.0
 10
8.118752010825153
 20
5.04175895350444
 30
0.0
 10
7.564204234013279
 20
5.058683510679106
 30
0.0
 10
6.455108675215593
 20
5.092532625186343
 30
0.0
 10
4.236988527571539
 20
5.162520991989753
 30
0.0
 10
0.3554114000440811
 20
5.289156329188044
 30
0.0
 10
-7.407192047474309
 20
5.558873267042597
 30
0.0
 10
-16.2776018369889
 20
5.898877434636352
 30
0.0
 10
-25.14697142711181
 20
6.264279764774582
 30
0.0
 10
-31.79864674841842
 20
6.546799670515505
 30
0.0
 10
-37.34155256417457
 20
6.785877999930346
 30
0.0
 10
-41.77585780247117
 20
6.97757393098089
 30
0.0
 10
-43.99302255606224
 20
7.073131874770143
 30
0.0
 10
-45.10160454422468
 20
7.120910829915006
 30
0.0
  0
SPLINE
  5
83
330
1F
100
AcDbEntity
  8
0
  6
Continuous
 62
   144
370
    18
100
AcDbSpline
210
0.0
220
0.0
230
1.0
 70
     8
 71
     3
 72
    16
 73
    12
 74
     0
 42
0.000000001
 43
0.00000001
 40
0.0
 40
0.0
 40
0.0
 40
0.0
 40
0.0625000081907389
 40
0.1250000144999932
 40
0.2500000199492425
 40
0.3750000254958019
 40
0.5000000316418147
 40
0.7499999776788319
 40
0.8749999855304073
 40
0.9374999923048813
 40
1.0
 40
1.0
 40
1.0
 40
1.0
 10
29.55334995452288
 20
4.269573073843542
 30
0.0
 10
29.11411359259932
 20
4.288159059547334
 30
0.0
 10
28.23564088197488
 20
4.325331030395413
 30
0.0
 10
26.47861741410287
 20
4.397811096679549
 30
0.0
 10
24.28221545874233
 20
4.485402531728906
 30
0.0
 10
21.64637330842277
 20
4.586424134232408
 30
0.0
 10
18.1316970765808
 20
4.715221123887651
 30
0.0
 10
14.61675764674841
 20
4.836764984455659
 30
0.0
 10
11.54095347042677
 20
4.936042610121882
 30
0.0
 10
9.783295579579569
 20
4.991024405763706
 30
0.0
 10
8.904446595190601
 20
5.017866119647691
 30
0.0
 10
8.46502209975969
 20
5.03128697668853
 30
0.0
  0
SPLINE
  5
84
330
1F
100
AcDbEntity
  8
0
  6
Continuous
 62
   144
370
    18
100
AcDbSpline
210
0.0
220
0.0
230
1.0
 70
     8
 71
     3
 72
    21
 73
    17
 74
     0
 42
0.000000001
 43
0.00000001
 40
0.0
 40
0.0
 40
0.0
 40
0.0
 40
0.0625043926651003
 40
0.1250026388479707
 40
0.1874969140179883
 40
0.2499964681983328
 40
0.3125015275021952
 40
0.3750064052585961
 40
0.5000034008491001
 40
0.6250005345601513
 40
0.6666698943469439
 40
0.7500083742771968
 40
0.8125078066868836
 40
0.8750028710453903
 40
0.9375011046847006
 40
1.0
 40
1.0
 40
1.0
 40
1.0
 10
38.31539567339883
 20
2.960960050751007
 30
0.0
 10
38.13609441937316
 20
3.00626393501228
 30
0.0
 10
37.77750954323412
 20
3.096867248495625
 30
0.0
 10
37.23876177166265
 20
3.229229594711255
 30
0.0
 10
36.69822315166328
 20
3.354090955916325
 30
0.0
 10
36.1555136960294
 20
3.469249771507676
 30
0.0
 10
35.61110518108568
 20
3.576205825770239
 30
0.0
 10
34.8834494696504
 20
3.709301817780344
 30
0.0
 10
33.97074569702477
 20
3.858004747909042
 30
0.0
 10
33.11525173951542
 20
3.972224151008275
 30
0.0
 10
32.380500988665
 20
4.057727125558626
 30
0.0
 10
31.82865702690492
 20
4.115144694798526
 30
0.0
 10
31.21457202320637
 20
4.168894743307879
 30
0.0
 10
30.66119716951101
 20
4.208215601826499
 30
0.0
 10
30.10738669592045
 20
4.240549942806527
 30
0.0
 10
29.73805528166763
 20
4.259897313639926
 30
0.0
 10
29.55338859700785
 20
4.269571050264563
 30
0.0
  0
SPLINE
  5
85
330
1F
100
AcDbEntity
  8
0
  6
Continuous
 62
   144
370
    18
100
AcDbSpline
210
0.0
220
0.0
230
1.0
 70
     8
 71
     3
 72
    19
 73
    15
 74
     0
 42
0.000000001
 43
0.00000001
 40
0.0
 40
0.0
 40
0.0
 40
0.0
 40
0.0625049562207331
 40
0.1250049234439181
 40
0.1874993692628263
 40
0.2499953224802374
 40
0.3750002100272534
 40
0.5000023394003348
 40
0.6250021865041551
 40
0.7500055302073646
 40
0.8125027759086564
 40
0.8749982867888326
 40
0.9374977059142932
 40
1.0
 40
1.0
 40
1.0
 40
1.0
 10
46.13963014085104
 20
1.630343276317795
 30
0.0
 10
45.97463596633631
 20
1.644386156405124
 30
0.0
 10
45.64466078675102
 20
1.672470795710357
 30
0.0
 10
45.14992852611763
 20
1.717022464366381
 30
0.0
 10
44.65566180080933
 20
1.7663378577884
 30
0.0
 10
43.99767670555574
 20
1.842013214286963
 30
0.0
 10
43.17737228345089
 20
1.954604559202293
 30
0.0
 10
42.19630627527096
 20
2.111632297361722
 30
0.0
 10
41.21883618950773
 20
2.289679776212191
 30
0.0
 10
40.40778154144485
 20
2.456230175447572
 30
0.0
 10
39.76178591339286
 20
2.602367284469694
 30
0.0
 10
39.27881462936093
 20
2.718437411212064
 30
0.0
 10
38.79685156392125
 20
2.838645925222006
 30
0.0
 10
38.47588775409966
 20
2.920186952150176
 30
0.0
 10
38.31540215820667
 20
2.960958403310253
 30
0.0
  0
SPLINE
  5
8B
330
1F
100
AcDbEntity
  8
0
  6
Continuous
 62
   144
370
    18
100
AcDbSpline
210
0.0
220
0.0
230
1.0
 70
     8
 71
     3
 72
    13
 73
     9
 74
     0
 42
0.000000001
 43
0.00000001
 40
0.0
 40
0.0
 40
0.0
 40
0.0
 40
0.1250000043892855
 40
0.2500000080173628
 40
0.5000000159817405
 40
0.7500000242582314
 40
0.8750000281705851
 40
1.0
 40
1.0
 40
1.0
 40
1.0
 10
71.59505770308934
 20
1.461221019063447
 30
0.0
 10
70.71222429963768
 20
1.461342064772206
 30
0.0
 10
68.94655749811048
 20
1.461584156188987
 30
0.0
 10
65.41522431631078
 20
1.463468232796904
 30
0.0
 10
61.00105891425677
 20
1.467285533450597
 30
0.0
 10
56.58689393888384
 20
1.471516727706458
 30
0.0
 10
53.05556157976947
 20
1.474240621819821
 30
0.0
 10
51.28989524975341
 20
1.475180830778244
 30
0.0
 10
50.40706219804092
 20
1.475650935197127
 30
0.0
  0
SPLINE
  5
8F
330
1F
100
AcDbEntity
  8
0
  6
Continuous
 62
   144
370
    18
100
AcDbSpline
210
0.0
220
0.0
230
1.0
 70
     8
 71
     3
 72
     9
 73
     5
 74
     0
 42
0.000000001
 43
0.00000001
 40
0.0
 40
0.0
 40
0.0
 40
0.0
 40
0.5078756626373023
 40
0.9999999999999999
 40
0.9999999999999999
 40
0.9999999999999999
 40
0.9999999999999999
 10
50.43192403775288
 20
6.741916242277991
 30
0.0
 10
54.01311246882208
 20
6.741056542446577
 30
0.0
 10
61.06442186307966
 20
6.73936380563192
 30
0.0
 10
68.11572913163546
 20
6.733640344049778
 30
0.0
 10
71.58584904871428
 20
6.730823689311247
 30
0.0
  0
SPLINE
  5
91
330
1F
100
AcDbEntity
  8
0
  6
Continuous
 62
   144
370
    18
100
AcDbSpline
210
0.0
220
0.0
230
1.0
 70
     8
 71
     3
 72
    12
 73
     8
 74
     0
 42
0.000000001
 43
0.00000001
 40
0.0
 40
0.0
 40
0.0
 40
0.0
 40
0.2499999999690904
 40
0.499999999594877
 40
0.7499999990839381
 40
0.8749999993580343
 40
0.9999999999999999
 40
0.9999999999999999
 40
0.9999999999999999
 40
0.9999999999999999
 10
96.5982687135342
 20
1.445041894728959
 30
0.0
 10
94.8327908781807
 20
1.444701405551299
 30
0.0
 10
91.30183520989816
 20
1.444020427196446
 30
0.0
 10
86.00540169468121
 20
1.445649058335419
 30
0.0
 10
81.59170816550947
 20
1.448965955448841
 30
0.0
 10
78.06075471960978
 20
1.453004381689875
 30
0.0
 10
76.29527874172538
 20
1.455583958944175
 30
0.0
 10
75.41254075148427
 20
1.456873747573223
 30
0.0
  0
SPLINE
  5
A1
330
1F
100
AcDbEntity
  8
0
  6
Continuous
 62
   144
370
    18
100
AcDbSpline
210
0.0
220
0.0
230
1.0
 70
     8
 71
     3
 72
    12
 73
     8
 74
     0
 42
0.000000001
 43
0.00000001
 40
0.0
 40
0.0
 40
0.0
 40
0.0
 40
0.1250000000739842
 40
0.2500000003516554
 40
0.4999999994013424
 40
0.7499999995843158
 40
1.0
 40
1.0
 40
1.0
 40
1.0
 10
126.580000864629
 20
9.26439986221898
 30
0.0
 10
125.4913825872104
 20
9.266214284502949
 30
0.0
 10
123.314146030599
 20
9.269843129073841
 30
0.0
 10
118.9596703934522
 20
9.275424646232757
 30
0.0
 10
113.5165734960996
 20
9.28026439826542
 30
0.0
 10
106.984856084254
 20
9.284335767365183
 30
0.0
 10
102.6303778347087
 20
9.287098954996491
 30
0.0
 10
100.4531387089227
 20
9.288480548812789
 30
0.0
  0
LWPOLYLINE
  5
A5
330
1F
100
AcDbEntity
  8
0
  6
Continuous
 62
   144
370
    18
100
AcDbPolyline
 90
        3
 70
   128
 43
0.0
 10
100.5010468411
 20
16.0132560013
 10
113.5242328405
 20
16.0046345359
 10
126.5474174484
 20
15.9950140014
  0
SPLINE
  5
AB
330
1F
100
AcDbEntity
  8
0
  6
Continuous
 62
   144
370
    18
100
AcDbSpline
210
0.0
220
0.0
230
1.0
 70
     8
 71
     3
 72
    13
 73
     9
 74
     0
 42
0.000000001
 43
0.00000001
 40
0.0
 40
0.0
 40
0.0
 40
0.0
 40
0.1250000035555819
 40
0.2500000071611037
 40
0.5000000132137061
 40
0.7500000190834226
 40
0.8750000227040919
 40
1.0
 40
1.0
 40
1.0
 40
1.0
 10
126.6005296451292
 20
1.417159949907862
 30
0.0
 10
125.5094925669797
 20
1.417447564406325
 30
0.0
 10
123.3274184102447
 20
1.418022793403365
 30
0.0
 10
118.9632704352834
 20
1.420098164445367
 30
0.0
 10
113.5080861758444
 20
1.424021564249173
 30
0.0
 10
108.0529038636835
 20
1.430089011954745
 30
0.0
 10
103.6887598340198
 20
1.436161086050564
 30
0.0
 10
101.5066888340722
 20
1.439783588511491
 30
0.0
 10
100.4156534489834
 20
1.441594839551231
 30
0.0
  0
SPLINE
  5
AF
330
1F
100
AcDbEntity
  8
0
  6
Continuous
 62
   144
370
    18
100
AcDbSpline
210
0.0
220
0.0
230
1.0
 70
     8
 71
     3
 72
    13
 73
     9
 74
     0
 42
0.000000001
 43
0.00000001
 40
0.0
 40
0.0
 40
0.0
 40
0.0
 40
0.1250000032626653
 40
0.2500000066858659
 40
0.500000013265767
 40
0.7500000182790046
 40
0.8750000218341367
 40
1.0
 40
1.0
 40
1.0
 40
1.0
 10
100.4364853112778
 20
6.710513647459421
 30
0.0
 10
101.5261697118681
 20
6.709624411030835
 30
0.0
 10
103.7055385144481
 20
6.707845938172525
 30
0.0
 10
108.0642768167138
 20
6.705284383980993
 30
0.0
 10
113.5126995666864
 20
6.701893289647612
 30
0.0
 10
118.9611212131544
 20
6.696947929368403
 30
0.0
 10
123.3198567461605
 20
6.691488090454099
 30
0.0
 10
125.499222620742
 20
6.687601950287583
 30
0.0
 10
126.5889054473676
 20
6.685658880401652
 30
0.0
  0
SPLINE
  5
B8
330
1F
100
AcDbEntity
  8
0
  6
Continuous
 62
   144
370
    18
100
AcDbSpline
210
0.0
220
0.0
230
1.0
 70
     8
 71
     3
 72
    11
 73
     7
 74
     0
 42
0.000000001
 43
0.00000001
 40
0.0
 40
0.0
 40
0.0
 40
0.0
 40
0.2500000068547694
 40
0.5000000135637076
 40
0.7500000203727354
 40
1.0
 40
1.0
 40
1.0
 40
1.0
 10
71.5738576228724
 20
9.30954578754771
 30
0.0
 10
69.81321525934867
 20
9.310961551456618
 30
0.0
 10
66.29193053332826
 20
9.31379307927361
 30
0.0
 10
61.0100026321543
 20
9.316904494265199
 30
0.0
 10
55.72807453435011
 20
9.319246926899217
 30
0.0
 10
52.20678897981428
 20
9.320153193588233
 30
0.0
 10
50.44614629826111
 20
9.32060632690811
 30
0.0
  0
SPLINE
  5
BF
330
1F
100
AcDbEntity
  8
0
  6
Continuous
 62
   144
370
    18
100
AcDbSpline
210
0.0
220
0.0
230
1.0
 70
     8
 71
     3
 72
    11
 73
     7
 74
     0
 42
0.000000001
 43
0.00000001
 40
0.0
 40
0.0
 40
0.0
 40
0.0
 40
0.2857142933354286
 40
0.5000000134986682
 40
0.7500000203830638
 40
1.0
 40
1.0
 40
1.0
 40
1.0
 10
50.46139900449874
 20
25.91979573685046
 30
0.0
 10
52.47344759096693
 20
25.91790220383821
 30
0.0
 10
55.99453261842475
 20
25.91458852106569
 30
0.0
 10
61.27616087029376
 20
25.91043554289238
 30
0.0
 10
66.30628307100834
 20
25.90682121902202
 30
0.0
 10
69.82736870478479
 20
25.90451138401902
 30
0.0
 10
71.58791142566196
 20
25.90335646658049
 30
0.0
  0
SPLINE
  5
C7
330
1F
100
AcDbEntity
  8
0
  6
Continuous
 62
   144
370
    18
100
AcDbSpline
210
0.0
220
0.0
230
1.0
 70
     8
 71
     3
 72
    12
 73
     8
 74
     0
 42
0.000000001
 43
0.00000001
 40
0.0
 40
0.0
 40
0.0
 40
0.0
 40
0.2500000084595868
 40
0.5000000166499039
 40
0.750000024108648
 40
0.875000027871085
 40
1.0
 40
1.0
 40
1.0
 40
1.0
 10
50.44128787540745
 20
33.76836375898856
 30
0.0
 10
52.20640763325951
 20
33.76772551425513
 30
0.0
 10
55.73664714706246
 20
33.76644902478893
 30
0.0
 10
61.03200620733187
 20
33.76395812240217
 30
0.0
 10
65.4448045845559
 20
33.76038999037255
 30
0.0
 10
68.97504158723895
 20
33.75610773678771
 30
0.0
 10
70.7401588871539
 20
33.75322057643425
 30
0.0
 10
71.62271742543761
 20
33.75177699644019
 30
0.0
  0
SPLINE
  5
CD
330
1F
100
AcDbEntity
  8
0
  6
Continuous
 62
   144
370
    18
100
AcDbSpline
210
0.0
220
0.0
230
1.0
 70
     8
 71
     3
 72
    12
 73
     8
 74
     0
 42
0.000000001
 43
0.00000001
 40
0.0
 40
0.0
 40
0.0
 40
0.0
 40
0.1250000046745647
 40
0.2500000088751996
 40
0.5000000164939785
 40
0.7500000243368256
 40
1.0
 40
1.0
 40
1.0
 40
1.0
 10
75.43984048051735
 20
33.74981461942569
 30
0.0
 10
76.32249163480238
 20
33.74967287848569
 30
0.0
 10
78.0877939400259
 20
33.7493893966062
 30
0.0
 10
81.61839820213073
 20
33.74766850105731
 30
0.0
 10
86.03165255305623
 20
33.74394496807174
 30
0.0
 10
91.32755509762512
 20
33.73713911755321
 30
0.0
 10
94.85815412250963
 20
33.73096206521755
 30
0.0
 10
96.62345352133838
 20
33.72787353924851
 30
0.0
  0
SPLINE
  5
DF
330
1F
100
AcDbEntity
  8
0
  6
Continuous
 62
   144
370
    18
100
AcDbSpline
210
0.0
220
0.0
230
1.0
 70
     8
 71
     3
 72
    12
 73
     8
 74
     0
 42
0.000000001
 43
0.00000001
 40
0.0
 40
0.0
 40
0.0
 40
0.0
 40
0.2000000047880044
 40
0.5000000115909498
 40
0.7500000161711752
 40
0.8750000192269077
 40
1.0
 40
1.0
 40
1.0
 40
1.0
 10
100.4661577524424
 20
25.87852233441151
 30
0.0
 10
102.2079157853884
 20
25.87710016887833
 30
0.0
 10
106.5623108644521
 20
25.87354475504807
 30
0.0
 10
113.0939035070898
 20
25.86823249049051
 30
0.0
 10
118.9723381940115
 20
25.86518915861654
 30
0.0
 10
123.3267345879024
 20
25.86465552137847
 30
0.0
 10
125.5039326081143
 20
25.8652107145097
 30
0.0
 10
126.5925315211928
 20
25.86548831105057
 30
0.0
  0
SPLINE
  5
E3
330
1F
100
AcDbEntity
  8
0
  6
Continuous
 62
   144
370
    18
100
AcDbSpline
210
0.0
220
0.0
230
1.0
 70
     8
 71
     3
 72
    13
 73
     9
 74
     0
 42
0.000000001
 43
0.00000001
 40
0.0
 40
0.0
 40
0.0
 40
0.0
 40
0.1250000030587714
 40
0.2500000065922222
 40
0.5000000115756574
 40
0.7500000181302228
 40
0.8750000215322864
 40
0.9999999999999999
 40
0.9999999999999999
 40
0.9999999999999999
 40
0.9999999999999999
 10
126.6051445867404
 20
28.44420119069615
 30
0.0
 10
125.5154871517131
 20
28.44380283780885
 30
0.0
 10
123.3361722775207
 20
28.44300613203275
 30
0.0
 10
118.9775422328658
 20
28.44366096195415
 30
0.0
 10
113.5292553410415
 20
28.44636602570689
 30
0.0
 10
108.0809695933831
 20
28.45070762811401
 30
0.0
 10
103.7223413874279
 20
28.45439217656405
 30
0.0
 10
101.5430270809028
 20
28.45582170177696
 30
0.0
 10
100.4533700363198
 20
28.45653646431212
 30
0.0
  0
SPLINE
  5
E7
330
1F
100
AcDbEntity
  8
0
  6
Continuous
 62
   144
370
    18
100
AcDbSpline
210
0.0
220
0.0
230
1.0
 70
     8
 71
     3
 72
    13
 73
     9
 74
     0
 42
0.000000001
 43
0.00000001
 40
0.0
 40
0.0
 40
0.0
 40
0.0
 40
0.1250000035097351
 40
0.2500000070950636
 40
0.5000000130566817
 40
0.7500000191254966
 40
0.8750000227026615
 40
0.9999999999999999
 40
0.9999999999999999
 40
0.9999999999999999
 40
0.9999999999999999
 10
100.4406919692336
 20
33.72563788845953
 30
0.0
 10
101.5316846086505
 20
33.725841196121
 30
0.0
 10
103.7136698881441
 20
33.72624781144404
 30
0.0
 10
108.0776405238298
 20
33.72598632063097
 30
0.0
 10
113.5326036251323
 20
33.72424109401426
 30
0.0
 10
118.9875656797136
 20
33.72045180078096
 30
0.0
 10
123.3515341892431
 20
33.71638314958891
 30
0.0
 10
125.5335178480787
 20
33.71388702001838
 30
0.0
 10
126.6245095628122
 20
33.7126389553643
 30
0.0
  0
SPLINE
  5
EA
330
1F
100
AcDbEntity
  8
0
  6
Continuous
 62
   144
370
    18
100
AcDbSpline
210
0.0
220
0.0
230
1.0
 70
     8
 71
     3
 72
    43
 73
    39
 74
     0
 42
0.000000001
 43
0.00000001
 40
0.0
 40
0.0
 40
0.0
 40
0.0
 40
0.0312499999093734
 40
0.062499999807655
 40
0.1249999994387817
 40
0.2499999969420175
 40
0.2812499955783872
 40
0.2968749979577739
 40
0.3046875018581739
 40
0.3125000038017552
 40
0.3281249945883771
 40
0.3437499949281449
 40
0.3593750008402282
 40
0.3750000003128608
 40
0.406249999495604
 40
0.4374999995015396
 40
0.4999999987289255
 40
0.5312499986047609
 40
0.5468749981535896
 40
0.5625000000623023
 40
0.5703125031310098
 40
0.5781250043866206
 40
0.5937499963841697
 40
0.6093749975587631
 40
0.6250000011393302
 40
0.6562500006467267
 40
0.6875000004860945
 40
0.7499999999358028
 40
0.7812500008741607
 40
0.812499996884864
 40
0.8281250036985862
 40
0.8437500114774675
 40
0.8593749959918373
 40
0.8749999996357787
 40
0.8928571510062768
 40
0.9107142913413079
 40
0.946428576936949
 40
1.0
 40
1.0
 40
1.0
 40
1.0
 10
129.4391368012454
 20
35.18511762392401
 30
0.0
 10
128.4366430565989
 20
35.18622303726669
 30
0.0
 10
126.4316555676615
 20
35.18843386395164
 30
0.0
 10
122.421680781127
 20
35.19302222093664
 30
0.0
 10
115.4042228898062
 20
35.19918513724748
 30
0.0
 10
108.3867624250567
 20
35.20138242815858
 30
0.0
 10
102.873043535696
 20
35.20196098458634
 30
0.0
 10
101.1186782384074
 20
35.20146712355979
 30
0.0
 10
100.1161839266827
 20
35.20065519115168
 30
0.0
 10
99.11368993553536
 20
35.19998660161152
 30
0.0
 10
97.86057149731863
 20
35.20029389620701
 30
0.0
 10
96.35683329316984
 20
35.20359286006425
 30
0.0
 10
94.85309529422375
 20
35.2069176947895
 30
0.0
 10
92.84810868479558
 20
35.2099925748723
 30
0.0
 10
90.34187584060399
 20
35.21384816195502
 30
0.0
 10
86.33190188322963
 20
35.21910925418639
 30
0.0
 10
82.3219260268258
 20
35.22294859597328
 30
0.0
 10
78.81319613761745
 20
35.2244748103647
 30
0.0
 10
76.80820761526833
 20
35.22548015483792
 30
0.0
 10
75.5550894286461
 20
35.22543462713186
 30
0.0
 10
74.55259500020306
 20
35.22490974667573
 30
0.0
 10
73.5501008592643
 20
35.22451318551872
 30
0.0
 10
72.29698261818123
 20
35.22515391064127
 30
0.0
 10
70.79324467720618
 20
35.22850485227868
 30
0.0
 10
68.78825947756374
 20
35.23235615226283
 30
0.0
 10
66.28202430960089
 20
35.23474381265066
 30
0.0
 10
62.27204909036197
 20
35.23881963360665
 30
0.0
 10
58.26207200998629
 20
35.24102651483456
 30
0.0
 10
54.2520949606608
 20
35.24237913735946
 30
0.0
 10
51.74585928262155
 20
35.24379118104365
 30
0.0
 10
49.74087029837003
 20
35.2442196931563
 30
0.0
 10
48.2371286141879
 20
35.24408170894809
 30
0.0
 10
46.73338820992461
 20
35.24680212566151
 30
0.0
 10
45.15805243454297
 20
35.25315506786865
 30
0.0
 10
43.51110944133882
 20
35.25951238534077
 30
0.0
 10
41.2197056414589
 20
35.26697945940342
 30
0.0
 10
37.78260439604115
 20
35.27927487875188
 30
0.0
 10
34.9183522101349
 20
35.2892099303046
 30
0.0
 10
33.19980096699017
 20
35.29517096099897
 30
0.0
  0
SPLINE
  5
EB
330
1F
100
AcDbEntity
  8
0
  6
Continuous
 62
   144
370
    18
100
AcDbSpline
210
0.0
220
0.0
230
1.0
 70
     8
 71
     3
 72
    20
 73
    16
 74
     0
 42
0.000000001
 43
0.00000001
 40
0.0
 40
0.0
 40
0.0
 40
0.0
 40
0.124999998003019
 40
0.1874999878786762
 40
0.2499999843724552
 40
0.3124999818220674
 40
0.3750000343113378
 40
0.4375001006548309
 40
0.4999999991233941
 40
0.5624998834333385
 40
0.6249999587009248
 40
0.6875000826899058
 40
0.7500001124769733
 40
0.8749999950389911
 40
1.0
 40
1.0
 40
1.0
 40
1.0
 10
129.5286306027348
 20
17.56284879939595
 30
0.0
 10
129.5229915098189
 20
18.29710026624262
 30
0.0
 10
129.5145328708567
 20
19.39847741290725
 30
0.0
 10
129.5044425222773
 20
20.86698895963962
 30
0.0
 10
129.4973920449551
 20
21.96837589646287
 30
0.0
 10
129.4898693096747
 20
23.06976036402561
 30
0.0
 10
129.4806830187735
 20
24.17113270523096
 30
0.0
 10
129.4708193491464
 20
25.27249813142012
 30
0.0
 10
129.4623445384237
 20
26.37387532146607
 30
0.0
 10
129.4570513582798
 20
27.47527263610346
 30
0.0
 10
129.4535789390069
 20
28.57667731989922
 30
0.0
 10
129.4503758346764
 20
29.67808368751043
 30
0.0
 10
129.4453654768625
 20
31.14662147878398
 30
0.0
 10
129.4405117440634
 20
32.98229841065091
 30
0.0
 10
129.439595115893
 20
34.45084397855558
 30
0.0
 10
129.4391368015833
 20
35.18511712200504
 30
0.0
  0
SPLINE
  5
EC
330
1F
100
AcDbEntity
  8
0
  6
Continuous
 62
   144
370
    18
100
AcDbSpline
210
0.0
220
0.0
230
1.0
 70
     8
 71
     3
 72
    21
 73
    17
 74
     0
 42
0.000000001
 43
0.00000001
 40
0.0
 40
0.0
 40
0.0
 40
0.0
 40
0.1250002402805077
 40
0.1875002835835944
 40
0.2500003389452511
 40
0.3125004722782622
 40
0.3750007008189567
 40
0.4375008799710093
 40
0.5000008650604825
 40
0.5625008639994704
 40
0.6250010344685504
 40
0.6875011927371922
 40
0.7500012934218014
 40
0.8125013917338347
 40
0.8750014842029216
 40
1.0
 40
1.0
 40
1.0
 40
1.0
 10
129.4130914401526
 20
-0.059321808200008
 30
0.0
 10
129.4146259374559
 20
0.6749522584253724
 30
0.0
 10
129.4169276824675
 20
1.776362907007997
 30
0.0
 10
129.4220163771459
 20
3.24490472384043
 30
0.0
 10
129.4269821843334
 20
4.346306210909684
 30
0.0
 10
129.4323208268919
 20
5.44770695605802
 30
0.0
 10
129.4371409294493
 20
6.549110834593467
 30
0.0
 10
129.4422067841316
 20
7.650512746235479
 30
0.0
 10
129.4491050165904
 20
8.751904570659491
 30
0.0
 10
129.4592066279338
 20
9.853271439588227
 30
0.0
 10
129.4707186542499
 20
10.95462427988476
 30
0.0
 10
129.4815743800713
 20
12.05598484790961
 30
0.0
 10
129.4907815144797
 20
13.15735993167296
 30
0.0
 10
129.4995136667477
 20
14.2587382128114
 30
0.0
 10
129.5118167092309
 20
15.72722748929158
 30
0.0
 10
129.5219049000854
 20
16.82858439285455
 30
0.0
 10
129.5286303307196
 20
17.56281906041437
 30
0.0
  0
SPLINE
  5
ED
330
1F
100
AcDbEntity
  8
0
  6
Continuous
 62
   144
370
    18
100
AcDbSpline
210
0.0
220
0.0
230
1.0
 70
     8
 71
     3
 72
    33
 73
    29
 74
     0
 42
0.000000001
 43
0.00000001
 40
0.0
 40
0.0
 40
0.0
 40
0.0
 40
0.0312500002563832
 40
0.0625000000963368
 40
0.1250000003042802
 40
0.1875000005466383
 40
0.2500000004924973
 40
0.2812500019197006
 40
0.2968750062041945
 40
0.3125000004314945
 40
0.3281249976531382
 40
0.3437500027317916
 40
0.3750000031445298
 40
0.4375000030246086
 40
0.5000000028060684
 40
0.5625000020492208
 40
0.5937500062042618
 40
0.6093750106817948
 40
0.6250000018226359
 40
0.6406250002467746
 40
0.6562500070420103
 40
0.6875000070640189
 40
0.718750006988047
 40
0.7500000071636079
 40
0.8750000058772582
 40
0.937500005919645
 40
0.9687500060267066
 40
1.0
 40
1.0
 40
1.0
 40
1.0
 10
47.45778517382335
 20
0.0000000000000035
 30
0.0
 10
48.31148665324868
 20
0.0001149696717321
 30
0.0
 10
50.01888960072313
 20
0.0003449090136573
 30
0.0
 10
53.43369510648375
 20
-0.001496223155311
 30
0.0
 10
57.70220086365125
 20
-0.0050915287641512
 30
0.0
 10
62.82440729579698
 20
-0.0100247906839122
 30
0.0
 10
67.09291330570584
 20
-0.0132529097725569
 30
0.0
 10
70.08086870864597
 20
-0.0144350812100069
 30
0.0
 10
71.78827141242469
 20
-0.0135626514352007
 30
0.0
 10
73.06882381955982
 20
-0.0139467444795882
 30
0.0
 10
74.34937402997808
 20
-0.0162912796952484
 30
0.0
 10
76.05677274160125
 20
-0.020117355274561
 30
0.0
 10
79.04472622584134
 20
-0.0237413561448948
 30
0.0
 10
83.31323099166222
 20
-0.0282705343170009
 30
0.0
 10
88.43543933340352
 20
-0.0308907648580126
 30
0.0
 10
92.70394669119906
 20
-0.0314840715637897
 30
0.0
 10
95.69190208165868
 20
-0.0308529166550794
 30
0.0
 10
97.39930450930913
 20
-0.0295082626859725
 30
0.0
 10
98.67985699839599
 20
-0.0300111138964704
 30
0.0
 10
99.96040673893134
 20
-0.032587961191191
 30
0.0
 10
101.6678051719697
 20
-0.0365627404543756
 30
0.0
 10
103.8020573933927
 20
-0.0394149416160874
 30
0.0
 10
106.3631589372287
 20
-0.0431623161874696
 30
0.0
 10
111.4853636071805
 20
-0.0496436732210682
 30
0.0
 10
117.461271893697
 20
-0.0548472840065425
 30
0.0
 10
123.4371814671888
 20
-0.0576358836643808
 30
0.0
 10
126.851987034263
 20
-0.0584784496161182
 30
0.0
 10
128.5593896928881
 20
-0.0590406885812424
 30
0.0
 10
129.4130909384181
 20
-0.0593218080362154
 30
0.0
  0
SPLINE
  5
FA
330
1F
100
AcDbEntity
  8
0
  6
Continuous
 62
   144
370
    18
100
AcDbSpline
210
0.0
220
0.0
230
1.0
 70
     8
 71
     3
 72
    15
 73
    11
 74
     0
 42
0.000000001
 43
0.00000001
 40
0.0
 40
0.0
 40
0.0
 40
0.0
 40
0.1250193795564938
 40
0.2500284869162876
 40
0.3750212502891873
 40
0.5000000024648875
 40
0.6249787537799356
 40
0.7499715156546147
 40
0.8749806216226464
 40
0.9999999999999999
 40
0.9999999999999999
 40
0.9999999999999999
 40
0.9999999999999999
 10
39.17113002535076
 20
6.282989652289603
 30
0.0
 10
39.43694634536099
 20
6.283095264811775
 30
0.0
 10
39.9685571446274
 20
6.283306481178484
 30
0.0
 10
40.7659253381
 20
6.286291246478332
 30
0.0
 10
41.56317441832088
 20
6.294612295646893
 30
0.0
 10
42.36024731915985
 20
6.310938982121264
 30
0.0
 10
43.15703004298479
 20
6.337940050253647
 30
0.0
 10
43.95355373002314
 20
6.372944915725951
 30
0.0
 10
44.74990642990949
 20
6.413284828464687
 30
0.0
 10
45.2807435513779
 20
6.441955914849712
 30
0.0
 10
45.54617301682202
 20
6.456292047017387
 30
0.0
  0
SPLINE
  5
FB
330
1F
100
AcDbEntity
  8
0
  6
Continuous
 62
   144
370
    18
100
AcDbSpline
210
0.0
220
0.0
230
1.0
 70
     8
 71
     3
 72
    19
 73
    15
 74
     0
 42
0.000000001
 43
0.00000001
 40
0.0
 40
0.0
 40
0.0
 40
0.0
 40
0.062501322743866
 40
0.1250009400655215
 40
0.2499922879993785
 40
0.3124881323627093
 40
0.3749901676241122
 40
0.5000061555277114
 40
0.6250145999951403
 40
0.6875102906909072
 40
0.7500015350327275
 40
0.8749930362568101
 40
0.9374971726984412
 40
1.0
 40
1.0
 40
1.0
 40
1.0
 10
29.59917078582394
 20
5.553281100629819
 30
0.0
 10
29.79748941809924
 20
5.580618208520659
 30
0.0
 10
30.19412127129235
 20
5.635291678377151
 30
0.0
 10
30.98757277339041
 20
5.743026808290252
 30
0.0
 10
31.78167416601219
 20
5.845920659963054
 30
0.0
 10
32.57696149994109
 20
5.939171817228748
 30
0.0
 10
33.37324557191737
 20
6.024243735324379
 30
0.0
 10
34.37033785540853
 20
6.11398535761706
 30
0.0
 10
35.36924659812691
 20
6.18044841201467
 30
0.0
 10
36.16909815518616
 20
6.218616852534761
 30
0.0
 10
36.96929608697827
 20
6.247122802529921
 30
0.0
 10
37.76986019299677
 20
6.264310483149756
 30
0.0
 10
38.5705294608015
 20
6.275794575874664
 30
0.0
 10
38.97090245343587
 20
6.28059096545216
 30
0.0
 10
39.17108685329253
 20
6.282989135125724
 30
0.0
  0
SPLINE
  5
FC
330
1F
100
AcDbEntity
  8
0
  6
Continuous
 62
   144
370
    18
100
AcDbSpline
210
0.0
220
0.0
230
1.0
 70
     8
 71
     3
 72
    16
 73
    12
 74
     0
 42
0.000000001
 43
0.00000001
 40
0.0
 40
0.0
 40
0.0
 40
0.0
 40
0.1250000593432866
 40
0.2500000951350839
 40
0.5000000672558251
 40
0.6250001119809646
 40
0.7500003568229938
 40
0.8125004052039757
 40
0.8750003378554047
 40
0.9375003620217811
 40
1.0
 40
1.0
 40
1.0
 40
1.0
 10
13.21597099783137
 20
2.830603545738362
 30
0.0
 10
13.89761133491252
 20
2.949955611056148
 30
0.0
 10
15.26089188064573
 20
3.188659719204383
 30
0.0
 10
17.98824749281453
 20
3.661507653299968
 30
0.0
 10
20.71714436233939
 20
4.125447654187585
 30
0.0
 10
23.44782583397649
 20
4.57871038899959
 30
0.0
 10
25.15534167874724
 20
4.856912741698922
 30
0.0
 10
26.52202968380001
 20
5.075275559591346
 30
0.0
 10
27.54747261300622
 20
5.236348068298203
 30
0.0
 10
28.57324147167964
 20
5.395312018518784
 30
0.0
 10
29.25718933070064
 20
5.500623967432617
 30
0.0
 10
29.59916220367803
 20
5.553279779208183
 30
0.0
  0
SPLINE
  5
FD
330
1F
100
AcDbEntity
  8
0
  6
Continuous
 62
   144
370
    18
100
AcDbSpline
210
0.0
220
0.0
230
1.0
 70
     8
 71
     3
 72
    22
 73
    18
 74
     0
 42
0.000000001
 43
0.00000001
 40
0.0
 40
0.0
 40
0.0
 40
0.0
 40
0.0625000022060647
 40
0.1250000050889652
 40
0.1875000075569199
 40
0.2500000101380365
 40
0.3125000128122099
 40
0.3750000155584626
 40
0.4375000181647182
 40
0.5000000208323423
 40
0.562500022811636
 40
0.6250000249606217
 40
0.7500000126986371
 40
0.8749999942721871
 40
0.9374999973488012
 40
0.9687499966811444
 40
1.0
 40
1.0
 40
1.0
 40
1.0
 10
-44.71859026657499
 20
-6.827024998154654
 30
0.0
 10
-43.51895585357471
 20
-6.628312567918527
 30
0.0
 10
-41.11968701458287
 20
-6.230887705294342
 30
0.0
 10
-37.52031488895763
 20
-5.63758712637157
 30
0.0
 10
-33.92074047567775
 20
-5.045516131483608
 30
0.0
 10
-30.32085455591287
 20
-4.45534205815004
 30
0.0
 10
-26.72091466783868
 20
-3.865497917926331
 30
0.0
 10
-23.12112844665237
 20
-3.274716266243453
 30
0.0
 10
-19.52147809067524
 20
-2.683107585520066
 30
0.0
 10
-15.92191800674735
 20
-2.090949969752875
 30
0.0
 10
-12.32268168999528
 20
-1.496825063202024
 30
0.0
 10
-7.524478206205526
 20
-0.6999601159569413
 30
0.0
 10
-1.528097090777579
 20
0.3043739494820493
 30
0.0
 10
4.466086479615557
 20
1.321748794212037
 30
0.0
 10
8.660756909226366
 20
2.04127014497621
 30
0.0
 10
11.05719811140897
 20
2.455405392538065
 30
0.0
 10
12.25528648567158
 20
2.663235964118
 30
0.0
 10
12.85433071101243
 20
2.76715125653612
 30
0.0
  0
SPLINE
  5
102
330
1F
100
AcDbEntity
  8
0
  6
Continuous
 62
   144
370
    18
100
AcDbSpline
210
0.0
220
0.0
230
1.0
 70
     8
 71
     3
 72
    17
 73
    13
 74
     0
 42
0.000000001
 43
0.00000001
 40
0.0
 40
0.0
 40
0.0
 40
0.0
 40
0.0630052811177333
 40
0.1259453137674175
 40
0.2514001282309086
 40
0.3760689849520775
 40
0.5000524849302377
 40
0.624017503090903
 40
0.7486543498710204
 40
0.8740796111639496
 40
0.9370068236457981
 40
1.0
 40
1.0
 40
1.0
 40
1.0
 10
-40.98541899715561
 20
-4.100958514346654
 30
0.0
 10
-41.0769968108058
 20
-4.116880276401215
 30
0.0
 10
-41.26005759983321
 20
-4.148707311883284
 30
0.0
 10
-41.62581425001241
 20
-4.21018126966063
 30
0.0
 10
-42.08259815884152
 20
-4.2790702147381
 30
0.0
 10
-42.63179060738128
 20
-4.336484281117722
 30
0.0
 10
-43.18185757474507
 20
-4.355770585636746
 30
0.0
 10
-43.73127617876363
 20
-4.32334189568297
 30
0.0
 10
-44.27872042481479
 20
-4.251930965049341
 30
0.0
 10
-44.73343411557346
 20
-4.171107633542936
 30
0.0
 10
-45.09735156105648
 20
-4.099962675968412
 30
0.0
 10
-45.27946365781602
 20
-4.063278456668404
 30
0.0
 10
-45.37056740625144
 20
-4.044926738434827
 30
0.0
  0
SPLINE
  5
103
330
1F
100
AcDbEntity
  8
0
  6
Continuous
 62
   144
370
    18
100
AcDbSpline
210
0.0
220
0.0
230
1.0
 70
     8
 71
     3
 72
    17
 73
    13
 74
     0
 42
0.000000001
 43
0.00000001
 40
0.0
 40
0.0
 40
0.0
 40
0.0
 40
0.0312500105538975
 40
0.0625000170584645
 40
0.1250000345696207
 40
0.2500000466245809
 40
0.4999999784640748
 40
0.6249999966865314
 40
0.7500000141079644
 40
0.8750000377822715
 40
0.9375000546732379
 40
1.0
 40
1.0
 40
1.0
 40
1.0
 10
12.74414673597064
 20
4.786423636808252
 30
0.0
 10
12.18522436727611
 20
4.689328669690334
 30
0.0
 10
11.0673797023114
 20
4.495138748035923
 30
0.0
 10
8.831472205109797
 20
4.108015647581032
 30
0.0
 10
4.917816741068462
 20
3.435285164892329
 30
0.0
 10
-2.911754523323144
 20
2.103035408846021
 30
0.0
 10
-11.8645059873425
 20
0.6080533980021053
 30
0.0
 10
-20.8210389323886
 20
-0.8639698985822921
 30
0.0
 10
-27.54064785006803
 20
-1.95448590761957
 30
0.0
 10
-33.14200776798067
 20
-2.85278833587124
 30
0.0
 10
-37.62375467011125
 20
-3.567292038749788
 30
0.0
 10
-39.86486208885874
 20
-3.923069350628942
 30
0.0
 10
-40.98541515670001
 20
-4.100957904724807
 30
0.0
  0
SPLINE
  5
105
330
1F
100
AcDbEntity
  8
0
  6
Continuous
 62
   144
370
    18
100
AcDbSpline
210
0.0
220
0.0
230
1.0
 70
     8
 71
     3
 72
    14
 73
    10
 74
     0
 42
0.000000001
 43
0.00000001
 40
0.0
 40
0.0
 40
0.0
 40
0.0
 40
0.0625000878524346
 40
0.1250000990166889
 40
0.2500000355414149
 40
0.4999999993810792
 40
0.7499999542013428
 40
0.8749999663332335
 40
1.0
 40
1.0
 40
1.0
 40
1.0
 10
29.26704374660348
 20
7.567991943246258
 30
0.0
 10
28.93168761929578
 20
7.51485546887384
 30
0.0
 10
28.2609757761654
 20
7.40858258532794
 30
0.0
 10
26.91969802978231
 20
7.195121444466269
 30
0.0
 10
24.57345455603899
 20
6.815354785363207
 30
0.0
 10
21.22435864018116
 20
6.256469530502105
 30
0.0
 10
17.87750419123107
 20
5.684363666841779
 30
0.0
 10
15.2014495107616
 20
5.21842150235921
 30
0.0
 10
13.86379235810085
 20
4.983337225585815
 30
0.0
 10
13.19496372415792
 20
4.865795077074097
 30
0.0
  0
SPLINE
  5
106
330
1F
100
AcDbEntity
  8
0
  6
Continuous
 62
   144
370
    18
100
AcDbSpline
210
0.0
220
0.0
230
1.0
 70
     8
 71
     3
 72
    19
 73
    15
 74
     0
 42
0.000000001
 43
0.00000001
 40
0.0
 40
0.0
 40
0.0
 40
0.0
 40
0.0625045753830663
 40
0.1250068965256177
 40
0.2499998998843254
 40
0.3124937650204742
 40
0.3749915939083835
 40
0.4999999201112483
 40
0.6250111741930091
 40
0.6875114651991814
 40
0.750007115481721
 40
0.8750000591602229
 40
0.9375006260792592
 40
1.0
 40
1.0
 40
1.0
 40
1.0
 10
38.82742642570426
 20
8.403523499003283
 30
0.0
 10
38.62741125733103
 20
8.397474732247504
 30
0.0
 10
38.22738813417324
 20
8.385377416885978
 30
0.0
 10
37.427439281966
 20
8.359546186407393
 30
0.0
 10
36.62767378528704
 20
8.328779203001808
 30
0.0
 10
35.82837176121139
 20
8.288214883981759
 30
0.0
 10
35.02948682333702
 20
8.239299549466963
 30
0.0
 10
34.03189679337289
 20
8.161786370182696
 30
0.0
 10
33.03615184322652
 20
8.063347322453861
 30
0.0
 10
32.24094821923318
 20
7.972273314736809
 30
0.0
 10
31.44672221028671
 20
7.873516037203865
 30
0.0
 10
30.65366119602352
 20
7.76571901900938
 30
0.0
 10
29.86124083908515
 20
7.653381559849244
 30
0.0
 10
29.46512639422985
 20
7.596457584622335
 30
0.0
 10
29.26707106205853
 20
7.567995868649832
 30
0.0
  0
SPLINE
  5
107
330
1F
100
AcDbEntity
  8
0
  6
Continuous
 62
   144
370
    18
100
AcDbSpline
210
0.0
220
0.0
230
1.0
 70
     8
 71
     3
 72
    17
 73
    13
 74
     0
 42
0.000000001
 43
0.00000001
 40
0.0
 40
0.0
 40
0.0
 40
0.0
 40
0.0625395250033972
 40
0.1250738387229312
 40
0.2501086017808136
 40
0.3750812470500628
 40
0.5000006464440759
 40
0.6249200990149448
 40
0.749892836825404
 40
0.8749276858172906
 40
0.9374620369320249
 40
1.0
 40
1.0
 40
1.0
 40
1.0
 10
45.1478571870303
 20
8.867248416038697
 30
0.0
 10
45.0166882594289
 20
8.850707120505765
 30
0.0
 10
44.75436133425021
 20
8.817625907790415
 30
0.0
 10
44.22968275767739
 20
8.752328436817553
 30
0.0
 10
43.57363021874499
 20
8.673934779467379
 30
0.0
 10
42.78544736492628
 20
8.590163639609248
 30
0.0
 10
41.99597165096328
 20
8.521866788279695
 30
0.0
 10
41.20498094641153
 20
8.474219458481052
 30
0.0
 10
40.41301122888061
 20
8.442056404803536
 30
0.0
 10
39.75254188457399
 20
8.423853646991907
 30
0.0
 10
39.22395460884586
 20
8.411868505671215
 30
0.0
 10
38.95961178315171
 20
8.406305363537156
 30
0.0
 10
38.8274365533371
 20
8.403523712141359
 30
0.0
  0
SPLINE
  5
11E
330
1F
100
AcDbEntity
  8
0
  6
Continuous
 62
   144
370
    18
100
AcDbSpline
210
0.0
220
0.0
230
1.0
 70
     8
 71
     3
 72
    19
 73
    15
 74
     0
 42
0.000000001
 43
0.00000001
 40
0.0
 40
0.0
 40
0.0
 40
0.0
 40
0.0625049562207331
 40
0.1250049234439181
 40
0.1874993692628263
 40
0.2499953224802374
 40
0.3750002100272534
 40
0.5000023394003348
 40
0.6250021865041551
 40
0.7500055302073646
 40
0.8125027759086564
 40
0.8749982867888326
 40
0.9374977059142932
 40
1.0
 40
1.0
 40
1.0
 40
1.0
 10
46.13963014085104
 20
-1.630343276317795
 30
0.0
 10
45.97463596633631
 20
-1.644386156405124
 30
0.0
 10
45.64466078675102
 20
-1.672470795710357
 30
0.0
 10
45.14992852611763
 20
-1.717022464366381
 30
0.0
 10
44.65566180080933
 20
-1.7663378577884
 30
0.0
 10
43.99767670555574
 20
-1.842013214286963
 30
0.0
 10
43.17737228345089
 20
-1.954604559202293
 30
0.0
 10
42.19630627527096
 20
-2.111632297361722
 30
0.0
 10
41.21883618950773
 20
-2.289679776212191
 30
0.0
 10
40.40778154144485
 20
-2.456230175447572
 30
0.0
 10
39.76178591339286
 20
-2.602367284469694
 30
0.0
 10
39.27881462936093
 20
-2.718437411212064
 30
0.0
 10
38.79685156392125
 20
-2.838645925222006
 30
0.0
 10
38.47588775409966
 20
-2.920186952150176
 30
0.0
 10
38.31540215820667
 20
-2.960958403310253
 30
0.0
  0
SPLINE
  5
11F
330
1F
100
AcDbEntity
  8
0
  6
Continuous
 62
   144
370
    18
100
AcDbSpline
210
0.0
220
0.0
230
1.0
 70
     8
 71
     3
 72
    21
 73
    17
 74
     0
 42
0.000000001
 43
0.00000001
 40
0.0
 40
0.0
 40
0.0
 40
0.0
 40
0.0625043926651003
 40
0.1250026388479707
 40
0.1874969140179883
 40
0.2499964681983328
 40
0.3125015275021952
 40
0.3750064052585961
 40
0.5000034008491001
 40
0.6250005345601513
 40
0.6666698943469439
 40
0.7500083742771968
 40
0.8125078066868836
 40
0.8750028710453903
 40
0.9375011046847006
 40
1.0
 40
1.0
 40
1.0
 40
1.0
 10
38.31539567339883
 20
-2.960960050751007
 30
0.0
 10
38.13609441937316
 20
-3.00626393501228
 30
0.0
 10
37.77750954323412
 20
-3.096867248495625
 30
0.0
 10
37.23876177166265
 20
-3.229229594711255
 30
0.0
 10
36.69822315166328
 20
-3.354090955916325
 30
0.0
 10
36.1555136960294
 20
-3.469249771507676
 30
0.0
 10
35.61110518108568
 20
-3.576205825770239
 30
0.0
 10
34.8834494696504
 20
-3.709301817780344
 30
0.0
 10
33.97074569702477
 20
-3.858004747909042
 30
0.0
 10
33.11525173951542
 20
-3.972224151008275
 30
0.0
 10
32.380500988665
 20
-4.057727125558626
 30
0.0
 10
31.82865702690492
 20
-4.115144694798526
 30
0.0
 10
31.21457202320637
 20
-4.168894743307879
 30
0.0
 10
30.66119716951101
 20
-4.208215601826499
 30
0.0
 10
30.10738669592045
 20
-4.240549942806527
 30
0.0
 10
29.73805528166763
 20
-4.259897313639926
 30
0.0
 10
29.55338859700785
 20
-4.269571050264563
 30
0.0
  0
SPLINE
  5
120
330
1F
100
AcDbEntity
  8
0
  6
Continuous
 62
   144
370
    18
100
AcDbSpline
210
0.0
220
0.0
230
1.0
 70
     8
 71
     3
 72
    16
 73
    12
 74
     0
 42
0.000000001
 43
0.00000001
 40
0.0
 40
0.0
 40
0.0
 40
0.0
 40
0.0625000081907389
 40
0.1250000144999932
 40
0.2500000199492425
 40
0.3750000254958019
 40
0.5000000316418147
 40
0.7499999776788319
 40
0.8749999855304073
 40
0.9374999923048813
 40
1.0
 40
1.0
 40
1.0
 40
1.0
 10
29.55334995452288
 20
-4.269573073843542
 30
0.0
 10
29.11411359259932
 20
-4.288159059547334
 30
0.0
 10
28.23564088197488
 20
-4.325331030395413
 30
0.0
 10
26.47861741410287
 20
-4.397811096679549
 30
0.0
 10
24.28221545874233
 20
-4.485402531728906
 30
0.0
 10
21.64637330842277
 20
-4.586424134232408
 30
0.0
 10
18.1316970765808
 20
-4.715221123887651
 30
0.0
 10
14.61675764674841
 20
-4.836764984455659
 30
0.0
 10
11.54095347042677
 20
-4.936042610121882
 30
0.0
 10
9.783295579579569
 20
-4.991024405763706
 30
0.0
 10
8.904446595190601
 20
-5.017866119647691
 30
0.0
 10
8.46502209975969
 20
-5.03128697668853
 30
0.0
  0
SPLINE
  5
122
330
1F
100
AcDbEntity
  8
0
  6
Continuous
 62
   144
370
    18
100
AcDbSpline
210
0.0
220
0.0
230
1.0
 70
     8
 71
     3
 72
    17
 73
    13
 74
     0
 42
0.000000001
 43
0.00000001
 40
0.0
 40
0.0
 40
0.0
 40
0.0
 40
0.03125000879653
 40
0.0625000178846228
 40
0.1250000313626076
 40
0.2500000341298686
 40
0.4999999182152239
 40
0.6249999413368096
 40
0.7499999726536744
 40
0.8750000078588316
 40
0.9375000258398918
 40
1.0
 40
1.0
 40
1.0
 40
1.0
 10
8.118752010825153
 20
-5.04175895350444
 30
0.0
 10
7.564204234013279
 20
-5.058683510679106
 30
0.0
 10
6.455108675215593
 20
-5.092532625186343
 30
0.0
 10
4.236988527571539
 20
-5.162520991989753
 30
0.0
 10
0.3554114000440811
 20
-5.289156329188044
 30
0.0
 10
-7.407192047474309
 20
-5.558873267042597
 30
0.0
 10
-16.2776018369889
 20
-5.898877434636352
 30
0.0
 10
-25.14697142711181
 20
-6.264279764774582
 30
0.0
 10
-31.79864674841842
 20
-6.546799670515505
 30
0.0
 10
-37.34155256417457
 20
-6.785877999930346
 30
0.0
 10
-41.77585780247117
 20
-6.97757393098089
 30
0.0
 10
-43.99302255606224
 20
-7.073131874770143
 30
0.0
 10
-45.10160454422468
 20
-7.120910829915006
 30
0.0
  0
SPLINE
  5
123
330
1F
100
AcDbEntity
  8
0
  6
Continuous
 62
   144
370
    18
100
AcDbSpline
210
0.0
220
0.0
230
1.0
 70
     8
 71
     3
 72
    19
 73
    15
 74
     0
 42
0.000000001
 43
0.00000001
 40
0.0
 40
0.0
 40
0.0
 40
0.0
 40
0.0636286579699528
 40
0.1271153221026776
 40
0.1903303781775774
 40
0.2531693664232342
 40
0.3774815444124599
 40
0.500252462848463
 40
0.6229334972353054
 40
0.7470908988882118
 40
0.8098560940580971
 40
0.8730038725712348
 40
0.9364292615881686
 40
1.0
 40
1.0
 40
1.0
 40
1.0
 10
-45.10160687373951
 20
-7.120910930234115
 30
0.0
 10
-45.1801064183644
 20
-7.12298248100827
 30
0.0
 10
-45.3369303278773
 20
-7.127120959679839
 30
0.0
 10
-45.57169018901533
 20
-7.135198595397248
 30
0.0
 10
-45.80533089960326
 20
-7.147013904517901
 30
0.0
 10
-46.11347317868814
 20
-7.170162474598074
 30
0.0
 10
-46.49340345111287
 20
-7.217656813197892
 30
0.0
 10
-46.93937043921874
 20
-7.32019213794475
 30
0.0
 10
-47.36629643078355
 20
-7.484580180406528
 30
0.0
 10
-47.70654070927302
 20
-7.65944253149883
 30
0.0
 10
-47.9735103013298
 20
-7.814323352464531
 30
0.0
 10
-48.17259389414399
 20
-7.93670652607097
 30
0.0
 10
-48.37042334996178
 20
-8.062932230454626
 30
0.0
 10
-48.50184367603858
 20
-8.148333914272223
 30
0.0
 10
-48.56762904556264
 20
-8.191083628077033
 30
0.0
  0
SPLINE
  5
124
330
1F
100
AcDbEntity
  8
0
  6
Continuous
 62
   144
370
    18
100
AcDbSpline
210
0.0
220
0.0
230
1.0
 70
     8
 71
     3
 72
    15
 73
    11
 74
     0
 42
0.000000001
 43
0.00000001
 40
0.0
 40
0.0
 40
0.0
 40
0.0
 40
0.1251206070255541
 40
0.2501773283771767
 40
0.3751323446508565
 40
0.5000001146118767
 40
0.6248678737119453
 40
0.7498228710899646
 40
0.8748795749005803
 40
1.0
 40
1.0
 40
1.0
 40
1.0
 10
-48.56762946508603
 20
-8.191083900697464
 30
0.0
 10
-48.63699150395495
 20
-8.075479471875488
 30
0.0
 10
-48.77568016593916
 20
-7.844329641013941
 30
0.0
 10
-48.98075188408804
 20
-7.496000730435381
 30
0.0
 10
-49.17986106150681
 20
-7.144524115393221
 30
0.0
 10
-49.3700220048066
 20
-6.788313995888847
 30
0.0
 10
-49.54816165766283
 20
-6.425942519252325
 30
0.0
 10
-49.71723260821368
 20
-6.059070262143291
 30
0.0
 10
-49.88026610435151
 20
-5.68919551434301
 30
0.0
 10
-49.98693396415853
 20
-5.44163412565591
 30
0.0
 10
-50.04028147846427
 20
-5.317821903788616
 30
0.0
  0
SPLINE
  5
125
330
1F
100
AcDbEntity
  8
0
  6
Continuous
 62
   144
370
    18
100
AcDbSpline
210
0.0
220
0.0
230
1.0
 70
     8
 71
     3
 72
    15
 73
    11
 74
     0
 42
0.000000001
 43
0.00000001
 40
0.0
 40
0.0
 40
0.0
 40
0.0
 40
0.0625002056782775
 40
0.1250001320093461
 40
0.1874999483787708
 40
0.250000028008052
 40
0.3125001651623605
 40
0.3750001576286359
 40
0.5000000882104565
 40
0.9999999999999999
 40
0.9999999999999999
 40
0.9999999999999999
 40
0.9999999999999999
 10
-50.04028169216673
 20
-5.317821407815097
 30
0.0
 10
-49.82471958988064
 20
-5.310296002538535
 30
0.0
 10
-49.39359634877199
 20
-5.295245225620515
 30
0.0
 10
-48.74694645195601
 20
-5.271690336075378
 30
0.0
 10
-48.10038040049244
 20
-5.245936066659879
 30
0.0
 10
-47.45388378667003
 20
-5.218500412897305
 30
0.0
 10
-46.80740311365923
 20
-5.190683537318201
 30
0.0
 10
-45.94541927238082
 20
-5.153834563463106
 30
0.0
 10
-43.57498689333909
 20
-5.05198653171371
 30
0.0
 10
-41.4200775008404
 20
-4.958722011237679
 30
0.0
 10
-39.69614985619371
 20
-4.884110389202419
 30
0.0
  0
SPLINE
  5
127
330
1F
100
AcDbEntity
  8
0
  6
Continuous
 62
   144
370
    18
100
AcDbSpline
210
0.0
220
0.0
230
1.0
 70
     8
 71
     3
 72
    11
 73
     7
 74
     0
 42
0.000000001
 43
0.00000001
 40
0.0
 40
0.0
 40
0.0
 40
0.0
 40
0.2500000127870273
 40
0.5000000259498999
 40
0.7500000391483941
 40
0.9999999999999999
 40
0.9999999999999999
 40
0.9999999999999999
 40
0.9999999999999999
 10
-39.69952284259584
 20
-5.013593532999831
 30
0.0
 10
-38.90049479015481
 20
-5.035575017709802
 30
0.0
 10
-37.30243868407152
 20
-5.079537987162791
 30
0.0
 10
-34.90532408082689
 20
-5.144367784353582
 30
0.0
 10
-32.50819108737812
 20
-5.208507164178855
 30
0.0
 10
-30.91008517403071
 20
-5.250614241503936
 30
0.0
 10
-30.11103230101288
 20
-5.271667777962302
 30
0.0
  0
SPLINE
  5
129
330
1F
100
AcDbEntity
  8
0
  6
Continuous
 62
   144
370
    18
100
AcDbSpline
210
0.0
220
0.0
230
1.0
 70
     8
 71
     3
 72
    16
 73
    12
 74
     0
 42
0.000000001
 43
0.00000001
 40
0.0
 40
0.0
 40
0.0
 40
0.0
 40
0.0625000136074001
 40
0.1250000272149144
 40
0.2500000500153972
 40
0.500000030017508
 40
0.7499999639945768
 40
0.8749999736048002
 40
0.9374999862533581
 40
0.9687499926162785
 40
1.0
 40
1.0
 40
1.0
 40
1.0
 10
-30.10429415063237
 20
-4.471086206069498
 30
0.0
 10
-29.30947088735839
 20
-4.437276127703505
 30
0.0
 10
-27.71982436080893
 20
-4.36965597097146
 30
0.0
 10
-24.54046251641928
 20
-4.236041374574132
 30
0.0
 10
-18.9764275233504
 20
-4.005871738765208
 30
0.0
 10
-11.02724991969983
 20
-3.690585509290214
 30
0.0
 10
-3.077099447225777
 20
-3.400650079734381
 30
0.0
 10
2.488545438565831
 20
-3.213342598645072
 30
0.0
 10
5.271507354683694
 20
-3.123944962851784
 30
0.0
 10
6.86181482526655
 20
-3.074236126388886
 30
0.0
 10
7.656984108123085
 20
-3.049885259949839
 30
0.0
 10
8.054568756045024
 20
-3.037709826531456
 30
0.0
  0
SPLINE
  5
12B
330
1F
100
AcDbEntity
  8
0
  6
Continuous
 62
   144
370
    18
100
AcDbSpline
210
0.0
220
0.0
230
1.0
 70
     8
 71
     3
 72
    15
 73
    11
 74
     0
 42
0.000000001
 43
0.00000001
 40
0.0
 40
0.0
 40
0.0
 40
0.0
 40
0.0625000329254713
 40
0.1250000647485091
 40
0.2500001226424794
 40
0.5000001591322798
 40
0.750000172408971
 40
0.875000224169931
 40
0.9375002556175308
 40
1.0
 40
1.0
 40
1.0
 40
1.0
 10
8.427866014137315
 20
-3.026287605290325
 30
0.0
 10
8.869730040303399
 20
-3.012654529917962
 30
0.0
 10
9.753458084841563
 20
-2.985388379413708
 30
0.0
 10
11.52087003275636
 20
-2.929441510986903
 30
0.0
 10
14.61373642538712
 20
-2.82828405991322
 30
0.0
 10
19.0317785542041
 20
-2.673631854561319
 30
0.0
 10
23.44932327642281
 20
-2.505301441504117
 30
0.0
 10
26.54124461667582
 20
-2.378481229201296
 30
0.0
 10
28.30793684136367
 20
-2.30320130719831
 30
0.0
 10
29.19123712918896
 20
-2.26452648313302
 30
0.0
 10
29.63288625884095
 20
-2.245189115509228
 30
0.0
  0
SPLINE
  5
12C
330
1F
100
AcDbEntity
  8
0
  6
Continuous
 62
   144
370
    18
100
AcDbSpline
210
0.0
220
0.0
230
1.0
 70
     8
 71
     3
 72
    21
 73
    17
 74
     0
 42
0.000000001
 43
0.00000001
 40
0.0
 40
0.0
 40
0.0
 40
0.0
 40
0.0625031862227402
 40
0.1250010447503577
 40
0.1874955048604358
 40
0.2499945635431984
 40
0.3124984828580301
 40
0.3750026973056082
 40
0.4999990499933537
 40
0.6249953054170236
 40
0.6875001397786686
 40
0.7500050497694892
 40
0.8125042469210785
 40
0.8749980144023038
 40
0.937495883926403
 40
1.0
 40
1.0
 40
1.0
 40
1.0
 10
29.63289238806862
 20
-2.245188847222559
 30
0.0
 10
29.82187815212171
 20
-2.234939961056215
 30
0.0
 10
30.19983357131258
 20
-2.214443062326045
 30
0.0
 10
30.76655667429701
 20
-2.180215108634611
 30
0.0
 10
31.33279121803633
 20
-2.138639449239766
 30
0.0
 10
31.89826657027686
 20
-2.087557267502295
 30
0.0
 10
32.46297031069368
 20
-2.028336509571994
 30
0.0
 10
33.21481966377863
 20
-1.939815813256388
 30
0.0
 10
34.15241370847832
 20
-1.811062451940677
 30
0.0
 10
35.08576384984261
 20
-1.654444317599431
 30
0.0
 10
35.82974397756841
 20
-1.514386502300799
 30
0.0
 10
36.38630205912641
 20
-1.401920440167441
 30
0.0
 10
36.94104472074233
 20
-1.28093165975923
 30
0.0
 10
37.49347363439363
 20
-1.14987681512607
 30
0.0
 10
38.0439955666271
 20
-1.011043196324833
 30
0.0
 10
38.41039240075885
 20
-0.9160381968267319
 30
0.0
 10
38.59359997254313
 20
-0.8685333233016606
 30
0.0
  0
SPLINE
  5
12E
330
1F
100
AcDbEntity
  8
0
  6
Continuous
 62
   144
370
    18
100
AcDbSpline
210
0.0
220
0.0
230
1.0
 70
     8
 71
     3
 72
    11
 73
     7
 74
     0
 42
0.000000001
 43
0.00000001
 40
0.0
 40
0.0
 40
0.0
 40
0.0
 40
0.2499999999977871
 40
0.5000000000035354
 40
0.7499999999938866
 40
0.9999999999999999
 40
0.9999999999999999
 40
0.9999999999999999
 40
0.9999999999999999
 10
39.33866651040683
 20
0.093995824553092
 30
0.0
 10
39.90882699493653
 20
0.0861144208844834
 30
0.0
 10
41.0491479640141
 20
0.0703516135470155
 30
0.0
 10
42.75965883503623
 20
0.0489444197407381
 30
0.0
 10
44.47017931057623
 20
0.0282804145264818
 30
0.0
 10
45.61055099178505
 20
0.0167422220732147
 30
0.0
 10
46.18073683240744
 20
0.0109731258463993
 30
0.0
  0
SPLINE
  5
132
330
1F
100
AcDbEntity
  8
0
  6
Continuous
 62
   144
370
    18
100
AcDbSpline
210
0.0
220
0.0
230
1.0
 70
     8
 71
     3
 72
     9
 73
     5
 74
     0
 42
0.000000001
 43
0.00000001
 40
0.0
 40
0.0
 40
0.0
 40
0.0
 40
0.5078756626373023
 40
0.9999999999999999
 40
0.9999999999999999
 40
0.9999999999999999
 40
0.9999999999999999
 10
50.43192403775288
 20
-6.741916242277991
 30
0.0
 10
54.01311246882208
 20
-6.741056542446577
 30
0.0
 10
61.06442186307966
 20
-6.73936380563192
 30
0.0
 10
68.11572913163546
 20
-6.733640344049778
 30
0.0
 10
71.58584904871428
 20
-6.730823689311247
 30
0.0
  0
SPLINE
  5
136
330
1F
100
AcDbEntity
  8
0
  6
Continuous
 62
   144
370
    18
100
AcDbSpline
210
0.0
220
0.0
230
1.0
 70
     8
 71
     3
 72
    13
 73
     9
 74
     0
 42
0.000000001
 43
0.00000001
 40
0.0
 40
0.0
 40
0.0
 40
0.0
 40
0.1250000043892855
 40
0.2500000080173628
 40
0.5000000159817405
 40
0.7500000242582314
 40
0.8750000281705851
 40
1.0
 40
1.0
 40
1.0
 40
1.0
 10
71.59505770308934
 20
-1.461221019063447
 30
0.0
 10
70.71222429963768
 20
-1.461342064772206
 30
0.0
 10
68.94655749811048
 20
-1.461584156188987
 30
0.0
 10
65.41522431631078
 20
-1.463468232796904
 30
0.0
 10
61.00105891425677
 20
-1.467285533450597
 30
0.0
 10
56.58689393888384
 20
-1.471516727706458
 30
0.0
 10
53.05556157976947
 20
-1.474240621819821
 30
0.0
 10
51.28989524975341
 20
-1.475180830778244
 30
0.0
 10
50.40706219804092
 20
-1.475650935197127
 30
0.0
  0
SPLINE
  5
140
330
1F
100
AcDbEntity
  8
0
  6
Continuous
 62
   144
370
    18
100
AcDbSpline
210
0.0
220
0.0
230
1.0
 70
     8
 71
     3
 72
    12
 73
     8
 74
     0
 42
0.000000001
 43
0.00000001
 40
0.0
 40
0.0
 40
0.0
 40
0.0
 40
0.2499999999690904
 40
0.499999999594877
 40
0.7499999990839381
 40
0.8749999993580343
 40
0.9999999999999999
 40
0.9999999999999999
 40
0.9999999999999999
 40
0.9999999999999999
 10
96.5982687135342
 20
-1.445041894728959
 30
0.0
 10
94.8327908781807
 20
-1.444701405551299
 30
0.0
 10
91.30183520989816
 20
-1.444020427196446
 30
0.0
 10
86.00540169468121
 20
-1.445649058335419
 30
0.0
 10
81.59170816550947
 20
-1.448965955448841
 30
0.0
 10
78.06075471960978
 20
-1.453004381689875
 30
0.0
 10
76.29527874172538
 20
-1.455583958944175
 30
0.0
 10
75.41254075148427
 20
-1.456873747573223
 30
0.0
  0
LWPOLYLINE
  5
14C
330
1F
100
AcDbEntity
  8
0
  6
Continuous
 62
   144
370
    18
100
AcDbPolyline
 90
        3
 70
   128
 43
0.0
 10
100.5010468411
 20
-16.0132560013
 10
113.5242328405
 20
-16.0046345359
 10
126.5474174484
 20
-15.9950140014
  0
SPLINE
  5
150
330
1F
100
AcDbEntity
  8
0
  6
Continuous
 62
   144
370
    18
100
AcDbSpline
210
0.0
220
0.0
230
1.0
 70
     8
 71
     3
 72
    12
 73
     8
 74
     0
 42
0.000000001
 43
0.00000001
 40
0.0
 40
0.0
 40
0.0
 40
0.0
 40
0.1250000000739842
 40
0.2500000003516554
 40
0.4999999994013424
 40
0.7499999995843158
 40
1.0
 40
1.0
 40
1.0
 40
1.0
 10
126.580000864629
 20
-9.26439986221898
 30
0.0
 10
125.4913825872104
 20
-9.266214284502949
 30
0.0
 10
123.314146030599
 20
-9.269843129073841
 30
0.0
 10
118.9596703934522
 20
-9.275424646232757
 30
0.0
 10
113.5165734960996
 20
-9.28026439826542
 30
0.0
 10
106.984856084254
 20
-9.284335767365183
 30
0.0
 10
102.6303778347087
 20
-9.287098954996491
 30
0.0
 10
100.4531387089227
 20
-9.288480548812789
 30
0.0
  0
SPLINE
  5
152
330
1F
100
AcDbEntity
  8
0
  6
Continuous
 62
   144
370
    18
100
AcDbSpline
210
0.0
220
0.0
230
1.0
 70
     8
 71
     3
 72
    13
 73
     9
 74
     0
 42
0.000000001
 43
0.00000001
 40
0.0
 40
0.0
 40
0.0
 40
0.0
 40
0.1250000032626653
 40
0.2500000066858659
 40
0.500000013265767
 40
0.7500000182790046
 40
0.8750000218341367
 40
1.0
 40
1.0
 40
1.0
 40
1.0
 10
100.4364853112778
 20
-6.710513647459421
 30
0.0
 10
101.5261697118681
 20
-6.709624411030835
 30
0.0
 10
103.7055385144481
 20
-6.707845938172525
 30
0.0
 10
108.0642768167138
 20
-6.705284383980993
 30
0.0
 10
113.5126995666864
 20
-6.701893289647612
 30
0.0
 10
118.9611212131544
 20
-6.696947929368403
 30
0.0
 10
123.3198567461605
 20
-6.691488090454099
 30
0.0
 10
125.499222620742
 20
-6.687601950287583
 30
0.0
 10
126.5889054473676
 20
-6.685658880401652
 30
0.0
  0
SPLINE
  5
156
330
1F
100
AcDbEntity
  8
0
  6
Continuous
 62
   144
370
    18
100
AcDbSpline
210
0.0
220
0.0
230
1.0
 70
     8
 71
     3
 72
    13
 73
     9
 74
     0
 42
0.000000001
 43
0.00000001
 40
0.0
 40
0.0
 40
0.0
 40
0.0
 40
0.1250000035555819
 40
0.2500000071611037
 40
0.5000000132137061
 40
0.7500000190834226
 40
0.8750000227040919
 40
1.0
 40
1.0
 40
1.0
 40
1.0
 10
126.6005296451292
 20
-1.417159949907862
 30
0.0
 10
125.5094925669797
 20
-1.417447564406325
 30
0.0
 10
123.3274184102447
 20
-1.418022793403365
 30
0.0
 10
118.9632704352834
 20
-1.420098164445367
 30
0.0
 10
113.5080861758444
 20
-1.424021564249173
 30
0.0
 10
108.0529038636835
 20
-1.430089011954745
 30
0.0
 10
103.6887598340198
 20
-1.436161086050564
 30
0.0
 10
101.5066888340722
 20
-1.439783588511491
 30
0.0
 10
100.4156534489834
 20
-1.441594839551231
 30
0.0
  0
SPLINE
  5
161
330
1F
100
AcDbEntity
  8
0
  6
Continuous
 62
   144
370
    18
100
AcDbSpline
210
0.0
220
0.0
230
1.0
 70
     8
 71
     3
 72
    11
 73
     7
 74
     0
 42
0.000000001
 43
0.00000001
 40
0.0
 40
0.0
 40
0.0
 40
0.0
 40
0.2500000068547694
 40
0.5000000135637076
 40
0.7500000203727354
 40
1.0
 40
1.0
 40
1.0
 40
1.0
 10
71.5738576228724
 20
-9.30954578754771
 30
0.0
 10
69.81321525934867
 20
-9.310961551456618
 30
0.0
 10
66.29193053332826
 20
-9.31379307927361
 30
0.0
 10
61.0100026321543
 20
-9.316904494265199
 30
0.0
 10
55.72807453435011
 20
-9.319246926899217
 30
0.0
 10
52.20678897981428
 20
-9.320153193588233
 30
0.0
 10
50.44614629826111
 20
-9.32060632690811
 30
0.0
  0
SPLINE
  5
162
330
1F
100
AcDbEntity
  8
0
  6
Continuous
 62
   144
370
    18
100
AcDbSpline
210
0.0
220
0.0
230
1.0
 70
     8
 71
     3
 72
    11
 73
     7
 74
     0
 42
0.000000001
 43
0.00000001
 40
0.0
 40
0.0
 40
0.0
 40
0.0
 40
0.2857142933354286
 40
0.5000000134986682
 40
0.7500000203830638
 40
1.0
 40
1.0
 40
1.0
 40
1.0
 10
50.46139900449874
 20
-25.91979573685046
 30
0.0
 10
52.47344759096693
 20
-25.91790220383821
 30
0.0
 10
55.99453261842475
 20
-25.91458852106569
 30
0.0
 10
61.27616087029376
 20
-25.91043554289238
 30
0.0
 10
66.30628307100834
 20
-25.90682121902202
 30
0.0
 10
69.82736870478479
 20
-25.90451138401902
 30
0.0
 10
71.58791142566196
 20
-25.90335646658049
 30
0.0
  0
SPLINE
  5
16A
330
1F
100
AcDbEntity
  8
0
  6
Continuous
 62
   144
370
    18
100
AcDbSpline
210
0.0
220
0.0
230
1.0
 70
     8
 71
     3
 72
    12
 73
     8
 74
     0
 42
0.000000001
 43
0.00000001
 40
0.0
 40
0.0
 40
0.0
 40
0.0
 40
0.2500000084595868
 40
0.5000000166499039
 40
0.750000024108648
 40
0.875000027871085
 40
1.0
 40
1.0
 40
1.0
 40
1.0
 10
50.44128787540745
 20
-33.76836375898856
 30
0.0
 10
52.20640763325951
 20
-33.76772551425513
 30
0.0
 10
55.73664714706246
 20
-33.76644902478893
 30
0.0
 10
61.03200620733187
 20
-33.76395812240217
 30
0.0
 10
65.4448045845559
 20
-33.76038999037255
 30
0.0
 10
68.97504158723895
 20
-33.75610773678771
 30
0.0
 10
70.7401588871539
 20
-33.75322057643425
 30
0.0
 10
71.62271742543761
 20
-33.75177699644019
 30
0.0
  0
SPLINE
  5
174
330
1F
100
AcDbEntity
  8
0
  6
Continuous
 62
   144
370
    18
100
AcDbSpline
210
0.0
220
0.0
230
1.0
 70
     8
 71
     3
 72
    12
 73
     8
 74
     0
 42
0.000000001
 43
0.00000001
 40
0.0
 40
0.0
 40
0.0
 40
0.0
 40
0.1250000046745647
 40
0.2500000088751996
 40
0.5000000164939785
 40
0.7500000243368256
 40
1.0
 40
1.0
 40
1.0
 40
1.0
 10
75.43984048051735
 20
-33.74981461942569
 30
0.0
 10
76.32249163480238
 20
-33.74967287848569
 30
0.0
 10
78.0877939400259
 20
-33.7493893966062
 30
0.0
 10
81.61839820213073
 20
-33.74766850105731
 30
0.0
 10
86.03165255305623
 20
-33.74394496807174
 30
0.0
 10
91.32755509762512
 20
-33.73713911755321
 30
0.0
 10
94.85815412250963
 20
-33.73096206521755
 30
0.0
 10
96.62345352133838
 20
-33.72787353924851
 30
0.0
  0
SPLINE
  5
182
330
1F
100
AcDbEntity
  8
0
  6
Continuous
 62
   144
370
    18
100
AcDbSpline
210
0.0
220
0.0
230
1.0
 70
     8
 71
     3
 72
    12
 73
     8
 74
     0
 42
0.000000001
 43
0.00000001
 40
0.0
 40
0.0
 40
0.0
 40
0.0
 40
0.2000000047880044
 40
0.5000000115909498
 40
0.7500000161711752
 40
0.8750000192269077
 40
1.0
 40
1.0
 40
1.0
 40
1.0
 10
100.4661577524424
 20
-25.87852233441151
 30
0.0
 10
102.2079157853884
 20
-25.87710016887833
 30
0.0
 10
106.5623108644521
 20
-25.87354475504807
 30
0.0
 10
113.0939035070898
 20
-25.86823249049051
 30
0.0
 10
118.9723381940115
 20
-25.86518915861654
 30
0.0
 10
123.3267345879024
 20
-25.86465552137847
 30
0.0
 10
125.5039326081143
 20
-25.8652107145097
 30
0.0
 10
126.5925315211928
 20
-25.86548831105057
 30
0.0
  0
SPLINE
  5
18A
330
1F
100
AcDbEntity
  8
0
  6
Continuous
 62
   144
370
    18
100
AcDbSpline
210
0.0
220
0.0
230
1.0
 70
     8
 71
     3
 72
    13
 73
     9
 74
     0
 42
0.000000001
 43
0.00000001
 40
0.0
 40
0.0
 40
0.0
 40
0.0
 40
0.1250000035097351
 40
0.2500000070950636
 40
0.5000000130566817
 40
0.7500000191254966
 40
0.8750000227026615
 40
0.9999999999999999
 40
0.9999999999999999
 40
0.9999999999999999
 40
0.9999999999999999
 10
100.4406919692336
 20
-33.72563788845953
 30
0.0
 10
101.5316846086505
 20
-33.725841196121
 30
0.0
 10
103.7136698881441
 20
-33.72624781144404
 30
0.0
 10
108.0776405238298
 20
-33.72598632063097
 30
0.0
 10
113.5326036251323
 20
-33.72424109401426
 30
0.0
 10
118.9875656797136
 20
-33.72045180078096
 30
0.0
 10
123.3515341892431
 20
-33.71638314958891
 30
0.0
 10
125.5335178480787
 20
-33.71388702001838
 30
0.0
 10
126.6245095628122
 20
-33.7126389553643
 30
0.0
  0
SPLINE
  5
18E
330
1F
100
AcDbEntity
  8
0
  6
Continuous
 62
   144
370
    18
100
AcDbSpline
210
0.0
220
0.0
230
1.0
 70
     8
 71
     3
 72
    13
 73
     9
 74
     0
 42
0.000000001
 43
0.00000001
 40
0.0
 40
0.0
 40
0.0
 40
0.0
 40
0.1250000030587714
 40
0.2500000065922222
 40
0.5000000115756574
 40
0.7500000181302228
 40
0.8750000215322864
 40
0.9999999999999999
 40
0.9999999999999999
 40
0.9999999999999999
 40
0.9999999999999999
 10
126.6051445867404
 20
-28.44420119069615
 30
0.0
 10
125.5154871517131
 20
-28.44380283780885
 30
0.0
 10
123.3361722775207
 20
-28.44300613203275
 30
0.0
 10
118.9775422328658
 20
-28.44366096195415
 30
0.0
 10
113.5292553410415
 20
-28.44636602570689
 30
0.0
 10
108.0809695933831
 20
-28.45070762811401
 30
0.0
 10
103.7223413874279
 20
-28.45439217656405
 30
0.0
 10
101.5430270809028
 20
-28.45582170177696
 30
0.0
 10
100.4533700363198
 20
-28.45653646431212
 30
0.0
  0
SPLINE
  5
1A5
330
1F
100
AcDbEntity
  8
0
  6
Continuous
 62
   144
370
    18
100
AcDbSpline
210
0.0
220
0.0
230
1.0
 70
     8
 71
     3
 72
    17
 73
    13
 74
     0
 42
0.000000001
 43
0.00000001
 40
0.0
 40
0.0
 40
0.0
 40
0.0
 40
0.0625395250033972
 40
0.1250738387229312
 40
0.2501086017808136
 40
0.3750812470500628
 40
0.5000006464440759
 40
0.6249200990149448
 40
0.749892836825404
 40
0.8749276858172906
 40
0.9374620369320249
 40
1.0
 40
1.0
 40
1.0
 40
1.0
 10
45.1478571870303
 20
-8.867248416038697
 30
0.0
 10
45.0166882594289
 20
-8.850707120505765
 30
0.0
 10
44.75436133425021
 20
-8.817625907790415
 30
0.0
 10
44.22968275767739
 20
-8.752328436817553
 30
0.0
 10
43.57363021874499
 20
-8.673934779467379
 30
0.0
 10
42.78544736492628
 20
-8.590163639609248
 30
0.0
 10
41.99597165096328
 20
-8.521866788279695
 30
0.0
 10
41.20498094641153
 20
-8.474219458481052
 30
0.0
 10
40.41301122888061
 20
-8.442056404803536
 30
0.0
 10
39.75254188457399
 20
-8.423853646991907
 30
0.0
 10
39.22395460884586
 20
-8.411868505671215
 30
0.0
 10
38.95961178315171
 20
-8.406305363537156
 30
0.0
 10
38.8274365533371
 20
-8.403523712141359
 30
0.0
  0
SPLINE
  5
1A6
330
1F
100
AcDbEntity
  8
0
  6
Continuous
 62
   144
370
    18
100
AcDbSpline
210
0.0
220
0.0
230
1.0
 70
     8
 71
     3
 72
    19
 73
    15
 74
     0
 42
0.000000001
 43
0.00000001
 40
0.0
 40
0.0
 40
0.0
 40
0.0
 40
0.0625045753830663
 40
0.1250068965256177
 40
0.2499998998843254
 40
0.3124937650204742
 40
0.3749915939083835
 40
0.4999999201112483
 40
0.6250111741930091
 40
0.6875114651991814
 40
0.750007115481721
 40
0.8750000591602229
 40
0.9375006260792592
 40
1.0
 40
1.0
 40
1.0
 40
1.0
 10
38.82742642570426
 20
-8.403523499003283
 30
0.0
 10
38.62741125733103
 20
-8.397474732247504
 30
0.0
 10
38.22738813417324
 20
-8.385377416885978
 30
0.0
 10
37.427439281966
 20
-8.359546186407393
 30
0.0
 10
36.62767378528704
 20
-8.328779203001808
 30
0.0
 10
35.82837176121139
 20
-8.288214883981759
 30
0.0
 10
35.02948682333702
 20
-8.239299549466963
 30
0.0
 10
34.03189679337289
 20
-8.161786370182696
 30
0.0
 10
33.03615184322652
 20
-8.063347322453861
 30
0.0
 10
32.24094821923318
 20
-7.972273314736809
 30
0.0
 10
31.44672221028671
 20
-7.873516037203865
 30
0.0
 10
30.65366119602352
 20
-7.76571901900938
 30
0.0
 10
29.86124083908515
 20
-7.653381559849244
 30
0.0
 10
29.46512639422985
 20
-7.596457584622335
 30
0.0
 10
29.26707106205853
 20
-7.567995868649832
 30
0.0
  0
SPLINE
  5
1A7
330
1F
100
AcDbEntity
  8
0
  6
Continuous
 62
   144
370
    18
100
AcDbSpline
210
0.0
220
0.0
230
1.0
 70
     8
 71
     3
 72
    14
 73
    10
 74
     0
 42
0.000000001
 43
0.00000001
 40
0.0
 40
0.0
 40
0.0
 40
0.0
 40
0.0625000878524346
 40
0.1250000990166889
 40
0.2500000355414149
 40
0.4999999993810792
 40
0.7499999542013428
 40
0.8749999663332335
 40
1.0
 40
1.0
 40
1.0
 40
1.0
 10
29.26704374660348
 20
-7.567991943246258
 30
0.0
 10
28.93168761929578
 20
-7.51485546887384
 30
0.0
 10
28.2609757761654
 20
-7.40858258532794
 30
0.0
 10
26.91969802978231
 20
-7.195121444466269
 30
0.0
 10
24.57345455603899
 20
-6.815354785363207
 30
0.0
 10
21.22435864018116
 20
-6.256469530502105
 30
0.0
 10
17.87750419123107
 20
-5.684363666841779
 30
0.0
 10
15.2014495107616
 20
-5.21842150235921
 30
0.0
 10
13.86379235810085
 20
-4.983337225585815
 30
0.0
 10
13.19496372415792
 20
-4.865795077074097
 30
0.0
  0
SPLINE
  5
1A9
330
1F
100
AcDbEntity
  8
0
  6
Continuous
 62
   144
370
    18
100
AcDbSpline
210
0.0
220
0.0
230
1.0
 70
     8
 71
     3
 72
    17
 73
    13
 74
     0
 42
0.000000001
 43
0.00000001
 40
0.0
 40
0.0
 40
0.0
 40
0.0
 40
0.0312500105538975
 40
0.0625000170584645
 40
0.1250000345696207
 40
0.2500000466245809
 40
0.4999999784640748
 40
0.6249999966865314
 40
0.7500000141079644
 40
0.8750000377822715
 40
0.9375000546732379
 40
1.0
 40
1.0
 40
1.0
 40
1.0
 10
12.74414673597064
 20
-4.786423636808252
 30
0.0
 10
12.18522436727611
 20
-4.689328669690334
 30
0.0
 10
11.0673797023114
 20
-4.495138748035923
 30
0.0
 10
8.831472205109797
 20
-4.108015647581032
 30
0.0
 10
4.917816741068462
 20
-3.435285164892329
 30
0.0
 10
-2.911754523323144
 20
-2.103035408846021
 30
0.0
 10
-11.8645059873425
 20
-0.6080533980021053
 30
0.0
 10
-20.8210389323886
 20
0.8639698985822921
 30
0.0
 10
-27.54064785006803
 20
1.95448590761957
 30
0.0
 10
-33.14200776798067
 20
2.85278833587124
 30
0.0
 10
-37.62375467011125
 20
3.567292038749788
 30
0.0
 10
-39.86486208885874
 20
3.923069350628942
 30
0.0
 10
-40.98541515670001
 20
4.100957904724807
 30
0.0
  0
SPLINE
  5
1AA
330
1F
100
AcDbEntity
  8
0
  6
Continuous
 62
   144
370
    18
100
AcDbSpline
210
0.0
220
0.0
230
1.0
 70
     8
 71
     3
 72
    17
 73
    13
 74
     0
 42
0.000000001
 43
0.00000001
 40
0.0
 40
0.0
 40
0.0
 40
0.0
 40
0.0630052811177333
 40
0.1259453137674175
 40
0.2514001282309086
 40
0.3760689849520775
 40
0.5000524849302377
 40
0.624017503090903
 40
0.7486543498710204
 40
0.8740796111639496
 40
0.9370068236457981
 40
1.0
 40
1.0
 40
1.0
 40
1.0
 10
-40.98541899715561
 20
4.100958514346654
 30
0.0
 10
-41.0769968108058
 20
4.116880276401215
 30
0.0
 10
-41.26005759983321
 20
4.148707311883284
 30
0.0
 10
-41.62581425001241
 20
4.21018126966063
 30
0.0
 10
-42.08259815884152
 20
4.2790702147381
 30
0.0
 10
-42.63179060738128
 20
4.336484281117722
 30
0.0
 10
-43.18185757474507
 20
4.355770585636746
 30
0.0
 10
-43.73127617876363
 20
4.32334189568297
 30
0.0
 10
-44.27872042481479
 20
4.251930965049341
 30
0.0
 10
-44.73343411557346
 20
4.171107633542936
 30
0.0
 10
-45.09735156105648
 20
4.099962675968412
 30
0.0
 10
-45.27946365781602
 20
4.063278456668404
 30
0.0
 10
-45.37056740625144
 20
4.044926738434827
 30
0.0
  0
SPLINE
  5
1AF
330
1F
100
AcDbEntity
  8
0
  6
Continuous
 62
   144
370
    18
100
AcDbSpline
210
0.0
220
0.0
230
1.0
 70
     8
 71
     3
 72
    22
 73
    18
 74
     0
 42
0.000000001
 43
0.00000001
 40
0.0
 40
0.0
 40
0.0
 40
0.0
 40
0.0625000022060647
 40
0.1250000050889652
 40
0.1875000075569199
 40
0.2500000101380365
 40
0.3125000128122099
 40
0.3750000155584626
 40
0.4375000181647182
 40
0.5000000208323423
 40
0.562500022811636
 40
0.6250000249606217
 40
0.7500000126986371
 40
0.8749999942721871
 40
0.9374999973488012
 40
0.9687499966811444
 40
1.0
 40
1.0
 40
1.0
 40
1.0
 10
-44.71859026657499
 20
6.827024998154654
 30
0.0
 10
-43.51895585357471
 20
6.628312567918527
 30
0.0
 10
-41.11968701458287
 20
6.230887705294342
 30
0.0
 10
-37.52031488895763
 20
5.63758712637157
 30
0.0
 10
-33.92074047567775
 20
5.045516131483608
 30
0.0
 10
-30.32085455591287
 20
4.45534205815004
 30
0.0
 10
-26.72091466783868
 20
3.865497917926331
 30
0.0
 10
-23.12112844665237
 20
3.274716266243453
 30
0.0
 10
-19.52147809067524
 20
2.683107585520066
 30
0.0
 10
-15.92191800674735
 20
2.090949969752875
 30
0.0
 10
-12.32268168999528
 20
1.496825063202024
 30
0.0
 10
-7.524478206205526
 20
0.6999601159569413
 30
0.0
 10
-1.528097090777579
 20
-0.3043739494820493
 30
0.0
 10
4.466086479615557
 20
-1.321748794212037
 30
0.0
 10
8.660756909226366
 20
-2.04127014497621
 30
0.0
 10
11.05719811140897
 20
-2.455405392538065
 30
0.0
 10
12.25528648567158
 20
-2.663235964118
 30
0.0
 10
12.85433071101243
 20
-2.76715125653612
 30
0.0
  0
SPLINE
  5
1B0
330
1F
100
AcDbEntity
  8
0
  6
Continuous
 62
   144
370
    18
100
AcDbSpline
210
0.0
220
0.0
230
1.0
 70
     8
 71
     3
 72
    16
 73
    12
 74
     0
 42
0.000000001
 43
0.00000001
 40
0.0
 40
0.0
 40
0.0
 40
0.0
 40
0.1250000593432866
 40
0.2500000951350839
 40
0.5000000672558251
 40
0.6250001119809646
 40
0.7500003568229938
 40
0.8125004052039757
 40
0.8750003378554047
 40
0.9375003620217811
 40
1.0
 40
1.0
 40
1.0
 40
1.0
 10
13.21597099783137
 20
-2.830603545738362
 30
0.0
 10
13.89761133491252
 20
-2.949955611056148
 30
0.0
 10
15.26089188064573
 20
-3.188659719204383
 30
0.0
 10
17.98824749281453
 20
-3.661507653299968
 30
0.0
 10
20.71714436233939
 20
-4.125447654187585
 30
0.0
 10
23.44782583397649
 20
-4.57871038899959
 30
0.0
 10
25.15534167874724
 20
-4.856912741698922
 30
0.0
 10
26.52202968380001
 20
-5.075275559591346
 30
0.0
 10
27.54747261300622
 20
-5.236348068298203
 30
0.0
 10
28.57324147167964
 20
-5.395312018518784
 30
0.0
 10
29.25718933070064
 20
-5.500623967432617
 30
0.0
 10
29.59916220367803
 20
-5.553279779208183
 30
0.0
  0
SPLINE
  5
1B1
330
1F
100
AcDbEntity
  8
0
  6
Continuous
 62
   144
370
    18
100
AcDbSpline
210
0.0
220
0.0
230
1.0
 70
     8
 71
     3
 72
    19
 73
    15
 74
     0
 42
0.000000001
 43
0.00000001
 40
0.0
 40
0.0
 40
0.0
 40
0.0
 40
0.062501322743866
 40
0.1250009400655215
 40
0.2499922879993785
 40
0.3124881323627093
 40
0.3749901676241122
 40
0.5000061555277114
 40
0.6250145999951403
 40
0.6875102906909072
 40
0.7500015350327275
 40
0.8749930362568101
 40
0.9374971726984412
 40
1.0
 40
1.0
 40
1.0
 40
1.0
 10
29.59917078582394
 20
-5.553281100629819
 30
0.0
 10
29.79748941809924
 20
-5.580618208520659
 30
0.0
 10
30.19412127129235
 20
-5.635291678377151
 30
0.0
 10
30.98757277339041
 20
-5.743026808290252
 30
0.0
 10
31.78167416601219
 20
-5.845920659963054
 30
0.0
 10
32.57696149994109
 20
-5.939171817228748
 30
0.0
 10
33.37324557191737
 20
-6.024243735324379
 30
0.0
 10
34.37033785540853
 20
-6.11398535761706
 30
0.0
 10
35.36924659812691
 20
-6.18044841201467
 30
0.0
 10
36.16909815518616
 20
-6.218616852534761
 30
0.0
 10
36.96929608697827
 20
-6.247122802529921
 30
0.0
 10
37.76986019299677
 20
-6.264310483149756
 30
0.0
 10
38.5705294608015
 20
-6.275794575874664
 30
0.0
 10
38.97090245343587
 20
-6.28059096545216
 30
0.0
 10
39.17108685329253
 20
-6.282989135125724
 30
0.0
  0
SPLINE
  5
1B2
330
1F
100
AcDbEntity
  8
0
  6
Continuous
 62
   144
370
    18
100
AcDbSpline
210
0.0
220
0.0
230
1.0
 70
     8
 71
     3
 72
    15
 73
    11
 74
     0
 42
0.000000001
 43
0.00000001
 40
0.0
 40
0.0
 40
0.0
 40
0.0
 40
0.1250193795564938
 40
0.2500284869162876
 40
0.3750212502891873
 40
0.5000000024648875
 40
0.6249787537799356
 40
0.7499715156546147
 40
0.8749806216226464
 40
0.9999999999999999
 40
0.9999999999999999
 40
0.9999999999999999
 40
0.9999999999999999
 10
39.17113002535076
 20
-6.282989652289603
 30
0.0
 10
39.43694634536099
 20
-6.283095264811775
 30
0.0
 10
39.9685571446274
 20
-6.283306481178484
 30
0.0
 10
40.7659253381
 20
-6.286291246478332
 30
0.0
 10
41.56317441832088
 20
-6.294612295646893
 30
0.0
 10
42.36024731915985
 20
-6.310938982121264
 30
0.0
 10
43.15703004298479
 20
-6.337940050253647
 30
0.0
 10
43.95355373002314
 20
-6.372944915725951
 30
0.0
 10
44.74990642990949
 20
-6.413284828464687
 30
0.0
 10
45.2807435513779
 20
-6.441955914849712
 30
0.0
 10
45.54617301682202
 20
-6.456292047017387
 30
0.0
  0
SPLINE
  5
1BF
330
1F
100
AcDbEntity
  8
0
  6
Continuous
 62
   144
370
    18
100
AcDbSpline
210
0.0
220
0.0
230
1.0
 70
     8
 71
     3
 72
    33
 73
    29
 74
     0
 42
0.000000001
 43
0.00000001
 40
0.0
 40
0.0
 40
0.0
 40
0.0
 40
0.0312500002563832
 40
0.0625000000963368
 40
0.1250000003042802
 40
0.1875000005466383
 40
0.2500000004924973
 40
0.2812500019197006
 40
0.2968750062041945
 40
0.3125000004314945
 40
0.3281249976531382
 40
0.3437500027317916
 40
0.3750000031445298
 40
0.4375000030246086
 40
0.5000000028060684
 40
0.5625000020492208
 40
0.5937500062042618
 40
0.6093750106817948
 40
0.6250000018226359
 40
0.6406250002467746
 40
0.6562500070420103
 40
0.6875000070640189
 40
0.718750006988047
 40
0.7500000071636079
 40
0.8750000058772582
 40
0.937500005919645
 40
0.9687500060267066
 40
1.0
 40
1.0
 40
1.0
 40
1.0
 10
47.45778517382335
 20
-0.0000000000000035
 30
0.0
 10
48.31148665324868
 20
-0.0001149696717321
 30
0.0
 10
50.01888960072313
 20
-0.0003449090136573
 30
0.0
 10
53.43369510648375
 20
0.001496223155311
 30
0.0
 10
57.70220086365125
 20
0.0050915287641512
 30
0.0
 10
62.82440729579698
 20
0.0100247906839122
 30
0.0
 10
67.09291330570584
 20
0.0132529097725569
 30
0.0
 10
70.08086870864597
 20
0.0144350812100069
 30
0.0
 10
71.78827141242469
 20
0.0135626514352007
 30
0.0
 10
73.06882381955982
 20
0.0139467444795882
 30
0.0
 10
74.34937402997808
 20
0.0162912796952484
 30
0.0
 10
76.05677274160125
 20
0.020117355274561
 30
0.0
 10
79.04472622584134
 20
0.0237413561448948
 30
0.0
 10
83.31323099166222
 20
0.0282705343170009
 30
0.0
 10
88.43543933340352
 20
0.0308907648580126
 30
0.0
 10
92.70394669119906
 20
0.0314840715637897
 30
0.0
 10
95.69190208165868
 20
0.0308529166550794
 30
0.0
 10
97.39930450930913
 20
0.0295082626859725
 30
0.0
 10
98.67985699839599
 20
0.0300111138964704
 30
0.0
 10
99.96040673893134
 20
0.032587961191191
 30
0.0
 10
101.6678051719697
 20
0.0365627404543756
 30
0.0
 10
103.8020573933927
 20
0.0394149416160874
 30
0.0
 10
106.3631589372287
 20
0.0431623161874696
 30
0.0
 10
111.4853636071805
 20
0.0496436732210682
 30
0.0
 10
117.461271893697
 20
0.0548472840065425
 30
0.0
 10
123.4371814671888
 20
0.0576358836643808
 30
0.0
 10
126.851987034263
 20
0.0584784496161182
 30
0.0
 10
128.5593896928881
 20
0.0590406885812424
 30
0.0
 10
129.4130909384181
 20
0.0593218080362154
 30
0.0
  0
SPLINE
  5
1C0
330
1F
100
AcDbEntity
  8
0
  6
Continuous
 62
   144
370
    18
100
AcDbSpline
210
0.0
220
0.0
230
1.0
 70
     8
 71
     3
 72
    21
 73
    17
 74
     0
 42
0.000000001
 43
0.00000001
 40
0.0
 40
0.0
 40
0.0
 40
0.0
 40
0.1250002402805077
 40
0.1875002835835944
 40
0.2500003389452511
 40
0.3125004722782622
 40
0.3750007008189567
 40
0.4375008799710093
 40
0.5000008650604825
 40
0.5625008639994704
 40
0.6250010344685504
 40
0.6875011927371922
 40
0.7500012934218014
 40
0.8125013917338347
 40
0.8750014842029216
 40
1.0
 40
1.0
 40
1.0
 40
1.0
 10
129.4130914401526
 20
0.059321808200008
 30
0.0
 10
129.4146259374559
 20
-0.6749522584253724
 30
0.0
 10
129.4169276824675
 20
-1.776362907007997
 30
0.0
 10
129.4220163771459
 20
-3.24490472384043
 30
0.0
 10
129.4269821843334
 20
-4.346306210909684
 30
0.0
 10
129.4323208268919
 20
-5.44770695605802
 30
0.0
 10
129.4371409294493
 20
-6.549110834593467
 30
0.0
 10
129.4422067841316
 20
-7.650512746235479
 30
0.0
 10
129.4491050165904
 20
-8.751904570659491
 30
0.0
 10
129.4592066279338
 20
-9.853271439588227
 30
0.0
 10
129.4707186542499
 20
-10.95462427988476
 30
0.0
 10
129.4815743800713
 20
-12.05598484790961
 30
0.0
 10
129.4907815144797
 20
-13.15735993167296
 30
0.0
 10
129.4995136667477
 20
-14.2587382128114
 30
0.0
 10
129.5118167092309
 20
-15.72722748929158
 30
0.0
 10
129.5219049000854
 20
-16.82858439285455
 30
0.0
 10
129.5286303307196
 20
-17.56281906041437
 30
0.0
  0
SPLINE
  5
1C1
330
1F
100
AcDbEntity
  8
0
  6
Continuous
 62
   144
370
    18
100
AcDbSpline
210
0.0
220
0.0
230
1.0
 70
     8
 71
     3
 72
    20
 73
    16
 74
     0
 42
0.000000001
 43
0.00000001
 40
0.0
 40
0.0
 40
0.0
 40
0.0
 40
0.124999998003019
 40
0.1874999878786762
 40
0.2499999843724552
 40
0.3124999818220674
 40
0.3750000343113378
 40
0.4375001006548309
 40
0.4999999991233941
 40
0.5624998834333385
 40
0.6249999587009248
 40
0.6875000826899058
 40
0.7500001124769733
 40
0.8749999950389911
 40
1.0
 40
1.0
 40
1.0
 40
1.0
 10
129.5286306027348
 20
-17.56284879939595
 30
0.0
 10
129.5229915098189
 20
-18.29710026624262
 30
0.0
 10
129.5145328708567
 20
-19.39847741290725
 30
0.0
 10
129.5044425222773
 20
-20.86698895963962
 30
0.0
 10
129.4973920449551
 20
-21.96837589646287
 30
0.0
 10
129.4898693096747
 20
-23.06976036402561
 30
0.0
 10
129.4806830187735
 20
-24.17113270523096
 30
0.0
 10
129.4708193491464
 20
-25.27249813142012
 30
0.0
 10
129.4623445384237
 20
-26.37387532146607
 30
0.0
 10
129.4570513582798
 20
-27.47527263610346
 30
0.0
 10
129.4535789390069
 20
-28.57667731989922
 30
0.0
 10
129.4503758346764
 20
-29.67808368751043
 30
0.0
 10
129.4453654768625
 20
-31.14662147878398
 30
0.0
 10
129.4405117440634
 20
-32.98229841065091
 30
0.0
 10
129.439595115893
 20
-34.45084397855558
 30
0.0
 10
129.4391368015833
 20
-35.18511712200504
 30
0.0
  0
SPLINE
  5
1C2
330
1F
100
AcDbEntity
  8
0
  6
Continuous
 62
   144
370
    18
100
AcDbSpline
210
0.0
220
0.0
230
1.0
 70
     8
 71
     3
 72
    43
 73
    39
 74
     0
 42
0.000000001
 43
0.00000001
 40
0.0
 40
0.0
 40
0.0
 40
0.0
 40
0.0312499999093734
 40
0.062499999807655
 40
0.1249999994387817
 40
0.2499999969420175
 40
0.2812499955783872
 40
0.2968749979577739
 40
0.3046875018581739
 40
0.3125000038017552
 40
0.3281249945883771
 40
0.3437499949281449
 40
0.3593750008402282
 40
0.3750000003128608
 40
0.406249999495604
 40
0.4374999995015396
 40
0.4999999987289255
 40
0.5312499986047609
 40
0.5468749981535896
 40
0.5625000000623023
 40
0.5703125031310098
 40
0.5781250043866206
 40
0.5937499963841697
 40
0.6093749975587631
 40
0.6250000011393302
 40
0.6562500006467267
 40
0.6875000004860945
 40
0.7499999999358028
 40
0.7812500008741607
 40
0.812499996884864
 40
0.8281250036985862
 40
0.8437500114774675
 40
0.8593749959918373
 40
0.8749999996357787
 40
0.8928571510062768
 40
0.9107142913413079
 40
0.946428576936949
 40
1.0
 40
1.0
 40
1.0
 40
1.0
 10
129.4391368012454
 20
-35.18511762392401
 30
0.0
 10
128.4366430565989
 20
-35.18622303726669
 30
0.0
 10
126.4316555676615
 20
-35.18843386395164
 30
0.0
 10
122.421680781127
 20
-35.19302222093664
 30
0.0
 10
115.4042228898062
 20
-35.19918513724748
 30
0.0
 10
108.3867624250567
 20
-35.20138242815858
 30
0.0
 10
102.873043535696
 20
-35.20196098458634
 30
0.0
 10
101.1186782384074
 20
-35.20146712355979
 30
0.0
 10
100.1161839266827
 20
-35.20065519115168
 30
0.0
 10
99.11368993553536
 20
-35.19998660161152
 30
0.0
 10
97.86057149731863
 20
-35.20029389620701
 30
0.0
 10
96.35683329316984
 20
-35.20359286006425
 30
0.0
 10
94.85309529422375
 20
-35.2069176947895
 30
0.0
 10
92.84810868479558
 20
-35.2099925748723
 30
0.0
 10
90.34187584060399
 20
-35.21384816195502
 30
0.0
 10
86.33190188322963
 20
-35.21910925418639
 30
0.0
 10
82.3219260268258
 20
-35.22294859597328
 30
0.0
 10
78.81319613761745
 20
-35.2244748103647
 30
0.0
 10
76.80820761526833
 20
-35.22548015483792
 30
0.0
 10
75.5550894286461
 20
-35.22543462713186
 30
0.0
 10
74.55259500020306
 20
-35.22490974667573
 30
0.0
 10
73.5501008592643
 20
-35.22451318551872
 30
0.0
 10
72.29698261818123
 20
-35.22515391064127
 30
0.0
 10
70.79324467720618
 20
-35.22850485227868
 30
0.0
 10
68.78825947756374
 20
-35.23235615226283
 30
0.0
 10
66.28202430960089
 20
-35.23474381265066
 30
0.0
 10
62.27204909036197
 20
-35.23881963360665
 30
0.0
 10
58.26207200998629
 20
-35.24102651483456
 30
0.0
 10
54.2520949606608
 20
-35.24237913735946
 30
0.0
 10
51.74585928262155
 20
-35.24379118104365
 30
0.0
 10
49.74087029837003
 20
-35.2442196931563
 30
0.0
 10
48.2371286141879
 20
-35.24408170894809
 30
0.0
 10
46.73338820992461
 20
-35.24680212566151
 30
0.0
 10
45.15805243454297
 20
-35.25315506786865
 30
0.0
 10
43.51110944133882
 20
-35.25951238534077
 30
0.0
 10
41.2197056414589
 20
-35.26697945940342
 30
0.0
 10
37.78260439604115
 20
-35.27927487875188
 30
0.0
 10
34.9183522101349
 20
-35.2892099303046
 30
0.0
 10
33.19980096699017
 20
-35.29517096099897
 30
0.0
  0
LINE
  5
1C5
330
1F
100
AcDbEntity
  8
0
  6
Continuous
 62
   144
370
    18
100
AcDbLine
 10
46.6357528118
 20
-0.0056737785
 30
0.0
 11
47.4577851738
 21
0.0
 31
0.0
  0
LINE
  5
1C6
330
1F
100
AcDbEntity
  8
0
  6
Continuous
 62
   144
370
    18
100
AcDbLine
 10
46.1807368324
 20
-0.0109731258
 30
0.0
 11
46.6357528118
 21
-0.0056737785
 31
0.0
  0
LINE
  5
1C7
330
1F
100
AcDbEntity
  8
0
  6
Continuous
 62
   144
370
    18
100
AcDbLine
 10
38.5936007636
 20
0.8685331182
 30
0.0
 11
39.3386661274
 21
-0.0939953298
 31
0.0
  0
LINE
  5
1C8
330
1F
100
AcDbEntity
  8
0
  6
Continuous
 62
   144
370
    18
100
AcDbLine
 10
8.054568756
 20
3.0377098265
 30
0.0
 11
8.4278660141
 21
3.0262876053
 31
0.0
  0
LINE
  5
1C9
330
1F
100
AcDbEntity
  8
0
  6
Continuous
 62
   144
370
    18
100
AcDbLine
 10
-30.1110318011
 20
5.2716677911
 30
0.0
 11
-30.1042941548
 21
4.4710867066
 31
0.0
  0
LINE
  5
1CA
330
1F
100
AcDbEntity
  8
0
  6
Continuous
 62
   144
370
    18
100
AcDbLine
 10
-39.6961493555
 20
4.8841103675
 30
0.0
 11
-39.6995228296
 21
5.0135930332
 31
0.0
  0
LINE
  5
1CB
330
1F
100
AcDbEntity
  8
0
  6
Continuous
 62
   144
370
    18
100
AcDbLine
 10
8.4650220998
 20
5.0312869767
 30
0.0
 11
8.1187520108
 21
5.0417589535
 31
0.0
  0
LINE
  5
1CC
330
1F
100
AcDbEntity
  8
0
  6
Continuous
 62
   144
370
    18
100
AcDbLine
 10
46.6104606632
 20
1.6025903799
 30
0.0
 11
46.1396347051
 21
1.6303430073
 31
0.0
  0
LINE
  5
1CD
330
1F
100
AcDbEntity
  8
0
  6
Continuous
 62
   144
370
    18
100
AcDbLine
 10
47.4843244428
 20
1.5402175688
 30
0.0
 11
46.6105009539
 21
1.6025875041
 31
0.0
  0
LINE
  5
1CE
330
1F
100
AcDbEntity
  8
0
  6
Continuous
 62
   144
370
    18
100
AcDbLine
 10
47.4577851738
 20
0.0
 30
0.0
 11
47.4843244342
 21
1.5402170681
 31
0.0
  0
LINE
  5
1CF
330
1F
100
AcDbEntity
  8
0
  6
Continuous
 62
   144
370
    18
100
AcDbLine
 10
49.4083457514
 20
2.5409665806
 30
0.0
 11
49.4171367025
 21
5.5311768771
 31
0.0
  0
LINE
  5
1D0
330
1F
100
AcDbEntity
  8
0
  6
Continuous
 62
   144
370
    18
100
AcDbLine
 10
50.4070615123
 20
1.4756509356
 30
0.0
 11
49.4083462498
 21
2.540966049
 31
0.0
  0
LINE
  5
1D1
330
1F
100
AcDbEntity
  8
0
  6
Continuous
 62
   144
370
    18
100
AcDbLine
 10
72.5966035513
 20
2.5228354158
 30
0.0
 11
71.5950581747
 21
1.461221519
 31
0.0
  0
LINE
  5
1D2
330
1F
100
AcDbEntity
  8
0
  6
Continuous
 62
   144
370
    18
100
AcDbLine
 10
72.5903766594
 20
5.5115823776
 30
0.0
 11
72.5966035498
 21
2.5228361428
 31
0.0
  0
LINE
  5
1D3
330
1F
100
AcDbEntity
  8
0
  6
Continuous
 62
   144
370
    18
100
AcDbLine
 10
71.585849697
 20
6.7308236887
 30
0.0
 11
72.5903761581
 21
5.511582986
 31
0.0
  0
LINE
  5
1D4
330
1F
100
AcDbEntity
  8
0
  6
Continuous
 62
   144
370
    18
100
AcDbLine
 10
49.4171367025
 20
5.5311768771
 30
0.0
 11
50.4319236189
 21
6.7419157425
 31
0.0
  0
LINE
  5
1D5
330
1F
100
AcDbEntity
  8
0
  6
Continuous
 62
   144
370
    18
100
AcDbLine
 10
97.5995318244
 20
2.507398893
 30
0.0
 11
96.5982691845
 21
1.4450423945
 31
0.0
  0
LINE
  5
1D6
330
1F
100
AcDbEntity
  8
0
  6
Continuous
 62
   144
370
    18
100
AcDbLine
 10
97.5938174386
 20
5.4965607993
 30
0.0
 11
97.5995318231
 21
2.5073996206
 31
0.0
  0
LINE
  5
1D7
330
1F
100
AcDbEntity
  8
0
  6
Continuous
 62
   144
370
    18
100
AcDbLine
 10
96.5875666935
 20
6.7135938451
 30
0.0
 11
97.5938169374
 21
5.4965614054
 31
0.0
  0
LINE
  5
1D8
330
1F
100
AcDbEntity
  8
0
  6
Continuous
 62
   144
370
    18
100
AcDbLine
 10
75.4319273866
 20
6.7279903988
 30
0.0
 11
96.5875660445
 21
6.7135938454
 31
0.0
  0
LINE
  5
1D9
330
1F
100
AcDbEntity
  8
0
  6
Continuous
 62
   144
370
    18
100
AcDbLine
 10
74.4251371741
 20
5.5100762125
 30
0.0
 11
75.4319269735
 21
6.7279898991
 31
0.0
  0
LINE
  5
1DA
330
1F
100
AcDbEntity
  8
0
  6
Continuous
 62
   144
370
    18
100
AcDbLine
 10
74.4136437584
 20
2.5212268163
 30
0.0
 11
74.4251371711
 21
5.5100754241
 31
0.0
  0
LINE
  5
1DB
330
1F
100
AcDbEntity
  8
0
  6
Continuous
 62
   144
370
    18
100
AcDbLine
 10
75.4125407515
 20
1.4568737476
 30
0.0
 11
74.4136442564
 21
2.5212262857
 31
0.0
  0
LINE
  5
1DC
330
1F
100
AcDbEntity
  8
0
  6
Continuous
 62
   144
370
    18
100
AcDbLine
 10
96.5748058962
 20
9.2915549734
 30
0.0
 11
75.4476858007
 21
9.3066454665
 31
0.0
  0
LINE
  5
1DD
330
1F
100
AcDbEntity
  8
0
  6
Continuous
 62
   144
370
    18
100
AcDbLine
 10
97.567859719
 20
11.0058428868
 30
0.0
 11
96.5748061857
 21
9.2915554732
 31
0.0
  0
LINE
  5
1DE
330
1F
100
AcDbEntity
  8
0
  6
Continuous
 62
   144
370
    18
100
AcDbLine
 10
97.5411736657
 20
14.9616843538
 30
0.0
 11
97.5678597123
 21
11.0058438728
 31
0.0
  0
LINE
  5
1DF
330
1F
100
AcDbEntity
  8
0
  6
Continuous
 62
   144
370
    18
100
AcDbLine
 10
96.5395514439
 20
16.0161379612
 30
0.0
 11
97.5411731621
 21
14.9616848839
 31
0.0
  0
LINE
  5
1E0
330
1F
100
AcDbEntity
  8
0
  6
Continuous
 62
   144
370
    18
100
AcDbLine
 10
75.4960952101
 20
16.0338549753
 30
0.0
 11
96.5395507537
 21
16.0161379618
 31
0.0
  0
LINE
  5
1E1
330
1F
100
AcDbEntity
  8
0
  6
Continuous
 62
   144
370
    18
100
AcDbLine
 10
74.493234069
 20
14.9803070612
 30
0.0
 11
75.4960947346
 21
16.0338544757
 31
0.0
  0
LINE
  5
1E2
330
1F
100
AcDbEntity
  8
0
  6
Continuous
 62
   144
370
    18
100
AcDbLine
 10
74.4600484005
 20
11.0246496286
 30
0.0
 11
74.4932340628
 21
14.9803063295
 31
0.0
  0
LINE
  5
1E3
330
1F
100
AcDbEntity
  8
0
  6
Continuous
 62
   144
370
    18
100
AcDbLine
 10
75.4476858007
 20
9.3066454665
 30
0.0
 11
74.4600488934
 21
11.0246487713
 31
0.0
  0
LINE
  5
1E4
330
1F
100
AcDbEntity
  8
0
  6
Continuous
 62
   144
370
    18
100
AcDbLine
 10
127.5728865332
 20
10.9803809503
 30
0.0
 11
126.5800011537
 21
9.2644003617
 31
0.0
  0
LINE
  5
1E5
330
1F
100
AcDbEntity
  8
0
  6
Continuous
 62
   144
370
    18
100
AcDbLine
 10
127.548014671
 20
14.9392106785
 30
0.0
 11
127.572886527
 21
10.9803819379
 31
0.0
  0
LINE
  5
1E6
330
1F
100
AcDbEntity
  8
0
  6
Continuous
 62
   144
370
    18
100
AcDbLine
 10
126.5474181378
 20
15.9950140008
 30
0.0
 11
127.5480141676
 21
14.9392112096
 31
0.0
  0
LINE
  5
1E7
330
1F
100
AcDbEntity
  8
0
  6
Continuous
 62
   144
370
    18
100
AcDbLine
 10
99.4978446473
 20
14.9601107275
 30
0.0
 11
100.5010463651
 21
16.0132555016
 31
0.0
  0
LINE
  5
1E8
330
1F
100
AcDbEntity
  8
0
  6
Continuous
 62
   144
370
    18
100
AcDbLine
 10
99.4636169264
 20
11.0044066132
 30
0.0
 11
99.497844641
 21
14.9601099959
 31
0.0
  0
LINE
  5
1E9
330
1F
100
AcDbEntity
  8
0
  6
Continuous
 62
   144
370
    18
100
AcDbLine
 10
100.4531387089
 20
9.2884805488
 30
0.0
 11
99.463617419
 21
11.0044057589
 31
0.0
  0
LINE
  5
1EA
330
1F
100
AcDbEntity
  8
0
  6
Continuous
 62
   144
370
    18
100
AcDbLine
 10
99.4165927348
 20
2.5057295198
 30
0.0
 11
99.4282913714
 21
5.4948238474
 31
0.0
  0
LINE
  5
1EB
330
1F
100
AcDbEntity
  8
0
  6
Continuous
 62
   144
370
    18
100
AcDbLine
 10
100.4156527621
 20
1.4415948407
 30
0.0
 11
99.4165932328
 21
2.5057289894
 31
0.0
  0
LINE
  5
1EC
330
1F
100
AcDbEntity
  8
0
  6
Continuous
 62
   144
370
    18
100
AcDbLine
 10
127.6016366639
 20
2.4798014091
 30
0.0
 11
126.6005301158
 21
1.4171604495
 31
0.0
  0
LINE
  5
1ED
330
1F
100
AcDbEntity
  8
0
  6
Continuous
 62
   144
370
    18
100
AcDbLine
 10
127.5970041151
 20
5.4694912473
 30
0.0
 11
127.6016366627
 21
2.479802137
 31
0.0
  0
LINE
  5
1EE
330
1F
100
AcDbEntity
  8
0
  6
Continuous
 62
   144
370
    18
100
AcDbLine
 10
126.5889060978
 20
6.6856588792
 30
0.0
 11
127.5970036142
 21
5.4694918516
 31
0.0
  0
LINE
  5
1EF
330
1F
100
AcDbEntity
  8
0
  6
Continuous
 62
   144
370
    18
100
AcDbLine
 10
99.4282913714
 20
5.4948238474
 30
0.0
 11
100.4364848969
 21
6.7105131479
 31
0.0
  0
LINE
  5
1F0
330
1F
100
AcDbEntity
  8
0
  6
Continuous
 62
   144
370
    18
100
AcDbLine
 10
72.5640121975
 20
11.026007583
 30
0.0
 11
71.5738576229
 21
9.3095457875
 31
0.0
  0
LINE
  5
1F1
330
1F
100
AcDbEntity
  8
0
  6
Continuous
 62
   144
370
    18
100
AcDbLine
 10
72.5365075156
 20
14.981699002
 30
0.0
 11
72.5640121906
 21
11.0260085717
 31
0.0
  0
LINE
  5
1F2
330
1F
100
AcDbEntity
  8
0
  6
Continuous
 62
   144
370
    18
100
AcDbLine
 10
71.5354855509
 20
16.0368770686
 30
0.0
 11
72.5365070119
 21
14.9816995329
 31
0.0
  0
LINE
  5
1F3
330
1F
100
AcDbEntity
  8
0
  6
Continuous
 62
   144
370
    18
100
AcDbLine
 10
50.4905465916
 20
16.0517454466
 30
0.0
 11
71.5354848613
 21
16.036877069
 31
0.0
  0
LINE
  5
1F4
330
1F
100
AcDbEntity
  8
0
  6
Continuous
 62
   144
370
    18
100
AcDbLine
 10
49.4887821919
 20
14.9971960652
 30
0.0
 11
50.4905461169
 21
16.051744947
 31
0.0
  0
LINE
  5
1F5
330
1F
100
AcDbEntity
  8
0
  6
Continuous
 62
   144
370
    18
100
AcDbLine
 10
49.4569859508
 20
11.0388734514
 30
0.0
 11
49.488782186
 21
14.997195333
 31
0.0
  0
LINE
  5
1F6
330
1F
100
AcDbEntity
  8
0
  6
Continuous
 62
   144
370
    18
100
AcDbLine
 10
50.4461457212
 20
9.3206063271
 30
0.0
 11
49.456986444
 21
11.0388725948
 31
0.0
  0
LINE
  5
1F7
330
1F
100
AcDbEntity
  8
0
  6
Continuous
 62
   144
370
    18
100
AcDbLine
 10
49.4924792987
 20
20.2472214832
 30
0.0
 11
49.4674474614
 21
24.205369152
 31
0.0
  0
LINE
  5
1F8
330
1F
100
AcDbEntity
  8
0
  6
Continuous
 62
   144
370
    18
100
AcDbLine
 10
50.4930775449
 20
19.1915268151
 30
0.0
 11
49.4924798021
 21
20.2472209521
 31
0.0
  0
LINE
  5
1F9
330
1F
100
AcDbEntity
  8
0
  6
Continuous
 62
   144
370
    18
100
AcDbLine
 10
71.5375230053
 20
19.1765932998
 30
0.0
 11
50.4930782344
 21
19.1915268146
 31
0.0
  0
LINE
  5
1FA
330
1F
100
AcDbEntity
  8
0
  6
Continuous
 62
   144
370
    18
100
AcDbLine
 10
72.5406974875
 20
20.2297314476
 30
0.0
 11
71.5375234813
 21
19.1765937995
 31
0.0
  0
LINE
  5
1FB
330
1F
100
AcDbEntity
  8
0
  6
Continuous
 62
   144
370
    18
100
AcDbLine
 10
72.5750913542
 20
24.1853195723
 30
0.0
 11
72.5406974938
 21
20.2297321792
 31
0.0
  0
LINE
  5
1FC
330
1F
100
AcDbEntity
  8
0
  6
Continuous
 62
   144
370
    18
100
AcDbLine
 10
71.5879120025
 20
25.9033564662
 30
0.0
 11
72.5750908616
 21
24.1853204295
 31
0.0
  0
LINE
  5
1FD
330
1F
100
AcDbEntity
  8
0
  6
Continuous
 62
   144
370
    18
100
AcDbLine
 10
49.4674474614
 20
24.205369152
 30
0.0
 11
50.4613987148
 21
25.9197952371
 31
0.0
  0
LINE
  5
1FE
330
1F
100
AcDbEntity
  8
0
  6
Continuous
 62
   144
370
    18
100
AcDbLine
 10
49.4445571196
 20
29.7158818984
 30
0.0
 11
49.4401740495
 21
32.7058093104
 31
0.0
  0
LINE
  5
1FF
330
1F
100
AcDbEntity
  8
0
  6
Continuous
 62
   144
370
    18
100
AcDbLine
 10
50.4499491927
 20
28.4979572151
 30
0.0
 11
49.4445576205
 21
29.7158812917
 31
0.0
  0
LINE
  5
200
330
1F
100
AcDbEntity
  8
0
  6
Continuous
 62
   144
370
    18
100
AcDbLine
 10
71.603898328
 20
28.4820354074
 30
0.0
 11
50.4499498416
 21
28.4979572145
 31
0.0
  0
LINE
  5
201
330
1F
100
AcDbEntity
  8
0
  6
Continuous
 62
   144
370
    18
100
AcDbLine
 10
72.6105424704
 20
29.6997118331
 30
0.0
 11
71.6038987411
 21
28.4820359071
 31
0.0
  0
LINE
  5
202
330
1F
100
AcDbEntity
  8
0
  6
Continuous
 62
   144
370
    18
100
AcDbLine
 10
72.6222679669
 20
32.68850227
 30
0.0
 11
72.6105424735
 21
29.6997126216
 31
0.0
  0
LINE
  5
203
330
1F
100
AcDbEntity
  8
0
  6
Continuous
 62
   144
370
    18
100
AcDbLine
 10
71.6227181127
 20
33.7517769953
 30
0.0
 11
72.622267469
 21
32.6885027996
 31
0.0
  0
LINE
  5
204
330
1F
100
AcDbEntity
  8
0
  6
Continuous
 62
   144
370
    18
100
AcDbLine
 10
49.4401740495
 20
32.7058093104
 30
0.0
 11
50.4412874047
 21
33.7683632594
 31
0.0
  0
LINE
  5
205
330
1F
100
AcDbEntity
  8
0
  6
Continuous
 62
   144
370
    18
100
AcDbLine
 10
96.6045915311
 20
28.4592734664
 30
0.0
 11
75.4499731594
 21
28.4787127097
 31
0.0
  0
LINE
  5
206
330
1F
100
AcDbEntity
  8
0
  6
Continuous
 62
   144
370
    18
100
AcDbLine
 10
97.6126692513
 20
29.6747902848
 30
0.0
 11
96.6045919454
 21
28.459273966
 31
0.0
  0
LINE
  5
207
330
1F
100
AcDbEntity
  8
0
  6
Continuous
 62
   144
370
    18
100
AcDbLine
 10
97.6230449115
 20
32.6640115919
 30
0.0
 11
97.6126692541
 21
29.6747910714
 31
0.0
  0
LINE
  5
208
330
1F
100
AcDbEntity
  8
0
  6
Continuous
 62
   144
370
    18
100
AcDbLine
 10
96.6234542086
 20
33.727873538
 30
0.0
 11
97.6230444134
 21
32.6640121221
 31
0.0
  0
LINE
  5
209
330
1F
100
AcDbEntity
  8
0
  6
Continuous
 62
   144
370
    18
100
AcDbLine
 10
74.4392491885
 20
32.6870637784
 30
0.0
 11
75.4398400102
 21
33.7498141199
 31
0.0
  0
LINE
  5
20A
330
1F
100
AcDbEntity
  8
0
  6
Continuous
 62
   144
370
    18
100
AcDbLine
 10
74.4453019468
 20
29.6982145122
 30
0.0
 11
74.43924919
 21
32.6870630506
 31
0.0
  0
LINE
  5
20B
330
1F
100
AcDbEntity
  8
0
  6
Continuous
 62
   144
370
    18
100
AcDbLine
 10
75.4499731594
 20
28.4787127097
 30
0.0
 11
74.445302448
 21
29.6982139037
 31
0.0
  0
LINE
  5
20C
330
1F
100
AcDbEntity
  8
0
  6
Continuous
 62
   144
370
    18
100
AcDbLine
 10
74.4973771786
 20
20.2279858839
 30
0.0
 11
74.471114087
 21
24.1836437491
 31
0.0
  0
LINE
  5
20D
330
1F
100
AcDbEntity
  8
0
  6
Continuous
 62
   144
370
    18
100
AcDbLine
 10
75.4989647423
 20
19.1735799032
 30
0.0
 11
74.4973776821
 21
20.2279853538
 31
0.0
  0
LINE
  5
20E
330
1F
100
AcDbEntity
  8
0
  6
Continuous
 62
   144
370
    18
100
AcDbLine
 10
96.542340436
 20
19.1559114839
 30
0.0
 11
75.4989654326
 21
19.1735799025
 31
0.0
  0
LINE
  5
20F
330
1F
100
AcDbEntity
  8
0
  6
Continuous
 62
   144
370
    18
100
AcDbLine
 10
97.5451395209
 20
20.2095554642
 30
0.0
 11
96.5423409115
 21
19.1559119835
 31
0.0
  0
LINE
  5
210
330
1F
100
AcDbEntity
  8
0
  6
Continuous
 62
   144
370
    18
100
AcDbLine
 10
97.5781801306
 20
24.1654805432
 30
0.0
 11
97.545139527
 21
20.2095561959
 31
0.0
  0
LINE
  5
211
330
1F
100
AcDbEntity
  8
0
  6
Continuous
 62
   144
370
    18
100
AcDbLine
 10
96.5878358297
 20
25.8813247798
 30
0.0
 11
97.5781796377
 21
24.1654813971
 31
0.0
  0
LINE
  5
212
330
1F
100
AcDbEntity
  8
0
  6
Continuous
 62
   144
370
    18
100
AcDbLine
 10
75.4615749943
 20
25.9000429611
 30
0.0
 11
96.5878352521
 21
25.8813247803
 31
0.0
  0
LINE
  5
213
330
1F
100
AcDbEntity
  8
0
  6
Continuous
 62
   144
370
    18
100
AcDbLine
 10
74.471114087
 20
24.1836437491
 30
0.0
 11
75.461574706
 21
25.9000424613
 31
0.0
  0
LINE
  5
214
330
1F
100
AcDbEntity
  8
0
  6
Continuous
 62
   144
370
    18
100
AcDbLine
 10
99.5018652654
 20
20.2081731537
 30
0.0
 11
99.4739443561
 21
24.1640411683
 31
0.0
  0
LINE
  5
215
330
1F
100
AcDbEntity
  8
0
  6
Continuous
 62
   144
370
    18
100
AcDbLine
 10
100.5030267357
 20
19.1529930301
 30
0.0
 11
99.5018657691
 21
20.2081726227
 31
0.0
  0
LINE
  5
216
330
1F
100
AcDbEntity
  8
0
  6
Continuous
 62
   144
370
    18
100
AcDbLine
 10
126.5496880191
 20
19.1350279366
 30
0.0
 11
100.5030274253
 21
19.1529930297
 31
0.0
  0
LINE
  5
217
330
1F
100
AcDbEntity
  8
0
  6
Continuous
 62
   144
370
    18
100
AcDbLine
 10
127.5519054823
 20
20.1893578952
 30
0.0
 11
126.5496884941
 21
19.1350284363
 31
0.0
  0
LINE
  5
218
330
1F
100
AcDbEntity
  8
0
  6
Continuous
 62
   144
370
    18
100
AcDbLine
 10
127.5828219454
 20
24.1481042385
 30
0.0
 11
127.551905488
 21
20.1893586269
 31
0.0
  0
LINE
  5
219
330
1F
100
AcDbEntity
  8
0
  6
Continuous
 62
   144
370
    18
100
AcDbLine
 10
126.5925320983
 20
25.8654883112
 30
0.0
 11
127.5828214521
 21
24.148105094
 31
0.0
  0
LINE
  5
21A
330
1F
100
AcDbEntity
  8
0
  6
Continuous
 62
   144
370
    18
100
AcDbLine
 10
99.4739443561
 20
24.1640411683
 30
0.0
 11
100.4661574632
 21
25.8785218346
 31
0.0
  0
LINE
  5
21B
330
1F
100
AcDbEntity
  8
0
  6
Continuous
 62
   144
370
    18
100
AcDbLine
 10
99.4471122193
 20
29.6737699326
 30
0.0
 11
99.440088239
 21
32.6629337938
 31
0.0
  0
LINE
  5
21C
330
1F
100
AcDbEntity
  8
0
  6
Continuous
 62
   144
370
    18
100
AcDbLine
 10
100.4533693872
 20
28.4565364647
 30
0.0
 11
99.4471127208
 21
29.6737693261
 31
0.0
  0
LINE
  5
21D
330
1F
100
AcDbEntity
  8
0
  6
Continuous
 62
   144
370
    18
100
AcDbLine
 10
127.6150175522
 20
29.6589193184
 30
0.0
 11
126.6051450023
 21
28.4442016905
 31
0.0
  0
LINE
  5
21E
330
1F
100
AcDbEntity
  8
0
  6
Continuous
 62
   144
370
    18
100
AcDbLine
 10
127.6240496665
 20
32.6485792567
 30
0.0
 11
127.6150175546
 21
29.6589201034
 31
0.0
  0
LINE
  5
21F
330
1F
100
AcDbEntity
  8
0
  6
Continuous
 62
   144
370
    18
100
AcDbLine
 10
126.6245102496
 20
33.7126389546
 30
0.0
 11
127.6240491681
 21
32.6485797873
 31
0.0
  0
LINE
  5
220
330
1F
100
AcDbEntity
  8
0
  6
Continuous
 62
   144
370
    18
100
AcDbLine
 10
99.440088239
 20
32.6629337938
 30
0.0
 11
100.4406914987
 21
33.7256373887
 31
0.0
  0
LINE
  5
221
330
1F
100
AcDbEntity
  8
0
  6
Continuous
 62
   144
370
    18
100
AcDbLine
 10
33.1998004662
 20
35.2951709627
 30
0.0
 11
33.1125797845
 21
33.8198751282
 31
0.0
  0
LINE
  5
222
330
1F
100
AcDbEntity
  8
0
  6
Continuous
 62
   144
370
    18
100
AcDbLine
 10
46.635767084
 20
-0.0057511397
 30
0.0
 11
47.4577851738
 21
0.0
 31
0.0
  0
LINE
  5
223
330
1F
100
AcDbEntity
  8
0
  6
Continuous
 62
   144
370
    18
100
AcDbLine
 10
46.1807534298
 20
-0.0110970619
 30
0.0
 11
46.635767084
 21
-0.0057511397
 31
0.0
  0
LINE
  5
224
330
1F
100
AcDbEntity
  8
0
  6
Continuous
 62
   144
370
    18
100
AcDbLine
 10
46.1394992047
 20
1.6302200027
 30
0.0
 11
46.1807534173
 21
-0.011096562
 31
0.0
  0
LINE
  5
225
330
1F
100
AcDbEntity
  8
0
  6
Continuous
 62
   144
370
    18
100
AcDbLine
 10
46.6103329438
 20
1.6025151884
 30
0.0
 11
46.1394997056
 21
1.6302199732
 31
0.0
  0
LINE
  5
226
330
1F
100
AcDbEntity
  8
0
  6
Continuous
 62
   144
370
    18
100
AcDbLine
 10
47.4842161777
 20
1.5402357986
 30
0.0
 11
46.6103732537
 21
1.6025123156
 31
0.0
  0
LINE
  5
227
330
1F
100
AcDbEntity
  8
0
  6
Continuous
 62
   144
370
    18
100
AcDbLine
 10
47.1097408002
 20
1.7652727555
 30
0.0
 11
47.4842152314
 21
1.5402363673
 31
0.0
  0
LINE
  5
228
330
1F
100
AcDbEntity
  8
0
  6
Continuous
 62
   144
370
    18
100
AcDbLine
 10
47.5908787096
 20
2.6803952881
 30
0.0
 11
47.1097410333
 21
1.7652731987
 31
0.0
  0
LINE
  5
229
330
1F
100
AcDbEntity
  8
0
  6
Continuous
 62
   144
370
    18
100
AcDbLine
 10
47.5827134718
 20
5.4634962129
 30
0.0
 11
47.5908787065
 21
2.6803963566
 31
0.0
  0
LINE
  5
22A
330
1F
100
AcDbEntity
  8
0
  6
Continuous
 62
   144
370
    18
100
AcDbLine
 10
47.5127461283
 20
5.8961482233
 30
0.0
 11
47.5827129626
 21
5.4634993618
 31
0.0
  0
LINE
  5
22B
330
1F
100
AcDbEntity
  8
0
  6
Continuous
 62
   144
370
    18
100
AcDbLine
 10
46.7385252112
 20
6.5869919682
 30
0.0
 11
47.5127461283
 21
5.8961482233
 31
0.0
  0
LINE
  5
22C
330
1F
100
AcDbEntity
  8
0
  6
Continuous
 62
   144
370
    18
100
AcDbLine
 10
46.4778596022
 20
6.5593755738
 30
0.0
 11
46.7385245399
 21
6.5869918971
 31
0.0
  0
LINE
  5
22D
330
1F
100
AcDbEntity
  8
0
  6
Continuous
 62
   144
370
    18
100
AcDbLine
 10
45.5461730168
 20
6.456292047
 30
0.0
 11
46.4778596022
 21
6.5593755738
 31
0.0
  0
LINE
  5
22E
330
1F
100
AcDbEntity
  8
0
  6
Continuous
 62
   144
370
    18
100
AcDbLine
 10
-47.8219074914
 20
-7.9031756218
 30
0.0
 11
-45.6199299779
 21
-7.1395864355
 31
0.0
  0
LINE
  5
22F
330
1F
100
AcDbEntity
  8
0
  6
Continuous
 62
   144
370
    18
100
AcDbLine
 10
-45.740750379
 20
-4.3069849
 30
0.0
 11
-46.2333607011
 21
-5.1582039931
 31
0.0
  0
LINE
  5
230
330
1F
100
AcDbEntity
  8
0
  6
Continuous
 62
   144
370
    18
100
AcDbLine
 10
-47.6754532828
 20
-7.6501061812
 30
0.0
 11
-47.8219071083
 21
-7.9031749597
 31
0.0
  0
LINE
  5
231
330
1F
100
AcDbEntity
  8
0
  6
Continuous
 62
   144
370
    18
100
AcDbLine
 10
-45.3705674063
 20
-4.0449267384
 30
0.0
 11
-45.7407494004
 21
-4.3069842072
 31
0.0
  0
LINE
  5
232
330
1F
100
AcDbEntity
  8
0
  6
Continuous
 62
   144
370
    18
100
AcDbLine
 10
13.1949637242
 20
4.8657950771
 30
0.0
 11
12.7441943142
 21
4.7864320135
 31
0.0
  0
LINE
  5
233
330
1F
100
AcDbEntity
  8
0
  6
Continuous
 62
   144
370
    18
100
AcDbLine
 10
46.1941282942
 20
9.1030192553
 30
0.0
 11
45.1478604859
 21
8.8672491594
 31
0.0
  0
LINE
  5
234
330
1F
100
AcDbEntity
  8
0
  6
Continuous
 62
   144
370
    18
100
AcDbLine
 10
47.9753336612
 20
9.3052708895
 30
0.0
 11
46.1941328788
 21
9.1030197759
 31
0.0
  0
LINE
  5
235
330
1F
100
AcDbEntity
  8
0
  6
Continuous
 62
   144
370
    18
100
AcDbLine
 10
47.0965917667
 20
9.7208630751
 30
0.0
 11
47.9753328032
 21
9.3052712953
 31
0.0
  0
LINE
  5
236
330
1F
100
AcDbEntity
  8
0
  6
Continuous
 62
   144
370
    18
100
AcDbLine
 10
47.559431226
 20
11.2351366069
 30
0.0
 11
47.0965919144
 21
9.7208635584
 31
0.0
  0
LINE
  5
237
330
1F
100
AcDbEntity
  8
0
  6
Continuous
 62
   144
370
    18
100
AcDbLine
 10
47.5313068074
 20
15.1029182544
 30
0.0
 11
47.5594312139
 21
11.2351382777
 31
0.0
  0
LINE
  5
238
330
1F
100
AcDbEntity
  8
0
  6
Continuous
 62
   144
370
    18
100
AcDbLine
 10
46.6295961831
 20
16.0507629392
 30
0.0
 11
47.5313063036
 21
15.1029187841
 31
0.0
  0
LINE
  5
239
330
1F
100
AcDbEntity
  8
0
  6
Continuous
 62
   144
370
    18
100
AcDbLine
 10
46.1971353487
 20
16.0510669918
 30
0.0
 11
46.6295954926
 21
16.0507629397
 31
0.0
  0
LINE
  5
23A
330
1F
100
AcDbEntity
  8
0
  6
Continuous
 62
   144
370
    18
100
AcDbLine
 10
45.3462482048
 20
17.625452868
 30
0.0
 11
46.1971350784
 21
16.051067492
 31
0.0
  0
LINE
  5
23B
330
1F
100
AcDbEntity
  8
0
  6
Continuous
 62
   144
370
    18
100
AcDbLine
 10
44.2302349769
 20
19.1996891941
 30
0.0
 11
45.3462458132
 21
17.6254562417
 31
0.0
  0
LINE
  5
23C
330
1F
100
AcDbEntity
  8
0
  6
Continuous
 62
   144
370
    18
100
AcDbLine
 10
46.5324725445
 20
19.1981126512
 30
0.0
 11
44.2302355901
 21
19.1996891937
 31
0.0
  0
LINE
  5
23D
330
1F
100
AcDbEntity
  8
0
  6
Continuous
 62
   144
370
    18
100
AcDbLine
 10
47.5359848291
 20
20.2504295982
 30
0.0
 11
46.532473021
 21
19.1981131509
 31
0.0
  0
LINE
  5
23E
330
1F
100
AcDbEntity
  8
0
  6
Continuous
 62
   144
370
    18
100
AcDbLine
 10
47.5716284396
 20
24.2080992113
 30
0.0
 11
47.5359848357
 21
20.2504303296
 31
0.0
  0
LINE
  5
23F
330
1F
100
AcDbEntity
  8
0
  6
Continuous
 62
   144
370
    18
100
AcDbLine
 10
46.5827623331
 20
25.9255329849
 30
0.0
 11
47.5716279472
 21
24.2081000664
 31
0.0
  0
LINE
  5
240
330
1F
100
AcDbEntity
  8
0
  6
Continuous
 62
   144
370
    18
100
AcDbLine
 10
33.1082973758
 20
25.9506934664
 30
0.0
 11
46.5827617555
 21
25.9255329859
 31
0.0
  0
LINE
  5
241
330
1F
100
AcDbEntity
  8
0
  6
Continuous
 62
   144
370
    18
100
AcDbLine
 10
32.5658317169
 20
28.5301507168
 30
0.0
 11
33.1082972706
 21
25.9506939666
 31
0.0
  0
LINE
  5
242
330
1F
100
AcDbEntity
  8
0
  6
Continuous
 62
   144
370
    18
100
AcDbLine
 10
46.6014802715
 20
28.5037174019
 30
0.0
 11
32.565832228
 21
28.5301507158
 31
0.0
  0
LINE
  5
243
330
1F
100
AcDbEntity
  8
0
  6
Continuous
 62
   144
370
    18
100
AcDbLine
 10
47.6101805734
 20
29.7188371728
 30
0.0
 11
46.6014806859
 21
28.5037179011
 31
0.0
  0
LINE
  5
244
330
1F
100
AcDbEntity
  8
0
  6
Continuous
 62
   144
370
    18
100
AcDbLine
 10
47.6230811887
 20
32.7085913128
 30
0.0
 11
47.6101805768
 21
29.7188379597
 31
0.0
  0
LINE
  5
245
330
1F
100
AcDbEntity
  8
0
  6
Continuous
 62
   144
370
    18
100
AcDbLine
 10
46.6235270644
 20
33.7727048538
 30
0.0
 11
47.623080691
 21
32.7085918426
 31
0.0
  0
LINE
  5
246
330
1F
100
AcDbEntity
  8
0
  6
Continuous
 62
   144
370
    18
100
AcDbLine
 10
33.1125797845
 20
33.8198751282
 30
0.0
 11
46.6235263762
 21
33.7727048562
 31
0.0
  0
LINE
  5
247
330
1F
100
AcDbEntity
  8
0
  6
Continuous
 62
   144
370
    18
100
AcDbLine
 10
47.4843244428
 20
-1.5402175688
 30
0.0
 11
46.6105009539
 21
-1.6025875041
 31
0.0
  0
LINE
  5
248
330
1F
100
AcDbEntity
  8
0
  6
Continuous
 62
   144
370
    18
100
AcDbLine
 10
46.6104606632
 20
-1.6025903799
 30
0.0
 11
46.1396347051
 21
-1.6303430073
 31
0.0
  0
LINE
  5
249
330
1F
100
AcDbEntity
  8
0
  6
Continuous
 62
   144
370
    18
100
AcDbLine
 10
8.4650220998
 20
-5.0312869767
 30
0.0
 11
8.1187520108
 21
-5.0417589535
 31
0.0
  0
LINE
  5
24A
330
1F
100
AcDbEntity
  8
0
  6
Continuous
 62
   144
370
    18
100
AcDbLine
 10
-39.6961493555
 20
-4.8841103675
 30
0.0
 11
-39.6995228296
 21
-5.0135930332
 31
0.0
  0
LINE
  5
24B
330
1F
100
AcDbEntity
  8
0
  6
Continuous
 62
   144
370
    18
100
AcDbLine
 10
-30.1110318011
 20
-5.2716677911
 30
0.0
 11
-30.1042941548
 21
-4.4710867066
 31
0.0
  0
LINE
  5
24C
330
1F
100
AcDbEntity
  8
0
  6
Continuous
 62
   144
370
    18
100
AcDbLine
 10
8.054568756
 20
-3.0377098265
 30
0.0
 11
8.4278660141
 21
-3.0262876053
 31
0.0
  0
LINE
  5
24D
330
1F
100
AcDbEntity
  8
0
  6
Continuous
 62
   144
370
    18
100
AcDbLine
 10
38.5936007636
 20
-0.8685331182
 30
0.0
 11
39.3386661274
 21
0.0939953298
 31
0.0
  0
LINE
  5
24E
330
1F
100
AcDbEntity
  8
0
  6
Continuous
 62
   144
370
    18
100
AcDbLine
 10
46.1807368324
 20
0.0109731258
 30
0.0
 11
46.6357528118
 21
0.0056737785
 31
0.0
  0
LINE
  5
24F
330
1F
100
AcDbEntity
  8
0
  6
Continuous
 62
   144
370
    18
100
AcDbLine
 10
46.6357528118
 20
0.0056737785
 30
0.0
 11
47.4577851738
 21
0.0
 31
0.0
  0
LINE
  5
250
330
1F
100
AcDbEntity
  8
0
  6
Continuous
 62
   144
370
    18
100
AcDbLine
 10
47.4577851738
 20
0.0
 30
0.0
 11
47.4843244342
 21
-1.5402170681
 31
0.0
  0
LINE
  5
251
330
1F
100
AcDbEntity
  8
0
  6
Continuous
 62
   144
370
    18
100
AcDbLine
 10
71.585849697
 20
-6.7308236887
 30
0.0
 11
72.5903761581
 21
-5.511582986
 31
0.0
  0
LINE
  5
252
330
1F
100
AcDbEntity
  8
0
  6
Continuous
 62
   144
370
    18
100
AcDbLine
 10
72.5903766594
 20
-5.5115823776
 30
0.0
 11
72.5966035498
 21
-2.5228361428
 31
0.0
  0
LINE
  5
253
330
1F
100
AcDbEntity
  8
0
  6
Continuous
 62
   144
370
    18
100
AcDbLine
 10
72.5966035513
 20
-2.5228354158
 30
0.0
 11
71.5950581747
 21
-1.461221519
 31
0.0
  0
LINE
  5
254
330
1F
100
AcDbEntity
  8
0
  6
Continuous
 62
   144
370
    18
100
AcDbLine
 10
50.4070615123
 20
-1.4756509356
 30
0.0
 11
49.4083462498
 21
-2.540966049
 31
0.0
  0
LINE
  5
255
330
1F
100
AcDbEntity
  8
0
  6
Continuous
 62
   144
370
    18
100
AcDbLine
 10
49.4083457514
 20
-2.5409665806
 30
0.0
 11
49.4171367025
 21
-5.5311768771
 31
0.0
  0
LINE
  5
256
330
1F
100
AcDbEntity
  8
0
  6
Continuous
 62
   144
370
    18
100
AcDbLine
 10
49.4171367025
 20
-5.5311768771
 30
0.0
 11
50.4319236189
 21
-6.7419157425
 31
0.0
  0
LINE
  5
257
330
1F
100
AcDbEntity
  8
0
  6
Continuous
 62
   144
370
    18
100
AcDbLine
 10
74.4136437584
 20
-2.5212268163
 30
0.0
 11
74.4251371711
 21
-5.5100754241
 31
0.0
  0
LINE
  5
258
330
1F
100
AcDbEntity
  8
0
  6
Continuous
 62
   144
370
    18
100
AcDbLine
 10
74.4251371741
 20
-5.5100762125
 30
0.0
 11
75.4319269735
 21
-6.7279898991
 31
0.0
  0
LINE
  5
259
330
1F
100
AcDbEntity
  8
0
  6
Continuous
 62
   144
370
    18
100
AcDbLine
 10
75.4319273866
 20
-6.7279903988
 30
0.0
 11
96.5875660445
 21
-6.7135938454
 31
0.0
  0
LINE
  5
25A
330
1F
100
AcDbEntity
  8
0
  6
Continuous
 62
   144
370
    18
100
AcDbLine
 10
96.5875666935
 20
-6.7135938451
 30
0.0
 11
97.5938169374
 21
-5.4965614054
 31
0.0
  0
LINE
  5
25B
330
1F
100
AcDbEntity
  8
0
  6
Continuous
 62
   144
370
    18
100
AcDbLine
 10
97.5938174386
 20
-5.4965607993
 30
0.0
 11
97.5995318231
 21
-2.5073996206
 31
0.0
  0
LINE
  5
25C
330
1F
100
AcDbEntity
  8
0
  6
Continuous
 62
   144
370
    18
100
AcDbLine
 10
97.5995318244
 20
-2.507398893
 30
0.0
 11
96.5982691845
 21
-1.4450423945
 31
0.0
  0
LINE
  5
25D
330
1F
100
AcDbEntity
  8
0
  6
Continuous
 62
   144
370
    18
100
AcDbLine
 10
75.4125407515
 20
-1.4568737476
 30
0.0
 11
74.4136442564
 21
-2.5212262857
 31
0.0
  0
LINE
  5
25E
330
1F
100
AcDbEntity
  8
0
  6
Continuous
 62
   144
370
    18
100
AcDbLine
 10
74.4600484005
 20
-11.0246496286
 30
0.0
 11
74.4932340628
 21
-14.9803063295
 31
0.0
  0
LINE
  5
25F
330
1F
100
AcDbEntity
  8
0
  6
Continuous
 62
   144
370
    18
100
AcDbLine
 10
74.493234069
 20
-14.9803070612
 30
0.0
 11
75.4960947346
 21
-16.0338544757
 31
0.0
  0
LINE
  5
260
330
1F
100
AcDbEntity
  8
0
  6
Continuous
 62
   144
370
    18
100
AcDbLine
 10
75.4960952101
 20
-16.0338549753
 30
0.0
 11
96.5395507537
 21
-16.0161379618
 31
0.0
  0
LINE
  5
261
330
1F
100
AcDbEntity
  8
0
  6
Continuous
 62
   144
370
    18
100
AcDbLine
 10
96.5395514439
 20
-16.0161379612
 30
0.0
 11
97.5411731621
 21
-14.9616848839
 31
0.0
  0
LINE
  5
262
330
1F
100
AcDbEntity
  8
0
  6
Continuous
 62
   144
370
    18
100
AcDbLine
 10
97.5411736657
 20
-14.9616843538
 30
0.0
 11
97.5678597123
 21
-11.0058438728
 31
0.0
  0
LINE
  5
263
330
1F
100
AcDbEntity
  8
0
  6
Continuous
 62
   144
370
    18
100
AcDbLine
 10
97.567859719
 20
-11.0058428868
 30
0.0
 11
96.5748061857
 21
-9.2915554732
 31
0.0
  0
LINE
  5
264
330
1F
100
AcDbEntity
  8
0
  6
Continuous
 62
   144
370
    18
100
AcDbLine
 10
96.5748058962
 20
-9.2915549734
 30
0.0
 11
75.4476858007
 21
-9.3066454665
 31
0.0
  0
LINE
  5
265
330
1F
100
AcDbEntity
  8
0
  6
Continuous
 62
   144
370
    18
100
AcDbLine
 10
75.4476858007
 20
-9.3066454665
 30
0.0
 11
74.4600488934
 21
-11.0246487713
 31
0.0
  0
LINE
  5
266
330
1F
100
AcDbEntity
  8
0
  6
Continuous
 62
   144
370
    18
100
AcDbLine
 10
99.4636169264
 20
-11.0044066132
 30
0.0
 11
99.497844641
 21
-14.9601099959
 31
0.0
  0
LINE
  5
267
330
1F
100
AcDbEntity
  8
0
  6
Continuous
 62
   144
370
    18
100
AcDbLine
 10
99.4978446473
 20
-14.9601107275
 30
0.0
 11
100.5010463651
 21
-16.0132555016
 31
0.0
  0
LINE
  5
268
330
1F
100
AcDbEntity
  8
0
  6
Continuous
 62
   144
370
    18
100
AcDbLine
 10
126.5474181378
 20
-15.9950140008
 30
0.0
 11
127.5480141676
 21
-14.9392112096
 31
0.0
  0
LINE
  5
269
330
1F
100
AcDbEntity
  8
0
  6
Continuous
 62
   144
370
    18
100
AcDbLine
 10
127.548014671
 20
-14.9392106785
 30
0.0
 11
127.572886527
 21
-10.9803819379
 31
0.0
  0
LINE
  5
26A
330
1F
100
AcDbEntity
  8
0
  6
Continuous
 62
   144
370
    18
100
AcDbLine
 10
127.5728865332
 20
-10.9803809503
 30
0.0
 11
126.5800011537
 21
-9.2644003617
 31
0.0
  0
LINE
  5
26B
330
1F
100
AcDbEntity
  8
0
  6
Continuous
 62
   144
370
    18
100
AcDbLine
 10
100.4531387089
 20
-9.2884805488
 30
0.0
 11
99.463617419
 21
-11.0044057589
 31
0.0
  0
LINE
  5
26C
330
1F
100
AcDbEntity
  8
0
  6
Continuous
 62
   144
370
    18
100
AcDbLine
 10
126.5889060978
 20
-6.6856588792
 30
0.0
 11
127.5970036142
 21
-5.4694918516
 31
0.0
  0
LINE
  5
26D
330
1F
100
AcDbEntity
  8
0
  6
Continuous
 62
   144
370
    18
100
AcDbLine
 10
127.5970041151
 20
-5.4694912473
 30
0.0
 11
127.6016366627
 21
-2.479802137
 31
0.0
  0
LINE
  5
26E
330
1F
100
AcDbEntity
  8
0
  6
Continuous
 62
   144
370
    18
100
AcDbLine
 10
127.6016366639
 20
-2.4798014091
 30
0.0
 11
126.6005301158
 21
-1.4171604495
 31
0.0
  0
LINE
  5
26F
330
1F
100
AcDbEntity
  8
0
  6
Continuous
 62
   144
370
    18
100
AcDbLine
 10
100.4156527621
 20
-1.4415948407
 30
0.0
 11
99.4165932328
 21
-2.5057289894
 31
0.0
  0
LINE
  5
270
330
1F
100
AcDbEntity
  8
0
  6
Continuous
 62
   144
370
    18
100
AcDbLine
 10
99.4165927348
 20
-2.5057295198
 30
0.0
 11
99.4282913714
 21
-5.4948238474
 31
0.0
  0
LINE
  5
271
330
1F
100
AcDbEntity
  8
0
  6
Continuous
 62
   144
370
    18
100
AcDbLine
 10
99.4282913714
 20
-5.4948238474
 30
0.0
 11
100.4364848969
 21
-6.7105131479
 31
0.0
  0
LINE
  5
272
330
1F
100
AcDbEntity
  8
0
  6
Continuous
 62
   144
370
    18
100
AcDbLine
 10
50.4461457212
 20
-9.3206063271
 30
0.0
 11
49.456986444
 21
-11.0388725948
 31
0.0
  0
LINE
  5
273
330
1F
100
AcDbEntity
  8
0
  6
Continuous
 62
   144
370
    18
100
AcDbLine
 10
49.4569859508
 20
-11.0388734514
 30
0.0
 11
49.488782186
 21
-14.997195333
 31
0.0
  0
LINE
  5
274
330
1F
100
AcDbEntity
  8
0
  6
Continuous
 62
   144
370
    18
100
AcDbLine
 10
49.4887821919
 20
-14.9971960652
 30
0.0
 11
50.4905461169
 21
-16.051744947
 31
0.0
  0
LINE
  5
275
330
1F
100
AcDbEntity
  8
0
  6
Continuous
 62
   144
370
    18
100
AcDbLine
 10
50.4905465916
 20
-16.0517454466
 30
0.0
 11
71.5354848613
 21
-16.036877069
 31
0.0
  0
LINE
  5
276
330
1F
100
AcDbEntity
  8
0
  6
Continuous
 62
   144
370
    18
100
AcDbLine
 10
71.5354855509
 20
-16.0368770686
 30
0.0
 11
72.5365070119
 21
-14.9816995329
 31
0.0
  0
LINE
  5
277
330
1F
100
AcDbEntity
  8
0
  6
Continuous
 62
   144
370
    18
100
AcDbLine
 10
72.5365075156
 20
-14.981699002
 30
0.0
 11
72.5640121906
 21
-11.0260085717
 31
0.0
  0
LINE
  5
278
330
1F
100
AcDbEntity
  8
0
  6
Continuous
 62
   144
370
    18
100
AcDbLine
 10
72.5640121975
 20
-11.026007583
 30
0.0
 11
71.5738576229
 21
-9.3095457875
 31
0.0
  0
LINE
  5
279
330
1F
100
AcDbEntity
  8
0
  6
Continuous
 62
   144
370
    18
100
AcDbLine
 10
71.5879120025
 20
-25.9033564662
 30
0.0
 11
72.5750908616
 21
-24.1853204295
 31
0.0
  0
LINE
  5
27A
330
1F
100
AcDbEntity
  8
0
  6
Continuous
 62
   144
370
    18
100
AcDbLine
 10
72.5750913542
 20
-24.1853195723
 30
0.0
 11
72.5406974938
 21
-20.2297321792
 31
0.0
  0
LINE
  5
27B
330
1F
100
AcDbEntity
  8
0
  6
Continuous
 62
   144
370
    18
100
AcDbLine
 10
72.5406974875
 20
-20.2297314476
 30
0.0
 11
71.5375234813
 21
-19.1765937995
 31
0.0
  0
LINE
  5
27C
330
1F
100
AcDbEntity
  8
0
  6
Continuous
 62
   144
370
    18
100
AcDbLine
 10
71.5375230053
 20
-19.1765932998
 30
0.0
 11
50.4930782344
 21
-19.1915268146
 31
0.0
  0
LINE
  5
27D
330
1F
100
AcDbEntity
  8
0
  6
Continuous
 62
   144
370
    18
100
AcDbLine
 10
50.4930775449
 20
-19.1915268151
 30
0.0
 11
49.4924798021
 21
-20.2472209521
 31
0.0
  0
LINE
  5
27E
330
1F
100
AcDbEntity
  8
0
  6
Continuous
 62
   144
370
    18
100
AcDbLine
 10
49.4924792987
 20
-20.2472214832
 30
0.0
 11
49.4674474614
 21
-24.205369152
 31
0.0
  0
LINE
  5
27F
330
1F
100
AcDbEntity
  8
0
  6
Continuous
 62
   144
370
    18
100
AcDbLine
 10
49.4674474614
 20
-24.205369152
 30
0.0
 11
50.4613987148
 21
-25.9197952371
 31
0.0
  0
LINE
  5
280
330
1F
100
AcDbEntity
  8
0
  6
Continuous
 62
   144
370
    18
100
AcDbLine
 10
71.6227181127
 20
-33.7517769953
 30
0.0
 11
72.622267469
 21
-32.6885027996
 31
0.0
  0
LINE
  5
281
330
1F
100
AcDbEntity
  8
0
  6
Continuous
 62
   144
370
    18
100
AcDbLine
 10
72.6222679669
 20
-32.68850227
 30
0.0
 11
72.6105424735
 21
-29.6997126216
 31
0.0
  0
LINE
  5
282
330
1F
100
AcDbEntity
  8
0
  6
Continuous
 62
   144
370
    18
100
AcDbLine
 10
72.6105424704
 20
-29.6997118331
 30
0.0
 11
71.6038987411
 21
-28.4820359071
 31
0.0
  0
LINE
  5
283
330
1F
100
AcDbEntity
  8
0
  6
Continuous
 62
   144
370
    18
100
AcDbLine
 10
71.603898328
 20
-28.4820354074
 30
0.0
 11
50.4499498416
 21
-28.4979572145
 31
0.0
  0
LINE
  5
284
330
1F
100
AcDbEntity
  8
0
  6
Continuous
 62
   144
370
    18
100
AcDbLine
 10
50.4499491927
 20
-28.4979572151
 30
0.0
 11
49.4445576205
 21
-29.7158812917
 31
0.0
  0
LINE
  5
285
330
1F
100
AcDbEntity
  8
0
  6
Continuous
 62
   144
370
    18
100
AcDbLine
 10
49.4445571196
 20
-29.7158818984
 30
0.0
 11
49.4401740495
 21
-32.7058093104
 31
0.0
  0
LINE
  5
286
330
1F
100
AcDbEntity
  8
0
  6
Continuous
 62
   144
370
    18
100
AcDbLine
 10
49.4401740495
 20
-32.7058093104
 30
0.0
 11
50.4412874047
 21
-33.7683632594
 31
0.0
  0
LINE
  5
287
330
1F
100
AcDbEntity
  8
0
  6
Continuous
 62
   144
370
    18
100
AcDbLine
 10
74.4453019468
 20
-29.6982145122
 30
0.0
 11
74.43924919
 21
-32.6870630506
 31
0.0
  0
LINE
  5
288
330
1F
100
AcDbEntity
  8
0
  6
Continuous
 62
   144
370
    18
100
AcDbLine
 10
74.4392491885
 20
-32.6870637784
 30
0.0
 11
75.4398400102
 21
-33.7498141199
 31
0.0
  0
LINE
  5
289
330
1F
100
AcDbEntity
  8
0
  6
Continuous
 62
   144
370
    18
100
AcDbLine
 10
96.6234542086
 20
-33.727873538
 30
0.0
 11
97.6230444134
 21
-32.6640121221
 31
0.0
  0
LINE
  5
28A
330
1F
100
AcDbEntity
  8
0
  6
Continuous
 62
   144
370
    18
100
AcDbLine
 10
97.6230449115
 20
-32.6640115919
 30
0.0
 11
97.6126692541
 21
-29.6747910714
 31
0.0
  0
LINE
  5
28B
330
1F
100
AcDbEntity
  8
0
  6
Continuous
 62
   144
370
    18
100
AcDbLine
 10
97.6126692513
 20
-29.6747902848
 30
0.0
 11
96.6045919454
 21
-28.459273966
 31
0.0
  0
LINE
  5
28C
330
1F
100
AcDbEntity
  8
0
  6
Continuous
 62
   144
370
    18
100
AcDbLine
 10
96.6045915311
 20
-28.4592734664
 30
0.0
 11
75.4499731594
 21
-28.4787127097
 31
0.0
  0
LINE
  5
28D
330
1F
100
AcDbEntity
  8
0
  6
Continuous
 62
   144
370
    18
100
AcDbLine
 10
75.4499731594
 20
-28.4787127097
 30
0.0
 11
74.445302448
 21
-29.6982139037
 31
0.0
  0
LINE
  5
28E
330
1F
100
AcDbEntity
  8
0
  6
Continuous
 62
   144
370
    18
100
AcDbLine
 10
75.4615749943
 20
-25.9000429611
 30
0.0
 11
96.5878352521
 21
-25.8813247803
 31
0.0
  0
LINE
  5
28F
330
1F
100
AcDbEntity
  8
0
  6
Continuous
 62
   144
370
    18
100
AcDbLine
 10
96.5878358297
 20
-25.8813247798
 30
0.0
 11
97.5781796377
 21
-24.1654813971
 31
0.0
  0
LINE
  5
290
330
1F
100
AcDbEntity
  8
0
  6
Continuous
 62
   144
370
    18
100
AcDbLine
 10
97.5781801306
 20
-24.1654805432
 30
0.0
 11
97.545139527
 21
-20.2095561959
 31
0.0
  0
LINE
  5
291
330
1F
100
AcDbEntity
  8
0
  6
Continuous
 62
   144
370
    18
100
AcDbLine
 10
97.5451395209
 20
-20.2095554642
 30
0.0
 11
96.5423409115
 21
-19.1559119835
 31
0.0
  0
LINE
  5
292
330
1F
100
AcDbEntity
  8
0
  6
Continuous
 62
   144
370
    18
100
AcDbLine
 10
96.542340436
 20
-19.1559114839
 30
0.0
 11
75.4989654326
 21
-19.1735799025
 31
0.0
  0
LINE
  5
293
330
1F
100
AcDbEntity
  8
0
  6
Continuous
 62
   144
370
    18
100
AcDbLine
 10
75.4989647423
 20
-19.1735799032
 30
0.0
 11
74.4973776821
 21
-20.2279853538
 31
0.0
  0
LINE
  5
294
330
1F
100
AcDbEntity
  8
0
  6
Continuous
 62
   144
370
    18
100
AcDbLine
 10
74.4973771786
 20
-20.2279858839
 30
0.0
 11
74.471114087
 21
-24.1836437491
 31
0.0
  0
LINE
  5
295
330
1F
100
AcDbEntity
  8
0
  6
Continuous
 62
   144
370
    18
100
AcDbLine
 10
74.471114087
 20
-24.1836437491
 30
0.0
 11
75.461574706
 21
-25.9000424613
 31
0.0
  0
LINE
  5
296
330
1F
100
AcDbEntity
  8
0
  6
Continuous
 62
   144
370
    18
100
AcDbLine
 10
126.5925320983
 20
-25.8654883112
 30
0.0
 11
127.5828214521
 21
-24.148105094
 31
0.0
  0
LINE
  5
297
330
1F
100
AcDbEntity
  8
0
  6
Continuous
 62
   144
370
    18
100
AcDbLine
 10
127.5828219454
 20
-24.1481042385
 30
0.0
 11
127.551905488
 21
-20.1893586269
 31
0.0
  0
LINE
  5
298
330
1F
100
AcDbEntity
  8
0
  6
Continuous
 62
   144
370
    18
100
AcDbLine
 10
127.5519054823
 20
-20.1893578952
 30
0.0
 11
126.5496884941
 21
-19.1350284363
 31
0.0
  0
LINE
  5
299
330
1F
100
AcDbEntity
  8
0
  6
Continuous
 62
   144
370
    18
100
AcDbLine
 10
126.5496880191
 20
-19.1350279366
 30
0.0
 11
100.5030274253
 21
-19.1529930297
 31
0.0
  0
LINE
  5
29A
330
1F
100
AcDbEntity
  8
0
  6
Continuous
 62
   144
370
    18
100
AcDbLine
 10
100.5030267357
 20
-19.1529930301
 30
0.0
 11
99.5018657691
 21
-20.2081726227
 31
0.0
  0
LINE
  5
29B
330
1F
100
AcDbEntity
  8
0
  6
Continuous
 62
   144
370
    18
100
AcDbLine
 10
99.5018652654
 20
-20.2081731537
 30
0.0
 11
99.4739443561
 21
-24.1640411683
 31
0.0
  0
LINE
  5
29C
330
1F
100
AcDbEntity
  8
0
  6
Continuous
 62
   144
370
    18
100
AcDbLine
 10
99.4739443561
 20
-24.1640411683
 30
0.0
 11
100.4661574632
 21
-25.8785218346
 31
0.0
  0
LINE
  5
29D
330
1F
100
AcDbEntity
  8
0
  6
Continuous
 62
   144
370
    18
100
AcDbLine
 10
126.6245102496
 20
-33.7126389546
 30
0.0
 11
127.6240491681
 21
-32.6485797873
 31
0.0
  0
LINE
  5
29E
330
1F
100
AcDbEntity
  8
0
  6
Continuous
 62
   144
370
    18
100
AcDbLine
 10
127.6240496665
 20
-32.6485792567
 30
0.0
 11
127.6150175546
 21
-29.6589201034
 31
0.0
  0
LINE
  5
29F
330
1F
100
AcDbEntity
  8
0
  6
Continuous
 62
   144
370
    18
100
AcDbLine
 10
127.6150175522
 20
-29.6589193184
 30
0.0
 11
126.6051450023
 21
-28.4442016905
 31
0.0
  0
LINE
  5
2A0
330
1F
100
AcDbEntity
  8
0
  6
Continuous
 62
   144
370
    18
100
AcDbLine
 10
100.4533693872
 20
-28.4565364647
 30
0.0
 11
99.4471127208
 21
-29.6737693261
 31
0.0
  0
LINE
  5
2A1
330
1F
100
AcDbEntity
  8
0
  6
Continuous
 62
   144
370
    18
100
AcDbLine
 10
99.4471122193
 20
-29.6737699326
 30
0.0
 11
99.440088239
 21
-32.6629337938
 31
0.0
  0
LINE
  5
2A2
330
1F
100
AcDbEntity
  8
0
  6
Continuous
 62
   144
370
    18
100
AcDbLine
 10
99.440088239
 20
-32.6629337938
 30
0.0
 11
100.4406914987
 21
-33.7256373887
 31
0.0
  0
LINE
  5
2A3
330
1F
100
AcDbEntity
  8
0
  6
Continuous
 62
   144
370
    18
100
AcDbLine
 10
46.6235270644
 20
-33.7727048538
 30
0.0
 11
47.623080691
 21
-32.7085918426
 31
0.0
  0
LINE
  5
2A4
330
1F
100
AcDbEntity
  8
0
  6
Continuous
 62
   144
370
    18
100
AcDbLine
 10
47.6230811887
 20
-32.7085913128
 30
0.0
 11
47.6101805768
 21
-29.7188379597
 31
0.0
  0
LINE
  5
2A5
330
1F
100
AcDbEntity
  8
0
  6
Continuous
 62
   144
370
    18
100
AcDbLine
 10
47.6101805734
 20
-29.7188371728
 30
0.0
 11
46.6014806859
 21
-28.5037179011
 31
0.0
  0
LINE
  5
2A6
330
1F
100
AcDbEntity
  8
0
  6
Continuous
 62
   144
370
    18
100
AcDbLine
 10
46.6014802715
 20
-28.5037174019
 30
0.0
 11
32.565832228
 21
-28.5301507158
 31
0.0
  0
LINE
  5
2A7
330
1F
100
AcDbEntity
  8
0
  6
Continuous
 62
   144
370
    18
100
AcDbLine
 10
32.5658317169
 20
-28.5301507168
 30
0.0
 11
33.1082972706
 21
-25.9506939666
 31
0.0
  0
LINE
  5
2A8
330
1F
100
AcDbEntity
  8
0
  6
Continuous
 62
   144
370
    18
100
AcDbLine
 10
33.1082973758
 20
-25.9506934664
 30
0.0
 11
46.5827617555
 21
-25.9255329859
 31
0.0
  0
LINE
  5
2A9
330
1F
100
AcDbEntity
  8
0
  6
Continuous
 62
   144
370
    18
100
AcDbLine
 10
46.5827623331
 20
-25.9255329849
 30
0.0
 11
47.5716279472
 21
-24.2081000664
 31
0.0
  0
LINE
  5
2AA
330
1F
100
AcDbEntity
  8
0
  6
Continuous
 62
   144
370
    18
100
AcDbLine
 10
47.5716284396
 20
-24.2080992113
 30
0.0
 11
47.5359848357
 21
-20.2504303296
 31
0.0
  0
LINE
  5
2AB
330
1F
100
AcDbEntity
  8
0
  6
Continuous
 62
   144
370
    18
100
AcDbLine
 10
47.5359848291
 20
-20.2504295982
 30
0.0
 11
46.532473021
 21
-19.1981131509
 31
0.0
  0
LINE
  5
2AC
330
1F
100
AcDbEntity
  8
0
  6
Continuous
 62
   144
370
    18
100
AcDbLine
 10
46.5324725445
 20
-19.1981126512
 30
0.0
 11
44.2302355901
 21
-19.1996891937
 31
0.0
  0
LINE
  5
2AD
330
1F
100
AcDbEntity
  8
0
  6
Continuous
 62
   144
370
    18
100
AcDbLine
 10
44.2302349769
 20
-19.1996891941
 30
0.0
 11
45.3462458132
 21
-17.6254562417
 31
0.0
  0
LINE
  5
2AE
330
1F
100
AcDbEntity
  8
0
  6
Continuous
 62
   144
370
    18
100
AcDbLine
 10
45.3462482048
 20
-17.625452868
 30
0.0
 11
46.1971350784
 21
-16.051067492
 31
0.0
  0
LINE
  5
2AF
330
1F
100
AcDbEntity
  8
0
  6
Continuous
 62
   144
370
    18
100
AcDbLine
 10
46.1971353487
 20
-16.0510669918
 30
0.0
 11
46.6295954926
 21
-16.0507629397
 31
0.0
  0
LINE
  5
2B0
330
1F
100
AcDbEntity
  8
0
  6
Continuous
 62
   144
370
    18
100
AcDbLine
 10
46.6295961831
 20
-16.0507629392
 30
0.0
 11
47.5313063036
 21
-15.1029187841
 31
0.0
  0
LINE
  5
2B1
330
1F
100
AcDbEntity
  8
0
  6
Continuous
 62
   144
370
    18
100
AcDbLine
 10
47.5313068074
 20
-15.1029182544
 30
0.0
 11
47.5594312139
 21
-11.2351382777
 31
0.0
  0
LINE
  5
2B2
330
1F
100
AcDbEntity
  8
0
  6
Continuous
 62
   144
370
    18
100
AcDbLine
 10
47.559431226
 20
-11.2351366069
 30
0.0
 11
47.0965919144
 21
-9.7208635584
 31
0.0
  0
LINE
  5
2B3
330
1F
100
AcDbEntity
  8
0
  6
Continuous
 62
   144
370
    18
100
AcDbLine
 10
47.0965917667
 20
-9.7208630751
 30
0.0
 11
47.9753328032
 21
-9.3052712953
 31
0.0
  0
LINE
  5
2B4
330
1F
100
AcDbEntity
  8
0
  6
Continuous
 62
   144
370
    18
100
AcDbLine
 10
47.9753336612
 20
-9.3052708895
 30
0.0
 11
46.1941328788
 21
-9.1030197759
 31
0.0
  0
LINE
  5
2B5
330
1F
100
AcDbEntity
  8
0
  6
Continuous
 62
   144
370
    18
100
AcDbLine
 10
46.1941282942
 20
-9.1030192553
 30
0.0
 11
45.1478604859
 21
-8.8672491594
 31
0.0
  0
LINE
  5
2B6
330
1F
100
AcDbEntity
  8
0
  6
Continuous
 62
   144
370
    18
100
AcDbLine
 10
13.1949637242
 20
-4.8657950771
 30
0.0
 11
12.7441943142
 21
-4.7864320135
 31
0.0
  0
LINE
  5
2B7
330
1F
100
AcDbEntity
  8
0
  6
Continuous
 62
   144
370
    18
100
AcDbLine
 10
-45.3705674063
 20
4.0449267384
 30
0.0
 11
-45.7407494004
 21
4.3069842072
 31
0.0
  0
LINE
  5
2B8
330
1F
100
AcDbEntity
  8
0
  6
Continuous
 62
   144
370
    18
100
AcDbLine
 10
-45.740750379
 20
4.3069849
 30
0.0
 11
-46.2333607011
 21
5.1582039931
 31
0.0
  0
LINE
  5
2B9
330
1F
100
AcDbEntity
  8
0
  6
Continuous
 62
   144
370
    18
100
AcDbLine
 10
-47.6754532828
 20
7.6501061812
 30
0.0
 11
-47.8219071083
 21
7.9031749597
 31
0.0
  0
LINE
  5
2BA
330
1F
100
AcDbEntity
  8
0
  6
Continuous
 62
   144
370
    18
100
AcDbLine
 10
-47.8219074914
 20
7.9031756218
 30
0.0
 11
-45.6199299779
 21
7.1395864355
 31
0.0
  0
LINE
  5
2BB
330
1F
100
AcDbEntity
  8
0
  6
Continuous
 62
   144
370
    18
100
AcDbLine
 10
45.5461730168
 20
-6.456292047
 30
0.0
 11
46.4778596022
 21
-6.5593755738
 31
0.0
  0
LINE
  5
2BC
330
1F
100
AcDbEntity
  8
0
  6
Continuous
 62
   144
370
    18
100
AcDbLine
 10
46.4778596022
 20
-6.5593755738
 30
0.0
 11
46.7385245399
 21
-6.5869918971
 31
0.0
  0
LINE
  5
2BD
330
1F
100
AcDbEntity
  8
0
  6
Continuous
 62
   144
370
    18
100
AcDbLine
 10
46.7385252112
 20
-6.5869919682
 30
0.0
 11
47.5127461283
 21
-5.8961482233
 31
0.0
  0
LINE
  5
2BE
330
1F
100
AcDbEntity
  8
0
  6
Continuous
 62
   144
370
    18
100
AcDbLine
 10
47.5127461283
 20
-5.8961482233
 30
0.0
 11
47.5827129626
 21
-5.4634993618
 31
0.0
  0
LINE
  5
2BF
330
1F
100
AcDbEntity
  8
0
  6
Continuous
 62
   144
370
    18
100
AcDbLine
 10
47.5827134718
 20
-5.4634962129
 30
0.0
 11
47.5908787065
 21
-2.6803963566
 31
0.0
  0
LINE
  5
2C0
330
1F
100
AcDbEntity
  8
0
  6
Continuous
 62
   144
370
    18
100
AcDbLine
 10
47.5908787096
 20
-2.6803952881
 30
0.0
 11
47.1097410333
 21
-1.7652731987
 31
0.0
  0
LINE
  5
2C1
330
1F
100
AcDbEntity
  8
0
  6
Continuous
 62
   144
370
    18
100
AcDbLine
 10
47.1097408002
 20
-1.7652727555
 30
0.0
 11
47.4842152314
 21
-1.5402363673
 31
0.0
  0
LINE
  5
2C2
330
1F
100
AcDbEntity
  8
0
  6
Continuous
 62
   144
370
    18
100
AcDbLine
 10
47.4842161777
 20
-1.5402357986
 30
0.0
 11
46.6103732537
 21
-1.6025123156
 31
0.0
  0
LINE
  5
2C3
330
1F
100
AcDbEntity
  8
0
  6
Continuous
 62
   144
370
    18
100
AcDbLine
 10
46.6103329438
 20
-1.6025151884
 30
0.0
 11
46.1394997056
 21
-1.6302199732
 31
0.0
  0
LINE
  5
2C4
330
1F
100
AcDbEntity
  8
0
  6
Continuous
 62
   144
370
    18
100
AcDbLine
 10
46.1394992047
 20
-1.6302200027
 30
0.0
 11
46.1807534173
 21
0.011096562
 31
0.0
  0
LINE
  5
2C5
330
1F
100
AcDbEntity
  8
0
  6
Continuous
 62
   144
370
    18
100
AcDbLine
 10
46.1807534298
 20
0.0110970619
 30
0.0
 11
46.635767084
 21
0.0057511397
 31
0.0
  0
LINE
  5
2C6
330
1F
100
AcDbEntity
  8
0
  6
Continuous
 62
   144
370
    18
100
AcDbLine
 10
46.635767084
 20
0.0057511397
 30
0.0
 11
47.4577851738
 21
0.0
 31
0.0
  0
LINE
  5
2C7
330
1F
100
AcDbEntity
  8
0
  6
Continuous
 62
   144
370
    18
100
AcDbLine
 10
33.1998004662
 20
-35.2951709627
 30
0.0
 11
33.1125797845
 21
-33.8198751282
 31
0.0
  0
LINE
  5
2C8
330
1F
100
AcDbEntity
  8
0
  6
Continuous
 62
   144
370
    18
100
AcDbLine
 10
33.1125797845
 20
-33.8198751282
 30
0.0
 11
46.6235263762
 21
-33.7727048562
 31
0.0
  0
ENDSEC
  0
SECTION
  2
OBJECTS
  0
DICTIONARY
  5
C
330
0
100
AcDbDictionary
281
     1
  3
ACAD_GROUP
350
D
  3
ACAD_LAYOUT
350
1A
  3
ACAD_MLINESTYLE
350
17
  3
ACAD_PLOTSETTINGS
350
19
  3
ACAD_PLOTSTYLENAME
350
E
  3
ACAD_SCALELIST
350
47
  0
DICTIONARY
  5
D
102
{ACAD_REACTORS
330
C
102
}
330
C
100
AcDbDictionary
281
     1
  0
DICTIONARY
  5
1A
102
{ACAD_REACTORS
330
C
102
}
330
C
100
AcDbDictionary
281
     1
  3
Layout1
350
1E
  3
Layout2
350
26
  3
Model
350
22
  0
DICTIONARY
  5
17
102
{ACAD_REACTORS
330
C
102
}
330
C
100
AcDbDictionary
281
     1
  3
Standard
350
18
  0
DICTIONARY
  5
19
102
{ACAD_REACTORS
330
C
102
}
330
C
100
AcDbDictionary
281
     1
  0
ACDBDICTIONARYWDFLT
  5
E
102
{ACAD_REACTORS
330
C
102
}
330
C
100
AcDbDictionary
281
     1
  3
Normal
350
F
100
AcDbDictionaryWithDefault
340
F
  0
DICTIONARY
  5
47
102
{ACAD_REACTORS
330
C
102
}
330
C
100
AcDbDictionary
281
     1
  3
A0
350
48
  3
A1
350
49
  3
A2
350
4A
  3
A3
350
4B
  3
A4
350
4C
  3
A5
350
4D
  3
A6
350
4E
  3
A7
350
4F
  3
A8
350
50
  3
A9
350
51
  3
B0
350
52
  3
B1
350
53
  3
B2
350
54
  3
B3
350
55
  3
B4
350
56
  3
B5
350
57
  3
B6
350
58
  3
B7
350
59
  3
B8
350
5A
  3
B9
350
5B
  3
C0
350
5C
  3
C1
350
5D
  3
C2
350
5E
  3
C3
350
5F
  3
C4
350
60
  3
C5
350
61
  3
C6
350
62
  3
C7
350
63
  3
C8
350
64
  3
C9
350
65
  3
D0
350
66
  3
D1
350
67
  3
D2
350
68
  0
LAYOUT
  5
1E
102
{ACAD_REACTORS
330
1A
102
}
330
1A
100
AcDbPlotSettings
  1

  2
none_device
  4

  6

 40
0.0
 41
0.0
 42
0.0
 43
0.0
 44
0.0
 45
0.0
 46
0.0
 47
0.0
 48
0.0
 49
0.0
140
0.0
141
0.0
142
1.0
143
1.0
 70
   688
 72
     1
 73
     0
 74
     5
  7

 75
    16
147
1.0
148
0.0
149
0.0
100
AcDbLayout
  1
Layout1
 70
     1
 71
     1
 10
0.0
 20
0.0
 11
420.0
 21
297.0
 12
0.0
 22
0.0
 32
0.0
 14
1.0000000000E+20
 24
1.0000000000E+20
 34
1.0000000000E+20
 15
-1.0000000000E+20
 25
-1.0000000000E+20
 35
-1.0000000000E+20
146
0.0
 13
0.0
 23
0.0
 33
0.0
 16
1.0
 26
0.0
 36
0.0
 17
0.0
 27
1.0
 37
0.0
 76
     0
330
1B
  0
LAYOUT
  5
26
102
{ACAD_REACTORS
330
1A
102
}
330
1A
100
AcDbPlotSettings
  1

  2
none_device
  4

  6

 40
0.0
 41
0.0
 42
0.0
 43
0.0
 44
0.0
 45
0.0
 46
0.0
 47
0.0
 48
0.0
 49
0.0
140
0.0
141
0.0
142
1.0
143
1.0
 70
   688
 72
     1
 73
     0
 74
     5
  7

 75
    16
147
1.0
148
0.0
149
0.0
100
AcDbLayout
  1
Layout2
 70
     1
 71
     2
 10
0.0
 20
0.0
 11
0.0
 21
0.0
 12
0.0
 22
0.0
 32
0.0
 14
0.0
 24
0.0
 34
0.0
 15
0.0
 25
0.0
 35
0.0
146
0.0
 13
0.0
 23
0.0
 33
0.0
 16
1.0
 26
0.0
 36
0.0
 17
0.0
 27
1.0
 37
0.0
 76
     0
330
23
  0
LAYOUT
  5
22
102
{ACAD_REACTORS
330
1A
102
}
330
1A
100
AcDbPlotSettings
  1

  2
none_device
  4
ANSI_A_(11.00_x_8.50_Inches)
  6

 40
6.35
 41
19.05
 42
6.35000508
 43
19.05000254
 44
279.4
 45
215.9
 46
72.1285032777
 47
88.89999873
 48
0.0
 49
0.0
140
0.0
141
0.0
142
0.0606452412
143
1.0
 70
  1696
 72
     0
 73
     0
 74
     0
  7

 75
     0
147
0.0179189148
148
-1300.4909072572
149
0.0
100
AcDbLayout
  1
Model
 70
     1
 71
     0
 10
0.0
 20
0.0
 11
420.0
 21
297.0
 12
0.0
 22
0.0
 32
0.0
 14
-50.0402816922
 24
-35.2951709627
 34
0.0
 15
129.5286306027
 25
35.2951709627
 35
0.0
146
0.0
 13
0.0
 23
0.0
 33
0.0
 16
1.0
 26
0.0
 36
0.0
 17
0.0
 27
1.0
 37
0.0
 76
     0
330
1F
331
29
  0
MLINESTYLE
  5
18
102
{ACAD_REACTORS
330
17
102
}
330
17
100
AcDbMlineStyle
  2
Standard
 70
     0
  3

 62
   256
 51
90.0
 52
90.0
 71
     2
 49
0.5
 62
   256
  6
BYLAYER
 49
-0.5
 62
   256
  6
BYLAYER
  0
ACDBPLACEHOLDER
  5
F
102
{ACAD_REACTORS
330
E
102
}
330
E
  0
SCALE
  5
48
102
{ACAD_REACTORS
330
47
102
}
330
47
100
AcDbScale
 70
     0
300
1:1
140
1.0
141
1.0
290
     1
  0
SCALE
  5
49
102
{ACAD_REACTORS
330
47
102
}
330
47
100
AcDbScale
 70
     0
300
1:2
140
1.0
141
2.0
290
     0
  0
SCALE
  5
4A
102
{ACAD_REACTORS
330
47
102
}
330
47
100
AcDbScale
 70
     0
300
1:4
140
1.0
141
4.0
290
     0
  0
SCALE
  5
4B
102
{ACAD_REACTORS
330
47
102
}
330
47
100
AcDbScale
 70
     0
300
1:5
140
1.0
141
5.0
290
     0
  0
SCALE
  5
4C
102
{ACAD_REACTORS
330
47
102
}
330
47
100
AcDbScale
 70
     0
300
1:8
140
1.0
141
8.0
290
     0
  0
SCALE
  5
4D
102
{ACAD_REACTORS
330
47
102
}
330
47
100
AcDbScale
 70
     0
300
1:10
140
1.0
141
10.0
290
     0
  0
SCALE
  5
4E
102
{ACAD_REACTORS
330
47
102
}
330
47
100
AcDbScale
 70
     0
300
1:16
140
1.0
141
16.0
290
     0
  0
SCALE
  5
4F
102
{ACAD_REACTORS
330
47
102
}
330
47
100
AcDbScale
 70
     0
300
1:20
140
1.0
141
20.0
290
     0
  0
SCALE
  5
50
102
{ACAD_REACTORS
330
47
102
}
330
47
100
AcDbScale
 70
     0
300
1:30
140
1.0
141
30.0
290
     0
  0
SCALE
  5
51
102
{ACAD_REACTORS
330
47
102
}
330
47
100
AcDbScale
 70
     0
300
1:40
140
1.0
141
40.0
290
     0
  0
SCALE
  5
52
102
{ACAD_REACTORS
330
47
102
}
330
47
100
AcDbScale
 70
     0
300
1:50
140
1.0
141
50.0
290
     0
  0
SCALE
  5
53
102
{ACAD_REACTORS
330
47
102
}
330
47
100
AcDbScale
 70
     0
300
1:100
140
1.0
141
100.0
290
     0
  0
SCALE
  5
54
102
{ACAD_REACTORS
330
47
102
}
330
47
100
AcDbScale
 70
     0
300
2:1
140
2.0
141
1.0
290
     0
  0
SCALE
  5
55
102
{ACAD_REACTORS
330
47
102
}
330
47
100
AcDbScale
 70
     0
300
4:1
140
4.0
141
1.0
290
     0
  0
SCALE
  5
56
102
{ACAD_REACTORS
330
47
102
}
330
47
100
AcDbScale
 70
     0
300
8:1
140
8.0
141
1.0
290
     0
  0
SCALE
  5
57
102
{ACAD_REACTORS
330
47
102
}
330
47
100
AcDbScale
 70
     0
300
10:1
140
10.0
141
1.0
290
     0
  0
SCALE
  5
58
102
{ACAD_REACTORS
330
47
102
}
330
47
100
AcDbScale
 70
     0
300
100:1
140
100.0
141
1.0
290
     0
  0
SCALE
  5
59
102
{ACAD_REACTORS
330
47
102
}
330
47
100
AcDbScale
 70
     0
300
1/128" = 1'-0"
140
0.0078125
141
12.0
290
     0
  0
SCALE
  5
5A
102
{ACAD_REACTORS
330
47
102
}
330
47
100
AcDbScale
 70
     0
300
1/64" = 1'-0"
140
0.015625
141
12.0
290
     0
  0
SCALE
  5
5B
102
{ACAD_REACTORS
330
47
102
}
330
47
100
AcDbScale
 70
     0
300
1/32" = 1'-0"
140
0.03125
141
12.0
290
     0
  0
SCALE
  5
5C
102
{ACAD_REACTORS
330
47
102
}
330
47
100
AcDbScale
 70
     0
300
1/16" = 1'-0"
140
0.0625
141
12.0
290
     0
  0
SCALE
  5
5D
102
{ACAD_REACTORS
330
47
102
}
330
47
100
AcDbScale
 70
     0
300
3/32" = 1'-0"
140
0.09375
141
12.0
290
     0
  0
SCALE
  5
5E
102
{ACAD_REACTORS
330
47
102
}
330
47
100
AcDbScale
 70
     0
300
1/8" = 1'-0"
140
0.125
141
12.0
290
     0
  0
SCALE
  5
5F
102
{ACAD_REACTORS
330
47
102
}
330
47
100
AcDbScale
 70
     0
300
3/16" = 1'-0"
140
0.1875
141
12.0
290
     0
  0
SCALE
  5
60
102
{ACAD_REACTORS
330
47
102
}
330
47
100
AcDbScale
 70
     0
300
1/4" = 1'-0"
140
0.25
141
12.0
290
     0
  0
SCALE
  5
61
102
{ACAD_REACTORS
330
47
102
}
330
47
100
AcDbScale
 70
     0
300
3/8" = 1'-0"
140
0.375
141
12.0
290
     0
  0
SCALE
  5
62
102
{ACAD_REACTORS
330
47
102
}
330
47
100
AcDbScale
 70
     0
300
1/2" = 1'-0"
140
0.5
141
12.0
290
     0
  0
SCALE
  5
63
102
{ACAD_REACTORS
330
47
102
}
330
47
100
AcDbScale
 70
     0
300
3/4" = 1'-0"
140
0.75
141
12.0
290
     0
  0
SCALE
  5
64
102
{ACAD_REACTORS
330
47
102
}
330
47
100
AcDbScale
 70
     0
300
1" = 1'-0"
140
1.0
141
12.0
290
     0
  0
SCALE
  5
65
102
{ACAD_REACTORS
330
47
102
}
330
47
100
AcDbScale
 70
     0
300
1-1/2" = 1'-0"
140
1.5
141
12.0
290
     0
  0
SCALE
  5
66
102
{ACAD_REACTORS
330
47
102
}
330
47
100
AcDbScale
 70
     0
300
3" = 1'-0"
140
3.0
141
12.0
290
     0
  0
SCALE
  5
67
102
{ACAD_REACTORS
330
47
102
}
330
47
100
AcDbScale
 70
     0
300
6" = 1'-0"
140
6.0
141
12.0
290
     0
  0
SCALE
  5
68
102
{ACAD_REACTORS
330
47
102
}
330
47
100
AcDbScale
 70
     0
300
1'-0" = 1'-0"
140
12.0
141
12.0
290
     0
  0
ENDSEC
  0
EOF
